<svg xmlns="http://www.w3.org/2000/svg" xmlns:xlink="http://www.w3.org/1999/xlink" version="1.1" viewBox="0 0 3069.9999603501997 963.0000186555669" style="background: #ffffff"><g id="v-3"  transform="matrix(1,0,0,1,0,0)"><g id="j_11"    transform="translate(20,918.0000186555669)"><g id="v-175"><text  id="v-176" font-size="22px" y="0.8em" xml:space="preserve" font-weight="normal" text-anchor="start" fill="#aaaaaa" pointer-events="none" font-family="Open Sans" transform="matrix(1,0,0,1,0,0)" display="block"><tspan id="v-177"  dy="0em" x="0">Thursday, January 12, 2023 at 11:07 AM Central European Standard Time</tspan></text></g></g><g id="j_10"    transform="translate(20,889.0000186555669)"><g id="v-171"><text  id="v-172" font-size="22px" y="0.8em" xml:space="preserve" font-weight="normal" text-anchor="start" fill="#aaaaaa" pointer-events="none" font-family="Open Sans" transform="matrix(1,0,0,1,0,0)" display="block"><tspan id="v-173"  dy="0em" x="0">MILA mobile workflow refined</tspan></text></g></g><g id="j_9"    transform="translate(20,843.0000186555669)"><g id="v-167"><text  id="v-168" font-size="36px" y="0.8em" xml:space="preserve" font-weight="normal" text-anchor="start" fill="#000000" pointer-events="none" font-family="Open Sans" transform="matrix(1,0,0,1,0,0)" display="block"><tspan id="v-169"  dy="0em" x="0">[Dynamic] MILA</tspan></text></g></g><g id="j_1"    transform="translate(930,200)" style=""><g id="v-6"><rect  id="v-7" width="1940" height="563" rx="0" ry="0" fill="#ffffff" stroke="#0c7cba" stroke-width="8" stroke-dasharray="20,20" pointer-events="none"></rect><text  id="v-8" font-size="24px" y="524" xml:space="preserve" font-weight="normal" fill="#0c7cba" x="10" text-anchor="start" pointer-events="visible" font-family="Open Sans" transform="matrix(1,0,0,1,15,0)"><tspan id="v-11"  dy="0em" x="0">MILA</tspan></text><text  id="v-9" font-size="19px" y="548" xml:space="preserve" font-weight="normal" fill="#0c7cba" x="10" text-anchor="start" pointer-events="visible" font-family="Open Sans" transform="matrix(1,0,0,1,15,0)"><tspan id="v-12"  dy="0em" x="0">[Software System]</tspan></text><image  id="v-10" pointer-events="visible"></image></g></g><g id="j_2"    transform="translate(200,245)" style=""><g  id="v-18" style="opacity: 1;"><rect  x="0" y="160" width="400" height="240" rx="70" id="v-20" stroke="#834187" stroke-width="8" pointer-events="visiblePainted" fill="#f4d9ff" style="fill: rgb(244, 217, 255); stroke: rgb(131, 65, 135);"></rect><circle  cx="200" cy="88.88888888888889" r="88.88888888888889" id="v-19" stroke="#834187" stroke-width="8" pointer-events="visiblePainted" fill="#f4d9ff" style="fill: rgb(244, 217, 255); stroke: rgb(131, 65, 135);"></circle><line  x1="80" y1="266.6666666666667" x2="80" y2="400" id="v-26" stroke="#834187" stroke-width="8" style="stroke: rgb(131, 65, 135);"></line><line  x1="320" y1="266.6666666666667" x2="320" y2="400" id="v-27" stroke="#834187" stroke-width="8" style="stroke: rgb(131, 65, 135);"></line><text  id="v-21" font-size="34px" y="0.8em" xml:space="preserve" font-weight="bold" text-anchor="middle" pointer-events="visible" font-family="Open Sans" fill="#000000" transform="matrix(1,0,0,1,200,205)" style="fill: rgb(0, 0, 0);"><tspan id="v-28"  dy="0em" x="0">Material scientist</tspan></text><text  id="v-22" font-size="19px" y="0.8em" xml:space="preserve" text-anchor="middle" font-family="Open Sans" fill="#000000" transform="matrix(1,0,0,1,200,247.5)" style="fill: rgb(0, 0, 0);"><tspan id="v-29"  dy="0em" x="0">[Person]</tspan></text><text  id="v-23" font-size="24px" y="0.8em" xml:space="preserve" text-anchor="middle" font-family="Open Sans" fill="#000000" transform="matrix(1,0,0,1,200,295)" style="fill: rgb(0, 0, 0);"><tspan id="v-30"  dy="0em" x="0">Leverages smartphone facilities</tspan><tspan id="v-31"  dy="1.2em" x="0">to capture materials properties.</tspan></text><text  id="v-24" font-weight="bold" text-anchor="middle" font-family="Open Sans" fill="#000000" font-size="24" transform="matrix(1,0,0,1,200,371.2)" style="fill: rgb(0, 0, 0);" display="none"></text><image  id="v-25"></image></g></g><g id="j_3"    transform="translate(950,220)" style="" ><g  id="v-39" style="opacity: 1;"><rect  id="v-40" rx="20" ry="20" stroke="#c92d39" stroke-width="2" pointer-events="visiblePainted" fill="#c92d39" width="300" height="450" style="fill: rgb(201, 45, 57); stroke: rgb(201, 45, 57);"></rect><rect  id="v-41" rx="5" ry="5" stroke="#c92d39" stroke-width="0" pointer-events="visiblePainted" fill="#ffd9d9" width="280" height="370" x="10" y="40" style="fill: rgb(255, 217, 217);"></rect><ellipse  id="v-47" fill="#ffd9d9" cx="150" cy="430" rx="10" ry="10" style="fill: rgb(255, 217, 217);"></ellipse><line  style="stroke-width: 2px; stroke: rgb(255, 217, 217);" id="v-48" stroke="#ffd9d9" x1="125" y1="20" x2="175" y2="20"></line><text  id="v-42" font-size="34" y="0.8em" xml:space="preserve" font-weight="bold" text-anchor="middle" pointer-events="visible" font-family="Open Sans" fill="#000000" transform="matrix(1,0,0,1,150,98.8)" style="fill: rgb(0, 0, 0);"><tspan id="v-49"  dy="0em" x="0">Mobile</tspan><tspan id="v-50"  dy="1.2em" x="0">application</tspan></text><text  id="v-43" font-size="19" y="0.8em" xml:space="preserve" text-anchor="middle" font-family="Open Sans" fill="#000000" transform="matrix(1,0,0,1,150,183.8)" style="fill: rgb(0, 0, 0);"><tspan id="v-51"  dy="0em" x="0">[Container: Xamarin]</tspan></text><text  id="v-44" font-size="24" y="0.8em" xml:space="preserve" text-anchor="middle" font-family="Open Sans" fill="#000000" transform="matrix(1,0,0,1,150,231.2)" style="fill: rgb(0, 0, 0);"><tspan id="v-52"  dy="0em" x="0">Provides uncluttered</tspan><tspan id="v-53"  dy="1.2em" x="0">interface to ease</tspan><tspan id="v-54"  dy="1.2em" x="0">pictures shooting,</tspan><tspan id="v-55"  dy="1.2em" x="0">stiching &amp; uploading.</tspan></text><text  id="v-45" font-weight="bold" text-anchor="middle" font-family="Open Sans" fill="#000000" font-size="24" transform="matrix(1,0,0,1,150,405)" y="0.8em" xml:space="preserve" display="none" style="fill: rgb(0, 0, 0);"><tspan id="v-56"  dy="0em" x="0">+</tspan></text><image  id="v-46"></image></g></g><g id="j_4"    transform="translate(1600,295)" style="" ><g  id="v-60" style="opacity: 1;"><rect  id="v-61" rx="1" ry="1" stroke="#c92d39" stroke-width="8" pointer-events="visiblePainted" fill="#ffd9d9" width="450" height="300" style="fill: rgb(255, 217, 217); stroke: rgb(201, 45, 57);"></rect><text  id="v-62" font-size="34" y="0.8em" xml:space="preserve" font-weight="bold" text-anchor="middle" pointer-events="visible" font-family="Open Sans" fill="#000000" transform="matrix(1,0,0,1,225,30)" style="fill: rgb(0, 0, 0);"><tspan id="v-67"  dy="0em" x="0">API application</tspan></text><text  id="v-63" font-size="19" y="0.8em" xml:space="preserve" text-anchor="middle" font-family="Open Sans" fill="#000000" transform="matrix(1,0,0,1,225,72.5)" style="fill: rgb(0, 0, 0);"><tspan id="v-68"  dy="0em" x="0">[Container]</tspan></text><text  id="v-64" font-size="24" y="0.8em" xml:space="preserve" text-anchor="middle" font-family="Open Sans" fill="#000000" transform="matrix(1,0,0,1,225,120)" style="fill: rgb(0, 0, 0);"><tspan id="v-69"  dy="0em" x="0">Extracts spatially varying</tspan><tspan id="v-70"  dy="1.2em" x="0">BRDF-Cook-Torrance with normals,</tspan><tspan id="v-71"  dy="1.2em" x="0">diffuse, roughness &amp; specular maps</tspan><tspan id="v-72"  dy="1.2em" x="0">from pictures set leveraring deep</tspan><tspan id="v-73"  dy="1.2em" x="0">neural network.</tspan></text><text  id="v-65" font-weight="bold" text-anchor="middle" font-family="Open Sans" fill="#000000" font-size="24" transform="matrix(1,0,0,1,225,270)" y="0.8em" display="none" xml:space="preserve" style="fill: rgb(0, 0, 0);"><tspan id="v-74"  dy="0em" x="0" style="fill-opacity: 0; stroke-opacity: 0;">-</tspan></text><image  id="v-66"></image></g></g><g id="j_5"    transform="translate(2400,295)" style="" ><g  id="v-78" style="opacity: 1;"><path  d="M 0,30 a 225,30 0,0,0 450 0 a 225,30 0,0,0 -450 0 l 0,240 a 225,30 0,0,0 450 0 l 0,-240" id="v-79" stroke="#c92d39" stroke-width="8" pointer-events="visiblePainted" fill="#ffd9d9" style="fill: rgb(255, 217, 217); stroke: rgb(201, 45, 57);"></path><rect  id="v-80" stroke-width="0" pointer-events="visiblePainted" fill="none" stroke="none" width="450" height="270" x="0" y="30"></rect><text  id="v-81" font-size="34px" y="0.8em" xml:space="preserve" font-weight="bold" text-anchor="middle" pointer-events="visible" font-family="Open Sans" fill="#000000" transform="matrix(1,0,0,1,225,90)" style="fill: rgb(0, 0, 0);"><tspan id="v-86"  dy="0em" x="0">Materials store</tspan></text><text  id="v-82" font-size="19px" y="0.8em" xml:space="preserve" text-anchor="middle" font-family="Open Sans" fill="#000000" transform="matrix(1,0,0,1,225,132.5)" style="fill: rgb(0, 0, 0);"><tspan id="v-87"  dy="0em" x="0">[Container: MongoDB]</tspan></text><text  id="v-83" font-size="24px" y="0.8em" xml:space="preserve" text-anchor="middle" font-family="Open Sans" fill="#000000" transform="matrix(1,0,0,1,225,180)" style="fill: rgb(0, 0, 0);"><tspan id="v-88"  dy="0em" x="0">Stores enriched materials &amp; supplies</tspan><tspan id="v-89"  dy="1.2em" x="0">powerful queries API.</tspan></text><text  id="v-84" font-weight="bold" text-anchor="middle" font-family="Open Sans" fill="#000000" font-size="24" transform="matrix(1,0,0,1,225,273)" y="0.8em" display="none" xml:space="preserve" style="fill: rgb(0, 0, 0);"><tspan id="v-90"  dy="0em" x="0" style="fill-opacity: 0; stroke-opacity: 0;">-</tspan></text><image  id="v-85"></image></g></g><g id="j_6"   ><path  stroke="#707070" id="v-108" stroke-width="2" stroke-dasharray="30 30" fill="none" d="M 600 445 930 445"></path><path  fill="black" stroke="black" transform="translate(600,445) scale(1,1) rotate(0)"></path><path  fill="#707070" stroke="#707070" id="v-110" d="M 20 0 L 0 10 L 20 20 z" transform="translate(950,455) scale(1,1) rotate(-180)"></path><path  id="v-109" fill="none" d="M 600 445 930 445" style=""></path><title ></title><g ><g  id="v-96" label-idx="0" cursor="move" transform="translate(765, 445)"><rect id="v-98" fill="#ffffff" rx="3" ry="3" stroke="#ffffff" stroke-width="20px" pointer-events="none" width="79.27326965332031" height="31.273479461669922" transform="matrix(1,0,0,1,-38.7,-15.7)"></rect><text id="v-97" font-size="24px" y="0.8em" xml:space="preserve" text-anchor="middle" pointer-events="none" fill="#707070" font-family="Open Sans" font-weight="normal" transform="matrix(1,0,0,1,0,-10.3)"><tspan id="v-99"  dy="0em" x="0">1: uses</tspan></text></g><g  id="v-100" label-idx="1" cursor="move" transform="translate(765, 476.2)"><rect id="v-102" fill="#ffffff" rx="3" ry="3" pointer-events="none" width="0" height="0" transform="matrix(1,0,0,1,0,0)"></rect><text id="v-101" font-size="19px" y="0.8em" display="none" xml:space="preserve" text-anchor="middle" pointer-events="none" fill="#707070" font-family="Open Sans" font-weight="normal" transform="matrix(1,0,0,1,0,0)"><tspan id="v-103"  dy="0em" x="0" style="fill-opacity: 0; stroke-opacity: 0;">-</tspan></text></g><g  id="v-104" label-idx="2" cursor="move" transform="translate(765, 500.2)"><rect id="v-106" fill="#ffffff" rx="3" ry="3" pointer-events="none"  display="none" width="0" height="0" transform="matrix(1,0,0,1,0,0)"></rect><text id="v-105" font-size="19px" y="0.8em" display="none" xml:space="preserve" text-anchor="middle" pointer-events="none" fill="#707070" font-family="Open Sans" font-weight="normal"  transform="matrix(1,0,0,1,0,0)"><tspan id="v-107"  dy="0em" x="0" style="fill-opacity: 0; stroke-opacity: 0;">-</tspan></text></g></g><g  display="none"></g><g  id="v-112" display="none"><g  id="v-93"><path  end="source" d="M 26 0 L 0 13 L 26 26 z"></path></g><g  id="v-94"><path  end="target" d="M 26 0 L 0 13 L 26 26 z"></path></g></g><g  id="v-111" display="none"><g  id="v-92" transform="translate(640, 445) "><g  event="remove"><circle r="11"></circle><path transform="scale(.8) translate(-16, -16)" d="M24.778,21.419 19.276,15.917 24.777,10.415 21.949,7.585 16.447,13.087 10.945,7.585 8.117,10.415 13.618,15.917 8.116,21.419 10.946,24.248 16.447,18.746 21.948,24.248z"></path><title>Remove link.</title></g><g  event="link:options"><circle r="11" transform="translate(25)"></circle><path fill="white" transform="scale(.55) translate(29, -16)" d="M31.229,17.736c0.064-0.571,0.104-1.148,0.104-1.736s-0.04-1.166-0.104-1.737l-4.377-1.557c-0.218-0.716-0.504-1.401-0.851-2.05l1.993-4.192c-0.725-0.91-1.549-1.734-2.458-2.459l-4.193,1.994c-0.647-0.347-1.334-0.632-2.049-0.849l-1.558-4.378C17.165,0.708,16.588,0.667,16,0.667s-1.166,0.041-1.737,0.105L12.707,5.15c-0.716,0.217-1.401,0.502-2.05,0.849L6.464,4.005C5.554,4.73,4.73,5.554,4.005,6.464l1.994,4.192c-0.347,0.648-0.632,1.334-0.849,2.05l-4.378,1.557C0.708,14.834,0.667,15.412,0.667,16s0.041,1.165,0.105,1.736l4.378,1.558c0.217,0.715,0.502,1.401,0.849,2.049l-1.994,4.193c0.725,0.909,1.549,1.733,2.459,2.458l4.192-1.993c0.648,0.347,1.334,0.633,2.05,0.851l1.557,4.377c0.571,0.064,1.148,0.104,1.737,0.104c0.588,0,1.165-0.04,1.736-0.104l1.558-4.377c0.715-0.218,1.399-0.504,2.049-0.851l4.193,1.993c0.909-0.725,1.733-1.549,2.458-2.458l-1.993-4.193c0.347-0.647,0.633-1.334,0.851-2.049L31.229,17.736zM16,20.871c-2.69,0-4.872-2.182-4.872-4.871c0-2.69,2.182-4.872,4.872-4.872c2.689,0,4.871,2.182,4.871,4.872C20.871,18.689,18.689,20.871,16,20.871z"></path><title>Link options.</title></g></g></g></g><g id="j_7"   ><path  stroke="#707070" id="v-133" stroke-width="2" stroke-dasharray="30 30" fill="none" d="M 1250 445 1580 445"></path><path  fill="black" stroke="black" transform="translate(1250,445) scale(1,1) rotate(0)"></path><path  fill="#707070" stroke="#707070" id="v-135" d="M 20 0 L 0 10 L 20 20 z" transform="translate(1600,455) scale(1,1) rotate(-180)"></path><path  id="v-134" fill="none" d="M 1250 445 1580 445" style=""></path><title ></title><g ><g  id="v-120" label-idx="0" cursor="move" transform="translate(1415, 445)"><rect id="v-122" fill="#ffffff" rx="3" ry="3" stroke="#ffffff" stroke-width="20px" pointer-events="none" width="185.65130615234375" height="60.07348823547363" transform="matrix(1,0,0,1,-92.5,-30.1)"></rect><text id="v-121" font-size="24px" y="0.8em" xml:space="preserve" text-anchor="middle" pointer-events="none" fill="#707070" font-family="Open Sans" font-weight="normal" transform="matrix(1,0,0,1,0,-24.7)"><tspan id="v-123"  dy="0em" x="0">2: makes API call</tspan><tspan id="v-124"  dy="1.2em" x="0">to</tspan></text></g><g  id="v-125" label-idx="1" cursor="move" transform="translate(1415, 488.2)"><rect id="v-127" fill="#ffffff" rx="3" ry="3" pointer-events="none" width="0" height="0" transform="matrix(1,0,0,1,0,0)"></rect><text id="v-126" font-size="19px" y="0.8em" display="none" xml:space="preserve" text-anchor="middle" pointer-events="none" fill="#707070" font-family="Open Sans" font-weight="normal" transform="matrix(1,0,0,1,0,0)"><tspan id="v-128"  dy="0em" x="0" style="fill-opacity: 0; stroke-opacity: 0;">-</tspan></text></g><g  id="v-129" label-idx="2" cursor="move" transform="translate(1415, 512.2)"><rect id="v-131" fill="#ffffff" rx="3" ry="3" pointer-events="none"  display="none" width="0" height="0" transform="matrix(1,0,0,1,0,0)"></rect><text id="v-130" font-size="19px" y="0.8em" display="none" xml:space="preserve" text-anchor="middle" pointer-events="none" fill="#707070" font-family="Open Sans" font-weight="normal"  transform="matrix(1,0,0,1,0,0)"><tspan id="v-132"  dy="0em" x="0" style="fill-opacity: 0; stroke-opacity: 0;">-</tspan></text></g></g><g  display="none"></g><g  id="v-137" display="none"><g  id="v-117"><path  end="source" d="M 26 0 L 0 13 L 26 26 z"></path></g><g  id="v-118"><path  end="target" d="M 26 0 L 0 13 L 26 26 z"></path></g></g><g  id="v-136" display="none"><g  id="v-116" transform="translate(1290, 445) "><g  event="remove"><circle r="11"></circle><path transform="scale(.8) translate(-16, -16)" d="M24.778,21.419 19.276,15.917 24.777,10.415 21.949,7.585 16.447,13.087 10.945,7.585 8.117,10.415 13.618,15.917 8.116,21.419 10.946,24.248 16.447,18.746 21.948,24.248z"></path><title>Remove link.</title></g><g  event="link:options"><circle r="11" transform="translate(25)"></circle><path fill="white" transform="scale(.55) translate(29, -16)" d="M31.229,17.736c0.064-0.571,0.104-1.148,0.104-1.736s-0.04-1.166-0.104-1.737l-4.377-1.557c-0.218-0.716-0.504-1.401-0.851-2.05l1.993-4.192c-0.725-0.91-1.549-1.734-2.458-2.459l-4.193,1.994c-0.647-0.347-1.334-0.632-2.049-0.849l-1.558-4.378C17.165,0.708,16.588,0.667,16,0.667s-1.166,0.041-1.737,0.105L12.707,5.15c-0.716,0.217-1.401,0.502-2.05,0.849L6.464,4.005C5.554,4.73,4.73,5.554,4.005,6.464l1.994,4.192c-0.347,0.648-0.632,1.334-0.849,2.05l-4.378,1.557C0.708,14.834,0.667,15.412,0.667,16s0.041,1.165,0.105,1.736l4.378,1.558c0.217,0.715,0.502,1.401,0.849,2.049l-1.994,4.193c0.725,0.909,1.549,1.733,2.459,2.458l4.192-1.993c0.648,0.347,1.334,0.633,2.05,0.851l1.557,4.377c0.571,0.064,1.148,0.104,1.737,0.104c0.588,0,1.165-0.04,1.736-0.104l1.558-4.377c0.715-0.218,1.399-0.504,2.049-0.851l4.193,1.993c0.909-0.725,1.733-1.549,2.458-2.458l-1.993-4.193c0.347-0.647,0.633-1.334,0.851-2.049L31.229,17.736zM16,20.871c-2.69,0-4.872-2.182-4.872-4.871c0-2.69,2.182-4.872,4.872-4.872c2.689,0,4.871,2.182,4.871,4.872C20.871,18.689,18.689,20.871,16,20.871z"></path><title>Link options.</title></g></g></g></g><g id="j_8"   ><path  stroke="#707070" id="v-159" stroke-width="2" stroke-dasharray="30 30" fill="none" d="M 2050 445 2380 445"></path><path  fill="black" stroke="black" transform="translate(2050,445) scale(1,1) rotate(0)"></path><path  fill="#707070" stroke="#707070" id="v-161" d="M 20 0 L 0 10 L 20 20 z" transform="translate(2400,455) scale(1,1) rotate(-180)"></path><path  id="v-160" fill="none" d="M 2050 445 2380 445" style=""></path><title ></title><g ><g  id="v-145" label-idx="0" cursor="move" transform="translate(2215, 445)"><rect id="v-147" fill="#ffffff" rx="3" ry="3" stroke="#ffffff" stroke-width="20px" pointer-events="none" width="134.667236328125" height="88.87348556518555" transform="matrix(1,0,0,1,-66.7,-44.5)"></rect><text id="v-146" font-size="24px" y="0.8em" xml:space="preserve" text-anchor="middle" pointer-events="none" fill="#707070" font-family="Open Sans" font-weight="normal" transform="matrix(1,0,0,1,0,-39.1)"><tspan id="v-148"  dy="0em" x="0">3: stores</tspan><tspan id="v-149"  dy="1.2em" x="0">calibrated</tspan><tspan id="v-150"  dy="1.2em" x="0">materials to</tspan></text></g><g  id="v-151" label-idx="1" cursor="move" transform="translate(2215, 502.6)"><rect id="v-153" fill="#ffffff" rx="3" ry="3" pointer-events="none" width="0" height="0" transform="matrix(1,0,0,1,0,0)"></rect><text id="v-152" font-size="19px" y="0.8em" display="none" xml:space="preserve" text-anchor="middle" pointer-events="none" fill="#707070" font-family="Open Sans" font-weight="normal" transform="matrix(1,0,0,1,0,0)"><tspan id="v-154"  dy="0em" x="0" style="fill-opacity: 0; stroke-opacity: 0;">-</tspan></text></g><g  id="v-155" label-idx="2" cursor="move" transform="translate(2215, 526.6)"><rect id="v-157" fill="#ffffff" rx="3" ry="3" pointer-events="none"  display="none" width="0" height="0" transform="matrix(1,0,0,1,0,0)"></rect><text id="v-156" font-size="19px" y="0.8em" display="none" xml:space="preserve" text-anchor="middle" pointer-events="none" fill="#707070" font-family="Open Sans" font-weight="normal"  transform="matrix(1,0,0,1,0,0)"><tspan id="v-158"  dy="0em" x="0" style="fill-opacity: 0; stroke-opacity: 0;">-</tspan></text></g></g><g  display="none"></g><g  id="v-163" display="none"><g  id="v-142"><path  end="source" d="M 26 0 L 0 13 L 26 26 z"></path></g><g  id="v-143"><path  end="target" d="M 26 0 L 0 13 L 26 26 z"></path></g></g><g  id="v-162" display="none"><g  id="v-141" transform="translate(2090, 445) "><g  event="remove"><circle r="11"></circle><path transform="scale(.8) translate(-16, -16)" d="M24.778,21.419 19.276,15.917 24.777,10.415 21.949,7.585 16.447,13.087 10.945,7.585 8.117,10.415 13.618,15.917 8.116,21.419 10.946,24.248 16.447,18.746 21.948,24.248z"></path><title>Remove link.</title></g><g  event="link:options"><circle r="11" transform="translate(25)"></circle><path fill="white" transform="scale(.55) translate(29, -16)" d="M31.229,17.736c0.064-0.571,0.104-1.148,0.104-1.736s-0.04-1.166-0.104-1.737l-4.377-1.557c-0.218-0.716-0.504-1.401-0.851-2.05l1.993-4.192c-0.725-0.91-1.549-1.734-2.458-2.459l-4.193,1.994c-0.647-0.347-1.334-0.632-2.049-0.849l-1.558-4.378C17.165,0.708,16.588,0.667,16,0.667s-1.166,0.041-1.737,0.105L12.707,5.15c-0.716,0.217-1.401,0.502-2.05,0.849L6.464,4.005C5.554,4.73,4.73,5.554,4.005,6.464l1.994,4.192c-0.347,0.648-0.632,1.334-0.849,2.05l-4.378,1.557C0.708,14.834,0.667,15.412,0.667,16s0.041,1.165,0.105,1.736l4.378,1.558c0.217,0.715,0.502,1.401,0.849,2.049l-1.994,4.193c0.725,0.909,1.549,1.733,2.459,2.458l4.192-1.993c0.648,0.347,1.334,0.633,2.05,0.851l1.557,4.377c0.571,0.064,1.148,0.104,1.737,0.104c0.588,0,1.165-0.04,1.736-0.104l1.558-4.377c0.715-0.218,1.399-0.504,2.049-0.851l4.193,1.993c0.909-0.725,1.733-1.549,2.458-2.458l-1.993-4.193c0.347-0.647,0.633-1.334,0.851-2.049L31.229,17.736zM16,20.871c-2.69,0-4.872-2.182-4.872-4.871c0-2.69,2.182-4.872,4.872-4.872c2.689,0,4.871,2.182,4.871,4.872C20.871,18.689,18.689,20.871,16,20.871z"></path><title>Link options.</title></g></g></g></g></g><defs id="v-4"></defs></svg>