<svg xmlns="http://www.w3.org/2000/svg" xmlns:xlink="http://www.w3.org/1999/xlink" xmlns:lucid="lucid" width="1295.63" height="570"><g transform="translate(-220 -80)" lucid:page-tab-id="BadYfCpVBSFH"><path d="M980 286c0-3.3 2.7-6 6-6h148c3.3 0 6 2.7 6 6v148c0 3.3-2.7 6-6 6H986c-3.3 0-6-2.7-6-6z" stroke="#999" stroke-width="2" fill="#fff"/><path d="M970.74 296.06c0-3.3 2.7-6 6-6h148c3.32 0 6 2.7 6 6v148c0 3.3-2.68 6-6 6h-148c-3.3 0-6-2.7-6-6z" stroke="#999" stroke-width="2" fill="#fff"/><path d="M960 306c0-3.3 2.7-6 6-6h148c3.3 0 6 2.7 6 6v148c0 3.3-2.7 6-6 6H966c-3.3 0-6-2.7-6-6z" stroke="#999" stroke-width="2" fill="#fff"/><path d="M980 326c0-3.3 2.7-6 6-6h108c3.3 0 6 2.7 6 6v108c0 3.3-2.7 6-6 6H986c-3.3 0-6-2.7-6-6z" stroke="#c92d39" stroke-width="3" fill="#ff8f80"/><path d="M240 206c0-3.3 2.7-6 6-6h148c3.3 0 6 2.7 6 6v148c0 3.3-2.7 6-6 6H246c-3.3 0-6-2.7-6-6z" stroke="#999" stroke-width="2" fill="#fff"/><path d="M260 226c0-3.3 2.7-6 6-6h108c3.3 0 6 2.7 6 6v108c0 3.3-2.7 6-6 6H266c-3.3 0-6-2.7-6-6z" stroke="#c92d39" stroke-width="3" fill="#ff8f80"/><path d="M420 206c0-3.3 2.7-6 6-6h148c3.3 0 6 2.7 6 6v148c0 3.3-2.7 6-6 6H426c-3.3 0-6-2.7-6-6z" stroke="#999" stroke-width="2" fill="#fff"/><path d="M440 226c0-3.3 2.7-6 6-6h108c3.3 0 6 2.7 6 6v108c0 3.3-2.7 6-6 6H446c-3.3 0-6-2.7-6-6z" stroke="#c92d39" stroke-width="3" fill="#ff8f80"/><path d="M600 206c0-3.3 2.7-6 6-6h148c3.3 0 6 2.7 6 6v148c0 3.3-2.7 6-6 6H606c-3.3 0-6-2.7-6-6z" stroke="#999" stroke-width="2" fill="#fff"/><path d="M620 226c0-3.3 2.7-6 6-6h108c3.3 0 6 2.7 6 6v108c0 3.3-2.7 6-6 6H626c-3.3 0-6-2.7-6-6z" stroke="#c92d39" stroke-width="3" fill="#ff8f80"/><path d="M240 406c0-3.3 2.7-6 6-6h148c3.3 0 6 2.7 6 6v148c0 3.3-2.7 6-6 6H246c-3.3 0-6-2.7-6-6z" stroke="#999" stroke-width="2" fill="#fff"/><path d="M260 426c0-3.3 2.7-6 6-6h108c3.3 0 6 2.7 6 6v108c0 3.3-2.7 6-6 6H266c-3.3 0-6-2.7-6-6z" stroke="#c92d39" stroke-width="3" fill="#ff8f80"/><path d="M600 406c0-3.3 2.7-6 6-6h148c3.3 0 6 2.7 6 6v148c0 3.3-2.7 6-6 6H606c-3.3 0-6-2.7-6-6z" stroke="#999" stroke-width="2" fill="#fff"/><path d="M620 426c0-3.3 2.7-6 6-6h108c3.3 0 6 2.7 6 6v108c0 3.3-2.7 6-6 6H626c-3.3 0-6-2.7-6-6z" stroke="#c92d39" stroke-width="3" fill="#ff8f80"/><path d="M480 490c0 5.52-4.48 10-10 10s-10-4.48-10-10 4.48-10 10-10 10 4.48 10 10zM510 490c0 5.52-4.48 10-10 10s-10-4.48-10-10 4.48-10 10-10 10 4.48 10 10zM540 490c0 5.52-4.48 10-10 10s-10-4.48-10-10 4.48-10 10-10 10 4.48 10 10z" stroke="#5e5e5e" stroke-width="3" fill="#fff"/><g fill="none"><path d="M857 100.75c.4 0 .75.34.75.75v527c0 .4-.34.75-.75.75-.4 0-.75-.34-.75-.75v-527c0-.4.34-.75.75-.75z"/><path d="M857.75 130.78v29.28m0 14.63v29.27m0 14.64v29.3m0 14.63v29.28m0 14.64v29.28m0 14.64v29.28m0 14.64v29.28m0 14.63v29.27m0 14.64v29.3m0 14.63v29.28m0 14.64v29.28m0 14.64v14.64l-.22.53-.53.22-.53-.22-.22-.53v-14.64m0-14.64v-29.28m0-14.63v-29.27m0-14.64v-29.3m0-14.63V438.2m0-14.64v-29.28m0-14.64v-29.28m0-14.64v-29.28m0-14.63v-29.27m0-14.64v-29.3m0-14.63V174.7m0-14.64v-29.28m0-14.64V101.5l.22-.53.53-.22.53.22.22.53v14.64" stroke="#6f7681" stroke-width="1.5"/></g><g fill="none"><path d="M1241.5 100.75c.4 0 .75.34.75.75v527c0 .4-.34.75-.75.75-.4 0-.75-.34-.75-.75v-527c0-.4.34-.75.75-.75z"/><path d="M1242.25 130.78v29.28m0 14.63v29.27m0 14.64v29.3m0 14.63v29.28m0 14.64v29.28m0 14.64v29.28m0 14.64v29.28m0 14.63v29.27m0 14.64v29.3m0 14.63v29.28m0 14.64v29.28m0 14.64v14.64l-.22.53-.53.22-.53-.22-.22-.53v-14.64m0-14.64v-29.28m0-14.63v-29.27m0-14.64v-29.3m0-14.63V438.2m0-14.64v-29.28m0-14.64v-29.28m0-14.64v-29.28m0-14.63v-29.27m0-14.64v-29.3m0-14.63V174.7m0-14.64v-29.28m0-14.64V101.5l.22-.53.53-.22.53.22.22.53v14.64" stroke="#6f7681" stroke-width="1.5"/></g><path d="M1335.63 296c0-3.3 2.7-6 6-6h148c3.32 0 6 2.7 6 6v148c0 3.3-2.68 6-6 6h-148c-3.3 0-6-2.7-6-6z" stroke="#999" stroke-width="2" fill="#fff"/><use xlink:href="#a" transform="matrix(1,0,0,1,1340.6348072143774,295) translate(137.65432098765433 148.9665777777778)"/><path d="M1355.63 316c0-3.3 2.7-6 6-6h108c3.32 0 6 2.7 6 6v108c0 3.3-2.68 6-6 6h-108c-3.3 0-6-2.7-6-6z" stroke="#c92d39" stroke-width="3" fill="#ff8f80"/><defs><path fill="#333" d="M126-127c33 6 58 20 58 59 0 88-139 92-164 29-3-8-5-16-6-25l32-3c6 27 21 44 54 44 32 0 52-15 52-46 0-38-36-46-79-43v-28c39 1 72-4 72-42 0-27-17-43-46-43-28 0-47 15-49 41l-32-3c6-42 35-63 81-64 48-1 79 21 79 65 0 36-21 52-52 59" id="b"/><use transform="matrix(0.06172839506172839,0,0,0.06172839506172839,0,0)" xlink:href="#b" id="a"/></defs></g></svg>