<svg xmlns="http://www.w3.org/2000/svg" xmlns:xlink="http://www.w3.org/1999/xlink" version="1.1" viewBox="0 0 1509 993" style="background: #ffffff"><g id="v-3"  transform="matrix(1,0,0,1,0,0)"><g id="j_6"    transform="translate(20,948)"><g id="v-74"><text  id="v-75" font-size="22px" y="0.8em" xml:space="preserve" font-weight="normal" text-anchor="start" fill="#aaaaaa" pointer-events="none" font-family="Open Sans" transform="matrix(1,0,0,1,0,0)" display="block"><tspan id="v-76"  dy="0em" x="0">Thursday, January 12, 2023 at 11:14 AM Central European Standard Time</tspan></text></g></g><g id="j_5"    transform="translate(20,902)"><g id="v-70"><text  id="v-71" font-size="36px" y="0.8em" xml:space="preserve" font-weight="normal" text-anchor="start" fill="#000000" pointer-events="none" font-family="Open Sans" transform="matrix(1,0,0,1,0,0)" display="block"><tspan id="v-72"  dy="0em" x="0">[Deployment] - dev</tspan></text></g></g><g id="j_4"    transform="translate(909,199)" style=""><g  id="v-56" style="opacity: 1;"><rect  id="v-57" width="400" height="593" rx="10" ry="10" fill="#ffffff" stroke="#888888" stroke-width="5" pointer-events="none"></rect><text  id="v-58" font-size="24px" y="554" xml:space="preserve" font-weight="normal" text-anchor="start" pointer-events="visible" font-family="Open Sans" fill="#000000" transform="matrix(1,0,0,1,15,0)" style="fill: rgb(0, 0, 0);"><tspan id="v-62"  dy="0em" x="0">Virtual device</tspan></text><text  id="v-59" font-size="19px" y="578" xml:space="preserve" font-weight="normal" text-anchor="start" pointer-events="visible" font-family="Open Sans" fill="#000000" transform="matrix(1,0,0,1,15,0)" style="fill: rgb(0, 0, 0);"><tspan id="v-63"  dy="0em" x="0">[Deployment Node: Android]</tspan></text><text  id="v-60" font-size="40px" y="578" display="none" xml:space="preserve" font-weight="normal" fill="#000000" text-anchor="end" pointer-events="visible" font-family="Open Sans" transform="matrix(1,0,0,1,385,0)"><tspan id="v-64"  dy="0em" x="0" style="fill-opacity: 0; stroke-opacity: 0;">-</tspan></text><image  id="v-61" pointer-events="visible"></image></g></g><g id="j_3"    transform="translate(199,274)" style=""><g  id="v-46" style="opacity: 1;"><rect  id="v-47" width="550" height="443" rx="10" ry="10" fill="#ffffff" stroke="#888888" stroke-width="5" pointer-events="none"></rect><text  id="v-48" font-size="24px" y="404" xml:space="preserve" font-weight="normal" text-anchor="start" pointer-events="visible" font-family="Open Sans" fill="#000000" transform="matrix(1,0,0,1,15,0)" style="fill: rgb(0, 0, 0);"><tspan id="v-52"  dy="0em" x="0">User workstation</tspan></text><text  id="v-49" font-size="19px" y="428" xml:space="preserve" font-weight="normal" text-anchor="start" pointer-events="visible" font-family="Open Sans" fill="#000000" transform="matrix(1,0,0,1,15,0)" style="fill: rgb(0, 0, 0);"><tspan id="v-53"  dy="0em" x="0">[Deployment Node: Microsoft Windows 10]</tspan></text><text  id="v-50" font-size="40px" y="428" display="none" xml:space="preserve" font-weight="normal" fill="#000000" text-anchor="end" pointer-events="visible" font-family="Open Sans" transform="matrix(1,0,0,1,535,0)"><tspan id="v-54"  dy="0em" x="0" style="fill-opacity: 0; stroke-opacity: 0;">-</tspan></text><image  id="v-51" pointer-events="visible"></image></g></g><g id="j_1"    transform="translate(249,324)" style="" ><g  id="v-8" style="opacity: 1;"><rect  id="v-9" rx="1" ry="1" stroke="#666666" stroke-width="8" pointer-events="visiblePainted" fill="#f5f5f5" width="450" height="300" style="fill: rgb(245, 245, 245); stroke: rgb(102, 102, 102);"></rect><text  id="v-10" font-size="34" y="0.8em" xml:space="preserve" font-weight="bold" text-anchor="middle" pointer-events="visible" font-family="Open Sans" fill="#000000" transform="matrix(1,0,0,1,225,75)" style="fill: rgb(0, 0, 0);"><tspan id="v-15"  dy="0em" x="0">Icarus</tspan></text><text  id="v-11" font-size="19" y="0.8em" xml:space="preserve" text-anchor="middle" font-family="Open Sans" fill="#000000" transform="matrix(1,0,0,1,225,117.5)" style="fill: rgb(0, 0, 0);"><tspan id="v-16"  dy="0em" x="0">[Software System]</tspan></text><text  id="v-12" font-size="24" y="0.8em" xml:space="preserve" text-anchor="middle" font-family="Open Sans" fill="#000000" transform="matrix(1,0,0,1,225,165)" style="fill: rgb(0, 0, 0);"><tspan id="v-17"  dy="0em" x="0">Provides powerful facilities to work</tspan><tspan id="v-18"  dy="1.2em" x="0">with physics materials.</tspan></text><text  id="v-13" font-weight="bold" text-anchor="middle" font-family="Open Sans" fill="#000000" font-size="24" transform="matrix(1,0,0,1,225,270)" y="0.8em" xml:space="preserve" display="none" style="fill: rgb(0, 0, 0);"><tspan id="v-19"  dy="0em" x="0">#</tspan></text><image  id="v-14"></image></g></g><g id="j_2"    transform="translate(959,249)" style=""><g  id="v-27" style="opacity: 1;"><rect  id="v-28" rx="20" ry="20" stroke="#c92d39" stroke-width="2" pointer-events="visiblePainted" fill="#c92d39" width="300" height="450" style="fill: rgb(201, 45, 57); stroke: rgb(201, 45, 57);"></rect><rect  id="v-29" rx="5" ry="5" stroke="#c92d39" stroke-width="0" pointer-events="visiblePainted" fill="#ffd9d9" width="280" height="370" x="10" y="40" style="fill: rgb(255, 217, 217);"></rect><ellipse  id="v-35" fill="#ffd9d9" cx="150" cy="430" rx="10" ry="10" style="fill: rgb(255, 217, 217);"></ellipse><line  style="stroke-width: 2px; stroke: rgb(255, 217, 217);" id="v-36" stroke="#ffd9d9" x1="125" y1="20" x2="175" y2="20"></line><text  id="v-30" font-size="34" y="0.8em" xml:space="preserve" font-weight="bold" text-anchor="middle" pointer-events="visible" font-family="Open Sans" fill="#000000" transform="matrix(1,0,0,1,150,86.9)" style="fill: rgb(0, 0, 0);"><tspan id="v-37"  dy="0em" x="0">Mobile</tspan><tspan id="v-38"  dy="1.2em" x="0">application</tspan></text><text  id="v-31" font-size="19" y="0.8em" xml:space="preserve" text-anchor="middle" font-family="Open Sans" fill="#000000" transform="matrix(1,0,0,1,150,171.9)" style="fill: rgb(0, 0, 0);"><tspan id="v-39"  dy="0em" x="0">from MILA</tspan><tspan id="v-40"  dy="1.2em" x="0">[Container: Xamarin]</tspan></text><text  id="v-32" font-size="24" y="0.8em" xml:space="preserve" text-anchor="middle" font-family="Open Sans" fill="#000000" transform="matrix(1,0,0,1,150,243.1)" style="fill: rgb(0, 0, 0);"><tspan id="v-41"  dy="0em" x="0">Provides uncluttered</tspan><tspan id="v-42"  dy="1.2em" x="0">interface to ease</tspan><tspan id="v-43"  dy="1.2em" x="0">pictures shooting,</tspan><tspan id="v-44"  dy="1.2em" x="0">stiching &amp; uploading.</tspan></text><text  id="v-33" font-weight="bold" text-anchor="middle" font-family="Open Sans" fill="#000000" font-size="24" transform="matrix(1,0,0,1,150,405)" style="fill: rgb(0, 0, 0);" display="none"></text><image  id="v-34"></image></g></g></g><defs id="v-4"></defs></svg>