<svg xmlns="http://www.w3.org/2000/svg" xmlns:xlink="http://www.w3.org/1999/xlink" version="1.1" viewBox="0 0 2104.9998419216095 1135.999934906044" style="background: #ffffff"><g id="v-3"  transform="matrix(1,0,0,1,0,0)"><g id="j_8"    transform="translate(20,1090.999934906044)"><g id="v-104"><text  id="v-105" font-size="22px" y="0.8em" xml:space="preserve" font-weight="normal" text-anchor="start" fill="#aaaaaa" pointer-events="none" font-family="Open Sans" transform="matrix(1,0,0,1,0,0)" display="block"><tspan id="v-106"  dy="0em" x="0">Thursday, January 12, 2023 at 11:15 AM Central European Standard Time</tspan></text></g></g><g id="j_7"    transform="translate(20,1044.999934906044)"><g id="v-100"><text  id="v-101" font-size="36px" y="0.8em" xml:space="preserve" font-weight="normal" text-anchor="start" fill="#000000" pointer-events="none" font-family="Open Sans" transform="matrix(1,0,0,1,0,0)" display="block"><tspan id="v-102"  dy="0em" x="0">[Deployment] - dev</tspan></text></g></g><g id="j_4"    transform="translate(199,199)" style=""><g  id="v-66" style="opacity: 1;"><rect  id="v-67" width="1705" height="736" rx="10" ry="10" fill="#ffffff" stroke="#888888" stroke-width="5" pointer-events="none"></rect><text  id="v-68" font-size="24px" y="697" xml:space="preserve" font-weight="normal" text-anchor="start" pointer-events="visible" font-family="Open Sans" fill="#000000" transform="matrix(1,0,0,1,15,0)" style="fill: rgb(0, 0, 0);"><tspan id="v-72"  dy="0em" x="0">User workstation</tspan></text><text  id="v-69" font-size="19px" y="721" xml:space="preserve" font-weight="normal" text-anchor="start" pointer-events="visible" font-family="Open Sans" fill="#000000" transform="matrix(1,0,0,1,15,0)" style="fill: rgb(0, 0, 0);"><tspan id="v-73"  dy="0em" x="0">[Deployment Node: Microsoft Windows 10]</tspan></text><text  id="v-70" font-size="40px" y="721" display="none" xml:space="preserve" font-weight="normal" fill="#000000" text-anchor="end" pointer-events="visible" font-family="Open Sans" transform="matrix(1,0,0,1,1690,0)"><tspan id="v-74"  dy="0em" x="0" style="fill-opacity: 0; stroke-opacity: 0;">-</tspan></text><image  id="v-71" pointer-events="visible"></image></g></g><g id="j_6"    transform="translate(876,249)" style=""><g  id="v-86" style="opacity: 1;"><rect  id="v-87" width="400" height="593" rx="10" ry="10" fill="#ffffff" stroke="#888888" stroke-width="5" pointer-events="none"></rect><text  id="v-88" font-size="24px" y="554" xml:space="preserve" font-weight="normal" text-anchor="start" pointer-events="visible" font-family="Open Sans" fill="#000000" transform="matrix(1,0,0,1,15,0)" style="fill: rgb(0, 0, 0);"><tspan id="v-92"  dy="0em" x="0">Virtual device</tspan></text><text  id="v-89" font-size="19px" y="578" xml:space="preserve" font-weight="normal" text-anchor="start" pointer-events="visible" font-family="Open Sans" fill="#000000" transform="matrix(1,0,0,1,15,0)" style="fill: rgb(0, 0, 0);"><tspan id="v-93"  dy="0em" x="0">[Deployment Node: Android]</tspan></text><text  id="v-90" font-size="40px" y="578" display="none" xml:space="preserve" font-weight="normal" fill="#000000" text-anchor="end" pointer-events="visible" font-family="Open Sans" transform="matrix(1,0,0,1,385,0)"><tspan id="v-94"  dy="0em" x="0" style="fill-opacity: 0; stroke-opacity: 0;">-</tspan></text><image  id="v-91" pointer-events="visible"></image></g></g><g id="j_5"    transform="translate(249,324)" style=""><g  id="v-76" style="opacity: 1;"><rect  id="v-77" width="550" height="443" rx="10" ry="10" fill="#ffffff" stroke="#888888" stroke-width="5" pointer-events="none"></rect><text  id="v-78" font-size="24px" y="404" xml:space="preserve" font-weight="normal" text-anchor="start" pointer-events="visible" font-family="Open Sans" fill="#000000" transform="matrix(1,0,0,1,15,0)" style="fill: rgb(0, 0, 0);"><tspan id="v-82"  dy="0em" x="0">Web browser</tspan></text><text  id="v-79" font-size="19px" y="428" xml:space="preserve" font-weight="normal" text-anchor="start" pointer-events="visible" font-family="Open Sans" fill="#000000" transform="matrix(1,0,0,1,15,0)" style="fill: rgb(0, 0, 0);"><tspan id="v-83"  dy="0em" x="0">[Deployment Node: Opera]</tspan></text><text  id="v-80" font-size="40px" y="428" display="none" xml:space="preserve" font-weight="normal" fill="#000000" text-anchor="end" pointer-events="visible" font-family="Open Sans" transform="matrix(1,0,0,1,535,0)"><tspan id="v-84"  dy="0em" x="0" style="fill-opacity: 0; stroke-opacity: 0;">-</tspan></text><image  id="v-81" pointer-events="visible"></image></g></g><g id="j_1"    transform="translate(299,374)" style=""><g  id="v-8" style="opacity: 1;"><rect  id="v-9" rx="10" ry="10" stroke="#c92d39" stroke-width="2" pointer-events="visiblePainted" fill="#c92d39" width="450" height="300" style="fill: rgb(201, 45, 57); stroke: rgb(201, 45, 57);"></rect><rect  id="v-10" rx="10" ry="10" stroke="#c92d39" stroke-width="0" pointer-events="visiblePainted" fill="#ffd9d9" width="430" height="250" x="10" y="40" style="fill: rgb(255, 217, 217);"></rect><ellipse  id="v-17" fill="#ffd9d9" cx="20" cy="20" rx="10" ry="10" style="fill: rgb(255, 217, 217);"></ellipse><ellipse  id="v-18" fill="#ffd9d9" cx="50" cy="20" rx="10" ry="10" style="fill: rgb(255, 217, 217);"></ellipse><ellipse  id="v-19" fill="#ffd9d9" cx="80" cy="20" rx="10" ry="10" style="fill: rgb(255, 217, 217);"></ellipse><rect  id="v-11" rx="10" ry="10" stroke="#444444" stroke-width="0" pointer-events="visiblePainted" fill="#ffd9d9" width="340" height="20" x="100" y="10" style="fill: rgb(255, 217, 217);"></rect><text  id="v-12" font-size="34" y="0.8em" xml:space="preserve" font-weight="bold" text-anchor="middle" pointer-events="visible" font-family="Open Sans" fill="#000000" transform="matrix(1,0,0,1,225,83.1)" style="fill: rgb(0, 0, 0);"><tspan id="v-20"  dy="0em" x="0">Web application</tspan></text><text  id="v-13" font-size="19" y="0.8em" xml:space="preserve" text-anchor="middle" font-family="Open Sans" fill="#000000" transform="matrix(1,0,0,1,225,125.6)" style="fill: rgb(0, 0, 0);"><tspan id="v-21"  dy="0em" x="0">from MILA</tspan><tspan id="v-22"  dy="1.2em" x="0">[Container: Blazor]</tspan></text><text  id="v-14" font-size="24" y="0.8em" xml:space="preserve" text-anchor="middle" font-family="Open Sans" fill="#000000" transform="matrix(1,0,0,1,225,196.9)" style="fill: rgb(0, 0, 0);"><tspan id="v-23"  dy="0em" x="0">Provides limited facilities to upload</tspan><tspan id="v-24"  dy="1.2em" x="0">constrained pictures set.</tspan></text><text  id="v-15" font-weight="bold" text-anchor="middle" font-family="Open Sans" fill="#000000" font-size="24" transform="matrix(1,0,0,1,225,270)" style="fill: rgb(0, 0, 0);" display="none"></text><image  id="v-16"></image></g></g><g id="j_2"    transform="translate(1404,374)" style="" ><g  id="v-28" style="opacity: 1;"><rect  id="v-29" rx="1" ry="1" stroke="#666666" stroke-width="8" pointer-events="visiblePainted" fill="#f5f5f5" width="450" height="300" style="fill: rgb(245, 245, 245); stroke: rgb(102, 102, 102);"></rect><text  id="v-30" font-size="34" y="0.8em" xml:space="preserve" font-weight="bold" text-anchor="middle" pointer-events="visible" font-family="Open Sans" fill="#000000" transform="matrix(1,0,0,1,225,75)" style="fill: rgb(0, 0, 0);"><tspan id="v-35"  dy="0em" x="0">Icarus</tspan></text><text  id="v-31" font-size="19" y="0.8em" xml:space="preserve" text-anchor="middle" font-family="Open Sans" fill="#000000" transform="matrix(1,0,0,1,225,117.5)" style="fill: rgb(0, 0, 0);"><tspan id="v-36"  dy="0em" x="0">[Software System]</tspan></text><text  id="v-32" font-size="24" y="0.8em" xml:space="preserve" text-anchor="middle" font-family="Open Sans" fill="#000000" transform="matrix(1,0,0,1,225,165)" style="fill: rgb(0, 0, 0);"><tspan id="v-37"  dy="0em" x="0">Provides powerful facilities to work</tspan><tspan id="v-38"  dy="1.2em" x="0">with physics materials.</tspan></text><text  id="v-33" font-weight="bold" text-anchor="middle" font-family="Open Sans" fill="#000000" font-size="24" transform="matrix(1,0,0,1,225,270)" y="0.8em" xml:space="preserve" display="none" style="fill: rgb(0, 0, 0);"><tspan id="v-39"  dy="0em" x="0">#</tspan></text><image  id="v-34"></image></g></g><g id="j_3"    transform="translate(926,299)" style=""><g  id="v-47" style="opacity: 1;"><rect  id="v-48" rx="20" ry="20" stroke="#c92d39" stroke-width="2" pointer-events="visiblePainted" fill="#c92d39" width="300" height="450" style="fill: rgb(201, 45, 57); stroke: rgb(201, 45, 57);"></rect><rect  id="v-49" rx="5" ry="5" stroke="#c92d39" stroke-width="0" pointer-events="visiblePainted" fill="#ffd9d9" width="280" height="370" x="10" y="40" style="fill: rgb(255, 217, 217);"></rect><ellipse  id="v-55" fill="#ffd9d9" cx="150" cy="430" rx="10" ry="10" style="fill: rgb(255, 217, 217);"></ellipse><line  style="stroke-width: 2px; stroke: rgb(255, 217, 217);" id="v-56" stroke="#ffd9d9" x1="125" y1="20" x2="175" y2="20"></line><text  id="v-50" font-size="34" y="0.8em" xml:space="preserve" font-weight="bold" text-anchor="middle" pointer-events="visible" font-family="Open Sans" fill="#000000" transform="matrix(1,0,0,1,150,86.9)" style="fill: rgb(0, 0, 0);"><tspan id="v-57"  dy="0em" x="0">Mobile</tspan><tspan id="v-58"  dy="1.2em" x="0">application</tspan></text><text  id="v-51" font-size="19" y="0.8em" xml:space="preserve" text-anchor="middle" font-family="Open Sans" fill="#000000" transform="matrix(1,0,0,1,150,171.9)" style="fill: rgb(0, 0, 0);"><tspan id="v-59"  dy="0em" x="0">from MILA</tspan><tspan id="v-60"  dy="1.2em" x="0">[Container: Xamarin]</tspan></text><text  id="v-52" font-size="24" y="0.8em" xml:space="preserve" text-anchor="middle" font-family="Open Sans" fill="#000000" transform="matrix(1,0,0,1,150,243.1)" style="fill: rgb(0, 0, 0);"><tspan id="v-61"  dy="0em" x="0">Provides uncluttered</tspan><tspan id="v-62"  dy="1.2em" x="0">interface to ease</tspan><tspan id="v-63"  dy="1.2em" x="0">pictures shooting,</tspan><tspan id="v-64"  dy="1.2em" x="0">stiching &amp; uploading.</tspan></text><text  id="v-53" font-weight="bold" text-anchor="middle" font-family="Open Sans" fill="#000000" font-size="24" transform="matrix(1,0,0,1,150,405)" style="fill: rgb(0, 0, 0);" display="none"></text><image  id="v-54"></image></g></g></g><defs id="v-4"></defs></svg>