<svg xmlns="http://www.w3.org/2000/svg" xmlns:xlink="http://www.w3.org/1999/xlink" version="1.1" viewBox="0 0 3285 800" style="background: #ffffff"><defs joint-selector="defs"></defs><g joint-selector="layers"  transform="matrix(1,0,0,1,0,0)"><g ></g><g ><g   id="j_25"  transform="translate(20,755)"><g id="v-283"><text  id="v-284" font-size="22px" xml:space="preserve" y="0.8em" font-weight="normal" text-anchor="start" fill="#aaaaaa" pointer-events="none" font-family="Open Sans"><tspan dy="0" >Friday, March 15, 2024 at 11:53 AM Central European Standard Time</tspan></text></g></g><g   id="j_24"  transform="translate(20,711)"><g id="v-281"><text  id="v-282" font-size="36px" xml:space="preserve" y="0.8em" font-weight="normal" text-anchor="start" fill="#000000" pointer-events="none" font-family="Open Sans"><tspan dy="0" >[System Landscape]</tspan></text></g></g><g   id="j_17"  transform="translate(199,200)" style=""><g  id="v-187" style="opacity: 1;"><rect  x="0" y="160" width="400" height="240" rx="70" id="v-189" stroke="#834187" stroke-width="8" pointer-events="visiblePainted" fill="#f4d9ff" style="fill: rgb(244, 217, 255); stroke: rgb(131, 65, 135);"></rect><circle  cx="200" cy="88.88888888888889" r="88.88888888888889" id="v-188" stroke="#834187" stroke-width="8" pointer-events="visiblePainted" fill="#f4d9ff" style="fill: rgb(244, 217, 255); stroke: rgb(131, 65, 135);"></circle><line  x1="80" y1="266.6666666666667" x2="80" y2="400" id="v-195" stroke="#834187" stroke-width="8" style="stroke: rgb(131, 65, 135);"></line><line  x1="320" y1="266.6666666666667" x2="320" y2="400" id="v-196" stroke="#834187" stroke-width="8" style="stroke: rgb(131, 65, 135);"></line><text  id="v-190" font-size="34" xml:space="preserve" y="0.8em" font-weight="bold" text-anchor="middle" pointer-events="visible" font-family="Open Sans" fill="#000000" transform="matrix(1,0,0,1,200,213.1)" style="fill: rgb(0, 0, 0);"><tspan dy="0" >Material scientist</tspan></text><text  id="v-191" font-size="17" xml:space="preserve" y="0.8em" text-anchor="middle" font-family="Open Sans" fill="#000000" transform="matrix(1,0,0,1,200,255.6)" style="fill: rgb(0, 0, 0);"><tspan dy="0" >[Person]</tspan></text><text  id="v-192" font-size="24" xml:space="preserve" y="0.8em" text-anchor="middle" font-family="Open Sans" fill="#000000" transform="matrix(1,0,0,1,200,286.9)" style="fill: rgb(0, 0, 0);"><tspan dy="0" >Leverages smartphone facilities</tspan><tspan dy="1.2em" x="0" >to capture materials properties.</tspan></text><g  id="v-193" font-weight="normal" text-anchor="middle" color="#000000" transform="matrix(1,0,0,1,197.5,356.9)" display="none" style="fill: rgb(0, 0, 0);"><g ></g><g ></g><g ></g><g ></g></g><image  id="v-194"></image></g></g><g   id="j_18"  transform="translate(2684,200)" style=""><g  id="v-203" style="opacity: 1;"><rect  x="0" y="160" width="400" height="240" rx="70" id="v-205" stroke="#834187" stroke-width="8" pointer-events="visiblePainted" fill="#f4d9ff" style="fill: rgb(244, 217, 255); stroke: rgb(131, 65, 135);"></rect><circle  cx="200" cy="88.88888888888889" r="88.88888888888889" id="v-204" stroke="#834187" stroke-width="8" pointer-events="visiblePainted" fill="#f4d9ff" style="fill: rgb(244, 217, 255); stroke: rgb(131, 65, 135);"></circle><line  x1="80" y1="266.6666666666667" x2="80" y2="400" id="v-211" stroke="#834187" stroke-width="8" style="stroke: rgb(131, 65, 135);"></line><line  x1="320" y1="266.6666666666667" x2="320" y2="400" id="v-212" stroke="#834187" stroke-width="8" style="stroke: rgb(131, 65, 135);"></line><text  id="v-206" font-size="34" xml:space="preserve" y="0.8em" font-weight="bold" text-anchor="middle" pointer-events="visible" font-family="Open Sans" fill="#000000" transform="matrix(1,0,0,1,200,228.1)" style="fill: rgb(0, 0, 0);"><tspan dy="0" >Simulation engineer</tspan></text><text  id="v-207" font-size="17" xml:space="preserve" y="0.8em" text-anchor="middle" font-family="Open Sans" fill="#000000" transform="matrix(1,0,0,1,200,270.6)" style="fill: rgb(0, 0, 0);"><tspan dy="0" >[Person]</tspan></text><text  id="v-208" font-size="24" xml:space="preserve" y="0.8em" text-anchor="middle" font-family="Open Sans" fill="#000000" transform="matrix(1,0,0,1,200,301.9)" style="fill: rgb(0, 0, 0);"><tspan dy="0" >Crafts physics-based simulation.</tspan></text><g  id="v-209" font-weight="normal" text-anchor="middle" color="#000000" transform="matrix(1,0,0,1,197.5,341.9)" display="none" style="fill: rgb(0, 0, 0);"><g ></g><g ></g><g ></g><g ></g></g><image  id="v-210"></image></g></g><g   id="j_19"  transform="translate(994,250)" style=""><g  id="v-216" style="opacity: 1;"><rect  id="v-217" rx="1" ry="1" stroke="#0c7cba" stroke-width="8" pointer-events="visiblePainted" fill="#cfe4ff" width="450" height="300" style="fill: rgb(207, 228, 255); stroke: rgb(12, 124, 186);"></rect><text  id="v-218" font-size="34" xml:space="preserve" y="0.8em" font-weight="bold" text-anchor="middle" pointer-events="visible" font-family="Open Sans" fill="#000000" transform="matrix(1,0,0,1,225,68.1)" style="fill: rgb(0, 0, 0);"><tspan dy="0" >MILA</tspan></text><text  id="v-219" font-size="17" xml:space="preserve" y="0.8em" text-anchor="middle" font-family="Open Sans" fill="#000000" transform="matrix(1,0,0,1,225,110.6)" style="fill: rgb(0, 0, 0);"><tspan dy="0" >[Software System]</tspan></text><text  id="v-220" font-size="24" xml:space="preserve" y="0.8em" text-anchor="middle" font-family="Open Sans" fill="#000000" transform="matrix(1,0,0,1,225,141.9)" style="fill: rgb(0, 0, 0);"><tspan dy="0" >Provides lightweight material</tspan><tspan dy="1.2em" x="0" >acquisition facilities &amp; crafts</tspan><tspan dy="1.2em" x="0" >self-contained material assets.</tspan></text><g  id="v-221" color="#000000" transform="matrix(1,0,0,1,210,241.9)" display="none" style="fill: rgb(0, 0, 0);"><g  transform="translate(5 0)"><svg xmlns="http://www.w3.org/2000/svg" width="20" height="20" fill="currentColor" viewBox="0 0 16 16"><path fill-rule="evenodd" d="M6.5 12a5.5 5.5 0 1 0 0-11 5.5 5.5 0 0 0 0 11zM13 6.5a6.5 6.5 0 1 1-13 0 6.5 6.5 0 0 1 13 0z"></path><path d="M10.344 11.742c.03.04.062.078.098.115l3.85 3.85a1 1 0 0 0 1.415-1.414l-3.85-3.85a1.007 1.007 0 0 0-.115-.1 6.538 6.538 0 0 1-1.398 1.4z"></path><path fill-rule="evenodd" d="M6.5 3a.5.5 0 0 1 .5.5V6h2.5a.5.5 0 0 1 0 1H7v2.5a.5.5 0 0 1-1 0V7H3.5a.5.5 0 0 1 0-1H6V3.5a.5.5 0 0 1 .5-.5z"></path></svg></g><g ></g><g ></g><g ></g></g><image  id="v-222"></image></g></g><g   id="j_20"  transform="translate(1839,250)" style=""><g  id="v-226" style="opacity: 1;"><rect  id="v-227" rx="1" ry="1" stroke="#0c7cba" stroke-width="8" pointer-events="visiblePainted" fill="#cfe4ff" width="450" height="300" style="fill: rgb(207, 228, 255); stroke: rgb(12, 124, 186);"></rect><text  id="v-228" font-size="34" xml:space="preserve" y="0.8em" font-weight="bold" text-anchor="middle" pointer-events="visible" font-family="Open Sans" fill="#000000" transform="matrix(1,0,0,1,225,83.1)" style="fill: rgb(0, 0, 0);"><tspan dy="0" >Icarus</tspan></text><text  id="v-229" font-size="17" xml:space="preserve" y="0.8em" text-anchor="middle" font-family="Open Sans" fill="#000000" transform="matrix(1,0,0,1,225,125.6)" style="fill: rgb(0, 0, 0);"><tspan dy="0" >[Software System]</tspan></text><text  id="v-230" font-size="24" xml:space="preserve" y="0.8em" text-anchor="middle" font-family="Open Sans" fill="#000000" transform="matrix(1,0,0,1,225,156.9)" style="fill: rgb(0, 0, 0);"><tspan dy="0" >Provides powerful facilities to work</tspan><tspan dy="1.2em" x="0" >with physics materials.</tspan></text><g  id="v-231" color="#000000" transform="matrix(1,0,0,1,222.5,226.9)" display="none" style="fill: rgb(0, 0, 0);"><g ></g><g ></g><g ></g><g ></g></g><image  id="v-232"></image></g></g><g   id="j_21" ><path  stroke="#707070" d="M 599 400 L 994 400" id="v-245" stroke-width="2" stroke-dasharray="30 30" fill="none" style="opacity: 1;"></path><path  fill="black" stroke="black" d="M 0 0 0 0" transform="matrix(0.9999999999999999,0,0,0.9999999999999999,599,400)"></path><path  fill="#707070" stroke="#707070" d="M 20 0 L 0 10 L 20 20 z" id="v-247" transform="matrix(-0.9999999999999999,1.224646799147353e-16,-1.224646799147353e-16,-0.9999999999999999,994,410)" style="opacity: 1;"></path><path  d="M 599 400 L 994 400" id="v-246" fill="none" style="cursor: default;"></path><g ><g id="v-239"  label-idx="0" cursor="move" transform="matrix(1,0,0,1,796.5,400)" style="cursor: default; opacity: 1;"><rect joint-selector="rect" id="v-242" fill="#ffffff" rx="3" ry="3" pointer-events="none" width="192.30848693847656" height="32.81376647949219" transform="matrix(1,0,0,1,-95.7,-16.5)"></rect><text joint-selector="text" id="v-241" font-size="24px" xml:space="preserve" y="0.8em" fill="#707070" text-anchor="middle" pointer-events="none" font-family="Open Sans" font-weight="normal" transform="matrix(1,0,0,1,0,-9.4)"><tspan dy="0" >sends pictures to</tspan></text></g><g id="v-240"  label-idx="1" cursor="move" transform="matrix(1,0,0,1,786.5,427)" style="cursor: default; opacity: 1;"><rect joint-selector="rect" id="v-244" fill="#ffffff" rx="3" ry="3"  width="0" height="0" transform="matrix(1,0,0,1,0,0)" display="none"></rect><text joint-selector="text" id="v-243" fill="#000000" font-size="14" text-anchor="middle" pointer-events="none"></text></g></g><g  display="none"></g><g  id="v-249" display="none"><g  id="v-237"><path  end="source" d="M 26 0 L 0 13 L 26 26 z"></path></g><g  id="v-238"><path  end="target" d="M 26 0 L 0 13 L 26 26 z"></path></g></g><g  id="v-248" display="none"><g  id="v-236" transform="translate(639, 400) "><g  event="remove"><circle r="11"></circle><path transform="scale(.8) translate(-16, -16)" d="M24.778,21.419 19.276,15.917 24.777,10.415 21.949,7.585 16.447,13.087 10.945,7.585 8.117,10.415 13.618,15.917 8.116,21.419 10.946,24.248 16.447,18.746 21.948,24.248z"></path><title>Remove link.</title></g><g  event="link:options"><circle r="11" transform="translate(25)"></circle><path fill="white" transform="scale(.55) translate(29, -16)" d="M31.229,17.736c0.064-0.571,0.104-1.148,0.104-1.736s-0.04-1.166-0.104-1.737l-4.377-1.557c-0.218-0.716-0.504-1.401-0.851-2.05l1.993-4.192c-0.725-0.91-1.549-1.734-2.458-2.459l-4.193,1.994c-0.647-0.347-1.334-0.632-2.049-0.849l-1.558-4.378C17.165,0.708,16.588,0.667,16,0.667s-1.166,0.041-1.737,0.105L12.707,5.15c-0.716,0.217-1.401,0.502-2.05,0.849L6.464,4.005C5.554,4.73,4.73,5.554,4.005,6.464l1.994,4.192c-0.347,0.648-0.632,1.334-0.849,2.05l-4.378,1.557C0.708,14.834,0.667,15.412,0.667,16s0.041,1.165,0.105,1.736l4.378,1.558c0.217,0.715,0.502,1.401,0.849,2.049l-1.994,4.193c0.725,0.909,1.549,1.733,2.459,2.458l4.192-1.993c0.648,0.347,1.334,0.633,2.05,0.851l1.557,4.377c0.571,0.064,1.148,0.104,1.737,0.104c0.588,0,1.165-0.04,1.736-0.104l1.558-4.377c0.715-0.218,1.399-0.504,2.049-0.851l4.193,1.993c0.909-0.725,1.733-1.549,2.458-2.458l-1.993-4.193c0.347-0.647,0.633-1.334,0.851-2.049L31.229,17.736zM16,20.871c-2.69,0-4.872-2.182-4.872-4.871c0-2.69,2.182-4.872,4.872-4.872c2.689,0,4.871,2.182,4.871,4.872C20.871,18.689,18.689,20.871,16,20.871z"></path><title>Link options.</title></g></g></g></g><g   id="j_22" ><path  stroke="#707070" d="M 2684 400 L 2289 400" id="v-259" stroke-width="2" stroke-dasharray="30 30" fill="none" style="opacity: 1;"></path><path  fill="black" stroke="black" d="M 0 0 0 0" transform="matrix(-0.9999999999999999,1.224646799147353e-16,-1.224646799147353e-16,-0.9999999999999999,2684,400)"></path><path  fill="#707070" stroke="#707070" d="M 20 0 L 0 10 L 20 20 z" id="v-261" transform="matrix(0.9999999999999999,0,0,0.9999999999999999,2289,390)" style="opacity: 1;"></path><path  d="M 2684 400 L 2289 400" id="v-260" fill="none" style="cursor: default;"></path><g ><g id="v-253"  label-idx="0" cursor="move" transform="matrix(1,0,0,1,2486.5,400)" style="cursor: default; opacity: 1;"><rect joint-selector="rect" id="v-256" fill="#ffffff" rx="3" ry="3" pointer-events="none" width="52.754676818847656" height="32.81376647949219" transform="matrix(1,0,0,1,-25.5,-16.5)"></rect><text joint-selector="text" id="v-255" font-size="24px" xml:space="preserve" y="0.8em" fill="#707070" text-anchor="middle" pointer-events="none" font-family="Open Sans" font-weight="normal" transform="matrix(1,0,0,1,0,-9.4)"><tspan dy="0" >uses</tspan></text></g><g id="v-254"  label-idx="1" cursor="move" transform="matrix(1,0,0,1,2476.5,427)" style="cursor: default; opacity: 1;"><rect joint-selector="rect" id="v-258" fill="#ffffff" rx="3" ry="3"  width="0" height="0" transform="matrix(1,0,0,1,0,0)" display="none"></rect><text joint-selector="text" id="v-257" fill="#000000" font-size="14" text-anchor="middle" pointer-events="none"></text></g></g><g  display="none"></g><g  id="v-263" display="none"><g  id="v-251"><path  end="source" d="M 26 0 L 0 13 L 26 26 z"></path></g><g  id="v-252"><path  end="target" d="M 26 0 L 0 13 L 26 26 z"></path></g></g><g  id="v-262" display="none"><g  id="v-250" transform="translate(2644, 400) "><g  event="remove"><circle r="11"></circle><path transform="scale(.8) translate(-16, -16)" d="M24.778,21.419 19.276,15.917 24.777,10.415 21.949,7.585 16.447,13.087 10.945,7.585 8.117,10.415 13.618,15.917 8.116,21.419 10.946,24.248 16.447,18.746 21.948,24.248z"></path><title>Remove link.</title></g><g  event="link:options"><circle r="11" transform="translate(25)"></circle><path fill="white" transform="scale(.55) translate(29, -16)" d="M31.229,17.736c0.064-0.571,0.104-1.148,0.104-1.736s-0.04-1.166-0.104-1.737l-4.377-1.557c-0.218-0.716-0.504-1.401-0.851-2.05l1.993-4.192c-0.725-0.91-1.549-1.734-2.458-2.459l-4.193,1.994c-0.647-0.347-1.334-0.632-2.049-0.849l-1.558-4.378C17.165,0.708,16.588,0.667,16,0.667s-1.166,0.041-1.737,0.105L12.707,5.15c-0.716,0.217-1.401,0.502-2.05,0.849L6.464,4.005C5.554,4.73,4.73,5.554,4.005,6.464l1.994,4.192c-0.347,0.648-0.632,1.334-0.849,2.05l-4.378,1.557C0.708,14.834,0.667,15.412,0.667,16s0.041,1.165,0.105,1.736l4.378,1.558c0.217,0.715,0.502,1.401,0.849,2.049l-1.994,4.193c0.725,0.909,1.549,1.733,2.459,2.458l4.192-1.993c0.648,0.347,1.334,0.633,2.05,0.851l1.557,4.377c0.571,0.064,1.148,0.104,1.737,0.104c0.588,0,1.165-0.04,1.736-0.104l1.558-4.377c0.715-0.218,1.399-0.504,2.049-0.851l4.193,1.993c0.909-0.725,1.733-1.549,2.458-2.458l-1.993-4.193c0.347-0.647,0.633-1.334,0.851-2.049L31.229,17.736zM16,20.871c-2.69,0-4.872-2.182-4.872-4.871c0-2.69,2.182-4.872,4.872-4.872c2.689,0,4.871,2.182,4.871,4.872C20.871,18.689,18.689,20.871,16,20.871z"></path><title>Link options.</title></g></g></g></g><g   id="j_23" ><path  stroke="#707070" d="M 1839 400 L 1444 400" id="v-276" stroke-width="2" stroke-dasharray="30 30" fill="none" style="opacity: 1;"></path><path  fill="black" stroke="black" d="M 0 0 0 0" transform="matrix(-0.9999999999999999,1.224646799147353e-16,-1.224646799147353e-16,-0.9999999999999999,1839,400)"></path><path  fill="#707070" stroke="#707070" d="M 20 0 L 0 10 L 20 20 z" id="v-278" transform="matrix(0.9999999999999999,0,0,0.9999999999999999,1444,390)" style="opacity: 1;"></path><path  d="M 1839 400 L 1444 400" id="v-277" fill="none" style="cursor: default;"></path><g ><g id="v-270"  label-idx="0" cursor="move" transform="matrix(1,0,0,1,1641.5,400)" style="cursor: default; opacity: 1;"><rect joint-selector="rect" id="v-273" fill="#ffffff" rx="3" ry="3" pointer-events="none" width="195.61279296875" height="61.61376953125" transform="matrix(1,0,0,1,-98.1,-30.9)"></rect><text joint-selector="text" id="v-272" font-size="24px" xml:space="preserve" y="0.8em" fill="#707070" text-anchor="middle" pointer-events="none" font-family="Open Sans" font-weight="normal" transform="matrix(1,0,0,1,0,-23.8)"><tspan dy="0" >fetches materials</tspan><tspan dy="1.2em" x="0" >from</tspan></text></g><g id="v-271"  label-idx="1" cursor="move" transform="matrix(1,0,0,1,1631.5,442)" style="cursor: default; opacity: 1;"><rect joint-selector="rect" id="v-275" fill="#ffffff" rx="3" ry="3"  width="0" height="0" transform="matrix(1,0,0,1,0,0)" display="none"></rect><text joint-selector="text" id="v-274" fill="#000000" font-size="14" text-anchor="middle" pointer-events="none"></text></g></g><g  display="none"></g><g  id="v-280" display="none"><g  id="v-268"><path  end="source" d="M 26 0 L 0 13 L 26 26 z"></path></g><g  id="v-269"><path  end="target" d="M 26 0 L 0 13 L 26 26 z"></path></g></g><g  id="v-279" display="none"><g  id="v-267" transform="translate(1799, 400) "><g  event="remove"><circle r="11"></circle><path transform="scale(.8) translate(-16, -16)" d="M24.778,21.419 19.276,15.917 24.777,10.415 21.949,7.585 16.447,13.087 10.945,7.585 8.117,10.415 13.618,15.917 8.116,21.419 10.946,24.248 16.447,18.746 21.948,24.248z"></path><title>Remove link.</title></g><g  event="link:options"><circle r="11" transform="translate(25)"></circle><path fill="white" transform="scale(.55) translate(29, -16)" d="M31.229,17.736c0.064-0.571,0.104-1.148,0.104-1.736s-0.04-1.166-0.104-1.737l-4.377-1.557c-0.218-0.716-0.504-1.401-0.851-2.05l1.993-4.192c-0.725-0.91-1.549-1.734-2.458-2.459l-4.193,1.994c-0.647-0.347-1.334-0.632-2.049-0.849l-1.558-4.378C17.165,0.708,16.588,0.667,16,0.667s-1.166,0.041-1.737,0.105L12.707,5.15c-0.716,0.217-1.401,0.502-2.05,0.849L6.464,4.005C5.554,4.73,4.73,5.554,4.005,6.464l1.994,4.192c-0.347,0.648-0.632,1.334-0.849,2.05l-4.378,1.557C0.708,14.834,0.667,15.412,0.667,16s0.041,1.165,0.105,1.736l4.378,1.558c0.217,0.715,0.502,1.401,0.849,2.049l-1.994,4.193c0.725,0.909,1.549,1.733,2.459,2.458l4.192-1.993c0.648,0.347,1.334,0.633,2.05,0.851l1.557,4.377c0.571,0.064,1.148,0.104,1.737,0.104c0.588,0,1.165-0.04,1.736-0.104l1.558-4.377c0.715-0.218,1.399-0.504,2.049-0.851l4.193,1.993c0.909-0.725,1.733-1.549,2.458-2.458l-1.993-4.193c0.347-0.647,0.633-1.334,0.851-2.049L31.229,17.736zM16,20.871c-2.69,0-4.872-2.182-4.872-4.871c0-2.69,2.182-4.872,4.872-4.872c2.689,0,4.871,2.182,4.871,4.872C20.871,18.689,18.689,20.871,16,20.871z"></path><title>Link options.</title></g></g></g></g></g><g ></g><g ></g><g ></g></g></svg>