<svg xmlns="http://www.w3.org/2000/svg" xmlns:xlink="http://www.w3.org/1999/xlink" version="1.1" viewBox="0 0 2328 1370" style="background: #ffffff"><g id="v-3"  transform="matrix(1,0,0,1,0,0)"><g id="j_10"    transform="translate(20,1325)"><g id="v-145"><text  id="v-146" font-size="22px" y="0.8em" xml:space="preserve" font-weight="normal" text-anchor="start" fill="#aaaaaa" pointer-events="none" font-family="Open Sans" transform="matrix(1,0,0,1,0,0)" display="block"><tspan id="v-147"  dy="0em" x="0">Thursday, January 12, 2023 at 11:33 AM Central European Standard Time</tspan></text></g></g><g id="j_9"    transform="translate(20,1279)"><g id="v-141"><text  id="v-142" font-size="36px" y="0.8em" xml:space="preserve" font-weight="normal" text-anchor="start" fill="#000000" pointer-events="none" font-family="Open Sans" transform="matrix(1,0,0,1,0,0)" display="block"><tspan id="v-143"  dy="0em" x="0">[Container] Uploading component internals</tspan></text></g></g><g id="j_1"    transform="translate(200,199)" style=""><g id="v-6"><rect  id="v-7" width="1928" height="971" rx="0" ry="0" fill="#ffffff" stroke="#c7c7c7" stroke-width="8" stroke-dasharray="20,20" pointer-events="none"></rect><text  id="v-8" font-size="24px" y="932" xml:space="preserve" font-weight="normal" fill="#c7c7c7" x="10" text-anchor="start" pointer-events="visible" font-family="Open Sans" transform="matrix(1,0,0,1,15,0)"><tspan id="v-11"  dy="0em" x="0">Uploading component internals</tspan></text><text  id="v-9" font-size="19px" y="956" xml:space="preserve" font-weight="normal" fill="#c7c7c7" x="10" text-anchor="start" pointer-events="visible" font-family="Open Sans" transform="matrix(1,0,0,1,15,0)"><tspan id="v-12"  dy="0em" x="0">[Software System]</tspan></text><image  id="v-10" pointer-events="visible"></image></g></g><g id="j_2"    transform="translate(981,219)" style="" ><g  id="v-16" style="opacity: 1;"><rect  id="v-17" rx="1" ry="1" stroke="#0c7cba" stroke-width="8" pointer-events="visiblePainted" fill="#b2d6ef" width="450" height="300" style="fill: rgb(178, 214, 239); stroke: rgb(12, 124, 186);"></rect><text  id="v-18" font-size="34" y="0.8em" xml:space="preserve" font-weight="bold" text-anchor="middle" pointer-events="visible" font-family="Open Sans" fill="#000000" transform="matrix(1,0,0,1,225,75)" style="fill: rgb(0, 0, 0);"><tspan id="v-23"  dy="0em" x="0">App.Services</tspan></text><text  id="v-19" font-size="19" y="0.8em" xml:space="preserve" text-anchor="middle" font-family="Open Sans" fill="#000000" transform="matrix(1,0,0,1,225,117.5)" style="fill: rgb(0, 0, 0);"><tspan id="v-24"  dy="0em" x="0">[Container: net6.0]</tspan></text><text  id="v-20" font-size="24" y="0.8em" xml:space="preserve" text-anchor="middle" font-family="Open Sans" fill="#000000" transform="matrix(1,0,0,1,225,165)" style="fill: rgb(0, 0, 0);"><tspan id="v-25"  dy="0em" x="0">Provides services eg communication</tspan><tspan id="v-26"  dy="1.2em" x="0">&amp; notification.</tspan></text><text  id="v-21" font-weight="bold" text-anchor="middle" font-family="Open Sans" fill="#000000" font-size="24" transform="matrix(1,0,0,1,225,270)" y="0.8em" display="none" xml:space="preserve" style="fill: rgb(0, 0, 0);"><tspan id="v-27"  dy="0em" x="0" style="fill-opacity: 0; stroke-opacity: 0;">-</tspan></text><image  id="v-22"></image></g></g><g id="j_3"    transform="translate(981,777)" style="" ><g  id="v-31" style="opacity: 1;"><rect  id="v-32" rx="1" ry="1" stroke="#fcc438" stroke-width="8" pointer-events="visiblePainted" fill="#ffeca9" width="450" height="300" style="fill: rgb(255, 236, 169); stroke: rgb(252, 196, 56);"></rect><text  id="v-33" font-size="34" y="0.8em" xml:space="preserve" font-weight="bold" text-anchor="middle" pointer-events="visible" font-family="Open Sans" fill="#000000" transform="matrix(1,0,0,1,225,75)" style="fill: rgb(0, 0, 0);"><tspan id="v-38"  dy="0em" x="0">Dom.Uploading</tspan></text><text  id="v-34" font-size="19" y="0.8em" xml:space="preserve" text-anchor="middle" font-family="Open Sans" fill="#000000" transform="matrix(1,0,0,1,225,117.5)" style="fill: rgb(0, 0, 0);"><tspan id="v-39"  dy="0em" x="0">[Container: net6.0]</tspan></text><text  id="v-35" font-size="24" y="0.8em" xml:space="preserve" text-anchor="middle" font-family="Open Sans" fill="#000000" transform="matrix(1,0,0,1,225,165)" style="fill: rgb(0, 0, 0);"><tspan id="v-40"  dy="0em" x="0">Defines DDD staples such as</tspan><tspan id="v-41"  dy="1.2em" x="0">endpoint value object.</tspan></text><text  id="v-36" font-weight="bold" text-anchor="middle" font-family="Open Sans" fill="#000000" font-size="24" transform="matrix(1,0,0,1,225,270)" y="0.8em" display="none" xml:space="preserve" style="fill: rgb(0, 0, 0);"><tspan id="v-42"  dy="0em" x="0" style="fill-opacity: 0; stroke-opacity: 0;">-</tspan></text><image  id="v-37"></image></g></g><g id="j_4"    transform="translate(1658,219)" style="" ><g  id="v-46" style="opacity: 1;"><rect  id="v-47" rx="1" ry="1" stroke="#834187" stroke-width="8" pointer-events="visiblePainted" fill="#d1bcd2" width="450" height="300" style="fill: rgb(209, 188, 210); stroke: rgb(131, 65, 135);"></rect><text  id="v-48" font-size="34" y="0.8em" xml:space="preserve" font-weight="bold" text-anchor="middle" pointer-events="visible" font-family="Open Sans" fill="#000000" transform="matrix(1,0,0,1,225,75)" style="fill: rgb(0, 0, 0);"><tspan id="v-53"  dy="0em" x="0">Inf.Android</tspan></text><text  id="v-49" font-size="19" y="0.8em" xml:space="preserve" text-anchor="middle" font-family="Open Sans" fill="#000000" transform="matrix(1,0,0,1,225,117.5)" style="fill: rgb(0, 0, 0);"><tspan id="v-54"  dy="0em" x="0">[Container: Xamarin]</tspan></text><text  id="v-50" font-size="24" y="0.8em" xml:space="preserve" text-anchor="middle" font-family="Open Sans" fill="#000000" transform="matrix(1,0,0,1,225,165)" style="fill: rgb(0, 0, 0);"><tspan id="v-55"  dy="0em" x="0">Surfaces device facilities such as tile</tspan><tspan id="v-56"  dy="1.2em" x="0">notification.</tspan></text><text  id="v-51" font-weight="bold" text-anchor="middle" font-family="Open Sans" fill="#000000" font-size="24" transform="matrix(1,0,0,1,225,270)" y="0.8em" display="none" xml:space="preserve" style="fill: rgb(0, 0, 0);"><tspan id="v-57"  dy="0em" x="0" style="fill-opacity: 0; stroke-opacity: 0;">-</tspan></text><image  id="v-52"></image></g></g><g id="j_5"    transform="translate(220,219)" style="" ><g  id="v-61" style="opacity: 1;"><rect  id="v-62" rx="1" ry="1" stroke="#7ab648" stroke-width="8" pointer-events="visiblePainted" fill="#c7e8ac" width="450" height="300" style="fill: rgb(199, 232, 172); stroke: rgb(122, 182, 72);"></rect><text  id="v-63" font-size="34" y="0.8em" xml:space="preserve" font-weight="bold" text-anchor="middle" pointer-events="visible" font-family="Open Sans" fill="#000000" transform="matrix(1,0,0,1,225,60)" style="fill: rgb(0, 0, 0);"><tspan id="v-68"  dy="0em" x="0">Pre.Uploading</tspan></text><text  id="v-64" font-size="19" y="0.8em" xml:space="preserve" text-anchor="middle" font-family="Open Sans" fill="#000000" transform="matrix(1,0,0,1,225,102.5)" style="fill: rgb(0, 0, 0);"><tspan id="v-69"  dy="0em" x="0">[Container: XAML]</tspan></text><text  id="v-65" font-size="24" y="0.8em" xml:space="preserve" text-anchor="middle" font-family="Open Sans" fill="#000000" transform="matrix(1,0,0,1,225,150)" style="fill: rgb(0, 0, 0);"><tspan id="v-70"  dy="0em" x="0">Allows user to specify backend</tspan><tspan id="v-71"  dy="1.2em" x="0">settings. Provides upload monitoring</tspan><tspan id="v-72"  dy="1.2em" x="0">feedback.</tspan></text><text  id="v-66" font-weight="bold" text-anchor="middle" font-family="Open Sans" fill="#000000" font-size="24" transform="matrix(1,0,0,1,225,270)" y="0.8em" display="none" xml:space="preserve" style="fill: rgb(0, 0, 0);"><tspan id="v-73"  dy="0em" x="0" style="fill-opacity: 0; stroke-opacity: 0;">-</tspan></text><image  id="v-67"></image></g></g><g id="j_6"   ><path  stroke="#707070" id="v-91" stroke-width="2" stroke-dasharray="30 30" fill="none" d="M 1206 519 1206 757" style="opacity: 1;"></path><path  fill="black" stroke="black" transform="translate(1206,519) scale(1,1) rotate(-270)"></path><path  fill="#707070" stroke="#707070" id="v-93" d="M 20 0 L 0 10 L 20 20 z" transform="translate(1196,777) scale(1,1) rotate(-90)" style="opacity: 1;"></path><path  id="v-92" fill="none" d="M 1206 519 1206 757" style=""></path><title ></title><g ><g  id="v-79" label-idx="0" cursor="move" transform="translate(1206, 638)" style="opacity: 1;"><rect id="v-81" fill="#ffffff" rx="3" ry="3" stroke="#ffffff" stroke-width="20px" pointer-events="none" width="99.19776153564453" height="32.809669494628906" transform="matrix(1,0,0,1,-49.6,-16.4)"></rect><text id="v-80" font-size="24px" y="0.8em" xml:space="preserve" text-anchor="middle" pointer-events="none" fill="#707070" font-family="Open Sans" font-weight="normal" transform="matrix(1,0,0,1,0,-9.4)"><tspan id="v-82"  dy="0em" x="0">operates</tspan></text></g><g  id="v-83" label-idx="1" cursor="move" transform="translate(1206, 669.2)" style="opacity: 1;"><rect id="v-85" fill="#ffffff" rx="3" ry="3" pointer-events="none" width="0" height="0" transform="matrix(1,0,0,1,0,0)"></rect><text id="v-84" font-size="19px" y="0.8em" display="none" xml:space="preserve" text-anchor="middle" pointer-events="none" fill="#707070" font-family="Open Sans" font-weight="normal" transform="matrix(1,0,0,1,0,0)"><tspan id="v-86"  dy="0em" x="0" style="fill-opacity: 0; stroke-opacity: 0;">-</tspan></text></g><g  id="v-87" label-idx="2" cursor="move" transform="translate(1206, 693.2)" style="opacity: 1;"><rect id="v-89" fill="#ffffff" rx="3" ry="3" pointer-events="none"  display="none" width="0" height="0" transform="matrix(1,0,0,1,0,0)"></rect><text id="v-88" font-size="19px" y="0.8em" display="none" xml:space="preserve" text-anchor="middle" pointer-events="none" fill="#707070" font-family="Open Sans" font-weight="normal"  transform="matrix(1,0,0,1,0,0)"><tspan id="v-90"  dy="0em" x="0" style="fill-opacity: 0; stroke-opacity: 0;">-</tspan></text></g></g><g  display="none"></g><g  id="v-95" display="none"><g  id="v-76"><path  end="source" d="M 26 0 L 0 13 L 26 26 z"></path></g><g  id="v-77"><path  end="target" d="M 26 0 L 0 13 L 26 26 z"></path></g></g><g  id="v-94" display="none"><g  id="v-75" transform="translate(1206, 559) "><g  event="remove"><circle r="11"></circle><path transform="scale(.8) translate(-16, -16)" d="M24.778,21.419 19.276,15.917 24.777,10.415 21.949,7.585 16.447,13.087 10.945,7.585 8.117,10.415 13.618,15.917 8.116,21.419 10.946,24.248 16.447,18.746 21.948,24.248z"></path><title>Remove link.</title></g><g  event="link:options"><circle r="11" transform="translate(25)"></circle><path fill="white" transform="scale(.55) translate(29, -16)" d="M31.229,17.736c0.064-0.571,0.104-1.148,0.104-1.736s-0.04-1.166-0.104-1.737l-4.377-1.557c-0.218-0.716-0.504-1.401-0.851-2.05l1.993-4.192c-0.725-0.91-1.549-1.734-2.458-2.459l-4.193,1.994c-0.647-0.347-1.334-0.632-2.049-0.849l-1.558-4.378C17.165,0.708,16.588,0.667,16,0.667s-1.166,0.041-1.737,0.105L12.707,5.15c-0.716,0.217-1.401,0.502-2.05,0.849L6.464,4.005C5.554,4.73,4.73,5.554,4.005,6.464l1.994,4.192c-0.347,0.648-0.632,1.334-0.849,2.05l-4.378,1.557C0.708,14.834,0.667,15.412,0.667,16s0.041,1.165,0.105,1.736l4.378,1.558c0.217,0.715,0.502,1.401,0.849,2.049l-1.994,4.193c0.725,0.909,1.549,1.733,2.459,2.458l4.192-1.993c0.648,0.347,1.334,0.633,2.05,0.851l1.557,4.377c0.571,0.064,1.148,0.104,1.737,0.104c0.588,0,1.165-0.04,1.736-0.104l1.558-4.377c0.715-0.218,1.399-0.504,2.049-0.851l4.193,1.993c0.909-0.725,1.733-1.549,2.458-2.458l-1.993-4.193c0.347-0.647,0.633-1.334,0.851-2.049L31.229,17.736zM16,20.871c-2.69,0-4.872-2.182-4.872-4.871c0-2.69,2.182-4.872,4.872-4.872c2.689,0,4.871,2.182,4.871,4.872C20.871,18.689,18.689,20.871,16,20.871z"></path><title>Link options.</title></g></g></g></g><g id="j_7"   ><path  stroke="#707070" id="v-113" stroke-width="2" stroke-dasharray="30 30" fill="none" d="M 1431 369 1638 369" style="opacity: 1;"></path><path  fill="black" stroke="black" transform="translate(1431,369) scale(1,1) rotate(0)"></path><path  fill="#707070" stroke="#707070" id="v-115" d="M 20 0 L 0 10 L 20 20 z" transform="translate(1658,379) scale(1,1) rotate(-180)" style="opacity: 1;"></path><path  id="v-114" fill="none" d="M 1431 369 1638 369" style=""></path><title ></title><g ><g  id="v-101" label-idx="0" cursor="move" transform="translate(1534.5, 369)" style="opacity: 1;"><rect id="v-103" fill="#ffffff" rx="3" ry="3" stroke="#ffffff" stroke-width="20px" pointer-events="none" width="103.89385223388672" height="32.809669494628906" transform="matrix(1,0,0,1,-51.9,-16.4)"></rect><text id="v-102" font-size="24px" y="0.8em" xml:space="preserve" text-anchor="middle" pointer-events="none" fill="#707070" font-family="Open Sans" font-weight="normal" transform="matrix(1,0,0,1,0,-9.4)"><tspan id="v-104"  dy="0em" x="0">lererages</tspan></text></g><g  id="v-105" label-idx="1" cursor="move" transform="translate(1534.5, 400.2)" style="opacity: 1;"><rect id="v-107" fill="#ffffff" rx="3" ry="3" pointer-events="none" width="0" height="0" transform="matrix(1,0,0,1,0,0)"></rect><text id="v-106" font-size="19px" y="0.8em" display="none" xml:space="preserve" text-anchor="middle" pointer-events="none" fill="#707070" font-family="Open Sans" font-weight="normal" transform="matrix(1,0,0,1,0,0)"><tspan id="v-108"  dy="0em" x="0" style="fill-opacity: 0; stroke-opacity: 0;">-</tspan></text></g><g  id="v-109" label-idx="2" cursor="move" transform="translate(1534.5, 424.2)" style="opacity: 1;"><rect id="v-111" fill="#ffffff" rx="3" ry="3" pointer-events="none"  display="none" width="0" height="0" transform="matrix(1,0,0,1,0,0)"></rect><text id="v-110" font-size="19px" y="0.8em" display="none" xml:space="preserve" text-anchor="middle" pointer-events="none" fill="#707070" font-family="Open Sans" font-weight="normal"  transform="matrix(1,0,0,1,0,0)"><tspan id="v-112"  dy="0em" x="0" style="fill-opacity: 0; stroke-opacity: 0;">-</tspan></text></g></g><g  display="none"></g><g  id="v-117" display="none"><g  id="v-98"><path  end="source" d="M 26 0 L 0 13 L 26 26 z"></path></g><g  id="v-99"><path  end="target" d="M 26 0 L 0 13 L 26 26 z"></path></g></g><g  id="v-116" display="none"><g  id="v-97" transform="translate(1471, 369) "><g  event="remove"><circle r="11"></circle><path transform="scale(.8) translate(-16, -16)" d="M24.778,21.419 19.276,15.917 24.777,10.415 21.949,7.585 16.447,13.087 10.945,7.585 8.117,10.415 13.618,15.917 8.116,21.419 10.946,24.248 16.447,18.746 21.948,24.248z"></path><title>Remove link.</title></g><g  event="link:options"><circle r="11" transform="translate(25)"></circle><path fill="white" transform="scale(.55) translate(29, -16)" d="M31.229,17.736c0.064-0.571,0.104-1.148,0.104-1.736s-0.04-1.166-0.104-1.737l-4.377-1.557c-0.218-0.716-0.504-1.401-0.851-2.05l1.993-4.192c-0.725-0.91-1.549-1.734-2.458-2.459l-4.193,1.994c-0.647-0.347-1.334-0.632-2.049-0.849l-1.558-4.378C17.165,0.708,16.588,0.667,16,0.667s-1.166,0.041-1.737,0.105L12.707,5.15c-0.716,0.217-1.401,0.502-2.05,0.849L6.464,4.005C5.554,4.73,4.73,5.554,4.005,6.464l1.994,4.192c-0.347,0.648-0.632,1.334-0.849,2.05l-4.378,1.557C0.708,14.834,0.667,15.412,0.667,16s0.041,1.165,0.105,1.736l4.378,1.558c0.217,0.715,0.502,1.401,0.849,2.049l-1.994,4.193c0.725,0.909,1.549,1.733,2.459,2.458l4.192-1.993c0.648,0.347,1.334,0.633,2.05,0.851l1.557,4.377c0.571,0.064,1.148,0.104,1.737,0.104c0.588,0,1.165-0.04,1.736-0.104l1.558-4.377c0.715-0.218,1.399-0.504,2.049-0.851l4.193,1.993c0.909-0.725,1.733-1.549,2.458-2.458l-1.993-4.193c0.347-0.647,0.633-1.334,0.851-2.049L31.229,17.736zM16,20.871c-2.69,0-4.872-2.182-4.872-4.871c0-2.69,2.182-4.872,4.872-4.872c2.689,0,4.871,2.182,4.871,4.872C20.871,18.689,18.689,20.871,16,20.871z"></path><title>Link options.</title></g></g></g></g><g id="j_8"   ><path  stroke="#707070" id="v-135" stroke-width="2" stroke-dasharray="30 30" fill="none" d="M 670 369 961 369" style="opacity: 1;"></path><path  fill="black" stroke="black" transform="translate(670,369) scale(1,1) rotate(0)"></path><path  fill="#707070" stroke="#707070" id="v-137" d="M 20 0 L 0 10 L 20 20 z" transform="translate(981,379) scale(1,1) rotate(-180)" style="opacity: 1;"></path><path  id="v-136" fill="none" d="M 670 369 961 369" style=""></path><title ></title><g ><g  id="v-123" label-idx="0" cursor="move" transform="translate(815.5, 369)" style="opacity: 1;"><rect id="v-125" fill="#ffffff" rx="3" ry="3" stroke="#ffffff" stroke-width="20px" pointer-events="none" width="103.21461486816406" height="32.809669494628906" transform="matrix(1,0,0,1,-51.6,-16.4)"></rect><text id="v-124" font-size="24px" y="0.8em" xml:space="preserve" text-anchor="middle" pointer-events="none" fill="#707070" font-family="Open Sans" font-weight="normal" transform="matrix(1,0,0,1,0,-9.4)"><tspan id="v-126"  dy="0em" x="0">exercises</tspan></text></g><g  id="v-127" label-idx="1" cursor="move" transform="translate(815.5, 400.2)" style="opacity: 1;"><rect id="v-129" fill="#ffffff" rx="3" ry="3" pointer-events="none" width="0" height="0" transform="matrix(1,0,0,1,0,0)"></rect><text id="v-128" font-size="19px" y="0.8em" display="none" xml:space="preserve" text-anchor="middle" pointer-events="none" fill="#707070" font-family="Open Sans" font-weight="normal" transform="matrix(1,0,0,1,0,0)"><tspan id="v-130"  dy="0em" x="0" style="fill-opacity: 0; stroke-opacity: 0;">-</tspan></text></g><g  id="v-131" label-idx="2" cursor="move" transform="translate(815.5, 424.2)" style="opacity: 1;"><rect id="v-133" fill="#ffffff" rx="3" ry="3" pointer-events="none"  display="none" width="0" height="0" transform="matrix(1,0,0,1,0,0)"></rect><text id="v-132" font-size="19px" y="0.8em" display="none" xml:space="preserve" text-anchor="middle" pointer-events="none" fill="#707070" font-family="Open Sans" font-weight="normal"  transform="matrix(1,0,0,1,0,0)"><tspan id="v-134"  dy="0em" x="0" style="fill-opacity: 0; stroke-opacity: 0;">-</tspan></text></g></g><g  display="none"></g><g  id="v-139" display="none"><g  id="v-120"><path  end="source" d="M 26 0 L 0 13 L 26 26 z"></path></g><g  id="v-121"><path  end="target" d="M 26 0 L 0 13 L 26 26 z"></path></g></g><g  id="v-138" display="none"><g  id="v-119" transform="translate(710, 369) "><g  event="remove"><circle r="11"></circle><path transform="scale(.8) translate(-16, -16)" d="M24.778,21.419 19.276,15.917 24.777,10.415 21.949,7.585 16.447,13.087 10.945,7.585 8.117,10.415 13.618,15.917 8.116,21.419 10.946,24.248 16.447,18.746 21.948,24.248z"></path><title>Remove link.</title></g><g  event="link:options"><circle r="11" transform="translate(25)"></circle><path fill="white" transform="scale(.55) translate(29, -16)" d="M31.229,17.736c0.064-0.571,0.104-1.148,0.104-1.736s-0.04-1.166-0.104-1.737l-4.377-1.557c-0.218-0.716-0.504-1.401-0.851-2.05l1.993-4.192c-0.725-0.91-1.549-1.734-2.458-2.459l-4.193,1.994c-0.647-0.347-1.334-0.632-2.049-0.849l-1.558-4.378C17.165,0.708,16.588,0.667,16,0.667s-1.166,0.041-1.737,0.105L12.707,5.15c-0.716,0.217-1.401,0.502-2.05,0.849L6.464,4.005C5.554,4.73,4.73,5.554,4.005,6.464l1.994,4.192c-0.347,0.648-0.632,1.334-0.849,2.05l-4.378,1.557C0.708,14.834,0.667,15.412,0.667,16s0.041,1.165,0.105,1.736l4.378,1.558c0.217,0.715,0.502,1.401,0.849,2.049l-1.994,4.193c0.725,0.909,1.549,1.733,2.459,2.458l4.192-1.993c0.648,0.347,1.334,0.633,2.05,0.851l1.557,4.377c0.571,0.064,1.148,0.104,1.737,0.104c0.588,0,1.165-0.04,1.736-0.104l1.558-4.377c0.715-0.218,1.399-0.504,2.049-0.851l4.193,1.993c0.909-0.725,1.733-1.549,2.458-2.458l-1.993-4.193c0.347-0.647,0.633-1.334,0.851-2.049L31.229,17.736zM16,20.871c-2.69,0-4.872-2.182-4.872-4.871c0-2.69,2.182-4.872,4.872-4.872c2.689,0,4.871,2.182,4.871,4.872C20.871,18.689,18.689,20.871,16,20.871z"></path><title>Link options.</title></g></g></g></g></g><defs id="v-4"></defs></svg>