<svg xmlns="http://www.w3.org/2000/svg" xmlns:xlink="http://www.w3.org/1999/xlink" version="1.1" viewBox="0 0 2389.9999756993766 812.9999821508698" style="background: #ffffff"><g id="v-3"  transform="matrix(1,0,0,1,0,0)"><g id="j_8"    transform="translate(20,767.9999821508698)"><g id="v-103"><text  id="v-104" font-size="22px" y="0.8em" xml:space="preserve" font-weight="normal" text-anchor="start" fill="#aaaaaa" pointer-events="none" font-family="Open Sans" transform="matrix(1,0,0,1,0,0)" display="block"><tspan id="v-105"  dy="0em" x="0">Thursday, January 12, 2023 at 11:02 AM Central European Standard Time</tspan></text></g></g><g id="j_7"    transform="translate(20,721.9999821508698)"><g id="v-99"><text  id="v-100" font-size="36px" y="0.8em" xml:space="preserve" font-weight="normal" text-anchor="start" fill="#000000" pointer-events="none" font-family="Open Sans" transform="matrix(1,0,0,1,0,0)" display="block"><tspan id="v-101"  dy="0em" x="0">[Component] MILA - Mobile application</tspan></text></g></g><g id="j_1"    transform="translate(199,199)" style=""><g id="v-6"><rect  id="v-7" width="1990" height="413" rx="0" ry="0" fill="#ffffff" stroke="#c92d39" stroke-width="8" stroke-dasharray="20,20" pointer-events="none"></rect><text  id="v-8" font-size="24px" y="374" xml:space="preserve" font-weight="normal" fill="#c92d39" x="10" text-anchor="start" pointer-events="visible" font-family="Open Sans" transform="matrix(1,0,0,1,15,0)"><tspan id="v-11"  dy="0em" x="0">Mobile application</tspan></text><text  id="v-9" font-size="19px" y="398" xml:space="preserve" font-weight="normal" fill="#c92d39" x="10" text-anchor="start" pointer-events="visible" font-family="Open Sans" transform="matrix(1,0,0,1,15,0)"><tspan id="v-12"  dy="0em" x="0">[Container]</tspan></text><image  id="v-10" pointer-events="visible"></image></g></g><g id="j_2"    transform="translate(219,219)" style=""><g  id="v-16" style="opacity: 1;"><rect  id="v-17" rx="1" ry="1" stroke="#7ab648" stroke-width="8" pointer-events="visiblePainted" fill="#c3f7c8" width="450" height="300" style="fill: rgb(195, 247, 200); stroke: rgb(122, 182, 72);"></rect><text  id="v-18" font-size="34" y="0.8em" xml:space="preserve" font-weight="bold" text-anchor="middle" pointer-events="visible" font-family="Open Sans" fill="#000000" transform="matrix(1,0,0,1,225,75)" style="fill: rgb(0, 0, 0);"><tspan id="v-23"  dy="0em" x="0">Acquisition</tspan></text><text  id="v-19" font-size="19" y="0.8em" xml:space="preserve" text-anchor="middle" font-family="Open Sans" fill="#000000" transform="matrix(1,0,0,1,225,117.5)" style="fill: rgb(0, 0, 0);"><tspan id="v-24"  dy="0em" x="0">[Component: C#]</tspan></text><text  id="v-20" font-size="24" y="0.8em" xml:space="preserve" text-anchor="middle" font-family="Open Sans" fill="#000000" transform="matrix(1,0,0,1,225,165)" style="fill: rgb(0, 0, 0);"><tspan id="v-25"  dy="0em" x="0">Handles smartphone built-in</tspan><tspan id="v-26"  dy="1.2em" x="0">capabilities.</tspan></text><text  id="v-21" font-weight="bold" text-anchor="middle" font-family="Open Sans" fill="#000000" font-size="24" transform="matrix(1,0,0,1,225,270)" style="fill: rgb(0, 0, 0);" display="none"></text><image  id="v-22"></image></g></g><g id="j_3"    transform="translate(969,219)" style=""><g  id="v-30" style="opacity: 1;"><rect  id="v-31" rx="1" ry="1" stroke="#7ab648" stroke-width="8" pointer-events="visiblePainted" fill="#c3f7c8" width="450" height="300" style="fill: rgb(195, 247, 200); stroke: rgb(122, 182, 72);"></rect><text  id="v-32" font-size="34" y="0.8em" xml:space="preserve" font-weight="bold" text-anchor="middle" pointer-events="visible" font-family="Open Sans" fill="#000000" transform="matrix(1,0,0,1,225,75)" style="fill: rgb(0, 0, 0);"><tspan id="v-37"  dy="0em" x="0">Preparation</tspan></text><text  id="v-33" font-size="19" y="0.8em" xml:space="preserve" text-anchor="middle" font-family="Open Sans" fill="#000000" transform="matrix(1,0,0,1,225,117.5)" style="fill: rgb(0, 0, 0);"><tspan id="v-38"  dy="0em" x="0">[Component: C#]</tspan></text><text  id="v-34" font-size="24" y="0.8em" xml:space="preserve" text-anchor="middle" font-family="Open Sans" fill="#000000" transform="matrix(1,0,0,1,225,165)" style="fill: rgb(0, 0, 0);"><tspan id="v-39"  dy="0em" x="0">Provides images tooling such as</tspan><tspan id="v-40"  dy="1.2em" x="0">cropping &amp; stitching facilities.</tspan></text><text  id="v-35" font-weight="bold" text-anchor="middle" font-family="Open Sans" fill="#000000" font-size="24" transform="matrix(1,0,0,1,225,270)" style="fill: rgb(0, 0, 0);" display="none"></text><image  id="v-36"></image></g></g><g id="j_4"    transform="translate(1719,219)" style=""><g  id="v-44" style="opacity: 1;"><rect  id="v-45" rx="1" ry="1" stroke="#7ab648" stroke-width="8" pointer-events="visiblePainted" fill="#c3f7c8" width="450" height="300" style="fill: rgb(195, 247, 200); stroke: rgb(122, 182, 72);"></rect><text  id="v-46" font-size="34" y="0.8em" xml:space="preserve" font-weight="bold" text-anchor="middle" pointer-events="visible" font-family="Open Sans" fill="#000000" transform="matrix(1,0,0,1,225,90)" style="fill: rgb(0, 0, 0);"><tspan id="v-51"  dy="0em" x="0">Uploading</tspan></text><text  id="v-47" font-size="19" y="0.8em" xml:space="preserve" text-anchor="middle" font-family="Open Sans" fill="#000000" transform="matrix(1,0,0,1,225,132.5)" style="fill: rgb(0, 0, 0);"><tspan id="v-52"  dy="0em" x="0">[Component: C#]</tspan></text><text  id="v-48" font-size="24" y="0.8em" xml:space="preserve" text-anchor="middle" font-family="Open Sans" fill="#000000" transform="matrix(1,0,0,1,225,180)" style="fill: rgb(0, 0, 0);"><tspan id="v-53"  dy="0em" x="0">Handles back-end communication.</tspan></text><text  id="v-49" font-weight="bold" text-anchor="middle" font-family="Open Sans" fill="#000000" font-size="24" transform="matrix(1,0,0,1,225,270)" style="fill: rgb(0, 0, 0);" display="none"></text><image  id="v-50"></image></g></g><g id="j_5"   ><path  stroke="#707070" id="v-71" stroke-width="2" stroke-dasharray="30 30" fill="none" d="M 1419 369 1699 369" style="opacity: 1;"></path><path  fill="black" stroke="black" transform="translate(1419,369) scale(1,1) rotate(0)"></path><path  fill="#707070" stroke="#707070" id="v-73" d="M 20 0 L 0 10 L 20 20 z" transform="translate(1719,379.0000000000001) scale(1,1) rotate(-180)" style="opacity: 1;"></path><path  id="v-72" fill="none" d="M 1419 369 1699 369" style=""></path><title ></title><g ><g  id="v-59" label-idx="0" cursor="move" transform="translate(1559, 369)" style="opacity: 1;"><rect id="v-61" fill="#ffffff" rx="3" ry="3" stroke="#ffffff" stroke-width="20px" pointer-events="none" width="103.34712219238281" height="33.08026885986328" transform="matrix(1,0,0,1,-51.7,-16.5)"></rect><text id="v-60" font-size="24px" y="0.8em" xml:space="preserve" text-anchor="middle" pointer-events="none" fill="#707070" font-family="Open Sans" font-weight="normal" transform="matrix(1,0,0,1,0,-10)"><tspan id="v-62"  dy="0em" x="0">packages</tspan></text></g><g  id="v-63" label-idx="1" cursor="move" transform="translate(1559, 400.2)" style="opacity: 1;"><rect id="v-65" fill="#ffffff" rx="3" ry="3" pointer-events="none" width="0" height="0" transform="matrix(1,0,0,1,0,0)"></rect><text id="v-64" font-size="19px" y="0.8em" display="none" xml:space="preserve" text-anchor="middle" pointer-events="none" fill="#707070" font-family="Open Sans" font-weight="normal" transform="matrix(1,0,0,1,0,0)"><tspan id="v-66"  dy="0em" x="0" style="fill-opacity: 0; stroke-opacity: 0;">-</tspan></text></g><g  id="v-67" label-idx="2" cursor="move" transform="translate(1559, 424.2)" style="opacity: 1;"><rect id="v-69" fill="#ffffff" rx="3" ry="3" pointer-events="none"  display="none" width="0" height="0" transform="matrix(1,0,0,1,0,0)"></rect><text id="v-68" font-size="19px" y="0.8em" display="none" xml:space="preserve" text-anchor="middle" pointer-events="none" fill="#707070" font-family="Open Sans" font-weight="normal"  transform="matrix(1,0,0,1,0,0)"><tspan id="v-70"  dy="0em" x="0" style="fill-opacity: 0; stroke-opacity: 0;">-</tspan></text></g></g><g  display="none"></g><g  id="v-75" display="none"><g  id="v-56"><path  end="source" d="M 26 0 L 0 13 L 26 26 z"></path></g><g  id="v-57"><path  end="target" d="M 26 0 L 0 13 L 26 26 z"></path></g></g><g  id="v-74" display="none"><g  id="v-55" transform="translate(1459, 369) "><g  event="remove"><circle r="11"></circle><path transform="scale(.8) translate(-16, -16)" d="M24.778,21.419 19.276,15.917 24.777,10.415 21.949,7.585 16.447,13.087 10.945,7.585 8.117,10.415 13.618,15.917 8.116,21.419 10.946,24.248 16.447,18.746 21.948,24.248z"></path><title>Remove link.</title></g><g  event="link:options"><circle r="11" transform="translate(25)"></circle><path fill="white" transform="scale(.55) translate(29, -16)" d="M31.229,17.736c0.064-0.571,0.104-1.148,0.104-1.736s-0.04-1.166-0.104-1.737l-4.377-1.557c-0.218-0.716-0.504-1.401-0.851-2.05l1.993-4.192c-0.725-0.91-1.549-1.734-2.458-2.459l-4.193,1.994c-0.647-0.347-1.334-0.632-2.049-0.849l-1.558-4.378C17.165,0.708,16.588,0.667,16,0.667s-1.166,0.041-1.737,0.105L12.707,5.15c-0.716,0.217-1.401,0.502-2.05,0.849L6.464,4.005C5.554,4.73,4.73,5.554,4.005,6.464l1.994,4.192c-0.347,0.648-0.632,1.334-0.849,2.05l-4.378,1.557C0.708,14.834,0.667,15.412,0.667,16s0.041,1.165,0.105,1.736l4.378,1.558c0.217,0.715,0.502,1.401,0.849,2.049l-1.994,4.193c0.725,0.909,1.549,1.733,2.459,2.458l4.192-1.993c0.648,0.347,1.334,0.633,2.05,0.851l1.557,4.377c0.571,0.064,1.148,0.104,1.737,0.104c0.588,0,1.165-0.04,1.736-0.104l1.558-4.377c0.715-0.218,1.399-0.504,2.049-0.851l4.193,1.993c0.909-0.725,1.733-1.549,2.458-2.458l-1.993-4.193c0.347-0.647,0.633-1.334,0.851-2.049L31.229,17.736zM16,20.871c-2.69,0-4.872-2.182-4.872-4.871c0-2.69,2.182-4.872,4.872-4.872c2.689,0,4.871,2.182,4.871,4.872C20.871,18.689,18.689,20.871,16,20.871z"></path><title>Link options.</title></g></g></g></g><g id="j_6"   ><path  stroke="#707070" id="v-93" stroke-width="2" stroke-dasharray="30 30" fill="none" d="M 669 369 949 369" style="opacity: 1;"></path><path  fill="black" stroke="black" transform="translate(669,369) scale(1,1) rotate(0)"></path><path  fill="#707070" stroke="#707070" id="v-95" d="M 20 0 L 0 10 L 20 20 z" transform="translate(969,379.0000000000001) scale(1,1) rotate(-180)" style="opacity: 1;"></path><path  id="v-94" fill="none" d="M 669 369 949 369" style=""></path><title ></title><g ><g  id="v-81" label-idx="0" cursor="move" transform="translate(809, 369)" style="opacity: 1;"><rect id="v-83" fill="#ffffff" rx="3" ry="3" stroke="#ffffff" stroke-width="20px" pointer-events="none" width="62.94439697265625" height="33.08026885986328" transform="matrix(1,0,0,1,-32.4,-16.5)"></rect><text id="v-82" font-size="24px" y="0.8em" xml:space="preserve" text-anchor="middle" pointer-events="none" fill="#707070" font-family="Open Sans" font-weight="normal" transform="matrix(1,0,0,1,0,-10)"><tspan id="v-84"  dy="0em" x="0">feeds</tspan></text></g><g  id="v-85" label-idx="1" cursor="move" transform="translate(809, 400.2)" style="opacity: 1;"><rect id="v-87" fill="#ffffff" rx="3" ry="3" pointer-events="none" width="0" height="0" transform="matrix(1,0,0,1,0,0)"></rect><text id="v-86" font-size="19px" y="0.8em" display="none" xml:space="preserve" text-anchor="middle" pointer-events="none" fill="#707070" font-family="Open Sans" font-weight="normal" transform="matrix(1,0,0,1,0,0)"><tspan id="v-88"  dy="0em" x="0" style="fill-opacity: 0; stroke-opacity: 0;">-</tspan></text></g><g  id="v-89" label-idx="2" cursor="move" transform="translate(809, 424.2)" style="opacity: 1;"><rect id="v-91" fill="#ffffff" rx="3" ry="3" pointer-events="none"  display="none" width="0" height="0" transform="matrix(1,0,0,1,0,0)"></rect><text id="v-90" font-size="19px" y="0.8em" display="none" xml:space="preserve" text-anchor="middle" pointer-events="none" fill="#707070" font-family="Open Sans" font-weight="normal"  transform="matrix(1,0,0,1,0,0)"><tspan id="v-92"  dy="0em" x="0" style="fill-opacity: 0; stroke-opacity: 0;">-</tspan></text></g></g><g  display="none"></g><g  id="v-97" display="none"><g  id="v-78"><path  end="source" d="M 26 0 L 0 13 L 26 26 z"></path></g><g  id="v-79"><path  end="target" d="M 26 0 L 0 13 L 26 26 z"></path></g></g><g  id="v-96" display="none"><g  id="v-77" transform="translate(709, 369) "><g  event="remove"><circle r="11"></circle><path transform="scale(.8) translate(-16, -16)" d="M24.778,21.419 19.276,15.917 24.777,10.415 21.949,7.585 16.447,13.087 10.945,7.585 8.117,10.415 13.618,15.917 8.116,21.419 10.946,24.248 16.447,18.746 21.948,24.248z"></path><title>Remove link.</title></g><g  event="link:options"><circle r="11" transform="translate(25)"></circle><path fill="white" transform="scale(.55) translate(29, -16)" d="M31.229,17.736c0.064-0.571,0.104-1.148,0.104-1.736s-0.04-1.166-0.104-1.737l-4.377-1.557c-0.218-0.716-0.504-1.401-0.851-2.05l1.993-4.192c-0.725-0.91-1.549-1.734-2.458-2.459l-4.193,1.994c-0.647-0.347-1.334-0.632-2.049-0.849l-1.558-4.378C17.165,0.708,16.588,0.667,16,0.667s-1.166,0.041-1.737,0.105L12.707,5.15c-0.716,0.217-1.401,0.502-2.05,0.849L6.464,4.005C5.554,4.73,4.73,5.554,4.005,6.464l1.994,4.192c-0.347,0.648-0.632,1.334-0.849,2.05l-4.378,1.557C0.708,14.834,0.667,15.412,0.667,16s0.041,1.165,0.105,1.736l4.378,1.558c0.217,0.715,0.502,1.401,0.849,2.049l-1.994,4.193c0.725,0.909,1.549,1.733,2.459,2.458l4.192-1.993c0.648,0.347,1.334,0.633,2.05,0.851l1.557,4.377c0.571,0.064,1.148,0.104,1.737,0.104c0.588,0,1.165-0.04,1.736-0.104l1.558-4.377c0.715-0.218,1.399-0.504,2.049-0.851l4.193,1.993c0.909-0.725,1.733-1.549,2.458-2.458l-1.993-4.193c0.347-0.647,0.633-1.334,0.851-2.049L31.229,17.736zM16,20.871c-2.69,0-4.872-2.182-4.872-4.871c0-2.69,2.182-4.872,4.872-4.872c2.689,0,4.871,2.182,4.871,4.872C20.871,18.689,18.689,20.871,16,20.871z"></path><title>Link options.</title></g></g></g></g></g><defs id="v-4"></defs></svg>