<svg xmlns="http://www.w3.org/2000/svg" xmlns:xlink="http://www.w3.org/1999/xlink" version="1.1" viewBox="0 0 2425 2720" style="background: #ffffff"><g id="v-3"  transform="matrix(1,0,0,1,0,0)"><g id="j_163"    transform="translate(20,2675)"><g id="v-2578"><text  id="v-2579" font-size="22px" y="0.8em" xml:space="preserve" font-weight="normal" text-anchor="start" fill="#aaaaaa" pointer-events="none" font-family="Open Sans" transform="matrix(1,0,0,1,0,0)"><tspan id="v-2580"  dy="0em" x="0">Thursday, January 12, 2023 at 11:22 AM Central European Standard Time</tspan></text></g></g><g id="j_162"    transform="translate(20,2629)"><g id="v-2574"><text  id="v-2575" font-size="36px" y="0.8em" xml:space="preserve" font-weight="normal" text-anchor="start" fill="#000000" pointer-events="none" font-family="Open Sans" transform="matrix(1,0,0,1,0,0)"><tspan id="v-2576"  dy="0em" x="0">[Container] MILA</tspan></text></g></g><g id="j_156"    transform="translate(892,888)" style=""><g id="v-2454"><rect  id="v-2455" width="1240" height="563" rx="0" ry="0" fill="#ffffff" stroke="#0c7cba" stroke-width="8" stroke-dasharray="20,20" pointer-events="none"></rect><text  id="v-2456" font-size="24px" y="524" xml:space="preserve" font-weight="normal" fill="#0c7cba" x="10" text-anchor="start" pointer-events="visible" font-family="Open Sans" transform="matrix(1,0,0,1,15,0)"><tspan id="v-2459"  dy="0em" x="0">MILA</tspan></text><text  id="v-2457" font-size="19px" y="548" xml:space="preserve" font-weight="normal" fill="#0c7cba" x="10" text-anchor="start" pointer-events="visible" font-family="Open Sans" transform="matrix(1,0,0,1,15,0)"><tspan id="v-2460"  dy="0em" x="0">[Software System]</tspan></text><image  id="v-2458" pointer-events="visible"></image></g></g><g id="j_157"    transform="translate(1312,208)" style=""><g  id="v-2466" style="opacity: 1;"><rect  x="0" y="160" width="400" height="240" rx="70" id="v-2468" stroke="#834187" stroke-width="8" pointer-events="visiblePainted" fill="#f4d9ff" style="fill: rgb(244, 217, 255); stroke: rgb(131, 65, 135);"></rect><circle  cx="200" cy="88.88888888888889" r="88.88888888888889" id="v-2467" stroke="#834187" stroke-width="8" pointer-events="visiblePainted" fill="#f4d9ff" style="fill: rgb(244, 217, 255); stroke: rgb(131, 65, 135);"></circle><line  x1="80" y1="266.6666666666667" x2="80" y2="400" id="v-2474" stroke="#834187" stroke-width="8" style="stroke: rgb(131, 65, 135);"></line><line  x1="320" y1="266.6666666666667" x2="320" y2="400" id="v-2475" stroke="#834187" stroke-width="8" style="stroke: rgb(131, 65, 135);"></line><text  id="v-2469" font-size="34px" y="0.8em" xml:space="preserve" font-weight="bold" text-anchor="middle" pointer-events="visible" font-family="Open Sans" fill="#000000" transform="matrix(1,0,0,1,200,205)" style="fill: rgb(0, 0, 0);"><tspan id="v-2476"  dy="0em" x="0">Material scientist</tspan></text><text  id="v-2470" font-size="19px" y="0.8em" xml:space="preserve" text-anchor="middle" font-family="Open Sans" fill="#000000" transform="matrix(1,0,0,1,200,247.5)" style="fill: rgb(0, 0, 0);"><tspan id="v-2477"  dy="0em" x="0">[Person]</tspan></text><text  id="v-2471" font-size="24px" y="0.8em" xml:space="preserve" text-anchor="middle" font-family="Open Sans" fill="#000000" transform="matrix(1,0,0,1,200,295)" style="fill: rgb(0, 0, 0);"><tspan id="v-2478"  dy="0em" x="0">Leverages smartphone facilities</tspan><tspan id="v-2479"  dy="1.2em" x="0">to capture materials properties.</tspan></text><text  id="v-2472" font-weight="bold" text-anchor="middle" font-family="Open Sans" fill="#000000" font-size="24" transform="matrix(1,0,0,1,200,371.2)" display="none" style="fill: rgb(0, 0, 0);"></text><image  id="v-2473"></image></g></g><g id="j_158"    transform="translate(1662,908)" style="" ><g  id="v-2483" style="opacity: 1;"><rect  id="v-2484" rx="10" ry="10" stroke="#c92d39" stroke-width="2" pointer-events="visiblePainted" fill="#c92d39" width="450" height="300" style="fill: rgb(201, 45, 57); stroke: rgb(201, 45, 57);"></rect><rect  id="v-2485" rx="10" ry="10" stroke="#c92d39" stroke-width="0" pointer-events="visiblePainted" fill="#ffd9d9" width="430" height="250" x="10" y="40" style="fill: rgb(255, 217, 217);"></rect><ellipse  id="v-2492" fill="#ffd9d9" cx="20" cy="20" rx="10" ry="10" style="fill: rgb(255, 217, 217);"></ellipse><ellipse  id="v-2493" fill="#ffd9d9" cx="50" cy="20" rx="10" ry="10" style="fill: rgb(255, 217, 217);"></ellipse><ellipse  id="v-2494" fill="#ffd9d9" cx="80" cy="20" rx="10" ry="10" style="fill: rgb(255, 217, 217);"></ellipse><rect  id="v-2486" rx="10" ry="10" stroke="#444444" stroke-width="0" pointer-events="visiblePainted" fill="#ffd9d9" width="340" height="20" x="100" y="10" style="fill: rgb(255, 217, 217);"></rect><text  id="v-2487" font-size="34" y="0.8em" xml:space="preserve" font-weight="bold" text-anchor="middle" pointer-events="visible" font-family="Open Sans" fill="#000000" transform="matrix(1,0,0,1,225,95)" style="fill: rgb(0, 0, 0);"><tspan id="v-2495"  dy="0em" x="0">Web application</tspan></text><text  id="v-2488" font-size="19" y="0.8em" xml:space="preserve" text-anchor="middle" font-family="Open Sans" fill="#000000" transform="matrix(1,0,0,1,225,137.5)" style="fill: rgb(0, 0, 0);"><tspan id="v-2496"  dy="0em" x="0">[Container: Blazor]</tspan></text><text  id="v-2489" font-size="24" y="0.8em" xml:space="preserve" text-anchor="middle" font-family="Open Sans" fill="#000000" transform="matrix(1,0,0,1,225,185)" style="fill: rgb(0, 0, 0);"><tspan id="v-2497"  dy="0em" x="0">Provides limited facilities to upload</tspan><tspan id="v-2498"  dy="1.2em" x="0">constrained pictures set.</tspan></text><text  id="v-2490" font-weight="bold" text-anchor="middle" font-family="Open Sans" fill="#000000" font-size="24" transform="matrix(1,0,0,1,225,270)" y="0.8em" display="none" xml:space="preserve" style="fill: rgb(0, 0, 0);"><tspan id="v-2499"  dy="0em" x="0" style="fill-opacity: 0; stroke-opacity: 0;">-</tspan></text><image  id="v-2491"></image></g></g><g id="j_159"    transform="translate(912,908)" style="" ><g  id="v-2507" style="opacity: 1;"><rect  id="v-2508" rx="20" ry="20" stroke="#c92d39" stroke-width="2" pointer-events="visiblePainted" fill="#c92d39" width="300" height="450" style="fill: rgb(201, 45, 57); stroke: rgb(201, 45, 57);"></rect><rect  id="v-2509" rx="5" ry="5" stroke="#c92d39" stroke-width="0" pointer-events="visiblePainted" fill="#ffd9d9" width="280" height="370" x="10" y="40" style="fill: rgb(255, 217, 217);"></rect><ellipse  id="v-2515" fill="#ffd9d9" cx="150" cy="430" rx="10" ry="10" style="fill: rgb(255, 217, 217);"></ellipse><line  style="stroke-width: 2px; stroke: rgb(255, 217, 217);" id="v-2516" stroke="#ffd9d9" x1="125" y1="20" x2="175" y2="20"></line><text  id="v-2510" font-size="34" y="0.8em" xml:space="preserve" font-weight="bold" text-anchor="middle" pointer-events="visible" font-family="Open Sans" fill="#000000" transform="matrix(1,0,0,1,150,98.8)" style="fill: rgb(0, 0, 0);"><tspan id="v-2517"  dy="0em" x="0">Mobile</tspan><tspan id="v-2518"  dy="1.2em" x="0">application</tspan></text><text  id="v-2511" font-size="19" y="0.8em" xml:space="preserve" text-anchor="middle" font-family="Open Sans" fill="#000000" transform="matrix(1,0,0,1,150,183.8)" style="fill: rgb(0, 0, 0);"><tspan id="v-2519"  dy="0em" x="0">[Container: Xamarin]</tspan></text><text  id="v-2512" font-size="24" y="0.8em" xml:space="preserve" text-anchor="middle" font-family="Open Sans" fill="#000000" transform="matrix(1,0,0,1,150,231.2)" style="fill: rgb(0, 0, 0);"><tspan id="v-2520"  dy="0em" x="0">Provides uncluttered</tspan><tspan id="v-2521"  dy="1.2em" x="0">interface to ease</tspan><tspan id="v-2522"  dy="1.2em" x="0">pictures shooting,</tspan><tspan id="v-2523"  dy="1.2em" x="0">stiching &amp; uploading.</tspan></text><text  id="v-2513" font-weight="bold" text-anchor="middle" font-family="Open Sans" fill="#000000" font-size="24" transform="matrix(1,0,0,1,150,405)" y="0.8em" xml:space="preserve" display="none" style="fill: rgb(0, 0, 0);"><tspan id="v-2524"  dy="0em" x="0">+</tspan></text><image  id="v-2514"></image></g></g><g id="j_160"   ><path  stroke="#707070" id="v-2542" stroke-width="2" stroke-dasharray="30 30" fill="none" d="M 1388 608 1213 891" style="opacity: 1;"></path><path  fill="black" stroke="black" transform="translate(1388,608) scale(1,1) rotate(-238.20108032226565)"></path><path  fill="#707070" stroke="#707070" id="v-2544" d="M 20 0 L 0 10 L 20 20 z" transform="translate(1193.5009856176857,902.7306069774723) scale(1,1) rotate(-58.20108795166015)" style="opacity: 1;"></path><path  id="v-2543" fill="none" d="M 1388 608 1213 891" style=""></path><title ></title><g ><g  id="v-2530" label-idx="0" cursor="move" transform="translate(1300.5, 749.5)" style="opacity: 1;"><rect id="v-2532" fill="#ffffff" rx="3" ry="3" stroke="#ffffff" stroke-width="20px" pointer-events="none" width="51.7097053527832" height="30.306405067443848" transform="matrix(1,0,0,1,-25.5,-15.1)"></rect><text id="v-2531" font-size="24px" y="0.8em" xml:space="preserve" text-anchor="middle" pointer-events="none" fill="#707070" font-family="Open Sans" font-weight="normal" transform="matrix(1,0,0,1,0,-10.1)"><tspan id="v-2533"  dy="0em" x="0">uses</tspan></text></g><g  id="v-2534" label-idx="1" cursor="move" transform="translate(1300.5, 780.7)" style="opacity: 1;"><rect id="v-2536" fill="#ffffff" rx="3" ry="3" pointer-events="none" width="0" height="0" transform="matrix(1,0,0,1,0,0)"></rect><text id="v-2535" font-size="19px" y="0.8em" display="none" xml:space="preserve" text-anchor="middle" pointer-events="none" fill="#707070" font-family="Open Sans" font-weight="normal" transform="matrix(1,0,0,1,0,0)"><tspan id="v-2537"  dy="0em" x="0" style="fill-opacity: 0; stroke-opacity: 0;">-</tspan></text></g><g  id="v-2538" label-idx="2" cursor="move" transform="translate(1300.5, 804.7)" style="opacity: 1;"><rect id="v-2540" fill="#ffffff" rx="3" ry="3" pointer-events="none"  display="none" width="0" height="0" transform="matrix(1,0,0,1,0,0)"></rect><text id="v-2539" font-size="19px" y="0.8em" display="none" xml:space="preserve" text-anchor="middle" pointer-events="none" fill="#707070" font-family="Open Sans" font-weight="normal"  transform="matrix(1,0,0,1,0,0)"><tspan id="v-2541"  dy="0em" x="0" style="fill-opacity: 0; stroke-opacity: 0;">-</tspan></text></g></g><g  display="none"></g><g  id="v-2546" display="none"><g  id="v-2527"><path  end="source" d="M 26 0 L 0 13 L 26 26 z"></path></g><g  id="v-2528"><path  end="target" d="M 26 0 L 0 13 L 26 26 z"></path></g></g><g  id="v-2545" display="none"><g  id="v-2526" transform="translate(1366.96240234375, 642.0208740234375) "><g  event="remove"><circle r="11"></circle><path transform="scale(.8) translate(-16, -16)" d="M24.778,21.419 19.276,15.917 24.777,10.415 21.949,7.585 16.447,13.087 10.945,7.585 8.117,10.415 13.618,15.917 8.116,21.419 10.946,24.248 16.447,18.746 21.948,24.248z"></path><title>Remove link.</title></g><g  event="link:options"><circle r="11" transform="translate(25)"></circle><path fill="white" transform="scale(.55) translate(29, -16)" d="M31.229,17.736c0.064-0.571,0.104-1.148,0.104-1.736s-0.04-1.166-0.104-1.737l-4.377-1.557c-0.218-0.716-0.504-1.401-0.851-2.05l1.993-4.192c-0.725-0.91-1.549-1.734-2.458-2.459l-4.193,1.994c-0.647-0.347-1.334-0.632-2.049-0.849l-1.558-4.378C17.165,0.708,16.588,0.667,16,0.667s-1.166,0.041-1.737,0.105L12.707,5.15c-0.716,0.217-1.401,0.502-2.05,0.849L6.464,4.005C5.554,4.73,4.73,5.554,4.005,6.464l1.994,4.192c-0.347,0.648-0.632,1.334-0.849,2.05l-4.378,1.557C0.708,14.834,0.667,15.412,0.667,16s0.041,1.165,0.105,1.736l4.378,1.558c0.217,0.715,0.502,1.401,0.849,2.049l-1.994,4.193c0.725,0.909,1.549,1.733,2.459,2.458l4.192-1.993c0.648,0.347,1.334,0.633,2.05,0.851l1.557,4.377c0.571,0.064,1.148,0.104,1.737,0.104c0.588,0,1.165-0.04,1.736-0.104l1.558-4.377c0.715-0.218,1.399-0.504,2.049-0.851l4.193,1.993c0.909-0.725,1.733-1.549,2.458-2.458l-1.993-4.193c0.347-0.647,0.633-1.334,0.851-2.049L31.229,17.736zM16,20.871c-2.69,0-4.872-2.182-4.872-4.871c0-2.69,2.182-4.872,4.872-4.872c2.689,0,4.871,2.182,4.871,4.872C20.871,18.689,18.689,20.871,16,20.871z"></path><title>Link options.</title></g></g></g></g><g id="j_161"   ><path  stroke="#707070" id="v-2564" stroke-width="2" stroke-dasharray="30 30" fill="none" d="M 1627 608 1790 891" style="opacity: 1;"></path><path  fill="black" stroke="black" transform="translate(1627,608) scale(1,1) rotate(60.0293884277344)"></path><path  fill="#707070" stroke="#707070" id="v-2566" d="M 20 0 L 0 10 L 20 20 z" transform="translate(1791.3371361105023,912.9955334972606) scale(1,1) rotate(-119.97061920166016)" style="opacity: 1;"></path><path  id="v-2565" fill="none" d="M 1627 608 1790 891" style=""></path><title ></title><g ><g  id="v-2552" label-idx="0" cursor="move" transform="translate(1708.5, 749.5)" style="opacity: 1;"><rect id="v-2554" fill="#ffffff" rx="3" ry="3" stroke="#ffffff" stroke-width="20px" pointer-events="none" width="51.7097053527832" height="30.306405067443848" transform="matrix(1,0,0,1,-25.5,-15.1)"></rect><text id="v-2553" font-size="24px" y="0.8em" xml:space="preserve" text-anchor="middle" pointer-events="none" fill="#707070" font-family="Open Sans" font-weight="normal" transform="matrix(1,0,0,1,0,-10.1)"><tspan id="v-2555"  dy="0em" x="0">uses</tspan></text></g><g  id="v-2556" label-idx="1" cursor="move" transform="translate(1708.5, 780.7)" style="opacity: 1;"><rect id="v-2558" fill="#ffffff" rx="3" ry="3" pointer-events="none" width="0" height="0" transform="matrix(1,0,0,1,0,0)"></rect><text id="v-2557" font-size="19px" y="0.8em" display="none" xml:space="preserve" text-anchor="middle" pointer-events="none" fill="#707070" font-family="Open Sans" font-weight="normal" transform="matrix(1,0,0,1,0,0)"><tspan id="v-2559"  dy="0em" x="0" style="fill-opacity: 0; stroke-opacity: 0;">-</tspan></text></g><g  id="v-2560" label-idx="2" cursor="move" transform="translate(1708.5, 804.7)" style="opacity: 1;"><rect id="v-2562" fill="#ffffff" rx="3" ry="3" pointer-events="none"  display="none" width="0" height="0" transform="matrix(1,0,0,1,0,0)"></rect><text id="v-2561" font-size="19px" y="0.8em" display="none" xml:space="preserve" text-anchor="middle" pointer-events="none" fill="#707070" font-family="Open Sans" font-weight="normal"  transform="matrix(1,0,0,1,0,0)"><tspan id="v-2563"  dy="0em" x="0" style="fill-opacity: 0; stroke-opacity: 0;">-</tspan></text></g></g><g  display="none"></g><g  id="v-2568" display="none"><g  id="v-2549"><path  end="source" d="M 26 0 L 0 13 L 26 26 z"></path></g><g  id="v-2550"><path  end="target" d="M 26 0 L 0 13 L 26 26 z"></path></g></g><g  id="v-2567" display="none"><g  id="v-2548" transform="translate(1646.964111328125, 642.6616821289062) "><g  event="remove"><circle r="11"></circle><path transform="scale(.8) translate(-16, -16)" d="M24.778,21.419 19.276,15.917 24.777,10.415 21.949,7.585 16.447,13.087 10.945,7.585 8.117,10.415 13.618,15.917 8.116,21.419 10.946,24.248 16.447,18.746 21.948,24.248z"></path><title>Remove link.</title></g><g  event="link:options"><circle r="11" transform="translate(25)"></circle><path fill="white" transform="scale(.55) translate(29, -16)" d="M31.229,17.736c0.064-0.571,0.104-1.148,0.104-1.736s-0.04-1.166-0.104-1.737l-4.377-1.557c-0.218-0.716-0.504-1.401-0.851-2.05l1.993-4.192c-0.725-0.91-1.549-1.734-2.458-2.459l-4.193,1.994c-0.647-0.347-1.334-0.632-2.049-0.849l-1.558-4.378C17.165,0.708,16.588,0.667,16,0.667s-1.166,0.041-1.737,0.105L12.707,5.15c-0.716,0.217-1.401,0.502-2.05,0.849L6.464,4.005C5.554,4.73,4.73,5.554,4.005,6.464l1.994,4.192c-0.347,0.648-0.632,1.334-0.849,2.05l-4.378,1.557C0.708,14.834,0.667,15.412,0.667,16s0.041,1.165,0.105,1.736l4.378,1.558c0.217,0.715,0.502,1.401,0.849,2.049l-1.994,4.193c0.725,0.909,1.549,1.733,2.459,2.458l4.192-1.993c0.648,0.347,1.334,0.633,2.05,0.851l1.557,4.377c0.571,0.064,1.148,0.104,1.737,0.104c0.588,0,1.165-0.04,1.736-0.104l1.558-4.377c0.715-0.218,1.399-0.504,2.049-0.851l4.193,1.993c0.909-0.725,1.733-1.549,2.458-2.458l-1.993-4.193c0.347-0.647,0.633-1.334,0.851-2.049L31.229,17.736zM16,20.871c-2.69,0-4.872-2.182-4.872-4.871c0-2.69,2.182-4.872,4.872-4.872c2.689,0,4.871,2.182,4.871,4.872C20.871,18.689,18.689,20.871,16,20.871z"></path><title>Link options.</title></g></g></g></g></g><defs id="v-4"></defs></svg>