<svg xmlns="http://www.w3.org/2000/svg" xmlns:xlink="http://www.w3.org/1999/xlink" version="1.1" viewBox="0 0 2425 2720" style="background: #ffffff"><g id="v-3"  transform="matrix(1,0,0,1,0,0)"><g id="j_178"    transform="translate(20,2675)"><g id="v-2853"><text  id="v-2854" font-size="22px" y="0.8em" xml:space="preserve" font-weight="normal" text-anchor="start" fill="#aaaaaa" pointer-events="none" font-family="Open Sans" transform="matrix(1,0,0,1,0,0)"><tspan id="v-2855"  dy="0em" x="0">Thursday, January 12, 2023 at 11:22 AM Central European Standard Time</tspan></text></g></g><g id="j_177"    transform="translate(20,2629)"><g id="v-2849"><text  id="v-2850" font-size="36px" y="0.8em" xml:space="preserve" font-weight="normal" text-anchor="start" fill="#000000" pointer-events="none" font-family="Open Sans" transform="matrix(1,0,0,1,0,0)"><tspan id="v-2851"  dy="0em" x="0">[Container] MILA</tspan></text></g></g><g id="j_164"    transform="translate(892,888)" style=""><g id="v-2582"><rect  id="v-2583" width="1240" height="1613" rx="0" ry="0" fill="#ffffff" stroke="#0c7cba" stroke-width="8" stroke-dasharray="20,20" pointer-events="none"></rect><text  id="v-2584" font-size="24px" y="1574" xml:space="preserve" font-weight="normal" fill="#0c7cba" x="10" text-anchor="start" pointer-events="visible" font-family="Open Sans" transform="matrix(1,0,0,1,15,0)"><tspan id="v-2587"  dy="0em" x="0">MILA</tspan></text><text  id="v-2585" font-size="19px" y="1598" xml:space="preserve" font-weight="normal" fill="#0c7cba" x="10" text-anchor="start" pointer-events="visible" font-family="Open Sans" transform="matrix(1,0,0,1,15,0)"><tspan id="v-2588"  dy="0em" x="0">[Software System]</tspan></text><image  id="v-2586" pointer-events="visible"></image></g></g><g id="j_165"    transform="translate(208,1508)" style="" ><g  id="v-2592" style="opacity: 1;"><rect  id="v-2593" rx="1" ry="1" stroke="#666666" stroke-width="8" pointer-events="visiblePainted" fill="#f5f5f5" width="450" height="300" style="fill: rgb(245, 245, 245); stroke: rgb(102, 102, 102);"></rect><text  id="v-2594" font-size="34" y="0.8em" xml:space="preserve" font-weight="bold" text-anchor="middle" pointer-events="visible" font-family="Open Sans" fill="#000000" transform="matrix(1,0,0,1,225,75)" style="fill: rgb(0, 0, 0);"><tspan id="v-2599"  dy="0em" x="0">Icarus</tspan></text><text  id="v-2595" font-size="19" y="0.8em" xml:space="preserve" text-anchor="middle" font-family="Open Sans" fill="#000000" transform="matrix(1,0,0,1,225,117.5)" style="fill: rgb(0, 0, 0);"><tspan id="v-2600"  dy="0em" x="0">[Software System]</tspan></text><text  id="v-2596" font-size="24" y="0.8em" xml:space="preserve" text-anchor="middle" font-family="Open Sans" fill="#000000" transform="matrix(1,0,0,1,225,165)" style="fill: rgb(0, 0, 0);"><tspan id="v-2601"  dy="0em" x="0">Provides powerful facilities to work</tspan><tspan id="v-2602"  dy="1.2em" x="0">with physics materials.</tspan></text><text  id="v-2597" font-weight="bold" text-anchor="middle" font-family="Open Sans" fill="#000000" font-size="24" transform="matrix(1,0,0,1,225,270)" y="0.8em" xml:space="preserve" display="none" style="fill: rgb(0, 0, 0);"><tspan id="v-2603"  dy="0em" x="0">#</tspan></text><image  id="v-2598"></image></g></g><g id="j_166"    transform="translate(1312,208)" style=""><g  id="v-2609" style="opacity: 1;"><rect  x="0" y="160" width="400" height="240" rx="70" id="v-2611" stroke="#834187" stroke-width="8" pointer-events="visiblePainted" fill="#f4d9ff" style="fill: rgb(244, 217, 255); stroke: rgb(131, 65, 135);"></rect><circle  cx="200" cy="88.88888888888889" r="88.88888888888889" id="v-2610" stroke="#834187" stroke-width="8" pointer-events="visiblePainted" fill="#f4d9ff" style="fill: rgb(244, 217, 255); stroke: rgb(131, 65, 135);"></circle><line  x1="80" y1="266.6666666666667" x2="80" y2="400" id="v-2617" stroke="#834187" stroke-width="8" style="stroke: rgb(131, 65, 135);"></line><line  x1="320" y1="266.6666666666667" x2="320" y2="400" id="v-2618" stroke="#834187" stroke-width="8" style="stroke: rgb(131, 65, 135);"></line><text  id="v-2612" font-size="34px" y="0.8em" xml:space="preserve" font-weight="bold" text-anchor="middle" pointer-events="visible" font-family="Open Sans" fill="#000000" transform="matrix(1,0,0,1,200,205)" style="fill: rgb(0, 0, 0);"><tspan id="v-2619"  dy="0em" x="0">Material scientist</tspan></text><text  id="v-2613" font-size="19px" y="0.8em" xml:space="preserve" text-anchor="middle" font-family="Open Sans" fill="#000000" transform="matrix(1,0,0,1,200,247.5)" style="fill: rgb(0, 0, 0);"><tspan id="v-2620"  dy="0em" x="0">[Person]</tspan></text><text  id="v-2614" font-size="24px" y="0.8em" xml:space="preserve" text-anchor="middle" font-family="Open Sans" fill="#000000" transform="matrix(1,0,0,1,200,295)" style="fill: rgb(0, 0, 0);"><tspan id="v-2621"  dy="0em" x="0">Leverages smartphone facilities</tspan><tspan id="v-2622"  dy="1.2em" x="0">to capture materials properties.</tspan></text><text  id="v-2615" font-weight="bold" text-anchor="middle" font-family="Open Sans" fill="#000000" font-size="24" transform="matrix(1,0,0,1,200,371.2)" display="none" style="fill: rgb(0, 0, 0);"></text><image  id="v-2616"></image></g></g><g id="j_167"    transform="translate(1662,908)" style="" ><g  id="v-2626" style="opacity: 1;"><rect  id="v-2627" rx="10" ry="10" stroke="#c92d39" stroke-width="2" pointer-events="visiblePainted" fill="#c92d39" width="450" height="300" style="fill: rgb(201, 45, 57); stroke: rgb(201, 45, 57);"></rect><rect  id="v-2628" rx="10" ry="10" stroke="#c92d39" stroke-width="0" pointer-events="visiblePainted" fill="#ffd9d9" width="430" height="250" x="10" y="40" style="fill: rgb(255, 217, 217);"></rect><ellipse  id="v-2635" fill="#ffd9d9" cx="20" cy="20" rx="10" ry="10" style="fill: rgb(255, 217, 217);"></ellipse><ellipse  id="v-2636" fill="#ffd9d9" cx="50" cy="20" rx="10" ry="10" style="fill: rgb(255, 217, 217);"></ellipse><ellipse  id="v-2637" fill="#ffd9d9" cx="80" cy="20" rx="10" ry="10" style="fill: rgb(255, 217, 217);"></ellipse><rect  id="v-2629" rx="10" ry="10" stroke="#444444" stroke-width="0" pointer-events="visiblePainted" fill="#ffd9d9" width="340" height="20" x="100" y="10" style="fill: rgb(255, 217, 217);"></rect><text  id="v-2630" font-size="34" y="0.8em" xml:space="preserve" font-weight="bold" text-anchor="middle" pointer-events="visible" font-family="Open Sans" fill="#000000" transform="matrix(1,0,0,1,225,95)" style="fill: rgb(0, 0, 0);"><tspan id="v-2638"  dy="0em" x="0">Web application</tspan></text><text  id="v-2631" font-size="19" y="0.8em" xml:space="preserve" text-anchor="middle" font-family="Open Sans" fill="#000000" transform="matrix(1,0,0,1,225,137.5)" style="fill: rgb(0, 0, 0);"><tspan id="v-2639"  dy="0em" x="0">[Container: Blazor]</tspan></text><text  id="v-2632" font-size="24" y="0.8em" xml:space="preserve" text-anchor="middle" font-family="Open Sans" fill="#000000" transform="matrix(1,0,0,1,225,185)" style="fill: rgb(0, 0, 0);"><tspan id="v-2640"  dy="0em" x="0">Provides limited facilities to upload</tspan><tspan id="v-2641"  dy="1.2em" x="0">constrained pictures set.</tspan></text><text  id="v-2633" font-weight="bold" text-anchor="middle" font-family="Open Sans" fill="#000000" font-size="24" transform="matrix(1,0,0,1,225,270)" y="0.8em" display="none" xml:space="preserve" style="fill: rgb(0, 0, 0);"><tspan id="v-2642"  dy="0em" x="0" style="fill-opacity: 0; stroke-opacity: 0;">-</tspan></text><image  id="v-2634"></image></g></g><g id="j_168"    transform="translate(912,908)" style="" ><g  id="v-2650" style="opacity: 1;"><rect  id="v-2651" rx="20" ry="20" stroke="#c92d39" stroke-width="2" pointer-events="visiblePainted" fill="#c92d39" width="300" height="450" style="fill: rgb(201, 45, 57); stroke: rgb(201, 45, 57);"></rect><rect  id="v-2652" rx="5" ry="5" stroke="#c92d39" stroke-width="0" pointer-events="visiblePainted" fill="#ffd9d9" width="280" height="370" x="10" y="40" style="fill: rgb(255, 217, 217);"></rect><ellipse  id="v-2658" fill="#ffd9d9" cx="150" cy="430" rx="10" ry="10" style="fill: rgb(255, 217, 217);"></ellipse><line  style="stroke-width: 2px; stroke: rgb(255, 217, 217);" id="v-2659" stroke="#ffd9d9" x1="125" y1="20" x2="175" y2="20"></line><text  id="v-2653" font-size="34" y="0.8em" xml:space="preserve" font-weight="bold" text-anchor="middle" pointer-events="visible" font-family="Open Sans" fill="#000000" transform="matrix(1,0,0,1,150,98.8)" style="fill: rgb(0, 0, 0);"><tspan id="v-2660"  dy="0em" x="0">Mobile</tspan><tspan id="v-2661"  dy="1.2em" x="0">application</tspan></text><text  id="v-2654" font-size="19" y="0.8em" xml:space="preserve" text-anchor="middle" font-family="Open Sans" fill="#000000" transform="matrix(1,0,0,1,150,183.8)" style="fill: rgb(0, 0, 0);"><tspan id="v-2662"  dy="0em" x="0">[Container: Xamarin]</tspan></text><text  id="v-2655" font-size="24" y="0.8em" xml:space="preserve" text-anchor="middle" font-family="Open Sans" fill="#000000" transform="matrix(1,0,0,1,150,231.2)" style="fill: rgb(0, 0, 0);"><tspan id="v-2663"  dy="0em" x="0">Provides uncluttered</tspan><tspan id="v-2664"  dy="1.2em" x="0">interface to ease</tspan><tspan id="v-2665"  dy="1.2em" x="0">pictures shooting,</tspan><tspan id="v-2666"  dy="1.2em" x="0">stiching &amp; uploading.</tspan></text><text  id="v-2656" font-weight="bold" text-anchor="middle" font-family="Open Sans" fill="#000000" font-size="24" transform="matrix(1,0,0,1,150,405)" y="0.8em" xml:space="preserve" display="none" style="fill: rgb(0, 0, 0);"><tspan id="v-2667"  dy="0em" x="0">+</tspan></text><image  id="v-2657"></image></g></g><g id="j_169"    transform="translate(958,1508)" style="" ><g  id="v-2671" style="opacity: 1;"><rect  id="v-2672" rx="1" ry="1" stroke="#c92d39" stroke-width="8" pointer-events="visiblePainted" fill="#ffd9d9" width="450" height="300" style="fill: rgb(255, 217, 217); stroke: rgb(201, 45, 57);"></rect><text  id="v-2673" font-size="34" y="0.8em" xml:space="preserve" font-weight="bold" text-anchor="middle" pointer-events="visible" font-family="Open Sans" fill="#000000" transform="matrix(1,0,0,1,225,30)" style="fill: rgb(0, 0, 0);"><tspan id="v-2678"  dy="0em" x="0">API application</tspan></text><text  id="v-2674" font-size="19" y="0.8em" xml:space="preserve" text-anchor="middle" font-family="Open Sans" fill="#000000" transform="matrix(1,0,0,1,225,72.5)" style="fill: rgb(0, 0, 0);"><tspan id="v-2679"  dy="0em" x="0">[Container]</tspan></text><text  id="v-2675" font-size="24" y="0.8em" xml:space="preserve" text-anchor="middle" font-family="Open Sans" fill="#000000" transform="matrix(1,0,0,1,225,120)" style="fill: rgb(0, 0, 0);"><tspan id="v-2680"  dy="0em" x="0">Extracts spatially varying</tspan><tspan id="v-2681"  dy="1.2em" x="0">BRDF-Cook-Torrance with normals,</tspan><tspan id="v-2682"  dy="1.2em" x="0">diffuse, roughness &amp; specular maps</tspan><tspan id="v-2683"  dy="1.2em" x="0">from pictures set leveraring deep</tspan><tspan id="v-2684"  dy="1.2em" x="0">neural network.</tspan></text><text  id="v-2676" font-weight="bold" text-anchor="middle" font-family="Open Sans" fill="#000000" font-size="24" transform="matrix(1,0,0,1,225,270)" y="0.8em" display="none" xml:space="preserve" style="fill: rgb(0, 0, 0);"><tspan id="v-2685"  dy="0em" x="0" style="fill-opacity: 0; stroke-opacity: 0;">-</tspan></text><image  id="v-2677"></image></g></g><g id="j_170"    transform="translate(933,2108)" style="" ><g  id="v-2689" style="opacity: 1;"><path  d="M 0,30 a 225,30 0,0,0 450 0 a 225,30 0,0,0 -450 0 l 0,240 a 225,30 0,0,0 450 0 l 0,-240" id="v-2690" stroke="#c92d39" stroke-width="8" pointer-events="visiblePainted" fill="#ffd9d9" style="fill: rgb(255, 217, 217); stroke: rgb(201, 45, 57);"></path><rect  id="v-2691" stroke-width="0" pointer-events="visiblePainted" fill="none" stroke="none" width="450" height="270" x="0" y="30"></rect><text  id="v-2692" font-size="34px" y="0.8em" xml:space="preserve" font-weight="bold" text-anchor="middle" pointer-events="visible" font-family="Open Sans" fill="#000000" transform="matrix(1,0,0,1,225,90)" style="fill: rgb(0, 0, 0);"><tspan id="v-2697"  dy="0em" x="0">Materials store</tspan></text><text  id="v-2693" font-size="19px" y="0.8em" xml:space="preserve" text-anchor="middle" font-family="Open Sans" fill="#000000" transform="matrix(1,0,0,1,225,132.5)" style="fill: rgb(0, 0, 0);"><tspan id="v-2698"  dy="0em" x="0">[Container: MongoDB]</tspan></text><text  id="v-2694" font-size="24px" y="0.8em" xml:space="preserve" text-anchor="middle" font-family="Open Sans" fill="#000000" transform="matrix(1,0,0,1,225,180)" style="fill: rgb(0, 0, 0);"><tspan id="v-2699"  dy="0em" x="0">Stores enriched materials &amp; supplies</tspan><tspan id="v-2700"  dy="1.2em" x="0">powerful queries API.</tspan></text><text  id="v-2695" font-weight="bold" text-anchor="middle" font-family="Open Sans" fill="#000000" font-size="24" transform="matrix(1,0,0,1,225,273)" y="0.8em" display="none" xml:space="preserve" style="fill: rgb(0, 0, 0);"><tspan id="v-2701"  dy="0em" x="0" style="fill-opacity: 0; stroke-opacity: 0;">-</tspan></text><image  id="v-2696"></image></g></g><g id="j_171"   ><path  stroke="#707070" id="v-2721" stroke-width="2" stroke-dasharray="30 30" fill="none" d="M 1711 1208 1374 1495" style="opacity: 1;"></path><path  fill="black" stroke="black" transform="translate(1711,1208) scale(1,1) rotate(-220.44004821777344)"></path><path  fill="#707070" stroke="#707070" id="v-2723" d="M 20 0 L 0 10 L 20 20 z" transform="translate(1352.5134684370216,1500.3890970798286) scale(1,1) rotate(-40.44004821777344)" style="opacity: 1;"></path><path  id="v-2722" fill="none" d="M 1711 1208 1374 1495" style=""></path><title ></title><g ><g  id="v-2709" label-idx="0" cursor="move" transform="translate(1542.5, 1351.5)" style="opacity: 1;"><rect id="v-2711" fill="#ffffff" rx="3" ry="3" stroke="#ffffff" stroke-width="20px" pointer-events="none" width="188.55453491210938" height="30.306405067443848" transform="matrix(1,0,0,1,-93.9,-15.1)"></rect><text id="v-2710" font-size="24px" y="0.8em" xml:space="preserve" text-anchor="middle" pointer-events="none" fill="#707070" font-family="Open Sans" font-weight="normal" transform="matrix(1,0,0,1,0,-10.1)"><tspan id="v-2712"  dy="0em" x="0">makes API call to</tspan></text></g><g  id="v-2713" label-idx="1" cursor="move" transform="translate(1542.5, 1382.7)" style="opacity: 1;"><rect id="v-2715" fill="#ffffff" rx="3" ry="3" pointer-events="none" width="0" height="0" transform="matrix(1,0,0,1,0,0)"></rect><text id="v-2714" font-size="19px" y="0.8em" display="none" xml:space="preserve" text-anchor="middle" pointer-events="none" fill="#707070" font-family="Open Sans" font-weight="normal" transform="matrix(1,0,0,1,0,0)"><tspan id="v-2716"  dy="0em" x="0" style="fill-opacity: 0; stroke-opacity: 0;">-</tspan></text></g><g  id="v-2717" label-idx="2" cursor="move" transform="translate(1542.5, 1406.7)" style="opacity: 1;"><rect id="v-2719" fill="#ffffff" rx="3" ry="3" pointer-events="none"  display="none" width="0" height="0" transform="matrix(1,0,0,1,0,0)"></rect><text id="v-2718" font-size="19px" y="0.8em" display="none" xml:space="preserve" text-anchor="middle" pointer-events="none" fill="#707070" font-family="Open Sans" font-weight="normal"  transform="matrix(1,0,0,1,0,0)"><tspan id="v-2720"  dy="0em" x="0" style="fill-opacity: 0; stroke-opacity: 0;">-</tspan></text></g></g><g  display="none"></g><g  id="v-2725" display="none"><g  id="v-2706"><path  end="source" d="M 26 0 L 0 13 L 26 26 z"></path></g><g  id="v-2707"><path  end="target" d="M 26 0 L 0 13 L 26 26 z"></path></g></g><g  id="v-2724" display="none"><g  id="v-2705" transform="translate(1680.5469970703125, 1233.934814453125) "><g  event="remove"><circle r="11"></circle><path transform="scale(.8) translate(-16, -16)" d="M24.778,21.419 19.276,15.917 24.777,10.415 21.949,7.585 16.447,13.087 10.945,7.585 8.117,10.415 13.618,15.917 8.116,21.419 10.946,24.248 16.447,18.746 21.948,24.248z"></path><title>Remove link.</title></g><g  event="link:options"><circle r="11" transform="translate(25)"></circle><path fill="white" transform="scale(.55) translate(29, -16)" d="M31.229,17.736c0.064-0.571,0.104-1.148,0.104-1.736s-0.04-1.166-0.104-1.737l-4.377-1.557c-0.218-0.716-0.504-1.401-0.851-2.05l1.993-4.192c-0.725-0.91-1.549-1.734-2.458-2.459l-4.193,1.994c-0.647-0.347-1.334-0.632-2.049-0.849l-1.558-4.378C17.165,0.708,16.588,0.667,16,0.667s-1.166,0.041-1.737,0.105L12.707,5.15c-0.716,0.217-1.401,0.502-2.05,0.849L6.464,4.005C5.554,4.73,4.73,5.554,4.005,6.464l1.994,4.192c-0.347,0.648-0.632,1.334-0.849,2.05l-4.378,1.557C0.708,14.834,0.667,15.412,0.667,16s0.041,1.165,0.105,1.736l4.378,1.558c0.217,0.715,0.502,1.401,0.849,2.049l-1.994,4.193c0.725,0.909,1.549,1.733,2.459,2.458l4.192-1.993c0.648,0.347,1.334,0.633,2.05,0.851l1.557,4.377c0.571,0.064,1.148,0.104,1.737,0.104c0.588,0,1.165-0.04,1.736-0.104l1.558-4.377c0.715-0.218,1.399-0.504,2.049-0.851l4.193,1.993c0.909-0.725,1.733-1.549,2.458-2.458l-1.993-4.193c0.347-0.647,0.633-1.334,0.851-2.049L31.229,17.736zM16,20.871c-2.69,0-4.872-2.182-4.872-4.871c0-2.69,2.182-4.872,4.872-4.872c2.689,0,4.871,2.182,4.871,4.872C20.871,18.689,18.689,20.871,16,20.871z"></path><title>Link options.</title></g></g></g></g><g id="j_172"   ><path  stroke="#707070" id="v-2746" stroke-width="2" stroke-dasharray="30 30" fill="none" d="M 614 1808 962 2095" style="opacity: 1;"></path><path  fill="black" stroke="black" transform="translate(614,1808) scale(1,1) rotate(39.5718994140625)"></path><path  fill="#707070" stroke="#707070" id="v-2748" d="M 20 0 L 0 10 L 20 20 z" transform="translate(970.6295456132303,2115.708356570585) scale(1,1) rotate(-140.4281005859375)" style="opacity: 1;"></path><path  id="v-2747" fill="none" d="M 614 1808 962 2095" style=""></path><title ></title><g ><g  id="v-2733" label-idx="0" cursor="move" transform="translate(788, 1951.5)" style="opacity: 1;"><rect id="v-2735" fill="#ffffff" rx="3" ry="3" stroke="#ffffff" stroke-width="20px" pointer-events="none" width="195.26170349121094" height="59.10640525817871" transform="matrix(1,0,0,1,-98.8,-29.5)"></rect><text id="v-2734" font-size="24px" y="0.8em" xml:space="preserve" text-anchor="middle" pointer-events="none" fill="#707070" font-family="Open Sans" font-weight="normal" transform="matrix(1,0,0,1,0,-24.5)"><tspan id="v-2736"  dy="0em" x="0">fetches materials</tspan><tspan id="v-2737"  dy="1.2em" x="0">from</tspan></text></g><g  id="v-2738" label-idx="1" cursor="move" transform="translate(788, 1994.7)" style="opacity: 1;"><rect id="v-2740" fill="#ffffff" rx="3" ry="3" pointer-events="none" width="0" height="0" transform="matrix(1,0,0,1,0,0)"></rect><text id="v-2739" font-size="19px" y="0.8em" display="none" xml:space="preserve" text-anchor="middle" pointer-events="none" fill="#707070" font-family="Open Sans" font-weight="normal" transform="matrix(1,0,0,1,0,0)"><tspan id="v-2741"  dy="0em" x="0" style="fill-opacity: 0; stroke-opacity: 0;">-</tspan></text></g><g  id="v-2742" label-idx="2" cursor="move" transform="translate(788, 2018.7)" style="opacity: 1;"><rect id="v-2744" fill="#ffffff" rx="3" ry="3" pointer-events="none"  display="none" width="0" height="0" transform="matrix(1,0,0,1,0,0)"></rect><text id="v-2743" font-size="19px" y="0.8em" display="none" xml:space="preserve" text-anchor="middle" pointer-events="none" fill="#707070" font-family="Open Sans" font-weight="normal"  transform="matrix(1,0,0,1,0,0)"><tspan id="v-2745"  dy="0em" x="0" style="fill-opacity: 0; stroke-opacity: 0;">-</tspan></text></g></g><g  display="none"></g><g  id="v-2750" display="none"><g  id="v-2730"><path  end="source" d="M 26 0 L 0 13 L 26 26 z"></path></g><g  id="v-2731"><path  end="target" d="M 26 0 L 0 13 L 26 26 z"></path></g></g><g  id="v-2749" display="none"><g  id="v-2729" transform="translate(644.8592529296875, 1833.4500732421875) "><g  event="remove"><circle r="11"></circle><path transform="scale(.8) translate(-16, -16)" d="M24.778,21.419 19.276,15.917 24.777,10.415 21.949,7.585 16.447,13.087 10.945,7.585 8.117,10.415 13.618,15.917 8.116,21.419 10.946,24.248 16.447,18.746 21.948,24.248z"></path><title>Remove link.</title></g><g  event="link:options"><circle r="11" transform="translate(25)"></circle><path fill="white" transform="scale(.55) translate(29, -16)" d="M31.229,17.736c0.064-0.571,0.104-1.148,0.104-1.736s-0.04-1.166-0.104-1.737l-4.377-1.557c-0.218-0.716-0.504-1.401-0.851-2.05l1.993-4.192c-0.725-0.91-1.549-1.734-2.458-2.459l-4.193,1.994c-0.647-0.347-1.334-0.632-2.049-0.849l-1.558-4.378C17.165,0.708,16.588,0.667,16,0.667s-1.166,0.041-1.737,0.105L12.707,5.15c-0.716,0.217-1.401,0.502-2.05,0.849L6.464,4.005C5.554,4.73,4.73,5.554,4.005,6.464l1.994,4.192c-0.347,0.648-0.632,1.334-0.849,2.05l-4.378,1.557C0.708,14.834,0.667,15.412,0.667,16s0.041,1.165,0.105,1.736l4.378,1.558c0.217,0.715,0.502,1.401,0.849,2.049l-1.994,4.193c0.725,0.909,1.549,1.733,2.459,2.458l4.192-1.993c0.648,0.347,1.334,0.633,2.05,0.851l1.557,4.377c0.571,0.064,1.148,0.104,1.737,0.104c0.588,0,1.165-0.04,1.736-0.104l1.558-4.377c0.715-0.218,1.399-0.504,2.049-0.851l4.193,1.993c0.909-0.725,1.733-1.549,2.458-2.458l-1.993-4.193c0.347-0.647,0.633-1.334,0.851-2.049L31.229,17.736zM16,20.871c-2.69,0-4.872-2.182-4.872-4.871c0-2.69,2.182-4.872,4.872-4.872c2.689,0,4.871,2.182,4.871,4.872C20.871,18.689,18.689,20.871,16,20.871z"></path><title>Link options.</title></g></g></g></g><g id="j_173"   ><path  stroke="#707070" id="v-2768" stroke-width="2" stroke-dasharray="30 30" fill="none" d="M 1388 608 1213 891" style="opacity: 1;"></path><path  fill="black" stroke="black" transform="translate(1388,608) scale(1,1) rotate(-238.20108032226565)"></path><path  fill="#707070" stroke="#707070" id="v-2770" d="M 20 0 L 0 10 L 20 20 z" transform="translate(1193.5009856176857,902.7306069774723) scale(1,1) rotate(-58.20108795166015)" style="opacity: 1;"></path><path  id="v-2769" fill="none" d="M 1388 608 1213 891" style=""></path><title ></title><g ><g  id="v-2756" label-idx="0" cursor="move" transform="translate(1300.5, 749.5)" style="opacity: 1;"><rect id="v-2758" fill="#ffffff" rx="3" ry="3" stroke="#ffffff" stroke-width="20px" pointer-events="none" width="51.7097053527832" height="30.306405067443848" transform="matrix(1,0,0,1,-25.5,-15.1)"></rect><text id="v-2757" font-size="24px" y="0.8em" xml:space="preserve" text-anchor="middle" pointer-events="none" fill="#707070" font-family="Open Sans" font-weight="normal" transform="matrix(1,0,0,1,0,-10.1)"><tspan id="v-2759"  dy="0em" x="0">uses</tspan></text></g><g  id="v-2760" label-idx="1" cursor="move" transform="translate(1300.5, 780.7)" style="opacity: 1;"><rect id="v-2762" fill="#ffffff" rx="3" ry="3" pointer-events="none" width="0" height="0" transform="matrix(1,0,0,1,0,0)"></rect><text id="v-2761" font-size="19px" y="0.8em" display="none" xml:space="preserve" text-anchor="middle" pointer-events="none" fill="#707070" font-family="Open Sans" font-weight="normal" transform="matrix(1,0,0,1,0,0)"><tspan id="v-2763"  dy="0em" x="0" style="fill-opacity: 0; stroke-opacity: 0;">-</tspan></text></g><g  id="v-2764" label-idx="2" cursor="move" transform="translate(1300.5, 804.7)" style="opacity: 1;"><rect id="v-2766" fill="#ffffff" rx="3" ry="3" pointer-events="none"  display="none" width="0" height="0" transform="matrix(1,0,0,1,0,0)"></rect><text id="v-2765" font-size="19px" y="0.8em" display="none" xml:space="preserve" text-anchor="middle" pointer-events="none" fill="#707070" font-family="Open Sans" font-weight="normal"  transform="matrix(1,0,0,1,0,0)"><tspan id="v-2767"  dy="0em" x="0" style="fill-opacity: 0; stroke-opacity: 0;">-</tspan></text></g></g><g  display="none"></g><g  id="v-2772" display="none"><g  id="v-2753"><path  end="source" d="M 26 0 L 0 13 L 26 26 z"></path></g><g  id="v-2754"><path  end="target" d="M 26 0 L 0 13 L 26 26 z"></path></g></g><g  id="v-2771" display="none"><g  id="v-2752" transform="translate(1366.96240234375, 642.0208740234375) "><g  event="remove"><circle r="11"></circle><path transform="scale(.8) translate(-16, -16)" d="M24.778,21.419 19.276,15.917 24.777,10.415 21.949,7.585 16.447,13.087 10.945,7.585 8.117,10.415 13.618,15.917 8.116,21.419 10.946,24.248 16.447,18.746 21.948,24.248z"></path><title>Remove link.</title></g><g  event="link:options"><circle r="11" transform="translate(25)"></circle><path fill="white" transform="scale(.55) translate(29, -16)" d="M31.229,17.736c0.064-0.571,0.104-1.148,0.104-1.736s-0.04-1.166-0.104-1.737l-4.377-1.557c-0.218-0.716-0.504-1.401-0.851-2.05l1.993-4.192c-0.725-0.91-1.549-1.734-2.458-2.459l-4.193,1.994c-0.647-0.347-1.334-0.632-2.049-0.849l-1.558-4.378C17.165,0.708,16.588,0.667,16,0.667s-1.166,0.041-1.737,0.105L12.707,5.15c-0.716,0.217-1.401,0.502-2.05,0.849L6.464,4.005C5.554,4.73,4.73,5.554,4.005,6.464l1.994,4.192c-0.347,0.648-0.632,1.334-0.849,2.05l-4.378,1.557C0.708,14.834,0.667,15.412,0.667,16s0.041,1.165,0.105,1.736l4.378,1.558c0.217,0.715,0.502,1.401,0.849,2.049l-1.994,4.193c0.725,0.909,1.549,1.733,2.459,2.458l4.192-1.993c0.648,0.347,1.334,0.633,2.05,0.851l1.557,4.377c0.571,0.064,1.148,0.104,1.737,0.104c0.588,0,1.165-0.04,1.736-0.104l1.558-4.377c0.715-0.218,1.399-0.504,2.049-0.851l4.193,1.993c0.909-0.725,1.733-1.549,2.458-2.458l-1.993-4.193c0.347-0.647,0.633-1.334,0.851-2.049L31.229,17.736zM16,20.871c-2.69,0-4.872-2.182-4.872-4.871c0-2.69,2.182-4.872,4.872-4.872c2.689,0,4.871,2.182,4.871,4.872C20.871,18.689,18.689,20.871,16,20.871z"></path><title>Link options.</title></g></g></g></g><g id="j_174"   ><path  stroke="#707070" id="v-2790" stroke-width="2" stroke-dasharray="30 30" fill="none" d="M 1627 608 1790 891" style="opacity: 1;"></path><path  fill="black" stroke="black" transform="translate(1627,608) scale(1,1) rotate(60.0293884277344)"></path><path  fill="#707070" stroke="#707070" id="v-2792" d="M 20 0 L 0 10 L 20 20 z" transform="translate(1791.3371361105023,912.9955334972606) scale(1,1) rotate(-119.97061920166016)" style="opacity: 1;"></path><path  id="v-2791" fill="none" d="M 1627 608 1790 891" style=""></path><title ></title><g ><g  id="v-2778" label-idx="0" cursor="move" transform="translate(1708.5, 749.5)" style="opacity: 1;"><rect id="v-2780" fill="#ffffff" rx="3" ry="3" stroke="#ffffff" stroke-width="20px" pointer-events="none" width="51.7097053527832" height="30.306405067443848" transform="matrix(1,0,0,1,-25.5,-15.1)"></rect><text id="v-2779" font-size="24px" y="0.8em" xml:space="preserve" text-anchor="middle" pointer-events="none" fill="#707070" font-family="Open Sans" font-weight="normal" transform="matrix(1,0,0,1,0,-10.1)"><tspan id="v-2781"  dy="0em" x="0">uses</tspan></text></g><g  id="v-2782" label-idx="1" cursor="move" transform="translate(1708.5, 780.7)" style="opacity: 1;"><rect id="v-2784" fill="#ffffff" rx="3" ry="3" pointer-events="none" width="0" height="0" transform="matrix(1,0,0,1,0,0)"></rect><text id="v-2783" font-size="19px" y="0.8em" display="none" xml:space="preserve" text-anchor="middle" pointer-events="none" fill="#707070" font-family="Open Sans" font-weight="normal" transform="matrix(1,0,0,1,0,0)"><tspan id="v-2785"  dy="0em" x="0" style="fill-opacity: 0; stroke-opacity: 0;">-</tspan></text></g><g  id="v-2786" label-idx="2" cursor="move" transform="translate(1708.5, 804.7)" style="opacity: 1;"><rect id="v-2788" fill="#ffffff" rx="3" ry="3" pointer-events="none"  display="none" width="0" height="0" transform="matrix(1,0,0,1,0,0)"></rect><text id="v-2787" font-size="19px" y="0.8em" display="none" xml:space="preserve" text-anchor="middle" pointer-events="none" fill="#707070" font-family="Open Sans" font-weight="normal"  transform="matrix(1,0,0,1,0,0)"><tspan id="v-2789"  dy="0em" x="0" style="fill-opacity: 0; stroke-opacity: 0;">-</tspan></text></g></g><g  display="none"></g><g  id="v-2794" display="none"><g  id="v-2775"><path  end="source" d="M 26 0 L 0 13 L 26 26 z"></path></g><g  id="v-2776"><path  end="target" d="M 26 0 L 0 13 L 26 26 z"></path></g></g><g  id="v-2793" display="none"><g  id="v-2774" transform="translate(1646.964111328125, 642.6616821289062) "><g  event="remove"><circle r="11"></circle><path transform="scale(.8) translate(-16, -16)" d="M24.778,21.419 19.276,15.917 24.777,10.415 21.949,7.585 16.447,13.087 10.945,7.585 8.117,10.415 13.618,15.917 8.116,21.419 10.946,24.248 16.447,18.746 21.948,24.248z"></path><title>Remove link.</title></g><g  event="link:options"><circle r="11" transform="translate(25)"></circle><path fill="white" transform="scale(.55) translate(29, -16)" d="M31.229,17.736c0.064-0.571,0.104-1.148,0.104-1.736s-0.04-1.166-0.104-1.737l-4.377-1.557c-0.218-0.716-0.504-1.401-0.851-2.05l1.993-4.192c-0.725-0.91-1.549-1.734-2.458-2.459l-4.193,1.994c-0.647-0.347-1.334-0.632-2.049-0.849l-1.558-4.378C17.165,0.708,16.588,0.667,16,0.667s-1.166,0.041-1.737,0.105L12.707,5.15c-0.716,0.217-1.401,0.502-2.05,0.849L6.464,4.005C5.554,4.73,4.73,5.554,4.005,6.464l1.994,4.192c-0.347,0.648-0.632,1.334-0.849,2.05l-4.378,1.557C0.708,14.834,0.667,15.412,0.667,16s0.041,1.165,0.105,1.736l4.378,1.558c0.217,0.715,0.502,1.401,0.849,2.049l-1.994,4.193c0.725,0.909,1.549,1.733,2.459,2.458l4.192-1.993c0.648,0.347,1.334,0.633,2.05,0.851l1.557,4.377c0.571,0.064,1.148,0.104,1.737,0.104c0.588,0,1.165-0.04,1.736-0.104l1.558-4.377c0.715-0.218,1.399-0.504,2.049-0.851l4.193,1.993c0.909-0.725,1.733-1.549,2.458-2.458l-1.993-4.193c0.347-0.647,0.633-1.334,0.851-2.049L31.229,17.736zM16,20.871c-2.69,0-4.872-2.182-4.872-4.871c0-2.69,2.182-4.872,4.872-4.872c2.689,0,4.871,2.182,4.871,4.872C20.871,18.689,18.689,20.871,16,20.871z"></path><title>Link options.</title></g></g></g></g><g id="j_175"   ><path  stroke="#707070" id="v-2815" stroke-width="2" stroke-dasharray="30 30" fill="none" d="M 1177 1808 1165 2088" style="opacity: 1;"></path><path  fill="black" stroke="black" transform="translate(1177,1808) scale(1,1) rotate(-267.51873779296875)"></path><path  fill="#707070" stroke="#707070" id="v-2817" d="M 20 0 L 0 10 L 20 20 z" transform="translate(1154.0094324644701,2107.566975075264) scale(1,1) rotate(-87.51873779296875)" style="opacity: 1;"></path><path  id="v-2816" fill="none" d="M 1177 1808 1165 2088" style=""></path><title ></title><g ><g  id="v-2802" label-idx="0" cursor="move" transform="translate(1171, 1948)" style="opacity: 1;"><rect id="v-2804" fill="#ffffff" rx="3" ry="3" stroke="#ffffff" stroke-width="20px" pointer-events="none" width="180.16297912597656" height="59.10640525817871" transform="matrix(1,0,0,1,-89.7,-29.5)"></rect><text id="v-2803" font-size="24px" y="0.8em" xml:space="preserve" text-anchor="middle" pointer-events="none" fill="#707070" font-family="Open Sans" font-weight="normal" transform="matrix(1,0,0,1,0,-24.5)"><tspan id="v-2805"  dy="0em" x="0">stores materials</tspan><tspan id="v-2806"  dy="1.2em" x="0">to</tspan></text></g><g  id="v-2807" label-idx="1" cursor="move" transform="translate(1171, 1991.2)" style="opacity: 1;"><rect id="v-2809" fill="#ffffff" rx="3" ry="3" pointer-events="none" width="0" height="0" transform="matrix(1,0,0,1,0,0)"></rect><text id="v-2808" font-size="19px" y="0.8em" display="none" xml:space="preserve" text-anchor="middle" pointer-events="none" fill="#707070" font-family="Open Sans" font-weight="normal" transform="matrix(1,0,0,1,0,0)"><tspan id="v-2810"  dy="0em" x="0" style="fill-opacity: 0; stroke-opacity: 0;">-</tspan></text></g><g  id="v-2811" label-idx="2" cursor="move" transform="translate(1171, 2015.2)" style="opacity: 1;"><rect id="v-2813" fill="#ffffff" rx="3" ry="3" pointer-events="none"  display="none" width="0" height="0" transform="matrix(1,0,0,1,0,0)"></rect><text id="v-2812" font-size="19px" y="0.8em" display="none" xml:space="preserve" text-anchor="middle" pointer-events="none" fill="#707070" font-family="Open Sans" font-weight="normal"  transform="matrix(1,0,0,1,0,0)"><tspan id="v-2814"  dy="0em" x="0" style="fill-opacity: 0; stroke-opacity: 0;">-</tspan></text></g></g><g  display="none"></g><g  id="v-2819" display="none"><g  id="v-2799"><path  end="source" d="M 26 0 L 0 13 L 26 26 z"></path></g><g  id="v-2800"><path  end="target" d="M 26 0 L 0 13 L 26 26 z"></path></g></g><g  id="v-2818" display="none"><g  id="v-2798" transform="translate(1175.287353515625, 1847.96337890625) "><g  event="remove"><circle r="11"></circle><path transform="scale(.8) translate(-16, -16)" d="M24.778,21.419 19.276,15.917 24.777,10.415 21.949,7.585 16.447,13.087 10.945,7.585 8.117,10.415 13.618,15.917 8.116,21.419 10.946,24.248 16.447,18.746 21.948,24.248z"></path><title>Remove link.</title></g><g  event="link:options"><circle r="11" transform="translate(25)"></circle><path fill="white" transform="scale(.55) translate(29, -16)" d="M31.229,17.736c0.064-0.571,0.104-1.148,0.104-1.736s-0.04-1.166-0.104-1.737l-4.377-1.557c-0.218-0.716-0.504-1.401-0.851-2.05l1.993-4.192c-0.725-0.91-1.549-1.734-2.458-2.459l-4.193,1.994c-0.647-0.347-1.334-0.632-2.049-0.849l-1.558-4.378C17.165,0.708,16.588,0.667,16,0.667s-1.166,0.041-1.737,0.105L12.707,5.15c-0.716,0.217-1.401,0.502-2.05,0.849L6.464,4.005C5.554,4.73,4.73,5.554,4.005,6.464l1.994,4.192c-0.347,0.648-0.632,1.334-0.849,2.05l-4.378,1.557C0.708,14.834,0.667,15.412,0.667,16s0.041,1.165,0.105,1.736l4.378,1.558c0.217,0.715,0.502,1.401,0.849,2.049l-1.994,4.193c0.725,0.909,1.549,1.733,2.459,2.458l4.192-1.993c0.648,0.347,1.334,0.633,2.05,0.851l1.557,4.377c0.571,0.064,1.148,0.104,1.737,0.104c0.588,0,1.165-0.04,1.736-0.104l1.558-4.377c0.715-0.218,1.399-0.504,2.049-0.851l4.193,1.993c0.909-0.725,1.733-1.549,2.458-2.458l-1.993-4.193c0.347-0.647,0.633-1.334,0.851-2.049L31.229,17.736zM16,20.871c-2.69,0-4.872-2.182-4.872-4.871c0-2.69,2.182-4.872,4.872-4.872c2.689,0,4.871,2.182,4.871,4.872C20.871,18.689,18.689,20.871,16,20.871z"></path><title>Link options.</title></g></g></g></g><g id="j_176"   ><path  stroke="#707070" id="v-2839" stroke-width="2" stroke-dasharray="30 30" fill="none" d="M 1114 1358 1144 1489" style="opacity: 1;"></path><path  fill="black" stroke="black" transform="translate(1114,1358) scale(1,1) rotate(76.865966796875)"></path><path  fill="#707070" stroke="#707070" id="v-2841" d="M 20 0 L 0 10 L 20 20 z" transform="translate(1139.2615458763785,1510.2723053589305) scale(1,1) rotate(-103.13402557373047)" style="opacity: 1;"></path><path  id="v-2840" fill="none" d="M 1114 1358 1144 1489" style=""></path><title ></title><g ><g  id="v-2827" label-idx="0" cursor="move" transform="translate(1129, 1423.5)" style="opacity: 1;"><rect id="v-2829" fill="#ffffff" rx="3" ry="3" stroke="#ffffff" stroke-width="20px" pointer-events="none" width="188.55453491210938" height="30.306405067443848" transform="matrix(1,0,0,1,-93.9,-15.1)"></rect><text id="v-2828" font-size="24px" y="0.8em" xml:space="preserve" text-anchor="middle" pointer-events="none" fill="#707070" font-family="Open Sans" font-weight="normal" transform="matrix(1,0,0,1,0,-10.1)"><tspan id="v-2830"  dy="0em" x="0">makes API call to</tspan></text></g><g  id="v-2831" label-idx="1" cursor="move" transform="translate(1129, 1454.7)" style="opacity: 1;"><rect id="v-2833" fill="#ffffff" rx="3" ry="3" pointer-events="none" width="0" height="0" transform="matrix(1,0,0,1,0,0)"></rect><text id="v-2832" font-size="19px" y="0.8em" display="none" xml:space="preserve" text-anchor="middle" pointer-events="none" fill="#707070" font-family="Open Sans" font-weight="normal" transform="matrix(1,0,0,1,0,0)"><tspan id="v-2834"  dy="0em" x="0" style="fill-opacity: 0; stroke-opacity: 0;">-</tspan></text></g><g  id="v-2835" label-idx="2" cursor="move" transform="translate(1129, 1478.7)" style="opacity: 1;"><rect id="v-2837" fill="#ffffff" rx="3" ry="3" pointer-events="none"  display="none" width="0" height="0" transform="matrix(1,0,0,1,0,0)"></rect><text id="v-2836" font-size="19px" y="0.8em" display="none" xml:space="preserve" text-anchor="middle" pointer-events="none" fill="#707070" font-family="Open Sans" font-weight="normal"  transform="matrix(1,0,0,1,0,0)"><tspan id="v-2838"  dy="0em" x="0" style="fill-opacity: 0; stroke-opacity: 0;">-</tspan></text></g></g><g  display="none"></g><g  id="v-2843" display="none"><g  id="v-2824"><path  end="source" d="M 26 0 L 0 13 L 26 26 z"></path></g><g  id="v-2825"><path  end="target" d="M 26 0 L 0 13 L 26 26 z"></path></g></g><g  id="v-2842" display="none"><g  id="v-2823" transform="translate(1122.92919921875, 1396.9906005859375) "><g  event="remove"><circle r="11"></circle><path transform="scale(.8) translate(-16, -16)" d="M24.778,21.419 19.276,15.917 24.777,10.415 21.949,7.585 16.447,13.087 10.945,7.585 8.117,10.415 13.618,15.917 8.116,21.419 10.946,24.248 16.447,18.746 21.948,24.248z"></path><title>Remove link.</title></g><g  event="link:options"><circle r="11" transform="translate(25)"></circle><path fill="white" transform="scale(.55) translate(29, -16)" d="M31.229,17.736c0.064-0.571,0.104-1.148,0.104-1.736s-0.04-1.166-0.104-1.737l-4.377-1.557c-0.218-0.716-0.504-1.401-0.851-2.05l1.993-4.192c-0.725-0.91-1.549-1.734-2.458-2.459l-4.193,1.994c-0.647-0.347-1.334-0.632-2.049-0.849l-1.558-4.378C17.165,0.708,16.588,0.667,16,0.667s-1.166,0.041-1.737,0.105L12.707,5.15c-0.716,0.217-1.401,0.502-2.05,0.849L6.464,4.005C5.554,4.73,4.73,5.554,4.005,6.464l1.994,4.192c-0.347,0.648-0.632,1.334-0.849,2.05l-4.378,1.557C0.708,14.834,0.667,15.412,0.667,16s0.041,1.165,0.105,1.736l4.378,1.558c0.217,0.715,0.502,1.401,0.849,2.049l-1.994,4.193c0.725,0.909,1.549,1.733,2.459,2.458l4.192-1.993c0.648,0.347,1.334,0.633,2.05,0.851l1.557,4.377c0.571,0.064,1.148,0.104,1.737,0.104c0.588,0,1.165-0.04,1.736-0.104l1.558-4.377c0.715-0.218,1.399-0.504,2.049-0.851l4.193,1.993c0.909-0.725,1.733-1.549,2.458-2.458l-1.993-4.193c0.347-0.647,0.633-1.334,0.851-2.049L31.229,17.736zM16,20.871c-2.69,0-4.872-2.182-4.872-4.871c0-2.69,2.182-4.872,4.872-4.872c2.689,0,4.871,2.182,4.871,4.872C20.871,18.689,18.689,20.871,16,20.871z"></path><title>Link options.</title></g></g></g></g></g><defs id="v-4"></defs></svg>