<svg xmlns="http://www.w3.org/2000/svg" xmlns:xlink="http://www.w3.org/1999/xlink" version="1.1" viewBox="0 0 2425 2720" style="background: #ffffff"><g id="v-3"  transform="matrix(1,0,0,1,0,0)"><g id="j_190"    transform="translate(20,2675)"><g id="v-3062"><text  id="v-3063" font-size="22px" y="0.8em" xml:space="preserve" font-weight="normal" text-anchor="start" fill="#aaaaaa" pointer-events="none" font-family="Open Sans" transform="matrix(1,0,0,1,0,0)"><tspan id="v-3064"  dy="0em" x="0">Thursday, January 12, 2023 at 11:22 AM Central European Standard Time</tspan></text></g></g><g id="j_189"    transform="translate(20,2629)"><g id="v-3058"><text  id="v-3059" font-size="36px" y="0.8em" xml:space="preserve" font-weight="normal" text-anchor="start" fill="#000000" pointer-events="none" font-family="Open Sans" transform="matrix(1,0,0,1,0,0)"><tspan id="v-3060"  dy="0em" x="0">[Container] MILA</tspan></text></g></g><g id="j_179"    transform="translate(892,888)" style=""><g id="v-2857"><rect  id="v-2858" width="536" height="1613" rx="0" ry="0" fill="#ffffff" stroke="#0c7cba" stroke-width="8" stroke-dasharray="20,20" pointer-events="none"></rect><text  id="v-2859" font-size="24px" y="1574" xml:space="preserve" font-weight="normal" fill="#0c7cba" x="10" text-anchor="start" pointer-events="visible" font-family="Open Sans" transform="matrix(1,0,0,1,15,0)"><tspan id="v-2862"  dy="0em" x="0">MILA</tspan></text><text  id="v-2860" font-size="19px" y="1598" xml:space="preserve" font-weight="normal" fill="#0c7cba" x="10" text-anchor="start" pointer-events="visible" font-family="Open Sans" transform="matrix(1,0,0,1,15,0)"><tspan id="v-2863"  dy="0em" x="0">[Software System]</tspan></text><image  id="v-2861" pointer-events="visible"></image></g></g><g id="j_180"    transform="translate(208,1508)" style="" ><g  id="v-2867" style="opacity: 1;"><rect  id="v-2868" rx="1" ry="1" stroke="#666666" stroke-width="8" pointer-events="visiblePainted" fill="#f5f5f5" width="450" height="300" style="fill: rgb(245, 245, 245); stroke: rgb(102, 102, 102);"></rect><text  id="v-2869" font-size="34" y="0.8em" xml:space="preserve" font-weight="bold" text-anchor="middle" pointer-events="visible" font-family="Open Sans" fill="#000000" transform="matrix(1,0,0,1,225,75)" style="fill: rgb(0, 0, 0);"><tspan id="v-2874"  dy="0em" x="0">Icarus</tspan></text><text  id="v-2870" font-size="19" y="0.8em" xml:space="preserve" text-anchor="middle" font-family="Open Sans" fill="#000000" transform="matrix(1,0,0,1,225,117.5)" style="fill: rgb(0, 0, 0);"><tspan id="v-2875"  dy="0em" x="0">[Software System]</tspan></text><text  id="v-2871" font-size="24" y="0.8em" xml:space="preserve" text-anchor="middle" font-family="Open Sans" fill="#000000" transform="matrix(1,0,0,1,225,165)" style="fill: rgb(0, 0, 0);"><tspan id="v-2876"  dy="0em" x="0">Provides powerful facilities to work</tspan><tspan id="v-2877"  dy="1.2em" x="0">with physics materials.</tspan></text><text  id="v-2872" font-weight="bold" text-anchor="middle" font-family="Open Sans" fill="#000000" font-size="24" transform="matrix(1,0,0,1,225,270)" y="0.8em" xml:space="preserve" display="none" style="fill: rgb(0, 0, 0);"><tspan id="v-2878"  dy="0em" x="0">#</tspan></text><image  id="v-2873"></image></g></g><g id="j_181"    transform="translate(1312,208)" style=""><g  id="v-2884" style="opacity: 1;"><rect  x="0" y="160" width="400" height="240" rx="70" id="v-2886" stroke="#834187" stroke-width="8" pointer-events="visiblePainted" fill="#f4d9ff" style="fill: rgb(244, 217, 255); stroke: rgb(131, 65, 135);"></rect><circle  cx="200" cy="88.88888888888889" r="88.88888888888889" id="v-2885" stroke="#834187" stroke-width="8" pointer-events="visiblePainted" fill="#f4d9ff" style="fill: rgb(244, 217, 255); stroke: rgb(131, 65, 135);"></circle><line  x1="80" y1="266.6666666666667" x2="80" y2="400" id="v-2892" stroke="#834187" stroke-width="8" style="stroke: rgb(131, 65, 135);"></line><line  x1="320" y1="266.6666666666667" x2="320" y2="400" id="v-2893" stroke="#834187" stroke-width="8" style="stroke: rgb(131, 65, 135);"></line><text  id="v-2887" font-size="34px" y="0.8em" xml:space="preserve" font-weight="bold" text-anchor="middle" pointer-events="visible" font-family="Open Sans" fill="#000000" transform="matrix(1,0,0,1,200,205)" style="fill: rgb(0, 0, 0);"><tspan id="v-2894"  dy="0em" x="0">Material scientist</tspan></text><text  id="v-2888" font-size="19px" y="0.8em" xml:space="preserve" text-anchor="middle" font-family="Open Sans" fill="#000000" transform="matrix(1,0,0,1,200,247.5)" style="fill: rgb(0, 0, 0);"><tspan id="v-2895"  dy="0em" x="0">[Person]</tspan></text><text  id="v-2889" font-size="24px" y="0.8em" xml:space="preserve" text-anchor="middle" font-family="Open Sans" fill="#000000" transform="matrix(1,0,0,1,200,295)" style="fill: rgb(0, 0, 0);"><tspan id="v-2896"  dy="0em" x="0">Leverages smartphone facilities</tspan><tspan id="v-2897"  dy="1.2em" x="0">to capture materials properties.</tspan></text><text  id="v-2890" font-weight="bold" text-anchor="middle" font-family="Open Sans" fill="#000000" font-size="24" transform="matrix(1,0,0,1,200,371.2)" display="none" style="fill: rgb(0, 0, 0);"></text><image  id="v-2891"></image></g></g><g id="j_182"    transform="translate(912,908)" style="" ><g  id="v-2905" style="opacity: 1;"><rect  id="v-2906" rx="20" ry="20" stroke="#c92d39" stroke-width="2" pointer-events="visiblePainted" fill="#c92d39" width="300" height="450" style="fill: rgb(201, 45, 57); stroke: rgb(201, 45, 57);"></rect><rect  id="v-2907" rx="5" ry="5" stroke="#c92d39" stroke-width="0" pointer-events="visiblePainted" fill="#ffd9d9" width="280" height="370" x="10" y="40" style="fill: rgb(255, 217, 217);"></rect><ellipse  id="v-2913" fill="#ffd9d9" cx="150" cy="430" rx="10" ry="10" style="fill: rgb(255, 217, 217);"></ellipse><line  style="stroke-width: 2px; stroke: rgb(255, 217, 217);" id="v-2914" stroke="#ffd9d9" x1="125" y1="20" x2="175" y2="20"></line><text  id="v-2908" font-size="34" y="0.8em" xml:space="preserve" font-weight="bold" text-anchor="middle" pointer-events="visible" font-family="Open Sans" fill="#000000" transform="matrix(1,0,0,1,150,98.8)" style="fill: rgb(0, 0, 0);"><tspan id="v-2915"  dy="0em" x="0">Mobile</tspan><tspan id="v-2916"  dy="1.2em" x="0">application</tspan></text><text  id="v-2909" font-size="19" y="0.8em" xml:space="preserve" text-anchor="middle" font-family="Open Sans" fill="#000000" transform="matrix(1,0,0,1,150,183.8)" style="fill: rgb(0, 0, 0);"><tspan id="v-2917"  dy="0em" x="0">[Container: Xamarin]</tspan></text><text  id="v-2910" font-size="24" y="0.8em" xml:space="preserve" text-anchor="middle" font-family="Open Sans" fill="#000000" transform="matrix(1,0,0,1,150,231.2)" style="fill: rgb(0, 0, 0);"><tspan id="v-2918"  dy="0em" x="0">Provides uncluttered</tspan><tspan id="v-2919"  dy="1.2em" x="0">interface to ease</tspan><tspan id="v-2920"  dy="1.2em" x="0">pictures shooting,</tspan><tspan id="v-2921"  dy="1.2em" x="0">stiching &amp; uploading.</tspan></text><text  id="v-2911" font-weight="bold" text-anchor="middle" font-family="Open Sans" fill="#000000" font-size="24" transform="matrix(1,0,0,1,150,405)" y="0.8em" xml:space="preserve" display="none" style="fill: rgb(0, 0, 0);"><tspan id="v-2922"  dy="0em" x="0">+</tspan></text><image  id="v-2912"></image></g></g><g id="j_183"    transform="translate(958,1508)" style="" ><g  id="v-2926" style="opacity: 1;"><rect  id="v-2927" rx="1" ry="1" stroke="#c92d39" stroke-width="8" pointer-events="visiblePainted" fill="#ffd9d9" width="450" height="300" style="fill: rgb(255, 217, 217); stroke: rgb(201, 45, 57);"></rect><text  id="v-2928" font-size="34" y="0.8em" xml:space="preserve" font-weight="bold" text-anchor="middle" pointer-events="visible" font-family="Open Sans" fill="#000000" transform="matrix(1,0,0,1,225,30)" style="fill: rgb(0, 0, 0);"><tspan id="v-2933"  dy="0em" x="0">API application</tspan></text><text  id="v-2929" font-size="19" y="0.8em" xml:space="preserve" text-anchor="middle" font-family="Open Sans" fill="#000000" transform="matrix(1,0,0,1,225,72.5)" style="fill: rgb(0, 0, 0);"><tspan id="v-2934"  dy="0em" x="0">[Container]</tspan></text><text  id="v-2930" font-size="24" y="0.8em" xml:space="preserve" text-anchor="middle" font-family="Open Sans" fill="#000000" transform="matrix(1,0,0,1,225,120)" style="fill: rgb(0, 0, 0);"><tspan id="v-2935"  dy="0em" x="0">Extracts spatially varying</tspan><tspan id="v-2936"  dy="1.2em" x="0">BRDF-Cook-Torrance with normals,</tspan><tspan id="v-2937"  dy="1.2em" x="0">diffuse, roughness &amp; specular maps</tspan><tspan id="v-2938"  dy="1.2em" x="0">from pictures set leveraring deep</tspan><tspan id="v-2939"  dy="1.2em" x="0">neural network.</tspan></text><text  id="v-2931" font-weight="bold" text-anchor="middle" font-family="Open Sans" fill="#000000" font-size="24" transform="matrix(1,0,0,1,225,270)" y="0.8em" display="none" xml:space="preserve" style="fill: rgb(0, 0, 0);"><tspan id="v-2940"  dy="0em" x="0" style="fill-opacity: 0; stroke-opacity: 0;">-</tspan></text><image  id="v-2932"></image></g></g><g id="j_184"    transform="translate(933,2108)" style="" ><g  id="v-2944" style="opacity: 1;"><path  d="M 0,30 a 225,30 0,0,0 450 0 a 225,30 0,0,0 -450 0 l 0,240 a 225,30 0,0,0 450 0 l 0,-240" id="v-2945" stroke="#c92d39" stroke-width="8" pointer-events="visiblePainted" fill="#ffd9d9" style="fill: rgb(255, 217, 217); stroke: rgb(201, 45, 57);"></path><rect  id="v-2946" stroke-width="0" pointer-events="visiblePainted" fill="none" stroke="none" width="450" height="270" x="0" y="30"></rect><text  id="v-2947" font-size="34px" y="0.8em" xml:space="preserve" font-weight="bold" text-anchor="middle" pointer-events="visible" font-family="Open Sans" fill="#000000" transform="matrix(1,0,0,1,225,90)" style="fill: rgb(0, 0, 0);"><tspan id="v-2952"  dy="0em" x="0">Materials store</tspan></text><text  id="v-2948" font-size="19px" y="0.8em" xml:space="preserve" text-anchor="middle" font-family="Open Sans" fill="#000000" transform="matrix(1,0,0,1,225,132.5)" style="fill: rgb(0, 0, 0);"><tspan id="v-2953"  dy="0em" x="0">[Container: MongoDB]</tspan></text><text  id="v-2949" font-size="24px" y="0.8em" xml:space="preserve" text-anchor="middle" font-family="Open Sans" fill="#000000" transform="matrix(1,0,0,1,225,180)" style="fill: rgb(0, 0, 0);"><tspan id="v-2954"  dy="0em" x="0">Stores enriched materials &amp; supplies</tspan><tspan id="v-2955"  dy="1.2em" x="0">powerful queries API.</tspan></text><text  id="v-2950" font-weight="bold" text-anchor="middle" font-family="Open Sans" fill="#000000" font-size="24" transform="matrix(1,0,0,1,225,273)" y="0.8em" display="none" xml:space="preserve" style="fill: rgb(0, 0, 0);"><tspan id="v-2956"  dy="0em" x="0" style="fill-opacity: 0; stroke-opacity: 0;">-</tspan></text><image  id="v-2951"></image></g></g><g id="j_185"   ><path  stroke="#707070" id="v-2977" stroke-width="2" stroke-dasharray="30 30" fill="none" d="M 614 1808 962 2095" style="opacity: 1;"></path><path  fill="black" stroke="black" transform="translate(614,1808) scale(1,1) rotate(39.5718994140625)"></path><path  fill="#707070" stroke="#707070" id="v-2979" d="M 20 0 L 0 10 L 20 20 z" transform="translate(970.6295456132303,2115.708356570585) scale(1,1) rotate(-140.4281005859375)" style="opacity: 1;"></path><path  id="v-2978" fill="none" d="M 614 1808 962 2095" style=""></path><title ></title><g ><g  id="v-2964" label-idx="0" cursor="move" transform="translate(788, 1951.5)" style="opacity: 1;"><rect id="v-2966" fill="#ffffff" rx="3" ry="3" stroke="#ffffff" stroke-width="20px" pointer-events="none" width="195.26170349121094" height="59.10640525817871" transform="matrix(1,0,0,1,-98.8,-29.5)"></rect><text id="v-2965" font-size="24px" y="0.8em" xml:space="preserve" text-anchor="middle" pointer-events="none" fill="#707070" font-family="Open Sans" font-weight="normal" transform="matrix(1,0,0,1,0,-24.5)"><tspan id="v-2967"  dy="0em" x="0">fetches materials</tspan><tspan id="v-2968"  dy="1.2em" x="0">from</tspan></text></g><g  id="v-2969" label-idx="1" cursor="move" transform="translate(788, 1994.7)" style="opacity: 1;"><rect id="v-2971" fill="#ffffff" rx="3" ry="3" pointer-events="none" width="0" height="0" transform="matrix(1,0,0,1,0,0)"></rect><text id="v-2970" font-size="19px" y="0.8em" display="none" xml:space="preserve" text-anchor="middle" pointer-events="none" fill="#707070" font-family="Open Sans" font-weight="normal" transform="matrix(1,0,0,1,0,0)"><tspan id="v-2972"  dy="0em" x="0" style="fill-opacity: 0; stroke-opacity: 0;">-</tspan></text></g><g  id="v-2973" label-idx="2" cursor="move" transform="translate(788, 2018.7)" style="opacity: 1;"><rect id="v-2975" fill="#ffffff" rx="3" ry="3" pointer-events="none"  display="none" width="0" height="0" transform="matrix(1,0,0,1,0,0)"></rect><text id="v-2974" font-size="19px" y="0.8em" display="none" xml:space="preserve" text-anchor="middle" pointer-events="none" fill="#707070" font-family="Open Sans" font-weight="normal"  transform="matrix(1,0,0,1,0,0)"><tspan id="v-2976"  dy="0em" x="0" style="fill-opacity: 0; stroke-opacity: 0;">-</tspan></text></g></g><g  display="none"></g><g  id="v-2981" display="none"><g  id="v-2961"><path  end="source" d="M 26 0 L 0 13 L 26 26 z"></path></g><g  id="v-2962"><path  end="target" d="M 26 0 L 0 13 L 26 26 z"></path></g></g><g  id="v-2980" display="none"><g  id="v-2960" transform="translate(644.8592529296875, 1833.4500732421875) "><g  event="remove"><circle r="11"></circle><path transform="scale(.8) translate(-16, -16)" d="M24.778,21.419 19.276,15.917 24.777,10.415 21.949,7.585 16.447,13.087 10.945,7.585 8.117,10.415 13.618,15.917 8.116,21.419 10.946,24.248 16.447,18.746 21.948,24.248z"></path><title>Remove link.</title></g><g  event="link:options"><circle r="11" transform="translate(25)"></circle><path fill="white" transform="scale(.55) translate(29, -16)" d="M31.229,17.736c0.064-0.571,0.104-1.148,0.104-1.736s-0.04-1.166-0.104-1.737l-4.377-1.557c-0.218-0.716-0.504-1.401-0.851-2.05l1.993-4.192c-0.725-0.91-1.549-1.734-2.458-2.459l-4.193,1.994c-0.647-0.347-1.334-0.632-2.049-0.849l-1.558-4.378C17.165,0.708,16.588,0.667,16,0.667s-1.166,0.041-1.737,0.105L12.707,5.15c-0.716,0.217-1.401,0.502-2.05,0.849L6.464,4.005C5.554,4.73,4.73,5.554,4.005,6.464l1.994,4.192c-0.347,0.648-0.632,1.334-0.849,2.05l-4.378,1.557C0.708,14.834,0.667,15.412,0.667,16s0.041,1.165,0.105,1.736l4.378,1.558c0.217,0.715,0.502,1.401,0.849,2.049l-1.994,4.193c0.725,0.909,1.549,1.733,2.459,2.458l4.192-1.993c0.648,0.347,1.334,0.633,2.05,0.851l1.557,4.377c0.571,0.064,1.148,0.104,1.737,0.104c0.588,0,1.165-0.04,1.736-0.104l1.558-4.377c0.715-0.218,1.399-0.504,2.049-0.851l4.193,1.993c0.909-0.725,1.733-1.549,2.458-2.458l-1.993-4.193c0.347-0.647,0.633-1.334,0.851-2.049L31.229,17.736zM16,20.871c-2.69,0-4.872-2.182-4.872-4.871c0-2.69,2.182-4.872,4.872-4.872c2.689,0,4.871,2.182,4.871,4.872C20.871,18.689,18.689,20.871,16,20.871z"></path><title>Link options.</title></g></g></g></g><g id="j_186"   ><path  stroke="#707070" id="v-2999" stroke-width="2" stroke-dasharray="30 30" fill="none" d="M 1388 608 1213 891" style="opacity: 1;"></path><path  fill="black" stroke="black" transform="translate(1388,608) scale(1,1) rotate(-238.20108032226565)"></path><path  fill="#707070" stroke="#707070" id="v-3001" d="M 20 0 L 0 10 L 20 20 z" transform="translate(1193.5009856176857,902.7306069774723) scale(1,1) rotate(-58.20108795166015)" style="opacity: 1;"></path><path  id="v-3000" fill="none" d="M 1388 608 1213 891" style=""></path><title ></title><g ><g  id="v-2987" label-idx="0" cursor="move" transform="translate(1300.5, 749.5)" style="opacity: 1;"><rect id="v-2989" fill="#ffffff" rx="3" ry="3" stroke="#ffffff" stroke-width="20px" pointer-events="none" width="51.7097053527832" height="30.306405067443848" transform="matrix(1,0,0,1,-25.5,-15.1)"></rect><text id="v-2988" font-size="24px" y="0.8em" xml:space="preserve" text-anchor="middle" pointer-events="none" fill="#707070" font-family="Open Sans" font-weight="normal" transform="matrix(1,0,0,1,0,-10.1)"><tspan id="v-2990"  dy="0em" x="0">uses</tspan></text></g><g  id="v-2991" label-idx="1" cursor="move" transform="translate(1300.5, 780.7)" style="opacity: 1;"><rect id="v-2993" fill="#ffffff" rx="3" ry="3" pointer-events="none" width="0" height="0" transform="matrix(1,0,0,1,0,0)"></rect><text id="v-2992" font-size="19px" y="0.8em" display="none" xml:space="preserve" text-anchor="middle" pointer-events="none" fill="#707070" font-family="Open Sans" font-weight="normal" transform="matrix(1,0,0,1,0,0)"><tspan id="v-2994"  dy="0em" x="0" style="fill-opacity: 0; stroke-opacity: 0;">-</tspan></text></g><g  id="v-2995" label-idx="2" cursor="move" transform="translate(1300.5, 804.7)" style="opacity: 1;"><rect id="v-2997" fill="#ffffff" rx="3" ry="3" pointer-events="none"  display="none" width="0" height="0" transform="matrix(1,0,0,1,0,0)"></rect><text id="v-2996" font-size="19px" y="0.8em" display="none" xml:space="preserve" text-anchor="middle" pointer-events="none" fill="#707070" font-family="Open Sans" font-weight="normal"  transform="matrix(1,0,0,1,0,0)"><tspan id="v-2998"  dy="0em" x="0" style="fill-opacity: 0; stroke-opacity: 0;">-</tspan></text></g></g><g  display="none"></g><g  id="v-3003" display="none"><g  id="v-2984"><path  end="source" d="M 26 0 L 0 13 L 26 26 z"></path></g><g  id="v-2985"><path  end="target" d="M 26 0 L 0 13 L 26 26 z"></path></g></g><g  id="v-3002" display="none"><g  id="v-2983" transform="translate(1366.96240234375, 642.0208740234375) "><g  event="remove"><circle r="11"></circle><path transform="scale(.8) translate(-16, -16)" d="M24.778,21.419 19.276,15.917 24.777,10.415 21.949,7.585 16.447,13.087 10.945,7.585 8.117,10.415 13.618,15.917 8.116,21.419 10.946,24.248 16.447,18.746 21.948,24.248z"></path><title>Remove link.</title></g><g  event="link:options"><circle r="11" transform="translate(25)"></circle><path fill="white" transform="scale(.55) translate(29, -16)" d="M31.229,17.736c0.064-0.571,0.104-1.148,0.104-1.736s-0.04-1.166-0.104-1.737l-4.377-1.557c-0.218-0.716-0.504-1.401-0.851-2.05l1.993-4.192c-0.725-0.91-1.549-1.734-2.458-2.459l-4.193,1.994c-0.647-0.347-1.334-0.632-2.049-0.849l-1.558-4.378C17.165,0.708,16.588,0.667,16,0.667s-1.166,0.041-1.737,0.105L12.707,5.15c-0.716,0.217-1.401,0.502-2.05,0.849L6.464,4.005C5.554,4.73,4.73,5.554,4.005,6.464l1.994,4.192c-0.347,0.648-0.632,1.334-0.849,2.05l-4.378,1.557C0.708,14.834,0.667,15.412,0.667,16s0.041,1.165,0.105,1.736l4.378,1.558c0.217,0.715,0.502,1.401,0.849,2.049l-1.994,4.193c0.725,0.909,1.549,1.733,2.459,2.458l4.192-1.993c0.648,0.347,1.334,0.633,2.05,0.851l1.557,4.377c0.571,0.064,1.148,0.104,1.737,0.104c0.588,0,1.165-0.04,1.736-0.104l1.558-4.377c0.715-0.218,1.399-0.504,2.049-0.851l4.193,1.993c0.909-0.725,1.733-1.549,2.458-2.458l-1.993-4.193c0.347-0.647,0.633-1.334,0.851-2.049L31.229,17.736zM16,20.871c-2.69,0-4.872-2.182-4.872-4.871c0-2.69,2.182-4.872,4.872-4.872c2.689,0,4.871,2.182,4.871,4.872C20.871,18.689,18.689,20.871,16,20.871z"></path><title>Link options.</title></g></g></g></g><g id="j_187"   ><path  stroke="#707070" id="v-3024" stroke-width="2" stroke-dasharray="30 30" fill="none" d="M 1177 1808 1165 2088" style="opacity: 1;"></path><path  fill="black" stroke="black" transform="translate(1177,1808) scale(1,1) rotate(-267.51873779296875)"></path><path  fill="#707070" stroke="#707070" id="v-3026" d="M 20 0 L 0 10 L 20 20 z" transform="translate(1154.0094324644701,2107.566975075264) scale(1,1) rotate(-87.51873779296875)" style="opacity: 1;"></path><path  id="v-3025" fill="none" d="M 1177 1808 1165 2088" style=""></path><title ></title><g ><g  id="v-3011" label-idx="0" cursor="move" transform="translate(1171, 1948)" style="opacity: 1;"><rect id="v-3013" fill="#ffffff" rx="3" ry="3" stroke="#ffffff" stroke-width="20px" pointer-events="none" width="180.16297912597656" height="59.10640525817871" transform="matrix(1,0,0,1,-89.7,-29.5)"></rect><text id="v-3012" font-size="24px" y="0.8em" xml:space="preserve" text-anchor="middle" pointer-events="none" fill="#707070" font-family="Open Sans" font-weight="normal" transform="matrix(1,0,0,1,0,-24.5)"><tspan id="v-3014"  dy="0em" x="0">stores materials</tspan><tspan id="v-3015"  dy="1.2em" x="0">to</tspan></text></g><g  id="v-3016" label-idx="1" cursor="move" transform="translate(1171, 1991.2)" style="opacity: 1;"><rect id="v-3018" fill="#ffffff" rx="3" ry="3" pointer-events="none" width="0" height="0" transform="matrix(1,0,0,1,0,0)"></rect><text id="v-3017" font-size="19px" y="0.8em" display="none" xml:space="preserve" text-anchor="middle" pointer-events="none" fill="#707070" font-family="Open Sans" font-weight="normal" transform="matrix(1,0,0,1,0,0)"><tspan id="v-3019"  dy="0em" x="0" style="fill-opacity: 0; stroke-opacity: 0;">-</tspan></text></g><g  id="v-3020" label-idx="2" cursor="move" transform="translate(1171, 2015.2)" style="opacity: 1;"><rect id="v-3022" fill="#ffffff" rx="3" ry="3" pointer-events="none"  display="none" width="0" height="0" transform="matrix(1,0,0,1,0,0)"></rect><text id="v-3021" font-size="19px" y="0.8em" display="none" xml:space="preserve" text-anchor="middle" pointer-events="none" fill="#707070" font-family="Open Sans" font-weight="normal"  transform="matrix(1,0,0,1,0,0)"><tspan id="v-3023"  dy="0em" x="0" style="fill-opacity: 0; stroke-opacity: 0;">-</tspan></text></g></g><g  display="none"></g><g  id="v-3028" display="none"><g  id="v-3008"><path  end="source" d="M 26 0 L 0 13 L 26 26 z"></path></g><g  id="v-3009"><path  end="target" d="M 26 0 L 0 13 L 26 26 z"></path></g></g><g  id="v-3027" display="none"><g  id="v-3007" transform="translate(1175.287353515625, 1847.96337890625) "><g  event="remove"><circle r="11"></circle><path transform="scale(.8) translate(-16, -16)" d="M24.778,21.419 19.276,15.917 24.777,10.415 21.949,7.585 16.447,13.087 10.945,7.585 8.117,10.415 13.618,15.917 8.116,21.419 10.946,24.248 16.447,18.746 21.948,24.248z"></path><title>Remove link.</title></g><g  event="link:options"><circle r="11" transform="translate(25)"></circle><path fill="white" transform="scale(.55) translate(29, -16)" d="M31.229,17.736c0.064-0.571,0.104-1.148,0.104-1.736s-0.04-1.166-0.104-1.737l-4.377-1.557c-0.218-0.716-0.504-1.401-0.851-2.05l1.993-4.192c-0.725-0.91-1.549-1.734-2.458-2.459l-4.193,1.994c-0.647-0.347-1.334-0.632-2.049-0.849l-1.558-4.378C17.165,0.708,16.588,0.667,16,0.667s-1.166,0.041-1.737,0.105L12.707,5.15c-0.716,0.217-1.401,0.502-2.05,0.849L6.464,4.005C5.554,4.73,4.73,5.554,4.005,6.464l1.994,4.192c-0.347,0.648-0.632,1.334-0.849,2.05l-4.378,1.557C0.708,14.834,0.667,15.412,0.667,16s0.041,1.165,0.105,1.736l4.378,1.558c0.217,0.715,0.502,1.401,0.849,2.049l-1.994,4.193c0.725,0.909,1.549,1.733,2.459,2.458l4.192-1.993c0.648,0.347,1.334,0.633,2.05,0.851l1.557,4.377c0.571,0.064,1.148,0.104,1.737,0.104c0.588,0,1.165-0.04,1.736-0.104l1.558-4.377c0.715-0.218,1.399-0.504,2.049-0.851l4.193,1.993c0.909-0.725,1.733-1.549,2.458-2.458l-1.993-4.193c0.347-0.647,0.633-1.334,0.851-2.049L31.229,17.736zM16,20.871c-2.69,0-4.872-2.182-4.872-4.871c0-2.69,2.182-4.872,4.872-4.872c2.689,0,4.871,2.182,4.871,4.872C20.871,18.689,18.689,20.871,16,20.871z"></path><title>Link options.</title></g></g></g></g><g id="j_188"   ><path  stroke="#707070" id="v-3048" stroke-width="2" stroke-dasharray="30 30" fill="none" d="M 1114 1358 1144 1489" style="opacity: 1;"></path><path  fill="black" stroke="black" transform="translate(1114,1358) scale(1,1) rotate(76.865966796875)"></path><path  fill="#707070" stroke="#707070" id="v-3050" d="M 20 0 L 0 10 L 20 20 z" transform="translate(1139.2615458763785,1510.2723053589305) scale(1,1) rotate(-103.13402557373047)" style="opacity: 1;"></path><path  id="v-3049" fill="none" d="M 1114 1358 1144 1489" style=""></path><title ></title><g ><g  id="v-3036" label-idx="0" cursor="move" transform="translate(1129, 1423.5)" style="opacity: 1;"><rect id="v-3038" fill="#ffffff" rx="3" ry="3" stroke="#ffffff" stroke-width="20px" pointer-events="none" width="188.55453491210938" height="30.306405067443848" transform="matrix(1,0,0,1,-93.9,-15.1)"></rect><text id="v-3037" font-size="24px" y="0.8em" xml:space="preserve" text-anchor="middle" pointer-events="none" fill="#707070" font-family="Open Sans" font-weight="normal" transform="matrix(1,0,0,1,0,-10.1)"><tspan id="v-3039"  dy="0em" x="0">makes API call to</tspan></text></g><g  id="v-3040" label-idx="1" cursor="move" transform="translate(1129, 1454.7)" style="opacity: 1;"><rect id="v-3042" fill="#ffffff" rx="3" ry="3" pointer-events="none" width="0" height="0" transform="matrix(1,0,0,1,0,0)"></rect><text id="v-3041" font-size="19px" y="0.8em" display="none" xml:space="preserve" text-anchor="middle" pointer-events="none" fill="#707070" font-family="Open Sans" font-weight="normal" transform="matrix(1,0,0,1,0,0)"><tspan id="v-3043"  dy="0em" x="0" style="fill-opacity: 0; stroke-opacity: 0;">-</tspan></text></g><g  id="v-3044" label-idx="2" cursor="move" transform="translate(1129, 1478.7)" style="opacity: 1;"><rect id="v-3046" fill="#ffffff" rx="3" ry="3" pointer-events="none"  display="none" width="0" height="0" transform="matrix(1,0,0,1,0,0)"></rect><text id="v-3045" font-size="19px" y="0.8em" display="none" xml:space="preserve" text-anchor="middle" pointer-events="none" fill="#707070" font-family="Open Sans" font-weight="normal"  transform="matrix(1,0,0,1,0,0)"><tspan id="v-3047"  dy="0em" x="0" style="fill-opacity: 0; stroke-opacity: 0;">-</tspan></text></g></g><g  display="none"></g><g  id="v-3052" display="none"><g  id="v-3033"><path  end="source" d="M 26 0 L 0 13 L 26 26 z"></path></g><g  id="v-3034"><path  end="target" d="M 26 0 L 0 13 L 26 26 z"></path></g></g><g  id="v-3051" display="none"><g  id="v-3032" transform="translate(1122.92919921875, 1396.9906005859375) "><g  event="remove"><circle r="11"></circle><path transform="scale(.8) translate(-16, -16)" d="M24.778,21.419 19.276,15.917 24.777,10.415 21.949,7.585 16.447,13.087 10.945,7.585 8.117,10.415 13.618,15.917 8.116,21.419 10.946,24.248 16.447,18.746 21.948,24.248z"></path><title>Remove link.</title></g><g  event="link:options"><circle r="11" transform="translate(25)"></circle><path fill="white" transform="scale(.55) translate(29, -16)" d="M31.229,17.736c0.064-0.571,0.104-1.148,0.104-1.736s-0.04-1.166-0.104-1.737l-4.377-1.557c-0.218-0.716-0.504-1.401-0.851-2.05l1.993-4.192c-0.725-0.91-1.549-1.734-2.458-2.459l-4.193,1.994c-0.647-0.347-1.334-0.632-2.049-0.849l-1.558-4.378C17.165,0.708,16.588,0.667,16,0.667s-1.166,0.041-1.737,0.105L12.707,5.15c-0.716,0.217-1.401,0.502-2.05,0.849L6.464,4.005C5.554,4.73,4.73,5.554,4.005,6.464l1.994,4.192c-0.347,0.648-0.632,1.334-0.849,2.05l-4.378,1.557C0.708,14.834,0.667,15.412,0.667,16s0.041,1.165,0.105,1.736l4.378,1.558c0.217,0.715,0.502,1.401,0.849,2.049l-1.994,4.193c0.725,0.909,1.549,1.733,2.459,2.458l4.192-1.993c0.648,0.347,1.334,0.633,2.05,0.851l1.557,4.377c0.571,0.064,1.148,0.104,1.737,0.104c0.588,0,1.165-0.04,1.736-0.104l1.558-4.377c0.715-0.218,1.399-0.504,2.049-0.851l4.193,1.993c0.909-0.725,1.733-1.549,2.458-2.458l-1.993-4.193c0.347-0.647,0.633-1.334,0.851-2.049L31.229,17.736zM16,20.871c-2.69,0-4.872-2.182-4.872-4.871c0-2.69,2.182-4.872,4.872-4.872c2.689,0,4.871,2.182,4.871,4.872C20.871,18.689,18.689,20.871,16,20.871z"></path><title>Link options.</title></g></g></g></g></g><defs id="v-4"></defs></svg>