<svg xmlns="http://www.w3.org/2000/svg" xmlns:xlink="http://www.w3.org/1999/xlink" version="1.1" viewBox="0 0 2350 1300" style="background: #ffffff"><defs joint-selector="defs"></defs><g joint-selector="layers"  transform="matrix(1,0,0,1,0,0)"><g ></g><g ><g   id="j_9"  transform="translate(20,1255)"><g id="v-96"><text  id="v-97" font-size="22px" xml:space="preserve" y="0.8em" font-weight="normal" text-anchor="start" fill="#aaaaaa" pointer-events="none" font-family="Open Sans" display="block"><tspan dy="0" >Friday, March 15, 2024 at 12:06 PM Central European Standard Time</tspan></text></g></g><g   id="j_8"  transform="translate(20,1211)"><g id="v-94"><text  id="v-95" font-size="36px" xml:space="preserve" y="0.8em" font-weight="normal" text-anchor="start" fill="#000000" pointer-events="none" font-family="Open Sans" display="block"><tspan dy="0" >[System Landscape]</tspan></text></g></g><g   id="j_1"  transform="translate(949,199)" style=""><g  id="v-6" style="opacity: 1;"><rect  id="v-7" rx="1" ry="1" stroke="#0c7cba" stroke-width="8" pointer-events="visiblePainted" fill="#cfe4ff" width="450" height="300" style="fill: rgb(207, 228, 255); stroke: rgb(12, 124, 186);"></rect><text  id="v-8" font-size="34" xml:space="preserve" y="0.8em" font-weight="bold" text-anchor="middle" pointer-events="visible" font-family="Open Sans" fill="#000000" transform="matrix(1,0,0,1,225,68.1)" style="fill: rgb(0, 0, 0);"><tspan dy="0" >MILA</tspan></text><text  id="v-9" font-size="17" xml:space="preserve" y="0.8em" text-anchor="middle" font-family="Open Sans" fill="#000000" transform="matrix(1,0,0,1,225,110.6)" style="fill: rgb(0, 0, 0);"><tspan dy="0" >[Software System]</tspan></text><text  id="v-10" font-size="24" xml:space="preserve" y="0.8em" text-anchor="middle" font-family="Open Sans" fill="#000000" transform="matrix(1,0,0,1,225,141.9)" style="fill: rgb(0, 0, 0);"><tspan dy="0" >Provides lightweight material</tspan><tspan dy="1.2em" x="0" >acquisition facilities &amp; crafts</tspan><tspan dy="1.2em" x="0" >self-contained material assets.</tspan></text><g  id="v-11" color="#000000" transform="matrix(1,0,0,1,210,241.9)" display="none" style="fill: rgb(0, 0, 0);"><g  transform="translate(5 0)"><svg xmlns="http://www.w3.org/2000/svg" width="20" height="20" fill="currentColor" viewBox="0 0 16 16"><path fill-rule="evenodd" d="M6.5 12a5.5 5.5 0 1 0 0-11 5.5 5.5 0 0 0 0 11zM13 6.5a6.5 6.5 0 1 1-13 0 6.5 6.5 0 0 1 13 0z"></path><path d="M10.344 11.742c.03.04.062.078.098.115l3.85 3.85a1 1 0 0 0 1.415-1.414l-3.85-3.85a1.007 1.007 0 0 0-.115-.1 6.538 6.538 0 0 1-1.398 1.4z"></path><path fill-rule="evenodd" d="M6.5 3a.5.5 0 0 1 .5.5V6h2.5a.5.5 0 0 1 0 1H7v2.5a.5.5 0 0 1-1 0V7H3.5a.5.5 0 0 1 0-1H6V3.5a.5.5 0 0 1 .5-.5z"></path></svg></g><g ></g><g ></g><g ></g></g><image  id="v-12"></image></g></g><g   id="j_2"  transform="translate(199,799)" style=""><g  id="v-16" style="opacity: 1;"><rect  id="v-17" rx="10" ry="10" stroke="#666666" stroke-width="8" pointer-events="visiblePainted" fill="#f5f5f5" x="37.5" width="412.5" height="300" style="fill: rgb(245, 245, 245); stroke: rgb(102, 102, 102);"></rect><rect  id="v-18" rx="5" ry="5" stroke="#666666" stroke-width="8" pointer-events="visiblePainted" fill="#f5f5f5" x="0" y="22.5" width="75" height="37.5" style="fill: rgb(245, 245, 245); stroke: rgb(102, 102, 102);"></rect><rect  id="v-19" rx="5" ry="5" stroke="#666666" stroke-width="8" pointer-events="visiblePainted" fill="#f5f5f5" x="0" y="75" width="75" height="37.5" style="fill: rgb(245, 245, 245); stroke: rgb(102, 102, 102);"></rect><text  id="v-20" font-size="34" xml:space="preserve" y="0.8em" font-weight="bold" text-anchor="middle" pointer-events="visible" font-family="Open Sans" fill="#000000" transform="matrix(1,0,0,1,243.8,78.8)" style="fill: rgb(0, 0, 0);"><tspan dy="0" >Blazor</tspan></text><text  id="v-21" font-size="17" xml:space="preserve" display="none" y="0.8em" text-anchor="middle" font-family="Open Sans" fill="#000000" transform="matrix(1,0,0,1,243.8,121.3)" style="fill: rgb(0, 0, 0);"><tspan dy="0" style="fill-opacity: 0; stroke-opacity: 0;" >-</tspan></text><text  id="v-22" font-size="24" xml:space="preserve" y="0.8em" text-anchor="middle" font-family="Open Sans" fill="#000000" transform="matrix(1,0,0,1,243.8,131.3)" style="fill: rgb(0, 0, 0);"><tspan dy="0" >Use the power of .NET and C# to</tspan><tspan dy="1.2em" x="0" >build full stack web apps without</tspan><tspan dy="1.2em" x="0" >writing a line of JavaScript.</tspan></text><g  id="v-23" font-weight="normal" text-anchor="middle" color="#000000" transform="matrix(1,0,0,1,230,231.3)" display="none" style="fill: rgb(0, 0, 0);"><g ></g><g ></g><g ></g><g  transform="translate(5 0)"><svg xmlns="http://www.w3.org/2000/svg" width="20" height="20" fill="currentColor" viewBox="0 0 16 16"><path d="M6.354 5.5H4a3 3 0 0 0 0 6h3a3 3 0 0 0 2.83-4H9c-.086 0-.17.01-.25.031A2 2 0 0 1 7 10.5H4a2 2 0 1 1 0-4h1.535c.218-.376.495-.714.82-1z"></path><path d="M9 5.5a3 3 0 0 0-2.83 4h1.098A2 2 0 0 1 9 6.5h3a2 2 0 1 1 0 4h-1.535a4.02 4.02 0 0 1-.82 1H12a3 3 0 1 0 0-6H9z"></path></svg></g></g><image  id="v-24"></image></g></g><g   id="j_3"  transform="translate(949,799)" style=""><g  id="v-28" style="opacity: 1;"><rect  id="v-29" rx="10" ry="10" stroke="#666666" stroke-width="8" pointer-events="visiblePainted" fill="#f5f5f5" x="37.5" width="412.5" height="300" style="fill: rgb(245, 245, 245); stroke: rgb(102, 102, 102);"></rect><rect  id="v-30" rx="5" ry="5" stroke="#666666" stroke-width="8" pointer-events="visiblePainted" fill="#f5f5f5" x="0" y="22.5" width="75" height="37.5" style="fill: rgb(245, 245, 245); stroke: rgb(102, 102, 102);"></rect><rect  id="v-31" rx="5" ry="5" stroke="#666666" stroke-width="8" pointer-events="visiblePainted" fill="#f5f5f5" x="0" y="75" width="75" height="37.5" style="fill: rgb(245, 245, 245); stroke: rgb(102, 102, 102);"></rect><text  id="v-32" font-size="34" xml:space="preserve" y="0.8em" font-weight="bold" text-anchor="middle" pointer-events="visible" font-family="Open Sans" fill="#000000" transform="matrix(1,0,0,1,243.8,33.8)" style="fill: rgb(0, 0, 0);"><tspan dy="0" >Mongo DB</tspan></text><text  id="v-33" font-size="17" xml:space="preserve" display="none" y="0.8em" text-anchor="middle" font-family="Open Sans" fill="#000000" transform="matrix(1,0,0,1,243.8,76.3)" style="fill: rgb(0, 0, 0);"><tspan dy="0" style="fill-opacity: 0; stroke-opacity: 0;" >-</tspan></text><text  id="v-34" font-size="24" xml:space="preserve" y="0.8em" text-anchor="middle" font-family="Open Sans" fill="#000000" transform="matrix(1,0,0,1,243.8,86.3)" style="fill: rgb(0, 0, 0);"><tspan dy="0" >Developer data platform that</tspan><tspan dy="1.2em" x="0" >provides the services and tools</tspan><tspan dy="1.2em" x="0" >necessary to build distributed</tspan><tspan dy="1.2em" x="0" >applications fast, at the</tspan><tspan dy="1.2em" x="0" >performance and scale users</tspan><tspan dy="1.2em" x="0" >demand.</tspan></text><g  id="v-35" font-weight="normal" text-anchor="middle" color="#000000" transform="matrix(1,0,0,1,230,276.3)" display="none" style="fill: rgb(0, 0, 0);"><g ></g><g ></g><g ></g><g  transform="translate(5 0)"><svg xmlns="http://www.w3.org/2000/svg" width="20" height="20" fill="currentColor" viewBox="0 0 16 16"><path d="M6.354 5.5H4a3 3 0 0 0 0 6h3a3 3 0 0 0 2.83-4H9c-.086 0-.17.01-.25.031A2 2 0 0 1 7 10.5H4a2 2 0 1 1 0-4h1.535c.218-.376.495-.714.82-1z"></path><path d="M9 5.5a3 3 0 0 0-2.83 4h1.098A2 2 0 0 1 9 6.5h3a2 2 0 1 1 0 4h-1.535a4.02 4.02 0 0 1-.82 1H12a3 3 0 1 0 0-6H9z"></path></svg></g></g><image  id="v-36"></image></g></g><g   id="j_4"  transform="translate(1699,799)" style=""><g  id="v-40" style="opacity: 1;"><rect  id="v-41" rx="10" ry="10" stroke="#666666" stroke-width="8" pointer-events="visiblePainted" fill="#f5f5f5" x="37.5" width="412.5" height="300" style="fill: rgb(245, 245, 245); stroke: rgb(102, 102, 102);"></rect><rect  id="v-42" rx="5" ry="5" stroke="#666666" stroke-width="8" pointer-events="visiblePainted" fill="#f5f5f5" x="0" y="22.5" width="75" height="37.5" style="fill: rgb(245, 245, 245); stroke: rgb(102, 102, 102);"></rect><rect  id="v-43" rx="5" ry="5" stroke="#666666" stroke-width="8" pointer-events="visiblePainted" fill="#f5f5f5" x="0" y="75" width="75" height="37.5" style="fill: rgb(245, 245, 245); stroke: rgb(102, 102, 102);"></rect><text  id="v-44" font-size="34" xml:space="preserve" y="0.8em" font-weight="bold" text-anchor="middle" pointer-events="visible" font-family="Open Sans" fill="#000000" transform="matrix(1,0,0,1,243.8,63.8)" style="fill: rgb(0, 0, 0);"><tspan dy="0" >Xamarin</tspan></text><text  id="v-45" font-size="17" xml:space="preserve" display="none" y="0.8em" text-anchor="middle" font-family="Open Sans" fill="#000000" transform="matrix(1,0,0,1,243.8,106.3)" style="fill: rgb(0, 0, 0);"><tspan dy="0" style="fill-opacity: 0; stroke-opacity: 0;" >-</tspan></text><text  id="v-46" font-size="24" xml:space="preserve" y="0.8em" text-anchor="middle" font-family="Open Sans" fill="#000000" transform="matrix(1,0,0,1,243.8,116.3)" style="fill: rgb(0, 0, 0);"><tspan dy="0" >Free. Cross-platform. Open source.</tspan><tspan dy="1.2em" x="0" >An app platform for building</tspan><tspan dy="1.2em" x="0" >Android and iOS apps with .NET and</tspan><tspan dy="1.2em" x="0" >C#.</tspan></text><g  id="v-47" font-weight="normal" text-anchor="middle" color="#000000" transform="matrix(1,0,0,1,230,246.3)" display="none" style="fill: rgb(0, 0, 0);"><g ></g><g ></g><g ></g><g  transform="translate(5 0)"><svg xmlns="http://www.w3.org/2000/svg" width="20" height="20" fill="currentColor" viewBox="0 0 16 16"><path d="M6.354 5.5H4a3 3 0 0 0 0 6h3a3 3 0 0 0 2.83-4H9c-.086 0-.17.01-.25.031A2 2 0 0 1 7 10.5H4a2 2 0 1 1 0-4h1.535c.218-.376.495-.714.82-1z"></path><path d="M9 5.5a3 3 0 0 0-2.83 4h1.098A2 2 0 0 1 9 6.5h3a2 2 0 1 1 0 4h-1.535a4.02 4.02 0 0 1-.82 1H12a3 3 0 1 0 0-6H9z"></path></svg></g></g><image  id="v-48"></image></g></g><g   id="j_5" ><path  stroke="#707070" d="M 1362 499 L 1737 799" id="v-58" stroke-width="2" stroke-dasharray="30 30" fill="none" style="opacity: 1;"></path><path  fill="black" stroke="black" d="M 0 0 0 0" transform="matrix(0.7808688000832672,0.624695059254128,-0.624695059254128,0.7808688000832672,1361.5,499)"></path><path  fill="#707070" stroke="#707070" d="M 20 0 L 0 10 L 20 20 z" id="v-60" transform="matrix(-0.7808688416748548,-0.6246950072646416,0.6246950072646416,-0.7808688416748548,1730.2530225237897,806.8086902472076)" style="opacity: 1;"></path><path  d="M 1362 499 L 1737 799" id="v-59" fill="none" style="cursor: auto; pointer-events: visiblepainted;"></path><g ><g id="v-52"  label-idx="0" cursor="move" transform="matrix(1,0,0,1,1549.5,649)" style="cursor: default; opacity: 1;"><rect joint-selector="rect" id="v-55" fill="#ffffff" rx="3" ry="3" pointer-events="none" width="106.09217834472656" height="31.847557067871094" transform="matrix(1,0,0,1,-53,-15.9)"></rect><text joint-selector="text" id="v-54" font-size="24px" xml:space="preserve" y="0.8em" fill="#707070" text-anchor="middle" pointer-events="none" font-family="Open Sans" font-weight="normal" transform="matrix(1,0,0,1,0,-9.6)"><tspan dy="0" >leverages</tspan></text></g><g id="v-53"  label-idx="1" cursor="move" transform="matrix(1,0,0,1,1539.5,676)" style="cursor: default; opacity: 1;"><rect joint-selector="rect" id="v-57" fill="#ffffff" rx="3" ry="3"  width="0" height="0" transform="matrix(1,0,0,1,0,0)" display="none"></rect><text joint-selector="text" id="v-56" fill="#000000" font-size="14" text-anchor="middle" pointer-events="none"></text></g></g><g  display="none" style="display: none;"></g><g  id="v-62" display="none"><g  id="v-50"><path  end="source" d="M 26 0 L 0 13 L 26 26 z"></path></g><g  id="v-51"><path  end="target" d="M 26 0 L 0 13 L 26 26 z"></path></g></g><g  id="v-61" display="none"><g  id="v-49" transform="translate(1393.2347523777212, 523.987801902177) "><g  event="remove"><circle r="11"></circle><path transform="scale(.8) translate(-16, -16)" d="M24.778,21.419 19.276,15.917 24.777,10.415 21.949,7.585 16.447,13.087 10.945,7.585 8.117,10.415 13.618,15.917 8.116,21.419 10.946,24.248 16.447,18.746 21.948,24.248z"></path><title>Remove link.</title></g><g  event="link:options"><circle r="11" transform="translate(25)"></circle><path fill="white" transform="scale(.55) translate(29, -16)" d="M31.229,17.736c0.064-0.571,0.104-1.148,0.104-1.736s-0.04-1.166-0.104-1.737l-4.377-1.557c-0.218-0.716-0.504-1.401-0.851-2.05l1.993-4.192c-0.725-0.91-1.549-1.734-2.458-2.459l-4.193,1.994c-0.647-0.347-1.334-0.632-2.049-0.849l-1.558-4.378C17.165,0.708,16.588,0.667,16,0.667s-1.166,0.041-1.737,0.105L12.707,5.15c-0.716,0.217-1.401,0.502-2.05,0.849L6.464,4.005C5.554,4.73,4.73,5.554,4.005,6.464l1.994,4.192c-0.347,0.648-0.632,1.334-0.849,2.05l-4.378,1.557C0.708,14.834,0.667,15.412,0.667,16s0.041,1.165,0.105,1.736l4.378,1.558c0.217,0.715,0.502,1.401,0.849,2.049l-1.994,4.193c0.725,0.909,1.549,1.733,2.459,2.458l4.192-1.993c0.648,0.347,1.334,0.633,2.05,0.851l1.557,4.377c0.571,0.064,1.148,0.104,1.737,0.104c0.588,0,1.165-0.04,1.736-0.104l1.558-4.377c0.715-0.218,1.399-0.504,2.049-0.851l4.193,1.993c0.909-0.725,1.733-1.549,2.458-2.458l-1.993-4.193c0.347-0.647,0.633-1.334,0.851-2.049L31.229,17.736zM16,20.871c-2.69,0-4.872-2.182-4.872-4.871c0-2.69,2.182-4.872,4.872-4.872c2.689,0,4.871,2.182,4.871,4.872C20.871,18.689,18.689,20.871,16,20.871z"></path><title>Link options.</title></g></g></g></g><g   id="j_6" ><path  stroke="#707070" d="M 1174 499 L 1174 799" id="v-72" stroke-width="2" stroke-dasharray="30 30" fill="none" style="opacity: 1;"></path><path  fill="black" stroke="black" d="M 0 0 0 0" transform="matrix(6.123233995736766e-17,1,-1,6.123233995736766e-17,1174,499)"></path><path  fill="#707070" stroke="#707070" d="M 20 0 L 0 10 L 20 20 z" id="v-74" transform="matrix(-1.8369701987210297e-16,-1,1,-1.8369701987210297e-16,1164,799.0000000000001)" style="opacity: 1;"></path><path  d="M 1174 499 L 1174 799" id="v-73" fill="none" style="cursor: auto; pointer-events: visiblepainted;"></path><g ><g id="v-66"  label-idx="0" cursor="move" transform="matrix(1,0,0,1,1174,649)" style="cursor: default; opacity: 1;"><rect joint-selector="rect" id="v-69" fill="#ffffff" rx="3" ry="3" pointer-events="none" width="106.09217834472656" height="31.847557067871094" transform="matrix(1,0,0,1,-53,-15.9)"></rect><text joint-selector="text" id="v-68" font-size="24px" xml:space="preserve" y="0.8em" fill="#707070" text-anchor="middle" pointer-events="none" font-family="Open Sans" font-weight="normal" transform="matrix(1,0,0,1,0,-9.6)"><tspan dy="0" >leverages</tspan></text></g><g id="v-67"  label-idx="1" cursor="move" transform="matrix(1,0,0,1,1164,676)" style="cursor: default; opacity: 1;"><rect joint-selector="rect" id="v-71" fill="#ffffff" rx="3" ry="3"  width="0" height="0" transform="matrix(1,0,0,1,0,0)" display="none"></rect><text joint-selector="text" id="v-70" fill="#000000" font-size="14" text-anchor="middle" pointer-events="none"></text></g></g><g  display="none" style="display: none;"></g><g  id="v-76" display="none"><g  id="v-64"><path  end="source" d="M 26 0 L 0 13 L 26 26 z"></path></g><g  id="v-65"><path  end="target" d="M 26 0 L 0 13 L 26 26 z"></path></g></g><g  id="v-75" display="none"><g  id="v-63" transform="translate(1174, 539) "><g  event="remove"><circle r="11"></circle><path transform="scale(.8) translate(-16, -16)" d="M24.778,21.419 19.276,15.917 24.777,10.415 21.949,7.585 16.447,13.087 10.945,7.585 8.117,10.415 13.618,15.917 8.116,21.419 10.946,24.248 16.447,18.746 21.948,24.248z"></path><title>Remove link.</title></g><g  event="link:options"><circle r="11" transform="translate(25)"></circle><path fill="white" transform="scale(.55) translate(29, -16)" d="M31.229,17.736c0.064-0.571,0.104-1.148,0.104-1.736s-0.04-1.166-0.104-1.737l-4.377-1.557c-0.218-0.716-0.504-1.401-0.851-2.05l1.993-4.192c-0.725-0.91-1.549-1.734-2.458-2.459l-4.193,1.994c-0.647-0.347-1.334-0.632-2.049-0.849l-1.558-4.378C17.165,0.708,16.588,0.667,16,0.667s-1.166,0.041-1.737,0.105L12.707,5.15c-0.716,0.217-1.401,0.502-2.05,0.849L6.464,4.005C5.554,4.73,4.73,5.554,4.005,6.464l1.994,4.192c-0.347,0.648-0.632,1.334-0.849,2.05l-4.378,1.557C0.708,14.834,0.667,15.412,0.667,16s0.041,1.165,0.105,1.736l4.378,1.558c0.217,0.715,0.502,1.401,0.849,2.049l-1.994,4.193c0.725,0.909,1.549,1.733,2.459,2.458l4.192-1.993c0.648,0.347,1.334,0.633,2.05,0.851l1.557,4.377c0.571,0.064,1.148,0.104,1.737,0.104c0.588,0,1.165-0.04,1.736-0.104l1.558-4.377c0.715-0.218,1.399-0.504,2.049-0.851l4.193,1.993c0.909-0.725,1.733-1.549,2.458-2.458l-1.993-4.193c0.347-0.647,0.633-1.334,0.851-2.049L31.229,17.736zM16,20.871c-2.69,0-4.872-2.182-4.872-4.871c0-2.69,2.182-4.872,4.872-4.872c2.689,0,4.871,2.182,4.871,4.872C20.871,18.689,18.689,20.871,16,20.871z"></path><title>Link options.</title></g></g></g></g><g   id="j_7" ><path  stroke="#707070" d="M 987 499 L 612 799" id="v-86" stroke-width="2" stroke-dasharray="30 30" fill="none" style="opacity: 1;"></path><path  fill="black" stroke="black" d="M 0 0 0 0" transform="matrix(-0.7808688416748546,0.6246950072646418,-0.6246950072646418,-0.7808688416748546,986.5,499)"></path><path  fill="#707070" stroke="#707070" d="M 20 0 L 0 10 L 20 20 z" id="v-88" transform="matrix(0.7808686753084834,-0.624695215222571,0.624695215222571,0.7808686753084834,605.2530769150019,791.1913171569533)" style="opacity: 1;"></path><path  d="M 987 499 L 612 799" id="v-87" fill="none" style="cursor: auto; pointer-events: visiblepainted;"></path><g ><g id="v-80"  label-idx="0" cursor="move" transform="matrix(1,0,0,1,799.5,649)" style="cursor: default; opacity: 1;"><rect joint-selector="rect" id="v-83" fill="#ffffff" rx="3" ry="3" pointer-events="none" width="106.09217834472656" height="31.847557067871094" transform="matrix(1,0,0,1,-53,-15.9)"></rect><text joint-selector="text" id="v-82" font-size="24px" xml:space="preserve" y="0.8em" fill="#707070" text-anchor="middle" pointer-events="none" font-family="Open Sans" font-weight="normal" transform="matrix(1,0,0,1,0,-9.6)"><tspan dy="0" >leverages</tspan></text></g><g id="v-81"  label-idx="1" cursor="move" transform="matrix(1,0,0,1,789.5,676)" style="cursor: default; opacity: 1;"><rect joint-selector="rect" id="v-85" fill="#ffffff" rx="3" ry="3"  width="0" height="0" transform="matrix(1,0,0,1,0,0)" display="none"></rect><text joint-selector="text" id="v-84" fill="#000000" font-size="14" text-anchor="middle" pointer-events="none"></text></g></g><g  display="none" style="display: none;"></g><g  id="v-90" display="none"><g  id="v-78"><path  end="source" d="M 26 0 L 0 13 L 26 26 z"></path></g><g  id="v-79"><path  end="target" d="M 26 0 L 0 13 L 26 26 z"></path></g></g><g  id="v-89" display="none"><g  id="v-77" transform="translate(955.7652476222788, 523.987801902177) "><g  event="remove"><circle r="11"></circle><path transform="scale(.8) translate(-16, -16)" d="M24.778,21.419 19.276,15.917 24.777,10.415 21.949,7.585 16.447,13.087 10.945,7.585 8.117,10.415 13.618,15.917 8.116,21.419 10.946,24.248 16.447,18.746 21.948,24.248z"></path><title>Remove link.</title></g><g  event="link:options"><circle r="11" transform="translate(25)"></circle><path fill="white" transform="scale(.55) translate(29, -16)" d="M31.229,17.736c0.064-0.571,0.104-1.148,0.104-1.736s-0.04-1.166-0.104-1.737l-4.377-1.557c-0.218-0.716-0.504-1.401-0.851-2.05l1.993-4.192c-0.725-0.91-1.549-1.734-2.458-2.459l-4.193,1.994c-0.647-0.347-1.334-0.632-2.049-0.849l-1.558-4.378C17.165,0.708,16.588,0.667,16,0.667s-1.166,0.041-1.737,0.105L12.707,5.15c-0.716,0.217-1.401,0.502-2.05,0.849L6.464,4.005C5.554,4.73,4.73,5.554,4.005,6.464l1.994,4.192c-0.347,0.648-0.632,1.334-0.849,2.05l-4.378,1.557C0.708,14.834,0.667,15.412,0.667,16s0.041,1.165,0.105,1.736l4.378,1.558c0.217,0.715,0.502,1.401,0.849,2.049l-1.994,4.193c0.725,0.909,1.549,1.733,2.459,2.458l4.192-1.993c0.648,0.347,1.334,0.633,2.05,0.851l1.557,4.377c0.571,0.064,1.148,0.104,1.737,0.104c0.588,0,1.165-0.04,1.736-0.104l1.558-4.377c0.715-0.218,1.399-0.504,2.049-0.851l4.193,1.993c0.909-0.725,1.733-1.549,2.458-2.458l-1.993-4.193c0.347-0.647,0.633-1.334,0.851-2.049L31.229,17.736zM16,20.871c-2.69,0-4.872-2.182-4.872-4.871c0-2.69,2.182-4.872,4.872-4.872c2.689,0,4.871,2.182,4.871,4.872C20.871,18.689,18.689,20.871,16,20.871z"></path><title>Link options.</title></g></g></g></g></g><g ></g><g ></g><g ></g></g></svg>