<svg xmlns="http://www.w3.org/2000/svg" xmlns:xlink="http://www.w3.org/1999/xlink" xmlns:lucid="lucid" width="1890" height="1660"><g transform="translate(1080 800)" lucid:page-tab-id="ZYjwDAcjnQ5B"><path d="M-220 426c0-3.3 2.7-6 6-6h108c3.3 0 6 2.7 6 6v108c0 3.3-2.7 6-6 6h-108c-3.3 0-6-2.7-6-6zM-220 706c0-3.3 2.7-6 6-6h108c3.3 0 6 2.7 6 6v108c0 3.3-2.7 6-6 6h-108c-3.3 0-6-2.7-6-6z" stroke="#c92d39" stroke-width="3" fill="#ff8f80"/><path d="M-500 426c0-3.3 2.7-6 6-6h108c3.3 0 6 2.7 6 6v108c0 3.3-2.7 6-6 6h-108c-3.3 0-6-2.7-6-6z" stroke="#999" stroke-width="3" fill="#ccc"/><path d="M60 706c0-3.3 2.7-6 6-6h108c3.3 0 6 2.7 6 6v108c0 3.3-2.7 6-6 6H66c-3.3 0-6-2.7-6-6z" stroke="#834187" stroke-width="3" fill="#b391b5"/><path d="M-520 406c0-3.3 2.7-6 6-6h708c3.3 0 6 2.7 6 6v428c0 3.3-2.7 6-6 6h-708c-3.3 0-6-2.7-6-6z" stroke="#83bbe5" stroke-width="3" fill-opacity="0"/><path d="M57.5 722.83h-9.17v-2h9.17zm-18.33 0H20.83v-2h18.34zm-27.5 0H-6.67v-2h18.34zm-36.6 0h-9.24v-2h9.23zm-18.4 0h-18.34v-2h18.34zm-27.5 0H-80v-2h9.17z" stroke="#b2b2b2" stroke-width=".05" fill="#b2b2b2"/><path d="M58.5 722.83h-1.03v-2h1.03z" fill="#b2b2b2"/><path d="M58.52 722.85h-1.07v-2.05h1.07zm-1.02-2v1.95h.98v-1.95z" stroke="#b2b2b2" stroke-width=".05" fill="#b2b2b2"/><path d="M-81 726.46l-14.26-4.63L-81 717.2z" fill="#b2b2b2"/><path d="M-80 727.84l-18.5-6 18.5-6.03zm-12.03-6l10.03 3.24v-6.5z" stroke="#b2b2b2" stroke-width=".05" fill="#b2b2b2"/><use xlink:href="#a" transform="matrix(1,0,0,1,-24.938271604938272,711.1592369310532) translate(0 14.222222222222223)"/><path d="M-120.94 697.5h-2v-9.17h2zm0-18.33h-2v-18.34h2zm0-27.5h-2v-18.34h2zm0-42.34h-2v-3.5h2zm0-12.66h-2v-18.34h2zm0-27.5h-2V560h2z" stroke="#b2b2b2" stroke-width=".05" fill="#b2b2b2"/><path d="M-120.94 698.5h-2v-1.03h2z" fill="#b2b2b2"/><path d="M-120.9 698.52h-2.06v-1.07h2.05zm-2-1.02v.98h1.94v-.98z" stroke="#b2b2b2" stroke-width=".05" fill="#b2b2b2"/><path d="M-117.3 559h-9.27l4.63-14.26z" fill="#b2b2b2"/><path d="M-115.93 560h-12.02l6-18.5zm-9.27-2h6.52l-3.26-10.03z" stroke="#b2b2b2" stroke-width=".05" fill="#b2b2b2"/><use xlink:href="#b" transform="matrix(1,0,0,1,-126.87766554433182,609.3333333333334) translate(0 14.222222222222223)"/><path d="M-222.5 481h-9.17v-2h9.17zm-18.33 0h-18.34v-2h18.34zm-27.5 0h-18.34v-2h18.34zm-36.6 0h-9.24v-2h9.23zm-18.4 0h-18.34v-2h18.34zm-27.5 0H-360v-2h9.17z" stroke="#b2b2b2" stroke-width=".05" fill="#b2b2b2"/><path d="M-221.5 481h-1.03v-2h1.03z" fill="#b2b2b2"/><path d="M-221.47 481.02h-1.08v-2.04h1.08zm-1.03-2v1.96h.97v-1.96z" stroke="#b2b2b2" stroke-width=".05" fill="#b2b2b2"/><path d="M-361 484.64l-14.26-4.64 14.26-4.64z" fill="#b2b2b2"/><path d="M-360 486l-18.5-6 18.5-6zm-12.03-6l10.03 3.26v-6.52z" stroke="#b2b2b2" stroke-width=".05" fill="#b2b2b2"/><use xlink:href="#c" transform="matrix(1,0,0,1,-304.9382716049383,469.3333333333333) translate(0 14.222222222222223)"/><path d="M-199.6 680h-2v-9.17h2zm0-18.33h-2v-18.34h2zm0-27.5h-2v-3.5h2zm0-27.5h-2v-18.34h2zm0-27.5h-2v-18.34h2zm0-27.5h-2v-9.17h2z" stroke="#b2b2b2" stroke-width=".05" fill="#b2b2b2"/><path d="M-199.6 542.53h-2v-1.03h2z" fill="#b2b2b2"/><path d="M-199.58 542.55h-2.05v-1.07h2.05zm-2-1.02v.97h1.95v-.98z" stroke="#b2b2b2" stroke-width=".05" fill="#b2b2b2"/><path d="M-200.6 695.26l-4.64-14.26h9.27z" fill="#b2b2b2"/><path d="M-200.6 698.5l-6.02-18.5h12.03zm-3.26-16.5l3.25 10.03 3.25-10.03z" stroke="#b2b2b2" stroke-width=".05" fill="#b2b2b2"/><use xlink:href="#d" transform="matrix(1,0,0,1,-205.54433221099856,609.3333333333334) translate(0 14.222222222222223)"/><path d="M-88.33 798.93h-9.17v-2h9.17zm27.5 0h-18.34v-2h18.34zm27.5 0h-18.34v-2h18.34zm55 0H3.33v-2h18.34zm18.33 0h-9.17v-2H40zm-45.83 0h-9.23v-2h9.23z" stroke="#b2b2b2" stroke-width=".05" fill="#b2b2b2"/><path d="M-97.47 798.93h-1.03v-2h1.03z" fill="#b2b2b2"/><path d="M-97.45 798.95h-1.08v-2.05h1.08zm-1.02-2v1.95h.97v-1.95z" stroke="#b2b2b2" stroke-width=".05" fill="#b2b2b2"/><path d="M55.26 797.93L41 802.56v-9.27z" fill="#b2b2b2"/><path d="M58.5 797.93l-18.5 6v-12.02zM42 801.2l10.03-3.27L42 794.67z" stroke="#b2b2b2" stroke-width=".05" fill="#b2b2b2"/><use xlink:href="#e" transform="matrix(1,0,0,1,-24.938271604938272,787.2598366917085) translate(0 14.222222222222223)"/><path d="M-1040 426c0-3.3 2.7-6 6-6h108c3.3 0 6 2.7 6 6v108c0 3.3-2.7 6-6 6h-108c-3.3 0-6-2.7-6-6z" stroke="#c92d39" stroke-width="3" fill="#ff8f80"/><path d="M-760 426c0-3.3 2.7-6 6-6h108c3.3 0 6 2.7 6 6v108c0 3.3-2.7 6-6 6h-108c-3.3 0-6-2.7-6-6z" stroke="#834187" stroke-width="3" fill="#b391b5"/><path d="M-762.5 442.83h-9.17v-2h9.17zm-18.33 0h-18.34v-2h18.34zm-27.5 0h-18.34v-2h18.34zm-36.6 0h-9.24v-2h9.23zm-18.4 0h-18.34v-2h18.34zm-27.5 0H-900v-2h9.17z" stroke="#b2b2b2" stroke-width=".05" fill="#b2b2b2"/><path d="M-761.5 442.83h-1.03v-2h1.03z" fill="#b2b2b2"/><path d="M-761.48 442.85h-1.07v-2.05h1.07zm-1.02-2v1.95h.98v-1.95z" stroke="#b2b2b2" stroke-width=".05" fill="#b2b2b2"/><path d="M-901 446.46l-14.26-4.63 14.26-4.64z" fill="#b2b2b2"/><path d="M-900 447.84l-18.5-6 18.5-6.03zm-12.03-6l10.03 3.24v-6.5z" stroke="#b2b2b2" stroke-width=".05" fill="#b2b2b2"/><use xlink:href="#a" transform="matrix(1,0,0,1,-844.9382716049382,431.15923693105316) translate(0 14.222222222222223)"/><path d="M-908.33 518.93h-9.17v-2h9.17zm27.5 0h-18.34v-2h18.34zm27.5 0h-18.34v-2h18.34zm55 0h-18.34v-2h18.34zm18.33 0h-9.17v-2h9.17zm-45.83 0h-9.23v-2h9.23z" stroke="#b2b2b2" stroke-width=".05" fill="#b2b2b2"/><path d="M-917.47 518.93h-1.03v-2h1.03z" fill="#b2b2b2"/><path d="M-917.45 518.95h-1.07v-2.05h1.07zm-1.02-2v1.95h.97v-1.95z" stroke="#b2b2b2" stroke-width=".05" fill="#b2b2b2"/><path d="M-764.74 517.93l-14.26 4.63v-9.27z" fill="#b2b2b2"/><path d="M-761.5 517.93l-18.5 6v-12.02zm-16.5 3.26l10.03-3.27-10.03-3.26z" stroke="#b2b2b2" stroke-width=".05" fill="#b2b2b2"/><use xlink:href="#c" transform="matrix(1,0,0,1,-844.9382716049382,507.2598366917085) translate(0 14.222222222222223)"/><path d="M-1040 706c0-3.3 2.7-6 6-6h108c3.3 0 6 2.7 6 6v108c0 3.3-2.7 6-6 6h-108c-3.3 0-6-2.7-6-6z" stroke="#0c7cba" stroke-width="3" fill="#83bbe5"/><path d="M-978.5 677.88h-3v-15h3zm0-29.97h-3v-17.23h3zm0-44.95h-3v-29.97h3zm0-44.96h-3v-15h3z" stroke="#b2b2b2" stroke-width=".05" fill="#b2b2b2"/><path d="M-978.5 543.04h-3v-1.54h3z" fill="#b2b2b2"/><path d="M-978.48 543.07h-3.04v-1.6h3.04zm-3-1.55v1.5h2.96v-1.5z" stroke="#b2b2b2" stroke-width=".05" fill="#b2b2b2"/><path d="M-980 693.65l-4.64-14.27h9.28z" fill="#b2b2b2"/><path d="M-980 698.5l-6.7-20.62h13.4zm-2.57-17.62l2.57 7.9 2.57-7.9z" stroke="#b2b2b2" stroke-width=".05" fill="#b2b2b2"/><use xlink:href="#b" transform="matrix(1,0,0,1,-984.9382716049382,609.3345108215585) translate(0 14.222222222222223)"/><path d="M-1060 406c0-3.3 2.7-6 6-6h428c3.3 0 6 2.7 6 6v168c0 3.3-2.7 6-6 6h-428c-3.3 0-6-2.7-6-6z" stroke="#83bbe5" stroke-width="3" fill-opacity="0"/><path d="M340-774c0-3.3 2.7-6 6-6h428c3.3 0 6 2.7 6 6v408c0 3.3-2.7 6-6 6H346c-3.3 0-6-2.7-6-6z" stroke="#19967d" stroke-width="2" fill-opacity="0"/><path d="M360-754c0-3.3 2.7-6 6-6h188c3.3 0 6 2.7 6 6v368c0 3.3-2.7 6-6 6H366c-3.3 0-6-2.7-6-6z" stroke="#fcc438" stroke-width="2" fill-opacity="0"/><path d="M380-554c0-3.3 2.7-6 6-6h148c3.3 0 6 2.7 6 6v148c0 3.3-2.7 6-6 6H386c-3.3 0-6-2.7-6-6zM380-734c0-3.3 2.7-6 6-6h148c3.3 0 6 2.7 6 6v148c0 3.3-2.7 6-6 6H386c-3.3 0-6-2.7-6-6z" stroke="#999" stroke-width="2" fill-opacity="0"/><path d="M400-714c0-3.3 2.7-6 6-6h108c3.3 0 6 2.7 6 6v108c0 3.3-2.7 6-6 6H406c-3.3 0-6-2.7-6-6zM400-534c0-3.3 2.7-6 6-6h108c3.3 0 6 2.7 6 6v108c0 3.3-2.7 6-6 6H406c-3.3 0-6-2.7-6-6zM620-714c0-3.3 2.7-6 6-6h108c3.3 0 6 2.7 6 6v108c0 3.3-2.7 6-6 6H626c-3.3 0-6-2.7-6-6z" stroke="#c92d39" stroke-width="3" fill="#ff8f80"/><path d="M600-734c0-3.3 2.7-6 6-6h148c3.3 0 6 2.7 6 6v148c0 3.3-2.7 6-6 6H606c-3.3 0-6-2.7-6-6z" stroke="#999" stroke-width="2" fill-opacity="0"/><path d="M330 26c0-3.3 2.7-6 6-6h448c3.3 0 6 2.7 6 6v388c0 3.3-2.7 6-6 6H336c-3.3 0-6-2.7-6-6z" stroke="#19967d" stroke-width="2" fill-opacity="0"/><path d="M350 46c0-3.3 2.7-6 6-6h408c3.3 0 6 2.7 6 6v188c0 3.3-2.7 6-6 6H356c-3.3 0-6-2.7-6-6z" stroke="#fcc438" stroke-width="2" fill-opacity="0"/><path d="M390 86c0-3.3 2.7-6 6-6h108c3.3 0 6 2.7 6 6v108c0 3.3-2.7 6-6 6H396c-3.3 0-6-2.7-6-6zM390 286c0-3.3 2.7-6 6-6h108c3.3 0 6 2.7 6 6v108c0 3.3-2.7 6-6 6H396c-3.3 0-6-2.7-6-6zM610 86c0-3.3 2.7-6 6-6h108c3.3 0 6 2.7 6 6v108c0 3.3-2.7 6-6 6H616c-3.3 0-6-2.7-6-6z" stroke="#c92d39" stroke-width="3" fill="#ff8f80"/><path d="M590 66c0-3.3 2.7-6 6-6h148c3.3 0 6 2.7 6 6v148c0 3.3-2.7 6-6 6H596c-3.3 0-6-2.7-6-6z" stroke="#999" stroke-width="2" fill-opacity="0"/><path d="M-600-294c0-3.3 2.7-6 6-6h108c3.3 0 6 2.7 6 6v108c0 3.3-2.7 6-6 6h-108c-3.3 0-6-2.7-6-6zM-880-294c0-3.3 2.7-6 6-6h108c3.3 0 6 2.7 6 6v108c0 3.3-2.7 6-6 6h-108c-3.3 0-6-2.7-6-6z" stroke="#999" stroke-width="3" fill="#ccc"/><path d="M-740-294c0-3.3 2.7-6 6-6h108c3.3 0 6 2.7 6 6v108c0 3.3-2.7 6-6 6h-108c-3.3 0-6-2.7-6-6z" stroke="#0c7cba" stroke-width="3" fill="#83bbe5"/><path d="M-600-154c0-3.3 2.7-6 6-6h108c3.3 0 6 2.7 6 6v108c0 3.3-2.7 6-6 6h-108c-3.3 0-6-2.7-6-6z" stroke="#834187" stroke-width="3" fill="#b391b5"/><path d="M-740-154c0-3.3 2.7-6 6-6h108c3.3 0 6 2.7 6 6v108c0 3.3-2.7 6-6 6h-108c-3.3 0-6-2.7-6-6z" stroke="#0c7cba" stroke-width="3" fill="#83bbe5"/><path d="M-340-314c0-3.3 2.7-6 6-6H94c3.3 0 6 2.7 6 6v288c0 3.3-2.7 6-6 6h-428c-3.3 0-6-2.7-6-6z" stroke="#83bbe5" stroke-width="3" fill-opacity="0"/><path d="M103-205.24h30.07m30.06 0h60.14m30.06 0h60.14m30.06 0h60.14m30.06 0h60.14m30.06 0H554l2.12-.88.88-2.12v-43.38m0-43.38v-43.38" stroke="#5abaa7" stroke-width="3" fill="none"/><path d="M103-199.24h30.07m30.06 0h60.14m30.06 0h60.14m30.06 0h60.14m30.06 0h60.14m30.06 0H554l3.14-.56 2.66-1.56 1.97-2.34 1.08-2.92.15-1.62v-43.38m0-43.38v-43.38" stroke="#5abaa7" stroke-width="3" fill="none"/><path d="M103.04-203.74h-1.54v-3h1.54zM103.04-197.74h-1.54v-3h1.54z" stroke="#5abaa7" stroke-width=".05" fill="#5abaa7"/><path d="M560-354.15l4.64 14.27h-9.28z" stroke="#5abaa7" stroke-width="3" fill="#5abaa7"/><path d="M-180-294c0-3.3 2.7-6 6-6h108c3.3 0 6 2.7 6 6v108c0 3.3-2.7 6-6 6h-108c-3.3 0-6-2.7-6-6zM-180-154c0-3.3 2.7-6 6-6h108c3.3 0 6 2.7 6 6v108c0 3.3-2.7 6-6 6h-108c-3.3 0-6-2.7-6-6z" stroke="#c92d39" stroke-width="3" fill="#ff8f80"/><path d="M-320-294c0-3.3 2.7-6 6-6h108c3.3 0 6 2.7 6 6v108c0 3.3-2.7 6-6 6h-108c-3.3 0-6-2.7-6-6z" stroke="#999" stroke-width="3" fill="#ccc"/><path d="M-40-154c0-3.3 2.7-6 6-6H74c3.3 0 6 2.7 6 6v108c0 3.3-2.7 6-6 6H-34c-3.3 0-6-2.7-6-6z" stroke="#834187" stroke-width="3" fill="#b391b5"/><path d="M103-139.72h30.07m30.06 0h60.14m30.06 0h60.14m30.06 0h60.14m30.06 0h60.14m30.06 0H554l3.14.56 2.66 1.56 1.97 2.34 1.08 2.92.15 1.62v43.03m0 43.05v43.03" stroke="#5abaa7" stroke-width="3" fill="none"/><path d="M103-133.72h30.07m30.06 0h60.14m30.06 0h60.14m30.06 0h60.14m30.06 0h60.14m30.06 0H554l2.12.88.88 2.12v43.03m0 43.05v43.03" stroke="#5abaa7" stroke-width="3" fill="none"/><path d="M103.04-138.22h-1.54v-3h1.54zM103.04-132.22h-1.54v-3h1.54z" stroke="#5abaa7" stroke-width=".05" fill="#5abaa7"/><path d="M560 14.15L555.36-.12h9.28z" stroke="#5abaa7" stroke-width="3" fill="#5abaa7"/><path d="M-680-303v-71c0-3.3 2.7-6 6-6h548c3.3 0 6 2.7 6 6v31.88" stroke="#83bbe5" stroke-width="3" fill="none"/><path d="M-678.5-301.5h-3v-1.54h3z" stroke="#83bbe5" stroke-width=".05" fill="#83bbe5"/><path d="M-120-326.35l-4.64-14.27h9.28z" stroke="#83bbe5" stroke-width="3" fill="#83bbe5"/><path d="M53.6-17v15.95m0 15.95v3.2m0 15.95v31.9m0 15.95v3.2m0 15.95v31.9m0 15.95v3.2m0 15.95V184l-.55 3.14-1.56 2.66-2.35 1.97-2.92 1.08-1.62.15H28.86m-15.76 0H9.92m-15.76 0h-31.53m-15.76 0h-3.15m-15.76 0h-31.53m-15.76 0h-3.15m-15.77 0H-154l-2.12.88-.88 2.12v14.43m0 14.44v2.9m0 14.42v28.86m0 14.44v2.88m0 14.44v28.87m0 14.42v2.9m0 14.43v14.43" stroke="#99d2f2" stroke-width="3" fill="none"/><path d="M47.6-17v15.95m0 15.95v3.2m0 15.95v31.9m0 15.95v3.2m0 15.95v31.9m0 15.95v3.2m0 15.95V184l-.87 2.12-2.12.88H28.86m-15.76 0H9.92m-15.76 0h-31.53m-15.76 0h-3.15m-15.76 0h-31.53m-15.76 0h-3.15m-15.77 0H-154l-3.14.56-2.66 1.56-1.97 2.34-1.08 2.92-.15 1.62v14.43m0 14.44v2.9m0 14.42v28.86m0 14.44v2.88m0 14.44v28.87m0 14.42v2.9m0 14.43v14.43" stroke="#99d2f2" stroke-width="3" fill="none"/><path d="M55.1-16.96h-3v-1.54h3zM49.1-16.96h-3v-1.54h3z" stroke="#99d2f2" stroke-width=".05" fill="#99d2f2"/><path d="M-160 393.65l-4.64-14.27h9.28z" stroke="#99d2f2" stroke-width="3" fill="#99d2f2"/><path d="M-835.5 377.88h-3v-14.43h3zm0-28.87h-3v-2.88h3zm0-17.3h-3V302.8h3zm0-43.32h-3v-2.88h3zm0-17.32h-3V242.2h3zm0-43.3h-3v-2.9h3zm16.78-33.26h-14.98l-1.27.53-.53 1.27v14.13h-3V195.7l1.23-2.97 2.97-1.23h15.58zm572.64-10.37l-.63 3.54-1.83 3.1-2.74 2.32-3.36 1.23-1.88.17h-15.36v-3h15.2l1.36-.12 2.5-.92 1.94-1.64 1.3-2.2.48-2.75v-15.82h3zm-41.05 10.37h-3.06v-3h3.07zm-18.33 0H-336v-3h30.54zm-45.83 0h-3.04v-3h3.05zm-18.32 0h-30.55v-3h30.55zm-45.83 0h-3.05v-3h3.05zm-18.33 0h-30.55v-3h30.55zm-45.82 0h-3.06v-3h3.06zm-18.34 0h-30.55v-3h30.56zm-45.82 0h-3.06v-3h3.06zm-18.33 0h-30.54v-3h30.55zm-45.82 0h-3.06v-3h3.06zm-18.33 0h-30.55v-3h30.55zm-45.83 0h-3.05v-3h3.05zm-18.33 0h-30.56v-3h30.55zm-45.84 0h-3.05v-3h3.06zm-18.33 0h-30.55v-3h30.55zm-45.82 0h-3.05v-3h3.06zm554.32-42.4h-3v-3.2h3zm0-19.15h-3v-31.9h3zm0-47.85h-3v-3.2h3zm0-19.15h-3v-31.9h3zm0-47.85h-3v-3.2h3zm0-19.15h-3V-17h3z" stroke="#99d2f2" stroke-width=".05" fill="#99d2f2"/><path d="M-841.5 377.88h-3v-14.43h3zm0-28.87h-3v-2.88h3zm0-17.3h-3V302.8h3zm0-43.32h-3v-2.88h3zm0-17.32h-3V242.2h3zm0-43.3h-3v-2.9h3zm22.78-39.26h-15.15l-2.74.5-2.22 1.28-1.64 1.94-.92 2.5-.12 1.35v14.36h-3v-14.5l.17-1.88 1.24-3.36 2.32-2.75 3.1-1.82 3.55-.63h15.4zm566.64-4.2l-1.23 2.97-2.98 1.23h-15.58v-3h14.98l1.27-.53.52-1.27v-15.65h3zm-35.05 4.2h-3.06v-3h3.07zm-18.33 0H-336v-3h30.54zm-45.83 0h-3.04v-3h3.05zm-18.32 0h-30.55v-3h30.55zm-45.83 0h-3.05v-3h3.05zm-18.33 0h-30.55v-3h30.55zm-45.82 0h-3.06v-3h3.06zm-18.34 0h-30.55v-3h30.56zm-45.82 0h-3.06v-3h3.06zm-18.33 0h-30.54v-3h30.55zm-45.82 0h-3.06v-3h3.06zm-18.33 0h-30.55v-3h30.55zm-45.83 0h-3.05v-3h3.05zm-18.33 0h-30.56v-3h30.55zm-45.84 0h-3.05v-3h3.06zm-18.33 0h-30.55v-3h30.55zm-45.82 0h-3.05v-3h3.06zm548.32-36.4h-3v-3.2h3zm0-19.15h-3v-31.9h3zm0-47.85h-3v-3.2h3zm0-19.15h-3v-31.9h3zm0-47.85h-3v-3.2h3zm0-19.15h-3V-17h3z" stroke="#99d2f2" stroke-width=".05" fill="#99d2f2"/><path d="M-246.08-16.96h-3v-1.54h3z" fill="#99d2f2"/><path d="M-246.06-16.94h-3.05v-1.58h3.04zm-3-1.54v1.5h2.95v-1.5z" stroke="#99d2f2" stroke-width=".05" fill="#99d2f2"/><path d="M-252.08-16.96h-3v-1.54h3z" fill="#99d2f2"/><path d="M-252.06-16.94h-3.05v-1.58h3.04zm-3-1.54v1.5h2.95v-1.5z" stroke="#99d2f2" stroke-width=".05" fill="#99d2f2"/><path d="M-840 393.65l-4.64-14.27h9.28z" fill="#99d2f2"/><path d="M-840 398.5l-6.7-20.62h13.4zm-2.57-17.62l2.57 7.9 2.57-7.9z" stroke="#99d2f2" stroke-width=".05" fill="#99d2f2"/><defs><path fill="#333" d="M23 0v-37h61v-169l-59 37v-38l62-41h46v211h57V0H23" id="f"/><use transform="matrix(0.04938271604938272,0,0,0.04938271604938272,0,0)" xlink:href="#f" id="a"/><path fill="#333" d="M182-182c0 78-84 86-111 141h115V0H12c-6-101 99-100 120-180 1-22-12-31-33-32-23 0-32 14-35 34l-49-3c5-45 32-70 84-70 51 0 83 22 83 69" id="g"/><use transform="matrix(0.04938271604938272,0,0,0.04938271604938272,0,0)" xlink:href="#g" id="b"/><path fill="#333" d="M128-127c34 4 56 21 59 58 7 91-148 94-172 28-4-9-6-17-7-26l51-5c1 24 16 35 40 36 23 0 39-12 38-36-1-31-31-36-65-34v-40c32 2 59-3 59-33 0-20-13-33-34-33s-33 13-35 32l-50-3c6-44 37-68 86-68 50 0 83 20 83 66 0 35-22 52-53 58" id="h"/><use transform="matrix(0.04938271604938272,0,0,0.04938271604938272,0,0)" xlink:href="#h" id="c"/><path fill="#333" d="M165-50V0h-47v-50H5v-38l105-160h55v161h33v37h-33zm-47-37l2-116L46-87h72" id="i"/><use transform="matrix(0.04938271604938272,0,0,0.04938271604938272,0,0)" xlink:href="#i" id="d"/><path fill="#333" d="M139-81c0-46-55-55-73-27H18l9-140h149v37H72l-4 63c44-38 133-4 122 66C201 21 21 35 11-62l49-4c5 18 15 30 39 30 26 0 40-18 40-45" id="j"/><use transform="matrix(0.04938271604938272,0,0,0.04938271604938272,0,0)" xlink:href="#j" id="e"/></defs></g></svg>