<svg xmlns="http://www.w3.org/2000/svg" xmlns:xlink="http://www.w3.org/1999/xlink" xmlns:lucid="lucid" width="3340" height="2440"><g transform="translate(2880 700)" lucid:page-tab-id="Ptkwwjsb5X~B"><path d="M-500 746c0-3.3 2.7-6 6-6h288c3.3 0 6 2.7 6 6v288c0 3.3-2.7 6-6 6h-288c-3.3 0-6-2.7-6-6z" stroke="#a3d977" stroke-width="3" fill-opacity="0"/><path d="M-480 767.5c0-3.3 2.7-6 6-6h108c3.3 0 6 2.7 6 6v108c0 3.3-2.7 6-6 6h-108c-3.3 0-6-2.7-6-6z" stroke="#ef8d22" stroke-width="3" fill="#ffc374"/><path d="M-1420 46c0-3.3 2.7-6 6-6h108c3.3 0 6 2.7 6 6v108c0 3.3-2.7 6-6 6h-108c-3.3 0-6-2.7-6-6zM-1700 46c0-3.3 2.7-6 6-6h108c3.3 0 6 2.7 6 6v108c0 3.3-2.7 6-6 6h-108c-3.3 0-6-2.7-6-6z" stroke="#999" stroke-width="3" fill="#ccc"/><path d="M-1560 46c0-3.3 2.7-6 6-6h108c3.3 0 6 2.7 6 6v108c0 3.3-2.7 6-6 6h-108c-3.3 0-6-2.7-6-6z" stroke="#0c7cba" stroke-width="3" fill="#83bbe5"/><use xlink:href="#a" transform="matrix(1,0,0,1,-1555,45) translate(37.22222222222222 66.72916666666667)"/><path d="M-1420 186c0-3.3 2.7-6 6-6h108c3.3 0 6 2.7 6 6v108c0 3.3-2.7 6-6 6h-108c-3.3 0-6-2.7-6-6z" stroke="#834187" stroke-width="3" fill="#b391b5"/><path d="M-1560 186c0-3.3 2.7-6 6-6h108c3.3 0 6 2.7 6 6v108c0 3.3-2.7 6-6 6h-108c-3.3 0-6-2.7-6-6z" stroke="#0c7cba" stroke-width="3" fill="#83bbe5"/><use xlink:href="#b" transform="matrix(1,0,0,1,-1555,185) translate(37.22222222222222 66.72916666666667)"/><path d="M-1160 26c0-3.3 2.7-6 6-6h428c3.3 0 6 2.7 6 6v288c0 3.3-2.7 6-6 6h-428c-3.3 0-6-2.7-6-6z" stroke="#83bbe5" stroke-width="3" fill-opacity="0"/><path d="M-1000 46c0-3.3 2.7-6 6-6h108c3.3 0 6 2.7 6 6v108c0 3.3-2.7 6-6 6h-108c-3.3 0-6-2.7-6-6z" stroke="#c92d39" stroke-width="3" fill="#ff8f80"/><use xlink:href="#c" transform="matrix(1,0,0,1,-995,45) translate(40.18518518518518 66.72916666666667)"/><path d="M-1000 186c0-3.3 2.7-6 6-6h108c3.3 0 6 2.7 6 6v108c0 3.3-2.7 6-6 6h-108c-3.3 0-6-2.7-6-6z" stroke="#c92d39" stroke-width="3" fill="#ff8f80"/><path d="M-1140 46c0-3.3 2.7-6 6-6h108c3.3 0 6 2.7 6 6v108c0 3.3-2.7 6-6 6h-108c-3.3 0-6-2.7-6-6z" stroke="#999" stroke-width="3" fill="#ccc"/><path d="M-860 186c0-3.3 2.7-6 6-6h108c3.3 0 6 2.7 6 6v108c0 3.3-2.7 6-6 6h-108c-3.3 0-6-2.7-6-6z" stroke="#834187" stroke-width="3" fill="#b391b5"/><path d="M-580 26c0-3.3 2.7-6 6-6h428c3.3 0 6 2.7 6 6v288c0 3.3-2.7 6-6 6h-428c-3.3 0-6-2.7-6-6z" stroke="#ff8f80" stroke-width="3" fill-opacity="0"/><path d="M-420 46c0-3.3 2.7-6 6-6h108c3.3 0 6 2.7 6 6v108c0 3.3-2.7 6-6 6h-108c-3.3 0-6-2.7-6-6zM-420 186c0-3.3 2.7-6 6-6h108c3.3 0 6 2.7 6 6v108c0 3.3-2.7 6-6 6h-108c-3.3 0-6-2.7-6-6zM-560 186c0-3.3 2.7-6 6-6h108c3.3 0 6 2.7 6 6v108c0 3.3-2.7 6-6 6h-108c-3.3 0-6-2.7-6-6zM-280 186c0-3.3 2.7-6 6-6h108c3.3 0 6 2.7 6 6v108c0 3.3-2.7 6-6 6h-108c-3.3 0-6-2.7-6-6z" stroke="#7ab648" stroke-width="3" fill="#a3d977"/><path d="M0 26c0-3.3 2.7-6 6-6h428c3.3 0 6 2.7 6 6v288c0 3.3-2.7 6-6 6H6c-3.3 0-6-2.7-6-6z" stroke="#a3d977" stroke-width="3" fill-opacity="0"/><path d="M20 46c0-3.3 2.7-6 6-6h108c3.3 0 6 2.7 6 6v108c0 3.3-2.7 6-6 6H26c-3.3 0-6-2.7-6-6z" stroke="#ef8d22" stroke-width="3" fill="#ffc374"/><path d="M300 46c0-3.3 2.7-6 6-6h108c3.3 0 6 2.7 6 6v108c0 3.3-2.7 6-6 6H306c-3.3 0-6-2.7-6-6z" stroke="#de5f85" stroke-width="3" fill="#f5b5c8"/><path d="M160 46c0-3.3 2.7-6 6-6h108c3.3 0 6 2.7 6 6v108c0 3.3-2.7 6-6 6H166c-3.3 0-6-2.7-6-6z" stroke="#19967d" stroke-width="3" fill="#5abaa7"/><path d="M300 186c0-3.3 2.7-6 6-6h108c3.3 0 6 2.7 6 6v108c0 3.3-2.7 6-6 6H306c-3.3 0-6-2.7-6-6z" stroke="#3aa6dd" stroke-width="3" fill="#99d2f2"/><path d="M-1500 37v-71c0-3.3 2.7-6 6-6h548c3.3 0 6 2.7 6 6v31.88" stroke="#83bbe5" stroke-width="3" fill="none"/><path d="M-1498.5 38.5h-3v-1.54h3z" stroke="#83bbe5" stroke-width=".05" fill="#83bbe5"/><path d="M-940 13.65l-4.64-14.27h9.28z" stroke="#83bbe5" stroke-width="3" fill="#83bbe5"/><path d="M-940 303v52.5c0 3.3 2.7 6 6 6h568c3.3 0 6-2.7 6-6v-13.38" stroke="#ff8f80" stroke-width="3" fill="none"/><path d="M-938.5 303.04h-3v-1.54h3z" stroke="#ff8f80" stroke-width=".05" fill="#ff8f80"/><path d="M-360 326.35l4.64 14.27h-9.28z" stroke="#ff8f80" stroke-width="3" fill="#ff8f80"/><path d="M-360 37v-52.5c0-3.3 2.7-6 6-6h568c3.3 0 6 2.7 6 6v13.38" stroke="#a3d977" stroke-width="3" fill="none"/><path d="M-358.5 38.5h-3v-1.54h3z" stroke="#a3d977" stroke-width=".05" fill="#a3d977"/><path d="M220 13.65L215.36-.62h9.28z" stroke="#a3d977" stroke-width="3" fill="#a3d977"/><path d="M-1720 446c0-3.3 2.7-6 6-6h428c3.3 0 6 2.7 6 6v288c0 3.3-2.7 6-6 6h-428c-3.3 0-6-2.7-6-6z" stroke="#83bbe5" stroke-width="3" fill-opacity="0"/><path d="M-1560 466c0-3.3 2.7-6 6-6h108c3.3 0 6 2.7 6 6v108c0 3.3-2.7 6-6 6h-108c-3.3 0-6-2.7-6-6zM-1560 606c0-3.3 2.7-6 6-6h108c3.3 0 6 2.7 6 6v108c0 3.3-2.7 6-6 6h-108c-3.3 0-6-2.7-6-6z" stroke="#c92d39" stroke-width="3" fill="#ff8f80"/><use xlink:href="#d" transform="matrix(1,0,0,1,-1555,605) translate(40.18518518518518 66.72916666666667)"/><path d="M-1420 466c0-3.3 2.7-6 6-6h108c3.3 0 6 2.7 6 6v108c0 3.3-2.7 6-6 6h-108c-3.3 0-6-2.7-6-6z" stroke="#999" stroke-width="3" fill="#ccc"/><path d="M-1700 606c0-3.3 2.7-6 6-6h108c3.3 0 6 2.7 6 6v108c0 3.3-2.7 6-6 6h-108c-3.3 0-6-2.7-6-6z" stroke="#c92d39" stroke-width="3" fill="#ff8f80"/><path d="M-1500 303v114.88" stroke="#83bbe5" stroke-width="3" fill="none"/><path d="M-1498.5 303.04h-3v-1.54h3z" stroke="#83bbe5" stroke-width=".05" fill="#83bbe5"/><path d="M-1500 433.65l-4.64-14.27h9.28z" stroke="#83bbe5" stroke-width="3" fill="#83bbe5"/><path d="M0 386c0-3.3 2.7-6 6-6h428c3.3 0 6 2.7 6 6v288c0 3.3-2.7 6-6 6H6c-3.3 0-6-2.7-6-6z" stroke="#a3d977" stroke-width="3" fill-opacity="0"/><path d="M20 546c0-3.3 2.7-6 6-6h108c3.3 0 6 2.7 6 6v108c0 3.3-2.7 6-6 6H26c-3.3 0-6-2.7-6-6z" stroke="#ef8d22" stroke-width="3" fill="#ffc374"/><path d="M300 546c0-3.3 2.7-6 6-6h108c3.3 0 6 2.7 6 6v108c0 3.3-2.7 6-6 6H306c-3.3 0-6-2.7-6-6z" stroke="#de5f85" stroke-width="3" fill="#f5b5c8"/><path d="M160 546c0-3.3 2.7-6 6-6h108c3.3 0 6 2.7 6 6v108c0 3.3-2.7 6-6 6H166c-3.3 0-6-2.7-6-6zM160 406c0-3.3 2.7-6 6-6h108c3.3 0 6 2.7 6 6v108c0 3.3-2.7 6-6 6H166c-3.3 0-6-2.7-6-6z" stroke="#19967d" stroke-width="3" fill="#5abaa7"/><path d="M-220 303v221c0 3.3 2.7 6 6 6h191.88" stroke="#a3d977" stroke-width="3" fill="none"/><path d="M-218.5 303.04h-3v-1.54h3z" stroke="#a3d977" stroke-width=".05" fill="#a3d977"/><path d="M-6.35 530l-14.27 4.64v-9.28z" stroke="#a3d977" stroke-width="3" fill="#a3d977"/><path d="M-340 766c0-3.3 2.7-6 6-6h108c3.3 0 6 2.7 6 6v108c0 3.3-2.7 6-6 6h-108c-3.3 0-6-2.7-6-6z" stroke="#fcc438" stroke-width="3" fill="#ffdf71"/><path d="M-1160 547.5c0-3.3 2.7-6 6-6h428c3.3 0 6 2.7 6 6v288c0 3.3-2.7 6-6 6h-428c-3.3 0-6-2.7-6-6z" stroke="#ff8f80" stroke-width="3" fill-opacity="0"/><path d="M-1000 567.5c0-3.3 2.7-6 6-6h108c3.3 0 6 2.7 6 6v108c0 3.3-2.7 6-6 6h-108c-3.3 0-6-2.7-6-6zM-1000 707.5c0-3.3 2.7-6 6-6h108c3.3 0 6 2.7 6 6v108c0 3.3-2.7 6-6 6h-108c-3.3 0-6-2.7-6-6zM-1140 566c0-3.3 2.7-6 6-6h108c3.3 0 6 2.7 6 6v108c0 3.3-2.7 6-6 6h-108c-3.3 0-6-2.7-6-6zM-860 707.5c0-3.3 2.7-6 6-6h108c3.3 0 6 2.7 6 6v108c0 3.3-2.7 6-6 6h-108c-3.3 0-6-2.7-6-6z" stroke="#7ab648" stroke-width="3" fill="#a3d977"/><path d="M-1500 723v154c0 3.3 2.7 6 6 6h548c3.3 0 6-2.7 6-6v-13.38" stroke="#ff8f80" stroke-width="3" fill="none"/><path d="M-1498.5 723.04h-3v-1.54h3z" stroke="#ff8f80" stroke-width=".05" fill="#ff8f80"/><path d="M-940 847.85l4.64 14.27h-9.28z" stroke="#ff8f80" stroke-width="3" fill="#ff8f80"/><path d="M-480 906c0-3.3 2.7-6 6-6h108c3.3 0 6 2.7 6 6v108c0 3.3-2.7 6-6 6h-108c-3.3 0-6-2.7-6-6z" stroke="#de5f85" stroke-width="3" fill="#f5b5c8"/><path d="M-940 558.5V526c0-3.3 2.7-6 6-6h578c3.3 0 6 2.7 6 6v191.88" stroke="#a3d977" stroke-width="3" fill="none"/><path d="M-938.5 560h-3v-1.54h3z" stroke="#a3d977" stroke-width=".05" fill="#a3d977"/><path d="M-350 733.65l-4.64-14.27h9.28z" stroke="#a3d977" stroke-width="3" fill="#a3d977"/><path d="M-340 906c0-3.3 2.7-6 6-6h108c3.3 0 6 2.7 6 6v108c0 3.3-2.7 6-6 6h-108c-3.3 0-6-2.7-6-6z" stroke="#fcc438" stroke-width="3" fill="#ffdf71"/><path d="M-580-314c0-3.3 2.7-6 6-6H-6c3.3 0 6 2.7 6 6v148c0 3.3-2.7 6-6 6h-568c-3.3 0-6-2.7-6-6z" stroke="#a3d977" stroke-width="3" fill-opacity="0"/><path d="M-560-291c0-3.3 2.7-6 6-6h108c3.3 0 6 2.7 6 6v108c0 3.3-2.7 6-6 6h-108c-3.3 0-6-2.7-6-6z" stroke="#ef8d22" stroke-width="3" fill="#ffc374"/><path d="M-420-292.5c0-3.3 2.7-6 6-6h108c3.3 0 6 2.7 6 6v108c0 3.3-2.7 6-6 6h-108c-3.3 0-6-2.7-6-6z" stroke="#fcc438" stroke-width="3" fill="#ffdf71"/><path d="M-140-292.5c0-3.3 2.7-6 6-6h108c3.3 0 6 2.7 6 6v108c0 3.3-2.7 6-6 6h-108c-3.3 0-6-2.7-6-6z" stroke="#de5f85" stroke-width="3" fill="#f5b5c8"/><path d="M-280-291c0-3.3 2.7-6 6-6h108c3.3 0 6 2.7 6 6v108c0 3.3-2.7 6-6 6h-108c-3.3 0-6-2.7-6-6z" stroke="#3aa6dd" stroke-width="3" fill="#99d2f2"/><path d="M-563 240h-52.5c-3.3 0-6-2.7-6-6v-468c0-3.3 2.7-6 6-6h13.38" stroke="#a3d977" stroke-width="3" fill="none"/><path d="M-561.5 241.5h-1.54v-3h1.54z" stroke="#a3d977" stroke-width=".05" fill="#a3d977"/><path d="M-586.35-240l-14.27 4.64v-9.28z" stroke="#a3d977" stroke-width="3" fill="#a3d977"/><path d="M-1240-471c0-3.3 2.7-6 6-6h428c3.3 0 6 2.7 6 6v288c0 3.3-2.7 6-6 6h-428c-3.3 0-6-2.7-6-6z" stroke="#ff8f80" stroke-width="3" fill-opacity="0"/><path d="M-1080-451c0-3.3 2.7-6 6-6h108c3.3 0 6 2.7 6 6v108c0 3.3-2.7 6-6 6h-108c-3.3 0-6-2.7-6-6zM-1080-311c0-3.3 2.7-6 6-6h108c3.3 0 6 2.7 6 6v108c0 3.3-2.7 6-6 6h-108c-3.3 0-6-2.7-6-6zM-1220-452.5c0-3.3 2.7-6 6-6h108c3.3 0 6 2.7 6 6v108c0 3.3-2.7 6-6 6h-108c-3.3 0-6-2.7-6-6zM-940-311c0-3.3 2.7-6 6-6h108c3.3 0 6 2.7 6 6v108c0 3.3-2.7 6-6 6h-108c-3.3 0-6-2.7-6-6z" stroke="#7ab648" stroke-width="3" fill="#a3d977"/><path d="M-1760-674c0-3.3 2.7-6 6-6h428c3.3 0 6 2.7 6 6v288c0 3.3-2.7 6-6 6h-428c-3.3 0-6-2.7-6-6z" stroke="#a3d977" stroke-width="3" fill-opacity="0"/><path d="M-1600-514c0-3.3 2.7-6 6-6h108c3.3 0 6 2.7 6 6v108c0 3.3-2.7 6-6 6h-108c-3.3 0-6-2.7-6-6z" stroke="#ef8d22" stroke-width="3" fill="#ffc374"/><path d="M-1460-514c0-3.3 2.7-6 6-6h108c3.3 0 6 2.7 6 6v108c0 3.3-2.7 6-6 6h-108c-3.3 0-6-2.7-6-6z" stroke="#de5f85" stroke-width="3" fill="#f5b5c8"/><path d="M-1600-654c0-3.3 2.7-6 6-6h108c3.3 0 6 2.7 6 6v108c0 3.3-2.7 6-6 6h-108c-3.3 0-6-2.7-6-6z" stroke="#19967d" stroke-width="3" fill="#5abaa7"/><path d="M-1740-514c0-3.3 2.7-6 6-6h108c3.3 0 6 2.7 6 6v108c0 3.3-2.7 6-6 6h-108c-3.3 0-6-2.7-6-6z" stroke="#3aa6dd" stroke-width="3" fill="#99d2f2"/><path d="M-2260 516c0-3.3 2.7-6 6-6h428c3.3 0 6 2.7 6 6v288c0 3.3-2.7 6-6 6h-428c-3.3 0-6-2.7-6-6z" stroke="#ff8f80" stroke-width="3" fill-opacity="0"/><path d="M-2100 536c0-3.3 2.7-6 6-6h108c3.3 0 6 2.7 6 6v108c0 3.3-2.7 6-6 6h-108c-3.3 0-6-2.7-6-6zM-2100 676c0-3.3 2.7-6 6-6h108c3.3 0 6 2.7 6 6v108c0 3.3-2.7 6-6 6h-108c-3.3 0-6-2.7-6-6zM-2240 534.5c0-3.3 2.7-6 6-6h108c3.3 0 6 2.7 6 6v108c0 3.3-2.7 6-6 6h-108c-3.3 0-6-2.7-6-6zM-1960 676c0-3.3 2.7-6 6-6h108c3.3 0 6 2.7 6 6v108c0 3.3-2.7 6-6 6h-108c-3.3 0-6-2.7-6-6z" stroke="#7ab648" stroke-width="3" fill="#a3d977"/><path d="M-2280 26c0-3.3 2.7-6 6-6h288c3.3 0 6 2.7 6 6v288c0 3.3-2.7 6-6 6h-288c-3.3 0-6-2.7-6-6z" stroke="#a3d977" stroke-width="3" fill-opacity="0"/><path d="M-2260 47.5c0-3.3 2.7-6 6-6h108c3.3 0 6 2.7 6 6v108c0 3.3-2.7 6-6 6h-108c-3.3 0-6-2.7-6-6z" stroke="#ef8d22" stroke-width="3" fill="#ffc374"/><path d="M-2260 186c0-3.3 2.7-6 6-6h108c3.3 0 6 2.7 6 6v108c0 3.3-2.7 6-6 6h-108c-3.3 0-6-2.7-6-6z" stroke="#de5f85" stroke-width="3" fill="#f5b5c8"/><path d="M-2860 506c0-3.3 2.7-6 6-6h428c3.3 0 6 2.7 6 6v288c0 3.3-2.7 6-6 6h-428c-3.3 0-6-2.7-6-6z" stroke="#a3d977" stroke-width="3" fill-opacity="0"/><path d="M-2840 666c0-3.3 2.7-6 6-6h108c3.3 0 6 2.7 6 6v108c0 3.3-2.7 6-6 6h-108c-3.3 0-6-2.7-6-6z" stroke="#ef8d22" stroke-width="3" fill="#ffc374"/><path d="M-2560 526c0-3.3 2.7-6 6-6h108c3.3 0 6 2.7 6 6v108c0 3.3-2.7 6-6 6h-108c-3.3 0-6-2.7-6-6z" stroke="#de5f85" stroke-width="3" fill="#f5b5c8"/><path d="M-2700 666c0-3.3 2.7-6 6-6h108c3.3 0 6 2.7 6 6v108c0 3.3-2.7 6-6 6h-108c-3.3 0-6-2.7-6-6zM-2700 526c0-3.3 2.7-6 6-6h108c3.3 0 6 2.7 6 6v108c0 3.3-2.7 6-6 6h-108c-3.3 0-6-2.7-6-6z" stroke="#19967d" stroke-width="3" fill="#5abaa7"/><path d="M-2040 527v-96c0-3.3-2.7-6-6-6h-78c-3.3 0-6-2.7-6-6v-76.88" stroke="#a3d977" stroke-width="3" fill="none"/><path d="M-2038.5 528.5h-3v-1.54h3z" stroke="#a3d977" stroke-width=".05" fill="#a3d977"/><path d="M-2130 326.35l4.64 14.27h-9.28z" stroke="#a3d977" stroke-width="3" fill="#a3d977"/><path d="M-2040 793v42.5c0 3.3-2.7 6-6 6h-588c-3.3 0-6-2.7-6-6v-13.38" stroke="#a3d977" stroke-width="3" fill="none"/><path d="M-2038.5 793.04h-3v-1.54h3z" stroke="#a3d977" stroke-width=".05" fill="#a3d977"/><path d="M-2640 806.35l4.64 14.27h-9.28z" stroke="#a3d977" stroke-width="3" fill="#a3d977"/><path d="M-1640 723v51c0 3.3-2.7 6-6 6h-126.5c-3.3 0-6-2.7-6-6V666c0-3.3-2.7-6-6-6h-13.38" stroke="#ff8f80" stroke-width="3" fill="none"/><path d="M-1638.5 723.04h-3v-1.54h3z" stroke="#ff8f80" stroke-width=".05" fill="#ff8f80"/><path d="M-1813.65 660l14.27-4.64v9.28z" stroke="#ff8f80" stroke-width="3" fill="#ff8f80"/><path d="M-2120 186c0-3.3 2.7-6 6-6h108c3.3 0 6 2.7 6 6v108c0 3.3-2.7 6-6 6h-108c-3.3 0-6-2.7-6-6z" stroke="#19967d" stroke-width="3" fill="#5abaa7"/><path d="M-877 100h112.5c3.3 0 6-2.7 6-6v-415c0-3.3-2.7-6-6-6h-13.38" stroke="#ff8f80" stroke-width="3" fill="none"/><path d="M-876.96 101.5h-1.54v-3h1.54z" stroke="#ff8f80" stroke-width=".05" fill="#ff8f80"/><path d="M-793.65-327l14.27-4.64v9.28z" stroke="#ff8f80" stroke-width="3" fill="#ff8f80"/><path d="M-1020-194v68c0 3.3-2.7 6-6 6h-978c-3.3 0-6-2.7-6-6v-11.88" stroke="#a3d977" stroke-width="3" fill="none"/><path d="M-1018.5-193.96h-3v-1.54h3z" stroke="#a3d977" stroke-width=".05" fill="#a3d977"/><path d="M-2010-153.65l4.64 14.27h-9.28z" stroke="#a3d977" stroke-width="3" fill="#a3d977"/><path d="M-2300-314c0-3.3 2.7-6 6-6h568c3.3 0 6 2.7 6 6v148c0 3.3-2.7 6-6 6h-568c-3.3 0-6-2.7-6-6z" stroke="#a3d977" stroke-width="3" fill-opacity="0"/><path d="M-2280-291c0-3.3 2.7-6 6-6h108c3.3 0 6 2.7 6 6v108c0 3.3-2.7 6-6 6h-108c-3.3 0-6-2.7-6-6z" stroke="#ef8d22" stroke-width="3" fill="#ffc374"/><path d="M-2140-292.5c0-3.3 2.7-6 6-6h108c3.3 0 6 2.7 6 6v108c0 3.3-2.7 6-6 6h-108c-3.3 0-6-2.7-6-6z" stroke="#fcc438" stroke-width="3" fill="#ffdf71"/><path d="M-1860-292.5c0-3.3 2.7-6 6-6h108c3.3 0 6 2.7 6 6v108c0 3.3-2.7 6-6 6h-108c-3.3 0-6-2.7-6-6z" stroke="#de5f85" stroke-width="3" fill="#f5b5c8"/><path d="M-2000-291c0-3.3 2.7-6 6-6h108c3.3 0 6 2.7 6 6v108c0 3.3-2.7 6-6 6h-108c-3.3 0-6-2.7-6-6z" stroke="#3aa6dd" stroke-width="3" fill="#99d2f2"/><path d="M-1020-460v-64c0-3.3-2.7-6-6-6h-271.88" stroke="#a3d977" stroke-width="3" fill="none"/><path d="M-1018.5-458.5h-3v-1.54h3z" stroke="#a3d977" stroke-width=".05" fill="#a3d977"/><path d="M-1313.65-530l14.27-4.64v9.28z" stroke="#a3d977" stroke-width="3" fill="#a3d977"/><path d="M-1700 1286c0-3.3 2.7-6 6-6h108c3.3 0 6 2.7 6 6v108c0 3.3-2.7 6-6 6h-108c-3.3 0-6-2.7-6-6zM-1700 1566c0-3.3 2.7-6 6-6h108c3.3 0 6 2.7 6 6v108c0 3.3-2.7 6-6 6h-108c-3.3 0-6-2.7-6-6z" stroke="#c92d39" stroke-width="3" fill="#ff8f80"/><path d="M-1980 1286c0-3.3 2.7-6 6-6h108c3.3 0 6 2.7 6 6v108c0 3.3-2.7 6-6 6h-108c-3.3 0-6-2.7-6-6z" stroke="#999" stroke-width="3" fill="#ccc"/><path d="M-1420 1566c0-3.3 2.7-6 6-6h108c3.3 0 6 2.7 6 6v108c0 3.3-2.7 6-6 6h-108c-3.3 0-6-2.7-6-6z" stroke="#834187" stroke-width="3" fill="#b391b5"/><path d="M-2000 1266c0-3.3 2.7-6 6-6h708c3.3 0 6 2.7 6 6v428c0 3.3-2.7 6-6 6h-708c-3.3 0-6-2.7-6-6z" stroke="#83bbe5" stroke-width="3" fill-opacity="0"/><use xlink:href="#e" transform="matrix(1,0,0,1,-1995,1265) translate(674.4444444444445 42.66666666666667)"/><path d="M-1422.5 1582.83h-9.17v-2h9.17zm-18.33 0h-18.34v-2h18.34zm-27.5 0h-18.34v-2h18.34zm-37.23 0h-8.6v-2h8.6zm-17.77 0h-18.34v-2h18.34zm-27.5 0h-9.17v-2h9.17z" stroke="#b2b2b2" stroke-width=".05" fill="#b2b2b2"/><path d="M-1421.5 1582.83h-1.03v-2h1.03z" fill="#b2b2b2"/><path d="M-1421.47 1582.85h-1.08v-2.05h1.08zm-1.03-2v1.95h.97v-1.95z" stroke="#b2b2b2" stroke-width=".05" fill="#b2b2b2"/><path d="M-1561 1586.46l-14.26-4.63 14.26-4.64z" fill="#b2b2b2"/><path d="M-1560 1587.84l-18.5-6 18.5-6.03zm-12.03-6l10.03 3.24v-6.5z" stroke="#b2b2b2" stroke-width=".05" fill="#b2b2b2"/><use xlink:href="#f" transform="matrix(1,0,0,1,-1505.5555555555557,1569.8259035977198) translate(0 16)"/><path d="M-1600.94 1557.5h-2v-9.17h2zm0-18.33h-2v-18.34h2zm0-27.5h-2v-18.34h2zm0-43.67h-2v-2.17h2zm0-11.33h-2v-18.34h2zm0-27.5h-2V1420h2z" stroke="#b2b2b2" stroke-width=".05" fill="#b2b2b2"/><path d="M-1600.94 1558.5h-2v-1.03h2z" fill="#b2b2b2"/><path d="M-1600.9 1558.53h-2.06v-1.08h2.05zm-2-1.03v.97h1.94v-.97z" stroke="#b2b2b2" stroke-width=".05" fill="#b2b2b2"/><path d="M-1597.3 1419h-9.27l4.63-14.26z" fill="#b2b2b2"/><path d="M-1595.93 1420h-12.02l6-18.5zm-9.27-2h6.52l-3.26-10.03z" stroke="#b2b2b2" stroke-width=".05" fill="#b2b2b2"/><use xlink:href="#g" transform="matrix(1,0,0,1,-1607.4949494949492,1468) translate(0 16)"/><path d="M-1702.5 1341h-9.17v-2h9.17zm-18.33 0h-18.34v-2h18.34zm-27.5 0h-18.34v-2h18.34zm-37.23 0h-8.6v-2h8.6zm-17.77 0h-18.34v-2h18.34zm-27.5 0h-9.17v-2h9.17z" stroke="#b2b2b2" stroke-width=".05" fill="#b2b2b2"/><path d="M-1701.5 1341h-1.03v-2h1.03z" fill="#b2b2b2"/><path d="M-1701.47 1341.03h-1.08v-2.06h1.08zm-1.03-2v1.94h.97v-1.94z" stroke="#b2b2b2" stroke-width=".05" fill="#b2b2b2"/><path d="M-1841 1344.64l-14.26-4.64 14.26-4.64z" fill="#b2b2b2"/><path d="M-1840 1346l-18.5-6 18.5-6zm-12.03-6l10.03 3.26v-6.52z" stroke="#b2b2b2" stroke-width=".05" fill="#b2b2b2"/><use xlink:href="#h" transform="matrix(1,0,0,1,-1785.5555555555557,1328) translate(0 16)"/><path d="M-1679.6 1540h-2v-9.17h2zm0-18.33h-2v-18.34h2zm0-27.5h-2V1492h2zm0-27.5h-2v-18.34h2zm0-27.5h-2v-18.34h2zm0-27.5h-2v-9.17h2z" stroke="#b2b2b2" stroke-width=".05" fill="#b2b2b2"/><path d="M-1679.6 1402.53h-2v-1.03h2z" fill="#b2b2b2"/><path d="M-1679.58 1402.55h-2.05v-1.08h2.05zm-2-1.02v.97h1.95v-.97z" stroke="#b2b2b2" stroke-width=".05" fill="#b2b2b2"/><path d="M-1680.6 1555.26l-4.64-14.26h9.27z" fill="#b2b2b2"/><path d="M-1680.6 1558.5l-6.02-18.5h12.03zm-3.26-16.5l3.25 10.03 3.25-10.03z" stroke="#b2b2b2" stroke-width=".05" fill="#b2b2b2"/><use xlink:href="#i" transform="matrix(1,0,0,1,-1686.161616161616,1468) translate(0 16)"/><path d="M-1568.33 1658.93h-9.17v-2h9.17zm27.5 0h-18.34v-2h18.34zm27.5 0h-18.34v-2h18.34zm55 0h-18.34v-2h18.34zm18.33 0h-9.17v-2h9.17zm-45.83 0h-8.6v-2h8.6z" stroke="#b2b2b2" stroke-width=".05" fill="#b2b2b2"/><path d="M-1577.47 1658.93h-1.03v-2h1.03z" fill="#b2b2b2"/><path d="M-1577.45 1658.95h-1.08v-2.05h1.08zm-1.02-2v1.95h.97v-1.95z" stroke="#b2b2b2" stroke-width=".05" fill="#b2b2b2"/><path d="M-1424.74 1657.93l-14.26 4.63v-9.27z" fill="#b2b2b2"/><path d="M-1421.5 1657.93l-18.5 6v-12.02zm-16.5 3.26l10.03-3.27-10.03-3.26z" stroke="#b2b2b2" stroke-width=".05" fill="#b2b2b2"/><use xlink:href="#j" transform="matrix(1,0,0,1,-1505.5555555555557,1645.9265033583752) translate(0 16)"/><path d="M-60 1546c0-3.3 2.7-6 6-6H54c3.3 0 6 2.7 6 6v108c0 3.3-2.7 6-6 6H-54c-3.3 0-6-2.7-6-6z" stroke="#7ab648" stroke-width="3" fill="#a3d977"/><path d="M220 1546c0-3.3 2.7-6 6-6h108c3.3 0 6 2.7 6 6v108c0 3.3-2.7 6-6 6H226c-3.3 0-6-2.7-6-6z" stroke="#834187" stroke-width="3" fill="#b391b5"/><path d="M217.5 1562.83h-9.17v-2h9.17zm-18.33 0h-18.34v-2h18.34zm-27.5 0h-18.34v-2h18.34zm-37.23 0h-8.6v-2h8.6zm-17.77 0H98.33v-2h18.34zm-27.5 0H80v-2h9.17z" stroke="#b2b2b2" stroke-width=".05" fill="#b2b2b2"/><path d="M218.5 1562.83h-1.03v-2h1.03z" fill="#b2b2b2"/><path d="M218.53 1562.85h-1.08v-2.05h1.08zm-1.03-2v1.95h.97v-1.95z" stroke="#b2b2b2" stroke-width=".05" fill="#b2b2b2"/><path d="M79 1566.46l-14.26-4.63L79 1557.2z" fill="#b2b2b2"/><path d="M80 1567.84l-18.5-6 18.5-6.03zm-12.03-6l10.03 3.24v-6.5z" stroke="#b2b2b2" stroke-width=".05" fill="#b2b2b2"/><use xlink:href="#f" transform="matrix(1,0,0,1,134.44444444444446,1549.8259035977198) translate(0 16)"/><path d="M71.67 1638.93H62.5v-2h9.17zm27.5 0H80.83v-2h18.34zm27.5 0h-18.34v-2h18.34zm55 0h-18.34v-2h18.34zm18.33 0h-9.17v-2H200zm-45.83 0h-8.6v-2h8.6z" stroke="#b2b2b2" stroke-width=".05" fill="#b2b2b2"/><path d="M62.53 1638.93H61.5v-2h1.03z" fill="#b2b2b2"/><path d="M62.55 1638.95h-1.07v-2.05h1.07zm-1.02-2v1.95h.97v-1.95z" stroke="#b2b2b2" stroke-width=".05" fill="#b2b2b2"/><path d="M215.26 1637.93l-14.26 4.63v-9.27z" fill="#b2b2b2"/><path d="M218.5 1637.93l-18.5 6v-12.02zm-16.5 3.26l10.03-3.27-10.03-3.26z" stroke="#b2b2b2" stroke-width=".05" fill="#b2b2b2"/><use xlink:href="#j" transform="matrix(1,0,0,1,134.44444444444446,1625.9265033583752) translate(0 16)"/><path d="M-300 1546c0-3.3 2.7-6 6-6h108c3.3 0 6 2.7 6 6v108c0 3.3-2.7 6-6 6h-108c-3.3 0-6-2.7-6-6zM-60 1266c0-3.3 2.7-6 6-6H54c3.3 0 6 2.7 6 6v108c0 3.3-2.7 6-6 6H-54c-3.3 0-6-2.7-6-6z" stroke="#7ab648" stroke-width="3" fill="#a3d977"/><path d="M-238.5 1517.88h-3v-16h3zm0-31.98h-3v-31.98h3zm0-68.32h-3v-11.63h3zm0-27.62h-3v-31.98h3zm18.75-68.46h-14.05l-2.45.66-1.6 1.6-.65 2.44v15.8h-3v-16.2l.98-3.6 2.7-2.72 3.62-.98h14.45zm156.75 0h-14.25v-3H-63zm-28.5 0H-120v-3h28.5zm-42.75 0h-28.5v-3h28.5zm-42.75 0h-28.5v-3h28.5z" stroke="#b2b2b2" stroke-width=".05" fill="#b2b2b2"/><path d="M-61.5 1321.5h-1.54v-3h1.54z" fill="#b2b2b2"/><path d="M-61.48 1321.53h-1.58v-3.06h1.6zm-1.53-3v2.94h1.48v-2.94z" stroke="#b2b2b2" stroke-width=".05" fill="#b2b2b2"/><path d="M-240 1533.65l-4.64-14.27h9.28z" fill="#b2b2b2"/><path d="M-240 1538.5l-6.7-20.62h13.4zm-2.57-17.62l2.57 7.9 2.57-7.9z" stroke="#b2b2b2" stroke-width=".05" fill="#b2b2b2"/><use xlink:href="#h" transform="matrix(1,0,0,1,-245.55555555555554,1417.5757575757584) translate(0 16)"/><path d="M-161.2 1601.5H-177v-3h15.8zm35.65 0h-19.82v-3h19.82zm43.43 0h-15.8v-3h15.8zm-31.63 0h-.7v-3h.7z" stroke="#b2b2b2" stroke-width=".05" fill="#b2b2b2"/><path d="M-176.96 1601.5h-1.54v-3h1.54z" fill="#b2b2b2"/><path d="M-176.93 1601.53h-1.6v-3.06h1.6zm-1.54-3v2.94h1.5v-2.94z" stroke="#b2b2b2" stroke-width=".05" fill="#b2b2b2"/><path d="M-66.35 1600l-14.27 4.64v-9.28z" fill="#b2b2b2"/><path d="M-61.5 1600l-20.62 6.7v-13.4zm-17.62 2.57l7.9-2.57-7.9-2.57z" stroke="#b2b2b2" stroke-width=".05" fill="#b2b2b2"/><use xlink:href="#i" transform="matrix(1,0,0,1,-125.55467806433052,1588) translate(0 16)"/><path d="M1.5 1537h-3v-15h3zm0-29.98h-3v-29.97h3zm0-59.02h-3v-15.9h3zm0-30.9h-3v-14.98h3z" stroke="#b2b2b2" stroke-width=".05" fill="#b2b2b2"/><path d="M1.5 1538.5h-3v-1.54h3z" fill="#b2b2b2"/><path d="M1.52 1538.53h-3.04v-1.6h3.04zm-3-1.55v1.5h2.96v-1.5z" stroke="#b2b2b2" stroke-width=".05" fill="#b2b2b2"/><path d="M4.64 1400.62h-9.28L0 1386.35z" fill="#b2b2b2"/><path d="M6.7 1402.12H-6.7L0 1381.5zm-9.27-3h5.14l-2.57-7.9z" stroke="#b2b2b2" stroke-width=".05" fill="#b2b2b2"/><use xlink:href="#g" transform="matrix(1,0,0,1,-5.555555555555555,1447.998822511775) translate(0 16)"/><path d="M-320 1246c0-3.3 2.7-6 6-6h668c3.3 0 6 2.7 6 6v428c0 3.3-2.7 6-6 6h-668c-3.3 0-6-2.7-6-6z" stroke="#ff8f80" stroke-width="3" fill-opacity="0"/><use xlink:href="#k" transform="matrix(1,0,0,1,-315,1245) translate(604.8148148148148 42.66666666666667)"/><path d="M-940 1326c0-3.3 2.7-6 6-6h108c3.3 0 6 2.7 6 6v108c0 3.3-2.7 6-6 6h-108c-3.3 0-6-2.7-6-6z" stroke="#c92d39" stroke-width="3" fill="#ff8f80"/><path d="M-660 1326c0-3.3 2.7-6 6-6h108c3.3 0 6 2.7 6 6v108c0 3.3-2.7 6-6 6h-108c-3.3 0-6-2.7-6-6z" stroke="#834187" stroke-width="3" fill="#b391b5"/><path d="M-662.5 1342.83h-9.17v-2h9.17zm-18.33 0h-18.34v-2h18.34zm-27.5 0h-18.34v-2h18.34zm-37.23 0h-8.6v-2h8.6zm-17.77 0h-18.34v-2h18.34zm-27.5 0H-800v-2h9.17z" stroke="#b2b2b2" stroke-width=".05" fill="#b2b2b2"/><path d="M-661.5 1342.83h-1.03v-2h1.03z" fill="#b2b2b2"/><path d="M-661.48 1342.85h-1.07v-2.05h1.07zm-1.02-2v1.95h.98v-1.95z" stroke="#b2b2b2" stroke-width=".05" fill="#b2b2b2"/><path d="M-801 1346.46l-14.26-4.63 14.26-4.64z" fill="#b2b2b2"/><path d="M-800 1347.84l-18.5-6 18.5-6.03zm-12.03-6l10.03 3.24v-6.5z" stroke="#b2b2b2" stroke-width=".05" fill="#b2b2b2"/><use xlink:href="#f" transform="matrix(1,0,0,1,-745.5555555555555,1329.8259035977198) translate(0 16)"/><path d="M-808.33 1418.93h-9.17v-2h9.17zm27.5 0h-18.34v-2h18.34zm27.5 0h-18.34v-2h18.34zm55 0h-18.34v-2h18.34zm18.33 0h-9.17v-2h9.17zm-45.83 0h-8.6v-2h8.6z" stroke="#b2b2b2" stroke-width=".05" fill="#b2b2b2"/><path d="M-817.47 1418.93h-1.03v-2h1.03z" fill="#b2b2b2"/><path d="M-817.45 1418.95h-1.07v-2.05h1.07zm-1.02-2v1.95h.97v-1.95z" stroke="#b2b2b2" stroke-width=".05" fill="#b2b2b2"/><path d="M-664.74 1417.93l-14.26 4.63v-9.27z" fill="#b2b2b2"/><path d="M-661.5 1417.93l-18.5 6v-12.02zm-16.5 3.26l10.03-3.27-10.03-3.26z" stroke="#b2b2b2" stroke-width=".05" fill="#b2b2b2"/><use xlink:href="#h" transform="matrix(1,0,0,1,-745.5555555555555,1405.9265033583752) translate(0 16)"/><path d="M-940 1606c0-3.3 2.7-6 6-6h108c3.3 0 6 2.7 6 6v108c0 3.3-2.7 6-6 6h-108c-3.3 0-6-2.7-6-6z" stroke="#0c7cba" stroke-width="3" fill="#83bbe5"/><path d="M-878.5 1577.88h-3v-15h3zm0-29.97h-3V1532h3zm0-44.95h-3v-29.97h3zm0-44.96h-3v-15h3z" stroke="#b2b2b2" stroke-width=".05" fill="#b2b2b2"/><path d="M-878.5 1443.04h-3v-1.54h3z" fill="#b2b2b2"/><path d="M-878.48 1443.07h-3.04v-1.6h3.04zm-3-1.54v1.5h2.96v-1.5z" stroke="#b2b2b2" stroke-width=".05" fill="#b2b2b2"/><path d="M-880 1593.65l-4.64-14.27h9.28z" fill="#b2b2b2"/><path d="M-880 1598.5l-6.7-20.62h13.4zm-2.57-17.62l2.57 7.9 2.57-7.9z" stroke="#b2b2b2" stroke-width=".05" fill="#b2b2b2"/><use xlink:href="#g" transform="matrix(1,0,0,1,-885.5555555555555,1508.001177488225) translate(0 16)"/><path d="M-960 1246c0-3.3 2.7-6 6-6h428c3.3 0 6 2.7 6 6v228c0 3.3-2.7 6-6 6h-428c-3.3 0-6-2.7-6-6z" stroke="#83bbe5" stroke-width="3" fill-opacity="0"/><use xlink:href="#l" transform="matrix(1,0,0,1,-955,1245) translate(394.44444444444446 42.66666666666667)"/><path d="M-2640 1506c0-3.3 2.7-6 6-6h428c3.3 0 6 2.7 6 6v188c0 3.3-2.7 6-6 6h-428c-3.3 0-6-2.7-6-6z" stroke="#ff8f80" stroke-width="3" fill-opacity="0"/><use xlink:href="#m" transform="matrix(1,0,0,1,-2635,1505) translate(364.8148148148148 42.66666666666667)"/><path d="M-2620 1286c0-3.3 2.7-6 6-6h108c3.3 0 6 2.7 6 6v108c0 3.3-2.7 6-6 6h-108c-3.3 0-6-2.7-6-6z" stroke="#c92d39" stroke-width="3" fill="#ff8f80"/><path d="M-2620 1566c0-3.3 2.7-6 6-6h108c3.3 0 6 2.7 6 6v108c0 3.3-2.7 6-6 6h-108c-3.3 0-6-2.7-6-6z" stroke="#7ab648" stroke-width="3" fill="#a3d977"/><path d="M-2340 1566c0-3.3 2.7-6 6-6h108c3.3 0 6 2.7 6 6v108c0 3.3-2.7 6-6 6h-108c-3.3 0-6-2.7-6-6z" stroke="#834187" stroke-width="3" fill="#b391b5"/><path d="M-2342.5 1582.83h-9.17v-2h9.17zm-18.33 0h-18.34v-2h18.34zm-27.5 0h-18.34v-2h18.34zm-37.23 0h-8.6v-2h8.6zm-17.77 0h-18.34v-2h18.34zm-27.5 0h-9.17v-2h9.17z" stroke="#b2b2b2" stroke-width=".05" fill="#b2b2b2"/><path d="M-2341.5 1582.83h-1.03v-2h1.03z" fill="#b2b2b2"/><path d="M-2341.47 1582.85h-1.08v-2.05h1.08zm-1.03-2v1.95h.97v-1.95z" stroke="#b2b2b2" stroke-width=".05" fill="#b2b2b2"/><path d="M-2481 1586.46l-14.26-4.63 14.26-4.64z" fill="#b2b2b2"/><path d="M-2480 1587.84l-18.5-6 18.5-6.03zm-12.03-6l10.03 3.24v-6.5z" stroke="#b2b2b2" stroke-width=".05" fill="#b2b2b2"/><use xlink:href="#f" transform="matrix(1,0,0,1,-2425.5555555555557,1569.8259035977198) translate(0 16)"/><path d="M-2520.94 1557.5h-2v-9.17h2zm0-18.33h-2v-18.34h2zm0-27.5h-2v-18.34h2zm0-43.67h-2v-2.17h2zm0-11.33h-2v-18.34h2zm0-27.5h-2V1420h2z" stroke="#b2b2b2" stroke-width=".05" fill="#b2b2b2"/><path d="M-2520.94 1558.5h-2v-1.03h2z" fill="#b2b2b2"/><path d="M-2520.9 1558.53h-2.06v-1.08h2.05zm-2-1.03v.97h1.94v-.97z" stroke="#b2b2b2" stroke-width=".05" fill="#b2b2b2"/><path d="M-2517.3 1419h-9.27l4.63-14.26z" fill="#b2b2b2"/><path d="M-2515.93 1420h-12.02l6-18.5zm-9.27-2h6.52l-3.26-10.03z" stroke="#b2b2b2" stroke-width=".05" fill="#b2b2b2"/><use xlink:href="#g" transform="matrix(1,0,0,1,-2527.494949494949,1468) translate(0 16)"/><path d="M-2599.6 1540h-2v-10h2zm0-20h-2v-20h2zm0-57.22h-2v-17.22h2zm0-25.84h-2v-17.22h2zm0-25.83h-2v-8.6h2z" stroke="#b2b2b2" stroke-width=".05" fill="#b2b2b2"/><path d="M-2599.6 1402.53h-2v-1.03h2z" fill="#b2b2b2"/><path d="M-2599.58 1402.55h-2.05v-1.08h2.05zm-2-1.02v.97h1.95v-.97z" stroke="#b2b2b2" stroke-width=".05" fill="#b2b2b2"/><path d="M-2600.6 1555.26l-4.64-14.26h9.27z" fill="#b2b2b2"/><path d="M-2600.6 1558.5l-6.02-18.5h12.03zm-3.26-16.5l3.25 10.03 3.25-10.03z" stroke="#b2b2b2" stroke-width=".05" fill="#b2b2b2"/><use xlink:href="#h" transform="matrix(1,0,0,1,-2606.161616161616,1468) translate(0 16)"/><path d="M-2488.33 1658.93h-9.17v-2h9.17zm27.5 0h-18.34v-2h18.34zm27.5 0h-18.34v-2h18.34zm55 0h-18.34v-2h18.34zm18.33 0h-9.17v-2h9.17zm-45.83 0h-8.6v-2h8.6z" stroke="#b2b2b2" stroke-width=".05" fill="#b2b2b2"/><path d="M-2497.47 1658.93h-1.03v-2h1.03z" fill="#b2b2b2"/><path d="M-2497.45 1658.95h-1.08v-2.05h1.08zm-1.03-2v1.95h.98v-1.95z" stroke="#b2b2b2" stroke-width=".05" fill="#b2b2b2"/><path d="M-2344.74 1657.93l-14.26 4.63v-9.27z" fill="#b2b2b2"/><path d="M-2341.5 1657.93l-18.5 6v-12.02zm-16.5 3.26l10.03-3.27-10.03-3.26z" stroke="#b2b2b2" stroke-width=".05" fill="#b2b2b2"/><use xlink:href="#i" transform="matrix(1,0,0,1,-2425.5555555555557,1645.9265033583752) translate(0 16)"/><defs><path fill="#333" d="M205 0l-28-72H64L36 0H1l101-248h38L239 0h-34zm-38-99l-47-123c-12 45-31 82-46 123h93" id="n"/><use transform="matrix(0.14814814814814817,0,0,0.14814814814814817,0,0)" xlink:href="#n" id="a"/><path fill="#333" d="M160-131c35 5 61 23 61 61C221 17 115-2 30 0v-248c76 3 177-17 177 60 0 33-19 50-47 57zm-97-11c50-1 110 9 110-42 0-47-63-36-110-37v79zm0 115c55-2 124 14 124-45 0-56-70-42-124-44v89" id="o"/><use transform="matrix(0.14814814814814817,0,0,0.14814814814814817,0,0)" xlink:href="#o" id="b"/><path fill="#333" d="M27 0v-27h64v-190l-56 39v-29l58-41h29v221h61V0H27" id="p"/><use transform="matrix(0.14814814814814817,0,0,0.14814814814814817,0,0)" xlink:href="#p" id="c"/><path fill="#333" d="M126-127c33 6 58 20 58 59 0 88-139 92-164 29-3-8-5-16-6-25l32-3c6 27 21 44 54 44 32 0 52-15 52-46 0-38-36-46-79-43v-28c39 1 72-4 72-42 0-27-17-43-46-43-28 0-47 15-49 41l-32-3c6-42 35-63 81-64 48-1 79 21 79 65 0 36-21 52-52 59" id="q"/><use transform="matrix(0.14814814814814817,0,0,0.14814814814814817,0,0)" xlink:href="#q" id="d"/><path fill="#0c7cba" d="M160-131c35 5 61 23 61 61C221 17 115-2 30 0v-248c76 3 177-17 177 60 0 33-19 50-47 57zm-97-11c50-1 110 9 110-42 0-47-63-36-110-37v79zm0 115c55-2 124 14 124-45 0-56-70-42-124-44v89" id="r"/><use transform="matrix(0.14814814814814817,0,0,0.14814814814814817,0,0)" xlink:href="#r" id="e"/><path fill="#333" d="M23 0v-37h61v-169l-59 37v-38l62-41h46v211h57V0H23" id="s"/><use transform="matrix(0.05555555555555555,0,0,0.05555555555555555,0,0)" xlink:href="#s" id="f"/><path fill="#333" d="M182-182c0 78-84 86-111 141h115V0H12c-6-101 99-100 120-180 1-22-12-31-33-32-23 0-32 14-35 34l-49-3c5-45 32-70 84-70 51 0 83 22 83 69" id="t"/><use transform="matrix(0.05555555555555555,0,0,0.05555555555555555,0,0)" xlink:href="#t" id="g"/><path fill="#333" d="M128-127c34 4 56 21 59 58 7 91-148 94-172 28-4-9-6-17-7-26l51-5c1 24 16 35 40 36 23 0 39-12 38-36-1-31-31-36-65-34v-40c32 2 59-3 59-33 0-20-13-33-34-33s-33 13-35 32l-50-3c6-44 37-68 86-68 50 0 83 20 83 66 0 35-22 52-53 58" id="u"/><use transform="matrix(0.05555555555555555,0,0,0.05555555555555555,0,0)" xlink:href="#u" id="h"/><path fill="#333" d="M165-50V0h-47v-50H5v-38l105-160h55v161h33v37h-33zm-47-37l2-116L46-87h72" id="v"/><use transform="matrix(0.05555555555555555,0,0,0.05555555555555555,0,0)" xlink:href="#v" id="i"/><path fill="#333" d="M139-81c0-46-55-55-73-27H18l9-140h149v37H72l-4 63c44-38 133-4 122 66C201 21 21 35 11-62l49-4c5 18 15 30 39 30 26 0 40-18 40-45" id="w"/><use transform="matrix(0.05555555555555555,0,0,0.05555555555555555,0,0)" xlink:href="#w" id="j"/><path fill="#c92d39" d="M205 0l-28-72H64L36 0H1l101-248h38L239 0h-34zm-38-99l-47-123c-12 45-31 82-46 123h93" id="x"/><path fill="#c92d39" d="M27 0v-27h64v-190l-56 39v-29l58-41h29v221h61V0H27" id="y"/><g id="k"><use transform="matrix(0.14814814814814817,0,0,0.14814814814814817,0,0)" xlink:href="#x"/><use transform="matrix(0.14814814814814817,0,0,0.14814814814814817,35.55555555555556,0)" xlink:href="#y"/></g><path fill="#0c7cba" d="M205 0l-28-72H64L36 0H1l101-248h38L239 0h-34zm-38-99l-47-123c-12 45-31 82-46 123h93" id="z"/><use transform="matrix(0.14814814814814817,0,0,0.14814814814814817,0,0)" xlink:href="#z" id="l"/><path fill="#c92d39" d="M160-131c35 5 61 23 61 61C221 17 115-2 30 0v-248c76 3 177-17 177 60 0 33-19 50-47 57zm-97-11c50-1 110 9 110-42 0-47-63-36-110-37v79zm0 115c55-2 124 14 124-45 0-56-70-42-124-44v89" id="A"/><path fill="#c92d39" d="M126-127c33 6 58 20 58 59 0 88-139 92-164 29-3-8-5-16-6-25l32-3c6 27 21 44 54 44 32 0 52-15 52-46 0-38-36-46-79-43v-28c39 1 72-4 72-42 0-27-17-43-46-43-28 0-47 15-49 41l-32-3c6-42 35-63 81-64 48-1 79 21 79 65 0 36-21 52-52 59" id="B"/><g id="m"><use transform="matrix(0.14814814814814817,0,0,0.14814814814814817,0,0)" xlink:href="#A"/><use transform="matrix(0.14814814814814817,0,0,0.14814814814814817,35.55555555555556,0)" xlink:href="#B"/></g></defs></g></svg>