<svg xmlns="http://www.w3.org/2000/svg" xmlns:xlink="http://www.w3.org/1999/xlink" xmlns:lucid="lucid" width="2600" height="1720"><g transform="translate(1440 1060)" lucid:page-tab-id="lqkwr2cO5Mky"><path d="M-1140-214c0-3.3 2.7-6 6-6h108c3.3 0 6 2.7 6 6v108c0 3.3-2.7 6-6 6h-108c-3.3 0-6-2.7-6-6zM-1420-214c0-3.3 2.7-6 6-6h108c3.3 0 6 2.7 6 6v108c0 3.3-2.7 6-6 6h-108c-3.3 0-6-2.7-6-6z" stroke="#999" stroke-width="3" fill="#ccc"/><path d="M-1280-214c0-3.3 2.7-6 6-6h108c3.3 0 6 2.7 6 6v108c0 3.3-2.7 6-6 6h-108c-3.3 0-6-2.7-6-6z" stroke="#0c7cba" stroke-width="3" fill="#83bbe5"/><path d="M-1140-74c0-3.3 2.7-6 6-6h108c3.3 0 6 2.7 6 6V34c0 3.3-2.7 6-6 6h-108c-3.3 0-6-2.7-6-6z" stroke="#834187" stroke-width="3" fill="#b391b5"/><path d="M-1280-74c0-3.3 2.7-6 6-6h108c3.3 0 6 2.7 6 6V34c0 3.3-2.7 6-6 6h-108c-3.3 0-6-2.7-6-6z" stroke="#0c7cba" stroke-width="3" fill="#83bbe5"/><path d="M-880-234c0-3.3 2.7-6 6-6h428c3.3 0 6 2.7 6 6V54c0 3.3-2.7 6-6 6h-428c-3.3 0-6-2.7-6-6z" stroke="#83bbe5" stroke-width="3" fill-opacity="0"/><path d="M-720-214c0-3.3 2.7-6 6-6h108c3.3 0 6 2.7 6 6v108c0 3.3-2.7 6-6 6h-108c-3.3 0-6-2.7-6-6zM-720-74c0-3.3 2.7-6 6-6h108c3.3 0 6 2.7 6 6V34c0 3.3-2.7 6-6 6h-108c-3.3 0-6-2.7-6-6z" stroke="#c92d39" stroke-width="3" fill="#ff8f80"/><path d="M-860-214c0-3.3 2.7-6 6-6h108c3.3 0 6 2.7 6 6v108c0 3.3-2.7 6-6 6h-108c-3.3 0-6-2.7-6-6z" stroke="#999" stroke-width="3" fill="#ccc"/><path d="M-580-74c0-3.3 2.7-6 6-6h108c3.3 0 6 2.7 6 6V34c0 3.3-2.7 6-6 6h-108c-3.3 0-6-2.7-6-6z" stroke="#834187" stroke-width="3" fill="#b391b5"/><path d="M100-1014c0-3.3 2.7-6 6-6h108c3.3 0 6 2.7 6 6v108c0 3.3-2.7 6-6 6H106c-3.3 0-6-2.7-6-6zM100-734c0-3.3 2.7-6 6-6h108c3.3 0 6 2.7 6 6v108c0 3.3-2.7 6-6 6H106c-3.3 0-6-2.7-6-6z" stroke="#c92d39" stroke-width="3" fill="#ff8f80"/><path d="M-180-1014c0-3.3 2.7-6 6-6h108c3.3 0 6 2.7 6 6v108c0 3.3-2.7 6-6 6h-108c-3.3 0-6-2.7-6-6z" stroke="#999" stroke-width="3" fill="#ccc"/><path d="M380-734c0-3.3 2.7-6 6-6h108c3.3 0 6 2.7 6 6v108c0 3.3-2.7 6-6 6H386c-3.3 0-6-2.7-6-6z" stroke="#834187" stroke-width="3" fill="#b391b5"/><path d="M-200-1034c0-3.3 2.7-6 6-6h708c3.3 0 6 2.7 6 6v428c0 3.3-2.7 6-6 6h-708c-3.3 0-6-2.7-6-6z" stroke="#83bbe5" stroke-width="3" fill-opacity="0"/><path d="M377.5-717.17h-9.17v-2h9.17zm-18.33 0h-18.34v-2h18.34zm-27.5 0h-18.34v-2h18.34zm-36.6 0h-9.24v-2h9.23zm-18.4 0h-18.34v-2h18.34zm-27.5 0H240v-2h9.17z" stroke="#b2b2b2" stroke-width=".05" fill="#b2b2b2"/><path d="M378.5-717.17h-1.03v-2h1.03z" fill="#b2b2b2"/><path d="M378.52-717.15h-1.07v-2.05h1.07zm-1.02-2v1.95h.98v-1.95z" stroke="#b2b2b2" stroke-width=".05" fill="#b2b2b2"/><path d="M239-713.54l-14.26-4.63L239-722.8z" fill="#b2b2b2"/><path d="M240-712.16l-18.5-6 18.5-6.03zm-12.03-6l10.03 3.24v-6.5z" stroke="#b2b2b2" stroke-width=".05" fill="#b2b2b2"/><use xlink:href="#a" transform="matrix(1,0,0,1,295.0617283950617,-728.8407630689468) translate(0 14.222222222222223)"/><path d="M199.06-742.5h-2v-9.17h2zm0-18.33h-2v-18.34h2zm0-27.5h-2v-18.34h2zm0-42.34h-2v-3.5h2zm0-12.66h-2v-18.34h2zm0-27.5h-2V-880h2z" stroke="#b2b2b2" stroke-width=".05" fill="#b2b2b2"/><path d="M199.06-741.5h-2v-1.03h2z" fill="#b2b2b2"/><path d="M199.1-741.48h-2.06v-1.07h2.05zm-2-1.02v.98h1.94v-.98z" stroke="#b2b2b2" stroke-width=".05" fill="#b2b2b2"/><path d="M202.7-881h-9.27l4.63-14.26z" fill="#b2b2b2"/><path d="M204.07-880h-12.02l6-18.5zm-9.27-2h6.52l-3.26-10.03z" stroke="#b2b2b2" stroke-width=".05" fill="#b2b2b2"/><use xlink:href="#b" transform="matrix(1,0,0,1,193.12233445566818,-830.6666666666666) translate(0 14.222222222222223)"/><path d="M97.5-959h-9.17v-2h9.17zm-18.33 0H60.83v-2h18.34zm-27.5 0H33.33v-2h18.34zm-36.6 0H5.82v-2h9.23zm-18.4 0h-18.34v-2h18.34zm-27.5 0H-40v-2h9.17z" stroke="#b2b2b2" stroke-width=".05" fill="#b2b2b2"/><path d="M98.5-959h-1.03v-2h1.03z" fill="#b2b2b2"/><path d="M98.53-958.98h-1.08V-961h1.08zm-1.03-2v1.96h.97V-961z" stroke="#b2b2b2" stroke-width=".05" fill="#b2b2b2"/><path d="M-41-955.36L-55.26-960l14.26-4.64z" fill="#b2b2b2"/><path d="M-40-954l-18.5-6 18.5-6zm-12.03-6l10.03 3.26v-6.52z" stroke="#b2b2b2" stroke-width=".05" fill="#b2b2b2"/><use xlink:href="#c" transform="matrix(1,0,0,1,15.061728395061728,-970.6666666666666) translate(0 14.222222222222223)"/><path d="M120.4-760h-2v-9.17h2zm0-18.33h-2v-18.34h2zm0-27.5h-2v-3.5h2zm0-27.5h-2v-18.34h2zm0-27.5h-2v-18.34h2zm0-27.5h-2v-9.17h2z" stroke="#b2b2b2" stroke-width=".05" fill="#b2b2b2"/><path d="M120.4-897.47h-2v-1.03h2z" fill="#b2b2b2"/><path d="M120.42-897.45h-2.05v-1.07h2.05zm-2-1.02v.97h1.95v-.98z" stroke="#b2b2b2" stroke-width=".05" fill="#b2b2b2"/><path d="M119.4-744.74L114.75-759h9.27z" fill="#b2b2b2"/><path d="M119.4-741.5l-6.02-18.5h12.03zm-3.26-16.5l3.25 10.03 3.25-10.03z" stroke="#b2b2b2" stroke-width=".05" fill="#b2b2b2"/><use xlink:href="#d" transform="matrix(1,0,0,1,114.45566778900144,-830.6666666666666) translate(0 14.222222222222223)"/><path d="M231.67-641.07h-9.17v-2h9.17zm27.5 0h-18.34v-2h18.34zm27.5 0h-18.34v-2h18.34zm55 0h-18.34v-2h18.34zm18.33 0h-9.17v-2H360zm-45.83 0h-9.23v-2h9.23z" stroke="#b2b2b2" stroke-width=".05" fill="#b2b2b2"/><path d="M222.53-641.07h-1.03v-2h1.03z" fill="#b2b2b2"/><path d="M222.55-641.05h-1.08v-2.05h1.08zm-1.03-2v1.95h.98v-1.95z" stroke="#b2b2b2" stroke-width=".05" fill="#b2b2b2"/><path d="M375.26-642.07L361-637.44v-9.27z" fill="#b2b2b2"/><path d="M378.5-642.07l-18.5 6v-12.02zM362-638.8l10.03-3.27-10.03-3.26z" stroke="#b2b2b2" stroke-width=".05" fill="#b2b2b2"/><use xlink:href="#e" transform="matrix(1,0,0,1,295.0617283950617,-652.7401633082915) translate(0 14.222222222222223)"/><path d="M-1220-223v-71c0-3.3 2.7-6 6-6h548c3.3 0 6 2.7 6 6v31.88" stroke="#83bbe5" stroke-width="3" fill="none"/><path d="M-1218.5-221.5h-3v-1.54h3z" stroke="#83bbe5" stroke-width=".05" fill="#83bbe5"/><path d="M-660-246.35l-4.64-14.27h9.28z" stroke="#83bbe5" stroke-width="3" fill="#83bbe5"/><path d="M720 506c0-3.3 2.7-6 6-6h108c3.3 0 6 2.7 6 6v108c0 3.3-2.7 6-6 6H726c-3.3 0-6-2.7-6-6z" stroke="#7ab648" stroke-width="3" fill="#a3d977"/><path d="M1000 506c0-3.3 2.7-6 6-6h108c3.3 0 6 2.7 6 6v108c0 3.3-2.7 6-6 6h-108c-3.3 0-6-2.7-6-6z" stroke="#834187" stroke-width="3" fill="#b391b5"/><path d="M997.5 522.83h-9.17v-2h9.17zm-18.33 0h-18.34v-2h18.34zm-27.5 0h-18.34v-2h18.34zm-36.6 0h-9.24v-2h9.23zm-18.4 0h-18.34v-2h18.34zm-27.5 0H860v-2h9.17z" stroke="#b2b2b2" stroke-width=".05" fill="#b2b2b2"/><path d="M998.5 522.83h-1.03v-2h1.03z" fill="#b2b2b2"/><path d="M998.52 522.85h-1.07v-2.05h1.07zm-1.02-2v1.95h.98v-1.95z" stroke="#b2b2b2" stroke-width=".05" fill="#b2b2b2"/><path d="M859 526.46l-14.26-4.63L859 517.2z" fill="#b2b2b2"/><path d="M860 527.84l-18.5-6 18.5-6.03zm-12.03-6l10.03 3.24v-6.5z" stroke="#b2b2b2" stroke-width=".05" fill="#b2b2b2"/><use xlink:href="#a" transform="matrix(1,0,0,1,915.0617283950618,511.15923693105316) translate(0 14.222222222222223)"/><path d="M851.67 598.93h-9.17v-2h9.17zm27.5 0h-18.34v-2h18.34zm27.5 0h-18.34v-2h18.34zm55 0h-18.34v-2h18.34zm18.33 0h-9.17v-2H980zm-45.83 0h-9.23v-2h9.23z" stroke="#b2b2b2" stroke-width=".05" fill="#b2b2b2"/><path d="M842.53 598.93h-1.03v-2h1.03z" fill="#b2b2b2"/><path d="M842.55 598.95h-1.07v-2.05h1.07zm-1.02-2v1.95h.97v-1.95z" stroke="#b2b2b2" stroke-width=".05" fill="#b2b2b2"/><path d="M995.26 597.93L981 602.56v-9.27z" fill="#b2b2b2"/><path d="M998.5 597.93l-18.5 6v-12.02zM982 601.2l10.03-3.27-10.03-3.26z" stroke="#b2b2b2" stroke-width=".05" fill="#b2b2b2"/><use xlink:href="#e" transform="matrix(1,0,0,1,915.0617283950618,587.2598366917085) translate(0 14.222222222222223)"/><path d="M480 506c0-3.3 2.7-6 6-6h108c3.3 0 6 2.7 6 6v108c0 3.3-2.7 6-6 6H486c-3.3 0-6-2.7-6-6zM720 226c0-3.3 2.7-6 6-6h108c3.3 0 6 2.7 6 6v108c0 3.3-2.7 6-6 6H726c-3.3 0-6-2.7-6-6z" stroke="#7ab648" stroke-width="3" fill="#a3d977"/><path d="M541.5 477.88h-3v-16h3zm0-31.98h-3v-31.98h3zm0-67h-3v-12.95h3zm0-28.94h-3v-31.98h3zm18.75-68.46H546.2l-2.45.66-1.6 1.6-.65 2.44V302h-3v-16.2l.98-3.6 2.7-2.72 3.62-.98h14.45zm156.75 0h-14.25v-3H717zm-28.5 0H660v-3h28.5zm-42.75 0h-28.5v-3h28.5zm-42.75 0h-28.5v-3H603z" stroke="#b2b2b2" stroke-width=".05" fill="#b2b2b2"/><path d="M718.5 281.5h-1.54v-3h1.54z" fill="#b2b2b2"/><path d="M718.52 281.52h-1.58v-3.04h1.58zm-1.53-3v2.96h1.48v-2.96z" stroke="#b2b2b2" stroke-width=".05" fill="#b2b2b2"/><path d="M540 493.65l-4.64-14.27h9.28z" fill="#b2b2b2"/><path d="M540 498.5l-6.7-20.62h13.4zm-2.57-17.62l2.57 7.9 2.57-7.9z" stroke="#b2b2b2" stroke-width=".05" fill="#b2b2b2"/><use xlink:href="#c" transform="matrix(1,0,0,1,535.0617283950618,378.90909090909173) translate(0 14.222222222222223)"/><path d="M618.8 561.5H603v-3h15.8zm36.26 0h-20.43v-3h20.43zm42.82 0h-15.8v-3h15.8zm-31.63 0h-1.3v-3h1.3z" stroke="#b2b2b2" stroke-width=".05" fill="#b2b2b2"/><path d="M603.04 561.5h-1.54v-3h1.54z" fill="#b2b2b2"/><path d="M603.07 561.52h-1.6v-3.04h1.6zm-1.55-3v2.96h1.5v-2.96z" stroke="#b2b2b2" stroke-width=".05" fill="#b2b2b2"/><path d="M713.65 560l-14.27 4.64v-9.28z" fill="#b2b2b2"/><path d="M718.5 560l-20.62 6.7v-13.4zm-17.62 2.57l7.9-2.57-7.9-2.57z" stroke="#b2b2b2" stroke-width=".05" fill="#b2b2b2"/><use xlink:href="#d" transform="matrix(1,0,0,1,655.0626058862869,549.3333333333335) translate(0 14.222222222222223)"/><path d="M781.5 497h-3v-15h3zm0-29.98h-3v-29.97h3zm0-57.7h-3V392.1h3zm0-32.2h-3v-15h3z" stroke="#b2b2b2" stroke-width=".05" fill="#b2b2b2"/><path d="M781.5 498.5h-3v-1.54h3z" fill="#b2b2b2"/><path d="M781.52 498.52h-3.04v-1.6h3.04zm-3-1.54v1.5h2.96v-1.5z" stroke="#b2b2b2" stroke-width=".05" fill="#b2b2b2"/><path d="M784.64 360.62h-9.28l4.64-14.27z" fill="#b2b2b2"/><path d="M786.7 362.12h-13.4l6.7-20.62zm-9.27-3h5.14l-2.57-7.9z" stroke="#b2b2b2" stroke-width=".05" fill="#b2b2b2"/><use xlink:href="#b" transform="matrix(1,0,0,1,775.0617283950618,409.3321558451083) translate(0 14.222222222222223)"/><path d="M460 206c0-3.3 2.7-6 6-6h668c3.3 0 6 2.7 6 6v428c0 3.3-2.7 6-6 6H466c-3.3 0-6-2.7-6-6zM680-774c0-3.3 2.7-6 6-6h428c3.3 0 6 2.7 6 6v168c0 3.3-2.7 6-6 6H686c-3.3 0-6-2.7-6-6z" stroke="#ff8f80" stroke-width="3" fill-opacity="0"/><path d="M700-1014c0-3.3 2.7-6 6-6h108c3.3 0 6 2.7 6 6v108c0 3.3-2.7 6-6 6H706c-3.3 0-6-2.7-6-6z" stroke="#c92d39" stroke-width="3" fill="#ff8f80"/><path d="M700-734c0-3.3 2.7-6 6-6h108c3.3 0 6 2.7 6 6v108c0 3.3-2.7 6-6 6H706c-3.3 0-6-2.7-6-6z" stroke="#7ab648" stroke-width="3" fill="#a3d977"/><path d="M980-734c0-3.3 2.7-6 6-6h108c3.3 0 6 2.7 6 6v108c0 3.3-2.7 6-6 6H986c-3.3 0-6-2.7-6-6z" stroke="#834187" stroke-width="3" fill="#b391b5"/><path d="M977.5-717.17h-9.17v-2h9.17zm-18.33 0h-18.34v-2h18.34zm-27.5 0h-18.34v-2h18.34zm-36.6 0h-9.24v-2h9.23zm-18.4 0h-18.34v-2h18.34zm-27.5 0H840v-2h9.17z" stroke="#b2b2b2" stroke-width=".05" fill="#b2b2b2"/><path d="M978.5-717.17h-1.03v-2h1.03z" fill="#b2b2b2"/><path d="M978.52-717.15h-1.07v-2.05h1.07zm-1.02-2v1.95h.98v-1.95z" stroke="#b2b2b2" stroke-width=".05" fill="#b2b2b2"/><path d="M839-713.54l-14.26-4.63L839-722.8z" fill="#b2b2b2"/><path d="M840-712.16l-18.5-6 18.5-6.03zm-12.03-6l10.03 3.24v-6.5z" stroke="#b2b2b2" stroke-width=".05" fill="#b2b2b2"/><use xlink:href="#a" transform="matrix(1,0,0,1,895.0617283950618,-728.8407630689468) translate(0 14.222222222222223)"/><path d="M799.06-742.5h-2v-9.17h2zm0-18.33h-2v-18.34h2zm0-27.5h-2v-18.34h2zm0-42.34h-2v-3.5h2zm0-12.66h-2v-18.34h2zm0-27.5h-2V-880h2z" stroke="#b2b2b2" stroke-width=".05" fill="#b2b2b2"/><path d="M799.06-741.5h-2v-1.03h2z" fill="#b2b2b2"/><path d="M799.1-741.48h-2.06v-1.07h2.05zm-2-1.02v.98h1.94v-.98z" stroke="#b2b2b2" stroke-width=".05" fill="#b2b2b2"/><path d="M802.7-881h-9.27l4.63-14.26z" fill="#b2b2b2"/><path d="M804.07-880h-12.02l6-18.5zm-9.27-2h6.52l-3.26-10.03z" stroke="#b2b2b2" stroke-width=".05" fill="#b2b2b2"/><use xlink:href="#b" transform="matrix(1,0,0,1,793.1223344556682,-830.6666666666666) translate(0 14.222222222222223)"/><path d="M720.4-760h-2v-9.17h2zm0-18.33h-2v-18.34h2zm0-27.5h-2v-3.5h2zm0-27.5h-2v-18.34h2zm0-27.5h-2v-18.34h2zm0-27.5h-2v-9.17h2z" stroke="#b2b2b2" stroke-width=".05" fill="#b2b2b2"/><path d="M720.4-897.47h-2v-1.03h2z" fill="#b2b2b2"/><path d="M720.42-897.45h-2.05v-1.07h2.05zm-2-1.02v.97h1.95v-.98z" stroke="#b2b2b2" stroke-width=".05" fill="#b2b2b2"/><path d="M719.4-744.74L714.75-759h9.27z" fill="#b2b2b2"/><path d="M719.4-741.5l-6.02-18.5h12.03zm-3.26-16.5l3.25 10.03 3.25-10.03z" stroke="#b2b2b2" stroke-width=".05" fill="#b2b2b2"/><use xlink:href="#c" transform="matrix(1,0,0,1,714.4556677890015,-830.6666666666666) translate(0 14.222222222222223)"/><path d="M831.67-641.07h-9.17v-2h9.17zm27.5 0h-18.34v-2h18.34zm27.5 0h-18.34v-2h18.34zm55 0h-18.34v-2h18.34zm18.33 0h-9.17v-2H960zm-45.83 0h-9.23v-2h9.23z" stroke="#b2b2b2" stroke-width=".05" fill="#b2b2b2"/><path d="M822.53-641.07h-1.03v-2h1.03z" fill="#b2b2b2"/><path d="M822.55-641.05h-1.07v-2.05h1.07zm-1.02-2v1.95h.97v-1.95z" stroke="#b2b2b2" stroke-width=".05" fill="#b2b2b2"/><path d="M975.26-642.07L961-637.44v-9.27z" fill="#b2b2b2"/><path d="M978.5-642.07l-18.5 6v-12.02zM962-638.8l10.03-3.27-10.03-3.26z" stroke="#b2b2b2" stroke-width=".05" fill="#b2b2b2"/><use xlink:href="#d" transform="matrix(1,0,0,1,895.0617283950618,-652.7401633082915) translate(0 14.222222222222223)"/><path d="M-100 26c0-3.3 2.7-6 6-6H14c3.3 0 6 2.7 6 6v108c0 3.3-2.7 6-6 6H-94c-3.3 0-6-2.7-6-6z" stroke="#c92d39" stroke-width="3" fill="#ff8f80"/><path d="M180 26c0-3.3 2.7-6 6-6h108c3.3 0 6 2.7 6 6v108c0 3.3-2.7 6-6 6H186c-3.3 0-6-2.7-6-6z" stroke="#834187" stroke-width="3" fill="#b391b5"/><path d="M177.5 42.83h-9.17v-2h9.17zm-18.33 0h-18.34v-2h18.34zm-27.5 0h-18.34v-2h18.34zm-36.6 0h-9.24v-2h9.23zm-18.4 0H58.33v-2h18.34zm-27.5 0H40v-2h9.17z" stroke="#b2b2b2" stroke-width=".05" fill="#b2b2b2"/><path d="M178.5 42.83h-1.03v-2h1.03z" fill="#b2b2b2"/><path d="M178.53 42.85h-1.08V40.8h1.08zm-1.03-2v1.95h.97v-1.95z" stroke="#b2b2b2" stroke-width=".05" fill="#b2b2b2"/><path d="M39 46.46l-14.26-4.63L39 37.2z" fill="#b2b2b2"/><path d="M40 47.84l-18.5-6L40 35.8zm-12.03-6L38 45.07v-6.5z" stroke="#b2b2b2" stroke-width=".05" fill="#b2b2b2"/><use xlink:href="#a" transform="matrix(1,0,0,1,95.06172839506172,31.159236931053204) translate(0 14.222222222222223)"/><path d="M31.1 118.93h-8.6v-2h8.6zm25.84 0H39.72v-2h17.22zm25.84 0H65.56v-2h17.22zm12.28 0H91.4v-2h3.66zm44.94 0h-20v-2h20zm20 0h-10v-2h10zm-50 0h-5.06v-2H110z" stroke="#b2b2b2" stroke-width=".05" fill="#b2b2b2"/><path d="M22.53 118.93H21.5v-2h1.03z" fill="#b2b2b2"/><path d="M22.55 118.95h-1.07v-2.05h1.07zm-1.03-2v1.95h.98v-1.95z" stroke="#b2b2b2" stroke-width=".05" fill="#b2b2b2"/><path d="M175.26 117.93L161 122.56v-9.27z" fill="#b2b2b2"/><path d="M178.5 117.93l-18.5 6v-12.02zM162 121.2l10.03-3.27-10.03-3.26z" stroke="#b2b2b2" stroke-width=".05" fill="#b2b2b2"/><use xlink:href="#c" transform="matrix(1,0,0,1,95.06172839506172,107.25983669170851) translate(0 14.222222222222223)"/><path d="M-100 306c0-3.3 2.7-6 6-6H14c3.3 0 6 2.7 6 6v108c0 3.3-2.7 6-6 6H-94c-3.3 0-6-2.7-6-6z" stroke="#0c7cba" stroke-width="3" fill="#83bbe5"/><path d="M-38.5 277.88h-3v-15h3zm0-29.97h-3v-17.23h3zm0-44.95h-3v-29.97h3zm0-44.96h-3v-15h3z" stroke="#b2b2b2" stroke-width=".05" fill="#b2b2b2"/><path d="M-38.5 143.04h-3v-1.54h3z" fill="#b2b2b2"/><path d="M-38.48 143.07h-3.05v-1.6h3.05zm-3-1.54v1.5h2.95v-1.5z" stroke="#b2b2b2" stroke-width=".05" fill="#b2b2b2"/><path d="M-40 293.65l-4.64-14.27h9.28z" fill="#b2b2b2"/><path d="M-40 298.5l-6.7-20.62h13.4zm-2.57-17.62l2.57 7.9 2.57-7.9z" stroke="#b2b2b2" stroke-width=".05" fill="#b2b2b2"/><use xlink:href="#b" transform="matrix(1,0,0,1,-44.93827160493828,209.33451082155844) translate(0 14.222222222222223)"/><path d="M-120 6c0-3.3 2.7-6 6-6h428c3.3 0 6 2.7 6 6v168c0 3.3-2.7 6-6 6h-428c-3.3 0-6-2.7-6-6z" stroke="#83bbe5" stroke-width="3" fill-opacity="0"/><path d="M-437-151.6h13.2m13.23 0h2.64m13.22 0h26.4m13.23 0h2.64m13.22 0h13.2l2.12-.9.88-2.1v-15.7m0-15.7v-3.15m0-15.7v-31.4m0-15.7v-3.14m0-15.7v-31.4m0-15.7v-3.13m0-15.7v-31.4m0-15.7v-3.14m0-15.7v-31.4m0-15.7v-3.14m0-15.7V-500m0-15.7v-3.15m0-15.7v-31.4m0-15.7v-3.13m0-15.7v-31.4m0-15.7v-3.14m0-15.7v-31.4m0-15.7v-3.14m0-15.7v-31.4m0-15.7v-3.14m0-15.7V-814l.56-3.14 1.56-2.66 2.34-1.97 2.92-1.08 1.62-.15h21.88m21.87 0h4.38m21.87 0h21.88" stroke="#99d2f2" stroke-width="3" fill="none"/><path d="M-437-145.6h13.2m13.23 0h2.64m13.22 0h26.4m13.23 0h2.64m13.22 0h13.2l3.14-.57 2.66-1.56 1.97-2.34 1.08-2.92.15-1.6v-15.7m0-15.7v-3.15m0-15.7v-31.4m0-15.7v-3.14m0-15.7v-31.4m0-15.7v-3.13m0-15.7v-31.4m0-15.7v-3.14m0-15.7v-31.4m0-15.7v-3.14m0-15.7V-500m0-15.7v-3.15m0-15.7v-31.4m0-15.7v-3.13m0-15.7v-31.4m0-15.7v-3.14m0-15.7v-31.4m0-15.7v-3.14m0-15.7v-31.4m0-15.7v-3.14m0-15.7V-814l.88-2.12 2.12-.88h21.88m21.87 0h4.38m21.87 0h21.88" stroke="#99d2f2" stroke-width="3" fill="none"/><path d="M-436.96-150.1h-1.54v-3h1.54zM-436.96-144.1h-1.54v-3h1.54z" stroke="#99d2f2" stroke-width=".05" fill="#99d2f2"/><path d="M-206.35-820l-14.27 4.64v-9.28z" stroke="#99d2f2" stroke-width="3" fill="#99d2f2"/><path d="M164.5-426.3l.53 1.27 1.27.53h14.14v3H165.7l-2.97-1.23-1.23-2.97v-13.87h3zm33.27 4.8h-2.9v-3h2.9zm43.33 0h-28.88v-3h28.88zm17.33 0h-2.9v-3h2.9zm43.33 0h-28.9v-3h28.9zm17.33 0h-2.9v-3h2.9zm43.32 0h-28.9v-3h28.9zm17.33 0h-2.9v-3h2.9zm43.32 0H394.2v-3h28.87zm17.33 0h-2.88v-3h2.88zm43.33 0h-28.88v-3h28.88zm17.33 0h-2.9v-3h2.9zm43.33 0h-28.9v-3h28.9zm17.32 0h-2.9v-3h2.9zm43.33 0h-28.9v-3h28.9zm17.33 0h-2.9v-3h2.9zm43.33 0h-28.88v-3h28.9zm17.34 0h-2.9v-3h2.9zm43.32 0h-28.88v-3h28.88zm17.33 0h-2.9v-3h2.9zm43.32 0h-28.88v-3h28.88zm17.33 0h-2.9v-3h2.9zm43.33 0h-28.9v-3h28.9zm17.33 0h-2.88v-3h2.9zm33.4-4.2l-1.24 2.97-2.97 1.23h-14.75v-3h14.15l1.27-.53.53-1.27v-17.78h3zm-733.9-27.44h-3v-2.72h3zm733.9-9.02h-3v-3.62h3zm-733.9-7.27h-3v-27.14h3zm733.9-14.43h-3v-36.16h3zm-733.9-26.28h-3v-2.72h3zm0-16.3h-3v-27.13h3zm733.9-11.66h-3v-3.62h3zm0-21.7h-3v-18.08h3zm-733.9-7.34h-3v-2.72h3zm0-16.3h-3V-597h3z" stroke="#ff8f80" stroke-width=".05" fill="#ff8f80"/><path d="M158.5-426.13l.5 2.74 1.28 2.22 1.94 1.64 2.5.92 1.35.12h14.37v3h-14.5l-1.9-.17-3.35-1.24-2.75-2.32-1.82-3.1-.63-3.55v-13.7h3zm39.27 10.63h-2.9v-3h2.9zm43.33 0h-28.88v-3h28.88zm17.33 0h-2.9v-3h2.9zm43.33 0h-28.9v-3h28.9zm17.33 0h-2.9v-3h2.9zm43.32 0h-28.9v-3h28.9zm17.33 0h-2.9v-3h2.9zm43.32 0H394.2v-3h28.87zm17.33 0h-2.88v-3h2.88zm43.33 0h-28.88v-3h28.88zm17.33 0h-2.9v-3h2.9zm43.33 0h-28.9v-3h28.9zm17.32 0h-2.9v-3h2.9zm43.33 0h-28.9v-3h28.9zm17.33 0h-2.9v-3h2.9zm43.33 0h-28.88v-3h28.9zm17.34 0h-2.9v-3h2.9zm43.32 0h-28.88v-3h28.88zm17.33 0h-2.9v-3h2.9zm43.32 0h-28.88v-3h28.88zm17.33 0h-2.9v-3h2.9zm43.33 0h-28.9v-3h28.9zm17.33 0h-2.88v-3h2.9zm39.4-10.43l-.17 1.88-1.25 3.36-2.3 2.75-3.12 1.82-3.53.63h-14.58v-3h14.3l2.76-.5 2.2-1.28 1.65-1.94.92-2.5.13-1.35v-18h3zm-745.9-27.2h-3v-2.73h3zm745.9-9.03h-3v-3.62h3zm-745.9-7.27h-3v-27.14h3zm745.9-14.43h-3v-36.16h3zm-745.9-26.28h-3v-2.72h3zm0-16.3h-3v-27.13h3zm745.9-11.66h-3v-3.62h3zm0-21.7h-3v-18.08h3zm-745.9-7.34h-3v-2.72h3zm0-16.3h-3V-597h3z" stroke="#ff8f80" stroke-width=".05" fill="#ff8f80"/><path d="M164.5-596.96h-3v-1.54h3z" fill="#ff8f80"/><path d="M164.53-596.94h-3.06v-1.58h3.06zm-3-1.53v1.48h2.94v-1.48z" stroke="#ff8f80" stroke-width=".05" fill="#ff8f80"/><path d="M158.5-596.96h-3v-1.54h3z" fill="#ff8f80"/><path d="M158.53-596.94h-3.06v-1.58h3.06zm-3-1.53v1.48h2.94v-1.48z" stroke="#ff8f80" stroke-width=".05" fill="#ff8f80"/><path d="M904.53-579.38h-9.27l4.64-14.27z" fill="#ff8f80"/><path d="M906.6-577.88h-13.4l6.7-20.62zm-9.28-3h5.15l-2.57-7.9z" stroke="#ff8f80" stroke-width=".05" fill="#ff8f80"/><path d="M-437-60.77h17.98m17.97 0h3.6m17.97 0h35.96m17.97 0h3.6m17.97 0H-286l3.14.56 2.66 1.54 1.97 2.35 1.08 2.9.15 1.63v16.16m0 16.15v3.24m0 16.15v32.33m0 16.16v3.23m0 16.17V84l.88 2.12 2.12.88h15.7m15.7 0h3.14m15.7 0h31.4m15.7 0h3.14m15.7 0h15.7" stroke="#99d2f2" stroke-width="3" fill="none"/><path d="M-437-54.77h17.98m17.97 0h3.6m17.97 0h35.96m17.97 0h3.6m17.97 0H-286l2.12.88.88 2.13v16.16m0 16.15v3.24m0 16.15v32.33m0 16.16v3.23m0 16.17V84l.56 3.14 1.56 2.66 2.34 1.97 2.92 1.08 1.62.15h15.7m15.7 0h3.14m15.7 0h31.4m15.7 0h3.14m15.7 0h15.7" stroke="#99d2f2" stroke-width="3" fill="none"/><path d="M-436.96-59.27h-1.54v-3h1.54zM-436.96-53.27h-1.54v-3h1.54z" stroke="#99d2f2" stroke-width=".05" fill="#99d2f2"/><path d="M-126.35 90l-14.27 4.64v-9.28z" stroke="#99d2f2" stroke-width="3" fill="#99d2f2"/><path d="M804.5 177.88h-3v-14.36h3zm0-28.72h-3v-2.87h3zm0-17.23h-3V103.2h3zm0-43.08h-3v-2.88h3zm0-17.24h-3V42.9h3zm0-43.07h-3v-2.87h3zm0-17.23h-3v-28.72h3zM98.5-3h-3v-14.37h3zm0-28.73h-3v-2.87h3zm706-.05h-3v-2.87h3zm-706-17.2h-3V-77.7h3zm706-.03h-3v-28.73h3zm-706-43.06h-3v-2.88h3zm706-.03h-3v-2.87h3zm-706-17.2h-3v-28.73h3zm706-.03h-3v-28.72h3zm-706-43.07h-3v-2.87h3zm706 0h-3v-2.88h3zm-683.6-39.1h-14.83l-1.35.12-2.5.92-1.94 1.64-1.3 2.2-.48 2.75v14.24h-3v-14.5l.63-3.54 1.82-3.1 2.74-2.32 3.35-1.23 1.88-.17h14.96zm676.77-2.37l3.1 1.82 2.32 2.74 1.23 3.35.17 1.88v14.43h-3v-14.3l-.12-1.34-.92-2.5-1.64-1.94-2.2-1.3-2.75-.48H779.1v-3h15.03zm-658.9 2.37h-3v-3h3zm44.67 0h-29.8v-3h29.8zm17.87 0h-2.97v-3h2.98zm44.68 0H216.2v-3h29.78zm17.87 0h-2.98v-3h2.98zm44.68 0h-29.8v-3h29.8zm17.87 0h-2.98v-3h2.98zm44.67 0H341.3v-3h29.77zm17.87 0h-2.97v-3h2.97zm44.68 0h-29.78v-3h29.78zm17.87 0h-3v-3h3zm44.66 0h-29.78v-3h29.78zm17.87 0h-2.97v-3h2.97zm44.68 0h-29.77v-3h29.78zm17.88 0h-2.98v-3h2.98zm44.68 0h-29.8v-3h29.8zm17.87 0h-2.98v-3h2.98zm44.67 0h-29.78v-3h29.78zm17.87 0h-2.98v-3h2.97zm44.68 0h-29.8v-3h29.8zm17.87 0h-2.98v-3h2.98z" stroke="#ff8f80" stroke-width=".05" fill="#ff8f80"/><path d="M798.5 177.88h-3v-14.36h3zm0-28.72h-3v-2.87h3zm0-17.23h-3V103.2h3zm0-43.08h-3v-2.88h3zm0-17.24h-3V42.9h3zm0-43.07h-3v-2.87h3zm0-17.23h-3v-28.72h3zM104.5-3h-3v-14.37h3zm0-28.73h-3v-2.87h3zm694-.05h-3v-2.87h3zm-694-17.2h-3V-77.7h3zm694-.03h-3v-28.73h3zm-694-43.06h-3v-2.88h3zm694-.03h-3v-2.87h3zm-694-17.2h-3v-28.73h3zm694-.03h-3v-28.72h3zm-694-43.07h-3v-2.87h3zm694 0h-3v-2.88h3zm-677.6-33.1h-14.6l-1.27.53-.53 1.27v14.07h-3v-14.67l1.23-2.97 2.97-1.23h15.2zm676.37-1.77l1.23 2.97v14.66h-3v-14.06l-.53-1.27-1.27-.53h-14.6v-3h15.2zm-658.5 1.77h-3v-3h3zm44.67 0h-29.8v-3h29.8zm17.87 0h-2.97v-3h2.98zm44.68 0H216.2v-3h29.78zm17.87 0h-2.98v-3h2.98zm44.68 0h-29.8v-3h29.8zm17.87 0h-2.98v-3h2.98zm44.67 0H341.3v-3h29.77zm17.87 0h-2.97v-3h2.97zm44.68 0h-29.78v-3h29.78zm17.87 0h-3v-3h3zm44.66 0h-29.78v-3h29.78zm17.87 0h-2.97v-3h2.97zm44.68 0h-29.77v-3h29.78zm17.88 0h-2.98v-3h2.98zm44.68 0h-29.8v-3h29.8zm17.87 0h-2.98v-3h2.98zm44.67 0h-29.78v-3h29.78zm17.87 0h-2.98v-3h2.97zm44.68 0h-29.8v-3h29.8zm17.87 0h-2.98v-3h2.98z" stroke="#ff8f80" stroke-width=".05" fill="#ff8f80"/><path d="M98.5-1.5h-3v-1.54h3z" fill="#ff8f80"/><path d="M98.53-1.48h-3.06v-1.58h3.06zm-3-1.53v1.48h2.94v-1.5z" stroke="#ff8f80" stroke-width=".05" fill="#ff8f80"/><path d="M104.5-1.5h-3v-1.54h3z" fill="#ff8f80"/><path d="M104.53-1.48h-3.06v-1.58h3.06zm-3-1.53v1.48h2.94v-1.5z" stroke="#ff8f80" stroke-width=".05" fill="#ff8f80"/><path d="M800 193.65l-4.64-14.27h9.28z" fill="#ff8f80"/><path d="M800 198.5l-6.7-20.62h13.4zm-2.57-17.62l2.57 7.9 2.57-7.9z" stroke="#ff8f80" stroke-width=".05" fill="#ff8f80"/><defs><path fill="#333" d="M23 0v-37h61v-169l-59 37v-38l62-41h46v211h57V0H23" id="f"/><use transform="matrix(0.04938271604938272,0,0,0.04938271604938272,0,0)" xlink:href="#f" id="a"/><path fill="#333" d="M182-182c0 78-84 86-111 141h115V0H12c-6-101 99-100 120-180 1-22-12-31-33-32-23 0-32 14-35 34l-49-3c5-45 32-70 84-70 51 0 83 22 83 69" id="g"/><use transform="matrix(0.04938271604938272,0,0,0.04938271604938272,0,0)" xlink:href="#g" id="b"/><path fill="#333" d="M128-127c34 4 56 21 59 58 7 91-148 94-172 28-4-9-6-17-7-26l51-5c1 24 16 35 40 36 23 0 39-12 38-36-1-31-31-36-65-34v-40c32 2 59-3 59-33 0-20-13-33-34-33s-33 13-35 32l-50-3c6-44 37-68 86-68 50 0 83 20 83 66 0 35-22 52-53 58" id="h"/><use transform="matrix(0.04938271604938272,0,0,0.04938271604938272,0,0)" xlink:href="#h" id="c"/><path fill="#333" d="M165-50V0h-47v-50H5v-38l105-160h55v161h33v37h-33zm-47-37l2-116L46-87h72" id="i"/><use transform="matrix(0.04938271604938272,0,0,0.04938271604938272,0,0)" xlink:href="#i" id="d"/><path fill="#333" d="M139-81c0-46-55-55-73-27H18l9-140h149v37H72l-4 63c44-38 133-4 122 66C201 21 21 35 11-62l49-4c5 18 15 30 39 30 26 0 40-18 40-45" id="j"/><use transform="matrix(0.04938271604938272,0,0,0.04938271604938272,0,0)" xlink:href="#j" id="e"/></defs></g></svg>