<svg xmlns="http://www.w3.org/2000/svg" xmlns:lucid="lucid" width="1740" height="1340"><g lucid:page-tab-id="3Cjw1oxO2XAD"><path d="M980 506c0-3.3 2.7-6 6-6h108c3.3 0 6 2.7 6 6v108c0 3.3-2.7 6-6 6H986c-3.3 0-6-2.7-6-6zM700 506c0-3.3 2.7-6 6-6h108c3.3 0 6 2.7 6 6v108c0 3.3-2.7 6-6 6H706c-3.3 0-6-2.7-6-6z" stroke="#999" stroke-width="3" fill="#ccc"/><path d="M840 506c0-3.3 2.7-6 6-6h108c3.3 0 6 2.7 6 6v108c0 3.3-2.7 6-6 6H846c-3.3 0-6-2.7-6-6z" stroke="#0c7cba" stroke-width="3" fill="#83bbe5"/><path d="M980 646c0-3.3 2.7-6 6-6h108c3.3 0 6 2.7 6 6v108c0 3.3-2.7 6-6 6H986c-3.3 0-6-2.7-6-6z" stroke="#834187" stroke-width="3" fill="#b391b5"/><path d="M840 646c0-3.3 2.7-6 6-6h108c3.3 0 6 2.7 6 6v108c0 3.3-2.7 6-6 6H846c-3.3 0-6-2.7-6-6z" stroke="#0c7cba" stroke-width="3" fill="#83bbe5"/><path d="M840 786c0-3.3 2.7-6 6-6h108c3.3 0 6 2.7 6 6v108c0 3.3-2.7 6-6 6H846c-3.3 0-6-2.7-6-6z" stroke="#834187" stroke-width="3" fill="#b391b5"/><path d="M700 646c0-3.3 2.7-6 6-6h108c3.3 0 6 2.7 6 6v108c0 3.3-2.7 6-6 6H706c-3.3 0-6-2.7-6-6z" stroke="#0c7cba" stroke-width="3" fill="#83bbe5"/><path d="M980 786c0-3.3 2.7-6 6-6h108c3.3 0 6 2.7 6 6v108c0 3.3-2.7 6-6 6H986c-3.3 0-6-2.7-6-6z" stroke="#999" stroke-width="3" fill="#ccc"/><path d="M560 646c0-3.3 2.7-6 6-6h108c3.3 0 6 2.7 6 6v108c0 3.3-2.7 6-6 6H566c-3.3 0-6-2.7-6-6z" stroke="#834187" stroke-width="3" fill="#b391b5"/><path d="M700 786c0-3.3 2.7-6 6-6h108c3.3 0 6 2.7 6 6v108c0 3.3-2.7 6-6 6H706c-3.3 0-6-2.7-6-6z" stroke="#0c7cba" stroke-width="3" fill="#83bbe5"/><path d="M700 926c0-3.3 2.7-6 6-6h108c3.3 0 6 2.7 6 6v108c0 3.3-2.7 6-6 6H706c-3.3 0-6-2.7-6-6z" stroke="#999" stroke-width="3" fill="#ccc"/><path d="M1120 646c0-3.3 2.7-6 6-6h108c3.3 0 6 2.7 6 6v108c0 3.3-2.7 6-6 6h-108c-3.3 0-6-2.7-6-6z" stroke="#0c7cba" stroke-width="3" fill="#83bbe5"/><path d="M180 1046c0-3.3 2.7-6 6-6h108c3.3 0 6 2.7 6 6v108c0 3.3-2.7 6-6 6H186c-3.3 0-6-2.7-6-6z" stroke="#834187" stroke-width="3" fill="#b391b5"/><path d="M320 1046c0-3.3 2.7-6 6-6h108c3.3 0 6 2.7 6 6v108c0 3.3-2.7 6-6 6H326c-3.3 0-6-2.7-6-6z" stroke="#999" stroke-width="3" fill="#ccc"/><path d="M40 1046c0-3.3 2.7-6 6-6h108c3.3 0 6 2.7 6 6v108c0 3.3-2.7 6-6 6H46c-3.3 0-6-2.7-6-6z" stroke="#0c7cba" stroke-width="3" fill="#83bbe5"/><path d="M40 1186c0-3.3 2.7-6 6-6h108c3.3 0 6 2.7 6 6v108c0 3.3-2.7 6-6 6H46c-3.3 0-6-2.7-6-6z" stroke="#999" stroke-width="3" fill="#ccc"/><path d="M20 1026c0-3.3 2.7-6 6-6h428c3.3 0 6 2.7 6 6v288c0 3.3-2.7 6-6 6H26c-3.3 0-6-2.7-6-6z" fill-opacity="0"/><path d="M55.12 1020h2.9m14.57 0h29.1m14.56 0h2.9m14.57 0h29.1m14.57 0h2.9m14.57 0H224m14.54 0h2.92m14.55 0h29.13m14.56 0h2.9m14.56 0h29.1m14.57 0h2.9m14.57 0h29.1m14.57 0h2.9m14.57 0H454l3.03.82 2.15 2.15.82 3.03v13.7m0 13.73v2.74m0 13.72v27.4m0 13.73v2.74m0 13.72v27.4m0 13.73v2.74m0 13.72v27.4m0 13.73v2.74m0 13.72v27.4m0 13.73v2.74m0 13.72v13.7l-.82 3.03-2.15 2.15-3.03.82h-14.56m-14.56 0h-2.9m-14.57 0h-29.1m-14.56 0h-2.9m-14.57 0h-29.1m-14.57 0h-2.9m-14.57 0H256m-14.54 0h-2.92m-14.55 0h-29.13m-14.56 0h-2.9m-14.56 0h-29.1m-14.57 0h-2.9m-14.57 0H72.6m-14.57 0h-2.9m-14.57 0H26l-3.03-.82-2.15-2.15L20 1314v-13.7m0-13.73v-2.74m0-13.72v-27.4m0-13.73v-2.74m0-13.72v-27.4m0-13.73v-2.74m0-13.72v-27.4m0-13.73v-2.74m0-13.72v-27.4m0-13.73v-2.74m0-13.72V1026l.82-3.03 2.15-2.15L26 1020h14.56" stroke="#b2b2b2" stroke-width="3" fill="none"/><path d="M1440 846c0-3.3 2.7-6 6-6h108c3.3 0 6 2.7 6 6v108c0 3.3-2.7 6-6 6h-108c-3.3 0-6-2.7-6-6z" stroke="#834187" stroke-width="3" fill="#b391b5"/><path d="M1440 986c0-3.3 2.7-6 6-6h108c3.3 0 6 2.7 6 6v108c0 3.3-2.7 6-6 6h-108c-3.3 0-6-2.7-6-6z" stroke="#999" stroke-width="3" fill="#ccc"/><path d="M1580 846c0-3.3 2.7-6 6-6h108c3.3 0 6 2.7 6 6v108c0 3.3-2.7 6-6 6h-108c-3.3 0-6-2.7-6-6z" stroke="#0c7cba" stroke-width="3" fill="#83bbe5"/><path d="M1420 826c0-3.3 2.7-6 6-6h288c3.3 0 6 2.7 6 6v288c0 3.3-2.7 6-6 6h-288c-3.3 0-6-2.7-6-6z" fill-opacity="0"/><path d="M1453.43 820h2.74m13.72 0h27.4m13.73 0h2.74m13.72 0h27.4m13.73 0h2.74m13.72 0h27.4m13.73 0h2.74m13.72 0h27.4m13.73 0h2.74m13.72 0h13.7l3.03.82 2.15 2.15.82 3.03v13.7m0 13.73v2.74m0 13.72v27.4m0 13.73v2.74m0 13.72v27.4m0 13.73v2.74m0 13.72v27.4m0 13.73v2.74m0 13.72v27.4m0 13.73v2.74m0 13.72v13.7l-.82 3.03-2.15 2.15-3.03.82h-13.7m-13.73 0h-2.74m-13.72 0h-27.4m-13.73 0h-2.74m-13.72 0h-27.4m-13.73 0h-2.74m-13.72 0h-27.4m-13.73 0h-2.74m-13.72 0h-27.4m-13.73 0h-2.74m-13.72 0H1426l-3.03-.82-2.15-2.15-.82-3.03v-13.7m0-13.73v-2.74m0-13.72v-27.4m0-13.73v-2.74m0-13.72v-27.4m0-13.73v-2.74m0-13.72v-27.4m0-13.73v-2.74m0-13.72v-27.4m0-13.73v-2.74m0-13.72V826l.82-3.03 2.15-2.15 3.03-.82h13.7" stroke="#b2b2b2" stroke-width="3" fill="none"/><path d="M1540 126c0-3.3 2.7-6 6-6h108c3.3 0 6 2.7 6 6v108c0 3.3-2.7 6-6 6h-108c-3.3 0-6-2.7-6-6zM1260 126c0-3.3 2.7-6 6-6h108c3.3 0 6 2.7 6 6v108c0 3.3-2.7 6-6 6h-108c-3.3 0-6-2.7-6-6z" stroke="#999" stroke-width="3" fill="#ccc"/><path d="M1400 126c0-3.3 2.7-6 6-6h108c3.3 0 6 2.7 6 6v108c0 3.3-2.7 6-6 6h-108c-3.3 0-6-2.7-6-6z" stroke="#0c7cba" stroke-width="3" fill="#83bbe5"/><path d="M1540 266c0-3.3 2.7-6 6-6h108c3.3 0 6 2.7 6 6v108c0 3.3-2.7 6-6 6h-108c-3.3 0-6-2.7-6-6z" stroke="#834187" stroke-width="3" fill="#b391b5"/><path d="M1240 106c0-3.3 2.7-6 6-6h428c3.3 0 6 2.7 6 6v288c0 3.3-2.7 6-6 6h-428c-3.3 0-6-2.7-6-6z" fill-opacity="0"/><path d="M1275.12 100h2.9m14.57 0h29.1m14.56 0h2.9m14.57 0h29.1m14.57 0h2.9m14.57 0H1444m14.54 0h2.92m14.55 0h29.13m14.56 0h2.9m14.56 0h29.1m14.57 0h2.9m14.57 0h29.1m14.57 0h2.9m14.57 0H1674l3.03.82 2.15 2.15.82 3.03v13.7m0 13.73v2.74m0 13.72v27.4m0 13.73v2.74m0 13.72v27.4m0 13.73v2.74m0 13.72v27.4m0 13.73v2.74m0 13.72v27.4m0 13.73v2.74m0 13.72V394l-.82 3.03-2.15 2.15-3.03.82h-14.56m-14.56 0h-2.9m-14.57 0h-29.1m-14.56 0h-2.9m-14.57 0h-29.1m-14.57 0h-2.9m-14.57 0H1476m-14.54 0h-2.92m-14.55 0h-29.13m-14.56 0h-2.9m-14.56 0h-29.1m-14.57 0h-2.9m-14.57 0h-29.1m-14.57 0h-2.9m-14.57 0H1246l-3.03-.82-2.15-2.15-.82-3.03v-13.7m0-13.73v-2.74m0-13.72v-27.4m0-13.73v-2.74m0-13.72v-27.4m0-13.73v-2.74m0-13.72v-27.4m0-13.73v-2.74m0-13.72v-27.4m0-13.73v-2.74m0-13.72V106l.82-3.03 2.15-2.15 3.03-.82h14.56" stroke="#b2b2b2" stroke-width="3" fill="none"/><path d="M320 46c0-3.3 2.7-6 6-6h108c3.3 0 6 2.7 6 6v108c0 3.3-2.7 6-6 6H326c-3.3 0-6-2.7-6-6z" stroke="#999" stroke-width="3" fill="#ccc"/><path d="M320 186c0-3.3 2.7-6 6-6h108c3.3 0 6 2.7 6 6v108c0 3.3-2.7 6-6 6H326c-3.3 0-6-2.7-6-6z" stroke="#0c7cba" stroke-width="3" fill="#83bbe5"/><path d="M180 186c0-3.3 2.7-6 6-6h108c3.3 0 6 2.7 6 6v108c0 3.3-2.7 6-6 6H186c-3.3 0-6-2.7-6-6z" stroke="#834187" stroke-width="3" fill="#b391b5"/><path d="M320 326c0-3.3 2.7-6 6-6h108c3.3 0 6 2.7 6 6v108c0 3.3-2.7 6-6 6H326c-3.3 0-6-2.7-6-6z" stroke="#0c7cba" stroke-width="3" fill="#83bbe5"/><path d="M160 26c0-3.3 2.7-6 6-6h288c3.3 0 6 2.7 6 6v428c0 3.3-2.7 6-6 6H166c-3.3 0-6-2.7-6-6z" fill-opacity="0"/><path d="M193.43 20h2.74m13.72 0h27.4m13.73 0h2.74m13.72 0h27.4m13.73 0h2.74m13.72 0h27.4m13.73 0h2.74m13.72 0h27.4m13.73 0h2.74m13.72 0H454l3.03.82 2.15 2.15L460 26v14.56m0 14.56v2.9m0 14.57v29.1m0 14.56v2.9m0 14.57v29.1m0 14.57v2.9m0 14.57V224m0 14.54v2.92m0 14.55v29.13m0 14.56v2.9m0 14.56v29.1m0 14.57v2.9m0 14.57v29.1m0 14.57v2.9m0 14.57V454l-.82 3.03-2.15 2.15-3.03.82h-13.7m-13.73 0h-2.74m-13.72 0h-27.4m-13.73 0h-2.74m-13.72 0h-27.4m-13.73 0h-2.74m-13.72 0h-27.4m-13.73 0h-2.74m-13.72 0h-27.4m-13.73 0h-2.74m-13.72 0H166l-3.03-.82-2.15-2.15L160 454v-14.56m0-14.56v-2.9m0-14.57v-29.1m0-14.56v-2.9m0-14.57v-29.1m0-14.57v-2.9m0-14.57V256m0-14.54v-2.92m0-14.55v-29.13m0-14.56v-2.9m0-14.56v-29.1m0-14.57v-2.9m0-14.57V72.6m0-14.57v-2.9m0-14.57V26l.82-3.03 2.15-2.15L166 20h13.7" stroke="#b2b2b2" stroke-width="3" fill="none"/></g></svg>