<svg xmlns="http://www.w3.org/2000/svg" xmlns:xlink="http://www.w3.org/1999/xlink" xmlns:lucid="lucid" width="2020" height="1200"><g transform="translate(1440 740)" lucid:page-tab-id="Gikwr4v9_7VF"><path d="M-1140-214c0-3.3 2.7-6 6-6h108c3.3 0 6 2.7 6 6v108c0 3.3-2.7 6-6 6h-108c-3.3 0-6-2.7-6-6zM-1420-214c0-3.3 2.7-6 6-6h108c3.3 0 6 2.7 6 6v108c0 3.3-2.7 6-6 6h-108c-3.3 0-6-2.7-6-6z" stroke="#999" stroke-width="3" fill="#ccc"/><path d="M-1280-214c0-3.3 2.7-6 6-6h108c3.3 0 6 2.7 6 6v108c0 3.3-2.7 6-6 6h-108c-3.3 0-6-2.7-6-6z" stroke="#0c7cba" stroke-width="3" fill="#83bbe5"/><path d="M-1140-74c0-3.3 2.7-6 6-6h108c3.3 0 6 2.7 6 6V34c0 3.3-2.7 6-6 6h-108c-3.3 0-6-2.7-6-6z" stroke="#834187" stroke-width="3" fill="#b391b5"/><path d="M-1280-74c0-3.3 2.7-6 6-6h108c3.3 0 6 2.7 6 6V34c0 3.3-2.7 6-6 6h-108c-3.3 0-6-2.7-6-6z" stroke="#0c7cba" stroke-width="3" fill="#83bbe5"/><path d="M-880-234c0-3.3 2.7-6 6-6h428c3.3 0 6 2.7 6 6V54c0 3.3-2.7 6-6 6h-428c-3.3 0-6-2.7-6-6z" stroke="#83bbe5" stroke-width="3" fill-opacity="0"/><path d="M-720-214c0-3.3 2.7-6 6-6h108c3.3 0 6 2.7 6 6v108c0 3.3-2.7 6-6 6h-108c-3.3 0-6-2.7-6-6zM-720-74c0-3.3 2.7-6 6-6h108c3.3 0 6 2.7 6 6V34c0 3.3-2.7 6-6 6h-108c-3.3 0-6-2.7-6-6z" stroke="#c92d39" stroke-width="3" fill="#ff8f80"/><path d="M-860-214c0-3.3 2.7-6 6-6h108c3.3 0 6 2.7 6 6v108c0 3.3-2.7 6-6 6h-108c-3.3 0-6-2.7-6-6z" stroke="#999" stroke-width="3" fill="#ccc"/><path d="M-580-74c0-3.3 2.7-6 6-6h108c3.3 0 6 2.7 6 6V34c0 3.3-2.7 6-6 6h-108c-3.3 0-6-2.7-6-6z" stroke="#834187" stroke-width="3" fill="#b391b5"/><path d="M140-694c0-3.3 2.7-6 6-6h108c3.3 0 6 2.7 6 6v108c0 3.3-2.7 6-6 6H146c-3.3 0-6-2.7-6-6zM140-414c0-3.3 2.7-6 6-6h108c3.3 0 6 2.7 6 6v108c0 3.3-2.7 6-6 6H146c-3.3 0-6-2.7-6-6z" stroke="#c92d39" stroke-width="3" fill="#ff8f80"/><path d="M-140-694c0-3.3 2.7-6 6-6h108c3.3 0 6 2.7 6 6v108c0 3.3-2.7 6-6 6h-108c-3.3 0-6-2.7-6-6z" stroke="#999" stroke-width="3" fill="#ccc"/><path d="M420-414c0-3.3 2.7-6 6-6h108c3.3 0 6 2.7 6 6v108c0 3.3-2.7 6-6 6H426c-3.3 0-6-2.7-6-6z" stroke="#834187" stroke-width="3" fill="#b391b5"/><path d="M-160-714c0-3.3 2.7-6 6-6h708c3.3 0 6 2.7 6 6v428c0 3.3-2.7 6-6 6h-708c-3.3 0-6-2.7-6-6z" stroke="#83bbe5" stroke-width="3" fill-opacity="0"/><path d="M417.5-397.17h-9.17v-2h9.17zm-18.33 0h-18.34v-2h18.34zm-27.5 0h-18.34v-2h18.34zm-36.6 0h-9.24v-2h9.23zm-18.4 0h-18.34v-2h18.34zm-27.5 0H280v-2h9.17z" stroke="#b2b2b2" stroke-width=".05" fill="#b2b2b2"/><path d="M418.5-397.17h-1.03v-2h1.03z" fill="#b2b2b2"/><path d="M418.52-397.15h-1.07v-2.05h1.07zm-1.02-2v1.95h.98v-1.95z" stroke="#b2b2b2" stroke-width=".05" fill="#b2b2b2"/><path d="M279-393.54l-14.26-4.63L279-402.8z" fill="#b2b2b2"/><path d="M280-392.16l-18.5-6 18.5-6.03zm-12.03-6l10.03 3.24v-6.5z" stroke="#b2b2b2" stroke-width=".05" fill="#b2b2b2"/><use xlink:href="#a" transform="matrix(1,0,0,1,335.0617283950617,-408.84076306894684) translate(0 14.222222222222223)"/><path d="M239.06-422.5h-2v-9.17h2zm0-18.33h-2v-18.34h2zm0-27.5h-2v-18.34h2zm0-42.34h-2v-3.5h2zm0-12.66h-2v-18.34h2zm0-27.5h-2V-560h2z" stroke="#b2b2b2" stroke-width=".05" fill="#b2b2b2"/><path d="M239.06-421.5h-2v-1.03h2z" fill="#b2b2b2"/><path d="M239.1-421.48h-2.06v-1.07h2.05zm-2-1.02v.98h1.94v-.98z" stroke="#b2b2b2" stroke-width=".05" fill="#b2b2b2"/><path d="M242.7-561h-9.27l4.63-14.26z" fill="#b2b2b2"/><path d="M244.07-560h-12.02l6-18.5zm-9.27-2h6.52l-3.26-10.03z" stroke="#b2b2b2" stroke-width=".05" fill="#b2b2b2"/><use xlink:href="#b" transform="matrix(1,0,0,1,233.12233445566818,-510.6666666666667) translate(0 14.222222222222223)"/><path d="M137.5-639h-9.17v-2h9.17zm-18.33 0h-18.34v-2h18.34zm-27.5 0H73.33v-2h18.34zm-36.6 0h-9.24v-2h9.23zm-18.4 0H18.33v-2h18.34zm-27.5 0H0v-2h9.17z" stroke="#b2b2b2" stroke-width=".05" fill="#b2b2b2"/><path d="M138.5-639h-1.03v-2h1.03z" fill="#b2b2b2"/><path d="M138.53-638.98h-1.08V-641h1.08zm-1.03-2v1.96h.97V-641z" stroke="#b2b2b2" stroke-width=".05" fill="#b2b2b2"/><path d="M-1-635.36L-15.26-640-1-644.64z" fill="#b2b2b2"/><path d="M0-634l-18.5-6L0-646zm-12.03-6L-2-636.74v-6.52z" stroke="#b2b2b2" stroke-width=".05" fill="#b2b2b2"/><use xlink:href="#c" transform="matrix(1,0,0,1,55.06172839506173,-650.6666666666666) translate(0 14.222222222222223)"/><path d="M160.4-440h-2v-9.17h2zm0-18.33h-2v-18.34h2zm0-27.5h-2v-3.5h2zm0-27.5h-2v-18.34h2zm0-27.5h-2v-18.34h2zm0-27.5h-2v-9.17h2z" stroke="#b2b2b2" stroke-width=".05" fill="#b2b2b2"/><path d="M160.4-577.47h-2v-1.03h2z" fill="#b2b2b2"/><path d="M160.42-577.45h-2.05v-1.07h2.05zm-2-1.02v.97h1.95v-.98z" stroke="#b2b2b2" stroke-width=".05" fill="#b2b2b2"/><path d="M159.4-424.74L154.75-439h9.27z" fill="#b2b2b2"/><path d="M159.4-421.5l-6.02-18.5h12.03zm-3.26-16.5l3.25 10.03 3.25-10.03z" stroke="#b2b2b2" stroke-width=".05" fill="#b2b2b2"/><use xlink:href="#d" transform="matrix(1,0,0,1,154.45566778900144,-510.6666666666667) translate(0 14.222222222222223)"/><path d="M271.67-321.07h-9.17v-2h9.17zm27.5 0h-18.34v-2h18.34zm27.5 0h-18.34v-2h18.34zm55 0h-18.34v-2h18.34zm18.33 0h-9.17v-2H400zm-45.83 0h-9.23v-2h9.23z" stroke="#b2b2b2" stroke-width=".05" fill="#b2b2b2"/><path d="M262.53-321.07h-1.03v-2h1.03z" fill="#b2b2b2"/><path d="M262.55-321.05h-1.07v-2.05h1.07zm-1.03-2v1.95h.98v-1.95z" stroke="#b2b2b2" stroke-width=".05" fill="#b2b2b2"/><path d="M415.26-322.07L401-317.44v-9.27z" fill="#b2b2b2"/><path d="M418.5-322.07l-18.5 6v-12.02zM402-318.8l10.03-3.27-10.03-3.26z" stroke="#b2b2b2" stroke-width=".05" fill="#b2b2b2"/><use xlink:href="#e" transform="matrix(1,0,0,1,335.0617283950617,-332.7401633082915) translate(0 14.222222222222223)"/><path d="M-1220-223v-71c0-3.3 2.7-6 6-6h548c3.3 0 6 2.7 6 6v31.88" stroke="#83bbe5" stroke-width="3" fill="none"/><path d="M-1218.5-221.5h-3v-1.54h3z" stroke="#83bbe5" stroke-width=".05" fill="#83bbe5"/><path d="M-660-246.35l-4.64-14.27h9.28z" stroke="#83bbe5" stroke-width="3" fill="#83bbe5"/><path d="M0 46c0-3.3 2.7-6 6-6h108c3.3 0 6 2.7 6 6v108c0 3.3-2.7 6-6 6H6c-3.3 0-6-2.7-6-6z" stroke="#c92d39" stroke-width="3" fill="#ff8f80"/><path d="M280 46c0-3.3 2.7-6 6-6h108c3.3 0 6 2.7 6 6v108c0 3.3-2.7 6-6 6H286c-3.3 0-6-2.7-6-6z" stroke="#834187" stroke-width="3" fill="#b391b5"/><path d="M277.5 62.83h-9.17v-2h9.17zm-18.33 0h-18.34v-2h18.34zm-27.5 0h-18.34v-2h18.34zm-36.6 0h-9.24v-2h9.23zm-18.4 0h-18.34v-2h18.34zm-27.5 0H140v-2h9.17z" stroke="#b2b2b2" stroke-width=".05" fill="#b2b2b2"/><path d="M278.5 62.83h-1.03v-2h1.03z" fill="#b2b2b2"/><path d="M278.52 62.85h-1.07V60.8h1.07zm-1.02-2v1.95h.98v-1.95z" stroke="#b2b2b2" stroke-width=".05" fill="#b2b2b2"/><path d="M139 66.46l-14.26-4.63L139 57.2z" fill="#b2b2b2"/><path d="M140 67.84l-18.5-6L140 55.8zm-12.03-6L138 65.07v-6.5z" stroke="#b2b2b2" stroke-width=".05" fill="#b2b2b2"/><use xlink:href="#a" transform="matrix(1,0,0,1,195.06172839506172,51.1592369310532) translate(0 14.222222222222223)"/><path d="M131.1 138.93h-8.6v-2h8.6zm25.84 0h-17.22v-2h17.22zm25.84 0h-17.22v-2h17.22zm12.28 0h-3.67v-2h3.66zm44.94 0h-20v-2h20zm20 0h-10v-2h10zm-50 0h-5.06v-2H210z" stroke="#b2b2b2" stroke-width=".05" fill="#b2b2b2"/><path d="M122.53 138.93h-1.03v-2h1.03z" fill="#b2b2b2"/><path d="M122.55 138.95h-1.08v-2.05h1.08zm-1.02-2v1.95h.97v-1.95z" stroke="#b2b2b2" stroke-width=".05" fill="#b2b2b2"/><path d="M275.26 137.93L261 142.56v-9.27z" fill="#b2b2b2"/><path d="M278.5 137.93l-18.5 6v-12.02zM262 141.2l10.03-3.27-10.03-3.26z" stroke="#b2b2b2" stroke-width=".05" fill="#b2b2b2"/><use xlink:href="#c" transform="matrix(1,0,0,1,195.06172839506172,127.25983669170851) translate(0 14.222222222222223)"/><path d="M0 326c0-3.3 2.7-6 6-6h108c3.3 0 6 2.7 6 6v108c0 3.3-2.7 6-6 6H6c-3.3 0-6-2.7-6-6z" stroke="#0c7cba" stroke-width="3" fill="#83bbe5"/><path d="M61.5 297.88h-3v-15h3zm0-29.97h-3v-17.23h3zm0-44.95h-3v-29.97h3zm0-44.96h-3v-15h3z" stroke="#b2b2b2" stroke-width=".05" fill="#b2b2b2"/><path d="M61.5 163.04h-3v-1.54h3z" fill="#b2b2b2"/><path d="M61.52 163.07h-3.05v-1.6h3.05zm-3-1.54v1.5h2.95v-1.5z" stroke="#b2b2b2" stroke-width=".05" fill="#b2b2b2"/><path d="M60 313.65l-4.64-14.27h9.28z" fill="#b2b2b2"/><path d="M60 318.5l-6.7-20.62h13.4zm-2.57-17.62l2.57 7.9 2.57-7.9z" stroke="#b2b2b2" stroke-width=".05" fill="#b2b2b2"/><use xlink:href="#b" transform="matrix(1,0,0,1,55.06172839506173,229.33451082155844) translate(0 14.222222222222223)"/><path d="M-20 26c0-3.3 2.7-6 6-6h428c3.3 0 6 2.7 6 6v168c0 3.3-2.7 6-6 6H-14c-3.3 0-6-2.7-6-6z" stroke="#83bbe5" stroke-width="3" fill-opacity="0"/><path d="M-437-145.8h15.02m15.03 0h3m15.03 0h30.04m15.03 0h3m15.03 0h30.04m15.03 0h3m15.03 0h30.04m15.03 0h3m15.03 0h30.04m15.03 0h3m15.03 0h30.04m15.03 0h3m15.03 0h30.04m15.03 0h3m15.03 0h30.04m15.03 0h3m15.03 0h30.04m15.03 0h3m15.03 0h30.04m15.03 0h3m15.03 0H194l2.12-.87.88-2.12v-12.98m0-12.98v-2.6m0-13v-25.96m0-13v-2.6m0-12.97v-12.98" stroke="#99d2f2" stroke-width="3" fill="none"/><path d="M-437-139.8h15.02m15.03 0h3m15.03 0h30.04m15.03 0h3m15.03 0h30.04m15.03 0h3m15.03 0h30.04m15.03 0h3m15.03 0h30.04m15.03 0h3m15.03 0h30.04m15.03 0h3m15.03 0h30.04m15.03 0h3m15.03 0h30.04m15.03 0h3m15.03 0h30.04m15.03 0h3m15.03 0h30.04m15.03 0h3m15.03 0H194l3.14-.55 2.66-1.56 1.97-2.35 1.08-2.92.15-1.62v-12.98m0-12.98v-2.6m0-13v-25.96m0-13v-2.6m0-12.97v-12.98" stroke="#99d2f2" stroke-width="3" fill="none"/><path d="M-436.96-144.3h-1.54v-3h1.54zM-436.96-138.3h-1.54v-3h1.54z" stroke="#99d2f2" stroke-width=".05" fill="#99d2f2"/><path d="M200-273.65l4.64 14.27h-9.28z" stroke="#99d2f2" stroke-width="3" fill="#99d2f2"/><path d="M197.67-43.33l3.1 1.8 2.32 2.75 1.23 3.36.17 1.9v31.4h-3V-33.4l-.12-1.35-.92-2.5-1.64-1.94-2.2-1.28-2.75-.5h-14.9v-3h15.16zm-619.65 2.36H-437v-3h15.02zm18.03 0h-3v-3h3zm45.07 0h-30.04v-3h30.04zm18.03 0h-3v-3h3zm45.07 0h-30.04v-3h30.04zm18.03 0h-3v-3h3zm45.07 0h-30.04v-3h30.04zm18.03 0h-3v-3h3zm45.07 0h-30.04v-3h30.04zm18.03 0h-3v-3h3zm45.07 0h-30.04v-3h30.04zm18.03 0h-3v-3h3zm45.07 0h-30.04v-3h30.04zm18.03 0h-3v-3h3zm45.07 0h-30.04v-3h30.04zm18.03 0h-3v-3h3zm45.07 0H52.78v-3h30.04zm18.03 0h-3v-3h3zm45.07 0h-30.04v-3h30.04zm18.03 0h-3v-3h3z" stroke="#99d2f2" stroke-width=".05" fill="#99d2f2"/><path d="M197.27-36.74l1.23 2.97v31.65h-3v-31.05l-.53-1.27-1.27-.53h-14.72v-3h15.32zm-619.25 1.77H-437v-3h15.02zm18.03 0h-3v-3h3zm45.07 0h-30.04v-3h30.04zm18.03 0h-3v-3h3zm45.07 0h-30.04v-3h30.04zm18.03 0h-3v-3h3zm45.07 0h-30.04v-3h30.04zm18.03 0h-3v-3h3zm45.07 0h-30.04v-3h30.04zm18.03 0h-3v-3h3zm45.07 0h-30.04v-3h30.04zm18.03 0h-3v-3h3zm45.07 0h-30.04v-3h30.04zm18.03 0h-3v-3h3zm45.07 0h-30.04v-3h30.04zm18.03 0h-3v-3h3zm45.07 0H52.78v-3h30.04zm18.03 0h-3v-3h3zm45.07 0h-30.04v-3h30.04zm18.03 0h-3v-3h3z" stroke="#99d2f2" stroke-width=".05" fill="#99d2f2"/><path d="M-436.96-40.97h-1.54v-3h1.54z" fill="#99d2f2"/><path d="M-436.94-40.94h-1.58V-44h1.58zm-1.54-3V-41h1.5v-2.94z" stroke="#99d2f2" stroke-width=".05" fill="#99d2f2"/><path d="M-436.96-34.97h-1.54v-3h1.54z" fill="#99d2f2"/><path d="M-436.94-34.94h-1.58V-38h1.58zm-1.54-3V-35h1.5v-2.94z" stroke="#99d2f2" stroke-width=".05" fill="#99d2f2"/><path d="M200 13.65L195.36-.62h9.28z" fill="#99d2f2"/><path d="M200 18.5l-6.7-20.62h13.4zM197.43.88l2.57 7.9 2.57-7.9z" stroke="#99d2f2" stroke-width=".05" fill="#99d2f2"/><defs><path fill="#333" d="M23 0v-37h61v-169l-59 37v-38l62-41h46v211h57V0H23" id="f"/><use transform="matrix(0.04938271604938272,0,0,0.04938271604938272,0,0)" xlink:href="#f" id="a"/><path fill="#333" d="M182-182c0 78-84 86-111 141h115V0H12c-6-101 99-100 120-180 1-22-12-31-33-32-23 0-32 14-35 34l-49-3c5-45 32-70 84-70 51 0 83 22 83 69" id="g"/><use transform="matrix(0.04938271604938272,0,0,0.04938271604938272,0,0)" xlink:href="#g" id="b"/><path fill="#333" d="M128-127c34 4 56 21 59 58 7 91-148 94-172 28-4-9-6-17-7-26l51-5c1 24 16 35 40 36 23 0 39-12 38-36-1-31-31-36-65-34v-40c32 2 59-3 59-33 0-20-13-33-34-33s-33 13-35 32l-50-3c6-44 37-68 86-68 50 0 83 20 83 66 0 35-22 52-53 58" id="h"/><use transform="matrix(0.04938271604938272,0,0,0.04938271604938272,0,0)" xlink:href="#h" id="c"/><path fill="#333" d="M165-50V0h-47v-50H5v-38l105-160h55v161h33v37h-33zm-47-37l2-116L46-87h72" id="i"/><use transform="matrix(0.04938271604938272,0,0,0.04938271604938272,0,0)" xlink:href="#i" id="d"/><path fill="#333" d="M139-81c0-46-55-55-73-27H18l9-140h149v37H72l-4 63c44-38 133-4 122 66C201 21 21 35 11-62l49-4c5 18 15 30 39 30 26 0 40-18 40-45" id="j"/><use transform="matrix(0.04938271604938272,0,0,0.04938271604938272,0,0)" xlink:href="#j" id="e"/></defs></g></svg>