<svg xmlns="http://www.w3.org/2000/svg" xmlns:xlink="http://www.w3.org/1999/xlink" version="1.1" viewBox="0 0 3841.000429535021 1748.0002218910336" style="background: #ffffff"><g id="v-3"  transform="matrix(1,0,0,1,0,0)"><g id="j_19"    transform="translate(20,1703.0002218910336)"><g id="v-286"><text  id="v-287" font-size="22px" y="0.8em" xml:space="preserve" font-weight="normal" text-anchor="start" fill="#aaaaaa" pointer-events="none" font-family="Open Sans" transform="matrix(1,0,0,1,0,0)" display="block"><tspan id="v-288"  dy="0em" x="0">Thursday, January 12, 2023 at 1:00 PM Central European Standard Time</tspan></text></g></g><g id="j_18"    transform="translate(20,1657.0002218910336)"><g id="v-282"><text  id="v-283" font-size="36px" y="0.8em" xml:space="preserve" font-weight="normal" text-anchor="start" fill="#000000" pointer-events="none" font-family="Open Sans" transform="matrix(1,0,0,1,0,0)" display="block"><tspan id="v-284"  dy="0em" x="0">[Deployment] - prod</tspan></text></g></g><g id="j_6"    transform="translate(1136,494)" style=""><g  id="v-100" style="opacity: 1;"><rect  id="v-101" width="1622" height="729" rx="10" ry="10" fill="#ffffff" stroke="#888888" stroke-width="5" pointer-events="none"></rect><text  id="v-102" font-size="24px" y="690" xml:space="preserve" font-weight="normal" text-anchor="start" pointer-events="visible" font-family="Open Sans" fill="#000000" transform="matrix(1,0,0,1,15,0)" style="fill: rgb(0, 0, 0);"><tspan id="v-106"  dy="0em" x="0">Backend</tspan></text><text  id="v-103" font-size="19px" y="714" xml:space="preserve" font-weight="normal" text-anchor="start" pointer-events="visible" font-family="Open Sans" fill="#000000" transform="matrix(1,0,0,1,15,0)" style="fill: rgb(0, 0, 0);"><tspan id="v-107"  dy="0em" x="0">[Deployment Node: Azure]</tspan></text><text  id="v-104" font-size="40px" y="714" display="none" xml:space="preserve" font-weight="normal" fill="#000000" text-anchor="end" pointer-events="visible" font-family="Open Sans" transform="matrix(1,0,0,1,1607,0)"><tspan id="v-108"  dy="0em" x="0" style="fill-opacity: 0; stroke-opacity: 0;">-</tspan></text><image  id="v-105" pointer-events="visible"></image></g></g><g id="j_7"    transform="translate(1186,544)" style=""><g  id="v-110" style="opacity: 1;"><rect  id="v-111" width="1522" height="586" rx="10" ry="10" fill="#ffffff" stroke="#888888" stroke-width="5" pointer-events="none"></rect><text  id="v-112" font-size="24px" y="547" xml:space="preserve" font-weight="normal" text-anchor="start" pointer-events="visible" font-family="Open Sans" fill="#000000" transform="matrix(1,0,0,1,15,0)" style="fill: rgb(0, 0, 0);"><tspan id="v-116"  dy="0em" x="0">Orchestration</tspan></text><text  id="v-113" font-size="19px" y="571" xml:space="preserve" font-weight="normal" text-anchor="start" pointer-events="visible" font-family="Open Sans" fill="#000000" transform="matrix(1,0,0,1,15,0)" style="fill: rgb(0, 0, 0);"><tspan id="v-117"  dy="0em" x="0">[Deployment Node: Kubernetes]</tspan></text><text  id="v-114" font-size="40px" y="571" display="none" xml:space="preserve" font-weight="normal" fill="#000000" text-anchor="end" pointer-events="visible" font-family="Open Sans" transform="matrix(1,0,0,1,1507,0)"><tspan id="v-118"  dy="0em" x="0" style="fill-opacity: 0; stroke-opacity: 0;">-</tspan></text><image  id="v-115" pointer-events="visible"></image></g></g><g id="j_9"    transform="translate(199,199)" style=""><g  id="v-130" style="opacity: 1;"><rect  id="v-131" width="650" height="586" rx="10" ry="10" fill="#ffffff" stroke="#888888" stroke-width="5" pointer-events="none"></rect><text  id="v-132" font-size="24px" y="547" xml:space="preserve" font-weight="normal" text-anchor="start" pointer-events="visible" font-family="Open Sans" fill="#000000" transform="matrix(1,0,0,1,15,0)" style="fill: rgb(0, 0, 0);"><tspan id="v-136"  dy="0em" x="0">Matt workstation</tspan></text><text  id="v-133" font-size="19px" y="571" xml:space="preserve" font-weight="normal" text-anchor="start" pointer-events="visible" font-family="Open Sans" fill="#000000" transform="matrix(1,0,0,1,15,0)" style="fill: rgb(0, 0, 0);"><tspan id="v-137"  dy="0em" x="0">[Deployment Node: Microsoft Windows 10]</tspan></text><text  id="v-134" font-size="40px" y="571" display="none" xml:space="preserve" font-weight="normal" fill="#000000" text-anchor="end" pointer-events="visible" font-family="Open Sans" transform="matrix(1,0,0,1,635,0)"><tspan id="v-138"  dy="0em" x="0" style="fill-opacity: 0; stroke-opacity: 0;">-</tspan></text><image  id="v-135" pointer-events="visible"></image></g></g><g id="j_13"    transform="translate(324,954)" style=""><g  id="v-170" style="opacity: 1;"><rect  id="v-171" width="400" height="593" rx="10" ry="10" fill="#ffffff" stroke="#888888" stroke-width="5" pointer-events="none"></rect><text  id="v-172" font-size="24px" y="554" xml:space="preserve" font-weight="normal" text-anchor="start" pointer-events="visible" font-family="Open Sans" fill="#000000" transform="matrix(1,0,0,1,15,0)" style="fill: rgb(0, 0, 0);"><tspan id="v-176"  dy="0em" x="0">Mobile device</tspan></text><text  id="v-173" font-size="19px" y="578" xml:space="preserve" font-weight="normal" text-anchor="start" pointer-events="visible" font-family="Open Sans" fill="#000000" transform="matrix(1,0,0,1,15,0)" style="fill: rgb(0, 0, 0);"><tspan id="v-177"  dy="0em" x="0">[Deployment Node: Android]</tspan></text><text  id="v-174" font-size="40px" y="578" display="none" xml:space="preserve" font-weight="normal" fill="#000000" text-anchor="end" pointer-events="visible" font-family="Open Sans" transform="matrix(1,0,0,1,385,0)"><tspan id="v-178"  dy="0em" x="0" style="fill-opacity: 0; stroke-opacity: 0;">-</tspan></text><image  id="v-175" pointer-events="visible"></image></g></g><g id="j_12"    transform="translate(3090,594)" style=""><g  id="v-160" style="opacity: 1;"><rect  id="v-161" width="550" height="443" rx="10" ry="10" fill="#ffffff" stroke="#888888" stroke-width="5" pointer-events="none"></rect><text  id="v-162" font-size="24px" y="404" xml:space="preserve" font-weight="normal" text-anchor="start" pointer-events="visible" font-family="Open Sans" fill="#000000" transform="matrix(1,0,0,1,15,0)" style="fill: rgb(0, 0, 0);"><tspan id="v-166"  dy="0em" x="0">Simon workstation</tspan></text><text  id="v-163" font-size="19px" y="428" xml:space="preserve" font-weight="normal" text-anchor="start" pointer-events="visible" font-family="Open Sans" fill="#000000" transform="matrix(1,0,0,1,15,0)" style="fill: rgb(0, 0, 0);"><tspan id="v-167"  dy="0em" x="0">[Deployment Node: Microsoft Windows 10]</tspan></text><text  id="v-164" font-size="40px" y="428" display="none" xml:space="preserve" font-weight="normal" fill="#000000" text-anchor="end" pointer-events="visible" font-family="Open Sans" transform="matrix(1,0,0,1,535,0)"><tspan id="v-168"  dy="0em" x="0" style="fill-opacity: 0; stroke-opacity: 0;">-</tspan></text><image  id="v-165" pointer-events="visible"></image></g></g><g id="j_11"    transform="translate(2108,594)" style="" ><g  id="v-150" style="opacity: 1;"><rect  id="v-151" width="550" height="443" rx="10" ry="10" fill="#ffffff" stroke="#888888" stroke-width="5" pointer-events="none"></rect><text  id="v-152" font-size="24px" y="404" xml:space="preserve" font-weight="normal" text-anchor="start" pointer-events="visible" font-family="Open Sans" fill="#000000" transform="matrix(1,0,0,1,15,0)" style="fill: rgb(0, 0, 0);"><tspan id="v-156"  dy="0em" x="0">mongo:latest</tspan></text><text  id="v-153" font-size="19px" y="428" xml:space="preserve" font-weight="normal" text-anchor="start" pointer-events="visible" font-family="Open Sans" fill="#000000" transform="matrix(1,0,0,1,15,0)" style="fill: rgb(0, 0, 0);"><tspan id="v-157"  dy="0em" x="0">[Deployment Node: Docker]</tspan></text><text  id="v-154" font-size="40px" y="428" display="none" xml:space="preserve" font-weight="normal" fill="#000000" text-anchor="end" pointer-events="visible" font-family="Open Sans" transform="matrix(1,0,0,1,535,0)"><tspan id="v-158"  dy="0em" x="0" style="fill-opacity: 0; stroke-opacity: 0;">-</tspan></text><image  id="v-155" pointer-events="visible"></image></g></g><g id="j_10"    transform="translate(249,249)" style=""><g  id="v-140" style="opacity: 1;"><rect  id="v-141" width="550" height="443" rx="10" ry="10" fill="#ffffff" stroke="#888888" stroke-width="5" pointer-events="none"></rect><text  id="v-142" font-size="24px" y="404" xml:space="preserve" font-weight="normal" text-anchor="start" pointer-events="visible" font-family="Open Sans" fill="#000000" transform="matrix(1,0,0,1,15,0)" style="fill: rgb(0, 0, 0);"><tspan id="v-146"  dy="0em" x="0">Web browser</tspan></text><text  id="v-143" font-size="19px" y="428" xml:space="preserve" font-weight="normal" text-anchor="start" pointer-events="visible" font-family="Open Sans" fill="#000000" transform="matrix(1,0,0,1,15,0)" style="fill: rgb(0, 0, 0);"><tspan id="v-147"  dy="0em" x="0">[Deployment Node: Opera]</tspan></text><text  id="v-144" font-size="40px" y="428" display="none" xml:space="preserve" font-weight="normal" fill="#000000" text-anchor="end" pointer-events="visible" font-family="Open Sans" transform="matrix(1,0,0,1,535,0)"><tspan id="v-148"  dy="0em" x="0" style="fill-opacity: 0; stroke-opacity: 0;">-</tspan></text><image  id="v-145" pointer-events="visible"></image></g></g><g id="j_8"    transform="translate(1236,594)" style=""><g  id="v-120" style="opacity: 1;"><rect  id="v-121" width="550" height="443" rx="10" ry="10" fill="#ffffff" stroke="#888888" stroke-width="5" pointer-events="none"></rect><text  id="v-122" font-size="24px" y="404" xml:space="preserve" font-weight="normal" text-anchor="start" pointer-events="visible" font-family="Open Sans" fill="#000000" transform="matrix(1,0,0,1,15,0)" style="fill: rgb(0, 0, 0);"><tspan id="v-126"  dy="0em" x="0">mcr.microsoft.com/dotnet/aspnet:6.0</tspan></text><text  id="v-123" font-size="19px" y="428" xml:space="preserve" font-weight="normal" text-anchor="start" pointer-events="visible" font-family="Open Sans" fill="#000000" transform="matrix(1,0,0,1,15,0)" style="fill: rgb(0, 0, 0);"><tspan id="v-127"  dy="0em" x="0">[Deployment Node: Docker]</tspan></text><text  id="v-124" font-size="40px" y="428" display="none" xml:space="preserve" font-weight="normal" fill="#000000" text-anchor="end" pointer-events="visible" font-family="Open Sans" transform="matrix(1,0,0,1,535,0)"><tspan id="v-128"  dy="0em" x="0" style="fill-opacity: 0; stroke-opacity: 0;">-</tspan></text><image  id="v-125" pointer-events="visible"></image></g></g><g id="j_1"    transform="translate(374,1004)" style=""><g  id="v-12" style="opacity: 1;"><rect  id="v-13" rx="20" ry="20" stroke="#c92d39" stroke-width="2" pointer-events="visiblePainted" fill="#c92d39" width="300" height="450" style="fill: rgb(201, 45, 57); stroke: rgb(201, 45, 57);"></rect><rect  id="v-14" rx="5" ry="5" stroke="#c92d39" stroke-width="0" pointer-events="visiblePainted" fill="#ffd9d9" width="280" height="370" x="10" y="40" style="fill: rgb(255, 217, 217);"></rect><ellipse  id="v-20" fill="#ffd9d9" cx="150" cy="430" rx="10" ry="10" style="fill: rgb(255, 217, 217);"></ellipse><line  style="stroke-width: 2px; stroke: rgb(255, 217, 217);" id="v-21" stroke="#ffd9d9" x1="125" y1="20" x2="175" y2="20"></line><text  id="v-15" font-size="34" y="0.8em" xml:space="preserve" font-weight="bold" text-anchor="middle" pointer-events="visible" font-family="Open Sans" fill="#000000" transform="matrix(1,0,0,1,150,86.9)" style="fill: rgb(0, 0, 0);"><tspan id="v-22"  dy="0em" x="0">Mobile</tspan><tspan id="v-23"  dy="1.2em" x="0">application</tspan></text><text  id="v-16" font-size="19" y="0.8em" xml:space="preserve" text-anchor="middle" font-family="Open Sans" fill="#000000" transform="matrix(1,0,0,1,150,171.9)" style="fill: rgb(0, 0, 0);"><tspan id="v-24"  dy="0em" x="0">from MILA</tspan><tspan id="v-25"  dy="1.2em" x="0">[Container: Xamarin]</tspan></text><text  id="v-17" font-size="24" y="0.8em" xml:space="preserve" text-anchor="middle" font-family="Open Sans" fill="#000000" transform="matrix(1,0,0,1,150,243.1)" style="fill: rgb(0, 0, 0);"><tspan id="v-26"  dy="0em" x="0">Provides uncluttered</tspan><tspan id="v-27"  dy="1.2em" x="0">interface to ease</tspan><tspan id="v-28"  dy="1.2em" x="0">pictures shooting,</tspan><tspan id="v-29"  dy="1.2em" x="0">stiching &amp; uploading.</tspan></text><text  id="v-18" font-weight="bold" text-anchor="middle" font-family="Open Sans" fill="#000000" font-size="24" transform="matrix(1,0,0,1,150,405)" style="fill: rgb(0, 0, 0);" display="none"></text><image  id="v-19"></image></g></g><g id="j_2"    transform="translate(1286,644)" style=""><g  id="v-33" style="opacity: 1;"><rect  id="v-34" rx="1" ry="1" stroke="#c92d39" stroke-width="8" pointer-events="visiblePainted" fill="#ffd9d9" width="450" height="300" style="fill: rgb(255, 217, 217); stroke: rgb(201, 45, 57);"></rect><text  id="v-35" font-size="34" y="0.8em" xml:space="preserve" font-weight="bold" text-anchor="middle" pointer-events="visible" font-family="Open Sans" fill="#000000" transform="matrix(1,0,0,1,225,18.1)" style="fill: rgb(0, 0, 0);"><tspan id="v-40"  dy="0em" x="0">API application</tspan></text><text  id="v-36" font-size="19" y="0.8em" xml:space="preserve" text-anchor="middle" font-family="Open Sans" fill="#000000" transform="matrix(1,0,0,1,225,60.6)" style="fill: rgb(0, 0, 0);"><tspan id="v-41"  dy="0em" x="0">from MILA</tspan><tspan id="v-42"  dy="1.2em" x="0">[Container]</tspan></text><text  id="v-37" font-size="24" y="0.8em" xml:space="preserve" text-anchor="middle" font-family="Open Sans" fill="#000000" transform="matrix(1,0,0,1,225,131.9)" style="fill: rgb(0, 0, 0);"><tspan id="v-43"  dy="0em" x="0">Extracts spatially varying</tspan><tspan id="v-44"  dy="1.2em" x="0">BRDF-Cook-Torrance with normals,</tspan><tspan id="v-45"  dy="1.2em" x="0">diffuse, roughness &amp; specular maps</tspan><tspan id="v-46"  dy="1.2em" x="0">from pictures set leveraring deep</tspan><tspan id="v-47"  dy="1.2em" x="0">neural network.</tspan></text><text  id="v-38" font-weight="bold" text-anchor="middle" font-family="Open Sans" fill="#000000" font-size="24" transform="matrix(1,0,0,1,225,270)" style="fill: rgb(0, 0, 0);" display="none"></text><image  id="v-39"></image></g></g><g id="j_3"    transform="translate(299,299)" style=""><g  id="v-51" style="opacity: 1;"><rect  id="v-52" rx="10" ry="10" stroke="#c92d39" stroke-width="2" pointer-events="visiblePainted" fill="#c92d39" width="450" height="300" style="fill: rgb(201, 45, 57); stroke: rgb(201, 45, 57);"></rect><rect  id="v-53" rx="10" ry="10" stroke="#c92d39" stroke-width="0" pointer-events="visiblePainted" fill="#ffd9d9" width="430" height="250" x="10" y="40" style="fill: rgb(255, 217, 217);"></rect><ellipse  id="v-60" fill="#ffd9d9" cx="20" cy="20" rx="10" ry="10" style="fill: rgb(255, 217, 217);"></ellipse><ellipse  id="v-61" fill="#ffd9d9" cx="50" cy="20" rx="10" ry="10" style="fill: rgb(255, 217, 217);"></ellipse><ellipse  id="v-62" fill="#ffd9d9" cx="80" cy="20" rx="10" ry="10" style="fill: rgb(255, 217, 217);"></ellipse><rect  id="v-54" rx="10" ry="10" stroke="#444444" stroke-width="0" pointer-events="visiblePainted" fill="#ffd9d9" width="340" height="20" x="100" y="10" style="fill: rgb(255, 217, 217);"></rect><text  id="v-55" font-size="34" y="0.8em" xml:space="preserve" font-weight="bold" text-anchor="middle" pointer-events="visible" font-family="Open Sans" fill="#000000" transform="matrix(1,0,0,1,225,83.1)" style="fill: rgb(0, 0, 0);"><tspan id="v-63"  dy="0em" x="0">Web application</tspan></text><text  id="v-56" font-size="19" y="0.8em" xml:space="preserve" text-anchor="middle" font-family="Open Sans" fill="#000000" transform="matrix(1,0,0,1,225,125.6)" style="fill: rgb(0, 0, 0);"><tspan id="v-64"  dy="0em" x="0">from MILA</tspan><tspan id="v-65"  dy="1.2em" x="0">[Container: Blazor]</tspan></text><text  id="v-57" font-size="24" y="0.8em" xml:space="preserve" text-anchor="middle" font-family="Open Sans" fill="#000000" transform="matrix(1,0,0,1,225,196.9)" style="fill: rgb(0, 0, 0);"><tspan id="v-66"  dy="0em" x="0">Provides limited facilities to upload</tspan><tspan id="v-67"  dy="1.2em" x="0">constrained pictures set.</tspan></text><text  id="v-58" font-weight="bold" text-anchor="middle" font-family="Open Sans" fill="#000000" font-size="24" transform="matrix(1,0,0,1,225,270)" style="fill: rgb(0, 0, 0);" display="none"></text><image  id="v-59"></image></g></g><g id="j_4"    transform="translate(2158,644)" style=""><g  id="v-71" style="opacity: 1;"><path  d="M 0,30 a 225,30 0,0,0 450 0 a 225,30 0,0,0 -450 0 l 0,240 a 225,30 0,0,0 450 0 l 0,-240" id="v-72" stroke="#c92d39" stroke-width="8" pointer-events="visiblePainted" fill="#ffd9d9" style="fill: rgb(255, 217, 217); stroke: rgb(201, 45, 57);"></path><rect  id="v-73" stroke-width="0" pointer-events="visiblePainted" fill="none" stroke="none" width="450" height="270" x="0" y="30"></rect><text  id="v-74" font-size="34px" y="0.8em" xml:space="preserve" font-weight="bold" text-anchor="middle" pointer-events="visible" font-family="Open Sans" fill="#000000" transform="matrix(1,0,0,1,225,78.1)" style="fill: rgb(0, 0, 0);"><tspan id="v-79"  dy="0em" x="0">Materials store</tspan></text><text  id="v-75" font-size="19px" y="0.8em" xml:space="preserve" text-anchor="middle" font-family="Open Sans" fill="#000000" transform="matrix(1,0,0,1,225,120.6)" style="fill: rgb(0, 0, 0);"><tspan id="v-80"  dy="0em" x="0">from MILA</tspan><tspan id="v-81"  dy="1.2em" x="0">[Container: MongoDB]</tspan></text><text  id="v-76" font-size="24px" y="0.8em" xml:space="preserve" text-anchor="middle" font-family="Open Sans" fill="#000000" transform="matrix(1,0,0,1,225,191.9)" style="fill: rgb(0, 0, 0);"><tspan id="v-82"  dy="0em" x="0">Stores enriched materials &amp; supplies</tspan><tspan id="v-83"  dy="1.2em" x="0">powerful queries API.</tspan></text><text  id="v-77" font-weight="bold" text-anchor="middle" font-family="Open Sans" fill="#000000" font-size="24" transform="matrix(1,0,0,1,225,273)" style="fill: rgb(0, 0, 0);" display="none"></text><image  id="v-78"></image></g></g><g id="j_5"    transform="translate(3140,644)" style="" ><g  id="v-87" style="opacity: 1;"><rect  id="v-88" rx="1" ry="1" stroke="#666666" stroke-width="8" pointer-events="visiblePainted" fill="#f5f5f5" width="450" height="300" style="fill: rgb(245, 245, 245); stroke: rgb(102, 102, 102);"></rect><text  id="v-89" font-size="34" y="0.8em" xml:space="preserve" font-weight="bold" text-anchor="middle" pointer-events="visible" font-family="Open Sans" fill="#000000" transform="matrix(1,0,0,1,225,75)" style="fill: rgb(0, 0, 0);"><tspan id="v-94"  dy="0em" x="0">Icarus</tspan></text><text  id="v-90" font-size="19" y="0.8em" xml:space="preserve" text-anchor="middle" font-family="Open Sans" fill="#000000" transform="matrix(1,0,0,1,225,117.5)" style="fill: rgb(0, 0, 0);"><tspan id="v-95"  dy="0em" x="0">[Software System]</tspan></text><text  id="v-91" font-size="24" y="0.8em" xml:space="preserve" text-anchor="middle" font-family="Open Sans" fill="#000000" transform="matrix(1,0,0,1,225,165)" style="fill: rgb(0, 0, 0);"><tspan id="v-96"  dy="0em" x="0">Provides powerful facilities to work</tspan><tspan id="v-97"  dy="1.2em" x="0">with physics materials.</tspan></text><text  id="v-92" font-weight="bold" text-anchor="middle" font-family="Open Sans" fill="#000000" font-size="24" transform="matrix(1,0,0,1,225,270)" y="0.8em" xml:space="preserve" display="none" style="fill: rgb(0, 0, 0);"><tspan id="v-98"  dy="0em" x="0">#</tspan></text><image  id="v-93"></image></g></g><g id="j_14"   ><path  stroke="#707070" id="v-198" stroke-width="2" stroke-dasharray="30 30" fill="none" d="M 749 528 1267 708" style="opacity: 1;"></path><path  fill="black" stroke="black" transform="translate(749,528) scale(1,1) rotate(19.19970703125003)"></path><path  fill="#707070" stroke="#707070" id="v-200" d="M 20 0 L 0 10 L 20 20 z" transform="translate(1282.711440144158,724.4437618037989) scale(1,1) rotate(-160.80030822753906)" style="opacity: 1;"></path><path  id="v-199" fill="none" d="M 749 528 1267 708" style=""></path><title ></title><g ><g  id="v-186" label-idx="0" cursor="move" transform="translate(1008, 618)" style="opacity: 1;"><rect id="v-188" fill="#ffffff" rx="3" ry="3" stroke="#ffffff" stroke-width="20px" pointer-events="none" width="189.652099609375" height="32.437599182128906" transform="matrix(1,0,0,1,-93.9,-16.2)"></rect><text id="v-187" font-size="24px" y="0.8em" xml:space="preserve" text-anchor="middle" pointer-events="none" fill="#707070" font-family="Open Sans" font-weight="normal" transform="matrix(1,0,0,1,0,-11.1)"><tspan id="v-189"  dy="0em" x="0">makes API call to</tspan></text></g><g  id="v-190" label-idx="1" cursor="move" transform="translate(1008, 649.2)" style="opacity: 1;"><rect id="v-192" fill="#ffffff" rx="3" ry="3" pointer-events="none" width="0" height="0" transform="matrix(1,0,0,1,0,0)"></rect><text id="v-191" font-size="19px" y="0.8em" display="none" xml:space="preserve" text-anchor="middle" pointer-events="none" fill="#707070" font-family="Open Sans" font-weight="normal" transform="matrix(1,0,0,1,0,0)"><tspan id="v-193"  dy="0em" x="0" style="fill-opacity: 0; stroke-opacity: 0;">-</tspan></text></g><g  id="v-194" label-idx="2" cursor="move" transform="translate(1008, 673.2)" style="opacity: 1;"><rect id="v-196" fill="#ffffff" rx="3" ry="3" pointer-events="none"  display="none" width="0" height="0" transform="matrix(1,0,0,1,0,0)"></rect><text id="v-195" font-size="19px" y="0.8em" display="none" xml:space="preserve" text-anchor="middle" pointer-events="none" fill="#707070" font-family="Open Sans" font-weight="normal"  transform="matrix(1,0,0,1,0,0)"><tspan id="v-197"  dy="0em" x="0" style="fill-opacity: 0; stroke-opacity: 0;">-</tspan></text></g></g><g  display="none"></g><g  id="v-202" display="none"><g  id="v-183"><path  end="source" d="M 26 0 L 0 13 L 26 26 z"></path></g><g  id="v-184"><path  end="target" d="M 26 0 L 0 13 L 26 26 z"></path></g></g><g  id="v-201" display="none"><g  id="v-182" transform="translate(786.7838134765625, 541.1295166015625) "><g  event="remove"><circle r="11"></circle><path transform="scale(.8) translate(-16, -16)" d="M24.778,21.419 19.276,15.917 24.777,10.415 21.949,7.585 16.447,13.087 10.945,7.585 8.117,10.415 13.618,15.917 8.116,21.419 10.946,24.248 16.447,18.746 21.948,24.248z"></path><title>Remove link.</title></g><g  event="link:options"><circle r="11" transform="translate(25)"></circle><path fill="white" transform="scale(.55) translate(29, -16)" d="M31.229,17.736c0.064-0.571,0.104-1.148,0.104-1.736s-0.04-1.166-0.104-1.737l-4.377-1.557c-0.218-0.716-0.504-1.401-0.851-2.05l1.993-4.192c-0.725-0.91-1.549-1.734-2.458-2.459l-4.193,1.994c-0.647-0.347-1.334-0.632-2.049-0.849l-1.558-4.378C17.165,0.708,16.588,0.667,16,0.667s-1.166,0.041-1.737,0.105L12.707,5.15c-0.716,0.217-1.401,0.502-2.05,0.849L6.464,4.005C5.554,4.73,4.73,5.554,4.005,6.464l1.994,4.192c-0.347,0.648-0.632,1.334-0.849,2.05l-4.378,1.557C0.708,14.834,0.667,15.412,0.667,16s0.041,1.165,0.105,1.736l4.378,1.558c0.217,0.715,0.502,1.401,0.849,2.049l-1.994,4.193c0.725,0.909,1.549,1.733,2.459,2.458l4.192-1.993c0.648,0.347,1.334,0.633,2.05,0.851l1.557,4.377c0.571,0.064,1.148,0.104,1.737,0.104c0.588,0,1.165-0.04,1.736-0.104l1.558-4.377c0.715-0.218,1.399-0.504,2.049-0.851l4.193,1.993c0.909-0.725,1.733-1.549,2.458-2.458l-1.993-4.193c0.347-0.647,0.633-1.334,0.851-2.049L31.229,17.736zM16,20.871c-2.69,0-4.872-2.182-4.872-4.871c0-2.69,2.182-4.872,4.872-4.872c2.689,0,4.871,2.182,4.871,4.872C20.871,18.689,18.689,20.871,16,20.871z"></path><title>Link options.</title></g></g></g></g><g id="j_15"   ><path  stroke="#707070" id="v-223" stroke-width="2" stroke-dasharray="30 30" fill="none" d="M 3140 794 2628 794" style="opacity: 1;"></path><path  fill="black" stroke="black" transform="translate(3140,794) scale(1,1) rotate(-180)"></path><path  fill="#707070" stroke="#707070" id="v-225" d="M 20 0 L 0 10 L 20 20 z" transform="translate(2608,784) scale(1,1) rotate(0)" style="opacity: 1;"></path><path  id="v-224" fill="none" d="M 3140 794 2628 794" style=""></path><title ></title><g ><g  id="v-210" label-idx="0" cursor="move" transform="translate(2884, 794)" style="opacity: 1;"><rect id="v-212" fill="#ffffff" rx="3" ry="3" stroke="#ffffff" stroke-width="20px" pointer-events="none" width="196.360595703125" height="61.237600326538086" transform="matrix(1,0,0,1,-98.5,-30.6)"></rect><text id="v-211" font-size="24px" y="0.8em" xml:space="preserve" text-anchor="middle" pointer-events="none" fill="#707070" font-family="Open Sans" font-weight="normal" transform="matrix(1,0,0,1,0,-25.5)"><tspan id="v-213"  dy="0em" x="0">fetches materials</tspan><tspan id="v-214"  dy="1.2em" x="0">from</tspan></text></g><g  id="v-215" label-idx="1" cursor="move" transform="translate(2884, 837.2)" style="opacity: 1;"><rect id="v-217" fill="#ffffff" rx="3" ry="3" pointer-events="none" width="0" height="0" transform="matrix(1,0,0,1,0,0)"></rect><text id="v-216" font-size="19px" y="0.8em" display="none" xml:space="preserve" text-anchor="middle" pointer-events="none" fill="#707070" font-family="Open Sans" font-weight="normal" transform="matrix(1,0,0,1,0,0)"><tspan id="v-218"  dy="0em" x="0" style="fill-opacity: 0; stroke-opacity: 0;">-</tspan></text></g><g  id="v-219" label-idx="2" cursor="move" transform="translate(2884, 861.2)" style="opacity: 1;"><rect id="v-221" fill="#ffffff" rx="3" ry="3" pointer-events="none"  display="none" width="0" height="0" transform="matrix(1,0,0,1,0,0)"></rect><text id="v-220" font-size="19px" y="0.8em" display="none" xml:space="preserve" text-anchor="middle" pointer-events="none" fill="#707070" font-family="Open Sans" font-weight="normal"  transform="matrix(1,0,0,1,0,0)"><tspan id="v-222"  dy="0em" x="0" style="fill-opacity: 0; stroke-opacity: 0;">-</tspan></text></g></g><g  display="none"></g><g  id="v-227" display="none"><g  id="v-207"><path  end="source" d="M 26 0 L 0 13 L 26 26 z"></path></g><g  id="v-208"><path  end="target" d="M 26 0 L 0 13 L 26 26 z"></path></g></g><g  id="v-226" display="none"><g  id="v-206" transform="translate(3100, 794.0000610351562) "><g  event="remove"><circle r="11"></circle><path transform="scale(.8) translate(-16, -16)" d="M24.778,21.419 19.276,15.917 24.777,10.415 21.949,7.585 16.447,13.087 10.945,7.585 8.117,10.415 13.618,15.917 8.116,21.419 10.946,24.248 16.447,18.746 21.948,24.248z"></path><title>Remove link.</title></g><g  event="link:options"><circle r="11" transform="translate(25)"></circle><path fill="white" transform="scale(.55) translate(29, -16)" d="M31.229,17.736c0.064-0.571,0.104-1.148,0.104-1.736s-0.04-1.166-0.104-1.737l-4.377-1.557c-0.218-0.716-0.504-1.401-0.851-2.05l1.993-4.192c-0.725-0.91-1.549-1.734-2.458-2.459l-4.193,1.994c-0.647-0.347-1.334-0.632-2.049-0.849l-1.558-4.378C17.165,0.708,16.588,0.667,16,0.667s-1.166,0.041-1.737,0.105L12.707,5.15c-0.716,0.217-1.401,0.502-2.05,0.849L6.464,4.005C5.554,4.73,4.73,5.554,4.005,6.464l1.994,4.192c-0.347,0.648-0.632,1.334-0.849,2.05l-4.378,1.557C0.708,14.834,0.667,15.412,0.667,16s0.041,1.165,0.105,1.736l4.378,1.558c0.217,0.715,0.502,1.401,0.849,2.049l-1.994,4.193c0.725,0.909,1.549,1.733,2.459,2.458l4.192-1.993c0.648,0.347,1.334,0.633,2.05,0.851l1.557,4.377c0.571,0.064,1.148,0.104,1.737,0.104c0.588,0,1.165-0.04,1.736-0.104l1.558-4.377c0.715-0.218,1.399-0.504,2.049-0.851l4.193,1.993c0.909-0.725,1.733-1.549,2.458-2.458l-1.993-4.193c0.347-0.647,0.633-1.334,0.851-2.049L31.229,17.736zM16,20.871c-2.69,0-4.872-2.182-4.872-4.871c0-2.69,2.182-4.872,4.872-4.872c2.689,0,4.871,2.182,4.871,4.872C20.871,18.689,18.689,20.871,16,20.871z"></path><title>Link options.</title></g></g></g></g><g id="j_16"   ><path  stroke="#707070" id="v-248" stroke-width="2" stroke-dasharray="30 30" fill="none" d="M 1736 794 2138 794" style="opacity: 1;"></path><path  fill="black" stroke="black" transform="translate(1736,794) scale(1,1) rotate(0)"></path><path  fill="#707070" stroke="#707070" id="v-250" d="M 20 0 L 0 10 L 20 20 z" transform="translate(2158,804) scale(1,1) rotate(-180)" style="opacity: 1;"></path><path  id="v-249" fill="none" d="M 1736 794 2138 794" style=""></path><title ></title><g ><g  id="v-235" label-idx="0" cursor="move" transform="translate(1937, 794)" style="opacity: 1;"><rect id="v-237" fill="#ffffff" rx="3" ry="3" stroke="#ffffff" stroke-width="20px" pointer-events="none" width="181.58706665039062" height="61.237600326538086" transform="matrix(1,0,0,1,-89.8,-30.6)"></rect><text id="v-236" font-size="24px" y="0.8em" xml:space="preserve" text-anchor="middle" pointer-events="none" fill="#707070" font-family="Open Sans" font-weight="normal" transform="matrix(1,0,0,1,0,-25.5)"><tspan id="v-238"  dy="0em" x="0">stores materials</tspan><tspan id="v-239"  dy="1.2em" x="0">to</tspan></text></g><g  id="v-240" label-idx="1" cursor="move" transform="translate(1937, 837.2)" style="opacity: 1;"><rect id="v-242" fill="#ffffff" rx="3" ry="3" pointer-events="none" width="0" height="0" transform="matrix(1,0,0,1,0,0)"></rect><text id="v-241" font-size="19px" y="0.8em" display="none" xml:space="preserve" text-anchor="middle" pointer-events="none" fill="#707070" font-family="Open Sans" font-weight="normal" transform="matrix(1,0,0,1,0,0)"><tspan id="v-243"  dy="0em" x="0" style="fill-opacity: 0; stroke-opacity: 0;">-</tspan></text></g><g  id="v-244" label-idx="2" cursor="move" transform="translate(1937, 861.2)" style="opacity: 1;"><rect id="v-246" fill="#ffffff" rx="3" ry="3" pointer-events="none"  display="none" width="0" height="0" transform="matrix(1,0,0,1,0,0)"></rect><text id="v-245" font-size="19px" y="0.8em" display="none" xml:space="preserve" text-anchor="middle" pointer-events="none" fill="#707070" font-family="Open Sans" font-weight="normal"  transform="matrix(1,0,0,1,0,0)"><tspan id="v-247"  dy="0em" x="0" style="fill-opacity: 0; stroke-opacity: 0;">-</tspan></text></g></g><g  display="none"></g><g  id="v-252" display="none"><g  id="v-232"><path  end="source" d="M 26 0 L 0 13 L 26 26 z"></path></g><g  id="v-233"><path  end="target" d="M 26 0 L 0 13 L 26 26 z"></path></g></g><g  id="v-251" display="none"><g  id="v-231" transform="translate(1776, 794) "><g  event="remove"><circle r="11"></circle><path transform="scale(.8) translate(-16, -16)" d="M24.778,21.419 19.276,15.917 24.777,10.415 21.949,7.585 16.447,13.087 10.945,7.585 8.117,10.415 13.618,15.917 8.116,21.419 10.946,24.248 16.447,18.746 21.948,24.248z"></path><title>Remove link.</title></g><g  event="link:options"><circle r="11" transform="translate(25)"></circle><path fill="white" transform="scale(.55) translate(29, -16)" d="M31.229,17.736c0.064-0.571,0.104-1.148,0.104-1.736s-0.04-1.166-0.104-1.737l-4.377-1.557c-0.218-0.716-0.504-1.401-0.851-2.05l1.993-4.192c-0.725-0.91-1.549-1.734-2.458-2.459l-4.193,1.994c-0.647-0.347-1.334-0.632-2.049-0.849l-1.558-4.378C17.165,0.708,16.588,0.667,16,0.667s-1.166,0.041-1.737,0.105L12.707,5.15c-0.716,0.217-1.401,0.502-2.05,0.849L6.464,4.005C5.554,4.73,4.73,5.554,4.005,6.464l1.994,4.192c-0.347,0.648-0.632,1.334-0.849,2.05l-4.378,1.557C0.708,14.834,0.667,15.412,0.667,16s0.041,1.165,0.105,1.736l4.378,1.558c0.217,0.715,0.502,1.401,0.849,2.049l-1.994,4.193c0.725,0.909,1.549,1.733,2.459,2.458l4.192-1.993c0.648,0.347,1.334,0.633,2.05,0.851l1.557,4.377c0.571,0.064,1.148,0.104,1.737,0.104c0.588,0,1.165-0.04,1.736-0.104l1.558-4.377c0.715-0.218,1.399-0.504,2.049-0.851l4.193,1.993c0.909-0.725,1.733-1.549,2.458-2.458l-1.993-4.193c0.347-0.647,0.633-1.334,0.851-2.049L31.229,17.736zM16,20.871c-2.69,0-4.872-2.182-4.872-4.871c0-2.69,2.182-4.872,4.872-4.872c2.689,0,4.871,2.182,4.871,4.872C20.871,18.689,18.689,20.871,16,20.871z"></path><title>Link options.</title></g></g></g></g><g id="j_17"   ><path  stroke="#707070" id="v-272" stroke-width="2" stroke-dasharray="30 30" fill="none" d="M 674 1163 1268 901" style="opacity: 1;"></path><path  fill="black" stroke="black" transform="translate(674,1163) scale(1,1) rotate(-23.805944442749023)"></path><path  fill="#707070" stroke="#707070" id="v-274" d="M 20 0 L 0 10 L 20 20 z" transform="translate(1290.0364097314907,902.1491540072072) scale(1,1) rotate(-203.80593872070312)" style="opacity: 1;"></path><path  id="v-273" fill="none" d="M 674 1163 1268 901" style=""></path><title ></title><g ><g  id="v-260" label-idx="0" cursor="move" transform="translate(971, 1032)" style="opacity: 1;"><rect id="v-262" fill="#ffffff" rx="3" ry="3" stroke="#ffffff" stroke-width="20px" pointer-events="none" width="189.652099609375" height="32.437599182128906" transform="matrix(1,0,0,1,-93.9,-16.2)"></rect><text id="v-261" font-size="24px" y="0.8em" xml:space="preserve" text-anchor="middle" pointer-events="none" fill="#707070" font-family="Open Sans" font-weight="normal" transform="matrix(1,0,0,1,0,-11.1)"><tspan id="v-263"  dy="0em" x="0">makes API call to</tspan></text></g><g  id="v-264" label-idx="1" cursor="move" transform="translate(971, 1063.2)" style="opacity: 1;"><rect id="v-266" fill="#ffffff" rx="3" ry="3" pointer-events="none" width="0" height="0" transform="matrix(1,0,0,1,0,0)"></rect><text id="v-265" font-size="19px" y="0.8em" display="none" xml:space="preserve" text-anchor="middle" pointer-events="none" fill="#707070" font-family="Open Sans" font-weight="normal" transform="matrix(1,0,0,1,0,0)"><tspan id="v-267"  dy="0em" x="0" style="fill-opacity: 0; stroke-opacity: 0;">-</tspan></text></g><g  id="v-268" label-idx="2" cursor="move" transform="translate(971, 1087.2)" style="opacity: 1;"><rect id="v-270" fill="#ffffff" rx="3" ry="3" pointer-events="none"  display="none" width="0" height="0" transform="matrix(1,0,0,1,0,0)"></rect><text id="v-269" font-size="19px" y="0.8em" display="none" xml:space="preserve" text-anchor="middle" pointer-events="none" fill="#707070" font-family="Open Sans" font-weight="normal"  transform="matrix(1,0,0,1,0,0)"><tspan id="v-271"  dy="0em" x="0" style="fill-opacity: 0; stroke-opacity: 0;">-</tspan></text></g></g><g  display="none"></g><g  id="v-276" display="none"><g  id="v-257"><path  end="source" d="M 26 0 L 0 13 L 26 26 z"></path></g><g  id="v-258"><path  end="target" d="M 26 0 L 0 13 L 26 26 z"></path></g></g><g  id="v-275" display="none"><g  id="v-256" transform="translate(710.5980224609375, 1146.857421875) "><g  event="remove"><circle r="11"></circle><path transform="scale(.8) translate(-16, -16)" d="M24.778,21.419 19.276,15.917 24.777,10.415 21.949,7.585 16.447,13.087 10.945,7.585 8.117,10.415 13.618,15.917 8.116,21.419 10.946,24.248 16.447,18.746 21.948,24.248z"></path><title>Remove link.</title></g><g  event="link:options"><circle r="11" transform="translate(25)"></circle><path fill="white" transform="scale(.55) translate(29, -16)" d="M31.229,17.736c0.064-0.571,0.104-1.148,0.104-1.736s-0.04-1.166-0.104-1.737l-4.377-1.557c-0.218-0.716-0.504-1.401-0.851-2.05l1.993-4.192c-0.725-0.91-1.549-1.734-2.458-2.459l-4.193,1.994c-0.647-0.347-1.334-0.632-2.049-0.849l-1.558-4.378C17.165,0.708,16.588,0.667,16,0.667s-1.166,0.041-1.737,0.105L12.707,5.15c-0.716,0.217-1.401,0.502-2.05,0.849L6.464,4.005C5.554,4.73,4.73,5.554,4.005,6.464l1.994,4.192c-0.347,0.648-0.632,1.334-0.849,2.05l-4.378,1.557C0.708,14.834,0.667,15.412,0.667,16s0.041,1.165,0.105,1.736l4.378,1.558c0.217,0.715,0.502,1.401,0.849,2.049l-1.994,4.193c0.725,0.909,1.549,1.733,2.459,2.458l4.192-1.993c0.648,0.347,1.334,0.633,2.05,0.851l1.557,4.377c0.571,0.064,1.148,0.104,1.737,0.104c0.588,0,1.165-0.04,1.736-0.104l1.558-4.377c0.715-0.218,1.399-0.504,2.049-0.851l4.193,1.993c0.909-0.725,1.733-1.549,2.458-2.458l-1.993-4.193c0.347-0.647,0.633-1.334,0.851-2.049L31.229,17.736zM16,20.871c-2.69,0-4.872-2.182-4.872-4.871c0-2.69,2.182-4.872,4.872-4.872c2.689,0,4.871,2.182,4.871,4.872C20.871,18.689,18.689,20.871,16,20.871z"></path><title>Link options.</title></g></g></g></g></g><defs id="v-4"></defs></svg>