<svg xmlns="http://www.w3.org/2000/svg" xmlns:xlink="http://www.w3.org/1999/xlink" version="1.1" viewBox="0 0 2583 885" style="background: #ffffff"><g id="v-3"  transform="matrix(1,0,0,1,0,0)"><g id="j_92"    transform="translate(20,840)"><g id="v-1077"><text  id="v-1078" font-size="22px" y="0.8em" xml:space="preserve" font-weight="normal" text-anchor="start" fill="#aaaaaa" pointer-events="none" font-family="Open Sans" transform="matrix(1,0,0,1,0,0)" display="none"><tspan id="v-1079"  dy="0em" x="0">Wednesday, March 22, 2023 at 6:50 PM Central European Standard Time</tspan></text></g></g><g id="j_91"    transform="translate(20,794)"><g id="v-1073"><text  id="v-1074" font-size="36px" y="0.8em" xml:space="preserve" font-weight="normal" text-anchor="start" fill="#000000" pointer-events="none" font-family="Open Sans" transform="matrix(1,0,0,1,0,0)" display="none"><tspan id="v-1075"  dy="0em" x="0">[Deployment] - WebApp</tspan></text></g></g><g id="j_84"    transform="translate(948,199)" style=""><g  id="v-961" style="opacity: 1;"><rect  id="v-962" width="1435" height="486" rx="10" ry="10" fill="#ffffff" stroke="#888888" stroke-width="5" pointer-events="none"></rect><text  id="v-963" font-size="24px" y="447" xml:space="preserve" font-weight="normal" text-anchor="start" pointer-events="visible" font-family="Open Sans" fill="#000000" transform="matrix(1,0,0,1,15,0)" style="fill: rgb(0, 0, 0);"><tspan id="v-967"  dy="0em" x="0">Azure</tspan></text><text  id="v-964" font-size="19px" y="471" xml:space="preserve" font-weight="normal" text-anchor="start" pointer-events="visible" font-family="Open Sans" fill="#000000" transform="matrix(1,0,0,1,15,0)" style="fill: rgb(0, 0, 0);"><tspan id="v-968"  dy="0em" x="0">[Deployment Node: Azure]</tspan></text><text  id="v-965" font-size="40px" y="471" display="none" xml:space="preserve" font-weight="normal" fill="#000000" text-anchor="end" pointer-events="visible" font-family="Open Sans" transform="matrix(1,0,0,1,1420,0)"><tspan id="v-969"  dy="0em" x="0" style="fill-opacity: 0; stroke-opacity: 0;">-</tspan></text><image  id="v-966" pointer-events="visible"></image></g></g><g id="j_87"    transform="translate(199,264)" style=""><g  id="v-991" style="opacity: 1;"><rect  id="v-992" width="550" height="343" rx="10" ry="10" fill="#ffffff" stroke="#888888" stroke-width="5" pointer-events="none"></rect><text  id="v-993" font-size="24px" y="304" xml:space="preserve" font-weight="normal" text-anchor="start" pointer-events="visible" font-family="Open Sans" fill="#000000" transform="matrix(1,0,0,1,15,0)" style="fill: rgb(0, 0, 0);"><tspan id="v-997"  dy="0em" x="0">Laptop</tspan></text><text  id="v-994" font-size="19px" y="328" xml:space="preserve" font-weight="normal" text-anchor="start" pointer-events="visible" font-family="Open Sans" fill="#000000" transform="matrix(1,0,0,1,15,0)" style="fill: rgb(0, 0, 0);"><tspan id="v-998"  dy="0em" x="0">[Deployment Node: Windows 10]</tspan></text><text  id="v-995" font-size="40px" y="328" display="none" xml:space="preserve" font-weight="normal" fill="#000000" text-anchor="end" pointer-events="visible" font-family="Open Sans" transform="matrix(1,0,0,1,535,0)"><tspan id="v-999"  dy="0em" x="0" style="fill-opacity: 0; stroke-opacity: 0;">-</tspan></text><image  id="v-996" pointer-events="visible"></image></g></g><g id="j_86"    transform="translate(1783,249)" style=""><g  id="v-981" style="opacity: 1;"><rect  id="v-982" width="550" height="343" rx="10" ry="10" fill="#ffffff" stroke="#888888" stroke-width="5" pointer-events="none"></rect><text  id="v-983" font-size="24px" y="304" xml:space="preserve" font-weight="normal" text-anchor="start" pointer-events="visible" font-family="Open Sans" fill="#000000" transform="matrix(1,0,0,1,15,0)" style="fill: rgb(0, 0, 0);"><tspan id="v-987"  dy="0em" x="0">python:3.9.16</tspan></text><text  id="v-984" font-size="19px" y="328" xml:space="preserve" font-weight="normal" text-anchor="start" pointer-events="visible" font-family="Open Sans" fill="#000000" transform="matrix(1,0,0,1,15,0)" style="fill: rgb(0, 0, 0);"><tspan id="v-988"  dy="0em" x="0">[Deployment Node: Docker]</tspan></text><text  id="v-985" font-size="40px" y="328" display="none" xml:space="preserve" font-weight="normal" fill="#000000" text-anchor="end" pointer-events="visible" font-family="Open Sans" transform="matrix(1,0,0,1,535,0)"><tspan id="v-989"  dy="0em" x="0" style="fill-opacity: 0; stroke-opacity: 0;">-</tspan></text><image  id="v-986" pointer-events="visible"></image></g></g><g id="j_85"    transform="translate(998,249)" style=""><g  id="v-971" style="opacity: 1;"><rect  id="v-972" width="550" height="343" rx="10" ry="10" fill="#ffffff" stroke="#888888" stroke-width="5" pointer-events="none"></rect><text  id="v-973" font-size="24px" y="304" xml:space="preserve" font-weight="normal" text-anchor="start" pointer-events="visible" font-family="Open Sans" fill="#000000" transform="matrix(1,0,0,1,15,0)" style="fill: rgb(0, 0, 0);"><tspan id="v-977"  dy="0em" x="0">nginx:1.23.3</tspan></text><text  id="v-974" font-size="19px" y="328" xml:space="preserve" font-weight="normal" text-anchor="start" pointer-events="visible" font-family="Open Sans" fill="#000000" transform="matrix(1,0,0,1,15,0)" style="fill: rgb(0, 0, 0);"><tspan id="v-978"  dy="0em" x="0">[Deployment Node: Docker]</tspan></text><text  id="v-975" font-size="40px" y="328" display="none" xml:space="preserve" font-weight="normal" fill="#000000" text-anchor="end" pointer-events="visible" font-family="Open Sans" transform="matrix(1,0,0,1,535,0)"><tspan id="v-979"  dy="0em" x="0" style="fill-opacity: 0; stroke-opacity: 0;">-</tspan></text><image  id="v-976" pointer-events="visible"></image></g></g><g id="j_81"    transform="translate(249,314)" style=""><g  id="v-921" style="opacity: 1;"><rect  id="v-922" rx="10" ry="10" stroke="#19967d" stroke-width="2" pointer-events="visiblePainted" fill="#19967d" width="450" height="200" style="fill: rgb(25, 150, 125); stroke: rgb(25, 150, 125);"></rect><rect  id="v-923" rx="10" ry="10" stroke="#19967d" stroke-width="0" pointer-events="visiblePainted" fill="#b8f5ed" width="430" height="150" x="10" y="40" style="fill: rgb(184, 245, 237);"></rect><ellipse  id="v-930" fill="#b8f5ed" cx="20" cy="20" rx="10" ry="10" style="fill: rgb(184, 245, 237);"></ellipse><ellipse  id="v-931" fill="#b8f5ed" cx="50" cy="20" rx="10" ry="10" style="fill: rgb(184, 245, 237);"></ellipse><ellipse  id="v-932" fill="#b8f5ed" cx="80" cy="20" rx="10" ry="10" style="fill: rgb(184, 245, 237);"></ellipse><rect  id="v-924" rx="10" ry="10" stroke="#444444" stroke-width="0" pointer-events="visiblePainted" fill="#b8f5ed" width="340" height="20" x="100" y="10" style="fill: rgb(184, 245, 237);"></rect><text  id="v-925" font-size="34" y="0.8em" xml:space="preserve" font-weight="bold" text-anchor="middle" pointer-events="visible" font-family="Open Sans" fill="#000000" transform="matrix(1,0,0,1,225,86.9)" style="fill: rgb(0, 0, 0);"><tspan id="v-933"  dy="0em" x="0">Browser</tspan></text><text  id="v-926" font-size="19" y="0.8em" xml:space="preserve" text-anchor="middle" font-family="Open Sans" fill="#000000" transform="matrix(1,0,0,1,225,129.4)" style="fill: rgb(0, 0, 0);"><tspan id="v-934"  dy="0em" x="0">[Infrastructure Node: Opera]</tspan></text><text  id="v-927" font-size="24" y="0.8em" display="none" xml:space="preserve" text-anchor="middle" font-family="Open Sans" fill="#000000" transform="matrix(1,0,0,1,225,153.1)" style="fill: rgb(0, 0, 0);"><tspan id="v-935"  dy="0em" x="0" style="fill-opacity: 0; stroke-opacity: 0;">-</tspan></text><text  id="v-928" font-weight="bold" text-anchor="middle" font-family="Open Sans" fill="#000000" font-size="24" transform="matrix(1,0,0,1,225,180)" style="fill: rgb(0, 0, 0);" display="none"></text><image  id="v-929"></image></g></g><g id="j_82"    transform="translate(1048,299)" style=""><g  id="v-937" style="opacity: 1;"><rect  id="v-938" rx="1" ry="1" stroke="#c92d39" stroke-width="8" pointer-events="visiblePainted" fill="#ffd9d9" width="450" height="200" style="fill: rgb(255, 217, 217); stroke: rgb(201, 45, 57);"></rect><text  id="v-939" font-size="34" y="0.8em" xml:space="preserve" font-weight="bold" text-anchor="middle" pointer-events="visible" font-family="Open Sans" fill="#000000" transform="matrix(1,0,0,1,225,55)" style="fill: rgb(0, 0, 0);"><tspan id="v-944"  dy="0em" x="0">SPA</tspan></text><text  id="v-940" font-size="19" y="0.8em" xml:space="preserve" text-anchor="middle" font-family="Open Sans" fill="#000000" transform="matrix(1,0,0,1,225,97.5)" style="fill: rgb(0, 0, 0);"><tspan id="v-945"  dy="0em" x="0">from Web App</tspan><tspan id="v-946"  dy="1.2em" x="0">[Container: Angular]</tspan></text><text  id="v-941" font-size="24" y="0.8em" display="none" xml:space="preserve" text-anchor="middle" font-family="Open Sans" fill="#000000" transform="matrix(1,0,0,1,225,145)" style="fill: rgb(0, 0, 0);"><tspan id="v-947"  dy="0em" x="0" style="fill-opacity: 0; stroke-opacity: 0;">-</tspan></text><text  id="v-942" font-weight="bold" text-anchor="middle" font-family="Open Sans" fill="#000000" font-size="24" transform="matrix(1,0,0,1,225,180)" style="fill: rgb(0, 0, 0);" display="none"></text><image  id="v-943"></image></g></g><g id="j_83"    transform="translate(1833,299)" style=""><g  id="v-949" style="opacity: 1;"><rect  id="v-950" rx="1" ry="1" stroke="#c92d39" stroke-width="8" pointer-events="visiblePainted" fill="#ffd9d9" width="450" height="200" style="fill: rgb(255, 217, 217); stroke: rgb(201, 45, 57);"></rect><text  id="v-951" font-size="34" y="0.8em" xml:space="preserve" font-weight="bold" text-anchor="middle" pointer-events="visible" font-family="Open Sans" fill="#000000" transform="matrix(1,0,0,1,225,55)" style="fill: rgb(0, 0, 0);"><tspan id="v-956"  dy="0em" x="0">Server</tspan></text><text  id="v-952" font-size="19" y="0.8em" xml:space="preserve" text-anchor="middle" font-family="Open Sans" fill="#000000" transform="matrix(1,0,0,1,225,97.5)" style="fill: rgb(0, 0, 0);"><tspan id="v-957"  dy="0em" x="0">from Web App</tspan><tspan id="v-958"  dy="1.2em" x="0">[Container: Python]</tspan></text><text  id="v-953" font-size="24" y="0.8em" display="none" xml:space="preserve" text-anchor="middle" font-family="Open Sans" fill="#000000" transform="matrix(1,0,0,1,225,145)" style="fill: rgb(0, 0, 0);"><tspan id="v-959"  dy="0em" x="0" style="fill-opacity: 0; stroke-opacity: 0;">-</tspan></text><text  id="v-954" font-weight="bold" text-anchor="middle" font-family="Open Sans" fill="#000000" font-size="24" transform="matrix(1,0,0,1,225,180)" style="fill: rgb(0, 0, 0);" display="none"></text><image  id="v-955"></image></g></g><g id="j_88"   ><path  stroke="#707070" id="v-1018" stroke-width="2" stroke-dasharray="30 30" fill="none" d="M 1498 347 1608 321 S 1618 319 1628 321 L 1813 354" style="opacity: 1;"></path><path  fill="black" stroke="black" transform="translate(1498,347) scale(1,1) rotate(-13.13402271270752)"></path><path  fill="#707070" stroke="#707070" id="v-1020" d="M 20 0 L 0 10 L 20 20 z" transform="translate(1831.2151272815718,367.8394360296282) scale(1,1) rotate(-169.71861267089844)" style="opacity: 1;"></path><path  id="v-1019" fill="none" d="M 1498 347 1608 321 S 1618 319 1628 321 L 1813 354" style=""></path><title ></title><g ><g  id="v-1006" label-idx="0" cursor="move" transform="translate(1654.9649658203125, 325.8099670410156)" style="opacity: 1;"><rect id="v-1008" fill="#ffffff" rx="3" ry="3" stroke="#ffffff" stroke-width="20px" pointer-events="none" width="0" height="0" transform="matrix(1,0,0,1,0,0)"></rect><text id="v-1007" font-size="24px" y="0.8em" display="none" xml:space="preserve" text-anchor="middle" pointer-events="none" fill="#707070" font-family="Open Sans" font-weight="normal" transform="matrix(1,0,0,1,0,0)"><tspan id="v-1009"  dy="0em" x="0" style="fill-opacity: 0; stroke-opacity: 0;">-</tspan></text></g><g  id="v-1010" label-idx="1" cursor="move" transform="translate(1654.9649658203125, 357.0099670410156)" style="opacity: 1;"><rect id="v-1012" fill="#ffffff" rx="3" ry="3" pointer-events="none" width="0" height="0" transform="matrix(1,0,0,1,0,0)"></rect><text id="v-1011" font-size="19px" y="0.8em" display="none" xml:space="preserve" text-anchor="middle" pointer-events="none" fill="#707070" font-family="Open Sans" font-weight="normal" transform="matrix(1,0,0,1,0,0)"><tspan id="v-1013"  dy="0em" x="0" style="fill-opacity: 0; stroke-opacity: 0;">-</tspan></text></g><g  id="v-1014" label-idx="2" cursor="move" transform="translate(1654.9649658203125, 381.0099670410156)" style="opacity: 1;"><rect id="v-1016" fill="#ffffff" rx="3" ry="3" pointer-events="none"  display="none" width="0" height="0" transform="matrix(1,0,0,1,0,0)"></rect><text id="v-1015" font-size="19px" y="0.8em" display="none" xml:space="preserve" text-anchor="middle" pointer-events="none" fill="#707070" font-family="Open Sans" font-weight="normal"  transform="matrix(1,0,0,1,0,0)"><tspan id="v-1017"  dy="0em" x="0" style="fill-opacity: 0; stroke-opacity: 0;">-</tspan></text></g></g><g  display="none"><g  transform="translate(1618, 319)" id="v-1002"><circle  idx="0" r="10"></circle><path  idx="0" d="M16,5.333c-7.732,0-14,4.701-14,10.5c0,1.982,0.741,3.833,2.016,5.414L2,25.667l5.613-1.441c2.339,1.317,5.237,2.107,8.387,2.107c7.732,0,14-4.701,14-10.5C30,10.034,23.732,5.333,16,5.333z" transform="translate(5, -33)"></path><path  idx="0" transform="scale(.8) translate(9.5, -37)" d="M24.778,21.419 19.276,15.917 24.777,10.415 21.949,7.585 16.447,13.087 10.945,7.585 8.117,10.415 13.618,15.917 8.116,21.419 10.946,24.248 16.447,18.746 21.948,24.248z"><title>Remove vertex.</title></path></g></g><g  id="v-1022" display="none"><g  id="v-1003"><path  end="source" d="M 26 0 L 0 13 L 26 26 z"></path></g><g  id="v-1004"><path  end="target" d="M 26 0 L 0 13 L 26 26 z"></path></g></g><g  id="v-1021" display="none"><g  id="v-1001" transform="translate(1536.9273681640625, 337.7989807128906) "><g  event="remove"><circle r="11"></circle><path transform="scale(.8) translate(-16, -16)" d="M24.778,21.419 19.276,15.917 24.777,10.415 21.949,7.585 16.447,13.087 10.945,7.585 8.117,10.415 13.618,15.917 8.116,21.419 10.946,24.248 16.447,18.746 21.948,24.248z"></path><title>Remove link.</title></g><g  event="link:options"><circle r="11" transform="translate(25)"></circle><path fill="white" transform="scale(.55) translate(29, -16)" d="M31.229,17.736c0.064-0.571,0.104-1.148,0.104-1.736s-0.04-1.166-0.104-1.737l-4.377-1.557c-0.218-0.716-0.504-1.401-0.851-2.05l1.993-4.192c-0.725-0.91-1.549-1.734-2.458-2.459l-4.193,1.994c-0.647-0.347-1.334-0.632-2.049-0.849l-1.558-4.378C17.165,0.708,16.588,0.667,16,0.667s-1.166,0.041-1.737,0.105L12.707,5.15c-0.716,0.217-1.401,0.502-2.05,0.849L6.464,4.005C5.554,4.73,4.73,5.554,4.005,6.464l1.994,4.192c-0.347,0.648-0.632,1.334-0.849,2.05l-4.378,1.557C0.708,14.834,0.667,15.412,0.667,16s0.041,1.165,0.105,1.736l4.378,1.558c0.217,0.715,0.502,1.401,0.849,2.049l-1.994,4.193c0.725,0.909,1.549,1.733,2.459,2.458l4.192-1.993c0.648,0.347,1.334,0.633,2.05,0.851l1.557,4.377c0.571,0.064,1.148,0.104,1.737,0.104c0.588,0,1.165-0.04,1.736-0.104l1.558-4.377c0.715-0.218,1.399-0.504,2.049-0.851l4.193,1.993c0.909-0.725,1.733-1.549,2.458-2.458l-1.993-4.193c0.347-0.647,0.633-1.334,0.851-2.049L31.229,17.736zM16,20.871c-2.69,0-4.872-2.182-4.872-4.871c0-2.69,2.182-4.872,4.872-4.872c2.689,0,4.871,2.182,4.871,4.872C20.871,18.689,18.689,20.871,16,20.871z"></path><title>Link options.</title></g></g></g></g><g id="j_89"   ><path  stroke="#707070" id="v-1041" stroke-width="2" stroke-dasharray="30 30" fill="none" d="M 1833 463 1648 516 S 1638 519 1629 516 L 1517 479" style="opacity: 1;"></path><path  fill="black" stroke="black" transform="translate(1833,463) scale(1,1) rotate(-196.02297973632812)"></path><path  fill="#707070" stroke="#707070" id="v-1043" d="M 20 0 L 0 10 L 20 20 z" transform="translate(1501.1215839666731,463.4996694250977) scale(1,1) rotate(18.189056396484375)" style="opacity: 1;"></path><path  id="v-1042" fill="none" d="M 1833 463 1648 516 S 1638 519 1629 516 L 1517 479" style=""></path><title ></title><g ><g  id="v-1029" label-idx="0" cursor="move" transform="translate(1674.5489501953125, 508.3940734863281)" style="opacity: 1;"><rect id="v-1031" fill="#ffffff" rx="3" ry="3" stroke="#ffffff" stroke-width="20px" pointer-events="none" width="0" height="0" transform="matrix(1,0,0,1,0,0)"></rect><text id="v-1030" font-size="24px" y="0.8em" display="none" xml:space="preserve" text-anchor="middle" pointer-events="none" fill="#707070" font-family="Open Sans" font-weight="normal" transform="matrix(1,0,0,1,0,0)"><tspan id="v-1032"  dy="0em" x="0" style="fill-opacity: 0; stroke-opacity: 0;">-</tspan></text></g><g  id="v-1033" label-idx="1" cursor="move" transform="translate(1674.5489501953125, 539.5940734863282)" style="opacity: 1;"><rect id="v-1035" fill="#ffffff" rx="3" ry="3" pointer-events="none" width="0" height="0" transform="matrix(1,0,0,1,0,0)"></rect><text id="v-1034" font-size="19px" y="0.8em" display="none" xml:space="preserve" text-anchor="middle" pointer-events="none" fill="#707070" font-family="Open Sans" font-weight="normal" transform="matrix(1,0,0,1,0,0)"><tspan id="v-1036"  dy="0em" x="0" style="fill-opacity: 0; stroke-opacity: 0;">-</tspan></text></g><g  id="v-1037" label-idx="2" cursor="move" transform="translate(1674.5489501953125, 563.5940734863282)" style="opacity: 1;"><rect id="v-1039" fill="#ffffff" rx="3" ry="3" pointer-events="none"  display="none" width="0" height="0" transform="matrix(1,0,0,1,0,0)"></rect><text id="v-1038" font-size="19px" y="0.8em" display="none" xml:space="preserve" text-anchor="middle" pointer-events="none" fill="#707070" font-family="Open Sans" font-weight="normal"  transform="matrix(1,0,0,1,0,0)"><tspan id="v-1040"  dy="0em" x="0" style="fill-opacity: 0; stroke-opacity: 0;">-</tspan></text></g></g><g  display="none"><g  transform="translate(1638, 519)" id="v-1025"><circle  idx="0" r="10"></circle><path  idx="0" d="M16,5.333c-7.732,0-14,4.701-14,10.5c0,1.982,0.741,3.833,2.016,5.414L2,25.667l5.613-1.441c2.339,1.317,5.237,2.107,8.387,2.107c7.732,0,14-4.701,14-10.5C30,10.034,23.732,5.333,16,5.333z" transform="translate(5, -33)"></path><path  idx="0" transform="scale(.8) translate(9.5, -37)" d="M24.778,21.419 19.276,15.917 24.777,10.415 21.949,7.585 16.447,13.087 10.945,7.585 8.117,10.415 13.618,15.917 8.116,21.419 10.946,24.248 16.447,18.746 21.948,24.248z"><title>Remove vertex.</title></path></g></g><g  id="v-1045" display="none"><g  id="v-1026"><path  end="source" d="M 26 0 L 0 13 L 26 26 z"></path></g><g  id="v-1027"><path  end="target" d="M 26 0 L 0 13 L 26 26 z"></path></g></g><g  id="v-1044" display="none"><g  id="v-1024" transform="translate(1794.546875, 474.01629638671875) "><g  event="remove"><circle r="11"></circle><path transform="scale(.8) translate(-16, -16)" d="M24.778,21.419 19.276,15.917 24.777,10.415 21.949,7.585 16.447,13.087 10.945,7.585 8.117,10.415 13.618,15.917 8.116,21.419 10.946,24.248 16.447,18.746 21.948,24.248z"></path><title>Remove link.</title></g><g  event="link:options"><circle r="11" transform="translate(25)"></circle><path fill="white" transform="scale(.55) translate(29, -16)" d="M31.229,17.736c0.064-0.571,0.104-1.148,0.104-1.736s-0.04-1.166-0.104-1.737l-4.377-1.557c-0.218-0.716-0.504-1.401-0.851-2.05l1.993-4.192c-0.725-0.91-1.549-1.734-2.458-2.459l-4.193,1.994c-0.647-0.347-1.334-0.632-2.049-0.849l-1.558-4.378C17.165,0.708,16.588,0.667,16,0.667s-1.166,0.041-1.737,0.105L12.707,5.15c-0.716,0.217-1.401,0.502-2.05,0.849L6.464,4.005C5.554,4.73,4.73,5.554,4.005,6.464l1.994,4.192c-0.347,0.648-0.632,1.334-0.849,2.05l-4.378,1.557C0.708,14.834,0.667,15.412,0.667,16s0.041,1.165,0.105,1.736l4.378,1.558c0.217,0.715,0.502,1.401,0.849,2.049l-1.994,4.193c0.725,0.909,1.549,1.733,2.459,2.458l4.192-1.993c0.648,0.347,1.334,0.633,2.05,0.851l1.557,4.377c0.571,0.064,1.148,0.104,1.737,0.104c0.588,0,1.165-0.04,1.736-0.104l1.558-4.377c0.715-0.218,1.399-0.504,2.049-0.851l4.193,1.993c0.909-0.725,1.733-1.549,2.458-2.458l-1.993-4.193c0.347-0.647,0.633-1.334,0.851-2.049L31.229,17.736zM16,20.871c-2.69,0-4.872-2.182-4.872-4.871c0-2.69,2.182-4.872,4.872-4.872c2.689,0,4.871,2.182,4.871,4.872C20.871,18.689,18.689,20.871,16,20.871z"></path><title>Link options.</title></g></g></g></g><g id="j_90"   ><path  stroke="#707070" id="v-1063" stroke-width="2" stroke-dasharray="30 30" fill="none" d="M 699 416 978 418" style="opacity: 1;"></path><path  fill="black" stroke="black" transform="translate(699,416) scale(1,1) rotate(0.3832397460937642)"></path><path  fill="#707070" stroke="#707070" id="v-1065" d="M 20 0 L 0 10 L 20 20 z" transform="translate(997.9331329863613,427.9997692248435) scale(1,1) rotate(-179.61676025390625)" style="opacity: 1;"></path><path  id="v-1064" fill="none" d="M 699 416 978 418" style=""></path><title ></title><g ><g  id="v-1051" label-idx="0" cursor="move" transform="translate(838.5, 417)" style="opacity: 1;"><rect id="v-1053" fill="#ffffff" rx="3" ry="3" stroke="#ffffff" stroke-width="20px" pointer-events="none" width="130.3732147216797" height="32.520263671875" transform="matrix(1,0,0,1,-64.8,-16.3)"></rect><text id="v-1052" font-size="24px" y="0.8em" xml:space="preserve" text-anchor="middle" pointer-events="none" fill="#707070" font-family="Open Sans" font-weight="normal" transform="matrix(1,0,0,1,0,-10.6)"><tspan id="v-1054"  dy="0em" x="0">connects to</tspan></text></g><g  id="v-1055" label-idx="1" cursor="move" transform="translate(838.5, 448.2)" style="opacity: 1;"><rect id="v-1057" fill="#ffffff" rx="3" ry="3" pointer-events="none" width="0" height="0" transform="matrix(1,0,0,1,0,0)"></rect><text id="v-1056" font-size="19px" y="0.8em" display="none" xml:space="preserve" text-anchor="middle" pointer-events="none" fill="#707070" font-family="Open Sans" font-weight="normal" transform="matrix(1,0,0,1,0,0)"><tspan id="v-1058"  dy="0em" x="0" style="fill-opacity: 0; stroke-opacity: 0;">-</tspan></text></g><g  id="v-1059" label-idx="2" cursor="move" transform="translate(838.5, 472.2)" style="opacity: 1;"><rect id="v-1061" fill="#ffffff" rx="3" ry="3" pointer-events="none"  display="none" width="0" height="0" transform="matrix(1,0,0,1,0,0)"></rect><text id="v-1060" font-size="19px" y="0.8em" display="none" xml:space="preserve" text-anchor="middle" pointer-events="none" fill="#707070" font-family="Open Sans" font-weight="normal"  transform="matrix(1,0,0,1,0,0)"><tspan id="v-1062"  dy="0em" x="0" style="fill-opacity: 0; stroke-opacity: 0;">-</tspan></text></g></g><g  display="none"></g><g  id="v-1067" display="none"><g  id="v-1048"><path  end="source" d="M 26 0 L 0 13 L 26 26 z"></path></g><g  id="v-1049"><path  end="target" d="M 26 0 L 0 13 L 26 26 z"></path></g></g><g  id="v-1066" display="none"><g  id="v-1047" transform="translate(738.9989624023438, 416.2867431640625) "><g  event="remove"><circle r="11"></circle><path transform="scale(.8) translate(-16, -16)" d="M24.778,21.419 19.276,15.917 24.777,10.415 21.949,7.585 16.447,13.087 10.945,7.585 8.117,10.415 13.618,15.917 8.116,21.419 10.946,24.248 16.447,18.746 21.948,24.248z"></path><title>Remove link.</title></g><g  event="link:options"><circle r="11" transform="translate(25)"></circle><path fill="white" transform="scale(.55) translate(29, -16)" d="M31.229,17.736c0.064-0.571,0.104-1.148,0.104-1.736s-0.04-1.166-0.104-1.737l-4.377-1.557c-0.218-0.716-0.504-1.401-0.851-2.05l1.993-4.192c-0.725-0.91-1.549-1.734-2.458-2.459l-4.193,1.994c-0.647-0.347-1.334-0.632-2.049-0.849l-1.558-4.378C17.165,0.708,16.588,0.667,16,0.667s-1.166,0.041-1.737,0.105L12.707,5.15c-0.716,0.217-1.401,0.502-2.05,0.849L6.464,4.005C5.554,4.73,4.73,5.554,4.005,6.464l1.994,4.192c-0.347,0.648-0.632,1.334-0.849,2.05l-4.378,1.557C0.708,14.834,0.667,15.412,0.667,16s0.041,1.165,0.105,1.736l4.378,1.558c0.217,0.715,0.502,1.401,0.849,2.049l-1.994,4.193c0.725,0.909,1.549,1.733,2.459,2.458l4.192-1.993c0.648,0.347,1.334,0.633,2.05,0.851l1.557,4.377c0.571,0.064,1.148,0.104,1.737,0.104c0.588,0,1.165-0.04,1.736-0.104l1.558-4.377c0.715-0.218,1.399-0.504,2.049-0.851l4.193,1.993c0.909-0.725,1.733-1.549,2.458-2.458l-1.993-4.193c0.347-0.647,0.633-1.334,0.851-2.049L31.229,17.736zM16,20.871c-2.69,0-4.872-2.182-4.872-4.871c0-2.69,2.182-4.872,4.872-4.872c2.689,0,4.871,2.182,4.871,4.872C20.871,18.689,18.689,20.871,16,20.871z"></path><title>Link options.</title></g></g></g></g></g><defs id="v-4"></defs></svg>