<svg xmlns="http://www.w3.org/2000/svg" xmlns:xlink="http://www.w3.org/1999/xlink" version="1.1" viewBox="0 0 2484.99998517394 1315.9999934400553" style="background: #ffffff"><defs joint-selector="defs"></defs><g joint-selector="layers"  transform="matrix(1,0,0,1,0,0)"><g ></g><g ><g   id="j_135"  transform="translate(20,1270.9999934400553)"><g id="v-1180"><text  id="v-1181" font-size="22px" xml:space="preserve" y="0.8em" font-weight="normal" text-anchor="start" fill="#aaaaaa" pointer-events="none" font-family="Open Sans"><tspan dy="0" >Wednesday, March 8, 2023 at 6:37 PM Central European Standard Time</tspan></text></g></g><g   id="j_134"  transform="translate(20,1226.9999934400553)"><g id="v-1178"><text  id="v-1179" font-size="36px" xml:space="preserve" y="0.8em" font-weight="normal" text-anchor="start" fill="#000000" pointer-events="none" font-family="Open Sans"><tspan dy="0" >[Deployment] Hub</tspan></text></g></g><g   id="j_130"  transform="translate(967,200)" style=""><g  id="v-1115" style="opacity: 1;"><rect  id="v-1116" width="550" height="341" rx="10" ry="10" fill="#ffffff" stroke="#888888" stroke-width="5" pointer-events="none" style="stroke: rgb(136, 136, 136);"></rect><text  id="v-1117" font-size="24px" xml:space="preserve" y="302" font-weight="normal" text-anchor="start" pointer-events="visible" font-family="Open Sans" fill="#000000" transform="matrix(1,0,0,1,15,0)" style="fill: rgb(0, 0, 0);"><tspan dy="0" >Laptop</tspan></text><text  id="v-1118" font-size="17px" xml:space="preserve" y="326" font-weight="normal" text-anchor="start" pointer-events="visible" font-family="Open Sans" fill="#000000" transform="matrix(1,0,0,1,15,0)" style="fill: rgb(0, 0, 0);"><tspan dy="0" >[Deployment Node: Windows 10]</tspan></text><text  id="v-1119" font-size="40px" xml:space="preserve" display="none" y="326" font-weight="normal" fill="#000000" text-anchor="end" pointer-events="visible" font-family="Open Sans" transform="matrix(1,0,0,1,535,0)"><tspan dy="0" style="fill-opacity: 0; stroke-opacity: 0;" >-</tspan></text><image  id="v-1120" pointer-events="visible"></image></g></g><g   id="j_129"  transform="translate(200,775)" style=""><g  id="v-1109" style="opacity: 1;"><rect  id="v-1110" width="2085" height="341" rx="10" ry="10" fill="#ffffff" stroke="#888888" stroke-width="5" pointer-events="none" style="stroke: rgb(136, 136, 136);"></rect><text  id="v-1111" font-size="24px" xml:space="preserve" y="302" font-weight="normal" text-anchor="start" pointer-events="visible" font-family="Open Sans" fill="#000000" transform="matrix(1,0,0,1,15,0)" style="fill: rgb(0, 0, 0);"><tspan dy="0" >Azure</tspan></text><text  id="v-1112" font-size="17px" xml:space="preserve" y="326" font-weight="normal" text-anchor="start" pointer-events="visible" font-family="Open Sans" fill="#000000" transform="matrix(1,0,0,1,15,0)" style="fill: rgb(0, 0, 0);"><tspan dy="0" >[Deployment Node: Azure]</tspan></text><text  id="v-1113" font-size="40px" xml:space="preserve" display="none" y="326" font-weight="normal" fill="#000000" text-anchor="end" pointer-events="visible" font-family="Open Sans" transform="matrix(1,0,0,1,2070,0)"><tspan dy="0" style="fill-opacity: 0; stroke-opacity: 0;" >-</tspan></text><image  id="v-1114" pointer-events="visible"></image></g></g><g   id="j_125"  transform="translate(1017,825)" style=""><g  id="v-1076" style="opacity: 1;"><rect  id="v-1077" rx="20" ry="20" stroke="#19967d" stroke-width="8" pointer-events="visiblePainted" fill="#b8f5ed" width="450" height="200" style="fill: rgb(184, 245, 237); stroke: rgb(25, 150, 125);"></rect><text  id="v-1078" font-size="34" xml:space="preserve" y="0.8em" font-weight="bold" text-anchor="middle" pointer-events="visible" font-family="Open Sans" fill="#000000" transform="matrix(1,0,0,1,225,54.2)" style="fill: rgb(0, 0, 0);"><tspan dy="0" >Load Balancer</tspan></text><text  id="v-1079" font-size="17" xml:space="preserve" y="0.8em" text-anchor="middle" font-family="Open Sans" fill="#000000" transform="matrix(1,0,0,1,225,95)" style="fill: rgb(0, 0, 0);"><tspan dy="0" >[Infrastructure Node: Azure Network Load</tspan><tspan dy="1.2em" x="0" >Balancer]</tspan></text><text  id="v-1080" font-size="24" xml:space="preserve" display="none" y="0.8em" text-anchor="middle" font-family="Open Sans" fill="#000000" transform="matrix(1,0,0,1,225,145.8)" style="fill: rgb(0, 0, 0);"><tspan dy="0" style="fill-opacity: 0; stroke-opacity: 0;" >-</tspan></text><g  id="v-1081" color="#000000" opacity="0.75" transform="matrix(1,0,0,1,222.5,155.8)" display="none" style="fill: rgb(0, 0, 0);"><g ></g><g ></g><g ></g><g ></g></g><image  id="v-1082"></image></g></g><g   id="j_126"  transform="translate(1785,825)" style=""><g  id="v-1083" style="opacity: 1;"><rect  id="v-1084" rx="1" ry="1" stroke="#0c7cba" stroke-width="8" pointer-events="visiblePainted" fill="#cfe4ff" width="450" height="200" style="fill: rgb(207, 228, 255); stroke: rgb(12, 124, 186);"></rect><text  id="v-1085" font-size="34" xml:space="preserve" y="0.8em" font-weight="bold" text-anchor="middle" pointer-events="visible" font-family="Open Sans" fill="#000000" transform="matrix(1,0,0,1,225,74.6)" style="fill: rgb(0, 0, 0);"><tspan dy="0" >Web App</tspan></text><text  id="v-1086" font-size="17" xml:space="preserve" display="none" y="0.8em" text-anchor="middle" font-family="Open Sans" fill="#000000" transform="matrix(1,0,0,1,225,115.4)" style="fill: rgb(0, 0, 0);"><tspan dy="0" style="fill-opacity: 0; stroke-opacity: 0;" >-</tspan></text><text  id="v-1087" font-size="24" xml:space="preserve" display="none" y="0.8em" text-anchor="middle" font-family="Open Sans" fill="#000000" transform="matrix(1,0,0,1,225,125.4)" style="fill: rgb(0, 0, 0);"><tspan dy="0" style="fill-opacity: 0; stroke-opacity: 0;" >-</tspan></text><g  id="v-1088" color="#000000" opacity="0.75" transform="matrix(1,0,0,1,222.5,135.4)" display="none" style="fill: rgb(0, 0, 0);"><g ></g><g ></g><g ></g><g ></g></g><image  id="v-1089"></image></g></g><g   id="j_127"  transform="translate(250,825)" style=""><g  id="v-1090" style="opacity: 1;"><rect  id="v-1091" rx="1" ry="1" stroke="#0c7cba" stroke-width="8" pointer-events="visiblePainted" fill="#cfe4ff" width="450" height="200" style="fill: rgb(207, 228, 255); stroke: rgb(12, 124, 186);"></rect><text  id="v-1092" font-size="34" xml:space="preserve" y="0.8em" font-weight="bold" text-anchor="middle" pointer-events="visible" font-family="Open Sans" fill="#000000" transform="matrix(1,0,0,1,225,74.6)" style="fill: rgb(0, 0, 0);"><tspan dy="0" >Web Server</tspan></text><text  id="v-1093" font-size="17" xml:space="preserve" display="none" y="0.8em" text-anchor="middle" font-family="Open Sans" fill="#000000" transform="matrix(1,0,0,1,225,115.4)" style="fill: rgb(0, 0, 0);"><tspan dy="0" style="fill-opacity: 0; stroke-opacity: 0;" >-</tspan></text><text  id="v-1094" font-size="24" xml:space="preserve" display="none" y="0.8em" text-anchor="middle" font-family="Open Sans" fill="#000000" transform="matrix(1,0,0,1,225,125.4)" style="fill: rgb(0, 0, 0);"><tspan dy="0" style="fill-opacity: 0; stroke-opacity: 0;" >-</tspan></text><g  id="v-1095" color="#000000" opacity="0.75" transform="matrix(1,0,0,1,210,135.4)" display="none" style="fill: rgb(0, 0, 0);"><g ></g><g ></g><g ></g><g  transform="translate(5 0)"><svg xmlns="http://www.w3.org/2000/svg" width="20" height="20" fill="currentColor" viewBox="0 0 16 16"><path d="M6.354 5.5H4a3 3 0 0 0 0 6h3a3 3 0 0 0 2.83-4H9c-.086 0-.17.01-.25.031A2 2 0 0 1 7 10.5H4a2 2 0 1 1 0-4h1.535c.218-.376.495-.714.82-1z"></path><path d="M9 5.5a3 3 0 0 0-2.83 4h1.098A2 2 0 0 1 9 6.5h3a2 2 0 1 1 0 4h-1.535a4.02 4.02 0 0 1-.82 1H12a3 3 0 1 0 0-6H9z"></path></svg></g></g><image  id="v-1096"></image></g></g><g   id="j_128"  transform="translate(1017,250)" style=""><g  id="v-1097" style="opacity: 1;"><rect  id="v-1098" rx="10" ry="10" stroke="#19967d" stroke-width="2" pointer-events="visiblePainted" fill="#19967d" width="450" height="200" style="fill: rgb(25, 150, 125); stroke: rgb(25, 150, 125);"></rect><rect  id="v-1099" rx="10" ry="10" stroke="#19967d" stroke-width="0" pointer-events="visiblePainted" fill="#b8f5ed" width="430" height="150" x="10" y="40" style="fill: rgb(184, 245, 237);"></rect><ellipse  id="v-1106" fill="#b8f5ed" cx="20" cy="20" rx="10" ry="10" style="fill: rgb(184, 245, 237);"></ellipse><ellipse  id="v-1107" fill="#b8f5ed" cx="50" cy="20" rx="10" ry="10" style="fill: rgb(184, 245, 237);"></ellipse><ellipse  id="v-1108" fill="#b8f5ed" cx="80" cy="20" rx="10" ry="10" style="fill: rgb(184, 245, 237);"></ellipse><rect  id="v-1100" rx="10" ry="10" stroke="#444444" stroke-width="0" pointer-events="visiblePainted" fill="#b8f5ed" width="340" height="20" x="100" y="10" style="fill: rgb(184, 245, 237);"></rect><text  id="v-1101" font-size="34" xml:space="preserve" y="0.8em" font-weight="bold" text-anchor="middle" pointer-events="visible" font-family="Open Sans" fill="#000000" transform="matrix(1,0,0,1,225,79.4)" style="fill: rgb(0, 0, 0);"><tspan dy="0" >Browser</tspan></text><text  id="v-1102" font-size="17" xml:space="preserve" y="0.8em" text-anchor="middle" font-family="Open Sans" fill="#000000" transform="matrix(1,0,0,1,225,120.2)" style="fill: rgb(0, 0, 0);"><tspan dy="0" >[Infrastructure Node: Opera]</tspan></text><text  id="v-1103" font-size="24" xml:space="preserve" display="none" y="0.8em" text-anchor="middle" font-family="Open Sans" fill="#000000" transform="matrix(1,0,0,1,225,150.6)" style="fill: rgb(0, 0, 0);"><tspan dy="0" style="fill-opacity: 0; stroke-opacity: 0;" >-</tspan></text><g  id="v-1104" font-weight="normal" text-anchor="middle" color="#000000" opacity="0.75" transform="matrix(1,0,0,1,222.5,160.6)" display="none" style="fill: rgb(0, 0, 0);"><g ></g><g ></g><g ></g><g ></g></g><image  id="v-1105"></image></g></g><g   id="j_131" ><path  stroke="#707070" d="M 1467 925 L 1785 925" id="v-1133" stroke-width="2" stroke-dasharray="30 30" fill="none" style="opacity: 1;"></path><path  fill="black" stroke="black" d="M 0 0 0 0" transform="matrix(1,0,0,1,1467,925)"></path><path  fill="#707070" stroke="#707070" d="M 20 0 L 0 10 L 20 20 z" id="v-1135" transform="matrix(-1,1.2246467991473532e-16,-1.2246467991473532e-16,-1,1785,935)" style="opacity: 1;"></path><path  d="M 1467 925 L 1785 925" id="v-1134" fill="none" style="cursor: default;"></path><g ><g id="v-1127"  label-idx="0" cursor="move" transform="matrix(1,0,0,1,1626,925)" style="cursor: default; opacity: 1;"><rect joint-selector="rect" id="v-1130" fill="#ffffff" rx="3" ry="3" stroke="#ffffff" stroke-width="20px" pointer-events="none" width="176.70884704589844" height="33.2248420715332" transform="matrix(1,0,0,1,-88.4,-16.6)"></rect><text joint-selector="text" id="v-1129" font-size="24px" xml:space="preserve" y="0.8em" fill="#707070" text-anchor="middle" pointer-events="none" font-family="Open Sans" font-weight="normal" transform="matrix(1,0,0,1,0,-10)"><tspan dy="0" >balances across</tspan></text></g><g id="v-1128"  label-idx="1" cursor="move" transform="matrix(1,0,0,1,1616,949.4000244140625)" style="cursor: default; opacity: 1;"><rect joint-selector="rect" id="v-1132" fill="#ffffff" rx="3" ry="3"  width="0" height="0" transform="matrix(1,0,0,1,0,0)" display="none"></rect><text joint-selector="text" id="v-1131" fill="#000000" font-size="14" text-anchor="middle" pointer-events="none"></text></g></g><g  display="none"></g><g  id="v-1137" display="none"><g  id="v-1125"><path  end="source" d="M 26 0 L 0 13 L 26 26 z"></path></g><g  id="v-1126"><path  end="target" d="M 26 0 L 0 13 L 26 26 z"></path></g></g><g  id="v-1136" display="none"><g  id="v-1124" transform="translate(1507, 925.0000000000001) "><g  event="remove"><circle r="11"></circle><path transform="scale(.8) translate(-16, -16)" d="M24.778,21.419 19.276,15.917 24.777,10.415 21.949,7.585 16.447,13.087 10.945,7.585 8.117,10.415 13.618,15.917 8.116,21.419 10.946,24.248 16.447,18.746 21.948,24.248z"></path><title>Remove link.</title></g><g  event="link:options"><circle r="11" transform="translate(25)"></circle><path fill="white" transform="scale(.55) translate(29, -16)" d="M31.229,17.736c0.064-0.571,0.104-1.148,0.104-1.736s-0.04-1.166-0.104-1.737l-4.377-1.557c-0.218-0.716-0.504-1.401-0.851-2.05l1.993-4.192c-0.725-0.91-1.549-1.734-2.458-2.459l-4.193,1.994c-0.647-0.347-1.334-0.632-2.049-0.849l-1.558-4.378C17.165,0.708,16.588,0.667,16,0.667s-1.166,0.041-1.737,0.105L12.707,5.15c-0.716,0.217-1.401,0.502-2.05,0.849L6.464,4.005C5.554,4.73,4.73,5.554,4.005,6.464l1.994,4.192c-0.347,0.648-0.632,1.334-0.849,2.05l-4.378,1.557C0.708,14.834,0.667,15.412,0.667,16s0.041,1.165,0.105,1.736l4.378,1.558c0.217,0.715,0.502,1.401,0.849,2.049l-1.994,4.193c0.725,0.909,1.549,1.733,2.459,2.458l4.192-1.993c0.648,0.347,1.334,0.633,2.05,0.851l1.557,4.377c0.571,0.064,1.148,0.104,1.737,0.104c0.588,0,1.165-0.04,1.736-0.104l1.558-4.377c0.715-0.218,1.399-0.504,2.049-0.851l4.193,1.993c0.909-0.725,1.733-1.549,2.458-2.458l-1.993-4.193c0.347-0.647,0.633-1.334,0.851-2.049L31.229,17.736zM16,20.871c-2.69,0-4.872-2.182-4.872-4.871c0-2.69,2.182-4.872,4.872-4.872c2.689,0,4.871,2.182,4.871,4.872C20.871,18.689,18.689,20.871,16,20.871z"></path><title>Link options.</title></g></g></g></g><g   id="j_132" ><path  stroke="#707070" d="M 1017 925 L 700 925" id="v-1150" stroke-width="2" stroke-dasharray="30 30" fill="none" style="opacity: 1;"></path><path  fill="black" stroke="black" d="M 0 0 0 0" transform="matrix(-1,1.2246467991473532e-16,-1.2246467991473532e-16,-1,1017,925)"></path><path  fill="#707070" stroke="#707070" d="M 20 0 L 0 10 L 20 20 z" id="v-1152" transform="matrix(1,0,0,1,700,915)" style="opacity: 1;"></path><path  d="M 1017 925 L 700 925" id="v-1151" fill="none" style="cursor: default;"></path><g ><g id="v-1144"  label-idx="0" cursor="move" transform="matrix(1,0,0,1,858.5,925)" style="cursor: default; opacity: 1;"><rect joint-selector="rect" id="v-1147" fill="#ffffff" rx="3" ry="3" stroke="#ffffff" stroke-width="20px" pointer-events="none" width="176.70884704589844" height="33.2248420715332" transform="matrix(1,0,0,1,-88.4,-16.6)"></rect><text joint-selector="text" id="v-1146" font-size="24px" xml:space="preserve" y="0.8em" fill="#707070" text-anchor="middle" pointer-events="none" font-family="Open Sans" font-weight="normal" transform="matrix(1,0,0,1,0,-10)"><tspan dy="0" >balances across</tspan></text></g><g id="v-1145"  label-idx="1" cursor="move" transform="matrix(1,0,0,1,848.5,949.4000244140625)" style="cursor: default; opacity: 1;"><rect joint-selector="rect" id="v-1149" fill="#ffffff" rx="3" ry="3"  width="0" height="0" transform="matrix(1,0,0,1,0,0)" display="none"></rect><text joint-selector="text" id="v-1148" fill="#000000" font-size="14" text-anchor="middle" pointer-events="none"></text></g></g><g  display="none"></g><g  id="v-1154" display="none"><g  id="v-1142"><path  end="source" d="M 26 0 L 0 13 L 26 26 z"></path></g><g  id="v-1143"><path  end="target" d="M 26 0 L 0 13 L 26 26 z"></path></g></g><g  id="v-1153" display="none"><g  id="v-1141" transform="translate(977, 925) "><g  event="remove"><circle r="11"></circle><path transform="scale(.8) translate(-16, -16)" d="M24.778,21.419 19.276,15.917 24.777,10.415 21.949,7.585 16.447,13.087 10.945,7.585 8.117,10.415 13.618,15.917 8.116,21.419 10.946,24.248 16.447,18.746 21.948,24.248z"></path><title>Remove link.</title></g><g  event="link:options"><circle r="11" transform="translate(25)"></circle><path fill="white" transform="scale(.55) translate(29, -16)" d="M31.229,17.736c0.064-0.571,0.104-1.148,0.104-1.736s-0.04-1.166-0.104-1.737l-4.377-1.557c-0.218-0.716-0.504-1.401-0.851-2.05l1.993-4.192c-0.725-0.91-1.549-1.734-2.458-2.459l-4.193,1.994c-0.647-0.347-1.334-0.632-2.049-0.849l-1.558-4.378C17.165,0.708,16.588,0.667,16,0.667s-1.166,0.041-1.737,0.105L12.707,5.15c-0.716,0.217-1.401,0.502-2.05,0.849L6.464,4.005C5.554,4.73,4.73,5.554,4.005,6.464l1.994,4.192c-0.347,0.648-0.632,1.334-0.849,2.05l-4.378,1.557C0.708,14.834,0.667,15.412,0.667,16s0.041,1.165,0.105,1.736l4.378,1.558c0.217,0.715,0.502,1.401,0.849,2.049l-1.994,4.193c0.725,0.909,1.549,1.733,2.459,2.458l4.192-1.993c0.648,0.347,1.334,0.633,2.05,0.851l1.557,4.377c0.571,0.064,1.148,0.104,1.737,0.104c0.588,0,1.165-0.04,1.736-0.104l1.558-4.377c0.715-0.218,1.399-0.504,2.049-0.851l4.193,1.993c0.909-0.725,1.733-1.549,2.458-2.458l-1.993-4.193c0.347-0.647,0.633-1.334,0.851-2.049L31.229,17.736zM16,20.871c-2.69,0-4.872-2.182-4.872-4.871c0-2.69,2.182-4.872,4.872-4.872c2.689,0,4.871,2.182,4.871,4.872C20.871,18.689,18.689,20.871,16,20.871z"></path><title>Link options.</title></g></g></g></g><g   id="j_133" ><path  stroke="#707070" d="M 1242 450 L 1242 825" id="v-1164" stroke-width="2" stroke-dasharray="30 30" fill="none" style="opacity: 1;"></path><path  fill="black" stroke="black" d="M 0 0 0 0" transform="matrix(6.123233995736766e-17,1,-1,6.123233995736766e-17,1242,450)"></path><path  fill="#707070" stroke="#707070" d="M 20 0 L 0 10 L 20 20 z" id="v-1166" transform="matrix(-1.8369701987210297e-16,-1,1,-1.8369701987210297e-16,1232,825)" style="opacity: 1;"></path><path  d="M 1242 450 L 1242 825" id="v-1165" fill="none" style="cursor: default;"></path><g ><g id="v-1158"  label-idx="0" cursor="move" transform="matrix(1,0,0,1,1242,637.5)" style="cursor: default; opacity: 1;"><rect joint-selector="rect" id="v-1161" fill="#ffffff" rx="3" ry="3" stroke="#ffffff" stroke-width="20px" pointer-events="none" width="129.87106323242188" height="33.2248420715332" transform="matrix(1,0,0,1,-64.8,-16.6)"></rect><text joint-selector="text" id="v-1160" font-size="24px" xml:space="preserve" y="0.8em" fill="#707070" text-anchor="middle" pointer-events="none" font-family="Open Sans" font-weight="normal" transform="matrix(1,0,0,1,0,-10)"><tspan dy="0" >connects to</tspan></text></g><g id="v-1159"  label-idx="1" cursor="move" transform="matrix(1,0,0,1,1232,661.9000244140625)" style="cursor: default; opacity: 1;"><rect joint-selector="rect" id="v-1163" fill="#ffffff" rx="3" ry="3"  width="0" height="0" transform="matrix(1,0,0,1,0,0)" display="none"></rect><text joint-selector="text" id="v-1162" fill="#000000" font-size="14" text-anchor="middle" pointer-events="none"></text></g></g><g  display="none"></g><g  id="v-1168" display="none"><g  id="v-1156"><path  end="source" d="M 26 0 L 0 13 L 26 26 z"></path></g><g  id="v-1157"><path  end="target" d="M 26 0 L 0 13 L 26 26 z"></path></g></g><g  id="v-1167" display="none"><g  id="v-1155" transform="translate(1242, 490) "><g  event="remove"><circle r="11"></circle><path transform="scale(.8) translate(-16, -16)" d="M24.778,21.419 19.276,15.917 24.777,10.415 21.949,7.585 16.447,13.087 10.945,7.585 8.117,10.415 13.618,15.917 8.116,21.419 10.946,24.248 16.447,18.746 21.948,24.248z"></path><title>Remove link.</title></g><g  event="link:options"><circle r="11" transform="translate(25)"></circle><path fill="white" transform="scale(.55) translate(29, -16)" d="M31.229,17.736c0.064-0.571,0.104-1.148,0.104-1.736s-0.04-1.166-0.104-1.737l-4.377-1.557c-0.218-0.716-0.504-1.401-0.851-2.05l1.993-4.192c-0.725-0.91-1.549-1.734-2.458-2.459l-4.193,1.994c-0.647-0.347-1.334-0.632-2.049-0.849l-1.558-4.378C17.165,0.708,16.588,0.667,16,0.667s-1.166,0.041-1.737,0.105L12.707,5.15c-0.716,0.217-1.401,0.502-2.05,0.849L6.464,4.005C5.554,4.73,4.73,5.554,4.005,6.464l1.994,4.192c-0.347,0.648-0.632,1.334-0.849,2.05l-4.378,1.557C0.708,14.834,0.667,15.412,0.667,16s0.041,1.165,0.105,1.736l4.378,1.558c0.217,0.715,0.502,1.401,0.849,2.049l-1.994,4.193c0.725,0.909,1.549,1.733,2.459,2.458l4.192-1.993c0.648,0.347,1.334,0.633,2.05,0.851l1.557,4.377c0.571,0.064,1.148,0.104,1.737,0.104c0.588,0,1.165-0.04,1.736-0.104l1.558-4.377c0.715-0.218,1.399-0.504,2.049-0.851l4.193,1.993c0.909-0.725,1.733-1.549,2.458-2.458l-1.993-4.193c0.347-0.647,0.633-1.334,0.851-2.049L31.229,17.736zM16,20.871c-2.69,0-4.872-2.182-4.872-4.871c0-2.69,2.182-4.872,4.872-4.872c2.689,0,4.871,2.182,4.871,4.872C20.871,18.689,18.689,20.871,16,20.871z"></path><title>Link options.</title></g></g></g></g></g><g ></g><g ></g><g ></g></g></svg>