<svg xmlns="http://www.w3.org/2000/svg" xmlns:xlink="http://www.w3.org/1999/xlink" version="1.1" viewBox="0 0 1839 885" style="background: #ffffff"><g id="v-3"  transform="matrix(1,0,0,1,0,0)"><g id="j_112"    transform="translate(20,840)"><g id="v-1298"><text  id="v-1299" font-size="22px" y="0.8em" xml:space="preserve" font-weight="normal" text-anchor="start" fill="#aaaaaa" pointer-events="none" font-family="Open Sans" transform="matrix(1,0,0,1,0,0)" display="none"><tspan id="v-1300"  dy="0em" x="0">Wednesday, March 22, 2023 at 6:50 PM Central European Standard Time</tspan></text></g></g><g id="j_111"    transform="translate(20,794)"><g id="v-1294"><text  id="v-1295" font-size="36px" y="0.8em" xml:space="preserve" font-weight="normal" text-anchor="start" fill="#000000" pointer-events="none" font-family="Open Sans" transform="matrix(1,0,0,1,0,0)" display="none"><tspan id="v-1296"  dy="0em" x="0">[Deployment] - WebServer</tspan></text></g></g><g id="j_107"    transform="translate(989,200)" style=""><g  id="v-1238" style="opacity: 1;"><rect  id="v-1239" width="650" height="486" rx="10" ry="10" fill="#ffffff" stroke="#888888" stroke-width="5" pointer-events="none"></rect><text  id="v-1240" font-size="24px" y="447" xml:space="preserve" font-weight="normal" text-anchor="start" pointer-events="visible" font-family="Open Sans" fill="#000000" transform="matrix(1,0,0,1,15,0)" style="fill: rgb(0, 0, 0);"><tspan id="v-1244"  dy="0em" x="0">Azure</tspan></text><text  id="v-1241" font-size="19px" y="471" xml:space="preserve" font-weight="normal" text-anchor="start" pointer-events="visible" font-family="Open Sans" fill="#000000" transform="matrix(1,0,0,1,15,0)" style="fill: rgb(0, 0, 0);"><tspan id="v-1245"  dy="0em" x="0">[Deployment Node: Azure]</tspan></text><text  id="v-1242" font-size="40px" y="471" display="none" xml:space="preserve" font-weight="normal" fill="#000000" text-anchor="end" pointer-events="visible" font-family="Open Sans" transform="matrix(1,0,0,1,635,0)"><tspan id="v-1246"  dy="0em" x="0" style="fill-opacity: 0; stroke-opacity: 0;">-</tspan></text><image  id="v-1243" pointer-events="visible"></image></g></g><g id="j_109"    transform="translate(200,270)" style=""><g  id="v-1258" style="opacity: 1;"><rect  id="v-1259" width="550" height="343" rx="10" ry="10" fill="#ffffff" stroke="#888888" stroke-width="5" pointer-events="none"></rect><text  id="v-1260" font-size="24px" y="304" xml:space="preserve" font-weight="normal" text-anchor="start" pointer-events="visible" font-family="Open Sans" fill="#000000" transform="matrix(1,0,0,1,15,0)" style="fill: rgb(0, 0, 0);"><tspan id="v-1264"  dy="0em" x="0">Laptop</tspan></text><text  id="v-1261" font-size="19px" y="328" xml:space="preserve" font-weight="normal" text-anchor="start" pointer-events="visible" font-family="Open Sans" fill="#000000" transform="matrix(1,0,0,1,15,0)" style="fill: rgb(0, 0, 0);"><tspan id="v-1265"  dy="0em" x="0">[Deployment Node: Windows 10]</tspan></text><text  id="v-1262" font-size="40px" y="328" display="none" xml:space="preserve" font-weight="normal" fill="#000000" text-anchor="end" pointer-events="visible" font-family="Open Sans" transform="matrix(1,0,0,1,535,0)"><tspan id="v-1266"  dy="0em" x="0" style="fill-opacity: 0; stroke-opacity: 0;">-</tspan></text><image  id="v-1263" pointer-events="visible"></image></g></g><g id="j_108"    transform="translate(1039,250)" style=""><g  id="v-1248" style="opacity: 1;"><rect  id="v-1249" width="550" height="343" rx="10" ry="10" fill="#ffffff" stroke="#888888" stroke-width="5" pointer-events="none"></rect><text  id="v-1250" font-size="24px" y="304" xml:space="preserve" font-weight="normal" text-anchor="start" pointer-events="visible" font-family="Open Sans" fill="#000000" transform="matrix(1,0,0,1,15,0)" style="fill: rgb(0, 0, 0);"><tspan id="v-1254"  dy="0em" x="0">mcr.microsoft.com/dotnet/aspnet:7.0</tspan></text><text  id="v-1251" font-size="19px" y="328" xml:space="preserve" font-weight="normal" text-anchor="start" pointer-events="visible" font-family="Open Sans" fill="#000000" transform="matrix(1,0,0,1,15,0)" style="fill: rgb(0, 0, 0);"><tspan id="v-1255"  dy="0em" x="0">[Deployment Node: Docker]</tspan></text><text  id="v-1252" font-size="40px" y="328" display="none" xml:space="preserve" font-weight="normal" fill="#000000" text-anchor="end" pointer-events="visible" font-family="Open Sans" transform="matrix(1,0,0,1,535,0)"><tspan id="v-1256"  dy="0em" x="0" style="fill-opacity: 0; stroke-opacity: 0;">-</tspan></text><image  id="v-1253" pointer-events="visible"></image></g></g><g id="j_105"    transform="translate(1089,300)" style=""><g  id="v-1210" style="opacity: 1;"><rect  id="v-1211" rx="1" ry="1" stroke="#c92d39" stroke-width="8" pointer-events="visiblePainted" fill="#ffd9d9" width="450" height="200" style="fill: rgb(255, 217, 217); stroke: rgb(201, 45, 57);"></rect><text  id="v-1212" font-size="34" y="0.8em" xml:space="preserve" font-weight="bold" text-anchor="middle" pointer-events="visible" font-family="Open Sans" fill="#000000" transform="matrix(1,0,0,1,225,55)" style="fill: rgb(0, 0, 0);"><tspan id="v-1217"  dy="0em" x="0">Blazor Server</tspan></text><text  id="v-1213" font-size="19" y="0.8em" xml:space="preserve" text-anchor="middle" font-family="Open Sans" fill="#000000" transform="matrix(1,0,0,1,225,97.5)" style="fill: rgb(0, 0, 0);"><tspan id="v-1218"  dy="0em" x="0">from Web Server</tspan><tspan id="v-1219"  dy="1.2em" x="0">[Container: AspNetCore]</tspan></text><text  id="v-1214" font-size="24" y="0.8em" display="none" xml:space="preserve" text-anchor="middle" font-family="Open Sans" fill="#000000" transform="matrix(1,0,0,1,225,145)" style="fill: rgb(0, 0, 0);"><tspan id="v-1220"  dy="0em" x="0" style="fill-opacity: 0; stroke-opacity: 0;">-</tspan></text><text  id="v-1215" font-weight="bold" text-anchor="middle" font-family="Open Sans" fill="#000000" font-size="24" transform="matrix(1,0,0,1,225,180)" style="fill: rgb(0, 0, 0);" display="none"></text><image  id="v-1216"></image></g></g><g id="j_106"    transform="translate(250,320)" style=""><g  id="v-1222" style="opacity: 1;"><rect  id="v-1223" rx="10" ry="10" stroke="#19967d" stroke-width="2" pointer-events="visiblePainted" fill="#19967d" width="450" height="200" style="fill: rgb(25, 150, 125); stroke: rgb(25, 150, 125);"></rect><rect  id="v-1224" rx="10" ry="10" stroke="#19967d" stroke-width="0" pointer-events="visiblePainted" fill="#b8f5ed" width="430" height="150" x="10" y="40" style="fill: rgb(184, 245, 237);"></rect><ellipse  id="v-1231" fill="#b8f5ed" cx="20" cy="20" rx="10" ry="10" style="fill: rgb(184, 245, 237);"></ellipse><ellipse  id="v-1232" fill="#b8f5ed" cx="50" cy="20" rx="10" ry="10" style="fill: rgb(184, 245, 237);"></ellipse><ellipse  id="v-1233" fill="#b8f5ed" cx="80" cy="20" rx="10" ry="10" style="fill: rgb(184, 245, 237);"></ellipse><rect  id="v-1225" rx="10" ry="10" stroke="#444444" stroke-width="0" pointer-events="visiblePainted" fill="#b8f5ed" width="340" height="20" x="100" y="10" style="fill: rgb(184, 245, 237);"></rect><text  id="v-1226" font-size="34" y="0.8em" xml:space="preserve" font-weight="bold" text-anchor="middle" pointer-events="visible" font-family="Open Sans" fill="#000000" transform="matrix(1,0,0,1,225,86.9)" style="fill: rgb(0, 0, 0);"><tspan id="v-1234"  dy="0em" x="0">Browser</tspan></text><text  id="v-1227" font-size="19" y="0.8em" xml:space="preserve" text-anchor="middle" font-family="Open Sans" fill="#000000" transform="matrix(1,0,0,1,225,129.4)" style="fill: rgb(0, 0, 0);"><tspan id="v-1235"  dy="0em" x="0">[Infrastructure Node: Opera]</tspan></text><text  id="v-1228" font-size="24" y="0.8em" display="none" xml:space="preserve" text-anchor="middle" font-family="Open Sans" fill="#000000" transform="matrix(1,0,0,1,225,153.1)" style="fill: rgb(0, 0, 0);"><tspan id="v-1236"  dy="0em" x="0" style="fill-opacity: 0; stroke-opacity: 0;">-</tspan></text><text  id="v-1229" font-weight="bold" text-anchor="middle" font-family="Open Sans" fill="#000000" font-size="24" transform="matrix(1,0,0,1,225,180)" style="fill: rgb(0, 0, 0);" display="none"></text><image  id="v-1230"></image></g></g><g id="j_110"   ><path  stroke="#707070" id="v-1284" stroke-width="2" stroke-dasharray="30 30" fill="none" d="M 700 420 1019 421" style="opacity: 1;"></path><path  fill="black" stroke="black" transform="translate(700,420) scale(1,1) rotate(0.16900634765625)"></path><path  fill="#707070" stroke="#707070" id="v-1286" d="M 20 0 L 0 10 L 20 20 z" transform="translate(1038.9704593664144,430.99994312728495) scale(1,1) rotate(-179.83099365234375)" style="opacity: 1;"></path><path  id="v-1285" fill="none" d="M 700 420 1019 421" style=""></path><title ></title><g ><g  id="v-1272" label-idx="0" cursor="move" transform="translate(859.5, 420.5)" style="opacity: 1;"><rect id="v-1274" fill="#ffffff" rx="3" ry="3" stroke="#ffffff" stroke-width="20px" pointer-events="none" width="72.43912506103516" height="32.6869010925293" transform="matrix(1,0,0,1,-35.8,-16.4)"></rect><text id="v-1273" font-size="24px" y="0.8em" xml:space="preserve" text-anchor="middle" pointer-events="none" fill="#707070" font-family="Open Sans" font-weight="normal" transform="matrix(1,0,0,1,0,-9.7)"><tspan id="v-1275"  dy="0em" x="0">serves</tspan></text></g><g  id="v-1276" label-idx="1" cursor="move" transform="translate(859.5, 451.7)" style="opacity: 1;"><rect id="v-1278" fill="#ffffff" rx="3" ry="3" pointer-events="none" width="76.6950454711914" height="25.877131462097168" transform="matrix(1,0,0,1,-38.3,-12.9)"></rect><text id="v-1277" font-size="19px" y="0.8em" xml:space="preserve" text-anchor="middle" pointer-events="none" fill="#707070" font-family="Open Sans" font-weight="normal" transform="matrix(1,0,0,1,0,-7.7)"><tspan id="v-1279"  dy="0em" x="0">[SignalR]</tspan></text></g><g  id="v-1280" label-idx="2" cursor="move" transform="translate(859.5, 475.7)" style="opacity: 1;"><rect id="v-1282" fill="#ffffff" rx="3" ry="3" pointer-events="none"  display="none" width="0" height="0" transform="matrix(1,0,0,1,0,0)"></rect><text id="v-1281" font-size="19px" y="0.8em" display="none" xml:space="preserve" text-anchor="middle" pointer-events="none" fill="#707070" font-family="Open Sans" font-weight="normal"  transform="matrix(1,0,0,1,0,0)"><tspan id="v-1283"  dy="0em" x="0" style="fill-opacity: 0; stroke-opacity: 0;">-</tspan></text></g></g><g  display="none"></g><g  id="v-1288" display="none"><g  id="v-1269"><path  end="source" d="M 26 0 L 0 13 L 26 26 z"></path></g><g  id="v-1270"><path  end="target" d="M 26 0 L 0 13 L 26 26 z"></path></g></g><g  id="v-1287" display="none"><g  id="v-1268" transform="translate(739.9998168945312, 420.1253967285156) "><g  event="remove"><circle r="11"></circle><path transform="scale(.8) translate(-16, -16)" d="M24.778,21.419 19.276,15.917 24.777,10.415 21.949,7.585 16.447,13.087 10.945,7.585 8.117,10.415 13.618,15.917 8.116,21.419 10.946,24.248 16.447,18.746 21.948,24.248z"></path><title>Remove link.</title></g><g  event="link:options"><circle r="11" transform="translate(25)"></circle><path fill="white" transform="scale(.55) translate(29, -16)" d="M31.229,17.736c0.064-0.571,0.104-1.148,0.104-1.736s-0.04-1.166-0.104-1.737l-4.377-1.557c-0.218-0.716-0.504-1.401-0.851-2.05l1.993-4.192c-0.725-0.91-1.549-1.734-2.458-2.459l-4.193,1.994c-0.647-0.347-1.334-0.632-2.049-0.849l-1.558-4.378C17.165,0.708,16.588,0.667,16,0.667s-1.166,0.041-1.737,0.105L12.707,5.15c-0.716,0.217-1.401,0.502-2.05,0.849L6.464,4.005C5.554,4.73,4.73,5.554,4.005,6.464l1.994,4.192c-0.347,0.648-0.632,1.334-0.849,2.05l-4.378,1.557C0.708,14.834,0.667,15.412,0.667,16s0.041,1.165,0.105,1.736l4.378,1.558c0.217,0.715,0.502,1.401,0.849,2.049l-1.994,4.193c0.725,0.909,1.549,1.733,2.459,2.458l4.192-1.993c0.648,0.347,1.334,0.633,2.05,0.851l1.557,4.377c0.571,0.064,1.148,0.104,1.737,0.104c0.588,0,1.165-0.04,1.736-0.104l1.558-4.377c0.715-0.218,1.399-0.504,2.049-0.851l4.193,1.993c0.909-0.725,1.733-1.549,2.458-2.458l-1.993-4.193c0.347-0.647,0.633-1.334,0.851-2.049L31.229,17.736zM16,20.871c-2.69,0-4.872-2.182-4.872-4.871c0-2.69,2.182-4.872,4.872-4.872c2.689,0,4.871,2.182,4.871,4.872C20.871,18.689,18.689,20.871,16,20.871z"></path><title>Link options.</title></g></g></g></g></g><defs id="v-4"></defs></svg>