<svg xmlns="http://www.w3.org/2000/svg" xmlns:xlink="http://www.w3.org/1999/xlink" version="1.1" viewBox="0 0 1970 699" style="background: #ffffff"><defs joint-selector="defs"></defs><g joint-selector="layers"  transform="matrix(1,0,0,1,0,0)"><g ></g><g ><g   id="j_124"  transform="translate(20,654)"><g id="v-1071"><text  id="v-1072" font-size="22px" xml:space="preserve" y="0.8em" font-weight="normal" text-anchor="start" fill="#aaaaaa" pointer-events="none" font-family="Open Sans"><tspan dy="0" >Wednesday, March 8, 2023 at 6:37 PM Central European Standard Time</tspan></text></g></g><g   id="j_123"  transform="translate(20,610)"><g id="v-1069"><text  id="v-1070" font-size="36px" xml:space="preserve" y="0.8em" font-weight="normal" text-anchor="start" fill="#000000" pointer-events="none" font-family="Open Sans"><tspan dy="0" >[System Landscape]</tspan></text></g></g><g   id="j_120"  transform="translate(199,199)" style=""><g  id="v-1042" style="opacity: 1;"><rect  id="v-1043" rx="1" ry="1" stroke="#0c7cba" stroke-width="8" pointer-events="visiblePainted" fill="#cfe4ff" width="450" height="300" style="fill: rgb(207, 228, 255); stroke: rgb(12, 124, 186);"></rect><text  id="v-1044" font-size="34" xml:space="preserve" y="0.8em" font-weight="bold" text-anchor="middle" pointer-events="visible" font-family="Open Sans" fill="#000000" transform="matrix(1,0,0,1,225,85.6)" style="fill: rgb(0, 0, 0);"><tspan dy="0" >Web App</tspan></text><text  id="v-1045" font-size="17" xml:space="preserve" y="0.8em" text-anchor="middle" font-family="Open Sans" fill="#000000" transform="matrix(1,0,0,1,225,126.4)" style="fill: rgb(0, 0, 0);"><tspan dy="0" >[Software System]</tspan></text><text  id="v-1046" font-size="24" xml:space="preserve" y="0.8em" text-anchor="middle" font-family="Open Sans" fill="#000000" transform="matrix(1,0,0,1,225,156.8)" style="fill: rgb(0, 0, 0);"><tspan dy="0" >Javascript-based frontend,</tspan><tspan dy="1.2em" x="0" >python-based backend.</tspan></text><g  id="v-1047" color="#000000" opacity="0.75" transform="matrix(1,0,0,1,222.5,224.4)" display="none" style="fill: rgb(0, 0, 0);"><g ></g><g ></g><g ></g><g ></g></g><image  id="v-1048"></image></g></g><g   id="j_121"  transform="translate(759,199)" style=""><g  id="v-1052" style="opacity: 1;"><rect  id="v-1053" rx="1" ry="1" stroke="#0c7cba" stroke-width="8" pointer-events="visiblePainted" fill="#cfe4ff" width="450" height="300" style="fill: rgb(207, 228, 255); stroke: rgb(12, 124, 186);"></rect><text  id="v-1054" font-size="34" xml:space="preserve" y="0.8em" font-weight="bold" text-anchor="middle" pointer-events="visible" font-family="Open Sans" fill="#000000" transform="matrix(1,0,0,1,225,42.4)" style="fill: rgb(0, 0, 0);"><tspan dy="0" >Web Server</tspan></text><text  id="v-1055" font-size="17" xml:space="preserve" y="0.8em" text-anchor="middle" font-family="Open Sans" fill="#000000" transform="matrix(1,0,0,1,225,83.2)" style="fill: rgb(0, 0, 0);"><tspan dy="0" >[Software System]</tspan></text><text  id="v-1056" font-size="24" xml:space="preserve" y="0.8em" text-anchor="middle" font-family="Open Sans" fill="#000000" transform="matrix(1,0,0,1,225,113.6)" style="fill: rgb(0, 0, 0);"><tspan dy="0" >Blazor Server provides support for</tspan><tspan dy="1.2em" x="0" >hosting Razor components on the</tspan><tspan dy="1.2em" x="0" >server in an ASP.NET Core app. UI</tspan><tspan dy="1.2em" x="0" >updates are handled over a SignalR</tspan><tspan dy="1.2em" x="0" >connection.</tspan></text><g  id="v-1057" color="#000000" opacity="0.75" transform="matrix(1,0,0,1,210,267.6)" display="none" style="fill: rgb(0, 0, 0);"><g ></g><g ></g><g ></g><g  transform="translate(5 0)"><svg xmlns="http://www.w3.org/2000/svg" width="20" height="20" fill="currentColor" viewBox="0 0 16 16"><path d="M6.354 5.5H4a3 3 0 0 0 0 6h3a3 3 0 0 0 2.83-4H9c-.086 0-.17.01-.25.031A2 2 0 0 1 7 10.5H4a2 2 0 1 1 0-4h1.535c.218-.376.495-.714.82-1z"></path><path d="M9 5.5a3 3 0 0 0-2.83 4h1.098A2 2 0 0 1 9 6.5h3a2 2 0 1 1 0 4h-1.535a4.02 4.02 0 0 1-.82 1H12a3 3 0 1 0 0-6H9z"></path></svg></g></g><image  id="v-1058"></image></g></g><g   id="j_122"  transform="translate(1320,199)" style=""><g  id="v-1062" style="opacity: 1;"><rect  id="v-1063" rx="1" ry="1" stroke="#0c7cba" stroke-width="8" pointer-events="visiblePainted" fill="#cfe4ff" width="450" height="300" style="fill: rgb(207, 228, 255); stroke: rgb(12, 124, 186);"></rect><text  id="v-1064" font-size="34" xml:space="preserve" y="0.8em" font-weight="bold" text-anchor="middle" pointer-events="visible" font-family="Open Sans" fill="#000000" transform="matrix(1,0,0,1,225,56.8)" style="fill: rgb(0, 0, 0);"><tspan dy="0" >Web Assembly</tspan></text><text  id="v-1065" font-size="17" xml:space="preserve" y="0.8em" text-anchor="middle" font-family="Open Sans" fill="#000000" transform="matrix(1,0,0,1,225,97.6)" style="fill: rgb(0, 0, 0);"><tspan dy="0" >[Software System]</tspan></text><text  id="v-1066" font-size="24" xml:space="preserve" y="0.8em" text-anchor="middle" font-family="Open Sans" fill="#000000" transform="matrix(1,0,0,1,225,128)" style="fill: rgb(0, 0, 0);"><tspan dy="0" >Blazor WebAssembly is a</tspan><tspan dy="1.2em" x="0" >single-page app (SPA) framework</tspan><tspan dy="1.2em" x="0" >for building interactive client-side</tspan><tspan dy="1.2em" x="0" >web apps with .NET.</tspan></text><g  id="v-1067" color="#000000" opacity="0.75" transform="matrix(1,0,0,1,210,253.2)" display="none" style="fill: rgb(0, 0, 0);"><g ></g><g ></g><g ></g><g  transform="translate(5 0)"><svg xmlns="http://www.w3.org/2000/svg" width="20" height="20" fill="currentColor" viewBox="0 0 16 16"><path d="M6.354 5.5H4a3 3 0 0 0 0 6h3a3 3 0 0 0 2.83-4H9c-.086 0-.17.01-.25.031A2 2 0 0 1 7 10.5H4a2 2 0 1 1 0-4h1.535c.218-.376.495-.714.82-1z"></path><path d="M9 5.5a3 3 0 0 0-2.83 4h1.098A2 2 0 0 1 9 6.5h3a2 2 0 1 1 0 4h-1.535a4.02 4.02 0 0 1-.82 1H12a3 3 0 1 0 0-6H9z"></path></svg></g></g><image  id="v-1068"></image></g></g></g><g ></g><g ></g><g ></g></g></svg>