<svg xmlns="http://www.w3.org/2000/svg" xmlns:xlink="http://www.w3.org/1999/xlink" xmlns:lucid="lucid" width="4034" height="1020"><g transform="translate(1200.0000000000002 345.89928501137865)" lucid:page-tab-id="ystWnffCErmg"><path d="M1057-135.9c0 27.6-22.4 50-50 50s-50-22.4-50-50 22.4-50 50-50 50 22.4 50 50z" stroke="#834187" stroke-width="3" fill="#b391b5"/><path d="M797 304.1c0 27.6-22.4 50-50 50s-50-22.4-50-50 22.4-50 50-50 50 22.4 50 50z" stroke="#999" stroke-width="3" fill="#ccc"/><path d="M1337 244.1c0 27.6-22.4 50-50 50s-50-22.4-50-50 22.4-50 50-50 50 22.4 50 50z" stroke="#0c7cba" stroke-width="3" fill="#83bbe5"/><path d="M497-155.9c0 27.6-22.4 50-50 50s-50-22.4-50-50 22.4-50 50-50 50 22.4 50 50zM1437 24.1c0 27.6-22.4 50-50 50s-50-22.4-50-50 22.4-50 50-50 50 22.4 50 50z" stroke="#834187" stroke-width="3" fill="#b391b5"/><path d="M737 34.1c0 27.6-22.4 50-50 50s-50-22.4-50-50 22.4-50 50-50 50 22.4 50 50zM1197 34.1c0 27.6-22.4 50-50 50s-50-22.4-50-50 22.4-50 50-50 50 22.4 50 50zM1097 224.1c0 27.6-22.4 50-50 50s-50-22.4-50-50 22.4-50 50-50 50 22.4 50 50zM957 44.1c0 27.6-22.4 50-50 50s-50-22.4-50-50 22.4-50 50-50 50 22.4 50 50z" stroke="#0c7cba" stroke-width="3" fill="#83bbe5"/><path d="M537 164.1c0 27.6-22.4 50-50 50s-50-22.4-50-50 22.4-50 50-50 50 22.4 50 50zM1277 484.1c0 27.6-22.4 50-50 50s-50-22.4-50-50 22.4-50 50-50 50 22.4 50 50zM937 484.1c0 27.6-22.4 50-50 50s-50-22.4-50-50 22.4-50 50-50 50 22.4 50 50z" stroke="#999" stroke-width="3" fill="#ccc"/><path d="M500-155.87l10.72.23 5.2.32m15.86 1.38l2.82.3 11.4 1.68 10.93 2.08 6.2 1.45m15.36 4.17l7.8 2.53 8.6 3.2 8 3.35 5.23 2.47m14.04 7.5l1.4.8 5.92 3.75 5.46 3.8 5.05 3.83 4.7 3.88 3.08 2.77m11.07 11.43l1.34 1.56 3.17 4 2.95 4.06 2.7 4.1 2.52 4.12 2.3 4.2 2.1 4.24.17.36m5.68 14.87l.78 2.56 1.2 4.7 1.04 4.85.57 3.4" stroke="#b2b2b2" stroke-width="3" fill="none"/><path d="M500.07-157.37l-.06 3-1.57-.03.07-1.5-.05-1.5z" stroke="#b2b2b2" stroke-width=".05" fill="#b2b2b2"/><path d="M686.62-22.24l-5.76-13.85 9.25-.73z" stroke="#b2b2b2" stroke-width="3" fill="#b2b2b2"/><path d="M634 34.13l-13.8.28m-13.8.6l-9.54.6-13.7 1.42-4.23.62m-13.62 2.28l-3.08.6-8.16 1.9-7.04 1.96-6.13 2-2.2.8m-12.68 5.44l-3.3 1.72-3.4 1.97-3.1 1.97-2.82 1.96-2.56 1.94-2.35 1.95-2.17 1.94-2 1.95-.6.66m-8.33 10.98l-.25.4-1.16 2.12-1.08 2.16-1 2.22-.9 2.28-.82 2.36-.32 1.08" stroke="#b2b2b2" stroke-width="3" fill="none"/><path d="M635.5 34.1l.05 1.5-1.56.03-.07-3 1.64-.03z" stroke="#b2b2b2" stroke-width=".05" fill="#b2b2b2"/><path d="M487.68 107.8L485.08 93l9.2 1.3z" stroke="#b2b2b2" stroke-width="3" fill="#b2b2b2"/><path d="M686.97 87.1l-.1 5.06-.5 7.72-.24 2.24m-1.9 14.92l-.6 3.93-3.1 16.22-2.24 9.32m-3.5 14.64l-1.8 7.5-5.4 21.7m-3.65 14.6l-4.7 18.85-2.02 10.5m-2.17 14.87l-.33 3.13-.34 5.35-.1 4.42.07 3.72.2 3.2.3 2.8.36 2.47.42 2.2.46 2 .18.6m6.73 13.3l.1.1.8.9.8.83.87.8.9.8.94.73 1 .72 1.05.7 1.1.67 1.18.64 1.26.62 1.33.6.93.37" stroke="#b2b2b2" stroke-width="3" fill="none"/><path d="M687 85.6l1.5-.05-.03 1.62-3-.06.03-1.57z" stroke="#b2b2b2" stroke-width=".05" fill="#b2b2b2"/><path d="M690.7 303.33l-14.8 2.3 1.46-9.14z" stroke="#b2b2b2" stroke-width="3" fill="#b2b2b2"/><path d="M854.02 44.34l-.1.03-.2.08-.2.1-.23.1-.23.1-.23.14-.25.14-.26.18-.26.2-.28.23-.3.27-.3.3-.35.37-.37.4-.4.5-.43.6-.48.74-.53.88-.6 1.1-.7 1.38-.78 1.78-.5 1.27m-4.03 13.26l-.6 2.37-2.33 11.07-2.3 13.82m-2.02 13.73l-3.5 27.52m-1.74 13.77l-3.5 27.52m-1.74 13.77l-3.5 27.53m-1.73 13.77l-3.5 27.53m-2.42 13.65l-.58 2.76-1.73 6.8-1.17 3.87" stroke="#b2b2b2" stroke-width="3" fill="none"/><path d="M855.5 44.1l.05 1.5-1.56.03-.07-3 1.64-.03z" stroke="#b2b2b2" stroke-width=".05" fill="#b2b2b2"/><path d="M801.27 300.1l4.33-14.35 7.6 5.3z" stroke="#b2b2b2" stroke-width="3" fill="#b2b2b2"/><path d="M1006.94-82.9l-.05.65-.14 1.03-.17 1-.24 1-.28.98-.33.98-.38.98-.45 1-.52 1-.6 1-.66 1.05-.78 1.08-.9 1.12-1.04 1.17-1.22 1.24-.76.7m-15.52 10.1l-5.9 2.8-14.82 6.1-13.54 5.44m-17.1 7.26l-1.2.57-4.44 2.4-3.3 2-2.6 1.75-2.07 1.56-1.72 1.43-.27.25" stroke="#b2b2b2" stroke-width="3" fill="none"/><path d="M1007-84.4l1.5-.05-.04 1.63-3-.08.04-1.57z" stroke="#b2b2b2" stroke-width=".05" fill="#b2b2b2"/><path d="M909.18-11.74l2.25-14.83 8.3 4.16z" stroke="#b2b2b2" stroke-width="3" fill="#b2b2b2"/><path d="M1060-135.87l2.16.05 3.5.22 3.4.36 3.28.5 3.18.6.23.05m15.03 5.02l2.25 1.07 2.74 1.43 2.7 1.57 2.66 1.7 2.63 1.86 2.62 2 2.6 2.17 2.56 2.34 2.55 2.52 1.98 2.14m9.6 12.62l.8 1.2 2.38 4 2.32 4.3 2.25 4.64 2.16 4.97 2.05 5.33 1.43 4.25m4.12 15.32l1.07 5.3 1.1 7 .4 3.36" stroke="#b2b2b2" stroke-width="3" fill="none"/><path d="M1060.07-137.37l-.06 3-1.57-.03.07-1.5-.05-1.5z" stroke="#b2b2b2" stroke-width=".05" fill="#b2b2b2"/><path d="M1146.7-22.25l-5.47-13.96 9.25-.56z" stroke="#b2b2b2" stroke-width="3" fill="#b2b2b2"/><path d="M1386.97 77.1l-.02.65-.13 2.04-.2 1.96-.3 1.9-.35 1.85-.44 1.8-.5 1.78-.58 1.74-.55 1.46m-8.05 13.24l-1.14 1.33-1.88 2.04-2.2 2.16-2.6 2.35-3.1 2.6-3.93 3-5.28 3.67-3.9 2.45m-13.24 8.15l-20.3 12.27-5.27 3.67-.78.6m-11.7 10.23l-1.23 1.33-1.67 1.94-1.46 1.87-1.3 1.82-1.15 1.76-1.03 1.74-.93 1.72-.22.46" stroke="#b2b2b2" stroke-width="3" fill="none"/><path d="M1387 75.6l1.5-.05-.03 1.62-3-.06.03-1.57z" stroke="#b2b2b2" stroke-width=".05" fill="#b2b2b2"/><path d="M1288.08 187.87l-1.34-14.94 9.03 2.06z" stroke="#b2b2b2" stroke-width="3" fill="#b2b2b2"/><path d="M1286.97 297.1l-.07 3.2-.27 4.3-.42 4-.44 3.07m-3.57 14.16l-1.03 2.74-1.27 3-1.42 3.02-1.6 3.06-1.83 3.16-2.14 3.37-2.6 3.73-2.46 3.25m-9.34 11.25l-11.4 13.34-3.4 4.5-2.6 3.74-.82 1.28m-6.84 12.9l-.6 1.45-1.14 3.05-1 3.1-.9 3.22-.74 3.12" stroke="#b2b2b2" stroke-width="3" fill="none"/><path d="M1287 295.6l1.5-.05-.03 1.62-3-.06.03-1.57z" stroke="#b2b2b2" stroke-width=".05" fill="#b2b2b2"/><path d="M1227.5 427.77l-3.2-14.66 9.23.94z" stroke="#b2b2b2" stroke-width="3" fill="#b2b2b2"/><path d="M1100 224.23l.26.06.36.07.35.1.37.12.36.12.38.16.38.18.4.2.4.24.42.27.44.3.46.35.48.4.5.46.56.53.57.63.6.72.7.85.72 1 .8 1.22.78 1.3m5.75 13.06l1.1 3.17 2.23 7.4 2.87 11.28 1.2 5.76m2.94 13.98l4.7 28.2m2.37 14.1l4.72 28.22m2.35 14.1l4.7 28.2m2.37 14.1l4.13 24.67.9 3.5m3.78 13.77l.42 1.42 1.8 5.2 1.52 3.84 1.3 2.92" stroke="#b2b2b2" stroke-width="3" fill="none"/><path d="M1100.07 222.63l-.06 3-1.57-.03.07-1.5-.05-1.5z" stroke="#b2b2b2" stroke-width=".05" fill="#b2b2b2"/><path d="M1172.02 480.7l-13.45-6.63 6.48-6.64z" stroke="#b2b2b2" stroke-width="3" fill="#b2b2b2"/><path d="M1046.97 277.1l-.02.88-.14 2.28-.23 2.22-.3 2.16-.42 2.1-.48 2.07-.57 2.05-.12.35m-6.06 12.93l-.56.88-1.48 2.14-1.66 2.18-1.86 2.26-2.12 2.35-2.42 2.47-2.8 2.6-3.24 2.8-3.62 2.88m-11.82 8.1l-6.78 4.1-12.12 6.63-6.16 3.16m-12.76 6.52l-25.5 13.05m-12.66 6.72l-5.15 3.1-5.86 3.9-4.67 3.4-3.85 3.04-3.25 2.8-.46.42m-9.68 10.52l-.7.92-1.48 2.13-1.32 2.06-1.18 2.05-1.05 2.03-.96 2-.5 1.17" stroke="#b2b2b2" stroke-width="3" fill="none"/><path d="M1047 275.6l1.5-.05-.03 1.62-3-.06.03-1.57z" stroke="#b2b2b2" stroke-width=".05" fill="#b2b2b2"/><path d="M887.94 427.84l-1.8-14.9 9.1 1.8z" stroke="#b2b2b2" stroke-width="3" fill="#b2b2b2"/><path d="M1146.96 87.1l-.1 1.23-.16 1.3-.22 1.27-.3 1.24-.33 1.22-.4 1.22-.5 1.2-.54 1.23-.62 1.24-.73 1.25m-8.78 9.68l-.7.58-2.56 1.93-3.22 2.18-4.25 2.57-6.1 3.28-5.74 2.72m-11.93 5.5l-23.2 10.52-.7.37m-11.33 6.62l-1.55 1.05-2.57 1.94-2.1 1.75-1.76 1.6-1.48 1.52-.55.6" stroke="#b2b2b2" stroke-width="3" fill="none"/><path d="M1147 85.6l1.5-.05-.04 1.63-3-.08.04-1.57z" stroke="#b2b2b2" stroke-width=".05" fill="#b2b2b2"/><path d="M1048.82 168.1l1.05-14.96 8.6 3.47z" stroke="#b2b2b2" stroke-width="3" fill="#b2b2b2"/><path d="M907.03 97.1l.17 7.85.56 9.02m2.1 16.76l.08.62 1.5 7.92 1.74 7.38 1.9 6.85 2.06 6.3 1.3 3.54m6.9 15.4l.84 1.58 2.37 4.1 2.4 3.8 2.4 3.45 2.42 3.2 2.43 2.93 2.44 2.7 2.45 2.5 2.44 2.32.18.15m13.75 9.76l1.2.66 2.64 1.3 2.7 1.2 2.72 1.07 2.8.97 2.85.87.73.2" stroke="#b2b2b2" stroke-width="3" fill="none"/><path d="M907 95.6l1.5-.05.03 1.56-3 .07-.03-1.64z" stroke="#b2b2b2" stroke-width=".05" fill="#b2b2b2"/><path d="M990.68 223.5l-14.73 2.78 1.17-9.2z" stroke="#b2b2b2" stroke-width="3" fill="#b2b2b2"/><path d="M2414 110.1c0-3.3 2.7-6 6-6h108c3.3 0 6 2.7 6 6v108c0 3.3-2.7 6-6 6h-108c-3.3 0-6-2.7-6-6zM1854 250.1c0-3.3 2.7-6 6-6h108c3.3 0 6 2.7 6 6v108c0 3.3-2.7 6-6 6h-108c-3.3 0-6-2.7-6-6z" stroke="#999" stroke-width="3" fill="#ccc"/><path d="M2274 250.1c0-3.3 2.7-6 6-6h108c3.3 0 6 2.7 6 6v108c0 3.3-2.7 6-6 6h-108c-3.3 0-6-2.7-6-6z" stroke="#0c7cba" stroke-width="3" fill="#83bbe5"/><path d="M2694 110.1c0-3.3 2.7-6 6-6h108c3.3 0 6 2.7 6 6v108c0 3.3-2.7 6-6 6h-108c-3.3 0-6-2.7-6-6z" stroke="#834187" stroke-width="3" fill="#b391b5"/><path d="M2274 110.1c0-3.3 2.7-6 6-6h108c3.3 0 6 2.7 6 6v108c0 3.3-2.7 6-6 6h-108c-3.3 0-6-2.7-6-6z" stroke="#0c7cba" stroke-width="3" fill="#83bbe5"/><path d="M2134 250.1c0-3.3 2.7-6 6-6h108c3.3 0 6 2.7 6 6v108c0 3.3-2.7 6-6 6h-108c-3.3 0-6-2.7-6-6z" stroke="#834187" stroke-width="3" fill="#b391b5"/><path d="M1854 110.1c0-3.3 2.7-6 6-6h108c3.3 0 6 2.7 6 6v108c0 3.3-2.7 6-6 6h-108c-3.3 0-6-2.7-6-6z" stroke="#0c7cba" stroke-width="3" fill="#83bbe5"/><path d="M2274-29.9c0-3.3 2.7-6 6-6h108c3.3 0 6 2.7 6 6v108c0 3.3-2.7 6-6 6h-108c-3.3 0-6-2.7-6-6z" stroke="#999" stroke-width="3" fill="#ccc"/><path d="M1714 110.1c0-3.3 2.7-6 6-6h108c3.3 0 6 2.7 6 6v108c0 3.3-2.7 6-6 6h-108c-3.3 0-6-2.7-6-6z" stroke="#834187" stroke-width="3" fill="#b391b5"/><path d="M2134 110.1c0-3.3 2.7-6 6-6h108c3.3 0 6 2.7 6 6v108c0 3.3-2.7 6-6 6h-108c-3.3 0-6-2.7-6-6z" stroke="#0c7cba" stroke-width="3" fill="#83bbe5"/><path d="M1994 110.1c0-3.3 2.7-6 6-6h108c3.3 0 6 2.7 6 6v108c0 3.3-2.7 6-6 6h-108c-3.3 0-6-2.7-6-6z" stroke="#999" stroke-width="3" fill="#ccc"/><path d="M2554 110.1c0-3.3 2.7-6 6-6h108c3.3 0 6 2.7 6 6v108c0 3.3-2.7 6-6 6h-108c-3.3 0-6-2.7-6-6z" stroke="#0c7cba" stroke-width="3" fill="#83bbe5"/><path d="M-860-299.9c0-3.3 2.7-6 6-6h148c3.3 0 6 2.7 6 6v108c0 3.3-2.7 6-6 6h-148c-3.3 0-6-2.7-6-6z" stroke="#834187" stroke-width="3" fill="#b391b5"/><use xlink:href="#a" transform="matrix(1,0,0,1,-855.0000000000002,-300.89928501137865) translate(17.610026041666657 50.88932291666667)"/><use xlink:href="#b" transform="matrix(1,0,0,1,-855.0000000000002,-300.89928501137865) translate(78.50455729166666 50.88932291666667)"/><use xlink:href="#c" transform="matrix(1,0,0,1,-855.0000000000002,-300.89928501137865) translate(14.474609374999993 76.30989583333334)"/><use xlink:href="#d" transform="matrix(1,0,0,1,-855.0000000000002,-300.89928501137865) translate(65.65299479166666 76.30989583333334)"/><use xlink:href="#e" transform="matrix(1,0,0,1,-855.0000000000002,-300.89928501137865) translate(90.71809895833334 76.30989583333334)"/><path d="M-1000 40.1c0-3.3 2.7-6 6-6h148c3.3 0 6 2.7 6 6v108c0 3.3-2.7 6-6 6h-148c-3.3 0-6-2.7-6-6z" stroke="#0c7cba" stroke-width="3" fill="#83bbe5"/><use xlink:href="#f" transform="matrix(1,0,0,1,-995.0000000000002,39.10071498862135) translate(6.909505208333329 50.88932291666667)"/><use xlink:href="#g" transform="matrix(1,0,0,1,-995.0000000000002,39.10071498862135) translate(47.615234375 50.88932291666667)"/><use xlink:href="#h" transform="matrix(1,0,0,1,-995.0000000000002,39.10071498862135) translate(91.21940104166667 50.88932291666667)"/><use xlink:href="#i" transform="matrix(1,0,0,1,-995.0000000000002,39.10071498862135) translate(6.12109375 76.30989583333334)"/><use xlink:href="#j" transform="matrix(1,0,0,1,-995.0000000000002,39.10071498862135) translate(67.3984375 76.30989583333334)"/><use xlink:href="#k" transform="matrix(1,0,0,1,-995.0000000000002,39.10071498862135) translate(94.17708333333334 76.30989583333334)"/><path d="M-1180 280.1c0-3.3 2.7-6 6-6h148c3.3 0 6 2.7 6 6v108c0 3.3-2.7 6-6 6h-148c-3.3 0-6-2.7-6-6z" stroke="#999" stroke-width="3" fill="#ccc"/><use xlink:href="#l" transform="matrix(1,0,0,1,-1175.0000000000002,279.10071498862135) translate(0.7617187499999858 50.88932291666667)"/><use xlink:href="#m" transform="matrix(1,0,0,1,-1175.0000000000002,279.10071498862135) translate(104.41276041666667 50.88932291666667)"/><use xlink:href="#n" transform="matrix(1,0,0,1,-1175.0000000000002,279.10071498862135) translate(3.550781249999986 76.30989583333334)"/><use xlink:href="#o" transform="matrix(1,0,0,1,-1175.0000000000002,279.10071498862135) translate(62.12109374999999 76.30989583333334)"/><use xlink:href="#p" transform="matrix(1,0,0,1,-1175.0000000000002,279.10071498862135) translate(97.65885416666667 76.30989583333334)"/><path d="M-918.5 11.98h-3V-1.67h3zm0-27.3h-3v-27.3h3zm18.72-59.08h-14.02l-2.45.66-1.6 1.6-.65 2.44v13.45h-3V-70.1l.98-3.6 2.7-2.72 3.62-.98h14.42zm121.28-7.3l-.98 3.6-2.7 2.73-3.62.97h-14.42v-3h14.02l2.45-.66 1.6-1.6.65-2.44v-16.63h3zm-35.94 7.3h-28.45v-3h28.46zm-42.67 0h-28.46v-3h28.45zm78.6-63.98h-3v-10.85h3zm0-27.7h-3v-16.82h3z" stroke="#b2b2b2" stroke-width=".05" fill="#b2b2b2"/><path d="M-778.5-182.86h-3v-1.54h3z" fill="#b2b2b2"/><path d="M-778.48-182.84h-3.04v-1.58h3.04zm-3-1.53v1.48h2.96v-1.47z" stroke="#b2b2b2" stroke-width=".05" fill="#b2b2b2"/><path d="M-920 27.75l-4.64-14.27h9.28z" fill="#b2b2b2"/><path d="M-920 32.6l-6.7-20.62h13.4zm-2.57-17.62l2.57 7.9 2.57-7.9z" stroke="#b2b2b2" stroke-width=".05" fill="#b2b2b2"/><use xlink:href="#q" transform="matrix(1,0,0,1,-808.0227864583336,-138.38448855940942) translate(0 19.951822916666668)"/><path d="M-1098.5 251.98h-3V235.1h3zm0-33.75h-3V188.9h3zm0-54.74h-3v-29.65h3zm19.67-67.9h-14.97l-2.45.66-1.6 1.6-.65 2.44v16.68h-3V99.9l.98-3.6 2.7-2.72 3.62-.98h15.37zm75.83 0h-15.17v-3h15.17zm-30.33 0h-30.34v-3h30.34z" stroke="#b2b2b2" stroke-width=".05" fill="#b2b2b2"/><path d="M-1001.5 95.6h-1.54v-3h1.54z" fill="#b2b2b2"/><path d="M-1001.48 95.63h-1.58v-3.05h1.58zm-1.53-3v2.95h1.48v-2.95z" stroke="#b2b2b2" stroke-width=".05" fill="#b2b2b2"/><path d="M-1100 267.75l-4.64-14.27h9.28z" fill="#b2b2b2"/><path d="M-1100 272.6l-6.7-20.62h13.4zm-2.57-17.62l2.57 7.9 2.57-7.9z" stroke="#b2b2b2" stroke-width=".05" fill="#b2b2b2"/><use xlink:href="#r" transform="matrix(1,0,0,1,-1126.9427083333335,163.4939289197438) translate(0 19.951822916666668)"/><path d="M-240-319.9c0-3.3 2.7-6 6-6h148c3.3 0 6 2.7 6 6v108c0 3.3-2.7 6-6 6h-148c-3.3 0-6-2.7-6-6z" stroke="#834187" stroke-width="3" fill="#b391b5"/><use xlink:href="#s" transform="matrix(1,0,0,1,-235.00000000000023,-320.89928501137865) translate(3.181640625 50.88932291666667)"/><use xlink:href="#t" transform="matrix(1,0,0,1,-235.00000000000023,-320.89928501137865) translate(46.43945312500001 50.88932291666667)"/><use xlink:href="#u" transform="matrix(1,0,0,1,-235.00000000000023,-320.89928501137865) translate(67.466796875 50.88932291666667)"/><use xlink:href="#v" transform="matrix(1,0,0,1,-235.00000000000023,-320.89928501137865) translate(119.201171875 50.88932291666667)"/><use xlink:href="#w" transform="matrix(1,0,0,1,-235.00000000000023,-320.89928501137865) translate(48.681640625 76.30989583333334)"/><path d="M-540-319.9c0-3.3 2.7-6 6-6h148c3.3 0 6 2.7 6 6v108c0 3.3-2.7 6-6 6h-148c-3.3 0-6-2.7-6-6z" stroke="#834187" stroke-width="3" fill="#b391b5"/><use xlink:href="#x" transform="matrix(1,0,0,1,-535.0000000000002,-320.89928501137865) translate(5.569661458333329 50.88932291666667)"/><use xlink:href="#y" transform="matrix(1,0,0,1,-535.0000000000002,-320.89928501137865) translate(41.235026041666664 50.88932291666667)"/><use xlink:href="#z" transform="matrix(1,0,0,1,-535.0000000000002,-320.89928501137865) translate(68.79752604166666 50.88932291666667)"/><use xlink:href="#A" transform="matrix(1,0,0,1,-535.0000000000002,-320.89928501137865) translate(42.62044270833333 76.30989583333334)"/><path d="M-480 300.1c0-3.3 2.7-6 6-6h148c3.3 0 6 2.7 6 6v108c0 3.3-2.7 6-6 6h-148c-3.3 0-6-2.7-6-6z" stroke="#0c7cba" stroke-width="3" fill="#83bbe5"/><use xlink:href="#B" transform="matrix(1,0,0,1,-475.0000000000002,299.10071498862135) translate(13.376302083333329 50.88932291666667)"/><use xlink:href="#C" transform="matrix(1,0,0,1,-475.0000000000002,299.10071498862135) translate(104.95052083333333 50.88932291666667)"/><use xlink:href="#D" transform="matrix(1,0,0,1,-475.0000000000002,299.10071498862135) translate(37.119791666666664 76.30989583333334)"/><path d="M-660 .1c0-3.3 2.7-6 6-6h148c3.3 0 6 2.7 6 6v108c0 3.3-2.7 6-6 6h-148c-3.3 0-6-2.7-6-6z" stroke="#0c7cba" stroke-width="3" fill="#83bbe5"/><use xlink:href="#E" transform="matrix(1,0,0,1,-655.0000000000002,-0.8992850113786517) translate(23.694010416666664 50.88932291666667)"/><use xlink:href="#F" transform="matrix(1,0,0,1,-655.0000000000002,-0.8992850113786517) translate(15.873697916666671 76.30989583333334)"/><use xlink:href="#G" transform="matrix(1,0,0,1,-655.0000000000002,-0.8992850113786517) translate(107.62109375 76.30989583333334)"/><path d="M-120 80.1c0-3.3 2.7-6 6-6H34c3.3 0 6 2.7 6 6v108c0 3.3-2.7 6-6 6h-148c-3.3 0-6-2.7-6-6z" stroke="#0c7cba" stroke-width="3" fill="#83bbe5"/><use xlink:href="#H" transform="matrix(1,0,0,1,-115.00000000000023,79.10071498862135) translate(10.596354166666657 50.88932291666667)"/><use xlink:href="#I" transform="matrix(1,0,0,1,-115.00000000000023,79.10071498862135) translate(54.13671874999999 50.88932291666667)"/><use xlink:href="#J" transform="matrix(1,0,0,1,-115.00000000000023,79.10071498862135) translate(97.88671875 50.88932291666667)"/><use xlink:href="#K" transform="matrix(1,0,0,1,-115.00000000000023,79.10071498862135) translate(51.83528645833333 76.30989583333334)"/><path d="M-360 20.1c0-3.3 2.7-6 6-6h148c3.3 0 6 2.7 6 6v108c0 3.3-2.7 6-6 6h-148c-3.3 0-6-2.7-6-6z" stroke="#0c7cba" stroke-width="3" fill="#83bbe5"/><use xlink:href="#L" transform="matrix(1,0,0,1,-355.0000000000002,19.10071498862135) translate(20.107421875 50.88932291666667)"/><use xlink:href="#M" transform="matrix(1,0,0,1,-355.0000000000002,19.10071498862135) translate(111.845703125 50.88932291666667)"/><use xlink:href="#N" transform="matrix(1,0,0,1,-355.0000000000002,19.10071498862135) translate(36.27669270833333 76.30989583333334)"/><use xlink:href="#O" transform="matrix(1,0,0,1,-355.0000000000002,19.10071498862135) translate(96.66080729166667 76.30989583333334)"/><path d="M-480 540.1c0-3.3 2.7-6 6-6h148c3.3 0 6 2.7 6 6v108c0 3.3-2.7 6-6 6h-148c-3.3 0-6-2.7-6-6z" stroke="#999" stroke-width="3" fill="#ccc"/><use xlink:href="#P" transform="matrix(1,0,0,1,-475.0000000000002,539.1007149886213) translate(10.022135416666657 23.389322916666668)"/><use xlink:href="#Q" transform="matrix(1,0,0,1,-475.0000000000002,539.1007149886213) translate(49.05989583333333 23.389322916666668)"/><use xlink:href="#R" transform="matrix(1,0,0,1,-475.0000000000002,539.1007149886213) translate(32.3984375 48.809895833333336)"/><use xlink:href="#S" transform="matrix(1,0,0,1,-475.0000000000002,539.1007149886213) translate(72.80338541666667 48.809895833333336)"/><use xlink:href="#T" transform="matrix(1,0,0,1,-475.0000000000002,539.1007149886213) translate(37.61653645833333 74.23046875)"/><use xlink:href="#U" transform="matrix(1,0,0,1,-475.0000000000002,539.1007149886213) translate(39.635416666666664 99.65104166666667)"/><path d="M-800 480.1c0-3.3 2.7-6 6-6h148c3.3 0 6 2.7 6 6v108c0 3.3-2.7 6-6 6h-148c-3.3 0-6-2.7-6-6z" stroke="#999" stroke-width="3" fill="#ccc"/><use xlink:href="#V" transform="matrix(1,0,0,1,-795.0000000000002,479.10071498862135) translate(21.40625 37.13932291666667)"/><use xlink:href="#W" transform="matrix(1,0,0,1,-795.0000000000002,479.10071498862135) translate(1.9192708333333286 62.55989583333334)"/><use xlink:href="#X" transform="matrix(1,0,0,1,-795.0000000000002,479.10071498862135) translate(71.98307291666666 62.55989583333334)"/><use xlink:href="#Y" transform="matrix(1,0,0,1,-795.0000000000002,479.10071498862135) translate(117.26432291666667 62.55989583333334)"/><use xlink:href="#Z" transform="matrix(1,0,0,1,-795.0000000000002,479.10071498862135) translate(56.000651041666664 87.98046875000001)"/><path d="M-40 460.1c0-3.3 2.7-6 6-6h148c3.3 0 6 2.7 6 6v108c0 3.3-2.7 6-6 6H-34c-3.3 0-6-2.7-6-6z" stroke="#999" stroke-width="3" fill="#ccc"/><use xlink:href="#aa" transform="matrix(1,0,0,1,-35,459.10071498862135) translate(4.421223958333329 37.13932291666667)"/><use xlink:href="#ab" transform="matrix(1,0,0,1,-35,459.10071498862135) translate(39.074869791666664 37.13932291666667)"/><use xlink:href="#ac" transform="matrix(1,0,0,1,-35,459.10071498862135) translate(61.970703125 37.13932291666667)"/><use xlink:href="#ad" transform="matrix(1,0,0,1,-35,459.10071498862135) translate(125.69986979166667 37.13932291666667)"/><use xlink:href="#ae" transform="matrix(1,0,0,1,-35,459.10071498862135) translate(20.986979166666664 62.55989583333334)"/><use xlink:href="#af" transform="matrix(1,0,0,1,-35,459.10071498862135) translate(46.690104166666664 62.55989583333334)"/><use xlink:href="#ag" transform="matrix(1,0,0,1,-35,459.10071498862135) translate(20.029947916666657 87.98046875000001)"/><path d="M-578.5-28.02h-3v-15.46h3zm0-30.92h-3v-30.9h3zm0-46.37h-3v-30.93h3zm0-63.3h-3v-14h3zm0-29.46h-3v-30.92h3zm14.83-66.34h-10.13l-2.45.66-1.6 1.6-.65 2.44v15.26h-3v-15.66l.98-3.6 2.7-2.72 3.62-.98h10.53zm20.67 0h-10.33v-3H-543z" stroke="#b2b2b2" stroke-width=".05" fill="#b2b2b2"/><path d="M-541.5-264.4h-1.54v-3h1.54z" fill="#b2b2b2"/><path d="M-541.48-264.37h-1.58v-3.05h1.58zm-1.53-3v2.95h1.48v-2.95z" stroke="#b2b2b2" stroke-width=".05" fill="#b2b2b2"/><path d="M-580-12.25l-4.64-14.27h9.28z" fill="#b2b2b2"/><path d="M-580-7.4l-6.7-20.62h13.4zm-2.57-17.62l2.57 7.9 2.57-7.9z" stroke="#b2b2b2" stroke-width=".05" fill="#b2b2b2"/><use xlink:href="#ah" transform="matrix(1,0,0,1,-603.1647135416669,-168.609571469712) translate(0 19.951822916666668)"/><path d="M-278.5-8.02h-3v-13.65h3zm0-27.3h-3v-27.3h3zm-3.7-61.1l2.72 2.7.98 3.62v13.85h-3V-89.7l-.66-2.45-1.6-1.6-2.44-.65H-300v-3h14.2zm-176.3-5.68l.66 2.45 1.6 1.6 2.44.65h13.8v3h-14.2l-3.6-.97-2.72-2.72-.98-3.6v-17.03h3zm60.48 7.7H-426v-3h27.98zm84.02 0h-27.98v-3H-314zm-144.5-41.17h-3v-33.66h3zm0-50.5h-3v-16.83h3z" stroke="#b2b2b2" stroke-width=".05" fill="#b2b2b2"/><path d="M-458.5-202.86h-3v-1.54h3z" fill="#b2b2b2"/><path d="M-458.48-202.84h-3.04v-1.58h3.04zm-3-1.53v1.48h2.96v-1.47z" stroke="#b2b2b2" stroke-width=".05" fill="#b2b2b2"/><path d="M-280 7.75l-4.64-14.27h9.28z" fill="#b2b2b2"/><path d="M-280 12.6l-6.7-20.62h13.4zm-2.57-17.62l2.57 7.9 2.57-7.9z" stroke="#b2b2b2" stroke-width=".05" fill="#b2b2b2"/><use xlink:href="#q" transform="matrix(1,0,0,1,-398.02278645833354,-108.60957146971198) translate(0 19.951822916666668)"/><path d="M-718.5 451.98h-3v-14.5h3zm0-29.03h-3v-29.03h3zm0-43.54h-3V350.4h3zm0-43.53h-3v-29.03h3zm0-43.54h-3v-18.1h3zm0-43.55h-3v-29.02h3zm0-43.54h-3V176.2h3zm0-43.54h-3v-29.03h3zm0-43.54h-3V89.13h3zM-697 55.6h-16.8l-2.45.66-1.6 1.6-.65 2.44v14.3h-3V59.9l.98-3.6 2.7-2.72 3.62-.98h17.2zm34 0h-17v-3h17z" stroke="#b2b2b2" stroke-width=".05" fill="#b2b2b2"/><path d="M-661.5 55.6h-1.54v-3h1.54z" fill="#b2b2b2"/><path d="M-661.48 55.63h-1.58v-3.05h1.58zm-1.53-3v2.95h1.48v-2.95z" stroke="#b2b2b2" stroke-width=".05" fill="#b2b2b2"/><path d="M-720 467.75l-4.64-14.27h9.28z" fill="#b2b2b2"/><path d="M-720 472.6l-6.7-20.62h13.4zm-2.57-17.62l2.57 7.9 2.57-7.9z" stroke="#b2b2b2" stroke-width=".05" fill="#b2b2b2"/><g><use xlink:href="#r" transform="matrix(1,0,0,1,-746.9427083333336,248.80790101541598) translate(0 19.951822916666668)"/></g><path d="M-918.5 527.9l.66 2.45 1.6 1.6 2.44.65h15.1v3h-15.5l-3.6-.97-2.72-2.72-.98-3.6v-15.66h3zm65.75 7.7h-30.62v-3h30.62zm30.63 0h-15.3v-3h15.3zm-96.38-38.42h-3v-30.9h3zm0-46.37h-3v-30.9h3zm0-46.37h-3v-30.9h3zm0-46.37h-3v-.46h3zm0-25.88h-3v-5.04h3zm0-20.5h-3v-30.9h3zm0-46.37h-3v-30.9h3zm0-46.37h-3v-30.9h3zm0-46.37h-3V157.1h3z" stroke="#b2b2b2" stroke-width=".05" fill="#b2b2b2"/><path d="M-918.5 157.14h-3v-1.54h3z" fill="#b2b2b2"/><path d="M-918.48 157.16h-3.04v-1.58h3.04zm-3-1.53v1.48h2.96v-1.47z" stroke="#b2b2b2" stroke-width=".05" fill="#b2b2b2"/><path d="M-806.35 534.1l-14.27 4.64v-9.27z" fill="#b2b2b2"/><path d="M-801.5 534.1l-20.62 6.7v-13.4zm-17.62 2.57l7.9-2.57-7.9-2.57z" stroke="#b2b2b2" stroke-width=".05" fill="#b2b2b2"/><g><use xlink:href="#q" transform="matrix(1,0,0,1,-948.0227864583336,332.1829191998227) translate(0 19.951822916666668)"/></g><path d="M-398.5 271.98h-3v-17.3h3zm22.5-56.38h-17.8l-2.45.66-1.6 1.6-.65 2.44v17.1h-3v-17.5l.98-3.6 2.7-2.72 3.62-.98h18.2zm97.5-7.3l-.98 3.6-2.7 2.73-3.62.97H-304v-3h17.8l2.45-.66 1.6-1.6.65-2.44v-11.63h3zm0-23.87h-3v-23.66h3zm0-35.5h-3V137.1h3z" stroke="#b2b2b2" stroke-width=".05" fill="#b2b2b2"/><path d="M-278.5 137.14h-3v-1.54h3z" fill="#b2b2b2"/><path d="M-278.48 137.16h-3.04v-1.58h3.04zm-3-1.53v1.48h2.96v-1.47z" stroke="#b2b2b2" stroke-width=".05" fill="#b2b2b2"/><path d="M-400 287.75l-4.64-14.27h9.28z" fill="#b2b2b2"/><path d="M-400 292.6l-6.7-20.62h13.4zm-2.57-17.62l2.57 7.9 2.57-7.9z" stroke="#b2b2b2" stroke-width=".05" fill="#b2b2b2"/><g><use xlink:href="#q" transform="matrix(1,0,0,1,-368.02278645833354,201.390428530288) translate(0 19.951822916666668)"/></g><path d="M-578.5 347.9l.66 2.45 1.6 1.6 2.44.65h11.78v3h-12.18l-3.6-.97-2.72-2.72-.98-3.6v-15.6h3zm52.42 7.7h-23.96v-3h23.96zm23.96 0h-11.98v-3h11.98zm-76.38-38.3h-3v-30.8h3zm0-46.2h-3v-24.02h3zm0-49.44h-3V194.1h3zm0-42.96h-3v-30.8h3zm0-46.2h-3v-15.4h3z" stroke="#b2b2b2" stroke-width=".05" fill="#b2b2b2"/><path d="M-578.5 117.14h-3v-1.54h3z" fill="#b2b2b2"/><path d="M-578.48 117.16h-3.04v-1.58h3.04zm-3-1.53v1.48h2.96v-1.47z" stroke="#b2b2b2" stroke-width=".05" fill="#b2b2b2"/><path d="M-486.35 354.1l-14.27 4.64v-9.27z" fill="#b2b2b2"/><path d="M-481.5 354.1l-20.62 6.7v-13.4zm-17.62 2.57l7.9-2.57-7.9-2.57z" stroke="#b2b2b2" stroke-width=".05" fill="#b2b2b2"/><g><use xlink:href="#r" transform="matrix(1,0,0,1,-606.9427083333336,221.6625462577022) translate(0 19.951822916666668)"/></g><path d="M-398.5 511.98h-3v-15.8h3zm0-50.6h-3v-12.65h3zm0-28.47h-3v-15.8h3z" stroke="#b2b2b2" stroke-width=".05" fill="#b2b2b2"/><path d="M-398.5 417.14h-3v-1.54h3z" fill="#b2b2b2"/><path d="M-398.48 417.16h-3.04v-1.58h3.04zm-3-1.53v1.48h2.96v-1.47z" stroke="#b2b2b2" stroke-width=".05" fill="#b2b2b2"/><path d="M-400 527.75l-4.64-14.27h9.28z" fill="#b2b2b2"/><path d="M-400 532.6l-6.7-20.62h13.4zm-2.57-17.62l2.57 7.9 2.57-7.9z" stroke="#b2b2b2" stroke-width=".05" fill="#b2b2b2"/><g><use xlink:href="#ah" transform="matrix(1,0,0,1,-423.1647135416669,461.39042853028803) translate(0 19.951822916666668)"/></g><path d="M-38.5 51.98h-3V33.33h3zm0-37.3h-3v-37.3h3zm-3.7-81.1l2.72 2.7.98 3.62v18.85h-3V-59.7l-.66-2.45-1.6-1.6-2.44-.65H-64v-3h18.2zm-116.3-5.68l.66 2.45 1.6 1.6 2.44.65h17.8v3h-18.2l-3.6-.97-2.72-2.72-.98-3.6v-14.75h3zm0-28.9h-3v-29.12h3zm0-43.68h-3v-29.1h3zm0-43.66h-3v-14.56h3z" stroke="#b2b2b2" stroke-width=".05" fill="#b2b2b2"/><path d="M-158.5-202.86h-3v-1.54h3z" fill="#b2b2b2"/><path d="M-158.47-202.84h-3.06v-1.58h3.06zm-3-1.53v1.48h2.94v-1.47z" stroke="#b2b2b2" stroke-width=".05" fill="#b2b2b2"/><path d="M-40 67.75l-4.64-14.27h9.28z" fill="#b2b2b2"/><path d="M-40 72.6l-6.7-20.62h13.4zm-2.57-17.62l2.57 7.9 2.57-7.9z" stroke="#b2b2b2" stroke-width=".05" fill="#b2b2b2"/><g><use xlink:href="#q" transform="matrix(1,0,0,1,-128.02278645833357,-78.60957146971198) translate(0 19.951822916666668)"/></g><path d="M41.5 431.98h-3V415h3zm0-33.96h-3v-33.96h3zm-3.7-74.44l2.72 2.7.98 3.62v17.18h-3V330.3l-.66-2.45-1.6-1.6-2.44-.65H22.67v-3H34.2zm-76.3-5.68l.66 2.45 1.6 1.6 2.44.65h11.13v3H-34.2l-3.6-.97-2.72-2.72-.98-3.6v-13.64h3zm49.83 7.7h-22.66v-3h22.66zm-49.83-57.4h-3v-3.88h3zm0-17.32h-3v-26.9h3zm0-40.33h-3V197.1h3z" stroke="#b2b2b2" stroke-width=".05" fill="#b2b2b2"/><path d="M-38.5 197.14h-3v-1.54h3z" fill="#b2b2b2"/><path d="M-38.48 197.16h-3.05v-1.58h3.05zm-3-1.53v1.48h2.95v-1.47z" stroke="#b2b2b2" stroke-width=".05" fill="#b2b2b2"/><path d="M40 447.75l-4.64-14.27h9.28z" fill="#b2b2b2"/><path d="M40 452.6l-6.7-20.62h13.4zm-2.57-17.62l2.57 7.9 2.57-7.9z" stroke="#b2b2b2" stroke-width=".05" fill="#b2b2b2"/><g><use xlink:href="#ah" transform="matrix(1,0,0,1,-63.1647135416669,268.1974401280688) translate(0 19.951822916666668)"/></g><path d="M-178.5 507.9l.66 2.45 1.6 1.6 2.44.65h18.45v3h-18.85l-3.6-.97-2.72-2.72-.98-3.6v-16.64h3zm79.1 7.7h-37.3v-3h37.3zm37.28 0h-18.65v-3h18.65zm-116.38-40.4h-3v-28.4h3zm0-53.8h-3V393h3zm-3.7-67.82l2.72 2.7.98 3.62v16.65h-3V360.3l-.66-2.45-1.6-1.6-2.44-.65h-14.36v-3h14.76zm-120.24 2.02H-317v-3h14.56zm43.66 0h-29.1v-3h29.1zm43.67 0h-29.12v-3h29.1z" stroke="#b2b2b2" stroke-width=".05" fill="#b2b2b2"/><path d="M-316.96 355.6h-1.54v-3h1.54z" fill="#b2b2b2"/><path d="M-316.94 355.63h-1.58v-3.05h1.58zm-1.54-3v2.95h1.5v-2.95z" stroke="#b2b2b2" stroke-width=".05" fill="#b2b2b2"/><path d="M-46.35 514.1l-14.27 4.64v-9.27z" fill="#b2b2b2"/><path d="M-41.5 514.1l-20.62 6.7v-13.4zm-17.62 2.57l7.9-2.57-7.9-2.57z" stroke="#b2b2b2" stroke-width=".05" fill="#b2b2b2"/><g><use xlink:href="#r" transform="matrix(1,0,0,1,-206.94270833333346,421.39042853028803) translate(0 19.951822916666668)"/></g><defs><path d="M201 0v-1462h170v1308h645V0H201" id="ai"/><path d="M621-1116c316 0 501 239 501 567 0 339-180 575-508 569S119-212 115-549c-4-339 178-567 506-567zm-5 141c-239 0-329 168-329 426 0 255 93 430 331 430s332-174 332-430-95-426-334-426" id="aj"/><path d="M340-893c80-153 237-262 467-211l-23 154c-45-10-85-15-120-15-184-3-322 182-322 377V0H176v-1096h137l19 203h8" id="ak"/><path d="M995-51C878-2 799 19 639 20c-329 2-524-221-524-559 0-326 172-577 481-577 278 0 451 210 446 493v105H287c4 242 121 392 358 393 118 0 235-25 350-74v148zM864-653c2-195-85-324-270-324-190 0-288 139-303 324h573" id="al"/><path d="M1368-1116c259 2 372 131 371 401V0h-166v-713c0-168-66-262-230-262-221 0-303 131-303 363V0H874v-713c-1-169-66-262-231-262-235 0-301 142-301 400V0H176v-1096h135l27 150h8c56-99 174-170 324-170 171 0 283 62 336 186h8c60-108 189-187 354-186" id="am"/><g id="a"><use transform="matrix(0.009114583333333334,0,0,0.009114583333333334,0,0)" xlink:href="#ai"/><use transform="matrix(0.009114583333333334,0,0,0.009114583333333334,9.688802083333334,0)" xlink:href="#aj"/><use transform="matrix(0.009114583333333334,0,0,0.009114583333333334,20.963541666666668,0)" xlink:href="#ak"/><use transform="matrix(0.009114583333333334,0,0,0.009114583333333334,28.209635416666668,0)" xlink:href="#al"/><use transform="matrix(0.009114583333333334,0,0,0.009114583333333334,38.68229166666667,0)" xlink:href="#am"/></g><path d="M342 0H176v-1096h166V0zm-82-1282c-61 0-98-43-98-111 0-69 36-110 98-110 59 0 98 43 98 110s-39 111-98 111" id="an"/><path d="M1141-549c0 329-147 569-455 569-159 0-273-61-344-161h-12c23 199 7 418 12 633H176v-1588h135l23 150h8c77-108 175-170 344-170 311 0 455 237 455 567zm-172-2c0-242-88-424-307-424-256 0-323 154-320 426 3 280 68 430 324 430 213 0 303-196 303-432" id="ao"/><path d="M502-977c-130 0-238 32-238 139 0 75 39 101 95 134 33 19 97 46 192 81 130 48 217 95 263 143s69 108 69 181C883-73 695 20 449 20 304 20 190-3 109-49v-154c91 47 216 86 344 86 149 0 270-36 270-168 0-43-21-76-55-109-56-55-367-158-434-208-74-55-128-109-128-225 0-327 490-342 754-217l-59 135c-110-45-210-68-299-68" id="ap"/><path d="M563 20c-271 0-399-123-399-399v-717h168v711c1 177 76 266 252 266 250 0 331-135 331-401v-576h166V0H944l-24-147h-9C848-44 724 20 563 20" id="aq"/><g id="b"><use transform="matrix(0.009114583333333334,0,0,0.009114583333333334,0,0)" xlink:href="#an"/><use transform="matrix(0.009114583333333334,0,0,0.009114583333333334,4.721354166666667,0)" xlink:href="#ao"/><use transform="matrix(0.009114583333333334,0,0,0.009114583333333334,16.16015625,0)" xlink:href="#ap"/><use transform="matrix(0.009114583333333334,0,0,0.009114583333333334,25.065104166666668,0)" xlink:href="#aq"/><use transform="matrix(0.009114583333333334,0,0,0.009114583333333334,36.52213541666667,0)" xlink:href="#am"/></g><path d="M115-545c0-330 146-571 454-571 149 0 263 54 342 162h13c-20-185-8-401-11-602h166V0H944l-22-147h-9C836-36 722 20 569 20c-309 0-454-234-454-565zm172 2c0 249 78 424 303 424 257 0 327-150 323-426-4-282-68-432-325-432-220 0-301 191-301 434" id="ar"/><path d="M342 0H176v-1556h166V0" id="as"/><g id="c"><use transform="matrix(0.009114583333333334,0,0,0.009114583333333334,0,0)" xlink:href="#ar"/><use transform="matrix(0.009114583333333334,0,0,0.009114583333333334,11.438802083333334,0)" xlink:href="#aj"/><use transform="matrix(0.009114583333333334,0,0,0.009114583333333334,22.713541666666668,0)" xlink:href="#as"/><use transform="matrix(0.009114583333333334,0,0,0.009114583333333334,27.434895833333336,0)" xlink:href="#aj"/><use transform="matrix(0.009114583333333334,0,0,0.009114583333333334,38.70963541666667,0)" xlink:href="#ak"/></g><path d="M354-322c-2 123 60 204 176 205 51 1 114-10 150-20v127C647 7 557 20 506 20 294 20 188-92 188-315v-652H31v-80l157-69 70-234h96v254h318v129H354v645" id="at"/><g id="d"><use transform="matrix(0.009114583333333334,0,0,0.009114583333333334,0,0)" xlink:href="#ap"/><use transform="matrix(0.009114583333333334,0,0,0.009114583333333334,8.904947916666668,0)" xlink:href="#an"/><use transform="matrix(0.009114583333333334,0,0,0.009114583333333334,13.626302083333336,0)" xlink:href="#at"/></g><path d="M588-1114c260 0 384 106 385 366V0H850l-33-156h-8C708-34 639 17 442 20 231 23 94-94 94-303c0-221 177-337 531-348l186-6c11-203-40-320-233-320-91 0-195 28-310 84l-51-127c97-53 229-94 371-94zM268-301c-1 123 81 184 207 184 203 0 334-120 332-323v-99c-257 14-539-7-539 238" id="au"/><g id="e"><use transform="matrix(0.009114583333333334,0,0,0.009114583333333334,0,0)" xlink:href="#au"/><use transform="matrix(0.009114583333333334,0,0,0.009114583333333334,10.381510416666668,0)" xlink:href="#am"/><use transform="matrix(0.009114583333333334,0,0,0.009114583333333334,27.744791666666668,0)" xlink:href="#al"/><use transform="matrix(0.009114583333333334,0,0,0.009114583333333334,38.21744791666667,0)" xlink:href="#at"/></g><path d="M516-150c94-315 146-423 332-946h178L610 0H416L0-1096h178c98 281 253 670 330 946h8" id="av"/><g id="f"><use transform="matrix(0.009114583333333334,0,0,0.009114583333333334,0,0)" xlink:href="#av"/><use transform="matrix(0.009114583333333334,0,0,0.009114583333333334,9.3515625,0)" xlink:href="#al"/><use transform="matrix(0.009114583333333334,0,0,0.009114583333333334,19.82421875,0)" xlink:href="#as"/><use transform="matrix(0.009114583333333334,0,0,0.009114583333333334,24.545572916666668,0)" xlink:href="#an"/><use transform="matrix(0.009114583333333334,0,0,0.009114583333333334,29.266927083333336,0)" xlink:href="#at"/></g><g id="g"><use transform="matrix(0.009114583333333334,0,0,0.009114583333333334,0,0)" xlink:href="#al"/><use transform="matrix(0.009114583333333334,0,0,0.009114583333333334,10.47265625,0)" xlink:href="#ap"/><use transform="matrix(0.009114583333333334,0,0,0.009114583333333334,19.377604166666668,0)" xlink:href="#ap"/><use transform="matrix(0.009114583333333334,0,0,0.009114583333333334,28.282552083333336,0)" xlink:href="#al"/></g><path d="M287-543c-1 247 91 418 323 418 91 0 185-20 281-59v147C818 1 725 20 614 20c-329 0-499-221-499-561 0-349 172-575 510-575 96 0 221 26 282 57l-51 141c-61-25-157-50-235-51-223 0-334 142-334 426" id="aw"/><g id="h"><use transform="matrix(0.009114583333333334,0,0,0.009114583333333334,0,0)" xlink:href="#aw"/><use transform="matrix(0.009114583333333334,0,0,0.009114583333333334,8.88671875,0)" xlink:href="#an"/><use transform="matrix(0.009114583333333334,0,0,0.009114583333333334,13.608072916666668,0)" xlink:href="#as"/><use transform="matrix(0.009114583333333334,0,0,0.009114583333333334,18.329427083333336,0)" xlink:href="#as"/><use transform="matrix(0.009114583333333334,0,0,0.009114583333333334,23.050781250000007,0)" xlink:href="#aq"/><use transform="matrix(0.009114583333333334,0,0,0.009114583333333334,34.5078125,0)" xlink:href="#am"/></g><g id="i"><use transform="matrix(0.009114583333333334,0,0,0.009114583333333334,0,0)" xlink:href="#ar"/><use transform="matrix(0.009114583333333334,0,0,0.009114583333333334,11.438802083333334,0)" xlink:href="#aj"/><use transform="matrix(0.009114583333333334,0,0,0.009114583333333334,22.713541666666668,0)" xlink:href="#as"/><use transform="matrix(0.009114583333333334,0,0,0.009114583333333334,27.434895833333336,0)" xlink:href="#aj"/><use transform="matrix(0.009114583333333334,0,0,0.009114583333333334,38.70963541666667,0)" xlink:href="#ak"/><use transform="matrix(0.009114583333333334,0,0,0.009114583333333334,45.95572916666667,0)" xlink:href="#al"/></g><g id="j"><use transform="matrix(0.009114583333333334,0,0,0.009114583333333334,0,0)" xlink:href="#al"/><use transform="matrix(0.009114583333333334,0,0,0.009114583333333334,10.47265625,0)" xlink:href="#aq"/></g><path d="M575-1430c-169 0-190 146-184 334h279v129H391V0H225v-967H29v-75l196-60c-15-299 97-465 353-465 58 0 126 12 204 35l-43 133c-64-21-119-31-164-31" id="ax"/><path d="M125-741c0-247 161-377 414-375 57 0 109 7 155 20h379v105l-203 24c37 48 72 129 72 219 0 255-227 390-504 345-71 37-106 84-106 141 0 78 66 88 164 88h194c219-1 369 87 369 293 0 121-49 213-146 277s-239 96-426 96c-250 0-448-83-448-306C39 36 147-58 283-86c-52-23-102-79-99-152 4-104 57-143 133-192-107-42-192-164-192-311zM438-25c-143-1-242 70-239 209s131 181 290 181c139 0 242-21 309-63s101-98 101-169c0-147-88-158-262-158H438zm94-970c-158 0-243 88-243 250 0 153 93 233 246 233 162 0 243-79 243-236 0-165-82-247-246-247" id="ay"/><g id="k"><use transform="matrix(0.009114583333333334,0,0,0.009114583333333334,0,0)" xlink:href="#ax"/><use transform="matrix(0.009114583333333334,0,0,0.009114583333333334,6.325520833333334,0)" xlink:href="#aq"/><use transform="matrix(0.009114583333333334,0,0,0.009114583333333334,17.782552083333336,0)" xlink:href="#ay"/><use transform="matrix(0.009114583333333334,0,0,0.009114583333333334,28.009114583333336,0)" xlink:href="#an"/><use transform="matrix(0.009114583333333334,0,0,0.009114583333333334,32.73046875,0)" xlink:href="#au"/><use transform="matrix(0.009114583333333334,0,0,0.009114583333333334,43.11197916666667,0)" xlink:href="#at"/></g><g id="l"><use transform="matrix(0.009114583333333334,0,0,0.009114583333333334,0,0)" xlink:href="#ao"/><use transform="matrix(0.009114583333333334,0,0,0.009114583333333334,11.438802083333334,0)" xlink:href="#al"/><use transform="matrix(0.009114583333333334,0,0,0.009114583333333334,21.911458333333336,0)" xlink:href="#ak"/><use transform="matrix(0.009114583333333334,0,0,0.009114583333333334,29.531250000000004,0)" xlink:href="#ap"/><use transform="matrix(0.009114583333333334,0,0,0.009114583333333334,38.43619791666667,0)" xlink:href="#ao"/><use transform="matrix(0.009114583333333334,0,0,0.009114583333333334,49.875,0)" xlink:href="#an"/><use transform="matrix(0.009114583333333334,0,0,0.009114583333333334,54.59635416666667,0)" xlink:href="#aw"/><use transform="matrix(0.009114583333333334,0,0,0.009114583333333334,63.48307291666667,0)" xlink:href="#an"/><use transform="matrix(0.009114583333333334,0,0,0.009114583333333334,68.20442708333334,0)" xlink:href="#au"/><use transform="matrix(0.009114583333333334,0,0,0.009114583333333334,78.58593750000003,0)" xlink:href="#at"/><use transform="matrix(0.009114583333333334,0,0,0.009114583333333334,85.17578125000003,0)" xlink:href="#an"/><use transform="matrix(0.009114583333333334,0,0,0.009114583333333334,89.89713541666669,0)" xlink:href="#ap"/></g><path d="M694-1116c270 0 399 125 398 401V0H926v-709c-1-177-76-266-252-266-250 0-332 133-332 400V0H176v-1096h135l27 150h8c62-101 190-170 348-170" id="az"/><g id="m"><use transform="matrix(0.009114583333333334,0,0,0.009114583333333334,0,0)" xlink:href="#aq"/><use transform="matrix(0.009114583333333334,0,0,0.009114583333333334,11.45703125,0)" xlink:href="#az"/><use transform="matrix(0.009114583333333334,0,0,0.009114583333333334,22.9140625,0)" xlink:href="#ar"/><use transform="matrix(0.009114583333333334,0,0,0.009114583333333334,34.352864583333336,0)" xlink:href="#al"/></g><g id="n"><use transform="matrix(0.009114583333333334,0,0,0.009114583333333334,0,0)" xlink:href="#aj"/><use transform="matrix(0.009114583333333334,0,0,0.009114583333333334,11.274739583333334,0)" xlink:href="#am"/><use transform="matrix(0.009114583333333334,0,0,0.009114583333333334,28.638020833333336,0)" xlink:href="#az"/><use transform="matrix(0.009114583333333334,0,0,0.009114583333333334,40.095052083333336,0)" xlink:href="#an"/><use transform="matrix(0.009114583333333334,0,0,0.009114583333333334,44.81640625,0)" xlink:href="#ap"/></g><g id="o"><use transform="matrix(0.009114583333333334,0,0,0.009114583333333334,0,0)" xlink:href="#an"/><use transform="matrix(0.009114583333333334,0,0,0.009114583333333334,4.721354166666667,0)" xlink:href="#ap"/><use transform="matrix(0.009114583333333334,0,0,0.009114583333333334,13.626302083333336,0)" xlink:href="#at"/><use transform="matrix(0.009114583333333334,0,0,0.009114583333333334,20.216145833333336,0)" xlink:href="#al"/></g><g id="p"><use transform="matrix(0.009114583333333334,0,0,0.009114583333333334,0,0)" xlink:href="#az"/><use transform="matrix(0.009114583333333334,0,0,0.009114583333333334,11.45703125,0)" xlink:href="#au"/><use transform="matrix(0.009114583333333334,0,0,0.009114583333333334,21.838541666666668,0)" xlink:href="#at"/><use transform="matrix(0.009114583333333334,0,0,0.009114583333333334,28.428385416666668,0)" xlink:href="#aq"/><use transform="matrix(0.009114583333333334,0,0,0.009114583333333334,39.88541666666667,0)" xlink:href="#ap"/></g><g id="q"><use transform="matrix(0.009114583333333334,0,0,0.009114583333333334,0,0)" xlink:href="#ai"/><use transform="matrix(0.009114583333333334,0,0,0.009114583333333334,9.688802083333334,0)" xlink:href="#aj"/><use transform="matrix(0.009114583333333334,0,0,0.009114583333333334,20.963541666666668,0)" xlink:href="#ak"/><use transform="matrix(0.009114583333333334,0,0,0.009114583333333334,28.209635416666668,0)" xlink:href="#al"/><use transform="matrix(0.009114583333333334,0,0,0.009114583333333334,38.68229166666667,0)" xlink:href="#am"/></g><g id="r"><use transform="matrix(0.009114583333333334,0,0,0.009114583333333334,0,0)" xlink:href="#an"/><use transform="matrix(0.009114583333333334,0,0,0.009114583333333334,4.721354166666667,0)" xlink:href="#ao"/><use transform="matrix(0.009114583333333334,0,0,0.009114583333333334,16.16015625,0)" xlink:href="#ap"/><use transform="matrix(0.009114583333333334,0,0,0.009114583333333334,25.065104166666668,0)" xlink:href="#aq"/><use transform="matrix(0.009114583333333334,0,0,0.009114583333333334,36.52213541666667,0)" xlink:href="#am"/></g><g id="s"><use transform="matrix(0.009114583333333334,0,0,0.009114583333333334,0,0)" xlink:href="#ap"/><use transform="matrix(0.009114583333333334,0,0,0.009114583333333334,8.904947916666668,0)" xlink:href="#aq"/><use transform="matrix(0.009114583333333334,0,0,0.009114583333333334,20.361979166666668,0)" xlink:href="#az"/><use transform="matrix(0.009114583333333334,0,0,0.009114583333333334,31.819010416666668,0)" xlink:href="#at"/></g><g id="t"><use transform="matrix(0.009114583333333334,0,0,0.009114583333333334,0,0)" xlink:href="#an"/><use transform="matrix(0.009114583333333334,0,0,0.009114583333333334,4.721354166666667,0)" xlink:href="#az"/></g><g id="u"><use transform="matrix(0.009114583333333334,0,0,0.009114583333333334,0,0)" xlink:href="#aw"/><use transform="matrix(0.009114583333333334,0,0,0.009114583333333334,8.88671875,0)" xlink:href="#aq"/><use transform="matrix(0.009114583333333334,0,0,0.009114583333333334,20.34375,0)" xlink:href="#as"/><use transform="matrix(0.009114583333333334,0,0,0.009114583333333334,25.065104166666668,0)" xlink:href="#ao"/><use transform="matrix(0.009114583333333334,0,0,0.009114583333333334,36.50390625,0)" xlink:href="#au"/></g><path d="M287-543c0 246 78 424 303 424 259 0 323-148 323-426 0-279-71-432-325-432-220 0-301 191-301 434zm-172-2c0-328 147-571 454-571 150 0 265 57 346 170h9l24-150h131V492H913c5-208-11-450 11-639h-13C834-36 719 20 565 20c-305 0-450-240-450-565" id="aA"/><g id="v"><use transform="matrix(0.009114583333333334,0,0,0.009114583333333334,0,0)" xlink:href="#aA"/><use transform="matrix(0.009114583333333334,0,0,0.009114583333333334,11.438802083333334,0)" xlink:href="#aq"/><use transform="matrix(0.009114583333333334,0,0,0.009114583333333334,22.895833333333336,0)" xlink:href="#an"/></g><g id="w"><use transform="matrix(0.009114583333333334,0,0,0.009114583333333334,0,0)" xlink:href="#aj"/><use transform="matrix(0.009114583333333334,0,0,0.009114583333333334,11.274739583333334,0)" xlink:href="#ax"/><use transform="matrix(0.009114583333333334,0,0,0.009114583333333334,17.600260416666668,0)" xlink:href="#ax"/><use transform="matrix(0.009114583333333334,0,0,0.009114583333333334,23.92578125,0)" xlink:href="#an"/><use transform="matrix(0.009114583333333334,0,0,0.009114583333333334,28.647135416666668,0)" xlink:href="#aw"/><use transform="matrix(0.009114583333333334,0,0,0.009114583333333334,37.53385416666667,0)" xlink:href="#an"/><use transform="matrix(0.009114583333333334,0,0,0.009114583333333334,42.255208333333336,0)" xlink:href="#au"/></g><g id="x"><use transform="matrix(0.009114583333333334,0,0,0.009114583333333334,0,0)" xlink:href="#ap"/><use transform="matrix(0.009114583333333334,0,0,0.009114583333333334,8.904947916666668,0)" xlink:href="#al"/><use transform="matrix(0.009114583333333334,0,0,0.009114583333333334,19.377604166666668,0)" xlink:href="#ar"/></g><g id="y"><use transform="matrix(0.009114583333333334,0,0,0.009114583333333334,0,0)" xlink:href="#ar"/><use transform="matrix(0.009114583333333334,0,0,0.009114583333333334,11.438802083333334,0)" xlink:href="#aj"/></g><g id="z"><use transform="matrix(0.009114583333333334,0,0,0.009114583333333334,0,0)" xlink:href="#al"/><use transform="matrix(0.009114583333333334,0,0,0.009114583333333334,10.47265625,0)" xlink:href="#an"/><use transform="matrix(0.009114583333333334,0,0,0.009114583333333334,15.194010416666668,0)" xlink:href="#aq"/><use transform="matrix(0.009114583333333334,0,0,0.009114583333333334,26.651041666666668,0)" xlink:href="#ap"/><use transform="matrix(0.009114583333333334,0,0,0.009114583333333334,35.555989583333336,0)" xlink:href="#am"/><use transform="matrix(0.009114583333333334,0,0,0.009114583333333334,52.919270833333336,0)" xlink:href="#aj"/><use transform="matrix(0.009114583333333334,0,0,0.009114583333333334,64.19401041666667,0)" xlink:href="#ar"/></g><g id="A"><use transform="matrix(0.009114583333333334,0,0,0.009114583333333334,0,0)" xlink:href="#at"/><use transform="matrix(0.009114583333333334,0,0,0.009114583333333334,6.58984375,0)" xlink:href="#al"/><use transform="matrix(0.009114583333333334,0,0,0.009114583333333334,17.0625,0)" xlink:href="#am"/><use transform="matrix(0.009114583333333334,0,0,0.009114583333333334,34.42578125,0)" xlink:href="#ao"/><use transform="matrix(0.009114583333333334,0,0,0.009114583333333334,45.864583333333336,0)" xlink:href="#aj"/><use transform="matrix(0.009114583333333334,0,0,0.009114583333333334,57.13932291666667,0)" xlink:href="#ak"/></g><path d="M1016 0H201v-1462h815v151H371v471h606v150H371v538h645V0" id="aB"/><path d="M440-561L59-1096h189l289 420 288-420h187L631-561 1032 0H844L537-444 227 0H39" id="aC"/><g id="B"><use transform="matrix(0.009114583333333334,0,0,0.009114583333333334,0,0)" xlink:href="#aB"/><use transform="matrix(0.009114583333333334,0,0,0.009114583333333334,10.381510416666668,0)" xlink:href="#aC"/><use transform="matrix(0.009114583333333334,0,0,0.009114583333333334,19.78776041666667,0)" xlink:href="#aw"/><use transform="matrix(0.009114583333333334,0,0,0.009114583333333334,28.67447916666667,0)" xlink:href="#al"/><use transform="matrix(0.009114583333333334,0,0,0.009114583333333334,39.14713541666667,0)" xlink:href="#ao"/><use transform="matrix(0.009114583333333334,0,0,0.009114583333333334,50.5859375,0)" xlink:href="#at"/><use transform="matrix(0.009114583333333334,0,0,0.009114583333333334,57.17578125000001,0)" xlink:href="#al"/><use transform="matrix(0.009114583333333334,0,0,0.009114583333333334,67.6484375,0)" xlink:href="#aq"/><use transform="matrix(0.009114583333333334,0,0,0.009114583333333334,79.10546875,0)" xlink:href="#ak"/></g><g id="C"><use transform="matrix(0.009114583333333334,0,0,0.009114583333333334,0,0)" xlink:href="#ap"/><use transform="matrix(0.009114583333333334,0,0,0.009114583333333334,8.904947916666668,0)" xlink:href="#an"/><use transform="matrix(0.009114583333333334,0,0,0.009114583333333334,13.626302083333336,0)" xlink:href="#az"/><use transform="matrix(0.009114583333333334,0,0,0.009114583333333334,25.083333333333336,0)" xlink:href="#at"/></g><g id="D"><use transform="matrix(0.009114583333333334,0,0,0.009114583333333334,0,0)" xlink:href="#aj"/><use transform="matrix(0.009114583333333334,0,0,0.009114583333333334,11.274739583333334,0)" xlink:href="#aw"/><use transform="matrix(0.009114583333333334,0,0,0.009114583333333334,20.161458333333336,0)" xlink:href="#aw"/><use transform="matrix(0.009114583333333334,0,0,0.009114583333333334,29.048177083333336,0)" xlink:href="#au"/><use transform="matrix(0.009114583333333334,0,0,0.009114583333333334,39.4296875,0)" xlink:href="#al"/><use transform="matrix(0.009114583333333334,0,0,0.009114583333333334,49.90234375,0)" xlink:href="#aw"/><use transform="matrix(0.009114583333333334,0,0,0.009114583333333334,58.78906250000001,0)" xlink:href="#au"/><use transform="matrix(0.009114583333333334,0,0,0.009114583333333334,69.17057291666667,0)" xlink:href="#at"/></g><g id="E"><use transform="matrix(0.009114583333333334,0,0,0.009114583333333334,0,0)" xlink:href="#aw"/><use transform="matrix(0.009114583333333334,0,0,0.009114583333333334,8.88671875,0)" xlink:href="#aj"/><use transform="matrix(0.009114583333333334,0,0,0.009114583333333334,20.161458333333336,0)" xlink:href="#az"/><use transform="matrix(0.009114583333333334,0,0,0.009114583333333334,31.618489583333336,0)" xlink:href="#ap"/><use transform="matrix(0.009114583333333334,0,0,0.009114583333333334,40.5234375,0)" xlink:href="#al"/><use transform="matrix(0.009114583333333334,0,0,0.009114583333333334,50.99609375,0)" xlink:href="#aw"/><use transform="matrix(0.009114583333333334,0,0,0.009114583333333334,59.88281250000001,0)" xlink:href="#at"/><use transform="matrix(0.009114583333333334,0,0,0.009114583333333334,66.47265625,0)" xlink:href="#al"/><use transform="matrix(0.009114583333333334,0,0,0.009114583333333334,76.9453125,0)" xlink:href="#at"/><use transform="matrix(0.009114583333333334,0,0,0.009114583333333334,83.53515625,0)" xlink:href="#aq"/><use transform="matrix(0.009114583333333334,0,0,0.009114583333333334,94.9921875,0)" xlink:href="#ak"/></g><g id="F"><use transform="matrix(0.009114583333333334,0,0,0.009114583333333334,0,0)" xlink:href="#au"/><use transform="matrix(0.009114583333333334,0,0,0.009114583333333334,10.381510416666668,0)" xlink:href="#ar"/><use transform="matrix(0.009114583333333334,0,0,0.009114583333333334,21.8203125,0)" xlink:href="#an"/><use transform="matrix(0.009114583333333334,0,0,0.009114583333333334,26.541666666666668,0)" xlink:href="#ao"/><use transform="matrix(0.009114583333333334,0,0,0.009114583333333334,37.98046875,0)" xlink:href="#an"/><use transform="matrix(0.009114583333333334,0,0,0.009114583333333334,42.701822916666664,0)" xlink:href="#ap"/><use transform="matrix(0.009114583333333334,0,0,0.009114583333333334,51.60677083333333,0)" xlink:href="#aw"/><use transform="matrix(0.009114583333333334,0,0,0.009114583333333334,60.49348958333333,0)" xlink:href="#an"/><use transform="matrix(0.009114583333333334,0,0,0.009114583333333334,65.21484375,0)" xlink:href="#az"/><use transform="matrix(0.009114583333333334,0,0,0.009114583333333334,76.671875,0)" xlink:href="#ay"/></g><g id="G"><use transform="matrix(0.009114583333333334,0,0,0.009114583333333334,0,0)" xlink:href="#al"/><use transform="matrix(0.009114583333333334,0,0,0.009114583333333334,10.47265625,0)" xlink:href="#as"/><use transform="matrix(0.009114583333333334,0,0,0.009114583333333334,15.194010416666668,0)" xlink:href="#an"/><use transform="matrix(0.009114583333333334,0,0,0.009114583333333334,19.915364583333336,0)" xlink:href="#at"/></g><path d="M649-1462c450-4 719 268 719 717 0 484-276 748-762 745H201v-1462h448zM578-147c400 1 610-197 610-592 1-379-192-576-570-576H371v1168h207" id="aD"/><g id="H"><use transform="matrix(0.009114583333333334,0,0,0.009114583333333334,0,0)" xlink:href="#aD"/><use transform="matrix(0.009114583333333334,0,0,0.009114583333333334,13.608072916666668,0)" xlink:href="#aq"/><use transform="matrix(0.009114583333333334,0,0,0.009114583333333334,25.065104166666668,0)" xlink:href="#an"/><use transform="matrix(0.009114583333333334,0,0,0.009114583333333334,29.786458333333336,0)" xlink:href="#ap"/></g><g id="I"><use transform="matrix(0.009114583333333334,0,0,0.009114583333333334,0,0)" xlink:href="#au"/><use transform="matrix(0.009114583333333334,0,0,0.009114583333333334,10.381510416666668,0)" xlink:href="#aq"/><use transform="matrix(0.009114583333333334,0,0,0.009114583333333334,21.838541666666668,0)" xlink:href="#at"/><use transform="matrix(0.009114583333333334,0,0,0.009114583333333334,28.428385416666668,0)" xlink:href="#al"/></g><g id="J"><use transform="matrix(0.009114583333333334,0,0,0.009114583333333334,0,0)" xlink:href="#an"/><use transform="matrix(0.009114583333333334,0,0,0.009114583333333334,4.721354166666667,0)" xlink:href="#ak"/><use transform="matrix(0.009114583333333334,0,0,0.009114583333333334,12.341145833333334,0)" xlink:href="#aq"/><use transform="matrix(0.009114583333333334,0,0,0.009114583333333334,23.798177083333336,0)" xlink:href="#ak"/><use transform="matrix(0.009114583333333334,0,0,0.009114583333333334,31.044270833333336,0)" xlink:href="#al"/></g><g id="K"><use transform="matrix(0.009114583333333334,0,0,0.009114583333333334,0,0)" xlink:href="#ar"/><use transform="matrix(0.009114583333333334,0,0,0.009114583333333334,11.438802083333334,0)" xlink:href="#aj"/><use transform="matrix(0.009114583333333334,0,0,0.009114583333333334,22.713541666666668,0)" xlink:href="#as"/><use transform="matrix(0.009114583333333334,0,0,0.009114583333333334,27.434895833333336,0)" xlink:href="#aj"/><use transform="matrix(0.009114583333333334,0,0,0.009114583333333334,38.70963541666667,0)" xlink:href="#ak"/></g><g id="L"><use transform="matrix(0.009114583333333334,0,0,0.009114583333333334,0,0)" xlink:href="#an"/><use transform="matrix(0.009114583333333334,0,0,0.009114583333333334,4.721354166666667,0)" xlink:href="#az"/><use transform="matrix(0.009114583333333334,0,0,0.009114583333333334,16.178385416666668,0)" xlink:href="#aw"/><use transform="matrix(0.009114583333333334,0,0,0.009114583333333334,25.065104166666668,0)" xlink:href="#an"/><use transform="matrix(0.009114583333333334,0,0,0.009114583333333334,29.786458333333336,0)" xlink:href="#ar"/><use transform="matrix(0.009114583333333334,0,0,0.009114583333333334,41.22526041666667,0)" xlink:href="#an"/><use transform="matrix(0.009114583333333334,0,0,0.009114583333333334,45.946614583333336,0)" xlink:href="#ar"/><use transform="matrix(0.009114583333333334,0,0,0.009114583333333334,57.38541666666667,0)" xlink:href="#aq"/><use transform="matrix(0.009114583333333334,0,0,0.009114583333333334,68.84244791666667,0)" xlink:href="#az"/><use transform="matrix(0.009114583333333334,0,0,0.009114583333333334,80.29947916666667,0)" xlink:href="#at"/></g><g id="M"><use transform="matrix(0.009114583333333334,0,0,0.009114583333333334,0,0)" xlink:href="#aq"/><use transform="matrix(0.009114583333333334,0,0,0.009114583333333334,11.45703125,0)" xlink:href="#at"/></g><path d="M686 20c-159 0-273-61-344-161h-12L295 0H176v-1556h166c-2 198 6 423-8 606h8c77-109 192-164 344-164 310 0 455 234 455 565 0 329-147 569-455 569zm283-571c0-257-72-424-307-424-256 0-320 146-320 426s68 430 324 430c228 0 303-184 303-432" id="aE"/><g id="N"><use transform="matrix(0.009114583333333334,0,0,0.009114583333333334,0,0)" xlink:href="#as"/><use transform="matrix(0.009114583333333334,0,0,0.009114583333333334,4.721354166666667,0)" xlink:href="#au"/><use transform="matrix(0.009114583333333334,0,0,0.009114583333333334,15.102864583333336,0)" xlink:href="#aE"/><use transform="matrix(0.009114583333333334,0,0,0.009114583333333334,26.54166666666667,0)" xlink:href="#aj"/><use transform="matrix(0.009114583333333334,0,0,0.009114583333333334,37.816406250000014,0)" xlink:href="#ak"/><use transform="matrix(0.009114583333333334,0,0,0.009114583333333334,45.062500000000014,0)" xlink:href="#al"/></g><g id="O"><use transform="matrix(0.009114583333333334,0,0,0.009114583333333334,0,0)" xlink:href="#al"/><use transform="matrix(0.009114583333333334,0,0,0.009114583333333334,10.47265625,0)" xlink:href="#at"/></g><g id="P"><use transform="matrix(0.009114583333333334,0,0,0.009114583333333334,0,0)" xlink:href="#az"/><use transform="matrix(0.009114583333333334,0,0,0.009114583333333334,11.45703125,0)" xlink:href="#aj"/><use transform="matrix(0.009114583333333334,0,0,0.009114583333333334,22.731770833333336,0)" xlink:href="#az"/></g><g id="Q"><use transform="matrix(0.009114583333333334,0,0,0.009114583333333334,0,0)" xlink:href="#az"/><use transform="matrix(0.009114583333333334,0,0,0.009114583333333334,11.45703125,0)" xlink:href="#aq"/><use transform="matrix(0.009114583333333334,0,0,0.009114583333333334,22.9140625,0)" xlink:href="#am"/><use transform="matrix(0.009114583333333334,0,0,0.009114583333333334,40.27734375,0)" xlink:href="#aA"/><use transform="matrix(0.009114583333333334,0,0,0.009114583333333334,51.716145833333336,0)" xlink:href="#aq"/><use transform="matrix(0.009114583333333334,0,0,0.009114583333333334,63.173177083333336,0)" xlink:href="#au"/><use transform="matrix(0.009114583333333334,0,0,0.009114583333333334,73.5546875,0)" xlink:href="#am"/></g><g id="R"><use transform="matrix(0.009114583333333334,0,0,0.009114583333333334,0,0)" xlink:href="#al"/><use transform="matrix(0.009114583333333334,0,0,0.009114583333333334,10.47265625,0)" xlink:href="#an"/><use transform="matrix(0.009114583333333334,0,0,0.009114583333333334,15.194010416666668,0)" xlink:href="#aq"/><use transform="matrix(0.009114583333333334,0,0,0.009114583333333334,26.651041666666668,0)" xlink:href="#ap"/></g><g id="S"><use transform="matrix(0.009114583333333334,0,0,0.009114583333333334,0,0)" xlink:href="#am"/><use transform="matrix(0.009114583333333334,0,0,0.009114583333333334,17.36328125,0)" xlink:href="#aj"/><use transform="matrix(0.009114583333333334,0,0,0.009114583333333334,28.638020833333336,0)" xlink:href="#ar"/><use transform="matrix(0.009114583333333334,0,0,0.009114583333333334,40.07682291666667,0)" xlink:href="#an"/></g><g id="T"><use transform="matrix(0.009114583333333334,0,0,0.009114583333333334,0,0)" xlink:href="#at"/><use transform="matrix(0.009114583333333334,0,0,0.009114583333333334,6.58984375,0)" xlink:href="#al"/><use transform="matrix(0.009114583333333334,0,0,0.009114583333333334,17.0625,0)" xlink:href="#am"/><use transform="matrix(0.009114583333333334,0,0,0.009114583333333334,34.42578125,0)" xlink:href="#ao"/><use transform="matrix(0.009114583333333334,0,0,0.009114583333333334,45.864583333333336,0)" xlink:href="#aj"/><use transform="matrix(0.009114583333333334,0,0,0.009114583333333334,57.13932291666667,0)" xlink:href="#ak"/><use transform="matrix(0.009114583333333334,0,0,0.009114583333333334,64.38541666666667,0)" xlink:href="#au"/></g><g id="U"><use transform="matrix(0.009114583333333334,0,0,0.009114583333333334,0,0)" xlink:href="#an"/><use transform="matrix(0.009114583333333334,0,0,0.009114583333333334,4.721354166666667,0)" xlink:href="#az"/><use transform="matrix(0.009114583333333334,0,0,0.009114583333333334,16.178385416666668,0)" xlink:href="#aw"/><use transform="matrix(0.009114583333333334,0,0,0.009114583333333334,25.065104166666668,0)" xlink:href="#an"/><use transform="matrix(0.009114583333333334,0,0,0.009114583333333334,29.786458333333336,0)" xlink:href="#ar"/><use transform="matrix(0.009114583333333334,0,0,0.009114583333333334,41.22526041666667,0)" xlink:href="#aq"/><use transform="matrix(0.009114583333333334,0,0,0.009114583333333334,52.68229166666667,0)" xlink:href="#az"/><use transform="matrix(0.009114583333333334,0,0,0.009114583333333334,64.13932291666667,0)" xlink:href="#at"/></g><path d="M63 264c30-115 88-378 105-502h182l15 23C327-69 250 132 188 264H63" id="aF"/><g id="V"><use transform="matrix(0.009114583333333334,0,0,0.009114583333333334,0,0)" xlink:href="#aw"/><use transform="matrix(0.009114583333333334,0,0,0.009114583333333334,8.88671875,0)" xlink:href="#aj"/><use transform="matrix(0.009114583333333334,0,0,0.009114583333333334,20.161458333333336,0)" xlink:href="#az"/><use transform="matrix(0.009114583333333334,0,0,0.009114583333333334,31.618489583333336,0)" xlink:href="#ap"/><use transform="matrix(0.009114583333333334,0,0,0.009114583333333334,40.5234375,0)" xlink:href="#al"/><use transform="matrix(0.009114583333333334,0,0,0.009114583333333334,50.99609375,0)" xlink:href="#aw"/><use transform="matrix(0.009114583333333334,0,0,0.009114583333333334,59.88281250000001,0)" xlink:href="#at"/><use transform="matrix(0.009114583333333334,0,0,0.009114583333333334,66.47265625,0)" xlink:href="#al"/><use transform="matrix(0.009114583333333334,0,0,0.009114583333333334,76.9453125,0)" xlink:href="#at"/><use transform="matrix(0.009114583333333334,0,0,0.009114583333333334,83.53515625,0)" xlink:href="#aq"/><use transform="matrix(0.009114583333333334,0,0,0.009114583333333334,94.9921875,0)" xlink:href="#ak"/><use transform="matrix(0.009114583333333334,0,0,0.009114583333333334,102.61197916666667,0)" xlink:href="#aF"/></g><g id="W"><use transform="matrix(0.009114583333333334,0,0,0.009114583333333334,0,0)" xlink:href="#au"/><use transform="matrix(0.009114583333333334,0,0,0.009114583333333334,10.381510416666668,0)" xlink:href="#ar"/><use transform="matrix(0.009114583333333334,0,0,0.009114583333333334,21.8203125,0)" xlink:href="#an"/><use transform="matrix(0.009114583333333334,0,0,0.009114583333333334,26.541666666666668,0)" xlink:href="#ao"/><use transform="matrix(0.009114583333333334,0,0,0.009114583333333334,37.98046875,0)" xlink:href="#an"/><use transform="matrix(0.009114583333333334,0,0,0.009114583333333334,42.701822916666664,0)" xlink:href="#ap"/><use transform="matrix(0.009114583333333334,0,0,0.009114583333333334,51.60677083333333,0)" xlink:href="#aw"/><use transform="matrix(0.009114583333333334,0,0,0.009114583333333334,60.49348958333333,0)" xlink:href="#an"/></g><g id="X"><use transform="matrix(0.009114583333333334,0,0,0.009114583333333334,0,0)" xlink:href="#av"/><use transform="matrix(0.009114583333333334,0,0,0.009114583333333334,9.3515625,0)" xlink:href="#al"/><use transform="matrix(0.009114583333333334,0,0,0.009114583333333334,19.82421875,0)" xlink:href="#as"/><use transform="matrix(0.009114583333333334,0,0,0.009114583333333334,24.545572916666668,0)" xlink:href="#an"/><use transform="matrix(0.009114583333333334,0,0,0.009114583333333334,29.266927083333336,0)" xlink:href="#at"/><use transform="matrix(0.009114583333333334,0,0,0.009114583333333334,35.856770833333336,0)" xlink:href="#aF"/></g><g id="Y"><use transform="matrix(0.009114583333333334,0,0,0.009114583333333334,0,0)" xlink:href="#ap"/><use transform="matrix(0.009114583333333334,0,0,0.009114583333333334,8.904947916666668,0)" xlink:href="#al"/><use transform="matrix(0.009114583333333334,0,0,0.009114583333333334,19.377604166666668,0)" xlink:href="#ar"/></g><g id="Z"><use transform="matrix(0.009114583333333334,0,0,0.009114583333333334,0,0)" xlink:href="#aA"/><use transform="matrix(0.009114583333333334,0,0,0.009114583333333334,11.438802083333334,0)" xlink:href="#aq"/><use transform="matrix(0.009114583333333334,0,0,0.009114583333333334,22.895833333333336,0)" xlink:href="#an"/><use transform="matrix(0.009114583333333334,0,0,0.009114583333333334,27.6171875,0)" xlink:href="#au"/></g><g id="aa"><use transform="matrix(0.009114583333333334,0,0,0.009114583333333334,0,0)" xlink:href="#az"/><use transform="matrix(0.009114583333333334,0,0,0.009114583333333334,11.45703125,0)" xlink:href="#an"/><use transform="matrix(0.009114583333333334,0,0,0.009114583333333334,16.178385416666668,0)" xlink:href="#ap"/><use transform="matrix(0.009114583333333334,0,0,0.009114583333333334,25.083333333333336,0)" xlink:href="#an"/></g><g id="ab"><use transform="matrix(0.009114583333333334,0,0,0.009114583333333334,0,0)" xlink:href="#aq"/><use transform="matrix(0.009114583333333334,0,0,0.009114583333333334,11.45703125,0)" xlink:href="#at"/></g><g id="ac"><use transform="matrix(0.009114583333333334,0,0,0.009114583333333334,0,0)" xlink:href="#au"/><use transform="matrix(0.009114583333333334,0,0,0.009114583333333334,10.381510416666668,0)" xlink:href="#as"/><use transform="matrix(0.009114583333333334,0,0,0.009114583333333334,15.102864583333336,0)" xlink:href="#an"/><use transform="matrix(0.009114583333333334,0,0,0.009114583333333334,19.824218750000007,0)" xlink:href="#aA"/><use transform="matrix(0.009114583333333334,0,0,0.009114583333333334,31.263020833333336,0)" xlink:href="#aq"/><use transform="matrix(0.009114583333333334,0,0,0.009114583333333334,42.720052083333336,0)" xlink:href="#an"/><use transform="matrix(0.009114583333333334,0,0,0.009114583333333334,47.44140625,0)" xlink:href="#ar"/></g><g id="ad"><use transform="matrix(0.009114583333333334,0,0,0.009114583333333334,0,0)" xlink:href="#al"/><use transform="matrix(0.009114583333333334,0,0,0.009114583333333334,10.098958333333334,0)" xlink:href="#aC"/></g><g id="ae"><use transform="matrix(0.009114583333333334,0,0,0.009114583333333334,0,0)" xlink:href="#al"/><use transform="matrix(0.009114583333333334,0,0,0.009114583333333334,10.47265625,0)" xlink:href="#au"/></g><g id="af"><use transform="matrix(0.009114583333333334,0,0,0.009114583333333334,0,0)" xlink:href="#aw"/><use transform="matrix(0.009114583333333334,0,0,0.009114583333333334,8.88671875,0)" xlink:href="#aj"/><use transform="matrix(0.009114583333333334,0,0,0.009114583333333334,20.161458333333336,0)" xlink:href="#am"/><use transform="matrix(0.009114583333333334,0,0,0.009114583333333334,37.524739583333336,0)" xlink:href="#am"/><use transform="matrix(0.009114583333333334,0,0,0.009114583333333334,54.888020833333336,0)" xlink:href="#aj"/><use transform="matrix(0.009114583333333334,0,0,0.009114583333333334,66.16276041666667,0)" xlink:href="#ar"/><use transform="matrix(0.009114583333333334,0,0,0.009114583333333334,77.6015625,0)" xlink:href="#an"/></g><g id="ag"><use transform="matrix(0.009114583333333334,0,0,0.009114583333333334,0,0)" xlink:href="#aw"/><use transform="matrix(0.009114583333333334,0,0,0.009114583333333334,8.88671875,0)" xlink:href="#aj"/><use transform="matrix(0.009114583333333334,0,0,0.009114583333333334,20.161458333333336,0)" xlink:href="#az"/><use transform="matrix(0.009114583333333334,0,0,0.009114583333333334,31.618489583333336,0)" xlink:href="#ap"/><use transform="matrix(0.009114583333333334,0,0,0.009114583333333334,40.5234375,0)" xlink:href="#al"/><use transform="matrix(0.009114583333333334,0,0,0.009114583333333334,50.99609375,0)" xlink:href="#aA"/><use transform="matrix(0.009114583333333334,0,0,0.009114583333333334,62.434895833333336,0)" xlink:href="#aq"/><use transform="matrix(0.009114583333333334,0,0,0.009114583333333334,73.89192708333334,0)" xlink:href="#au"/><use transform="matrix(0.009114583333333334,0,0,0.009114583333333334,84.27343750000003,0)" xlink:href="#at"/><use transform="matrix(0.009114583333333334,0,0,0.009114583333333334,90.86328125000003,0)" xlink:href="#aq"/><use transform="matrix(0.009114583333333334,0,0,0.009114583333333334,102.3203125,0)" xlink:href="#ak"/></g><g id="ah"><use transform="matrix(0.009114583333333334,0,0,0.009114583333333334,0,0)" xlink:href="#ar"/><use transform="matrix(0.009114583333333334,0,0,0.009114583333333334,11.438802083333334,0)" xlink:href="#aj"/><use transform="matrix(0.009114583333333334,0,0,0.009114583333333334,22.713541666666668,0)" xlink:href="#as"/><use transform="matrix(0.009114583333333334,0,0,0.009114583333333334,27.434895833333336,0)" xlink:href="#aj"/><use transform="matrix(0.009114583333333334,0,0,0.009114583333333334,38.70963541666667,0)" xlink:href="#ak"/></g></defs></g></svg>