<svg xmlns="http://www.w3.org/2000/svg" xmlns:lucid="lucid" width="2215.31" height="1100.99"><g lucid:page-tab-id="JstWH3MQghyc"><path d="M875.3 438.42c0-3.3 2.7-6 6-6h108c3.33 0 6 2.7 6 6v108c0 3.32-2.67 6-6 6h-108c-3.3 0-6-2.68-6-6z" stroke="#999" stroke-width="3" fill="#ccc"/><path d="M875.3 158.42c0-3.3 2.7-6 6-6h108c3.33 0 6 2.7 6 6v108c0 3.32-2.67 6-6 6h-108c-3.3 0-6-2.68-6-6z" stroke="#834187" stroke-width="3" fill="#b391b5"/><path d="M875.3 578.42c0-3.3 2.7-6 6-6h108c3.33 0 6 2.7 6 6v108c0 3.32-2.67 6-6 6h-108c-3.3 0-6-2.68-6-6zM1015.3 438.42c0-3.3 2.7-6 6-6h108c3.33 0 6 2.7 6 6v108c0 3.32-2.67 6-6 6h-108c-3.3 0-6-2.68-6-6z" stroke="#999" stroke-width="3" fill="#ccc"/><path d="M875.3 298.42c0-3.3 2.7-6 6-6h108c3.33 0 6 2.7 6 6v108c0 3.32-2.67 6-6 6h-108c-3.3 0-6-2.68-6-6z" stroke="#0c7cba" stroke-width="3" fill="#83bbe5"/><path d="M854.94 508.87V138.42c0-3.3 2.68-6 6-6h148c3.3 0 6 2.7 6 6v268c0 3.32 2.68 6 6 6h128c3.3 0 6 2.7 6 6l.36 148c0 3.32-2.67 6-6 6h-128c-3.3 0-6 2.7-6 6v128c0 3.32-2.67 6-6 6h-148c-3.3 0-6-2.68-6-6z" fill-opacity="0"/><path d="M854.93 468.42v-2.84m0-14.23V422.9m0-14.22v-2.84m0-14.23v-28.44m0-14.22v-2.85m0-14.23v-28.45m0-14.22v-2.85m0-14.22v-28.45m0-14.22v-2.85m0-14.2v-28.46m0-14.22v-2.85m0-14.22v-14.23l.82-3.02 2.15-2.16 3.03-.82h17.62m17.62 0h3.52m17.6 0h35.25m17.62 0h3.52m17.6 0h17.63l3.03.82 2.15 2.16.83 3.02v15.96m0 15.95v3.2m0 15.94v31.9m0 15.96v3.2m0 15.94v31.9m0 15.96v3.2m0 15.94v31.9m0 15.96v3.2m0 15.94v15.95l.82 3.03 2.15 2.16 3.03.82h15.24m15.24 0h3.05m15.24 0h30.47m15.24 0h3.05m15.24 0h15.23l3.02.82 2.16 2.14.84 3.02v.02l.05 17.62m.03 17.62v3.53m.05 17.6l.08 35.24m.05 17.62v3.53m.06 17.6l.04 17.62-.8 3.03-2.16 2.16-3.03.82h-15.23m-15.23 0h-3.05m-15.25 0h-30.48m-15.23 0h-3.05m-15.25 0h-15.24l-3.02.82-2.15 2.16-.82 3.02v15.24m0 15.24v3.05m0 15.24v30.46m0 15.24v3.05m0 15.24v15.22l-.8 3.03-2.16 2.16-3.03.82h-17.6m-17.63 0h-3.52m-17.62 0H917.7m-17.63 0h-3.52m-17.62 0H861.3l-3-.8-2.17-2.16-.83-3.02v-.02l-.03-15.67m-.03-15.68v-3.14m-.03-15.68l-.05-31.36m-.03-15.7v-3.12m-.03-15.68l-.07-31.36m-.03-15.68v-3.13m-.03-15.68l-.03-15.68v-26.22" stroke="#5e5e5e" stroke-width="3" fill="none"/><path d="M154 501c3.3 0 6-2.7 6-6V227c0-3.33 2.7-6 6-6h148c3.3 0 6 2.67 6 6v268c0 3.3 2.7 6 6 6h128c3.3 0 6 2.67 6.03 6l.7 146.38c.02 3.3-2.65 5.98-5.96 5.95L26 656.03c-3.3-.02-6-2.73-6-6.04V507c0-3.33 2.7-6 6-6z" fill-opacity="0"/><path d="M160 463.08v-3.2m0-15.94v-31.9m0-15.96v-3.2m0-15.94v-31.9m0-15.96v-3.2m0-15.94v-31.9m0-15.96v-3.2m0-15.94V227l.82-3.04 2.15-2.15 3.03-.8h17.62m17.62 0h3.52m17.62 0h35.24m17.62 0h3.52m17.62 0H314l3.03.8 2.15 2.16.82 3.03v15.94m0 15.95v3.18m0 15.95v31.9m0 15.96v3.18m0 15.95v31.9m0 15.96v3.18m0 15.95v31.9m0 15.96v3.18m0 15.95V495l.82 3 2.15 2.17 3.03.82h15.24m15.24 0h3.04m15.24 0h30.48m15.24 0h3.04m15.24 0H454l3.02.8 2.16 2.13.85 3v.06l.08 17.4m.1 17.44v3.5m.1 17.4l.17 34.87m.08 17.44l.02 3.48m.08 17.43l.1 17.43-.82 3.03-2.16 2.15-3 .78-14.6-.1m-14.57-.12l-2.92-.02m-14.58-.1l-29.17-.23m-14.58-.1l-2.92-.04m-14.58-.1l-29.17-.22m-14.6-.12l-2.9-.02m-14.6-.1l-29.15-.23m-14.6-.1l-2.9-.03m-14.6-.1l-29.16-.24m-14.58-.1l-2.93-.03m-14.58-.1l-29.18-.24m-14.58-.1l-2.92-.03m-14.58-.1l-29.17-.24m-14.6-.12l-2.9-.02m-14.6-.12l-14.57-.1-3-.84-2.16-2.14-.84-3v-17.11m0-17.02v-3.4m0-17.03v-34.04m0-17.02v-3.4M20 524v-17l.82-3.04 2.15-2.15L26 501h15.24m15.24 0h3.04m15.24 0h30.48m15.24 0h3.04m15.24 0H154l3.03-.83 2.15-2.16.82-3v-15.97" stroke="#5e5e5e" stroke-width="3" fill="none"/><path d="M180 527c0-3.33 2.7-6 6-6h108c3.3 0 6 2.67 6 6v108c0 3.3-2.7 6-6 6H186c-3.3 0-6-2.7-6-6z" stroke="#999" stroke-width="3" fill="#ccc"/><path d="M180 247c0-3.33 2.7-6 6-6h108c3.3 0 6 2.67 6 6v108c0 3.3-2.7 6-6 6H186c-3.3 0-6-2.7-6-6z" stroke="#834187" stroke-width="3" fill="#b391b5"/><path d="M40 527c0-3.33 2.7-6 6-6h108c3.3 0 6 2.67 6 6v108c0 3.3-2.7 6-6 6H46c-3.3 0-6-2.7-6-6zM320 527c0-3.33 2.7-6 6-6h108c3.3 0 6 2.67 6 6v108c0 3.3-2.7 6-6 6H326c-3.3 0-6-2.7-6-6z" stroke="#999" stroke-width="3" fill="#ccc"/><path d="M180 387c0-3.33 2.7-6 6-6h108c3.3 0 6 2.67 6 6v108c0 3.3-2.7 6-6 6H186c-3.3 0-6-2.7-6-6z" stroke="#0c7cba" stroke-width="3" fill="#83bbe5"/><path d="M574 780c3.3 0 6-2.7 6-6V506c0-3.3 2.7-6 6-6h148c3.3 0 6 2.7 6 6v428c0 3.3-2.7 6-6 6H306c-3.3 0-6-2.7-6-6V786c0-3.3 2.7-6 6-6z" fill-opacity="0"/><path d="M580 742.1v-3.2m0-15.95v-31.9m0-15.95v-3.2m0-15.95v-31.9m0-15.95v-3.2m0-15.95v-31.9m0-15.95v-3.2m0-15.95V506l.82-3.03 2.15-2.15L586 500h17.62m17.62 0h3.52m17.62 0h35.24m17.62 0h3.52m17.62 0H734l3.03.82 2.15 2.15.82 3.03v15.95m0 15.95v3.2m0 15.95v31.9m0 15.95v3.2m0 15.95v31.9m0 15.95v3.2m0 15.95v31.9m0 15.95v3.2m0 15.95v48.9m0 20.95v4.2m0 20.95V934l-.82 3.03-2.15 2.15-3.03.82h-17.62m-17.62 0h-3.52m-17.62 0h-35.24m-17.62 0h-3.52m-17.62 0h-45.57m-15.95 0h-3.2m-15.95 0h-31.9m-15.95 0h-3.2m-15.95 0h-31.9m-15.95 0h-3.2m-15.95 0h-31.9m-15.95 0h-3.2m-15.95 0H306l-3.03-.82-2.15-2.15L300 934v-17.62m0-17.62v-3.52m0-17.62v-35.24m0-17.62v-3.52m0-17.62V786l.82-3.03 2.15-2.15L306 780h15.95m15.95 0h3.2m15.95 0h31.9m15.95 0h3.2m15.95 0h31.9m15.95 0h3.2m15.95 0h31.9m15.95 0h3.2m15.95 0H574l3.03-.82 2.15-2.15.82-3.03v-15.95" stroke="#5e5e5e" stroke-width="3" fill="none"/><path d="M1774.93 326c0-3.3 2.7-6 6-6h108c3.3 0 6 2.7 6 6v108c0 3.3-2.7 6-6 6h-108c-3.3 0-6-2.7-6-6z" stroke="#999" stroke-width="3" fill="#ccc"/><path d="M1914.93 46c0-3.3 2.7-6 6-6h108c3.3 0 6 2.7 6 6v108c0 3.3-2.7 6-6 6h-108c-3.3 0-6-2.7-6-6z" stroke="#834187" stroke-width="3" fill="#b391b5"/><path d="M1914.93 326c0-3.3 2.7-6 6-6h108c3.3 0 6 2.7 6 6v108c0 3.3-2.7 6-6 6h-108c-3.3 0-6-2.7-6-6z" stroke="#0c7cba" stroke-width="3" fill="#83bbe5"/><path d="M2054.93 326c0-3.3 2.7-6 6-6h108c3.3 0 6 2.7 6 6v108c0 3.3-2.7 6-6 6h-108c-3.3 0-6-2.7-6-6z" stroke="#999" stroke-width="3" fill="#ccc"/><path d="M1634.93 326c0-3.3 2.7-6 6-6h108c3.3 0 6 2.7 6 6v108c0 3.3-2.7 6-6 6h-108c-3.3 0-6-2.7-6-6z" stroke="#834187" stroke-width="3" fill="#b391b5"/><path d="M1914.93 186c0-3.3 2.7-6 6-6h108c3.3 0 6 2.7 6 6v108c0 3.3-2.7 6-6 6h-108c-3.3 0-6-2.7-6-6zM1914.93 466c0-3.3 2.7-6 6-6h108c3.3 0 6 2.7 6 6v108c0 3.3-2.7 6-6 6h-108c-3.3 0-6-2.7-6-6zM2054.93 466c0-3.3 2.7-6 6-6h108c3.3 0 6 2.7 6 6v108c0 3.3-2.7 6-6 6h-108c-3.3 0-6-2.7-6-6z" stroke="#999" stroke-width="3" fill="#ccc"/><path d="M1620.93 460c-3.3 0-6-2.7-6-6V306c0-3.3 2.7-6 6-6h268c3.3 0 6-2.7 6-6V26c0-3.3 2.7-6 6-6h148c3.3 0 6 2.7 6 6v268c0 3.3 2.7 6 6 6h128c3.3 0 6 2.7 6 6l.37 148v12l-.35 128c0 3.3-2.7 6-6.02 6H1901.3c-3.3 0-6-2.7-6-6l-.35-128c0-3.3-2.7-6-6.02-6z" fill-opacity="0"/><path d="M1614.93 418.76v-3.52m0-17.62v-35.24m0-17.62v-3.52m0-17.62V306l.82-3.03 2.15-2.15 3.03-.82h15.95m15.95 0h3.2m15.95 0h31.9m15.95 0h3.2m15.95 0h31.9m15.95 0h3.2m15.95 0h31.9m15.95 0h3.2m15.95 0h15.95l3.03-.82 2.15-2.15.83-3.03v-15.95m0-15.95v-3.2m0-15.95v-31.9m0-15.95v-3.2m0-15.95v-31.9m0-15.95v-3.2m0-15.95v-31.9m0-15.95v-3.2m0-15.95V26l.82-3.03 2.15-2.15 3.03-.82h17.62m17.62 0h3.52m17.6 0h35.25m17.62 0h3.52m17.6 0h17.63l3.03.82 2.15 2.15.83 3.03v15.95m0 15.95v3.2m0 15.95v31.9m0 15.95v3.2m0 15.95v31.9m0 15.95v3.2m0 15.95v31.9m0 15.95v3.2m0 15.95V294l.82 3.03 2.15 2.15 3.03.82h15.24m15.24 0h3.05m15.24 0h30.47m15.24 0h3.05m15.24 0h15.23l3.02.82 2.16 2.14.84 3.02v.02l.05 17.62m.03 17.62v3.52m.05 17.62l.08 35.24m.05 17.62v3.52m.06 17.62l.04 17.62v12l-.05 15.24m-.04 15.24v3.04m-.04 15.24l-.08 30.48m-.04 15.24v3.04m-.05 15.24l-.05 15.24-.83 3.02-2.15 2.15-3 .83H2173.72m-15.2 0h-3.02m-15.2 0h-30.37m-15.2 0h-3.03m-15.2 0h-44.8m-17.63 0h-3.52m-17.62 0h-35.24m-17.63 0h-3.52m-17.62 0h-17.62l-3-.8-2.17-2.16-.83-3V594l-.05-15.24m-.04-15.24v-3.04m-.04-15.24l-.08-30.48m-.04-15.24v-3.04m-.05-15.24l-.05-15.24-.83-3.02-2.15-2.15-3-.83H1872.97m-15.96 0h-3.2m-15.94 0h-31.9m-15.96 0h-3.2m-15.94 0h-31.9m-15.96 0h-3.2m-15.94 0h-31.9m-15.96 0h-3.2m-15.94 0h-15.95l-3.03-.82-2.15-2.15-.82-3.03v-17.62" stroke="#5e5e5e" stroke-width="3" fill="none"/><path d="M1205.93 801c-3.3 0-6-2.7-6-6V647c0-3.33 2.7-6 6-6h563c3.3 0 6 2.67 6 6v148c0 3.3-2.7 6-6 6h-268c-3.3 0-6 2.67-6 6v268c0 3.3-2.7 6-6 6h-148c-3.3 0-6-2.7-6-6V807c0-3.33-2.7-6-6-6z" fill-opacity="0"/><path d="M1199.93 759.75v-3.53m0-17.6v-35.25m0-17.62v-3.53m0-17.6v-17.63l.82-3.04 2.15-2.15 3.03-.8h14.9m14.9 0h2.97m14.9 0h29.78m14.9 0h2.97m14.9 0h29.78m14.9 0h2.98m14.9 0h29.8m14.88 0h2.98m14.9 0h29.8m14.88 0h2.98m14.9 0h29.78m14.9 0h2.97m14.9 0h29.8m14.88 0h2.98m14.9 0h29.78m14.9 0h3m14.88 0h29.8m14.88 0h2.98m14.9 0h14.9l3.02.8 2.15 2.16.83 3.03v17.6m0 17.62v3.53m0 17.62v35.24m0 17.62v3.53m0 17.62V795l-.82 3-2.14 2.17-3.03.82h-15.95m-15.96 0h-3.2m-15.94 0h-31.9m-15.96 0h-3.2m-15.94 0h-31.9m-15.96 0h-3.2m-15.94 0h-31.9m-15.96 0h-3.2m-15.94 0h-15.95l-3.03.8-2.15 2.16-.82 3.03v14.75m0 14.76v2.96m0 14.76v29.53m0 14.76v2.96m0 14.76v29.53m0 14.76v2.96m0 14.76v29.53m0 14.76v2.96m0 14.76V1075l-.82 3-2.14 2.17-3.03.82h-35.24m-15.25 0h-3.04m-15.23 0h-30.48m-15.25 0h-3.04m-15.23 0h-15.24l-3.03-.83-2.15-2.16-.82-3v-15.97m0-15.95v-3.2m0-15.94v-31.9m0-15.96v-3.2m0-15.94v-31.9m0-15.96v-3.2m0-15.94v-31.9m0-15.96v-3.2m0-15.94V807l-.82-3.04-2.14-2.15-3.03-.8h-14.64m-14.66 0h-2.93m-14.63 0h-29.28m-14.66 0h-2.93m-14.63 0h-14.64l-3.03-.83-2.15-2.16-.82-3v-17.63" stroke="#5e5e5e" stroke-width="3" fill="none"/></g></svg>