<svg xmlns="http://www.w3.org/2000/svg" xmlns:lucid="lucid" width="2180" height="433.5"><g lucid:page-tab-id="b~sWMJO3jwbo"><path d="M300 102c0-3.3 2.7-6 6-6h108c3.3 0 6 2.7 6 6v108c0 3.3-2.7 6-6 6H306c-3.3 0-6-2.7-6-6zM20 102c0-3.3 2.7-6 6-6h108c3.3 0 6 2.7 6 6v108c0 3.3-2.7 6-6 6H26c-3.3 0-6-2.7-6-6z" stroke="#999" stroke-width="3" fill="#ccc" opacity=".1"/><path d="M160 102c0-3.3 2.7-6 6-6h108c3.3 0 6 2.7 6 6v108c0 3.3-2.7 6-6 6H166c-3.3 0-6-2.7-6-6z" stroke="#0c7cba" stroke-width="3" fill="#83bbe5" opacity=".1"/><path d="M300 242c0-3.3 2.7-6 6-6h108c3.3 0 6 2.7 6 6v108c0 3.3-2.7 6-6 6H306c-3.3 0-6-2.7-6-6z" stroke="#834187" stroke-width="3" fill="#b391b5" opacity=".1"/><path d="M160 242c0-3.3 2.7-6 6-6h108c3.3 0 6 2.7 6 6v108c0 3.3-2.7 6-6 6H166c-3.3 0-6-2.7-6-6z" stroke="#0c7cba" stroke-width="3" fill="#83bbe5" opacity=".1"/><g opacity=".1" stroke="#83bbe5"><path d="M220 93V22c0-3.3 2.7-6 6-6h548c3.3 0 6 2.7 6 6v31.88" stroke-width="3" fill="none"/><path d="M221.5 94.5h-3v-1.54h3z" stroke-width=".05" fill="#83bbe5"/><path d="M780 69.65l-4.64-14.27h9.28z" stroke-width="3" fill="#83bbe5"/></g><g opacity=".1" stroke="#ff8f80"><path d="M780 359v52.5c0 3.3 2.7 6 6 6h568c3.3 0 6-2.7 6-6v-13.38" stroke-width="3" fill="none"/><path d="M781.5 359.04h-3v-1.54h3z" stroke-width=".05" fill="#ff8f80"/><path d="M1360 382.35l4.64 14.27h-9.28z" stroke-width="3" fill="#ff8f80"/></g><g opacity=".1" stroke="#a3d977"><path d="M1360 93V40.5c0-3.3 2.7-6 6-6h568c3.3 0 6 2.7 6 6v13.38" stroke-width="3" fill="none"/><path d="M1361.5 94.5h-3v-1.54h3z" stroke-width=".05" fill="#a3d977"/><path d="M1940 69.65l-4.64-14.27h9.28z" stroke-width="3" fill="#a3d977"/></g><path d="M560 82c0-3.3 2.7-6 6-6h428c3.3 0 6 2.7 6 6v288c0 3.3-2.7 6-6 6H566c-3.3 0-6-2.7-6-6z" stroke="#83bbe5" stroke-width="3" fill-opacity="0"/><path d="M720 102c0-3.3 2.7-6 6-6h108c3.3 0 6 2.7 6 6v108c0 3.3-2.7 6-6 6H726c-3.3 0-6-2.7-6-6zM720 242c0-3.3 2.7-6 6-6h108c3.3 0 6 2.7 6 6v108c0 3.3-2.7 6-6 6H726c-3.3 0-6-2.7-6-6z" stroke="#c92d39" stroke-width="3" fill="#ff8f80"/><path d="M580 102c0-3.3 2.7-6 6-6h108c3.3 0 6 2.7 6 6v108c0 3.3-2.7 6-6 6H586c-3.3 0-6-2.7-6-6z" stroke="#999" stroke-width="3" fill="#ccc"/><path d="M860 242c0-3.3 2.7-6 6-6h108c3.3 0 6 2.7 6 6v108c0 3.3-2.7 6-6 6H866c-3.3 0-6-2.7-6-6z" stroke="#834187" stroke-width="3" fill="#b391b5"/><path d="M1140 82c0-3.3 2.7-6 6-6h428c3.3 0 6 2.7 6 6v288c0 3.3-2.7 6-6 6h-428c-3.3 0-6-2.7-6-6z" stroke="#ff8f80" stroke-width="3" fill-opacity="0" opacity=".1"/><path d="M1300 102c0-3.3 2.7-6 6-6h108c3.3 0 6 2.7 6 6v108c0 3.3-2.7 6-6 6h-108c-3.3 0-6-2.7-6-6zM1300 242c0-3.3 2.7-6 6-6h108c3.3 0 6 2.7 6 6v108c0 3.3-2.7 6-6 6h-108c-3.3 0-6-2.7-6-6zM1160 242c0-3.3 2.7-6 6-6h108c3.3 0 6 2.7 6 6v108c0 3.3-2.7 6-6 6h-108c-3.3 0-6-2.7-6-6zM1440 242c0-3.3 2.7-6 6-6h108c3.3 0 6 2.7 6 6v108c0 3.3-2.7 6-6 6h-108c-3.3 0-6-2.7-6-6z" stroke="#7ab648" stroke-width="3" fill="#a3d977" opacity=".1"/><path d="M1720 82c0-3.3 2.7-6 6-6h428c3.3 0 6 2.7 6 6v288c0 3.3-2.7 6-6 6h-428c-3.3 0-6-2.7-6-6z" stroke="#a3d977" stroke-width="3" fill-opacity="0" opacity=".1"/><path d="M1740 102c0-3.3 2.7-6 6-6h108c3.3 0 6 2.7 6 6v108c0 3.3-2.7 6-6 6h-108c-3.3 0-6-2.7-6-6z" stroke="#ef8d22" stroke-width="3" fill="#ffc374" opacity=".1"/><path d="M2020 102c0-3.3 2.7-6 6-6h108c3.3 0 6 2.7 6 6v108c0 3.3-2.7 6-6 6h-108c-3.3 0-6-2.7-6-6z" stroke="#de5f85" stroke-width="3" fill="#f5b5c8" opacity=".1"/><path d="M1880 102c0-3.3 2.7-6 6-6h108c3.3 0 6 2.7 6 6v108c0 3.3-2.7 6-6 6h-108c-3.3 0-6-2.7-6-6z" stroke="#19967d" stroke-width="3" fill="#5abaa7" opacity=".1"/><path d="M2020 242c0-3.3 2.7-6 6-6h108c3.3 0 6 2.7 6 6v108c0 3.3-2.7 6-6 6h-108c-3.3 0-6-2.7-6-6z" stroke="#3aa6dd" stroke-width="3" fill="#99d2f2" opacity=".1"/></g></svg>