<svg xmlns="http://www.w3.org/2000/svg" xmlns:xlink="http://www.w3.org/1999/xlink" xmlns:lucid="lucid" width="2947.09" height="1522.24"><g transform="translate(594.5136856549364 -177.75757575757598)" lucid:page-tab-id="EstWER.FMcKR"><path d="M-254.5 223.76c0-3.32 2.67-6 6-6h148c3.3 0 6 2.68 6 6v108c0 3.3-2.7 6-6 6h-148c-3.33 0-6-2.7-6-6z" stroke="#834187" stroke-width="3" fill="#b391b5"/><use xlink:href="#a" transform="matrix(1,0,0,1,-249.51368565493635,222.75757575757598) translate(17.610026041666657 50.88932291666667)"/><use xlink:href="#b" transform="matrix(1,0,0,1,-249.51368565493635,222.75757575757598) translate(78.50455729166666 50.88932291666667)"/><use xlink:href="#c" transform="matrix(1,0,0,1,-249.51368565493635,222.75757575757598) translate(14.474609374999993 76.30989583333334)"/><use xlink:href="#d" transform="matrix(1,0,0,1,-249.51368565493635,222.75757575757598) translate(65.65299479166666 76.30989583333334)"/><use xlink:href="#e" transform="matrix(1,0,0,1,-249.51368565493635,222.75757575757598) translate(90.71809895833334 76.30989583333334)"/><path d="M-394.5 563.76c0-3.32 2.67-6 6-6h148c3.3 0 6 2.68 6 6v108c0 3.3-2.7 6-6 6h-148c-3.33 0-6-2.7-6-6z" stroke="#0c7cba" stroke-width="3" fill="#83bbe5"/><use xlink:href="#f" transform="matrix(1,0,0,1,-389.51368565493635,562.757575757576) translate(6.909505208333329 50.88932291666667)"/><use xlink:href="#g" transform="matrix(1,0,0,1,-389.51368565493635,562.757575757576) translate(47.615234375 50.88932291666667)"/><use xlink:href="#h" transform="matrix(1,0,0,1,-389.51368565493635,562.757575757576) translate(91.21940104166667 50.88932291666667)"/><use xlink:href="#i" transform="matrix(1,0,0,1,-389.51368565493635,562.757575757576) translate(6.12109375 76.30989583333334)"/><use xlink:href="#j" transform="matrix(1,0,0,1,-389.51368565493635,562.757575757576) translate(67.3984375 76.30989583333334)"/><use xlink:href="#k" transform="matrix(1,0,0,1,-389.51368565493635,562.757575757576) translate(94.17708333333334 76.30989583333334)"/><path d="M-574.5 803.76c0-3.32 2.67-6 6-6h148c3.3 0 6 2.68 6 6v108c0 3.3-2.7 6-6 6h-148c-3.33 0-6-2.7-6-6z" stroke="#999" stroke-width="3" fill="#ccc"/><use xlink:href="#l" transform="matrix(1,0,0,1,-569.5136856549364,802.757575757576) translate(0.7617187499999858 50.88932291666667)"/><use xlink:href="#m" transform="matrix(1,0,0,1,-569.5136856549364,802.757575757576) translate(104.41276041666667 50.88932291666667)"/><use xlink:href="#n" transform="matrix(1,0,0,1,-569.5136856549364,802.757575757576) translate(3.550781249999986 76.30989583333334)"/><use xlink:href="#o" transform="matrix(1,0,0,1,-569.5136856549364,802.757575757576) translate(62.12109374999999 76.30989583333334)"/><use xlink:href="#p" transform="matrix(1,0,0,1,-569.5136856549364,802.757575757576) translate(97.65885416666667 76.30989583333334)"/><path d="M-313 535.64h-3V522h3zm0-27.3h-3v-27.3h3zm18.7-59.08h-14l-2.46.66-1.6 1.6-.65 2.44v13.44h-3v-13.84l.96-3.6 2.72-2.73 3.6-.97h14.43zm121.3-7.3l-1 3.6-2.7 2.72-3.6.98h-14.44v-3h14.03l2.44-.67 1.58-1.6.67-2.44v-16.64h3zm-35.96 7.3h-28.44v-3h28.44zm-42.66 0h-28.45v-3h28.45zm78.6-64h-3v-10.84h3zm0-27.67h-3v-16.84h3z" stroke="#b2b2b2" stroke-width=".05" fill="#b2b2b2"/><path d="M-173 340.8h-3v-1.54h3z" fill="#b2b2b2"/><path d="M-173 340.82h-3.04v-1.6h3.05zm-3-1.54v1.5h2.96v-1.5z" stroke="#b2b2b2" stroke-width=".05" fill="#b2b2b2"/><path d="M-314.5 551.4l-4.65-14.26h9.27z" fill="#b2b2b2"/><path d="M-314.5 556.26l-6.7-20.62h13.4zm-2.58-17.62l2.57 7.9 2.56-7.9z" stroke="#b2b2b2" stroke-width=".05" fill="#b2b2b2"/><use xlink:href="#q" transform="matrix(1,0,0,1,-202.5364721132697,385.2723722095452) translate(0 19.951822916666668)"/><path d="M-493 775.64h-3v-16.88h3zm0-33.75h-3v-29.33h3zm0-54.75h-3V657.5h3zm19.65-67.9h-14.96l-2.46.67-1.6 1.6-.65 2.44v16.67h-3v-17.07l.96-3.6 2.72-2.73 3.6-.97h15.37zm75.84 0h-15.18v-3h15.17zm-30.35 0h-30.33v-3h30.33z" stroke="#b2b2b2" stroke-width=".05" fill="#b2b2b2"/><path d="M-396 619.26h-1.55v-3h1.54z" fill="#b2b2b2"/><path d="M-396 619.28h-1.58v-3.05h1.6zm-1.53-3v2.95h1.5v-2.95z" stroke="#b2b2b2" stroke-width=".05" fill="#b2b2b2"/><path d="M-494.5 791.4l-4.65-14.26h9.27z" fill="#b2b2b2"/><path d="M-494.5 796.26l-6.7-20.62h13.4zm-2.58-17.62l2.57 7.9 2.56-7.9z" stroke="#b2b2b2" stroke-width=".05" fill="#b2b2b2"/><use xlink:href="#r" transform="matrix(1,0,0,1,-521.4563939882697,687.1507896886984) translate(0 19.951822916666668)"/><path d="M365.5 203.76c0-3.32 2.67-6 6-6h148c3.3 0 6 2.68 6 6v108c0 3.3-2.7 6-6 6h-148c-3.33 0-6-2.7-6-6z" stroke="#834187" stroke-width="3" fill="#b391b5"/><use xlink:href="#s" transform="matrix(1,0,0,1,370.48631434506365,202.75757575757598) translate(3.181640625 50.88932291666667)"/><use xlink:href="#t" transform="matrix(1,0,0,1,370.48631434506365,202.75757575757598) translate(46.43945312500001 50.88932291666667)"/><use xlink:href="#u" transform="matrix(1,0,0,1,370.48631434506365,202.75757575757598) translate(67.466796875 50.88932291666667)"/><use xlink:href="#v" transform="matrix(1,0,0,1,370.48631434506365,202.75757575757598) translate(119.201171875 50.88932291666667)"/><use xlink:href="#w" transform="matrix(1,0,0,1,370.48631434506365,202.75757575757598) translate(48.681640625 76.30989583333334)"/><path d="M65.5 203.76c0-3.32 2.67-6 6-6h148c3.3 0 6 2.68 6 6v108c0 3.3-2.7 6-6 6h-148c-3.33 0-6-2.7-6-6z" stroke="#834187" stroke-width="3" fill="#b391b5"/><use xlink:href="#x" transform="matrix(1,0,0,1,70.48631434506365,202.75757575757598) translate(5.569661458333329 50.88932291666667)"/><use xlink:href="#y" transform="matrix(1,0,0,1,70.48631434506365,202.75757575757598) translate(41.235026041666664 50.88932291666667)"/><use xlink:href="#z" transform="matrix(1,0,0,1,70.48631434506365,202.75757575757598) translate(68.79752604166666 50.88932291666667)"/><use xlink:href="#A" transform="matrix(1,0,0,1,70.48631434506365,202.75757575757598) translate(42.62044270833333 76.30989583333334)"/><path d="M125.5 823.76c0-3.32 2.67-6 6-6h148c3.3 0 6 2.68 6 6v108c0 3.3-2.7 6-6 6h-148c-3.33 0-6-2.7-6-6z" stroke="#0c7cba" stroke-width="3" fill="#83bbe5"/><use xlink:href="#B" transform="matrix(1,0,0,1,130.48631434506365,822.757575757576) translate(13.376302083333329 50.88932291666667)"/><use xlink:href="#C" transform="matrix(1,0,0,1,130.48631434506365,822.757575757576) translate(104.95052083333333 50.88932291666667)"/><use xlink:href="#D" transform="matrix(1,0,0,1,130.48631434506365,822.757575757576) translate(37.119791666666664 76.30989583333334)"/><path d="M-54.5 523.76c0-3.32 2.67-6 6-6h148c3.3 0 6 2.68 6 6v108c0 3.3-2.7 6-6 6h-148c-3.33 0-6-2.7-6-6z" stroke="#0c7cba" stroke-width="3" fill="#83bbe5"/><use xlink:href="#E" transform="matrix(1,0,0,1,-49.51368565493635,522.757575757576) translate(23.694010416666664 50.88932291666667)"/><use xlink:href="#F" transform="matrix(1,0,0,1,-49.51368565493635,522.757575757576) translate(15.873697916666671 76.30989583333334)"/><use xlink:href="#G" transform="matrix(1,0,0,1,-49.51368565493635,522.757575757576) translate(107.62109375 76.30989583333334)"/><path d="M485.5 603.76c0-3.32 2.67-6 6-6h148c3.3 0 6 2.68 6 6v108c0 3.3-2.7 6-6 6h-148c-3.33 0-6-2.7-6-6z" stroke="#0c7cba" stroke-width="3" fill="#83bbe5"/><use xlink:href="#H" transform="matrix(1,0,0,1,490.48631434506365,602.757575757576) translate(10.596354166666657 50.88932291666667)"/><use xlink:href="#I" transform="matrix(1,0,0,1,490.48631434506365,602.757575757576) translate(54.13671874999999 50.88932291666667)"/><use xlink:href="#J" transform="matrix(1,0,0,1,490.48631434506365,602.757575757576) translate(97.88671875 50.88932291666667)"/><use xlink:href="#K" transform="matrix(1,0,0,1,490.48631434506365,602.757575757576) translate(51.83528645833333 76.30989583333334)"/><path d="M245.5 543.76c0-3.32 2.67-6 6-6h148c3.3 0 6 2.68 6 6v108c0 3.3-2.7 6-6 6h-148c-3.33 0-6-2.7-6-6z" stroke="#0c7cba" stroke-width="3" fill="#83bbe5"/><use xlink:href="#L" transform="matrix(1,0,0,1,250.48631434506365,542.757575757576) translate(20.107421875 50.88932291666667)"/><use xlink:href="#M" transform="matrix(1,0,0,1,250.48631434506365,542.757575757576) translate(111.845703125 50.88932291666667)"/><use xlink:href="#N" transform="matrix(1,0,0,1,250.48631434506365,542.757575757576) translate(36.27669270833333 76.30989583333334)"/><use xlink:href="#O" transform="matrix(1,0,0,1,250.48631434506365,542.757575757576) translate(96.66080729166667 76.30989583333334)"/><path d="M125.5 1063.76c0-3.32 2.67-6 6-6h148c3.3 0 6 2.68 6 6v108c0 3.3-2.7 6-6 6h-148c-3.33 0-6-2.7-6-6z" stroke="#999" stroke-width="3" fill="#ccc"/><use xlink:href="#P" transform="matrix(1,0,0,1,130.48631434506365,1062.757575757576) translate(10.022135416666657 23.389322916666668)"/><use xlink:href="#Q" transform="matrix(1,0,0,1,130.48631434506365,1062.757575757576) translate(49.05989583333333 23.389322916666668)"/><use xlink:href="#R" transform="matrix(1,0,0,1,130.48631434506365,1062.757575757576) translate(32.3984375 48.809895833333336)"/><use xlink:href="#S" transform="matrix(1,0,0,1,130.48631434506365,1062.757575757576) translate(72.80338541666667 48.809895833333336)"/><use xlink:href="#T" transform="matrix(1,0,0,1,130.48631434506365,1062.757575757576) translate(37.61653645833333 74.23046875)"/><use xlink:href="#U" transform="matrix(1,0,0,1,130.48631434506365,1062.757575757576) translate(39.635416666666664 99.65104166666667)"/><path d="M-194.5 1003.76c0-3.32 2.67-6 6-6h148c3.3 0 6 2.68 6 6v108c0 3.3-2.7 6-6 6h-148c-3.33 0-6-2.7-6-6z" stroke="#999" stroke-width="3" fill="#ccc"/><use xlink:href="#V" transform="matrix(1,0,0,1,-189.51368565493635,1002.757575757576) translate(21.40625 37.13932291666667)"/><use xlink:href="#W" transform="matrix(1,0,0,1,-189.51368565493635,1002.757575757576) translate(1.9192708333333286 62.55989583333334)"/><use xlink:href="#X" transform="matrix(1,0,0,1,-189.51368565493635,1002.757575757576) translate(71.98307291666666 62.55989583333334)"/><use xlink:href="#Y" transform="matrix(1,0,0,1,-189.51368565493635,1002.757575757576) translate(117.26432291666667 62.55989583333334)"/><use xlink:href="#Z" transform="matrix(1,0,0,1,-189.51368565493635,1002.757575757576) translate(56.000651041666664 87.98046875000001)"/><path d="M565.5 983.76c0-3.32 2.67-6 6-6h148c3.3 0 6 2.68 6 6v108c0 3.3-2.7 6-6 6h-148c-3.33 0-6-2.7-6-6z" stroke="#999" stroke-width="3" fill="#ccc"/><use xlink:href="#aa" transform="matrix(1,0,0,1,570.4863143450636,982.757575757576) translate(4.421223958333329 37.13932291666667)"/><use xlink:href="#ab" transform="matrix(1,0,0,1,570.4863143450636,982.757575757576) translate(39.074869791666664 37.13932291666667)"/><use xlink:href="#ac" transform="matrix(1,0,0,1,570.4863143450636,982.757575757576) translate(61.970703125 37.13932291666667)"/><use xlink:href="#ad" transform="matrix(1,0,0,1,570.4863143450636,982.757575757576) translate(125.69986979166667 37.13932291666667)"/><use xlink:href="#ae" transform="matrix(1,0,0,1,570.4863143450636,982.757575757576) translate(20.986979166666664 62.55989583333334)"/><use xlink:href="#af" transform="matrix(1,0,0,1,570.4863143450636,982.757575757576) translate(46.690104166666664 62.55989583333334)"/><use xlink:href="#ag" transform="matrix(1,0,0,1,570.4863143450636,982.757575757576) translate(20.029947916666657 87.98046875000001)"/><path d="M27 495.64h-3v-15.46h3zm0-30.92h-3V433.8h3zm0-46.38h-3v-30.9h3zm0-63.3h-3v-14h3zm0-29.45h-3v-30.93h3zm14.82-66.34H31.7l-2.46.66-1.6 1.6-.65 2.44v15.26h-3v-15.66l.96-3.6 2.72-2.73 3.6-.97h10.54zm20.67 0H52.14v-3H62.5z" stroke="#b2b2b2" stroke-width=".05" fill="#b2b2b2"/><path d="M64 259.26h-1.55v-3H64z" fill="#b2b2b2"/><path d="M64 259.28h-1.58v-3.05h1.6zm-1.53-3v2.95h1.5v-2.95z" stroke="#b2b2b2" stroke-width=".05" fill="#b2b2b2"/><path d="M25.5 511.4l-4.65-14.26h9.27z" fill="#b2b2b2"/><path d="M25.5 516.26l-6.7-20.62h13.4zm-2.58-17.62l2.57 7.9 2.56-7.9z" stroke="#b2b2b2" stroke-width=".05" fill="#b2b2b2"/><use xlink:href="#ah" transform="matrix(1,0,0,1,2.3216008033969793,355.04728929924266) translate(0 19.951822916666668)"/><path d="M327 515.64h-3V502h3zm0-27.3h-3v-27.3h3zm-3.7-61.1l2.7 2.7 1 3.62v13.84h-3v-13.44l-.68-2.45-1.58-1.58-2.45-.66h-13.8v-3h14.2zM147 421.55l.65 2.45 1.6 1.6 2.44.66h13.8v3h-14.2l-3.62-.98-2.72-2.72-.97-3.6v-17.04h3zm60.46 7.7H179.5v-3h27.96zm84.03 0h-28v-3h28zM147 388.1h-3V354.4h3zm0-50.5h-3v-16.84h3z" stroke="#b2b2b2" stroke-width=".05" fill="#b2b2b2"/><path d="M147 320.8h-3v-1.54h3z" fill="#b2b2b2"/><path d="M147 320.82h-3.04v-1.6H147zm-3-1.54v1.5h2.96v-1.5z" stroke="#b2b2b2" stroke-width=".05" fill="#b2b2b2"/><path d="M325.5 531.4l-4.65-14.26h9.27z" fill="#b2b2b2"/><path d="M325.5 536.26l-6.7-20.62h13.4zm-2.58-17.62l2.57 7.9 2.56-7.9z" stroke="#b2b2b2" stroke-width=".05" fill="#b2b2b2"/><use xlink:href="#q" transform="matrix(1,0,0,1,207.4635278867303,415.04728929924266) translate(0 19.951822916666668)"/><path d="M-113 975.64h-3v-14.52h3zm0-29.03h-3V917.6h3zm0-43.53h-3v-29.03h3zm0-43.54h-3V830.5h3zm0-43.55h-3v-18.1h3zm0-43.54h-3V743.4h3zm0-43.54h-3v-29.03h3zm0-43.54h-3v-29.03h3zm0-43.55h-3v-29h3zm21.5-62.54h-16.8l-2.46.66-1.6 1.6-.65 2.44v14.3h-3v-14.7l.96-3.6 2.72-2.73 3.6-.97h17.2zm34 0h-17v-3h17z" stroke="#b2b2b2" stroke-width=".05" fill="#b2b2b2"/><path d="M-56 579.26h-1.55v-3H-56z" fill="#b2b2b2"/><path d="M-56 579.28h-1.58v-3.05h1.6zm-1.53-3v2.95h1.5v-2.95z" stroke="#b2b2b2" stroke-width=".05" fill="#b2b2b2"/><path d="M-114.5 991.4l-4.65-14.26h9.27z" fill="#b2b2b2"/><path d="M-114.5 996.26l-6.7-20.62h13.4zm-2.58-17.62l2.57 7.9 2.56-7.9z" stroke="#b2b2b2" stroke-width=".05" fill="#b2b2b2"/><use xlink:href="#r" transform="matrix(1,0,0,1,-141.4563939882697,772.4647617843706) translate(0 19.951822916666668)"/><path d="M-313 1051.56l.65 2.45 1.6 1.6 2.44.66h15.1v3h-15.5l-3.62-.98-2.72-2.72-.97-3.6v-15.66h3zm65.74 7.7h-30.63v-3h30.64zm30.63 0h-15.32v-3h15.32zm-96.38-38.42h-3v-30.92h3zm0-46.37h-3v-30.92h3zm0-46.38h-3v-30.93h3zm0-46.38h-3v-.46h3zm0-25.88h-3v-5.04h3zm0-20.5h-3v-30.92h3zm0-46.37h-3v-30.92h3zm0-46.38h-3v-30.93h3zm0-46.38h-3v-15.46h3z" stroke="#b2b2b2" stroke-width=".05" fill="#b2b2b2"/><path d="M-313 680.8h-3v-1.54h3z" fill="#b2b2b2"/><path d="M-313 680.82h-3.04v-1.6h3.05zm-3-1.54v1.5h2.96v-1.5z" stroke="#b2b2b2" stroke-width=".05" fill="#b2b2b2"/><path d="M-200.87 1057.76l-14.26 4.63v-9.28z" fill="#b2b2b2"/><path d="M-196 1057.76l-20.63 6.7v-13.4zm-17.63 2.57l7.9-2.57-7.9-2.57z" stroke="#b2b2b2" stroke-width=".05" fill="#b2b2b2"/><use xlink:href="#q" transform="matrix(1,0,0,1,-342.53647211326967,855.8397799687773) translate(0 19.951822916666668)"/><path d="M207 795.64h-3v-17.3h3zm22.5-56.38h-17.8l-2.46.66-1.6 1.6-.65 2.44v17.1h-3v-17.5l.96-3.6 2.72-2.73 3.6-.97h18.2zm97.5-7.3l-1 3.6-2.7 2.72-3.6.98h-18.2v-3h17.8l2.44-.67 1.58-1.6.67-2.44v-11.64h3zm0-23.87h-3V684.4h3zm0-35.5h-3v-11.84h3z" stroke="#b2b2b2" stroke-width=".05" fill="#b2b2b2"/><path d="M327 660.8h-3v-1.54h3z" fill="#b2b2b2"/><path d="M327 660.82h-3.04v-1.6H327zm-3-1.54v1.5h2.96v-1.5z" stroke="#b2b2b2" stroke-width=".05" fill="#b2b2b2"/><path d="M205.5 811.4l-4.65-14.26h9.27z" fill="#b2b2b2"/><path d="M205.5 816.26l-6.7-20.62h13.4zm-2.58-17.62l2.57 7.9 2.56-7.9z" stroke="#b2b2b2" stroke-width=".05" fill="#b2b2b2"/><use xlink:href="#q" transform="matrix(1,0,0,1,237.4635278867303,725.0472892992426) translate(0 19.951822916666668)"/><path d="M27 871.56l.65 2.45 1.6 1.6 2.44.66h11.77v3H31.3l-3.62-.98-2.72-2.72-.97-3.6v-15.6h3zm52.4 7.7H55.46v-3H79.4zm23.97 0H91.4v-3h11.97zM27 840.96h-3v-30.8h3zm0-46.2h-3v-24.02h3zm0-49.44h-3v-27.56h3zm0-42.96h-3v-30.8h3zm0-46.2h-3v-15.4h3z" stroke="#b2b2b2" stroke-width=".05" fill="#b2b2b2"/><path d="M27 640.8h-3v-1.54h3z" fill="#b2b2b2"/><path d="M27 640.82h-3.04v-1.6H27zm-3-1.54v1.5h2.96v-1.5z" stroke="#b2b2b2" stroke-width=".05" fill="#b2b2b2"/><path d="M119.13 877.76l-14.26 4.63v-9.28z" fill="#b2b2b2"/><path d="M124 877.76l-20.63 6.7v-13.4zm-17.63 2.57l7.9-2.57-7.9-2.57z" stroke="#b2b2b2" stroke-width=".05" fill="#b2b2b2"/><use xlink:href="#r" transform="matrix(1,0,0,1,-1.4563939882696886,745.3194070266568) translate(0 19.951822916666668)"/><path d="M207 1035.64h-3v-15.82h3zm0-50.6h-3V972.4h3zm0-28.47h-3v-15.8h3z" stroke="#b2b2b2" stroke-width=".05" fill="#b2b2b2"/><path d="M207 940.8h-3v-1.54h3z" fill="#b2b2b2"/><path d="M207 940.82h-3.04v-1.6H207zm-3-1.54v1.5h2.96v-1.5z" stroke="#b2b2b2" stroke-width=".05" fill="#b2b2b2"/><path d="M205.5 1051.4l-4.65-14.26h9.27z" fill="#b2b2b2"/><path d="M205.5 1056.26l-6.7-20.62h13.4zm-2.58-17.62l2.57 7.9 2.56-7.9z" stroke="#b2b2b2" stroke-width=".05" fill="#b2b2b2"/><use xlink:href="#ah" transform="matrix(1,0,0,1,182.321600803397,985.0472892992426) translate(0 19.951822916666668)"/><path d="M567 575.64h-3V557h3zm0-37.3h-3v-37.3h3zm-3.7-81.1l2.7 2.7 1 3.62v18.84h-3v-18.44l-.68-2.45-1.58-1.58-2.45-.66h-17.8v-3h18.2zM447 451.55l.65 2.45 1.6 1.6 2.44.66h17.8v3h-18.2l-3.62-.98-2.72-2.72-.97-3.6V437.2h3zm0-28.9h-3v-29.12h3zm0-43.68h-3v-29.1h3zm0-43.67h-3v-14.54h3z" stroke="#b2b2b2" stroke-width=".05" fill="#b2b2b2"/><path d="M447 320.8h-3v-1.54h3z" fill="#b2b2b2"/><path d="M447 320.82h-3.04v-1.6H447zm-3-1.54v1.5h2.96v-1.5z" stroke="#b2b2b2" stroke-width=".05" fill="#b2b2b2"/><path d="M565.5 591.4l-4.65-14.26h9.27z" fill="#b2b2b2"/><path d="M565.5 596.26l-6.7-20.62h13.4zm-2.58-17.62l2.57 7.9 2.56-7.9z" stroke="#b2b2b2" stroke-width=".05" fill="#b2b2b2"/><use xlink:href="#q" transform="matrix(1,0,0,1,477.46352788673033,445.04728929924266) translate(0 19.951822916666668)"/><path d="M647 955.64h-3v-16.98h3zm0-33.96h-3v-33.96h3zm-3.7-74.45l2.7 2.72 1 3.6v17.2h-3v-16.8l-.68-2.44-1.58-1.58-2.45-.66h-11.15v-3h11.54zm-76.3-5.67l.65 2.45 1.6 1.6 2.44.66h11.12v3H571.3l-3.62-.98-2.72-2.72-.97-3.6V828.3h3zm49.82 7.7h-22.67v-3h22.67zM567 791.86h-3v-3.88h3zm0-17.32h-3v-26.9h3zm0-40.34h-3v-13.44h3z" stroke="#b2b2b2" stroke-width=".05" fill="#b2b2b2"/><path d="M567 720.8h-3v-1.54h3z" fill="#b2b2b2"/><path d="M567 720.82h-3.04v-1.6H567zm-3-1.54v1.5h2.96v-1.5z" stroke="#b2b2b2" stroke-width=".05" fill="#b2b2b2"/><path d="M645.5 971.4l-4.65-14.26h9.27z" fill="#b2b2b2"/><path d="M645.5 976.26l-6.7-20.62h13.4zm-2.58-17.62l2.57 7.9 2.56-7.9z" stroke="#b2b2b2" stroke-width=".05" fill="#b2b2b2"/><use xlink:href="#ah" transform="matrix(1,0,0,1,542.321600803397,791.8543008970233) translate(0 19.951822916666668)"/><path d="M427 1031.56l.65 2.45 1.6 1.6 2.44.66h18.43v3H431.3l-3.62-.98-2.72-2.72-.97-3.6v-16.65h3zm79.07 7.7h-37.3v-3h37.3zm37.3 0h-18.65v-3h18.65zM427 998.86h-3v-28.4h3zm0-53.8h-3v-28.4h3zm-3.7-67.83l2.7 2.72 1 3.6v16.65h-3v-16.24l-.68-2.45-1.58-1.58-2.45-.66h-14.37v-3h14.76zm-120.26 2.03H288.5v-3h14.54zm43.67 0h-29.1v-3h29.1zm43.68 0h-29.12v-3h29.12z" stroke="#b2b2b2" stroke-width=".05" fill="#b2b2b2"/><path d="M288.52 879.26H287v-3h1.52z" fill="#b2b2b2"/><path d="M288.55 879.28h-1.6v-3.05h1.6zm-1.54-3v2.95h1.5v-2.95z" stroke="#b2b2b2" stroke-width=".05" fill="#b2b2b2"/><path d="M559.13 1037.76l-14.26 4.63v-9.28z" fill="#b2b2b2"/><path d="M564 1037.76l-20.63 6.7v-13.4zm-17.63 2.57l7.9-2.57-7.9-2.57z" stroke="#b2b2b2" stroke-width=".05" fill="#b2b2b2"/><use xlink:href="#r" transform="matrix(1,0,0,1,398.54360601173033,945.0472892992426) translate(0 19.951822916666668)"/><path d="M1632.57 233c0-3.3 2.7-6 6-6h148c3.32 0 6 2.7 6 6v108c0 3.32-2.68 6-6 6h-148c-3.3 0-6-2.68-6-6z" stroke="#834187" stroke-width="3" fill="#b391b5"/><use xlink:href="#a" transform="matrix(1,0,0,1,1637.5742917155424,232.00757575757598) translate(17.610026041666657 50.88932291666667)"/><use xlink:href="#b" transform="matrix(1,0,0,1,1637.5742917155424,232.00757575757598) translate(78.50455729166666 50.88932291666667)"/><use xlink:href="#c" transform="matrix(1,0,0,1,1637.5742917155424,232.00757575757598) translate(14.474609374999993 76.30989583333334)"/><use xlink:href="#d" transform="matrix(1,0,0,1,1637.5742917155424,232.00757575757598) translate(65.65299479166666 76.30989583333334)"/><use xlink:href="#e" transform="matrix(1,0,0,1,1637.5742917155424,232.00757575757598) translate(90.71809895833334 76.30989583333334)"/><path d="M1232.57 333c0-3.3 2.7-6 6-6h148c3.32 0 6 2.7 6 6v108c0 3.32-2.68 6-6 6h-148c-3.3 0-6-2.68-6-6z" stroke="#0c7cba" stroke-width="3" fill="#83bbe5"/><use xlink:href="#f" transform="matrix(1,0,0,1,1237.5742917155424,332.007575757576) translate(6.909505208333329 50.88932291666667)"/><use xlink:href="#g" transform="matrix(1,0,0,1,1237.5742917155424,332.007575757576) translate(47.615234375 50.88932291666667)"/><use xlink:href="#h" transform="matrix(1,0,0,1,1237.5742917155424,332.007575757576) translate(91.21940104166667 50.88932291666667)"/><use xlink:href="#i" transform="matrix(1,0,0,1,1237.5742917155424,332.007575757576) translate(6.12109375 76.30989583333334)"/><use xlink:href="#j" transform="matrix(1,0,0,1,1237.5742917155424,332.007575757576) translate(67.3984375 76.30989583333334)"/><use xlink:href="#k" transform="matrix(1,0,0,1,1237.5742917155424,332.007575757576) translate(94.17708333333334 76.30989583333334)"/><path d="M1052.57 493c0-3.3 2.7-6 6-6h148c3.32 0 6 2.7 6 6v108c0 3.32-2.68 6-6 6h-148c-3.3 0-6-2.68-6-6z" stroke="#999" stroke-width="3" fill="#ccc"/><use xlink:href="#l" transform="matrix(1,0,0,1,1057.5742917155424,492.007575757576) translate(0.7617187499999858 50.88932291666667)"/><use xlink:href="#m" transform="matrix(1,0,0,1,1057.5742917155424,492.007575757576) translate(104.41276041666667 50.88932291666667)"/><use xlink:href="#n" transform="matrix(1,0,0,1,1057.5742917155424,492.007575757576) translate(3.550781249999986 76.30989583333334)"/><use xlink:href="#o" transform="matrix(1,0,0,1,1057.5742917155424,492.007575757576) translate(62.12109374999999 76.30989583333334)"/><use xlink:href="#p" transform="matrix(1,0,0,1,1057.5742917155424,492.007575757576) translate(97.65885416666667 76.30989583333334)"/><path d="M1333.38 288.5h-14.6l-2.46.67-1.58 1.6-.67 2.44v11.7h-3v-12.1l.98-3.6 2.72-2.72 3.6-.97h15zm296.2 0h-14.82v-3h14.8zm-85.25 0h-18.42v-3h18.43zm-33.23 0h-29.62v-3h29.62zm-44.43 0h-29.62v-3h29.62zm-44.43 0h-29.62v-3h29.62zm-44.43 0h-29.6v-3h29.6z" stroke="#b2b2b2" stroke-width=".05" fill="#b2b2b2"/><path d="M1631.07 288.5h-1.53v-3h1.53z" fill="#b2b2b2"/><path d="M1631.1 288.53h-1.6v-3.05h1.6zm-1.54-3v2.95h1.5v-2.95z" stroke="#b2b2b2" stroke-width=".05" fill="#b2b2b2"/><path d="M1312.57 320.65l-4.63-14.26h9.27z" fill="#b2b2b2"/><path d="M1312.57 325.5l-6.7-20.6h13.4zm-2.57-17.6l2.57 7.9 2.58-7.9z" stroke="#b2b2b2" stroke-width=".05" fill="#b2b2b2"/><use xlink:href="#q" transform="matrix(1,0,0,1,1544.3264223469066,274.29728929924266) translate(0 19.951822916666668)"/><path d="M1134.07 464.9h-3v-12h3zm0-23.97h-3v-11.27h3zm19.67-52.42h-14.97l-2.45.67-1.58 1.6-.67 2.44v11.04h-3V392.8l.98-3.6 2.72-2.72 3.6-.97h15.37zm75.83 0h-15.16v-3h15.17zm-30.33 0h-30.33v-3h30.34z" stroke="#b2b2b2" stroke-width=".05" fill="#b2b2b2"/><path d="M1231.07 388.5h-1.53v-3h1.53z" fill="#b2b2b2"/><path d="M1231.1 388.53h-1.6v-3.05h1.6zm-1.54-3v2.95h1.5v-2.95z" stroke="#b2b2b2" stroke-width=".05" fill="#b2b2b2"/><path d="M1132.57 480.65l-4.63-14.26h9.27z" fill="#b2b2b2"/><path d="M1132.57 485.5l-6.7-20.6h13.4zm-2.57-17.6l2.57 7.9 2.58-7.9z" stroke="#b2b2b2" stroke-width=".05" fill="#b2b2b2"/><use xlink:href="#r" transform="matrix(1,0,0,1,1105.631583382209,404.24093398055237) translate(0 19.951822916666668)"/><path d="M2052.57 933c0-3.3 2.7-6 6-6h148c3.32 0 6 2.7 6 6v108c0 3.32-2.68 6-6 6h-148c-3.3 0-6-2.68-6-6z" stroke="#834187" stroke-width="3" fill="#b391b5"/><use xlink:href="#s" transform="matrix(1,0,0,1,2057.574291715542,932.007575757576) translate(3.181640625 50.88932291666667)"/><use xlink:href="#t" transform="matrix(1,0,0,1,2057.574291715542,932.007575757576) translate(46.43945312500001 50.88932291666667)"/><use xlink:href="#u" transform="matrix(1,0,0,1,2057.574291715542,932.007575757576) translate(67.466796875 50.88932291666667)"/><use xlink:href="#v" transform="matrix(1,0,0,1,2057.574291715542,932.007575757576) translate(119.201171875 50.88932291666667)"/><use xlink:href="#w" transform="matrix(1,0,0,1,2057.574291715542,932.007575757576) translate(48.681640625 76.30989583333334)"/><path d="M1432.57 793c0-3.3 2.7-6 6-6h148c3.32 0 6 2.7 6 6v108c0 3.32-2.68 6-6 6h-148c-3.3 0-6-2.68-6-6z" stroke="#834187" stroke-width="3" fill="#b391b5"/><use xlink:href="#x" transform="matrix(1,0,0,1,1437.5742917155424,792.007575757576) translate(5.569661458333329 50.88932291666667)"/><use xlink:href="#y" transform="matrix(1,0,0,1,1437.5742917155424,792.007575757576) translate(41.235026041666664 50.88932291666667)"/><use xlink:href="#z" transform="matrix(1,0,0,1,1437.5742917155424,792.007575757576) translate(68.79752604166666 50.88932291666667)"/><use xlink:href="#A" transform="matrix(1,0,0,1,1437.5742917155424,792.007575757576) translate(42.62044270833333 76.30989583333334)"/><path d="M1552.57 993c0-3.3 2.7-6 6-6h148c3.32 0 6 2.7 6 6v108c0 3.32-2.68 6-6 6h-148c-3.3 0-6-2.68-6-6z" stroke="#0c7cba" stroke-width="3" fill="#83bbe5"/><use xlink:href="#B" transform="matrix(1,0,0,1,1557.5742917155424,992.007575757576) translate(13.376302083333329 50.88932291666667)"/><use xlink:href="#C" transform="matrix(1,0,0,1,1557.5742917155424,992.007575757576) translate(104.95052083333333 50.88932291666667)"/><use xlink:href="#D" transform="matrix(1,0,0,1,1557.5742917155424,992.007575757576) translate(37.119791666666664 76.30989583333334)"/><path d="M1252.57 973c0-3.3 2.7-6 6-6h148c3.32 0 6 2.7 6 6v108c0 3.32-2.68 6-6 6h-148c-3.3 0-6-2.68-6-6z" stroke="#0c7cba" stroke-width="3" fill="#83bbe5"/><use xlink:href="#E" transform="matrix(1,0,0,1,1257.5742917155424,972.007575757576) translate(23.694010416666664 50.88932291666667)"/><use xlink:href="#F" transform="matrix(1,0,0,1,1257.5742917155424,972.007575757576) translate(15.873697916666671 76.30989583333334)"/><use xlink:href="#G" transform="matrix(1,0,0,1,1257.5742917155424,972.007575757576) translate(107.62109375 76.30989583333334)"/><path d="M2172.57 513c0-3.3 2.7-6 6-6h148c3.32 0 6 2.7 6 6v108c0 3.32-2.68 6-6 6h-148c-3.3 0-6-2.68-6-6z" stroke="#0c7cba" stroke-width="3" fill="#83bbe5"/><use xlink:href="#H" transform="matrix(1,0,0,1,2177.574291715542,512.007575757576) translate(10.596354166666657 50.88932291666667)"/><use xlink:href="#I" transform="matrix(1,0,0,1,2177.574291715542,512.007575757576) translate(54.13671874999999 50.88932291666667)"/><use xlink:href="#J" transform="matrix(1,0,0,1,2177.574291715542,512.007575757576) translate(97.88671875 50.88932291666667)"/><use xlink:href="#K" transform="matrix(1,0,0,1,2177.574291715542,512.007575757576) translate(51.83528645833333 76.30989583333334)"/><path d="M1752.57 493c0-3.3 2.7-6 6-6h148c3.32 0 6 2.7 6 6v108c0 3.32-2.68 6-6 6h-148c-3.3 0-6-2.68-6-6z" stroke="#0c7cba" stroke-width="3" fill="#83bbe5"/><use xlink:href="#L" transform="matrix(1,0,0,1,1757.5742917155424,492.007575757576) translate(20.107421875 50.88932291666667)"/><use xlink:href="#M" transform="matrix(1,0,0,1,1757.5742917155424,492.007575757576) translate(111.845703125 50.88932291666667)"/><use xlink:href="#N" transform="matrix(1,0,0,1,1757.5742917155424,492.007575757576) translate(36.27669270833333 76.30989583333334)"/><use xlink:href="#O" transform="matrix(1,0,0,1,1757.5742917155424,492.007575757576) translate(96.66080729166667 76.30989583333334)"/><path d="M1832.57 953c0-3.3 2.7-6 6-6h148c3.32 0 6 2.7 6 6v108c0 3.32-2.68 6-6 6h-148c-3.3 0-6-2.68-6-6z" stroke="#999" stroke-width="3" fill="#ccc"/><use xlink:href="#P" transform="matrix(1,0,0,1,1837.5742917155424,952.007575757576) translate(10.022135416666657 23.389322916666668)"/><use xlink:href="#Q" transform="matrix(1,0,0,1,1837.5742917155424,952.007575757576) translate(49.05989583333333 23.389322916666668)"/><use xlink:href="#R" transform="matrix(1,0,0,1,1837.5742917155424,952.007575757576) translate(32.3984375 48.809895833333336)"/><use xlink:href="#S" transform="matrix(1,0,0,1,1837.5742917155424,952.007575757576) translate(72.80338541666667 48.809895833333336)"/><use xlink:href="#T" transform="matrix(1,0,0,1,1837.5742917155424,952.007575757576) translate(37.61653645833333 74.23046875)"/><use xlink:href="#U" transform="matrix(1,0,0,1,1837.5742917155424,952.007575757576) translate(39.635416666666664 99.65104166666667)"/><path d="M1312.57 633c0-3.3 2.7-6 6-6h148c3.32 0 6 2.7 6 6v108c0 3.32-2.68 6-6 6h-148c-3.3 0-6-2.68-6-6z" stroke="#999" stroke-width="3" fill="#ccc"/><g><use xlink:href="#V" transform="matrix(1,0,0,1,1317.5742917155424,632.007575757576) translate(21.40625 37.13932291666667)"/><use xlink:href="#W" transform="matrix(1,0,0,1,1317.5742917155424,632.007575757576) translate(1.9192708333333286 62.55989583333334)"/><use xlink:href="#X" transform="matrix(1,0,0,1,1317.5742917155424,632.007575757576) translate(71.98307291666666 62.55989583333334)"/><use xlink:href="#Y" transform="matrix(1,0,0,1,1317.5742917155424,632.007575757576) translate(117.26432291666667 62.55989583333334)"/><use xlink:href="#Z" transform="matrix(1,0,0,1,1317.5742917155424,632.007575757576) translate(56.000651041666664 87.98046875000001)"/></g><path d="M1812.57 693c0-3.3 2.7-6 6-6h148c3.32 0 6 2.7 6 6v108c0 3.32-2.68 6-6 6h-148c-3.3 0-6-2.68-6-6z" stroke="#999" stroke-width="3" fill="#ccc"/><g><use xlink:href="#aa" transform="matrix(1,0,0,1,1817.5742917155424,692.007575757576) translate(4.421223958333329 37.13932291666667)"/><use xlink:href="#ab" transform="matrix(1,0,0,1,1817.5742917155424,692.007575757576) translate(39.074869791666664 37.13932291666667)"/><use xlink:href="#ac" transform="matrix(1,0,0,1,1817.5742917155424,692.007575757576) translate(61.970703125 37.13932291666667)"/><use xlink:href="#ad" transform="matrix(1,0,0,1,1817.5742917155424,692.007575757576) translate(125.69986979166667 37.13932291666667)"/><use xlink:href="#ae" transform="matrix(1,0,0,1,1817.5742917155424,692.007575757576) translate(20.986979166666664 62.55989583333334)"/><use xlink:href="#af" transform="matrix(1,0,0,1,1817.5742917155424,692.007575757576) translate(46.690104166666664 62.55989583333334)"/><use xlink:href="#ag" transform="matrix(1,0,0,1,1817.5742917155424,692.007575757576) translate(20.029947916666657 87.98046875000001)"/></g><path d="M1334.07 944.9h-3v-15.33h3zm0-30.64h-3v-30.63h3zm95.5-65.75h-15.16v-3h15.17zm-30.33 0h-30.33v-3h30.34z" stroke="#b2b2b2" stroke-width=".05" fill="#b2b2b2"/><path d="M1431.07 848.5h-1.53v-3h1.53z" fill="#b2b2b2"/><path d="M1431.1 848.53h-1.6v-3.05h1.6zm-1.54-3v2.95h1.5v-2.95z" stroke="#b2b2b2" stroke-width=".05" fill="#b2b2b2"/><path d="M1332.57 960.65l-4.63-14.26h9.27z" fill="#b2b2b2"/><path d="M1332.57 965.5l-6.7-20.6h13.4zm-2.57-17.6l2.57 7.9 2.58-7.9z" stroke="#b2b2b2" stroke-width=".05" fill="#b2b2b2"/><g><use xlink:href="#ah" transform="matrix(1,0,0,1,1309.4095781738756,844.2972892992426) translate(0 19.951822916666668)"/></g><path d="M1514.07 784h-3v-15.83h3zm0-31.66h-3v-31.67h3zm0-47.5h-3v-31.67h3zm0-47.5h-3v-31.67h3zm0-47.5h-3v-31.67h3zm0-47.5h-3v-31.67h3zm0-47.5h-3v-31.67h3zm0-47.5h-3v-9.12h3zm316.3-22.36l2.73 2.72.97 3.6v13.6h-3v-13.2l-.66-2.44-1.58-1.6-2.45-.65h-14.46v-3h14.87zM1621.25 447h-29.33v-3h29.34zm44 0h-29.33v-3h29.34zm44 0h-29.33v-3h29.34zm44 0h-29.33v-3h29.34zm44 0h-29.33v-3h29.34zm-220 0h-26.64v-3h26.64z" stroke="#b2b2b2" stroke-width=".05" fill="#b2b2b2"/><path d="M1514.07 785.5h-3v-1.53h3z" fill="#b2b2b2"/><path d="M1514.1 785.53h-3.05v-1.6h3.05zm-3-1.54v1.48h2.95v-1.5z" stroke="#b2b2b2" stroke-width=".05" fill="#b2b2b2"/><path d="M1832.57 480.65l-4.63-14.26h9.27z" fill="#b2b2b2"/><path d="M1832.57 485.5l-6.7-20.6h13.4zm-2.57-17.6l2.57 7.9 2.58-7.9z" stroke="#b2b2b2" stroke-width=".05" fill="#b2b2b2"/><g><use xlink:href="#q" transform="matrix(1,0,0,1,1494.551505257209,432.79728929924266) translate(0 19.951822916666668)"/></g><path d="M1249.57 1028.5h-11.83v-3h11.83zm-23.66 0h-23.66v-3h23.67zm-51.83-7.7l.67 2.46 1.58 1.58 2.45.67h11.64v3h-12.03l-3.6-.97-2.72-2.72-.98-3.6v-15.8h3zm0-31.03h-3v-31.24h3zm0-46.86h-3v-31.23h3zm0-46.84h-3v-31.24h3zm0-46.86h-3v-31.24h3zm0-66.92h-3V771.1h3zm0-26.8h-3v-31.23h3zm23.15-66.97h-18.45l-2.45.67-1.58 1.6-.67 2.44v15.43h-3V692.8l.98-3.6 2.72-2.72 3.6-.97h18.85zm55.94 0h-37.3v-3h37.3zm37.3 0h-18.65v-3h18.65z" stroke="#b2b2b2" stroke-width=".05" fill="#b2b2b2"/><path d="M1251.07 1028.5h-1.53v-3h1.53z" fill="#b2b2b2"/><path d="M1251.1 1028.53h-1.6v-3.05h1.6zm-1.54-3v2.95h1.5v-2.95z" stroke="#b2b2b2" stroke-width=".05" fill="#b2b2b2"/><path d="M1306.22 687l-14.27 4.64v-9.27z" fill="#b2b2b2"/><path d="M1311.07 687l-20.62 6.7v-13.4zm-17.62 2.58l7.92-2.57-7.92-2.56z" stroke="#b2b2b2" stroke-width=".05" fill="#b2b2b2"/><g><use xlink:href="#r" transform="matrix(1,0,0,1,1145.631583382209,782.2814985776153) translate(0 19.951822916666668)"/></g><path d="M1394.07 604.9h-3v-20.64h3zm-3.7-68.42l2.73 2.72.97 3.6v20.83h-3V543.2l-.66-2.44-1.58-1.6-2.45-.65h-11.13v-3h11.53zm-26.46 2.03H1350v-3h13.93zm-49.83-14.2h-3v-6.8h3zm0-20.3h-3v-27h3zm0-40.5h-3V450h3z" stroke="#b2b2b2" stroke-width=".05" fill="#b2b2b2"/><path d="M1314.07 450.05h-3v-1.54h3z" fill="#b2b2b2"/><path d="M1314.1 450.07h-3.05v-1.6h3.05zm-3-1.54v1.5h2.95v-1.5z" stroke="#b2b2b2" stroke-width=".05" fill="#b2b2b2"/><path d="M1392.57 620.65l-4.63-14.26h9.27z" fill="#b2b2b2"/><path d="M1392.57 625.5l-6.7-20.6h13.4zm-2.57-17.6l2.57 7.9 2.58-7.9z" stroke="#b2b2b2" stroke-width=".05" fill="#b2b2b2"/><g><use xlink:href="#q" transform="matrix(1,0,0,1,1293.9351473136887,524.2972892992426) translate(0 19.951822916666668)"/></g><path d="M1634.07 964.9h-3v-15.27h3zm0-30.52h-3v-30.5h3zm0-45.77h-3v-30.5h3zm0-45.75h-3v-30.5h3zm0-45.77h-3v-30.5h3zm0-45.76h-3v-30.5h3zm0-57.02h-3v-19.25h3zm0-34.5h-3v-30.52h3zm0-45.77h-3v-30.5h3zm23-65.52h-18.3l-2.45.67-1.58 1.6-.67 2.44v15.06h-3V552.8l.98-3.6 2.72-2.72 3.6-.97h18.7zm92.5 0h-18.5v-3h18.5zm-37 0h-37v-3h37z" stroke="#b2b2b2" stroke-width=".05" fill="#b2b2b2"/><path d="M1751.07 548.5h-1.53v-3h1.53z" fill="#b2b2b2"/><path d="M1751.1 548.53h-1.6v-3.05h1.6zm-1.54-3v2.95h1.5v-2.95z" stroke="#b2b2b2" stroke-width=".05" fill="#b2b2b2"/><path d="M1632.57 980.65l-4.63-14.26h9.27z" fill="#b2b2b2"/><path d="M1632.57 985.5l-6.7-20.6h13.4zm-2.57-17.6l2.57 7.9 2.58-7.9z" stroke="#b2b2b2" stroke-width=".05" fill="#b2b2b2"/><g><use xlink:href="#q" transform="matrix(1,0,0,1,1604.551505257209,694.2972892992426) translate(0 19.951822916666668)"/></g><path d="M1334.07 1122.3l.67 2.46 1.58 1.58 2.45.67h13.68v3h-14.08l-3.6-.97-2.72-2.72-.98-3.6v-11.03h3zm51.4 7.7h-19.15v-3h19.14zm91.85 0h-27.75v-3h27.75zm35.25-7.3l-.97 3.6-2.72 2.73-3.6.98h-14.08v-3h13.67l2.45-.66 1.6-1.58.65-2.45v-11.38h3zm-178.5-21.86h-3V1090h3zm178.5-1.5h-3v-23.17h3zm17.88-50.83h-13.18l-2.45.67-1.58 1.6-.67 2.44v11.4h-3v-11.8l.98-3.6 2.72-2.72 3.6-.97h13.58z" stroke="#b2b2b2" stroke-width=".05" fill="#b2b2b2"/><path d="M1334.07 1090.05h-3v-1.54h3z" fill="#b2b2b2"/><path d="M1334.1 1090.07h-3.05v-1.6h3.05zm-3-1.54v1.5h2.95v-1.5z" stroke="#b2b2b2" stroke-width=".05" fill="#b2b2b2"/><path d="M1546.22 1047l-14.27 4.64v-9.27z" fill="#b2b2b2"/><path d="M1551.07 1047l-20.62 6.7v-13.4zm-17.62 2.58l7.92-2.57-7.92-2.56z" stroke="#b2b2b2" stroke-width=".05" fill="#b2b2b2"/><g><use xlink:href="#r" transform="matrix(1,0,0,1,1385.4610196650601,1115.7972892992427) translate(0 19.951822916666668)"/></g><path d="M1634.07 1142.3l.67 2.46 1.58 1.58 2.45.67h14.7v3h-15.1l-3.6-.97-2.72-2.72-.98-3.6v-11.03h3zm64.06 7.7h-29.78v-3h29.78zm44.67 0h-29.78v-3h29.78zm26.6 0h-11.7v-3h11.7zm107.4 0h-29.78v-3h29.78zm37.27-7.3l-.97 3.6-2.72 2.73-3.6.98h-15.1v-3h14.7l2.44-.66 1.6-1.58.65-2.45v-17.6h3zm-81.94 7.3h-16.4v-3h16.4zm-198.06-29.16h-3V1110h3zm280-13.92h-3v-17.8h3z" stroke="#b2b2b2" stroke-width=".05" fill="#b2b2b2"/><path d="M1634.07 1110.05h-3v-1.54h3z" fill="#b2b2b2"/><path d="M1634.1 1110.07h-3.05v-1.6h3.05zm-3-1.54v1.5h2.95v-1.5z" stroke="#b2b2b2" stroke-width=".05" fill="#b2b2b2"/><path d="M1917.2 1087.63h-9.26l4.63-14.27z" fill="#b2b2b2"/><path d="M1919.27 1089.13h-13.4l6.7-20.62zm-9.27-3h5.15l-2.58-7.9z" stroke="#b2b2b2" stroke-width=".05" fill="#b2b2b2"/><g><use xlink:href="#ah" transform="matrix(1,0,0,1,1769.4095781738756,1135.7972892992427) translate(0 19.951822916666668)"/></g><path d="M2134.07 924h-3v-15.66h3zm0-31.33h-3v-31.33h3zm0-47h-3v-31.33h3zm22.5-67.16h-17.8l-2.45.67-1.58 1.6-.67 2.44v15.47h-3V782.8l.98-3.6 2.72-2.72 3.6-.97h18.2zm97.5-7.3l-.97 3.6-2.72 2.73-3.6.98h-18.2v-3h17.8l2.44-.66 1.6-1.58.65-2.45v-13.33h3zm0-27.28h-3v-27.08h3zm0-40.62h-3v-27.1h3zm0-40.63h-3v-13.54h3z" stroke="#b2b2b2" stroke-width=".05" fill="#b2b2b2"/><path d="M2134.07 925.5h-3v-1.53h3z" fill="#b2b2b2"/><path d="M2134.1 925.53h-3.05v-1.6h3.05zm-3-1.54v1.48h2.95v-1.5z" stroke="#b2b2b2" stroke-width=".05" fill="#b2b2b2"/><path d="M2257.2 647.63h-9.26l4.63-14.27z" fill="#b2b2b2"/><path d="M2259.27 649.13h-13.4l6.7-20.62zm-9.27-3h5.15l-2.58-7.9z" stroke="#b2b2b2" stroke-width=".05" fill="#b2b2b2"/><g><use xlink:href="#q" transform="matrix(1,0,0,1,2164.5515052572086,764.2972892992426) translate(0 19.951822916666668)"/></g><path d="M2074.07 741.2l-.97 3.6-2.72 2.73-3.6.98h-12.2v-3h11.8l2.44-.66 1.6-1.58.65-2.45V727h3zm-31.46 7.3h-23.95v-3h23.96zm-35.93 0h-11.98v-3h11.97zm67.4-35.5h-3v-28h3zm0-42h-3v-28h3zm0-42h-3v-28h3zm0-42h-3v-7.28h3zm95.5-18.5h-15.16v-3h15.17zm-30.33 0h-30.33v-3h30.34z" stroke="#b2b2b2" stroke-width=".05" fill="#b2b2b2"/><path d="M2171.07 568.5h-1.53v-3h1.53z" fill="#b2b2b2"/><path d="M2171.1 568.53h-1.6v-3.05h1.6zm-1.54-3v2.95h1.5v-2.95z" stroke="#b2b2b2" stroke-width=".05" fill="#b2b2b2"/><path d="M1993.2 751.64l-14.27-4.63 14.26-4.63z" fill="#b2b2b2"/><path d="M1994.7 753.7l-20.63-6.7 20.62-6.7zm-10.92-6.7l7.9 2.58v-5.14z" stroke="#b2b2b2" stroke-width=".05" fill="#b2b2b2"/><g><use xlink:href="#ah" transform="matrix(1,0,0,1,2052.4771052588508,554.2972892992426) translate(0 19.951822916666668)"/></g><path d="M1729.24 1048.5h-13.67v-3h13.67zm34.83-7.3l-.97 3.6-2.72 2.73-3.6.98h-13.87v-3h13.47l2.45-.66 1.6-1.58.65-2.45V1025h3zm0-32.2h-3v-32h3zm0-48h-3v-32h3zm0-48h-3v-3.28h3zm0-28.7h-3V881h3zm0-19.3h-3v-32h3zm0-48h-3v-32h3zm26.38-68.5h-21.68l-2.45.67-1.58 1.6-.67 2.44V769h-3v-16.2l.98-3.6 2.72-2.72 3.6-.97h22.08z" stroke="#b2b2b2" stroke-width=".05" fill="#b2b2b2"/><path d="M1715.6 1048.5h-1.53v-3h1.54z" fill="#b2b2b2"/><path d="M1715.64 1048.53h-1.6v-3.05h1.6zm-1.54-3v2.95h1.5v-2.95z" stroke="#b2b2b2" stroke-width=".05" fill="#b2b2b2"/><path d="M1806.22 747l-14.27 4.64v-9.27z" fill="#b2b2b2"/><path d="M1811.07 747l-20.62 6.7v-13.4zm-17.62 2.58l7.92-2.57-7.92-2.56z" stroke="#b2b2b2" stroke-width=".05" fill="#b2b2b2"/><g><use xlink:href="#r" transform="matrix(1,0,0,1,1735.631583382209,884.2972892992426) translate(0 19.951822916666668)"/></g><path d="M1080 1426c0-3.3 2.7-6 6-6h108c3.3 0 6 2.7 6 6v108c0 3.3-2.7 6-6 6h-108c-3.3 0-6-2.7-6-6zM520 1566c0-3.3 2.7-6 6-6h108c3.3 0 6 2.7 6 6v108c0 3.3-2.7 6-6 6H526c-3.3 0-6-2.7-6-6z" stroke="#999" stroke-width="3" fill="#ccc"/><path d="M940 1566c0-3.3 2.7-6 6-6h108c3.3 0 6 2.7 6 6v108c0 3.3-2.7 6-6 6H946c-3.3 0-6-2.7-6-6z" stroke="#0c7cba" stroke-width="3" fill="#83bbe5"/><path d="M1360 1426c0-3.3 2.7-6 6-6h108c3.3 0 6 2.7 6 6v108c0 3.3-2.7 6-6 6h-108c-3.3 0-6-2.7-6-6z" stroke="#834187" stroke-width="3" fill="#b391b5"/><path d="M940 1426c0-3.3 2.7-6 6-6h108c3.3 0 6 2.7 6 6v108c0 3.3-2.7 6-6 6H946c-3.3 0-6-2.7-6-6z" stroke="#0c7cba" stroke-width="3" fill="#83bbe5"/><path d="M800 1566c0-3.3 2.7-6 6-6h108c3.3 0 6 2.7 6 6v108c0 3.3-2.7 6-6 6H806c-3.3 0-6-2.7-6-6z" stroke="#834187" stroke-width="3" fill="#b391b5"/><path d="M520 1426c0-3.3 2.7-6 6-6h108c3.3 0 6 2.7 6 6v108c0 3.3-2.7 6-6 6H526c-3.3 0-6-2.7-6-6z" stroke="#0c7cba" stroke-width="3" fill="#83bbe5"/><path d="M940 1286c0-3.3 2.7-6 6-6h108c3.3 0 6 2.7 6 6v108c0 3.3-2.7 6-6 6H946c-3.3 0-6-2.7-6-6z" stroke="#999" stroke-width="3" fill="#ccc"/><path d="M380 1426c0-3.3 2.7-6 6-6h108c3.3 0 6 2.7 6 6v108c0 3.3-2.7 6-6 6H386c-3.3 0-6-2.7-6-6z" stroke="#834187" stroke-width="3" fill="#b391b5"/><path d="M800 1426c0-3.3 2.7-6 6-6h108c3.3 0 6 2.7 6 6v108c0 3.3-2.7 6-6 6H806c-3.3 0-6-2.7-6-6z" stroke="#0c7cba" stroke-width="3" fill="#83bbe5"/><path d="M660 1426c0-3.3 2.7-6 6-6h108c3.3 0 6 2.7 6 6v108c0 3.3-2.7 6-6 6H666c-3.3 0-6-2.7-6-6z" stroke="#999" stroke-width="3" fill="#ccc"/><path d="M1220 1426c0-3.3 2.7-6 6-6h108c3.3 0 6 2.7 6 6v108c0 3.3-2.7 6-6 6h-108c-3.3 0-6-2.7-6-6z" stroke="#0c7cba" stroke-width="3" fill="#83bbe5"/><defs><path d="M201 0v-1462h170v1308h645V0H201" id="ai"/><path d="M621-1116c316 0 501 239 501 567 0 339-180 575-508 569S119-212 115-549c-4-339 178-567 506-567zm-5 141c-239 0-329 168-329 426 0 255 93 430 331 430s332-174 332-430-95-426-334-426" id="aj"/><path d="M340-893c80-153 237-262 467-211l-23 154c-45-10-85-15-120-15-184-3-322 182-322 377V0H176v-1096h137l19 203h8" id="ak"/><path d="M995-51C878-2 799 19 639 20c-329 2-524-221-524-559 0-326 172-577 481-577 278 0 451 210 446 493v105H287c4 242 121 392 358 393 118 0 235-25 350-74v148zM864-653c2-195-85-324-270-324-190 0-288 139-303 324h573" id="al"/><path d="M1368-1116c259 2 372 131 371 401V0h-166v-713c0-168-66-262-230-262-221 0-303 131-303 363V0H874v-713c-1-169-66-262-231-262-235 0-301 142-301 400V0H176v-1096h135l27 150h8c56-99 174-170 324-170 171 0 283 62 336 186h8c60-108 189-187 354-186" id="am"/><g id="a"><use transform="matrix(0.009114583333333334,0,0,0.009114583333333334,0,0)" xlink:href="#ai"/><use transform="matrix(0.009114583333333334,0,0,0.009114583333333334,9.688802083333334,0)" xlink:href="#aj"/><use transform="matrix(0.009114583333333334,0,0,0.009114583333333334,20.963541666666668,0)" xlink:href="#ak"/><use transform="matrix(0.009114583333333334,0,0,0.009114583333333334,28.209635416666668,0)" xlink:href="#al"/><use transform="matrix(0.009114583333333334,0,0,0.009114583333333334,38.68229166666667,0)" xlink:href="#am"/></g><path d="M342 0H176v-1096h166V0zm-82-1282c-61 0-98-43-98-111 0-69 36-110 98-110 59 0 98 43 98 110s-39 111-98 111" id="an"/><path d="M1141-549c0 329-147 569-455 569-159 0-273-61-344-161h-12c23 199 7 418 12 633H176v-1588h135l23 150h8c77-108 175-170 344-170 311 0 455 237 455 567zm-172-2c0-242-88-424-307-424-256 0-323 154-320 426 3 280 68 430 324 430 213 0 303-196 303-432" id="ao"/><path d="M502-977c-130 0-238 32-238 139 0 75 39 101 95 134 33 19 97 46 192 81 130 48 217 95 263 143s69 108 69 181C883-73 695 20 449 20 304 20 190-3 109-49v-154c91 47 216 86 344 86 149 0 270-36 270-168 0-43-21-76-55-109-56-55-367-158-434-208-74-55-128-109-128-225 0-327 490-342 754-217l-59 135c-110-45-210-68-299-68" id="ap"/><path d="M563 20c-271 0-399-123-399-399v-717h168v711c1 177 76 266 252 266 250 0 331-135 331-401v-576h166V0H944l-24-147h-9C848-44 724 20 563 20" id="aq"/><g id="b"><use transform="matrix(0.009114583333333334,0,0,0.009114583333333334,0,0)" xlink:href="#an"/><use transform="matrix(0.009114583333333334,0,0,0.009114583333333334,4.721354166666667,0)" xlink:href="#ao"/><use transform="matrix(0.009114583333333334,0,0,0.009114583333333334,16.16015625,0)" xlink:href="#ap"/><use transform="matrix(0.009114583333333334,0,0,0.009114583333333334,25.065104166666668,0)" xlink:href="#aq"/><use transform="matrix(0.009114583333333334,0,0,0.009114583333333334,36.52213541666667,0)" xlink:href="#am"/></g><path d="M115-545c0-330 146-571 454-571 149 0 263 54 342 162h13c-20-185-8-401-11-602h166V0H944l-22-147h-9C836-36 722 20 569 20c-309 0-454-234-454-565zm172 2c0 249 78 424 303 424 257 0 327-150 323-426-4-282-68-432-325-432-220 0-301 191-301 434" id="ar"/><path d="M342 0H176v-1556h166V0" id="as"/><g id="c"><use transform="matrix(0.009114583333333334,0,0,0.009114583333333334,0,0)" xlink:href="#ar"/><use transform="matrix(0.009114583333333334,0,0,0.009114583333333334,11.438802083333334,0)" xlink:href="#aj"/><use transform="matrix(0.009114583333333334,0,0,0.009114583333333334,22.713541666666668,0)" xlink:href="#as"/><use transform="matrix(0.009114583333333334,0,0,0.009114583333333334,27.434895833333336,0)" xlink:href="#aj"/><use transform="matrix(0.009114583333333334,0,0,0.009114583333333334,38.70963541666667,0)" xlink:href="#ak"/></g><path d="M354-322c-2 123 60 204 176 205 51 1 114-10 150-20v127C647 7 557 20 506 20 294 20 188-92 188-315v-652H31v-80l157-69 70-234h96v254h318v129H354v645" id="at"/><g id="d"><use transform="matrix(0.009114583333333334,0,0,0.009114583333333334,0,0)" xlink:href="#ap"/><use transform="matrix(0.009114583333333334,0,0,0.009114583333333334,8.904947916666668,0)" xlink:href="#an"/><use transform="matrix(0.009114583333333334,0,0,0.009114583333333334,13.626302083333336,0)" xlink:href="#at"/></g><path d="M588-1114c260 0 384 106 385 366V0H850l-33-156h-8C708-34 639 17 442 20 231 23 94-94 94-303c0-221 177-337 531-348l186-6c11-203-40-320-233-320-91 0-195 28-310 84l-51-127c97-53 229-94 371-94zM268-301c-1 123 81 184 207 184 203 0 334-120 332-323v-99c-257 14-539-7-539 238" id="au"/><g id="e"><use transform="matrix(0.009114583333333334,0,0,0.009114583333333334,0,0)" xlink:href="#au"/><use transform="matrix(0.009114583333333334,0,0,0.009114583333333334,10.381510416666668,0)" xlink:href="#am"/><use transform="matrix(0.009114583333333334,0,0,0.009114583333333334,27.744791666666668,0)" xlink:href="#al"/><use transform="matrix(0.009114583333333334,0,0,0.009114583333333334,38.21744791666667,0)" xlink:href="#at"/></g><path d="M516-150c94-315 146-423 332-946h178L610 0H416L0-1096h178c98 281 253 670 330 946h8" id="av"/><g id="f"><use transform="matrix(0.009114583333333334,0,0,0.009114583333333334,0,0)" xlink:href="#av"/><use transform="matrix(0.009114583333333334,0,0,0.009114583333333334,9.3515625,0)" xlink:href="#al"/><use transform="matrix(0.009114583333333334,0,0,0.009114583333333334,19.82421875,0)" xlink:href="#as"/><use transform="matrix(0.009114583333333334,0,0,0.009114583333333334,24.545572916666668,0)" xlink:href="#an"/><use transform="matrix(0.009114583333333334,0,0,0.009114583333333334,29.266927083333336,0)" xlink:href="#at"/></g><g id="g"><use transform="matrix(0.009114583333333334,0,0,0.009114583333333334,0,0)" xlink:href="#al"/><use transform="matrix(0.009114583333333334,0,0,0.009114583333333334,10.47265625,0)" xlink:href="#ap"/><use transform="matrix(0.009114583333333334,0,0,0.009114583333333334,19.377604166666668,0)" xlink:href="#ap"/><use transform="matrix(0.009114583333333334,0,0,0.009114583333333334,28.282552083333336,0)" xlink:href="#al"/></g><path d="M287-543c-1 247 91 418 323 418 91 0 185-20 281-59v147C818 1 725 20 614 20c-329 0-499-221-499-561 0-349 172-575 510-575 96 0 221 26 282 57l-51 141c-61-25-157-50-235-51-223 0-334 142-334 426" id="aw"/><g id="h"><use transform="matrix(0.009114583333333334,0,0,0.009114583333333334,0,0)" xlink:href="#aw"/><use transform="matrix(0.009114583333333334,0,0,0.009114583333333334,8.88671875,0)" xlink:href="#an"/><use transform="matrix(0.009114583333333334,0,0,0.009114583333333334,13.608072916666668,0)" xlink:href="#as"/><use transform="matrix(0.009114583333333334,0,0,0.009114583333333334,18.329427083333336,0)" xlink:href="#as"/><use transform="matrix(0.009114583333333334,0,0,0.009114583333333334,23.050781250000007,0)" xlink:href="#aq"/><use transform="matrix(0.009114583333333334,0,0,0.009114583333333334,34.5078125,0)" xlink:href="#am"/></g><g id="i"><use transform="matrix(0.009114583333333334,0,0,0.009114583333333334,0,0)" xlink:href="#ar"/><use transform="matrix(0.009114583333333334,0,0,0.009114583333333334,11.438802083333334,0)" xlink:href="#aj"/><use transform="matrix(0.009114583333333334,0,0,0.009114583333333334,22.713541666666668,0)" xlink:href="#as"/><use transform="matrix(0.009114583333333334,0,0,0.009114583333333334,27.434895833333336,0)" xlink:href="#aj"/><use transform="matrix(0.009114583333333334,0,0,0.009114583333333334,38.70963541666667,0)" xlink:href="#ak"/><use transform="matrix(0.009114583333333334,0,0,0.009114583333333334,45.95572916666667,0)" xlink:href="#al"/></g><g id="j"><use transform="matrix(0.009114583333333334,0,0,0.009114583333333334,0,0)" xlink:href="#al"/><use transform="matrix(0.009114583333333334,0,0,0.009114583333333334,10.47265625,0)" xlink:href="#aq"/></g><path d="M575-1430c-169 0-190 146-184 334h279v129H391V0H225v-967H29v-75l196-60c-15-299 97-465 353-465 58 0 126 12 204 35l-43 133c-64-21-119-31-164-31" id="ax"/><path d="M125-741c0-247 161-377 414-375 57 0 109 7 155 20h379v105l-203 24c37 48 72 129 72 219 0 255-227 390-504 345-71 37-106 84-106 141 0 78 66 88 164 88h194c219-1 369 87 369 293 0 121-49 213-146 277s-239 96-426 96c-250 0-448-83-448-306C39 36 147-58 283-86c-52-23-102-79-99-152 4-104 57-143 133-192-107-42-192-164-192-311zM438-25c-143-1-242 70-239 209s131 181 290 181c139 0 242-21 309-63s101-98 101-169c0-147-88-158-262-158H438zm94-970c-158 0-243 88-243 250 0 153 93 233 246 233 162 0 243-79 243-236 0-165-82-247-246-247" id="ay"/><g id="k"><use transform="matrix(0.009114583333333334,0,0,0.009114583333333334,0,0)" xlink:href="#ax"/><use transform="matrix(0.009114583333333334,0,0,0.009114583333333334,6.325520833333334,0)" xlink:href="#aq"/><use transform="matrix(0.009114583333333334,0,0,0.009114583333333334,17.782552083333336,0)" xlink:href="#ay"/><use transform="matrix(0.009114583333333334,0,0,0.009114583333333334,28.009114583333336,0)" xlink:href="#an"/><use transform="matrix(0.009114583333333334,0,0,0.009114583333333334,32.73046875,0)" xlink:href="#au"/><use transform="matrix(0.009114583333333334,0,0,0.009114583333333334,43.11197916666667,0)" xlink:href="#at"/></g><g id="l"><use transform="matrix(0.009114583333333334,0,0,0.009114583333333334,0,0)" xlink:href="#ao"/><use transform="matrix(0.009114583333333334,0,0,0.009114583333333334,11.438802083333334,0)" xlink:href="#al"/><use transform="matrix(0.009114583333333334,0,0,0.009114583333333334,21.911458333333336,0)" xlink:href="#ak"/><use transform="matrix(0.009114583333333334,0,0,0.009114583333333334,29.531250000000004,0)" xlink:href="#ap"/><use transform="matrix(0.009114583333333334,0,0,0.009114583333333334,38.43619791666667,0)" xlink:href="#ao"/><use transform="matrix(0.009114583333333334,0,0,0.009114583333333334,49.875,0)" xlink:href="#an"/><use transform="matrix(0.009114583333333334,0,0,0.009114583333333334,54.59635416666667,0)" xlink:href="#aw"/><use transform="matrix(0.009114583333333334,0,0,0.009114583333333334,63.48307291666667,0)" xlink:href="#an"/><use transform="matrix(0.009114583333333334,0,0,0.009114583333333334,68.20442708333334,0)" xlink:href="#au"/><use transform="matrix(0.009114583333333334,0,0,0.009114583333333334,78.58593750000003,0)" xlink:href="#at"/><use transform="matrix(0.009114583333333334,0,0,0.009114583333333334,85.17578125000003,0)" xlink:href="#an"/><use transform="matrix(0.009114583333333334,0,0,0.009114583333333334,89.89713541666669,0)" xlink:href="#ap"/></g><path d="M694-1116c270 0 399 125 398 401V0H926v-709c-1-177-76-266-252-266-250 0-332 133-332 400V0H176v-1096h135l27 150h8c62-101 190-170 348-170" id="az"/><g id="m"><use transform="matrix(0.009114583333333334,0,0,0.009114583333333334,0,0)" xlink:href="#aq"/><use transform="matrix(0.009114583333333334,0,0,0.009114583333333334,11.45703125,0)" xlink:href="#az"/><use transform="matrix(0.009114583333333334,0,0,0.009114583333333334,22.9140625,0)" xlink:href="#ar"/><use transform="matrix(0.009114583333333334,0,0,0.009114583333333334,34.352864583333336,0)" xlink:href="#al"/></g><g id="n"><use transform="matrix(0.009114583333333334,0,0,0.009114583333333334,0,0)" xlink:href="#aj"/><use transform="matrix(0.009114583333333334,0,0,0.009114583333333334,11.274739583333334,0)" xlink:href="#am"/><use transform="matrix(0.009114583333333334,0,0,0.009114583333333334,28.638020833333336,0)" xlink:href="#az"/><use transform="matrix(0.009114583333333334,0,0,0.009114583333333334,40.095052083333336,0)" xlink:href="#an"/><use transform="matrix(0.009114583333333334,0,0,0.009114583333333334,44.81640625,0)" xlink:href="#ap"/></g><g id="o"><use transform="matrix(0.009114583333333334,0,0,0.009114583333333334,0,0)" xlink:href="#an"/><use transform="matrix(0.009114583333333334,0,0,0.009114583333333334,4.721354166666667,0)" xlink:href="#ap"/><use transform="matrix(0.009114583333333334,0,0,0.009114583333333334,13.626302083333336,0)" xlink:href="#at"/><use transform="matrix(0.009114583333333334,0,0,0.009114583333333334,20.216145833333336,0)" xlink:href="#al"/></g><g id="p"><use transform="matrix(0.009114583333333334,0,0,0.009114583333333334,0,0)" xlink:href="#az"/><use transform="matrix(0.009114583333333334,0,0,0.009114583333333334,11.45703125,0)" xlink:href="#au"/><use transform="matrix(0.009114583333333334,0,0,0.009114583333333334,21.838541666666668,0)" xlink:href="#at"/><use transform="matrix(0.009114583333333334,0,0,0.009114583333333334,28.428385416666668,0)" xlink:href="#aq"/><use transform="matrix(0.009114583333333334,0,0,0.009114583333333334,39.88541666666667,0)" xlink:href="#ap"/></g><g id="q"><use transform="matrix(0.009114583333333334,0,0,0.009114583333333334,0,0)" xlink:href="#ai"/><use transform="matrix(0.009114583333333334,0,0,0.009114583333333334,9.688802083333334,0)" xlink:href="#aj"/><use transform="matrix(0.009114583333333334,0,0,0.009114583333333334,20.963541666666668,0)" xlink:href="#ak"/><use transform="matrix(0.009114583333333334,0,0,0.009114583333333334,28.209635416666668,0)" xlink:href="#al"/><use transform="matrix(0.009114583333333334,0,0,0.009114583333333334,38.68229166666667,0)" xlink:href="#am"/></g><g id="r"><use transform="matrix(0.009114583333333334,0,0,0.009114583333333334,0,0)" xlink:href="#an"/><use transform="matrix(0.009114583333333334,0,0,0.009114583333333334,4.721354166666667,0)" xlink:href="#ao"/><use transform="matrix(0.009114583333333334,0,0,0.009114583333333334,16.16015625,0)" xlink:href="#ap"/><use transform="matrix(0.009114583333333334,0,0,0.009114583333333334,25.065104166666668,0)" xlink:href="#aq"/><use transform="matrix(0.009114583333333334,0,0,0.009114583333333334,36.52213541666667,0)" xlink:href="#am"/></g><g id="s"><use transform="matrix(0.009114583333333334,0,0,0.009114583333333334,0,0)" xlink:href="#ap"/><use transform="matrix(0.009114583333333334,0,0,0.009114583333333334,8.904947916666668,0)" xlink:href="#aq"/><use transform="matrix(0.009114583333333334,0,0,0.009114583333333334,20.361979166666668,0)" xlink:href="#az"/><use transform="matrix(0.009114583333333334,0,0,0.009114583333333334,31.819010416666668,0)" xlink:href="#at"/></g><g id="t"><use transform="matrix(0.009114583333333334,0,0,0.009114583333333334,0,0)" xlink:href="#an"/><use transform="matrix(0.009114583333333334,0,0,0.009114583333333334,4.721354166666667,0)" xlink:href="#az"/></g><g id="u"><use transform="matrix(0.009114583333333334,0,0,0.009114583333333334,0,0)" xlink:href="#aw"/><use transform="matrix(0.009114583333333334,0,0,0.009114583333333334,8.88671875,0)" xlink:href="#aq"/><use transform="matrix(0.009114583333333334,0,0,0.009114583333333334,20.34375,0)" xlink:href="#as"/><use transform="matrix(0.009114583333333334,0,0,0.009114583333333334,25.065104166666668,0)" xlink:href="#ao"/><use transform="matrix(0.009114583333333334,0,0,0.009114583333333334,36.50390625,0)" xlink:href="#au"/></g><path d="M287-543c0 246 78 424 303 424 259 0 323-148 323-426 0-279-71-432-325-432-220 0-301 191-301 434zm-172-2c0-328 147-571 454-571 150 0 265 57 346 170h9l24-150h131V492H913c5-208-11-450 11-639h-13C834-36 719 20 565 20c-305 0-450-240-450-565" id="aA"/><g id="v"><use transform="matrix(0.009114583333333334,0,0,0.009114583333333334,0,0)" xlink:href="#aA"/><use transform="matrix(0.009114583333333334,0,0,0.009114583333333334,11.438802083333334,0)" xlink:href="#aq"/><use transform="matrix(0.009114583333333334,0,0,0.009114583333333334,22.895833333333336,0)" xlink:href="#an"/></g><g id="w"><use transform="matrix(0.009114583333333334,0,0,0.009114583333333334,0,0)" xlink:href="#aj"/><use transform="matrix(0.009114583333333334,0,0,0.009114583333333334,11.274739583333334,0)" xlink:href="#ax"/><use transform="matrix(0.009114583333333334,0,0,0.009114583333333334,17.600260416666668,0)" xlink:href="#ax"/><use transform="matrix(0.009114583333333334,0,0,0.009114583333333334,23.92578125,0)" xlink:href="#an"/><use transform="matrix(0.009114583333333334,0,0,0.009114583333333334,28.647135416666668,0)" xlink:href="#aw"/><use transform="matrix(0.009114583333333334,0,0,0.009114583333333334,37.53385416666667,0)" xlink:href="#an"/><use transform="matrix(0.009114583333333334,0,0,0.009114583333333334,42.255208333333336,0)" xlink:href="#au"/></g><g id="x"><use transform="matrix(0.009114583333333334,0,0,0.009114583333333334,0,0)" xlink:href="#ap"/><use transform="matrix(0.009114583333333334,0,0,0.009114583333333334,8.904947916666668,0)" xlink:href="#al"/><use transform="matrix(0.009114583333333334,0,0,0.009114583333333334,19.377604166666668,0)" xlink:href="#ar"/></g><g id="y"><use transform="matrix(0.009114583333333334,0,0,0.009114583333333334,0,0)" xlink:href="#ar"/><use transform="matrix(0.009114583333333334,0,0,0.009114583333333334,11.438802083333334,0)" xlink:href="#aj"/></g><g id="z"><use transform="matrix(0.009114583333333334,0,0,0.009114583333333334,0,0)" xlink:href="#al"/><use transform="matrix(0.009114583333333334,0,0,0.009114583333333334,10.47265625,0)" xlink:href="#an"/><use transform="matrix(0.009114583333333334,0,0,0.009114583333333334,15.194010416666668,0)" xlink:href="#aq"/><use transform="matrix(0.009114583333333334,0,0,0.009114583333333334,26.651041666666668,0)" xlink:href="#ap"/><use transform="matrix(0.009114583333333334,0,0,0.009114583333333334,35.555989583333336,0)" xlink:href="#am"/><use transform="matrix(0.009114583333333334,0,0,0.009114583333333334,52.919270833333336,0)" xlink:href="#aj"/><use transform="matrix(0.009114583333333334,0,0,0.009114583333333334,64.19401041666667,0)" xlink:href="#ar"/></g><g id="A"><use transform="matrix(0.009114583333333334,0,0,0.009114583333333334,0,0)" xlink:href="#at"/><use transform="matrix(0.009114583333333334,0,0,0.009114583333333334,6.58984375,0)" xlink:href="#al"/><use transform="matrix(0.009114583333333334,0,0,0.009114583333333334,17.0625,0)" xlink:href="#am"/><use transform="matrix(0.009114583333333334,0,0,0.009114583333333334,34.42578125,0)" xlink:href="#ao"/><use transform="matrix(0.009114583333333334,0,0,0.009114583333333334,45.864583333333336,0)" xlink:href="#aj"/><use transform="matrix(0.009114583333333334,0,0,0.009114583333333334,57.13932291666667,0)" xlink:href="#ak"/></g><path d="M1016 0H201v-1462h815v151H371v471h606v150H371v538h645V0" id="aB"/><path d="M440-561L59-1096h189l289 420 288-420h187L631-561 1032 0H844L537-444 227 0H39" id="aC"/><g id="B"><use transform="matrix(0.009114583333333334,0,0,0.009114583333333334,0,0)" xlink:href="#aB"/><use transform="matrix(0.009114583333333334,0,0,0.009114583333333334,10.381510416666668,0)" xlink:href="#aC"/><use transform="matrix(0.009114583333333334,0,0,0.009114583333333334,19.78776041666667,0)" xlink:href="#aw"/><use transform="matrix(0.009114583333333334,0,0,0.009114583333333334,28.67447916666667,0)" xlink:href="#al"/><use transform="matrix(0.009114583333333334,0,0,0.009114583333333334,39.14713541666667,0)" xlink:href="#ao"/><use transform="matrix(0.009114583333333334,0,0,0.009114583333333334,50.5859375,0)" xlink:href="#at"/><use transform="matrix(0.009114583333333334,0,0,0.009114583333333334,57.17578125000001,0)" xlink:href="#al"/><use transform="matrix(0.009114583333333334,0,0,0.009114583333333334,67.6484375,0)" xlink:href="#aq"/><use transform="matrix(0.009114583333333334,0,0,0.009114583333333334,79.10546875,0)" xlink:href="#ak"/></g><g id="C"><use transform="matrix(0.009114583333333334,0,0,0.009114583333333334,0,0)" xlink:href="#ap"/><use transform="matrix(0.009114583333333334,0,0,0.009114583333333334,8.904947916666668,0)" xlink:href="#an"/><use transform="matrix(0.009114583333333334,0,0,0.009114583333333334,13.626302083333336,0)" xlink:href="#az"/><use transform="matrix(0.009114583333333334,0,0,0.009114583333333334,25.083333333333336,0)" xlink:href="#at"/></g><g id="D"><use transform="matrix(0.009114583333333334,0,0,0.009114583333333334,0,0)" xlink:href="#aj"/><use transform="matrix(0.009114583333333334,0,0,0.009114583333333334,11.274739583333334,0)" xlink:href="#aw"/><use transform="matrix(0.009114583333333334,0,0,0.009114583333333334,20.161458333333336,0)" xlink:href="#aw"/><use transform="matrix(0.009114583333333334,0,0,0.009114583333333334,29.048177083333336,0)" xlink:href="#au"/><use transform="matrix(0.009114583333333334,0,0,0.009114583333333334,39.4296875,0)" xlink:href="#al"/><use transform="matrix(0.009114583333333334,0,0,0.009114583333333334,49.90234375,0)" xlink:href="#aw"/><use transform="matrix(0.009114583333333334,0,0,0.009114583333333334,58.78906250000001,0)" xlink:href="#au"/><use transform="matrix(0.009114583333333334,0,0,0.009114583333333334,69.17057291666667,0)" xlink:href="#at"/></g><g id="E"><use transform="matrix(0.009114583333333334,0,0,0.009114583333333334,0,0)" xlink:href="#aw"/><use transform="matrix(0.009114583333333334,0,0,0.009114583333333334,8.88671875,0)" xlink:href="#aj"/><use transform="matrix(0.009114583333333334,0,0,0.009114583333333334,20.161458333333336,0)" xlink:href="#az"/><use transform="matrix(0.009114583333333334,0,0,0.009114583333333334,31.618489583333336,0)" xlink:href="#ap"/><use transform="matrix(0.009114583333333334,0,0,0.009114583333333334,40.5234375,0)" xlink:href="#al"/><use transform="matrix(0.009114583333333334,0,0,0.009114583333333334,50.99609375,0)" xlink:href="#aw"/><use transform="matrix(0.009114583333333334,0,0,0.009114583333333334,59.88281250000001,0)" xlink:href="#at"/><use transform="matrix(0.009114583333333334,0,0,0.009114583333333334,66.47265625,0)" xlink:href="#al"/><use transform="matrix(0.009114583333333334,0,0,0.009114583333333334,76.9453125,0)" xlink:href="#at"/><use transform="matrix(0.009114583333333334,0,0,0.009114583333333334,83.53515625,0)" xlink:href="#aq"/><use transform="matrix(0.009114583333333334,0,0,0.009114583333333334,94.9921875,0)" xlink:href="#ak"/></g><g id="F"><use transform="matrix(0.009114583333333334,0,0,0.009114583333333334,0,0)" xlink:href="#au"/><use transform="matrix(0.009114583333333334,0,0,0.009114583333333334,10.381510416666668,0)" xlink:href="#ar"/><use transform="matrix(0.009114583333333334,0,0,0.009114583333333334,21.8203125,0)" xlink:href="#an"/><use transform="matrix(0.009114583333333334,0,0,0.009114583333333334,26.541666666666668,0)" xlink:href="#ao"/><use transform="matrix(0.009114583333333334,0,0,0.009114583333333334,37.98046875,0)" xlink:href="#an"/><use transform="matrix(0.009114583333333334,0,0,0.009114583333333334,42.701822916666664,0)" xlink:href="#ap"/><use transform="matrix(0.009114583333333334,0,0,0.009114583333333334,51.60677083333333,0)" xlink:href="#aw"/><use transform="matrix(0.009114583333333334,0,0,0.009114583333333334,60.49348958333333,0)" xlink:href="#an"/><use transform="matrix(0.009114583333333334,0,0,0.009114583333333334,65.21484375,0)" xlink:href="#az"/><use transform="matrix(0.009114583333333334,0,0,0.009114583333333334,76.671875,0)" xlink:href="#ay"/></g><g id="G"><use transform="matrix(0.009114583333333334,0,0,0.009114583333333334,0,0)" xlink:href="#al"/><use transform="matrix(0.009114583333333334,0,0,0.009114583333333334,10.47265625,0)" xlink:href="#as"/><use transform="matrix(0.009114583333333334,0,0,0.009114583333333334,15.194010416666668,0)" xlink:href="#an"/><use transform="matrix(0.009114583333333334,0,0,0.009114583333333334,19.915364583333336,0)" xlink:href="#at"/></g><path d="M649-1462c450-4 719 268 719 717 0 484-276 748-762 745H201v-1462h448zM578-147c400 1 610-197 610-592 1-379-192-576-570-576H371v1168h207" id="aD"/><g id="H"><use transform="matrix(0.009114583333333334,0,0,0.009114583333333334,0,0)" xlink:href="#aD"/><use transform="matrix(0.009114583333333334,0,0,0.009114583333333334,13.608072916666668,0)" xlink:href="#aq"/><use transform="matrix(0.009114583333333334,0,0,0.009114583333333334,25.065104166666668,0)" xlink:href="#an"/><use transform="matrix(0.009114583333333334,0,0,0.009114583333333334,29.786458333333336,0)" xlink:href="#ap"/></g><g id="I"><use transform="matrix(0.009114583333333334,0,0,0.009114583333333334,0,0)" xlink:href="#au"/><use transform="matrix(0.009114583333333334,0,0,0.009114583333333334,10.381510416666668,0)" xlink:href="#aq"/><use transform="matrix(0.009114583333333334,0,0,0.009114583333333334,21.838541666666668,0)" xlink:href="#at"/><use transform="matrix(0.009114583333333334,0,0,0.009114583333333334,28.428385416666668,0)" xlink:href="#al"/></g><g id="J"><use transform="matrix(0.009114583333333334,0,0,0.009114583333333334,0,0)" xlink:href="#an"/><use transform="matrix(0.009114583333333334,0,0,0.009114583333333334,4.721354166666667,0)" xlink:href="#ak"/><use transform="matrix(0.009114583333333334,0,0,0.009114583333333334,12.341145833333334,0)" xlink:href="#aq"/><use transform="matrix(0.009114583333333334,0,0,0.009114583333333334,23.798177083333336,0)" xlink:href="#ak"/><use transform="matrix(0.009114583333333334,0,0,0.009114583333333334,31.044270833333336,0)" xlink:href="#al"/></g><g id="K"><use transform="matrix(0.009114583333333334,0,0,0.009114583333333334,0,0)" xlink:href="#ar"/><use transform="matrix(0.009114583333333334,0,0,0.009114583333333334,11.438802083333334,0)" xlink:href="#aj"/><use transform="matrix(0.009114583333333334,0,0,0.009114583333333334,22.713541666666668,0)" xlink:href="#as"/><use transform="matrix(0.009114583333333334,0,0,0.009114583333333334,27.434895833333336,0)" xlink:href="#aj"/><use transform="matrix(0.009114583333333334,0,0,0.009114583333333334,38.70963541666667,0)" xlink:href="#ak"/></g><g id="L"><use transform="matrix(0.009114583333333334,0,0,0.009114583333333334,0,0)" xlink:href="#an"/><use transform="matrix(0.009114583333333334,0,0,0.009114583333333334,4.721354166666667,0)" xlink:href="#az"/><use transform="matrix(0.009114583333333334,0,0,0.009114583333333334,16.178385416666668,0)" xlink:href="#aw"/><use transform="matrix(0.009114583333333334,0,0,0.009114583333333334,25.065104166666668,0)" xlink:href="#an"/><use transform="matrix(0.009114583333333334,0,0,0.009114583333333334,29.786458333333336,0)" xlink:href="#ar"/><use transform="matrix(0.009114583333333334,0,0,0.009114583333333334,41.22526041666667,0)" xlink:href="#an"/><use transform="matrix(0.009114583333333334,0,0,0.009114583333333334,45.946614583333336,0)" xlink:href="#ar"/><use transform="matrix(0.009114583333333334,0,0,0.009114583333333334,57.38541666666667,0)" xlink:href="#aq"/><use transform="matrix(0.009114583333333334,0,0,0.009114583333333334,68.84244791666667,0)" xlink:href="#az"/><use transform="matrix(0.009114583333333334,0,0,0.009114583333333334,80.29947916666667,0)" xlink:href="#at"/></g><g id="M"><use transform="matrix(0.009114583333333334,0,0,0.009114583333333334,0,0)" xlink:href="#aq"/><use transform="matrix(0.009114583333333334,0,0,0.009114583333333334,11.45703125,0)" xlink:href="#at"/></g><path d="M686 20c-159 0-273-61-344-161h-12L295 0H176v-1556h166c-2 198 6 423-8 606h8c77-109 192-164 344-164 310 0 455 234 455 565 0 329-147 569-455 569zm283-571c0-257-72-424-307-424-256 0-320 146-320 426s68 430 324 430c228 0 303-184 303-432" id="aE"/><g id="N"><use transform="matrix(0.009114583333333334,0,0,0.009114583333333334,0,0)" xlink:href="#as"/><use transform="matrix(0.009114583333333334,0,0,0.009114583333333334,4.721354166666667,0)" xlink:href="#au"/><use transform="matrix(0.009114583333333334,0,0,0.009114583333333334,15.102864583333336,0)" xlink:href="#aE"/><use transform="matrix(0.009114583333333334,0,0,0.009114583333333334,26.54166666666667,0)" xlink:href="#aj"/><use transform="matrix(0.009114583333333334,0,0,0.009114583333333334,37.816406250000014,0)" xlink:href="#ak"/><use transform="matrix(0.009114583333333334,0,0,0.009114583333333334,45.062500000000014,0)" xlink:href="#al"/></g><g id="O"><use transform="matrix(0.009114583333333334,0,0,0.009114583333333334,0,0)" xlink:href="#al"/><use transform="matrix(0.009114583333333334,0,0,0.009114583333333334,10.47265625,0)" xlink:href="#at"/></g><g id="P"><use transform="matrix(0.009114583333333334,0,0,0.009114583333333334,0,0)" xlink:href="#az"/><use transform="matrix(0.009114583333333334,0,0,0.009114583333333334,11.45703125,0)" xlink:href="#aj"/><use transform="matrix(0.009114583333333334,0,0,0.009114583333333334,22.731770833333336,0)" xlink:href="#az"/></g><g id="Q"><use transform="matrix(0.009114583333333334,0,0,0.009114583333333334,0,0)" xlink:href="#az"/><use transform="matrix(0.009114583333333334,0,0,0.009114583333333334,11.45703125,0)" xlink:href="#aq"/><use transform="matrix(0.009114583333333334,0,0,0.009114583333333334,22.9140625,0)" xlink:href="#am"/><use transform="matrix(0.009114583333333334,0,0,0.009114583333333334,40.27734375,0)" xlink:href="#aA"/><use transform="matrix(0.009114583333333334,0,0,0.009114583333333334,51.716145833333336,0)" xlink:href="#aq"/><use transform="matrix(0.009114583333333334,0,0,0.009114583333333334,63.173177083333336,0)" xlink:href="#au"/><use transform="matrix(0.009114583333333334,0,0,0.009114583333333334,73.5546875,0)" xlink:href="#am"/></g><g id="R"><use transform="matrix(0.009114583333333334,0,0,0.009114583333333334,0,0)" xlink:href="#al"/><use transform="matrix(0.009114583333333334,0,0,0.009114583333333334,10.47265625,0)" xlink:href="#an"/><use transform="matrix(0.009114583333333334,0,0,0.009114583333333334,15.194010416666668,0)" xlink:href="#aq"/><use transform="matrix(0.009114583333333334,0,0,0.009114583333333334,26.651041666666668,0)" xlink:href="#ap"/></g><g id="S"><use transform="matrix(0.009114583333333334,0,0,0.009114583333333334,0,0)" xlink:href="#am"/><use transform="matrix(0.009114583333333334,0,0,0.009114583333333334,17.36328125,0)" xlink:href="#aj"/><use transform="matrix(0.009114583333333334,0,0,0.009114583333333334,28.638020833333336,0)" xlink:href="#ar"/><use transform="matrix(0.009114583333333334,0,0,0.009114583333333334,40.07682291666667,0)" xlink:href="#an"/></g><g id="T"><use transform="matrix(0.009114583333333334,0,0,0.009114583333333334,0,0)" xlink:href="#at"/><use transform="matrix(0.009114583333333334,0,0,0.009114583333333334,6.58984375,0)" xlink:href="#al"/><use transform="matrix(0.009114583333333334,0,0,0.009114583333333334,17.0625,0)" xlink:href="#am"/><use transform="matrix(0.009114583333333334,0,0,0.009114583333333334,34.42578125,0)" xlink:href="#ao"/><use transform="matrix(0.009114583333333334,0,0,0.009114583333333334,45.864583333333336,0)" xlink:href="#aj"/><use transform="matrix(0.009114583333333334,0,0,0.009114583333333334,57.13932291666667,0)" xlink:href="#ak"/><use transform="matrix(0.009114583333333334,0,0,0.009114583333333334,64.38541666666667,0)" xlink:href="#au"/></g><g id="U"><use transform="matrix(0.009114583333333334,0,0,0.009114583333333334,0,0)" xlink:href="#an"/><use transform="matrix(0.009114583333333334,0,0,0.009114583333333334,4.721354166666667,0)" xlink:href="#az"/><use transform="matrix(0.009114583333333334,0,0,0.009114583333333334,16.178385416666668,0)" xlink:href="#aw"/><use transform="matrix(0.009114583333333334,0,0,0.009114583333333334,25.065104166666668,0)" xlink:href="#an"/><use transform="matrix(0.009114583333333334,0,0,0.009114583333333334,29.786458333333336,0)" xlink:href="#ar"/><use transform="matrix(0.009114583333333334,0,0,0.009114583333333334,41.22526041666667,0)" xlink:href="#aq"/><use transform="matrix(0.009114583333333334,0,0,0.009114583333333334,52.68229166666667,0)" xlink:href="#az"/><use transform="matrix(0.009114583333333334,0,0,0.009114583333333334,64.13932291666667,0)" xlink:href="#at"/></g><path d="M63 264c30-115 88-378 105-502h182l15 23C327-69 250 132 188 264H63" id="aF"/><g id="V"><use transform="matrix(0.009114583333333334,0,0,0.009114583333333334,0,0)" xlink:href="#aw"/><use transform="matrix(0.009114583333333334,0,0,0.009114583333333334,8.88671875,0)" xlink:href="#aj"/><use transform="matrix(0.009114583333333334,0,0,0.009114583333333334,20.161458333333336,0)" xlink:href="#az"/><use transform="matrix(0.009114583333333334,0,0,0.009114583333333334,31.618489583333336,0)" xlink:href="#ap"/><use transform="matrix(0.009114583333333334,0,0,0.009114583333333334,40.5234375,0)" xlink:href="#al"/><use transform="matrix(0.009114583333333334,0,0,0.009114583333333334,50.99609375,0)" xlink:href="#aw"/><use transform="matrix(0.009114583333333334,0,0,0.009114583333333334,59.88281250000001,0)" xlink:href="#at"/><use transform="matrix(0.009114583333333334,0,0,0.009114583333333334,66.47265625,0)" xlink:href="#al"/><use transform="matrix(0.009114583333333334,0,0,0.009114583333333334,76.9453125,0)" xlink:href="#at"/><use transform="matrix(0.009114583333333334,0,0,0.009114583333333334,83.53515625,0)" xlink:href="#aq"/><use transform="matrix(0.009114583333333334,0,0,0.009114583333333334,94.9921875,0)" xlink:href="#ak"/><use transform="matrix(0.009114583333333334,0,0,0.009114583333333334,102.61197916666667,0)" xlink:href="#aF"/></g><g id="W"><use transform="matrix(0.009114583333333334,0,0,0.009114583333333334,0,0)" xlink:href="#au"/><use transform="matrix(0.009114583333333334,0,0,0.009114583333333334,10.381510416666668,0)" xlink:href="#ar"/><use transform="matrix(0.009114583333333334,0,0,0.009114583333333334,21.8203125,0)" xlink:href="#an"/><use transform="matrix(0.009114583333333334,0,0,0.009114583333333334,26.541666666666668,0)" xlink:href="#ao"/><use transform="matrix(0.009114583333333334,0,0,0.009114583333333334,37.98046875,0)" xlink:href="#an"/><use transform="matrix(0.009114583333333334,0,0,0.009114583333333334,42.701822916666664,0)" xlink:href="#ap"/><use transform="matrix(0.009114583333333334,0,0,0.009114583333333334,51.60677083333333,0)" xlink:href="#aw"/><use transform="matrix(0.009114583333333334,0,0,0.009114583333333334,60.49348958333333,0)" xlink:href="#an"/></g><g id="X"><use transform="matrix(0.009114583333333334,0,0,0.009114583333333334,0,0)" xlink:href="#av"/><use transform="matrix(0.009114583333333334,0,0,0.009114583333333334,9.3515625,0)" xlink:href="#al"/><use transform="matrix(0.009114583333333334,0,0,0.009114583333333334,19.82421875,0)" xlink:href="#as"/><use transform="matrix(0.009114583333333334,0,0,0.009114583333333334,24.545572916666668,0)" xlink:href="#an"/><use transform="matrix(0.009114583333333334,0,0,0.009114583333333334,29.266927083333336,0)" xlink:href="#at"/><use transform="matrix(0.009114583333333334,0,0,0.009114583333333334,35.856770833333336,0)" xlink:href="#aF"/></g><g id="Y"><use transform="matrix(0.009114583333333334,0,0,0.009114583333333334,0,0)" xlink:href="#ap"/><use transform="matrix(0.009114583333333334,0,0,0.009114583333333334,8.904947916666668,0)" xlink:href="#al"/><use transform="matrix(0.009114583333333334,0,0,0.009114583333333334,19.377604166666668,0)" xlink:href="#ar"/></g><g id="Z"><use transform="matrix(0.009114583333333334,0,0,0.009114583333333334,0,0)" xlink:href="#aA"/><use transform="matrix(0.009114583333333334,0,0,0.009114583333333334,11.438802083333334,0)" xlink:href="#aq"/><use transform="matrix(0.009114583333333334,0,0,0.009114583333333334,22.895833333333336,0)" xlink:href="#an"/><use transform="matrix(0.009114583333333334,0,0,0.009114583333333334,27.6171875,0)" xlink:href="#au"/></g><g id="aa"><use transform="matrix(0.009114583333333334,0,0,0.009114583333333334,0,0)" xlink:href="#az"/><use transform="matrix(0.009114583333333334,0,0,0.009114583333333334,11.45703125,0)" xlink:href="#an"/><use transform="matrix(0.009114583333333334,0,0,0.009114583333333334,16.178385416666668,0)" xlink:href="#ap"/><use transform="matrix(0.009114583333333334,0,0,0.009114583333333334,25.083333333333336,0)" xlink:href="#an"/></g><g id="ab"><use transform="matrix(0.009114583333333334,0,0,0.009114583333333334,0,0)" xlink:href="#aq"/><use transform="matrix(0.009114583333333334,0,0,0.009114583333333334,11.45703125,0)" xlink:href="#at"/></g><g id="ac"><use transform="matrix(0.009114583333333334,0,0,0.009114583333333334,0,0)" xlink:href="#au"/><use transform="matrix(0.009114583333333334,0,0,0.009114583333333334,10.381510416666668,0)" xlink:href="#as"/><use transform="matrix(0.009114583333333334,0,0,0.009114583333333334,15.102864583333336,0)" xlink:href="#an"/><use transform="matrix(0.009114583333333334,0,0,0.009114583333333334,19.824218750000007,0)" xlink:href="#aA"/><use transform="matrix(0.009114583333333334,0,0,0.009114583333333334,31.263020833333336,0)" xlink:href="#aq"/><use transform="matrix(0.009114583333333334,0,0,0.009114583333333334,42.720052083333336,0)" xlink:href="#an"/><use transform="matrix(0.009114583333333334,0,0,0.009114583333333334,47.44140625,0)" xlink:href="#ar"/></g><g id="ad"><use transform="matrix(0.009114583333333334,0,0,0.009114583333333334,0,0)" xlink:href="#al"/><use transform="matrix(0.009114583333333334,0,0,0.009114583333333334,10.098958333333334,0)" xlink:href="#aC"/></g><g id="ae"><use transform="matrix(0.009114583333333334,0,0,0.009114583333333334,0,0)" xlink:href="#al"/><use transform="matrix(0.009114583333333334,0,0,0.009114583333333334,10.47265625,0)" xlink:href="#au"/></g><g id="af"><use transform="matrix(0.009114583333333334,0,0,0.009114583333333334,0,0)" xlink:href="#aw"/><use transform="matrix(0.009114583333333334,0,0,0.009114583333333334,8.88671875,0)" xlink:href="#aj"/><use transform="matrix(0.009114583333333334,0,0,0.009114583333333334,20.161458333333336,0)" xlink:href="#am"/><use transform="matrix(0.009114583333333334,0,0,0.009114583333333334,37.524739583333336,0)" xlink:href="#am"/><use transform="matrix(0.009114583333333334,0,0,0.009114583333333334,54.888020833333336,0)" xlink:href="#aj"/><use transform="matrix(0.009114583333333334,0,0,0.009114583333333334,66.16276041666667,0)" xlink:href="#ar"/><use transform="matrix(0.009114583333333334,0,0,0.009114583333333334,77.6015625,0)" xlink:href="#an"/></g><g id="ag"><use transform="matrix(0.009114583333333334,0,0,0.009114583333333334,0,0)" xlink:href="#aw"/><use transform="matrix(0.009114583333333334,0,0,0.009114583333333334,8.88671875,0)" xlink:href="#aj"/><use transform="matrix(0.009114583333333334,0,0,0.009114583333333334,20.161458333333336,0)" xlink:href="#az"/><use transform="matrix(0.009114583333333334,0,0,0.009114583333333334,31.618489583333336,0)" xlink:href="#ap"/><use transform="matrix(0.009114583333333334,0,0,0.009114583333333334,40.5234375,0)" xlink:href="#al"/><use transform="matrix(0.009114583333333334,0,0,0.009114583333333334,50.99609375,0)" xlink:href="#aA"/><use transform="matrix(0.009114583333333334,0,0,0.009114583333333334,62.434895833333336,0)" xlink:href="#aq"/><use transform="matrix(0.009114583333333334,0,0,0.009114583333333334,73.89192708333334,0)" xlink:href="#au"/><use transform="matrix(0.009114583333333334,0,0,0.009114583333333334,84.27343750000003,0)" xlink:href="#at"/><use transform="matrix(0.009114583333333334,0,0,0.009114583333333334,90.86328125000003,0)" xlink:href="#aq"/><use transform="matrix(0.009114583333333334,0,0,0.009114583333333334,102.3203125,0)" xlink:href="#ak"/></g><g id="ah"><use transform="matrix(0.009114583333333334,0,0,0.009114583333333334,0,0)" xlink:href="#ar"/><use transform="matrix(0.009114583333333334,0,0,0.009114583333333334,11.438802083333334,0)" xlink:href="#aj"/><use transform="matrix(0.009114583333333334,0,0,0.009114583333333334,22.713541666666668,0)" xlink:href="#as"/><use transform="matrix(0.009114583333333334,0,0,0.009114583333333334,27.434895833333336,0)" xlink:href="#aj"/><use transform="matrix(0.009114583333333334,0,0,0.009114583333333334,38.70963541666667,0)" xlink:href="#ak"/></g></defs></g></svg>