<svg xmlns="http://www.w3.org/2000/svg" xmlns:xlink="http://www.w3.org/1999/xlink" version="1.1" viewBox="0 0 2608 2158" style="background: #ffffff"><g id="v-3"  transform="matrix(1,0,0,1,0,0)"><g id="j_26"    transform="translate(20,2113)"><g id="v-432"><text  id="v-433" font-size="22px" y="0.8em" xml:space="preserve" font-weight="normal" text-anchor="start" fill="#aaaaaa" pointer-events="none" font-family="Open Sans" transform="matrix(1,0,0,1,0,0)" display="block"><tspan id="v-434"  dy="0em" x="0">Friday, February 17, 2023 at 10:42 AM Central European Standard Time</tspan></text></g></g><g id="j_25"    transform="translate(20,2067)"><g id="v-428"><text  id="v-429" font-size="36px" y="0.8em" xml:space="preserve" font-weight="normal" text-anchor="start" fill="#000000" pointer-events="none" font-family="Open Sans" transform="matrix(1,0,0,1,0,0)" display="block"><tspan id="v-430"  dy="0em" x="0">[Container] Observability</tspan></text></g></g><g id="j_13"    transform="translate(309,272)" style=""><g id="v-197"><rect  id="v-198" width="1990" height="1613" rx="0" ry="0" fill="#ffffff" stroke="#666666" stroke-width="8" stroke-dasharray="20,20" pointer-events="none"></rect><text  id="v-199" font-size="24px" y="1574" xml:space="preserve" font-weight="normal" fill="#666666" x="10" text-anchor="start" pointer-events="visible" font-family="Open Sans" transform="matrix(1,0,0,1,15,0)"><tspan id="v-202"  dy="0em" x="0">Observability</tspan></text><text  id="v-200" font-size="19px" y="1598" xml:space="preserve" font-weight="normal" fill="#666666" x="10" text-anchor="start" pointer-events="visible" font-family="Open Sans" transform="matrix(1,0,0,1,15,0)"><tspan id="v-203"  dy="0em" x="0">[Software System]</tspan></text><image  id="v-201" pointer-events="visible"></image></g></g><g id="j_14"    transform="translate(1079,292)" style="" ><g  id="v-209" style="opacity: 1;"><rect  id="v-210" rx="1" ry="1" stroke="#666666" stroke-width="8" pointer-events="visiblePainted" fill="#f5f5f5" width="450" height="300" style="fill: rgb(245, 245, 245); stroke: rgb(102, 102, 102);"></rect><text  id="v-211" font-size="34" y="0.8em" xml:space="preserve" font-weight="bold" text-anchor="middle" pointer-events="visible" font-family="Open Sans" fill="#000000" transform="matrix(1,0,0,1,225,60)" style="fill: rgb(0, 0, 0);"><tspan id="v-216"  dy="0em" x="0">OpenTelemetry Collector</tspan></text><text  id="v-212" font-size="19" y="0.8em" xml:space="preserve" text-anchor="middle" font-family="Open Sans" fill="#000000" transform="matrix(1,0,0,1,225,102.5)" style="fill: rgb(0, 0, 0);"><tspan id="v-217"  dy="0em" x="0">[Container]</tspan></text><text  id="v-213" font-size="24" y="0.8em" xml:space="preserve" text-anchor="middle" font-family="Open Sans" fill="#000000" transform="matrix(1,0,0,1,225,150)" style="fill: rgb(0, 0, 0);"><tspan id="v-218"  dy="0em" x="0">Vendor-agnostic implementation on</tspan><tspan id="v-219"  dy="1.2em" x="0">how to receive, process and export</tspan><tspan id="v-220"  dy="1.2em" x="0">telemetry data</tspan></text><text  id="v-214" font-weight="bold" text-anchor="middle" font-family="Open Sans" fill="#000000" font-size="24" transform="matrix(1,0,0,1,225,270)" y="0.8em" xml:space="preserve" display="none" style="fill: rgb(0, 0, 0);"><tspan id="v-221"  dy="0em" x="0">#</tspan></text><image  id="v-215"></image></g></g><g id="j_15"    transform="translate(329,892)" style="" ><g  id="v-225" style="opacity: 1;"><rect  id="v-226" rx="1" ry="1" stroke="#666666" stroke-width="8" pointer-events="visiblePainted" fill="#f5f5f5" width="450" height="300" style="fill: rgb(245, 245, 245); stroke: rgb(102, 102, 102);"></rect><text  id="v-227" font-size="34" y="0.8em" xml:space="preserve" font-weight="bold" text-anchor="middle" pointer-events="visible" font-family="Open Sans" fill="#000000" transform="matrix(1,0,0,1,225,45)" style="fill: rgb(0, 0, 0);"><tspan id="v-232"  dy="0em" x="0">Jaeger</tspan></text><text  id="v-228" font-size="19" y="0.8em" xml:space="preserve" text-anchor="middle" font-family="Open Sans" fill="#000000" transform="matrix(1,0,0,1,225,87.5)" style="fill: rgb(0, 0, 0);"><tspan id="v-233"  dy="0em" x="0">[Container]</tspan></text><text  id="v-229" font-size="24" y="0.8em" xml:space="preserve" text-anchor="middle" font-family="Open Sans" fill="#000000" transform="matrix(1,0,0,1,225,135)" style="fill: rgb(0, 0, 0);"><tspan id="v-234"  dy="0em" x="0">Open source, end-to-end distributed</tspan><tspan id="v-235"  dy="1.2em" x="0">tracing. Monitor and troubleshoot</tspan><tspan id="v-236"  dy="1.2em" x="0">transactions in complex distributed</tspan><tspan id="v-237"  dy="1.2em" x="0">systems.</tspan></text><text  id="v-230" font-weight="bold" text-anchor="middle" font-family="Open Sans" fill="#000000" font-size="24" transform="matrix(1,0,0,1,225,270)" y="0.8em" xml:space="preserve" display="none" style="fill: rgb(0, 0, 0);"><tspan id="v-238"  dy="0em" x="0">#</tspan></text><image  id="v-231"></image></g></g><g id="j_16"    transform="translate(1079,1492)" style="" ><g  id="v-242" style="opacity: 1;"><rect  id="v-243" rx="10" ry="10" stroke="#666666" stroke-width="2" pointer-events="visiblePainted" fill="#666666" width="450" height="300" style="fill: rgb(102, 102, 102); stroke: rgb(102, 102, 102);"></rect><rect  id="v-244" rx="10" ry="10" stroke="#666666" stroke-width="0" pointer-events="visiblePainted" fill="#f5f5f5" width="430" height="250" x="10" y="40" style="fill: rgb(245, 245, 245);"></rect><ellipse  id="v-251" fill="#f5f5f5" cx="20" cy="20" rx="10" ry="10" style="fill: rgb(245, 245, 245);"></ellipse><ellipse  id="v-252" fill="#f5f5f5" cx="50" cy="20" rx="10" ry="10" style="fill: rgb(245, 245, 245);"></ellipse><ellipse  id="v-253" fill="#f5f5f5" cx="80" cy="20" rx="10" ry="10" style="fill: rgb(245, 245, 245);"></ellipse><rect  id="v-245" rx="10" ry="10" stroke="#444444" stroke-width="0" pointer-events="visiblePainted" fill="#f5f5f5" width="340" height="20" x="100" y="10" style="fill: rgb(245, 245, 245);"></rect><text  id="v-246" font-size="34" y="0.8em" xml:space="preserve" font-weight="bold" text-anchor="middle" pointer-events="visible" font-family="Open Sans" fill="#000000" transform="matrix(1,0,0,1,225,95)" style="fill: rgb(0, 0, 0);"><tspan id="v-254"  dy="0em" x="0">Grafana</tspan></text><text  id="v-247" font-size="19" y="0.8em" xml:space="preserve" text-anchor="middle" font-family="Open Sans" fill="#000000" transform="matrix(1,0,0,1,225,137.5)" style="fill: rgb(0, 0, 0);"><tspan id="v-255"  dy="0em" x="0">[Container]</tspan></text><text  id="v-248" font-size="24" y="0.8em" xml:space="preserve" text-anchor="middle" font-family="Open Sans" fill="#000000" transform="matrix(1,0,0,1,225,185)" style="fill: rgb(0, 0, 0);"><tspan id="v-256"  dy="0em" x="0">Operational dashboards for your</tspan><tspan id="v-257"  dy="1.2em" x="0">data here, there, or anywhere.</tspan></text><text  id="v-249" font-weight="bold" text-anchor="middle" font-family="Open Sans" fill="#000000" font-size="24" transform="matrix(1,0,0,1,225,270)" y="0.8em" xml:space="preserve" display="none" style="fill: rgb(0, 0, 0);"><tspan id="v-258"  dy="0em" x="0">#</tspan></text><image  id="v-250"></image></g></g><g id="j_17"    transform="translate(1079,892)" style="" ><g  id="v-262" style="opacity: 1;"><rect  id="v-263" rx="1" ry="1" stroke="#666666" stroke-width="8" pointer-events="visiblePainted" fill="#f5f5f5" width="450" height="300" style="fill: rgb(245, 245, 245); stroke: rgb(102, 102, 102);"></rect><text  id="v-264" font-size="34" y="0.8em" xml:space="preserve" font-weight="bold" text-anchor="middle" pointer-events="visible" font-family="Open Sans" fill="#000000" transform="matrix(1,0,0,1,225,60)" style="fill: rgb(0, 0, 0);"><tspan id="v-269"  dy="0em" x="0">Loki</tspan></text><text  id="v-265" font-size="19" y="0.8em" xml:space="preserve" text-anchor="middle" font-family="Open Sans" fill="#000000" transform="matrix(1,0,0,1,225,102.5)" style="fill: rgb(0, 0, 0);"><tspan id="v-270"  dy="0em" x="0">[Container]</tspan></text><text  id="v-266" font-size="24" y="0.8em" xml:space="preserve" text-anchor="middle" font-family="Open Sans" fill="#000000" transform="matrix(1,0,0,1,225,150)" style="fill: rgb(0, 0, 0);"><tspan id="v-271"  dy="0em" x="0">Horizontally-scalable, highly</tspan><tspan id="v-272"  dy="1.2em" x="0">available, multi-tenant log</tspan><tspan id="v-273"  dy="1.2em" x="0">aggregation system.</tspan></text><text  id="v-267" font-weight="bold" text-anchor="middle" font-family="Open Sans" fill="#000000" font-size="24" transform="matrix(1,0,0,1,225,270)" y="0.8em" xml:space="preserve" display="none" style="fill: rgb(0, 0, 0);"><tspan id="v-274"  dy="0em" x="0">#</tspan></text><image  id="v-268"></image></g></g><g id="j_18"    transform="translate(1829,892)" style="" ><g  id="v-278" style="opacity: 1;"><rect  id="v-279" rx="1" ry="1" stroke="#666666" stroke-width="8" pointer-events="visiblePainted" fill="#f5f5f5" width="450" height="300" style="fill: rgb(245, 245, 245); stroke: rgb(102, 102, 102);"></rect><text  id="v-280" font-size="34" y="0.8em" xml:space="preserve" font-weight="bold" text-anchor="middle" pointer-events="visible" font-family="Open Sans" fill="#000000" transform="matrix(1,0,0,1,225,60)" style="fill: rgb(0, 0, 0);"><tspan id="v-285"  dy="0em" x="0">Prometheus</tspan></text><text  id="v-281" font-size="19" y="0.8em" xml:space="preserve" text-anchor="middle" font-family="Open Sans" fill="#000000" transform="matrix(1,0,0,1,225,102.5)" style="fill: rgb(0, 0, 0);"><tspan id="v-286"  dy="0em" x="0">[Container]</tspan></text><text  id="v-282" font-size="24" y="0.8em" xml:space="preserve" text-anchor="middle" font-family="Open Sans" fill="#000000" transform="matrix(1,0,0,1,225,150)" style="fill: rgb(0, 0, 0);"><tspan id="v-287"  dy="0em" x="0">From metrics to insight. Power your</tspan><tspan id="v-288"  dy="1.2em" x="0">metrics and alerting with a leading</tspan><tspan id="v-289"  dy="1.2em" x="0">open-source  solution.</tspan></text><text  id="v-283" font-weight="bold" text-anchor="middle" font-family="Open Sans" fill="#000000" font-size="24" transform="matrix(1,0,0,1,225,270)" y="0.8em" xml:space="preserve" display="none" style="fill: rgb(0, 0, 0);"><tspan id="v-290"  dy="0em" x="0">#</tspan></text><image  id="v-284"></image></g></g><g id="j_19"   ><path  stroke="#707070" id="v-308" stroke-width="2" stroke-dasharray="30 30" fill="none" d="M 1867 1192 1508 1480" style="opacity: 1;"></path><path  fill="black" stroke="black" transform="translate(1867,1192) scale(1,1) rotate(-218.65980529785156)"></path><path  fill="#707070" stroke="#707070" id="v-310" d="M 20 0 L 0 10 L 20 20 z" transform="translate(1485.7530772269386,1484.191314349521) scale(1,1) rotate(-38.65980911254882)" style="opacity: 1;"></path><path  id="v-309" fill="none" d="M 1867 1192 1508 1480" style=""></path><title ></title><g ><g  id="v-296" label-idx="0" cursor="move" transform="translate(1687.5, 1336)" style="opacity: 1;"><rect id="v-298" fill="#ffffff" rx="3" ry="3" stroke="#ffffff" stroke-width="20px" pointer-events="none" width="56.451942443847656" height="32.96903419494629" transform="matrix(1,0,0,1,-29.2,-16.5)"></rect><text id="v-297" font-size="24px" y="0.8em" xml:space="preserve" text-anchor="middle" pointer-events="none" fill="#707070" font-family="Open Sans" font-weight="normal" transform="matrix(1,0,0,1,0,-9.8)"><tspan id="v-299"  dy="0em" x="0">fuels</tspan></text></g><g  id="v-300" label-idx="1" cursor="move" transform="translate(1687.5, 1367.2)" style="opacity: 1;"><rect id="v-302" fill="#ffffff" rx="3" ry="3" pointer-events="none" width="0" height="0" transform="matrix(1,0,0,1,0,0)"></rect><text id="v-301" font-size="19px" y="0.8em" display="none" xml:space="preserve" text-anchor="middle" pointer-events="none" fill="#707070" font-family="Open Sans" font-weight="normal" transform="matrix(1,0,0,1,0,0)"><tspan id="v-303"  dy="0em" x="0" style="fill-opacity: 0; stroke-opacity: 0;">-</tspan></text></g><g  id="v-304" label-idx="2" cursor="move" transform="translate(1687.5, 1391.2)" style="opacity: 1;"><rect id="v-306" fill="#ffffff" rx="3" ry="3" pointer-events="none"  display="none" width="0" height="0" transform="matrix(1,0,0,1,0,0)"></rect><text id="v-305" font-size="19px" y="0.8em" display="none" xml:space="preserve" text-anchor="middle" pointer-events="none" fill="#707070" font-family="Open Sans" font-weight="normal"  transform="matrix(1,0,0,1,0,0)"><tspan id="v-307"  dy="0em" x="0" style="fill-opacity: 0; stroke-opacity: 0;">-</tspan></text></g></g><g  display="none"></g><g  id="v-312" display="none"><g  id="v-293"><path  end="source" d="M 26 0 L 0 13 L 26 26 z"></path></g><g  id="v-294"><path  end="target" d="M 26 0 L 0 13 L 26 26 z"></path></g></g><g  id="v-311" display="none"><g  id="v-292" transform="translate(1835.7991943359375, 1217.0301513671875) "><g  event="remove"><circle r="11"></circle><path transform="scale(.8) translate(-16, -16)" d="M24.778,21.419 19.276,15.917 24.777,10.415 21.949,7.585 16.447,13.087 10.945,7.585 8.117,10.415 13.618,15.917 8.116,21.419 10.946,24.248 16.447,18.746 21.948,24.248z"></path><title>Remove link.</title></g><g  event="link:options"><circle r="11" transform="translate(25)"></circle><path fill="white" transform="scale(.55) translate(29, -16)" d="M31.229,17.736c0.064-0.571,0.104-1.148,0.104-1.736s-0.04-1.166-0.104-1.737l-4.377-1.557c-0.218-0.716-0.504-1.401-0.851-2.05l1.993-4.192c-0.725-0.91-1.549-1.734-2.458-2.459l-4.193,1.994c-0.647-0.347-1.334-0.632-2.049-0.849l-1.558-4.378C17.165,0.708,16.588,0.667,16,0.667s-1.166,0.041-1.737,0.105L12.707,5.15c-0.716,0.217-1.401,0.502-2.05,0.849L6.464,4.005C5.554,4.73,4.73,5.554,4.005,6.464l1.994,4.192c-0.347,0.648-0.632,1.334-0.849,2.05l-4.378,1.557C0.708,14.834,0.667,15.412,0.667,16s0.041,1.165,0.105,1.736l4.378,1.558c0.217,0.715,0.502,1.401,0.849,2.049l-1.994,4.193c0.725,0.909,1.549,1.733,2.459,2.458l4.192-1.993c0.648,0.347,1.334,0.633,2.05,0.851l1.557,4.377c0.571,0.064,1.148,0.104,1.737,0.104c0.588,0,1.165-0.04,1.736-0.104l1.558-4.377c0.715-0.218,1.399-0.504,2.049-0.851l4.193,1.993c0.909-0.725,1.733-1.549,2.458-2.458l-1.993-4.193c0.347-0.647,0.633-1.334,0.851-2.049L31.229,17.736zM16,20.871c-2.69,0-4.872-2.182-4.872-4.871c0-2.69,2.182-4.872,4.872-4.872c2.689,0,4.871,2.182,4.871,4.872C20.871,18.689,18.689,20.871,16,20.871z"></path><title>Link options.</title></g></g></g></g><g id="j_20"   ><path  stroke="#707070" id="v-330" stroke-width="2" stroke-dasharray="30 30" fill="none" d="M 742 1192 1101 1480" style="opacity: 1;"></path><path  fill="black" stroke="black" transform="translate(742,1192) scale(1,1) rotate(38.659820556640625)"></path><path  fill="#707070" stroke="#707070" id="v-332" d="M 20 0 L 0 10 L 20 20 z" transform="translate(1110.7530225237897,1499.8086902472076) scale(1,1) rotate(-141.34019470214844)" style="opacity: 1;"></path><path  id="v-331" fill="none" d="M 742 1192 1101 1480" style=""></path><title ></title><g ><g  id="v-318" label-idx="0" cursor="move" transform="translate(921.5, 1336)" style="opacity: 1;"><rect id="v-320" fill="#ffffff" rx="3" ry="3" stroke="#ffffff" stroke-width="20px" pointer-events="none" width="56.451942443847656" height="32.96903419494629" transform="matrix(1,0,0,1,-29.2,-16.5)"></rect><text id="v-319" font-size="24px" y="0.8em" xml:space="preserve" text-anchor="middle" pointer-events="none" fill="#707070" font-family="Open Sans" font-weight="normal" transform="matrix(1,0,0,1,0,-9.8)"><tspan id="v-321"  dy="0em" x="0">fuels</tspan></text></g><g  id="v-322" label-idx="1" cursor="move" transform="translate(921.5, 1367.2)" style="opacity: 1;"><rect id="v-324" fill="#ffffff" rx="3" ry="3" pointer-events="none" width="0" height="0" transform="matrix(1,0,0,1,0,0)"></rect><text id="v-323" font-size="19px" y="0.8em" display="none" xml:space="preserve" text-anchor="middle" pointer-events="none" fill="#707070" font-family="Open Sans" font-weight="normal" transform="matrix(1,0,0,1,0,0)"><tspan id="v-325"  dy="0em" x="0" style="fill-opacity: 0; stroke-opacity: 0;">-</tspan></text></g><g  id="v-326" label-idx="2" cursor="move" transform="translate(921.5, 1391.2)" style="opacity: 1;"><rect id="v-328" fill="#ffffff" rx="3" ry="3" pointer-events="none"  display="none" width="0" height="0" transform="matrix(1,0,0,1,0,0)"></rect><text id="v-327" font-size="19px" y="0.8em" display="none" xml:space="preserve" text-anchor="middle" pointer-events="none" fill="#707070" font-family="Open Sans" font-weight="normal"  transform="matrix(1,0,0,1,0,0)"><tspan id="v-329"  dy="0em" x="0" style="fill-opacity: 0; stroke-opacity: 0;">-</tspan></text></g></g><g  display="none"></g><g  id="v-334" display="none"><g  id="v-315"><path  end="source" d="M 26 0 L 0 13 L 26 26 z"></path></g><g  id="v-316"><path  end="target" d="M 26 0 L 0 13 L 26 26 z"></path></g></g><g  id="v-333" display="none"><g  id="v-314" transform="translate(773.2008056640625, 1217.0301513671875) "><g  event="remove"><circle r="11"></circle><path transform="scale(.8) translate(-16, -16)" d="M24.778,21.419 19.276,15.917 24.777,10.415 21.949,7.585 16.447,13.087 10.945,7.585 8.117,10.415 13.618,15.917 8.116,21.419 10.946,24.248 16.447,18.746 21.948,24.248z"></path><title>Remove link.</title></g><g  event="link:options"><circle r="11" transform="translate(25)"></circle><path fill="white" transform="scale(.55) translate(29, -16)" d="M31.229,17.736c0.064-0.571,0.104-1.148,0.104-1.736s-0.04-1.166-0.104-1.737l-4.377-1.557c-0.218-0.716-0.504-1.401-0.851-2.05l1.993-4.192c-0.725-0.91-1.549-1.734-2.458-2.459l-4.193,1.994c-0.647-0.347-1.334-0.632-2.049-0.849l-1.558-4.378C17.165,0.708,16.588,0.667,16,0.667s-1.166,0.041-1.737,0.105L12.707,5.15c-0.716,0.217-1.401,0.502-2.05,0.849L6.464,4.005C5.554,4.73,4.73,5.554,4.005,6.464l1.994,4.192c-0.347,0.648-0.632,1.334-0.849,2.05l-4.378,1.557C0.708,14.834,0.667,15.412,0.667,16s0.041,1.165,0.105,1.736l4.378,1.558c0.217,0.715,0.502,1.401,0.849,2.049l-1.994,4.193c0.725,0.909,1.549,1.733,2.459,2.458l4.192-1.993c0.648,0.347,1.334,0.633,2.05,0.851l1.557,4.377c0.571,0.064,1.148,0.104,1.737,0.104c0.588,0,1.165-0.04,1.736-0.104l1.558-4.377c0.715-0.218,1.399-0.504,2.049-0.851l4.193,1.993c0.909-0.725,1.733-1.549,2.458-2.458l-1.993-4.193c0.347-0.647,0.633-1.334,0.851-2.049L31.229,17.736zM16,20.871c-2.69,0-4.872-2.182-4.872-4.871c0-2.69,2.182-4.872,4.872-4.872c2.689,0,4.871,2.182,4.871,4.872C20.871,18.689,18.689,20.871,16,20.871z"></path><title>Link options.</title></g></g></g></g><g id="j_21"   ><path  stroke="#707070" id="v-352" stroke-width="2" stroke-dasharray="30 30" fill="none" d="M 1304 1192 1304 1472" style="opacity: 1;"></path><path  fill="black" stroke="black" transform="translate(1304,1192) scale(1,1) rotate(-270)"></path><path  fill="#707070" stroke="#707070" id="v-354" d="M 20 0 L 0 10 L 20 20 z" transform="translate(1294,1492) scale(1,1) rotate(-90)" style="opacity: 1;"></path><path  id="v-353" fill="none" d="M 1304 1192 1304 1472" style=""></path><title ></title><g ><g  id="v-340" label-idx="0" cursor="move" transform="translate(1304, 1332)" style="opacity: 1;"><rect id="v-342" fill="#ffffff" rx="3" ry="3" stroke="#ffffff" stroke-width="20px" pointer-events="none" width="56.451942443847656" height="32.96903419494629" transform="matrix(1,0,0,1,-29.2,-16.5)"></rect><text id="v-341" font-size="24px" y="0.8em" xml:space="preserve" text-anchor="middle" pointer-events="none" fill="#707070" font-family="Open Sans" font-weight="normal" transform="matrix(1,0,0,1,0,-9.8)"><tspan id="v-343"  dy="0em" x="0">fuels</tspan></text></g><g  id="v-344" label-idx="1" cursor="move" transform="translate(1304, 1363.2)" style="opacity: 1;"><rect id="v-346" fill="#ffffff" rx="3" ry="3" pointer-events="none" width="0" height="0" transform="matrix(1,0,0,1,0,0)"></rect><text id="v-345" font-size="19px" y="0.8em" display="none" xml:space="preserve" text-anchor="middle" pointer-events="none" fill="#707070" font-family="Open Sans" font-weight="normal" transform="matrix(1,0,0,1,0,0)"><tspan id="v-347"  dy="0em" x="0" style="fill-opacity: 0; stroke-opacity: 0;">-</tspan></text></g><g  id="v-348" label-idx="2" cursor="move" transform="translate(1304, 1387.2)" style="opacity: 1;"><rect id="v-350" fill="#ffffff" rx="3" ry="3" pointer-events="none"  display="none" width="0" height="0" transform="matrix(1,0,0,1,0,0)"></rect><text id="v-349" font-size="19px" y="0.8em" display="none" xml:space="preserve" text-anchor="middle" pointer-events="none" fill="#707070" font-family="Open Sans" font-weight="normal"  transform="matrix(1,0,0,1,0,0)"><tspan id="v-351"  dy="0em" x="0" style="fill-opacity: 0; stroke-opacity: 0;">-</tspan></text></g></g><g  display="none"></g><g  id="v-356" display="none"><g  id="v-337"><path  end="source" d="M 26 0 L 0 13 L 26 26 z"></path></g><g  id="v-338"><path  end="target" d="M 26 0 L 0 13 L 26 26 z"></path></g></g><g  id="v-355" display="none"><g  id="v-336" transform="translate(1304, 1232) "><g  event="remove"><circle r="11"></circle><path transform="scale(.8) translate(-16, -16)" d="M24.778,21.419 19.276,15.917 24.777,10.415 21.949,7.585 16.447,13.087 10.945,7.585 8.117,10.415 13.618,15.917 8.116,21.419 10.946,24.248 16.447,18.746 21.948,24.248z"></path><title>Remove link.</title></g><g  event="link:options"><circle r="11" transform="translate(25)"></circle><path fill="white" transform="scale(.55) translate(29, -16)" d="M31.229,17.736c0.064-0.571,0.104-1.148,0.104-1.736s-0.04-1.166-0.104-1.737l-4.377-1.557c-0.218-0.716-0.504-1.401-0.851-2.05l1.993-4.192c-0.725-0.91-1.549-1.734-2.458-2.459l-4.193,1.994c-0.647-0.347-1.334-0.632-2.049-0.849l-1.558-4.378C17.165,0.708,16.588,0.667,16,0.667s-1.166,0.041-1.737,0.105L12.707,5.15c-0.716,0.217-1.401,0.502-2.05,0.849L6.464,4.005C5.554,4.73,4.73,5.554,4.005,6.464l1.994,4.192c-0.347,0.648-0.632,1.334-0.849,2.05l-4.378,1.557C0.708,14.834,0.667,15.412,0.667,16s0.041,1.165,0.105,1.736l4.378,1.558c0.217,0.715,0.502,1.401,0.849,2.049l-1.994,4.193c0.725,0.909,1.549,1.733,2.459,2.458l4.192-1.993c0.648,0.347,1.334,0.633,2.05,0.851l1.557,4.377c0.571,0.064,1.148,0.104,1.737,0.104c0.588,0,1.165-0.04,1.736-0.104l1.558-4.377c0.715-0.218,1.399-0.504,2.049-0.851l4.193,1.993c0.909-0.725,1.733-1.549,2.458-2.458l-1.993-4.193c0.347-0.647,0.633-1.334,0.851-2.049L31.229,17.736zM16,20.871c-2.69,0-4.872-2.182-4.872-4.871c0-2.69,2.182-4.872,4.872-4.872c2.689,0,4.871,2.182,4.871,4.872C20.871,18.689,18.689,20.871,16,20.871z"></path><title>Link options.</title></g></g></g></g><g id="j_22"   ><path  stroke="#707070" id="v-374" stroke-width="2" stroke-dasharray="30 30" fill="none" d="M 1492 592 1851 880" style="opacity: 1;"></path><path  fill="black" stroke="black" transform="translate(1492,592) scale(1,1) rotate(38.659820556640625)"></path><path  fill="#707070" stroke="#707070" id="v-376" d="M 20 0 L 0 10 L 20 20 z" transform="translate(1860.7530225237897,899.8086902472074) scale(1,1) rotate(-141.34019470214844)" style="opacity: 1;"></path><path  id="v-375" fill="none" d="M 1492 592 1851 880" style=""></path><title ></title><g ><g  id="v-362" label-idx="0" cursor="move" transform="translate(1671.5, 736)" style="opacity: 1;"><rect id="v-364" fill="#ffffff" rx="3" ry="3" stroke="#ffffff" stroke-width="20px" pointer-events="none" width="114.17736053466797" height="32.96903419494629" transform="matrix(1,0,0,1,-57.1,-16.5)"></rect><text id="v-363" font-size="24px" y="0.8em" xml:space="preserve" text-anchor="middle" pointer-events="none" fill="#707070" font-family="Open Sans" font-weight="normal" transform="matrix(1,0,0,1,0,-9.8)"><tspan id="v-365"  dy="0em" x="0">exports to</tspan></text></g><g  id="v-366" label-idx="1" cursor="move" transform="translate(1671.5, 767.2)" style="opacity: 1;"><rect id="v-368" fill="#ffffff" rx="3" ry="3" pointer-events="none" width="0" height="0" transform="matrix(1,0,0,1,0,0)"></rect><text id="v-367" font-size="19px" y="0.8em" display="none" xml:space="preserve" text-anchor="middle" pointer-events="none" fill="#707070" font-family="Open Sans" font-weight="normal" transform="matrix(1,0,0,1,0,0)"><tspan id="v-369"  dy="0em" x="0" style="fill-opacity: 0; stroke-opacity: 0;">-</tspan></text></g><g  id="v-370" label-idx="2" cursor="move" transform="translate(1671.5, 791.2)" style="opacity: 1;"><rect id="v-372" fill="#ffffff" rx="3" ry="3" pointer-events="none"  display="none" width="0" height="0" transform="matrix(1,0,0,1,0,0)"></rect><text id="v-371" font-size="19px" y="0.8em" display="none" xml:space="preserve" text-anchor="middle" pointer-events="none" fill="#707070" font-family="Open Sans" font-weight="normal"  transform="matrix(1,0,0,1,0,0)"><tspan id="v-373"  dy="0em" x="0" style="fill-opacity: 0; stroke-opacity: 0;">-</tspan></text></g></g><g  display="none"></g><g  id="v-378" display="none"><g  id="v-359"><path  end="source" d="M 26 0 L 0 13 L 26 26 z"></path></g><g  id="v-360"><path  end="target" d="M 26 0 L 0 13 L 26 26 z"></path></g></g><g  id="v-377" display="none"><g  id="v-358" transform="translate(1523.2008056640625, 617.0301513671875) "><g  event="remove"><circle r="11"></circle><path transform="scale(.8) translate(-16, -16)" d="M24.778,21.419 19.276,15.917 24.777,10.415 21.949,7.585 16.447,13.087 10.945,7.585 8.117,10.415 13.618,15.917 8.116,21.419 10.946,24.248 16.447,18.746 21.948,24.248z"></path><title>Remove link.</title></g><g  event="link:options"><circle r="11" transform="translate(25)"></circle><path fill="white" transform="scale(.55) translate(29, -16)" d="M31.229,17.736c0.064-0.571,0.104-1.148,0.104-1.736s-0.04-1.166-0.104-1.737l-4.377-1.557c-0.218-0.716-0.504-1.401-0.851-2.05l1.993-4.192c-0.725-0.91-1.549-1.734-2.458-2.459l-4.193,1.994c-0.647-0.347-1.334-0.632-2.049-0.849l-1.558-4.378C17.165,0.708,16.588,0.667,16,0.667s-1.166,0.041-1.737,0.105L12.707,5.15c-0.716,0.217-1.401,0.502-2.05,0.849L6.464,4.005C5.554,4.73,4.73,5.554,4.005,6.464l1.994,4.192c-0.347,0.648-0.632,1.334-0.849,2.05l-4.378,1.557C0.708,14.834,0.667,15.412,0.667,16s0.041,1.165,0.105,1.736l4.378,1.558c0.217,0.715,0.502,1.401,0.849,2.049l-1.994,4.193c0.725,0.909,1.549,1.733,2.459,2.458l4.192-1.993c0.648,0.347,1.334,0.633,2.05,0.851l1.557,4.377c0.571,0.064,1.148,0.104,1.737,0.104c0.588,0,1.165-0.04,1.736-0.104l1.558-4.377c0.715-0.218,1.399-0.504,2.049-0.851l4.193,1.993c0.909-0.725,1.733-1.549,2.458-2.458l-1.993-4.193c0.347-0.647,0.633-1.334,0.851-2.049L31.229,17.736zM16,20.871c-2.69,0-4.872-2.182-4.872-4.871c0-2.69,2.182-4.872,4.872-4.872c2.689,0,4.871,2.182,4.871,4.872C20.871,18.689,18.689,20.871,16,20.871z"></path><title>Link options.</title></g></g></g></g><g id="j_23"   ><path  stroke="#707070" id="v-396" stroke-width="2" stroke-dasharray="30 30" fill="none" d="M 1117 592 758 880" style="opacity: 1;"></path><path  fill="black" stroke="black" transform="translate(1117,592) scale(1,1) rotate(-218.65980529785156)"></path><path  fill="#707070" stroke="#707070" id="v-398" d="M 20 0 L 0 10 L 20 20 z" transform="translate(735.7530772269386,884.1913143495211) scale(1,1) rotate(-38.65980911254882)" style="opacity: 1;"></path><path  id="v-397" fill="none" d="M 1117 592 758 880" style=""></path><title ></title><g ><g  id="v-384" label-idx="0" cursor="move" transform="translate(937.5, 736)" style="opacity: 1;"><rect id="v-386" fill="#ffffff" rx="3" ry="3" stroke="#ffffff" stroke-width="20px" pointer-events="none" width="114.17736053466797" height="32.96903419494629" transform="matrix(1,0,0,1,-57.1,-16.5)"></rect><text id="v-385" font-size="24px" y="0.8em" xml:space="preserve" text-anchor="middle" pointer-events="none" fill="#707070" font-family="Open Sans" font-weight="normal" transform="matrix(1,0,0,1,0,-9.8)"><tspan id="v-387"  dy="0em" x="0">exports to</tspan></text></g><g  id="v-388" label-idx="1" cursor="move" transform="translate(937.5, 767.2)" style="opacity: 1;"><rect id="v-390" fill="#ffffff" rx="3" ry="3" pointer-events="none" width="0" height="0" transform="matrix(1,0,0,1,0,0)"></rect><text id="v-389" font-size="19px" y="0.8em" display="none" xml:space="preserve" text-anchor="middle" pointer-events="none" fill="#707070" font-family="Open Sans" font-weight="normal" transform="matrix(1,0,0,1,0,0)"><tspan id="v-391"  dy="0em" x="0" style="fill-opacity: 0; stroke-opacity: 0;">-</tspan></text></g><g  id="v-392" label-idx="2" cursor="move" transform="translate(937.5, 791.2)" style="opacity: 1;"><rect id="v-394" fill="#ffffff" rx="3" ry="3" pointer-events="none"  display="none" width="0" height="0" transform="matrix(1,0,0,1,0,0)"></rect><text id="v-393" font-size="19px" y="0.8em" display="none" xml:space="preserve" text-anchor="middle" pointer-events="none" fill="#707070" font-family="Open Sans" font-weight="normal"  transform="matrix(1,0,0,1,0,0)"><tspan id="v-395"  dy="0em" x="0" style="fill-opacity: 0; stroke-opacity: 0;">-</tspan></text></g></g><g  display="none"></g><g  id="v-400" display="none"><g  id="v-381"><path  end="source" d="M 26 0 L 0 13 L 26 26 z"></path></g><g  id="v-382"><path  end="target" d="M 26 0 L 0 13 L 26 26 z"></path></g></g><g  id="v-399" display="none"><g  id="v-380" transform="translate(1085.7991943359375, 617.0301513671875) "><g  event="remove"><circle r="11"></circle><path transform="scale(.8) translate(-16, -16)" d="M24.778,21.419 19.276,15.917 24.777,10.415 21.949,7.585 16.447,13.087 10.945,7.585 8.117,10.415 13.618,15.917 8.116,21.419 10.946,24.248 16.447,18.746 21.948,24.248z"></path><title>Remove link.</title></g><g  event="link:options"><circle r="11" transform="translate(25)"></circle><path fill="white" transform="scale(.55) translate(29, -16)" d="M31.229,17.736c0.064-0.571,0.104-1.148,0.104-1.736s-0.04-1.166-0.104-1.737l-4.377-1.557c-0.218-0.716-0.504-1.401-0.851-2.05l1.993-4.192c-0.725-0.91-1.549-1.734-2.458-2.459l-4.193,1.994c-0.647-0.347-1.334-0.632-2.049-0.849l-1.558-4.378C17.165,0.708,16.588,0.667,16,0.667s-1.166,0.041-1.737,0.105L12.707,5.15c-0.716,0.217-1.401,0.502-2.05,0.849L6.464,4.005C5.554,4.73,4.73,5.554,4.005,6.464l1.994,4.192c-0.347,0.648-0.632,1.334-0.849,2.05l-4.378,1.557C0.708,14.834,0.667,15.412,0.667,16s0.041,1.165,0.105,1.736l4.378,1.558c0.217,0.715,0.502,1.401,0.849,2.049l-1.994,4.193c0.725,0.909,1.549,1.733,2.459,2.458l4.192-1.993c0.648,0.347,1.334,0.633,2.05,0.851l1.557,4.377c0.571,0.064,1.148,0.104,1.737,0.104c0.588,0,1.165-0.04,1.736-0.104l1.558-4.377c0.715-0.218,1.399-0.504,2.049-0.851l4.193,1.993c0.909-0.725,1.733-1.549,2.458-2.458l-1.993-4.193c0.347-0.647,0.633-1.334,0.851-2.049L31.229,17.736zM16,20.871c-2.69,0-4.872-2.182-4.872-4.871c0-2.69,2.182-4.872,4.872-4.872c2.689,0,4.871,2.182,4.871,4.872C20.871,18.689,18.689,20.871,16,20.871z"></path><title>Link options.</title></g></g></g></g><g id="j_24"   ><path  stroke="#707070" id="v-418" stroke-width="2" stroke-dasharray="30 30" fill="none" d="M 1304 592 1304 872" style="opacity: 1;"></path><path  fill="black" stroke="black" transform="translate(1304,592) scale(1,1) rotate(-270)"></path><path  fill="#707070" stroke="#707070" id="v-420" d="M 20 0 L 0 10 L 20 20 z" transform="translate(1294,892) scale(1,1) rotate(-90)" style="opacity: 1;"></path><path  id="v-419" fill="none" d="M 1304 592 1304 872" style=""></path><title ></title><g ><g  id="v-406" label-idx="0" cursor="move" transform="translate(1304, 732)" style="opacity: 1;"><rect id="v-408" fill="#ffffff" rx="3" ry="3" stroke="#ffffff" stroke-width="20px" pointer-events="none" width="114.17736053466797" height="32.96903419494629" transform="matrix(1,0,0,1,-57.1,-16.5)"></rect><text id="v-407" font-size="24px" y="0.8em" xml:space="preserve" text-anchor="middle" pointer-events="none" fill="#707070" font-family="Open Sans" font-weight="normal" transform="matrix(1,0,0,1,0,-9.8)"><tspan id="v-409"  dy="0em" x="0">exports to</tspan></text></g><g  id="v-410" label-idx="1" cursor="move" transform="translate(1304, 763.2)" style="opacity: 1;"><rect id="v-412" fill="#ffffff" rx="3" ry="3" pointer-events="none" width="0" height="0" transform="matrix(1,0,0,1,0,0)"></rect><text id="v-411" font-size="19px" y="0.8em" display="none" xml:space="preserve" text-anchor="middle" pointer-events="none" fill="#707070" font-family="Open Sans" font-weight="normal" transform="matrix(1,0,0,1,0,0)"><tspan id="v-413"  dy="0em" x="0" style="fill-opacity: 0; stroke-opacity: 0;">-</tspan></text></g><g  id="v-414" label-idx="2" cursor="move" transform="translate(1304, 787.2)" style="opacity: 1;"><rect id="v-416" fill="#ffffff" rx="3" ry="3" pointer-events="none"  display="none" width="0" height="0" transform="matrix(1,0,0,1,0,0)"></rect><text id="v-415" font-size="19px" y="0.8em" display="none" xml:space="preserve" text-anchor="middle" pointer-events="none" fill="#707070" font-family="Open Sans" font-weight="normal"  transform="matrix(1,0,0,1,0,0)"><tspan id="v-417"  dy="0em" x="0" style="fill-opacity: 0; stroke-opacity: 0;">-</tspan></text></g></g><g  display="none"></g><g  id="v-422" display="none"><g  id="v-403"><path  end="source" d="M 26 0 L 0 13 L 26 26 z"></path></g><g  id="v-404"><path  end="target" d="M 26 0 L 0 13 L 26 26 z"></path></g></g><g  id="v-421" display="none"><g  id="v-402" transform="translate(1304, 632) "><g  event="remove"><circle r="11"></circle><path transform="scale(.8) translate(-16, -16)" d="M24.778,21.419 19.276,15.917 24.777,10.415 21.949,7.585 16.447,13.087 10.945,7.585 8.117,10.415 13.618,15.917 8.116,21.419 10.946,24.248 16.447,18.746 21.948,24.248z"></path><title>Remove link.</title></g><g  event="link:options"><circle r="11" transform="translate(25)"></circle><path fill="white" transform="scale(.55) translate(29, -16)" d="M31.229,17.736c0.064-0.571,0.104-1.148,0.104-1.736s-0.04-1.166-0.104-1.737l-4.377-1.557c-0.218-0.716-0.504-1.401-0.851-2.05l1.993-4.192c-0.725-0.91-1.549-1.734-2.458-2.459l-4.193,1.994c-0.647-0.347-1.334-0.632-2.049-0.849l-1.558-4.378C17.165,0.708,16.588,0.667,16,0.667s-1.166,0.041-1.737,0.105L12.707,5.15c-0.716,0.217-1.401,0.502-2.05,0.849L6.464,4.005C5.554,4.73,4.73,5.554,4.005,6.464l1.994,4.192c-0.347,0.648-0.632,1.334-0.849,2.05l-4.378,1.557C0.708,14.834,0.667,15.412,0.667,16s0.041,1.165,0.105,1.736l4.378,1.558c0.217,0.715,0.502,1.401,0.849,2.049l-1.994,4.193c0.725,0.909,1.549,1.733,2.459,2.458l4.192-1.993c0.648,0.347,1.334,0.633,2.05,0.851l1.557,4.377c0.571,0.064,1.148,0.104,1.737,0.104c0.588,0,1.165-0.04,1.736-0.104l1.558-4.377c0.715-0.218,1.399-0.504,2.049-0.851l4.193,1.993c0.909-0.725,1.733-1.549,2.458-2.458l-1.993-4.193c0.347-0.647,0.633-1.334,0.851-2.049L31.229,17.736zM16,20.871c-2.69,0-4.872-2.182-4.872-4.871c0-2.69,2.182-4.872,4.872-4.872c2.689,0,4.871,2.182,4.871,4.872C20.871,18.689,18.689,20.871,16,20.871z"></path><title>Link options.</title></g></g></g></g></g><defs id="v-4"></defs></svg>