<svg xmlns="http://www.w3.org/2000/svg" xmlns:xlink="http://www.w3.org/1999/xlink" version="1.1" viewBox="0 0 3155.0000481105526 1783.0000522708183" style="background: #ffffff"><g id="v-3"  transform="matrix(1,0,0,1,0,0)"><g id="j_17"    transform="translate(20,1738.0000522708183)"><g id="v-293"><text  id="v-294" font-size="22px" y="0.8em" xml:space="preserve" font-weight="normal" text-anchor="start" fill="#aaaaaa" pointer-events="none" font-family="Open Sans" transform="matrix(1,0,0,1,0,0)" display="block"><tspan id="v-295"  dy="0em" x="0">Thursday, January 12, 2023 at 11:26 AM Central European Standard Time</tspan></text></g></g><g id="j_16"    transform="translate(20,1692.0000522708183)"><g id="v-289"><text  id="v-290" font-size="36px" y="0.8em" xml:space="preserve" font-weight="normal" text-anchor="start" fill="#000000" pointer-events="none" font-family="Open Sans" transform="matrix(1,0,0,1,0,0)" display="block"><tspan id="v-291"  dy="0em" x="0">[Container] MILA</tspan></text></g></g><g id="j_1"    transform="translate(889,200)" style=""><g id="v-6"><rect  id="v-7" width="1325" height="1383" rx="0" ry="0" fill="#ffffff" stroke="#0c7cba" stroke-width="8" stroke-dasharray="20,20" pointer-events="none"></rect><text  id="v-8" font-size="24px" y="1344" xml:space="preserve" font-weight="normal" fill="#0c7cba" x="10" text-anchor="start" pointer-events="visible" font-family="Open Sans" transform="matrix(1,0,0,1,15,0)"><tspan id="v-11"  dy="0em" x="0">MILA</tspan></text><text  id="v-9" font-size="19px" y="1368" xml:space="preserve" font-weight="normal" fill="#0c7cba" x="10" text-anchor="start" pointer-events="visible" font-family="Open Sans" transform="matrix(1,0,0,1,15,0)"><tspan id="v-12"  dy="0em" x="0">[Software System]</tspan></text><image  id="v-10" pointer-events="visible"></image></g></g><g id="j_8"    transform="translate(1704,441)" style=""><g id="v-118"><rect  id="v-119" width="490" height="1049" rx="0" ry="0" fill="#ffffff" stroke="#cccccc" stroke-width="1" stroke-dasharray="5,5" pointer-events="none"></rect><text  id="v-120" font-size="24px" y="1034" xml:space="preserve" font-weight="normal" fill="#cccccc" x="10" text-anchor="start" pointer-events="visible" font-family="Open Sans" transform="matrix(1,0,0,1,15,0)"><tspan id="v-123"  dy="0em" x="0">Backend</tspan></text><text  id="v-121" font-size="19px" y="1034" display="none" xml:space="preserve" font-weight="normal" fill="#cccccc" x="10" text-anchor="start" pointer-events="visible" font-family="Open Sans" transform="matrix(1,0,0,1,15,0)"><tspan id="v-124"  dy="0em" x="0" style="fill-opacity: 0; stroke-opacity: 0;">-</tspan></text><image  id="v-122" pointer-events="visible"></image></g></g><g id="j_5"    transform="translate(909,220)" style=""><g id="v-67"><rect  id="v-68" width="490" height="994" rx="0" ry="0" fill="#ffffff" stroke="#cccccc" stroke-width="1" stroke-dasharray="5,5" pointer-events="none"></rect><text  id="v-69" font-size="24px" y="979" xml:space="preserve" font-weight="normal" fill="#cccccc" x="10" text-anchor="start" pointer-events="visible" font-family="Open Sans" transform="matrix(1,0,0,1,15,0)"><tspan id="v-72"  dy="0em" x="0">Frontend</tspan></text><text  id="v-70" font-size="19px" y="979" display="none" xml:space="preserve" font-weight="normal" fill="#cccccc" x="10" text-anchor="start" pointer-events="visible" font-family="Open Sans" transform="matrix(1,0,0,1,15,0)"><tspan id="v-73"  dy="0em" x="0" style="fill-opacity: 0; stroke-opacity: 0;">-</tspan></text><image  id="v-71" pointer-events="visible"></image></g></g><g id="j_2"    transform="translate(2505,1116)" style="" ><g  id="v-16" style="opacity: 1;"><rect  id="v-17" rx="1" ry="1" stroke="#666666" stroke-width="8" pointer-events="visiblePainted" fill="#f5f5f5" width="450" height="300" style="fill: rgb(245, 245, 245); stroke: rgb(102, 102, 102);"></rect><text  id="v-18" font-size="34" y="0.8em" xml:space="preserve" font-weight="bold" text-anchor="middle" pointer-events="visible" font-family="Open Sans" fill="#000000" transform="matrix(1,0,0,1,225,75)" style="fill: rgb(0, 0, 0);"><tspan id="v-23"  dy="0em" x="0">Icarus</tspan></text><text  id="v-19" font-size="19" y="0.8em" xml:space="preserve" text-anchor="middle" font-family="Open Sans" fill="#000000" transform="matrix(1,0,0,1,225,117.5)" style="fill: rgb(0, 0, 0);"><tspan id="v-24"  dy="0em" x="0">[Software System]</tspan></text><text  id="v-20" font-size="24" y="0.8em" xml:space="preserve" text-anchor="middle" font-family="Open Sans" fill="#000000" transform="matrix(1,0,0,1,225,165)" style="fill: rgb(0, 0, 0);"><tspan id="v-25"  dy="0em" x="0">Provides powerful facilities to work</tspan><tspan id="v-26"  dy="1.2em" x="0">with physics materials.</tspan></text><text  id="v-21" font-weight="bold" text-anchor="middle" font-family="Open Sans" fill="#000000" font-size="24" transform="matrix(1,0,0,1,225,270)" y="0.8em" xml:space="preserve" display="none" style="fill: rgb(0, 0, 0);"><tspan id="v-27"  dy="0em" x="0">#</tspan></text><image  id="v-22"></image></g></g><g id="j_3"    transform="translate(200,411)" style=""><g  id="v-33" style="opacity: 1;"><rect  x="0" y="160" width="400" height="240" rx="70" id="v-35" stroke="#834187" stroke-width="8" pointer-events="visiblePainted" fill="#f4d9ff" style="fill: rgb(244, 217, 255); stroke: rgb(131, 65, 135);"></rect><circle  cx="200" cy="88.88888888888889" r="88.88888888888889" id="v-34" stroke="#834187" stroke-width="8" pointer-events="visiblePainted" fill="#f4d9ff" style="fill: rgb(244, 217, 255); stroke: rgb(131, 65, 135);"></circle><line  x1="80" y1="266.6666666666667" x2="80" y2="400" id="v-41" stroke="#834187" stroke-width="8" style="stroke: rgb(131, 65, 135);"></line><line  x1="320" y1="266.6666666666667" x2="320" y2="400" id="v-42" stroke="#834187" stroke-width="8" style="stroke: rgb(131, 65, 135);"></line><text  id="v-36" font-size="34px" y="0.8em" xml:space="preserve" font-weight="bold" text-anchor="middle" pointer-events="visible" font-family="Open Sans" fill="#000000" transform="matrix(1,0,0,1,200,205)" style="fill: rgb(0, 0, 0);"><tspan id="v-43"  dy="0em" x="0">Material scientist</tspan></text><text  id="v-37" font-size="19px" y="0.8em" xml:space="preserve" text-anchor="middle" font-family="Open Sans" fill="#000000" transform="matrix(1,0,0,1,200,247.5)" style="fill: rgb(0, 0, 0);"><tspan id="v-44"  dy="0em" x="0">[Person]</tspan></text><text  id="v-38" font-size="24px" y="0.8em" xml:space="preserve" text-anchor="middle" font-family="Open Sans" fill="#000000" transform="matrix(1,0,0,1,200,295)" style="fill: rgb(0, 0, 0);"><tspan id="v-45"  dy="0em" x="0">Leverages smartphone facilities</tspan><tspan id="v-46"  dy="1.2em" x="0">to capture materials properties.</tspan></text><text  id="v-39" font-weight="bold" text-anchor="middle" font-family="Open Sans" fill="#000000" font-size="24" transform="matrix(1,0,0,1,200,371.2)" style="fill: rgb(0, 0, 0);" display="none"></text><image  id="v-40"></image></g></g><g id="j_4"    transform="translate(929,240)" style="" ><g  id="v-50" style="opacity: 1;"><rect  id="v-51" rx="10" ry="10" stroke="#c92d39" stroke-width="2" pointer-events="visiblePainted" fill="#c92d39" width="450" height="300" style="fill: rgb(201, 45, 57); stroke: rgb(201, 45, 57);"></rect><rect  id="v-52" rx="10" ry="10" stroke="#c92d39" stroke-width="0" pointer-events="visiblePainted" fill="#ffd9d9" width="430" height="250" x="10" y="40" style="fill: rgb(255, 217, 217);"></rect><ellipse  id="v-59" fill="#ffd9d9" cx="20" cy="20" rx="10" ry="10" style="fill: rgb(255, 217, 217);"></ellipse><ellipse  id="v-60" fill="#ffd9d9" cx="50" cy="20" rx="10" ry="10" style="fill: rgb(255, 217, 217);"></ellipse><ellipse  id="v-61" fill="#ffd9d9" cx="80" cy="20" rx="10" ry="10" style="fill: rgb(255, 217, 217);"></ellipse><rect  id="v-53" rx="10" ry="10" stroke="#444444" stroke-width="0" pointer-events="visiblePainted" fill="#ffd9d9" width="340" height="20" x="100" y="10" style="fill: rgb(255, 217, 217);"></rect><text  id="v-54" font-size="34" y="0.8em" xml:space="preserve" font-weight="bold" text-anchor="middle" pointer-events="visible" font-family="Open Sans" fill="#000000" transform="matrix(1,0,0,1,225,95)" style="fill: rgb(0, 0, 0);"><tspan id="v-62"  dy="0em" x="0">Web application</tspan></text><text  id="v-55" font-size="19" y="0.8em" xml:space="preserve" text-anchor="middle" font-family="Open Sans" fill="#000000" transform="matrix(1,0,0,1,225,137.5)" style="fill: rgb(0, 0, 0);"><tspan id="v-63"  dy="0em" x="0">[Container: Blazor]</tspan></text><text  id="v-56" font-size="24" y="0.8em" xml:space="preserve" text-anchor="middle" font-family="Open Sans" fill="#000000" transform="matrix(1,0,0,1,225,185)" style="fill: rgb(0, 0, 0);"><tspan id="v-64"  dy="0em" x="0">Provides limited facilities to upload</tspan><tspan id="v-65"  dy="1.2em" x="0">constrained pictures set.</tspan></text><text  id="v-57" font-weight="bold" text-anchor="middle" font-family="Open Sans" fill="#000000" font-size="24" transform="matrix(1,0,0,1,225,270)" y="0.8em" display="none" xml:space="preserve" style="fill: rgb(0, 0, 0);"><tspan id="v-74"  dy="0em" x="0" style="fill-opacity: 0; stroke-opacity: 0;">-</tspan></text><image  id="v-58"></image></g></g><g id="j_6"    transform="translate(1004,690)" style="" ><g  id="v-82" style="opacity: 1;"><rect  id="v-83" rx="20" ry="20" stroke="#c92d39" stroke-width="2" pointer-events="visiblePainted" fill="#c92d39" width="300" height="450" style="fill: rgb(201, 45, 57); stroke: rgb(201, 45, 57);"></rect><rect  id="v-84" rx="5" ry="5" stroke="#c92d39" stroke-width="0" pointer-events="visiblePainted" fill="#ffd9d9" width="280" height="370" x="10" y="40" style="fill: rgb(255, 217, 217);"></rect><ellipse  id="v-90" fill="#ffd9d9" cx="150" cy="430" rx="10" ry="10" style="fill: rgb(255, 217, 217);"></ellipse><line  style="stroke-width: 2px; stroke: rgb(255, 217, 217);" id="v-91" stroke="#ffd9d9" x1="125" y1="20" x2="175" y2="20"></line><text  id="v-85" font-size="34" y="0.8em" xml:space="preserve" font-weight="bold" text-anchor="middle" pointer-events="visible" font-family="Open Sans" fill="#000000" transform="matrix(1,0,0,1,150,98.8)" style="fill: rgb(0, 0, 0);"><tspan id="v-92"  dy="0em" x="0">Mobile</tspan><tspan id="v-93"  dy="1.2em" x="0">application</tspan></text><text  id="v-86" font-size="19" y="0.8em" xml:space="preserve" text-anchor="middle" font-family="Open Sans" fill="#000000" transform="matrix(1,0,0,1,150,183.8)" style="fill: rgb(0, 0, 0);"><tspan id="v-94"  dy="0em" x="0">[Container: Xamarin]</tspan></text><text  id="v-87" font-size="24" y="0.8em" xml:space="preserve" text-anchor="middle" font-family="Open Sans" fill="#000000" transform="matrix(1,0,0,1,150,231.2)" style="fill: rgb(0, 0, 0);"><tspan id="v-95"  dy="0em" x="0">Provides uncluttered</tspan><tspan id="v-96"  dy="1.2em" x="0">interface to ease</tspan><tspan id="v-97"  dy="1.2em" x="0">pictures shooting,</tspan><tspan id="v-98"  dy="1.2em" x="0">stiching &amp; uploading.</tspan></text><text  id="v-88" font-weight="bold" text-anchor="middle" font-family="Open Sans" fill="#000000" font-size="24" transform="matrix(1,0,0,1,150,405)" y="0.8em" xml:space="preserve" display="none" style="fill: rgb(0, 0, 0);"><tspan id="v-99"  dy="0em" x="0">+</tspan></text><image  id="v-89"></image></g></g><g id="j_7"    transform="translate(1724,461)" style="" ><g  id="v-103" style="opacity: 1;"><rect  id="v-104" rx="1" ry="1" stroke="#c92d39" stroke-width="8" pointer-events="visiblePainted" fill="#ffd9d9" width="450" height="300" style="fill: rgb(255, 217, 217); stroke: rgb(201, 45, 57);"></rect><text  id="v-105" font-size="34" y="0.8em" xml:space="preserve" font-weight="bold" text-anchor="middle" pointer-events="visible" font-family="Open Sans" fill="#000000" transform="matrix(1,0,0,1,225,30)" style="fill: rgb(0, 0, 0);"><tspan id="v-110"  dy="0em" x="0">API application</tspan></text><text  id="v-106" font-size="19" y="0.8em" xml:space="preserve" text-anchor="middle" font-family="Open Sans" fill="#000000" transform="matrix(1,0,0,1,225,72.5)" style="fill: rgb(0, 0, 0);"><tspan id="v-111"  dy="0em" x="0">[Container]</tspan></text><text  id="v-107" font-size="24" y="0.8em" xml:space="preserve" text-anchor="middle" font-family="Open Sans" fill="#000000" transform="matrix(1,0,0,1,225,120)" style="fill: rgb(0, 0, 0);"><tspan id="v-112"  dy="0em" x="0">Extracts spatially varying</tspan><tspan id="v-113"  dy="1.2em" x="0">BRDF-Cook-Torrance with normals,</tspan><tspan id="v-114"  dy="1.2em" x="0">diffuse, roughness &amp; specular maps</tspan><tspan id="v-115"  dy="1.2em" x="0">from pictures set leveraring deep</tspan><tspan id="v-116"  dy="1.2em" x="0">neural network.</tspan></text><text  id="v-108" font-weight="bold" text-anchor="middle" font-family="Open Sans" fill="#000000" font-size="24" transform="matrix(1,0,0,1,225,270)" y="0.8em" display="none" xml:space="preserve" style="fill: rgb(0, 0, 0);"><tspan id="v-125"  dy="0em" x="0" style="fill-opacity: 0; stroke-opacity: 0;">-</tspan></text><image  id="v-109"></image></g></g><g id="j_9"    transform="translate(1724,1116)" style="" ><g  id="v-129" style="opacity: 1;"><path  d="M 0,30 a 225,30 0,0,0 450 0 a 225,30 0,0,0 -450 0 l 0,240 a 225,30 0,0,0 450 0 l 0,-240" id="v-130" stroke="#c92d39" stroke-width="8" pointer-events="visiblePainted" fill="#ffd9d9" style="fill: rgb(255, 217, 217); stroke: rgb(201, 45, 57);"></path><rect  id="v-131" stroke-width="0" pointer-events="visiblePainted" fill="none" stroke="none" width="450" height="270" x="0" y="30"></rect><text  id="v-132" font-size="34px" y="0.8em" xml:space="preserve" font-weight="bold" text-anchor="middle" pointer-events="visible" font-family="Open Sans" fill="#000000" transform="matrix(1,0,0,1,225,90)" style="fill: rgb(0, 0, 0);"><tspan id="v-137"  dy="0em" x="0">Materials store</tspan></text><text  id="v-133" font-size="19px" y="0.8em" xml:space="preserve" text-anchor="middle" font-family="Open Sans" fill="#000000" transform="matrix(1,0,0,1,225,132.5)" style="fill: rgb(0, 0, 0);"><tspan id="v-138"  dy="0em" x="0">[Container: MongoDB]</tspan></text><text  id="v-134" font-size="24px" y="0.8em" xml:space="preserve" text-anchor="middle" font-family="Open Sans" fill="#000000" transform="matrix(1,0,0,1,225,180)" style="fill: rgb(0, 0, 0);"><tspan id="v-139"  dy="0em" x="0">Stores enriched materials &amp; supplies</tspan><tspan id="v-140"  dy="1.2em" x="0">powerful queries API.</tspan></text><text  id="v-135" font-weight="bold" text-anchor="middle" font-family="Open Sans" fill="#000000" font-size="24" transform="matrix(1,0,0,1,225,273)" y="0.8em" display="none" xml:space="preserve" style="fill: rgb(0, 0, 0);"><tspan id="v-141"  dy="0em" x="0" style="fill-opacity: 0; stroke-opacity: 0;">-</tspan></text><image  id="v-136"></image></g></g><g id="j_10"   ><path  stroke="#707070" id="v-161" stroke-width="2" stroke-dasharray="30 30" fill="none" d="M 1379 453 1705 544" style="opacity: 1;"></path><path  fill="black" stroke="black" transform="translate(1379,453) scale(1,1) rotate(15.549804687500014)"></path><path  fill="#707070" stroke="#707070" id="v-163" d="M 20 0 L 0 10 L 20 20 z" transform="translate(1721.3191855400971,558.6339509374178) scale(1,1) rotate(-164.4501953125)" style="opacity: 1;"></path><path  id="v-162" fill="none" d="M 1379 453 1705 544" style=""></path><title ></title><g ><g  id="v-149" label-idx="0" cursor="move" transform="translate(1542, 498.5)" style="opacity: 1;"><rect id="v-151" fill="#ffffff" rx="3" ry="3" stroke="#ffffff" stroke-width="20px" pointer-events="none" width="190.11058044433594" height="33.13782501220703" transform="matrix(1,0,0,1,-94,-16.6)"></rect><text id="v-150" font-size="24px" y="0.8em" xml:space="preserve" text-anchor="middle" pointer-events="none" fill="#707070" font-family="Open Sans" font-weight="normal" transform="matrix(1,0,0,1,0,-9.3)"><tspan id="v-152"  dy="0em" x="0">makes API call to</tspan></text></g><g  id="v-153" label-idx="1" cursor="move" transform="translate(1542, 529.7)" style="opacity: 1;"><rect id="v-155" fill="#ffffff" rx="3" ry="3" pointer-events="none" width="0" height="0" transform="matrix(1,0,0,1,0,0)"></rect><text id="v-154" font-size="19px" y="0.8em" display="none" xml:space="preserve" text-anchor="middle" pointer-events="none" fill="#707070" font-family="Open Sans" font-weight="normal" transform="matrix(1,0,0,1,0,0)"><tspan id="v-156"  dy="0em" x="0" style="fill-opacity: 0; stroke-opacity: 0;">-</tspan></text></g><g  id="v-157" label-idx="2" cursor="move" transform="translate(1542, 553.7)" style="opacity: 1;"><rect id="v-159" fill="#ffffff" rx="3" ry="3" pointer-events="none"  display="none" width="0" height="0" transform="matrix(1,0,0,1,0,0)"></rect><text id="v-158" font-size="19px" y="0.8em" display="none" xml:space="preserve" text-anchor="middle" pointer-events="none" fill="#707070" font-family="Open Sans" font-weight="normal"  transform="matrix(1,0,0,1,0,0)"><tspan id="v-160"  dy="0em" x="0" style="fill-opacity: 0; stroke-opacity: 0;">-</tspan></text></g></g><g  display="none"></g><g  id="v-165" display="none"><g  id="v-146"><path  end="source" d="M 26 0 L 0 13 L 26 26 z"></path></g><g  id="v-147"><path  end="target" d="M 26 0 L 0 13 L 26 26 z"></path></g></g><g  id="v-164" display="none"><g  id="v-145" transform="translate(1417.527099609375, 463.7545166015625) "><g  event="remove"><circle r="11"></circle><path transform="scale(.8) translate(-16, -16)" d="M24.778,21.419 19.276,15.917 24.777,10.415 21.949,7.585 16.447,13.087 10.945,7.585 8.117,10.415 13.618,15.917 8.116,21.419 10.946,24.248 16.447,18.746 21.948,24.248z"></path><title>Remove link.</title></g><g  event="link:options"><circle r="11" transform="translate(25)"></circle><path fill="white" transform="scale(.55) translate(29, -16)" d="M31.229,17.736c0.064-0.571,0.104-1.148,0.104-1.736s-0.04-1.166-0.104-1.737l-4.377-1.557c-0.218-0.716-0.504-1.401-0.851-2.05l1.993-4.192c-0.725-0.91-1.549-1.734-2.458-2.459l-4.193,1.994c-0.647-0.347-1.334-0.632-2.049-0.849l-1.558-4.378C17.165,0.708,16.588,0.667,16,0.667s-1.166,0.041-1.737,0.105L12.707,5.15c-0.716,0.217-1.401,0.502-2.05,0.849L6.464,4.005C5.554,4.73,4.73,5.554,4.005,6.464l1.994,4.192c-0.347,0.648-0.632,1.334-0.849,2.05l-4.378,1.557C0.708,14.834,0.667,15.412,0.667,16s0.041,1.165,0.105,1.736l4.378,1.558c0.217,0.715,0.502,1.401,0.849,2.049l-1.994,4.193c0.725,0.909,1.549,1.733,2.459,2.458l4.192-1.993c0.648,0.347,1.334,0.633,2.05,0.851l1.557,4.377c0.571,0.064,1.148,0.104,1.737,0.104c0.588,0,1.165-0.04,1.736-0.104l1.558-4.377c0.715-0.218,1.399-0.504,2.049-0.851l4.193,1.993c0.909-0.725,1.733-1.549,2.458-2.458l-1.993-4.193c0.347-0.647,0.633-1.334,0.851-2.049L31.229,17.736zM16,20.871c-2.69,0-4.872-2.182-4.872-4.871c0-2.69,2.182-4.872,4.872-4.872c2.689,0,4.871,2.182,4.871,4.872C20.871,18.689,18.689,20.871,16,20.871z"></path><title>Link options.</title></g></g></g></g><g id="j_11"   ><path  stroke="#707070" id="v-186" stroke-width="2" stroke-dasharray="30 30" fill="none" d="M 2505 1266 2194 1266" style="opacity: 1;"></path><path  fill="black" stroke="black" transform="translate(2505,1266) scale(1,1) rotate(-180)"></path><path  fill="#707070" stroke="#707070" id="v-188" d="M 20 0 L 0 10 L 20 20 z" transform="translate(2174,1256) scale(1,1) rotate(0)" style="opacity: 1;"></path><path  id="v-187" fill="none" d="M 2505 1266 2194 1266" style=""></path><title ></title><g ><g  id="v-173" label-idx="0" cursor="move" transform="translate(2349.5, 1266)" style="opacity: 1;"><rect id="v-175" fill="#ffffff" rx="3" ry="3" stroke="#ffffff" stroke-width="20px" pointer-events="none" width="196.82330322265625" height="61.93782424926758" transform="matrix(1,0,0,1,-99.2,-31)"></rect><text id="v-174" font-size="24px" y="0.8em" xml:space="preserve" text-anchor="middle" pointer-events="none" fill="#707070" font-family="Open Sans" font-weight="normal" transform="matrix(1,0,0,1,0,-23.7)"><tspan id="v-176"  dy="0em" x="0">fetches materials</tspan><tspan id="v-177"  dy="1.2em" x="0">from</tspan></text></g><g  id="v-178" label-idx="1" cursor="move" transform="translate(2349.5, 1309.2)" style="opacity: 1;"><rect id="v-180" fill="#ffffff" rx="3" ry="3" pointer-events="none" width="0" height="0" transform="matrix(1,0,0,1,0,0)"></rect><text id="v-179" font-size="19px" y="0.8em" display="none" xml:space="preserve" text-anchor="middle" pointer-events="none" fill="#707070" font-family="Open Sans" font-weight="normal" transform="matrix(1,0,0,1,0,0)"><tspan id="v-181"  dy="0em" x="0" style="fill-opacity: 0; stroke-opacity: 0;">-</tspan></text></g><g  id="v-182" label-idx="2" cursor="move" transform="translate(2349.5, 1333.2)" style="opacity: 1;"><rect id="v-184" fill="#ffffff" rx="3" ry="3" pointer-events="none"  display="none" width="0" height="0" transform="matrix(1,0,0,1,0,0)"></rect><text id="v-183" font-size="19px" y="0.8em" display="none" xml:space="preserve" text-anchor="middle" pointer-events="none" fill="#707070" font-family="Open Sans" font-weight="normal"  transform="matrix(1,0,0,1,0,0)"><tspan id="v-185"  dy="0em" x="0" style="fill-opacity: 0; stroke-opacity: 0;">-</tspan></text></g></g><g  display="none"></g><g  id="v-190" display="none"><g  id="v-170"><path  end="source" d="M 26 0 L 0 13 L 26 26 z"></path></g><g  id="v-171"><path  end="target" d="M 26 0 L 0 13 L 26 26 z"></path></g></g><g  id="v-189" display="none"><g  id="v-169" transform="translate(2465, 1266) "><g  event="remove"><circle r="11"></circle><path transform="scale(.8) translate(-16, -16)" d="M24.778,21.419 19.276,15.917 24.777,10.415 21.949,7.585 16.447,13.087 10.945,7.585 8.117,10.415 13.618,15.917 8.116,21.419 10.946,24.248 16.447,18.746 21.948,24.248z"></path><title>Remove link.</title></g><g  event="link:options"><circle r="11" transform="translate(25)"></circle><path fill="white" transform="scale(.55) translate(29, -16)" d="M31.229,17.736c0.064-0.571,0.104-1.148,0.104-1.736s-0.04-1.166-0.104-1.737l-4.377-1.557c-0.218-0.716-0.504-1.401-0.851-2.05l1.993-4.192c-0.725-0.91-1.549-1.734-2.458-2.459l-4.193,1.994c-0.647-0.347-1.334-0.632-2.049-0.849l-1.558-4.378C17.165,0.708,16.588,0.667,16,0.667s-1.166,0.041-1.737,0.105L12.707,5.15c-0.716,0.217-1.401,0.502-2.05,0.849L6.464,4.005C5.554,4.73,4.73,5.554,4.005,6.464l1.994,4.192c-0.347,0.648-0.632,1.334-0.849,2.05l-4.378,1.557C0.708,14.834,0.667,15.412,0.667,16s0.041,1.165,0.105,1.736l4.378,1.558c0.217,0.715,0.502,1.401,0.849,2.049l-1.994,4.193c0.725,0.909,1.549,1.733,2.459,2.458l4.192-1.993c0.648,0.347,1.334,0.633,2.05,0.851l1.557,4.377c0.571,0.064,1.148,0.104,1.737,0.104c0.588,0,1.165-0.04,1.736-0.104l1.558-4.377c0.715-0.218,1.399-0.504,2.049-0.851l4.193,1.993c0.909-0.725,1.733-1.549,2.458-2.458l-1.993-4.193c0.347-0.647,0.633-1.334,0.851-2.049L31.229,17.736zM16,20.871c-2.69,0-4.872-2.182-4.872-4.871c0-2.69,2.182-4.872,4.872-4.872c2.689,0,4.871,2.182,4.871,4.872C20.871,18.689,18.689,20.871,16,20.871z"></path><title>Link options.</title></g></g></g></g><g id="j_12"   ><path  stroke="#707070" id="v-208" stroke-width="2" stroke-dasharray="30 30" fill="none" d="M 600 692 985 848" style="opacity: 1;"></path><path  fill="black" stroke="black" transform="translate(600,692) scale(1,1) rotate(21.972381591796918)"></path><path  fill="#707070" stroke="#707070" id="v-210" d="M 20 0 L 0 10 L 20 20 z" transform="translate(1000.2584298785742,864.2736607457387) scale(1,1) rotate(-158.0276336669922)" style="opacity: 1;"></path><path  id="v-209" fill="none" d="M 600 692 985 848" style=""></path><title ></title><g ><g  id="v-196" label-idx="0" cursor="move" transform="translate(792.5, 770)" style="opacity: 1;"><rect id="v-198" fill="#ffffff" rx="3" ry="3" stroke="#ffffff" stroke-width="20px" pointer-events="none" width="52.87434005737305" height="33.13782501220703" transform="matrix(1,0,0,1,-25.5,-16.6)"></rect><text id="v-197" font-size="24px" y="0.8em" xml:space="preserve" text-anchor="middle" pointer-events="none" fill="#707070" font-family="Open Sans" font-weight="normal" transform="matrix(1,0,0,1,0,-9.3)"><tspan id="v-199"  dy="0em" x="0">uses</tspan></text></g><g  id="v-200" label-idx="1" cursor="move" transform="translate(792.5, 801.2)" style="opacity: 1;"><rect id="v-202" fill="#ffffff" rx="3" ry="3" pointer-events="none" width="0" height="0" transform="matrix(1,0,0,1,0,0)"></rect><text id="v-201" font-size="19px" y="0.8em" display="none" xml:space="preserve" text-anchor="middle" pointer-events="none" fill="#707070" font-family="Open Sans" font-weight="normal" transform="matrix(1,0,0,1,0,0)"><tspan id="v-203"  dy="0em" x="0" style="fill-opacity: 0; stroke-opacity: 0;">-</tspan></text></g><g  id="v-204" label-idx="2" cursor="move" transform="translate(792.5, 825.2)" style="opacity: 1;"><rect id="v-206" fill="#ffffff" rx="3" ry="3" pointer-events="none"  display="none" width="0" height="0" transform="matrix(1,0,0,1,0,0)"></rect><text id="v-205" font-size="19px" y="0.8em" display="none" xml:space="preserve" text-anchor="middle" pointer-events="none" fill="#707070" font-family="Open Sans" font-weight="normal"  transform="matrix(1,0,0,1,0,0)"><tspan id="v-207"  dy="0em" x="0" style="fill-opacity: 0; stroke-opacity: 0;">-</tspan></text></g></g><g  display="none"></g><g  id="v-212" display="none"><g  id="v-193"><path  end="source" d="M 26 0 L 0 13 L 26 26 z"></path></g><g  id="v-194"><path  end="target" d="M 26 0 L 0 13 L 26 26 z"></path></g></g><g  id="v-211" display="none"><g  id="v-192" transform="translate(637.072265625, 707.021484375) "><g  event="remove"><circle r="11"></circle><path transform="scale(.8) translate(-16, -16)" d="M24.778,21.419 19.276,15.917 24.777,10.415 21.949,7.585 16.447,13.087 10.945,7.585 8.117,10.415 13.618,15.917 8.116,21.419 10.946,24.248 16.447,18.746 21.948,24.248z"></path><title>Remove link.</title></g><g  event="link:options"><circle r="11" transform="translate(25)"></circle><path fill="white" transform="scale(.55) translate(29, -16)" d="M31.229,17.736c0.064-0.571,0.104-1.148,0.104-1.736s-0.04-1.166-0.104-1.737l-4.377-1.557c-0.218-0.716-0.504-1.401-0.851-2.05l1.993-4.192c-0.725-0.91-1.549-1.734-2.458-2.459l-4.193,1.994c-0.647-0.347-1.334-0.632-2.049-0.849l-1.558-4.378C17.165,0.708,16.588,0.667,16,0.667s-1.166,0.041-1.737,0.105L12.707,5.15c-0.716,0.217-1.401,0.502-2.05,0.849L6.464,4.005C5.554,4.73,4.73,5.554,4.005,6.464l1.994,4.192c-0.347,0.648-0.632,1.334-0.849,2.05l-4.378,1.557C0.708,14.834,0.667,15.412,0.667,16s0.041,1.165,0.105,1.736l4.378,1.558c0.217,0.715,0.502,1.401,0.849,2.049l-1.994,4.193c0.725,0.909,1.549,1.733,2.459,2.458l4.192-1.993c0.648,0.347,1.334,0.633,2.05,0.851l1.557,4.377c0.571,0.064,1.148,0.104,1.737,0.104c0.588,0,1.165-0.04,1.736-0.104l1.558-4.377c0.715-0.218,1.399-0.504,2.049-0.851l4.193,1.993c0.909-0.725,1.733-1.549,2.458-2.458l-1.993-4.193c0.347-0.647,0.633-1.334,0.851-2.049L31.229,17.736zM16,20.871c-2.69,0-4.872-2.182-4.872-4.871c0-2.69,2.182-4.872,4.872-4.872c2.689,0,4.871,2.182,4.871,4.872C20.871,18.689,18.689,20.871,16,20.871z"></path><title>Link options.</title></g></g></g></g><g id="j_13"   ><path  stroke="#707070" id="v-230" stroke-width="2" stroke-dasharray="30 30" fill="none" d="M 600 552 910 462" style="opacity: 1;"></path><path  fill="black" stroke="black" transform="translate(600,552) scale(1,1) rotate(-16.266891479492188)"></path><path  fill="#707070" stroke="#707070" id="v-232" d="M 20 0 L 0 10 L 20 20 z" transform="translate(931.8011231073751,465.5996697405031) scale(1,1) rotate(-196.2668914794922)" style="opacity: 1;"></path><path  id="v-231" fill="none" d="M 600 552 910 462" style=""></path><title ></title><g ><g  id="v-218" label-idx="0" cursor="move" transform="translate(755, 507)" style="opacity: 1;"><rect id="v-220" fill="#ffffff" rx="3" ry="3" stroke="#ffffff" stroke-width="20px" pointer-events="none" width="52.87434005737305" height="33.13782501220703" transform="matrix(1,0,0,1,-25.5,-16.6)"></rect><text id="v-219" font-size="24px" y="0.8em" xml:space="preserve" text-anchor="middle" pointer-events="none" fill="#707070" font-family="Open Sans" font-weight="normal" transform="matrix(1,0,0,1,0,-9.3)"><tspan id="v-221"  dy="0em" x="0">uses</tspan></text></g><g  id="v-222" label-idx="1" cursor="move" transform="translate(755, 538.2)" style="opacity: 1;"><rect id="v-224" fill="#ffffff" rx="3" ry="3" pointer-events="none" width="0" height="0" transform="matrix(1,0,0,1,0,0)"></rect><text id="v-223" font-size="19px" y="0.8em" display="none" xml:space="preserve" text-anchor="middle" pointer-events="none" fill="#707070" font-family="Open Sans" font-weight="normal" transform="matrix(1,0,0,1,0,0)"><tspan id="v-225"  dy="0em" x="0" style="fill-opacity: 0; stroke-opacity: 0;">-</tspan></text></g><g  id="v-226" label-idx="2" cursor="move" transform="translate(755, 562.2)" style="opacity: 1;"><rect id="v-228" fill="#ffffff" rx="3" ry="3" pointer-events="none"  display="none" width="0" height="0" transform="matrix(1,0,0,1,0,0)"></rect><text id="v-227" font-size="19px" y="0.8em" display="none" xml:space="preserve" text-anchor="middle" pointer-events="none" fill="#707070" font-family="Open Sans" font-weight="normal"  transform="matrix(1,0,0,1,0,0)"><tspan id="v-229"  dy="0em" x="0" style="fill-opacity: 0; stroke-opacity: 0;">-</tspan></text></g></g><g  display="none"></g><g  id="v-234" display="none"><g  id="v-215"><path  end="source" d="M 26 0 L 0 13 L 26 26 z"></path></g><g  id="v-216"><path  end="target" d="M 26 0 L 0 13 L 26 26 z"></path></g></g><g  id="v-233" display="none"><g  id="v-214" transform="translate(638.413818359375, 540.8475952148438) "><g  event="remove"><circle r="11"></circle><path transform="scale(.8) translate(-16, -16)" d="M24.778,21.419 19.276,15.917 24.777,10.415 21.949,7.585 16.447,13.087 10.945,7.585 8.117,10.415 13.618,15.917 8.116,21.419 10.946,24.248 16.447,18.746 21.948,24.248z"></path><title>Remove link.</title></g><g  event="link:options"><circle r="11" transform="translate(25)"></circle><path fill="white" transform="scale(.55) translate(29, -16)" d="M31.229,17.736c0.064-0.571,0.104-1.148,0.104-1.736s-0.04-1.166-0.104-1.737l-4.377-1.557c-0.218-0.716-0.504-1.401-0.851-2.05l1.993-4.192c-0.725-0.91-1.549-1.734-2.458-2.459l-4.193,1.994c-0.647-0.347-1.334-0.632-2.049-0.849l-1.558-4.378C17.165,0.708,16.588,0.667,16,0.667s-1.166,0.041-1.737,0.105L12.707,5.15c-0.716,0.217-1.401,0.502-2.05,0.849L6.464,4.005C5.554,4.73,4.73,5.554,4.005,6.464l1.994,4.192c-0.347,0.648-0.632,1.334-0.849,2.05l-4.378,1.557C0.708,14.834,0.667,15.412,0.667,16s0.041,1.165,0.105,1.736l4.378,1.558c0.217,0.715,0.502,1.401,0.849,2.049l-1.994,4.193c0.725,0.909,1.549,1.733,2.459,2.458l4.192-1.993c0.648,0.347,1.334,0.633,2.05,0.851l1.557,4.377c0.571,0.064,1.148,0.104,1.737,0.104c0.588,0,1.165-0.04,1.736-0.104l1.558-4.377c0.715-0.218,1.399-0.504,2.049-0.851l4.193,1.993c0.909-0.725,1.733-1.549,2.458-2.458l-1.993-4.193c0.347-0.647,0.633-1.334,0.851-2.049L31.229,17.736zM16,20.871c-2.69,0-4.872-2.182-4.872-4.871c0-2.69,2.182-4.872,4.872-4.872c2.689,0,4.871,2.182,4.871,4.872C20.871,18.689,18.689,20.871,16,20.871z"></path><title>Link options.</title></g></g></g></g><g id="j_14"   ><path  stroke="#707070" id="v-255" stroke-width="2" stroke-dasharray="30 30" fill="none" d="M 1949 761 1949 1096" style="opacity: 1;"></path><path  fill="black" stroke="black" transform="translate(1949,761) scale(1,1) rotate(-270)"></path><path  fill="#707070" stroke="#707070" id="v-257" d="M 20 0 L 0 10 L 20 20 z" transform="translate(1939,1116) scale(1,1) rotate(-90)" style="opacity: 1;"></path><path  id="v-256" fill="none" d="M 1949 761 1949 1096" style=""></path><title ></title><g ><g  id="v-242" label-idx="0" cursor="move" transform="translate(1949, 928.5)" style="opacity: 1;"><rect id="v-244" fill="#ffffff" rx="3" ry="3" stroke="#ffffff" stroke-width="20px" pointer-events="none" width="181.43157958984375" height="61.93782424926758" transform="matrix(1,0,0,1,-89.8,-31)"></rect><text id="v-243" font-size="24px" y="0.8em" xml:space="preserve" text-anchor="middle" pointer-events="none" fill="#707070" font-family="Open Sans" font-weight="normal" transform="matrix(1,0,0,1,0,-23.7)"><tspan id="v-245"  dy="0em" x="0">stores materials</tspan><tspan id="v-246"  dy="1.2em" x="0">to</tspan></text></g><g  id="v-247" label-idx="1" cursor="move" transform="translate(1949, 971.7)" style="opacity: 1;"><rect id="v-249" fill="#ffffff" rx="3" ry="3" pointer-events="none" width="0" height="0" transform="matrix(1,0,0,1,0,0)"></rect><text id="v-248" font-size="19px" y="0.8em" display="none" xml:space="preserve" text-anchor="middle" pointer-events="none" fill="#707070" font-family="Open Sans" font-weight="normal" transform="matrix(1,0,0,1,0,0)"><tspan id="v-250"  dy="0em" x="0" style="fill-opacity: 0; stroke-opacity: 0;">-</tspan></text></g><g  id="v-251" label-idx="2" cursor="move" transform="translate(1949, 995.7)" style="opacity: 1;"><rect id="v-253" fill="#ffffff" rx="3" ry="3" pointer-events="none"  display="none" width="0" height="0" transform="matrix(1,0,0,1,0,0)"></rect><text id="v-252" font-size="19px" y="0.8em" display="none" xml:space="preserve" text-anchor="middle" pointer-events="none" fill="#707070" font-family="Open Sans" font-weight="normal"  transform="matrix(1,0,0,1,0,0)"><tspan id="v-254"  dy="0em" x="0" style="fill-opacity: 0; stroke-opacity: 0;">-</tspan></text></g></g><g  display="none"></g><g  id="v-259" display="none"><g  id="v-239"><path  end="source" d="M 26 0 L 0 13 L 26 26 z"></path></g><g  id="v-240"><path  end="target" d="M 26 0 L 0 13 L 26 26 z"></path></g></g><g  id="v-258" display="none"><g  id="v-238" transform="translate(1949, 801) "><g  event="remove"><circle r="11"></circle><path transform="scale(.8) translate(-16, -16)" d="M24.778,21.419 19.276,15.917 24.777,10.415 21.949,7.585 16.447,13.087 10.945,7.585 8.117,10.415 13.618,15.917 8.116,21.419 10.946,24.248 16.447,18.746 21.948,24.248z"></path><title>Remove link.</title></g><g  event="link:options"><circle r="11" transform="translate(25)"></circle><path fill="white" transform="scale(.55) translate(29, -16)" d="M31.229,17.736c0.064-0.571,0.104-1.148,0.104-1.736s-0.04-1.166-0.104-1.737l-4.377-1.557c-0.218-0.716-0.504-1.401-0.851-2.05l1.993-4.192c-0.725-0.91-1.549-1.734-2.458-2.459l-4.193,1.994c-0.647-0.347-1.334-0.632-2.049-0.849l-1.558-4.378C17.165,0.708,16.588,0.667,16,0.667s-1.166,0.041-1.737,0.105L12.707,5.15c-0.716,0.217-1.401,0.502-2.05,0.849L6.464,4.005C5.554,4.73,4.73,5.554,4.005,6.464l1.994,4.192c-0.347,0.648-0.632,1.334-0.849,2.05l-4.378,1.557C0.708,14.834,0.667,15.412,0.667,16s0.041,1.165,0.105,1.736l4.378,1.558c0.217,0.715,0.502,1.401,0.849,2.049l-1.994,4.193c0.725,0.909,1.549,1.733,2.459,2.458l4.192-1.993c0.648,0.347,1.334,0.633,2.05,0.851l1.557,4.377c0.571,0.064,1.148,0.104,1.737,0.104c0.588,0,1.165-0.04,1.736-0.104l1.558-4.377c0.715-0.218,1.399-0.504,2.049-0.851l4.193,1.993c0.909-0.725,1.733-1.549,2.458-2.458l-1.993-4.193c0.347-0.647,0.633-1.334,0.851-2.049L31.229,17.736zM16,20.871c-2.69,0-4.872-2.182-4.872-4.871c0-2.69,2.182-4.872,4.872-4.872c2.689,0,4.871,2.182,4.871,4.872C20.871,18.689,18.689,20.871,16,20.871z"></path><title>Link options.</title></g></g></g></g><g id="j_15"   ><path  stroke="#707070" id="v-279" stroke-width="2" stroke-dasharray="30 30" fill="none" d="M 1304 858 1705 704" style="opacity: 1;"></path><path  fill="black" stroke="black" transform="translate(1304,858) scale(1,1) rotate(-20.973493576049805)"></path><path  fill="#707070" stroke="#707070" id="v-281" d="M 20 0 L 0 10 L 20 20 z" transform="translate(1727.5794191528294,706.337446294944) scale(1,1) rotate(-200.97349548339844)" style="opacity: 1;"></path><path  id="v-280" fill="none" d="M 1304 858 1705 704" style=""></path><title ></title><g ><g  id="v-267" label-idx="0" cursor="move" transform="translate(1504.5, 781)" style="opacity: 1;"><rect id="v-269" fill="#ffffff" rx="3" ry="3" stroke="#ffffff" stroke-width="20px" pointer-events="none" width="190.11058044433594" height="33.13782501220703" transform="matrix(1,0,0,1,-94,-16.6)"></rect><text id="v-268" font-size="24px" y="0.8em" xml:space="preserve" text-anchor="middle" pointer-events="none" fill="#707070" font-family="Open Sans" font-weight="normal" transform="matrix(1,0,0,1,0,-9.3)"><tspan id="v-270"  dy="0em" x="0">makes API call to</tspan></text></g><g  id="v-271" label-idx="1" cursor="move" transform="translate(1504.5, 812.2)" style="opacity: 1;"><rect id="v-273" fill="#ffffff" rx="3" ry="3" pointer-events="none" width="0" height="0" transform="matrix(1,0,0,1,0,0)"></rect><text id="v-272" font-size="19px" y="0.8em" display="none" xml:space="preserve" text-anchor="middle" pointer-events="none" fill="#707070" font-family="Open Sans" font-weight="normal" transform="matrix(1,0,0,1,0,0)"><tspan id="v-274"  dy="0em" x="0" style="fill-opacity: 0; stroke-opacity: 0;">-</tspan></text></g><g  id="v-275" label-idx="2" cursor="move" transform="translate(1504.5, 836.2)" style="opacity: 1;"><rect id="v-277" fill="#ffffff" rx="3" ry="3" pointer-events="none"  display="none" width="0" height="0" transform="matrix(1,0,0,1,0,0)"></rect><text id="v-276" font-size="19px" y="0.8em" display="none" xml:space="preserve" text-anchor="middle" pointer-events="none" fill="#707070" font-family="Open Sans" font-weight="normal"  transform="matrix(1,0,0,1,0,0)"><tspan id="v-278"  dy="0em" x="0" style="fill-opacity: 0; stroke-opacity: 0;">-</tspan></text></g></g><g  display="none"></g><g  id="v-283" display="none"><g  id="v-264"><path  end="source" d="M 26 0 L 0 13 L 26 26 z"></path></g><g  id="v-265"><path  end="target" d="M 26 0 L 0 13 L 26 26 z"></path></g></g><g  id="v-282" display="none"><g  id="v-263" transform="translate(1341.341064453125, 843.6595458984375) "><g  event="remove"><circle r="11"></circle><path transform="scale(.8) translate(-16, -16)" d="M24.778,21.419 19.276,15.917 24.777,10.415 21.949,7.585 16.447,13.087 10.945,7.585 8.117,10.415 13.618,15.917 8.116,21.419 10.946,24.248 16.447,18.746 21.948,24.248z"></path><title>Remove link.</title></g><g  event="link:options"><circle r="11" transform="translate(25)"></circle><path fill="white" transform="scale(.55) translate(29, -16)" d="M31.229,17.736c0.064-0.571,0.104-1.148,0.104-1.736s-0.04-1.166-0.104-1.737l-4.377-1.557c-0.218-0.716-0.504-1.401-0.851-2.05l1.993-4.192c-0.725-0.91-1.549-1.734-2.458-2.459l-4.193,1.994c-0.647-0.347-1.334-0.632-2.049-0.849l-1.558-4.378C17.165,0.708,16.588,0.667,16,0.667s-1.166,0.041-1.737,0.105L12.707,5.15c-0.716,0.217-1.401,0.502-2.05,0.849L6.464,4.005C5.554,4.73,4.73,5.554,4.005,6.464l1.994,4.192c-0.347,0.648-0.632,1.334-0.849,2.05l-4.378,1.557C0.708,14.834,0.667,15.412,0.667,16s0.041,1.165,0.105,1.736l4.378,1.558c0.217,0.715,0.502,1.401,0.849,2.049l-1.994,4.193c0.725,0.909,1.549,1.733,2.459,2.458l4.192-1.993c0.648,0.347,1.334,0.633,2.05,0.851l1.557,4.377c0.571,0.064,1.148,0.104,1.737,0.104c0.588,0,1.165-0.04,1.736-0.104l1.558-4.377c0.715-0.218,1.399-0.504,2.049-0.851l4.193,1.993c0.909-0.725,1.733-1.549,2.458-2.458l-1.993-4.193c0.347-0.647,0.633-1.334,0.851-2.049L31.229,17.736zM16,20.871c-2.69,0-4.872-2.182-4.872-4.871c0-2.69,2.182-4.872,4.872-4.872c2.689,0,4.871,2.182,4.871,4.872C20.871,18.689,18.689,20.871,16,20.871z"></path><title>Link options.</title></g></g></g></g></g><defs id="v-4"></defs></svg>