<svg xmlns="http://www.w3.org/2000/svg" xmlns:lucid="lucid" width="1480" height="240"><g lucid:page-tab-id="z3lstB~8rKbd"><path d="M120 120c0 27.6-22.4 50-50 50s-50-22.4-50-50 22.4-50 50-50 50 22.4 50 50z" stroke="#de5f85" stroke-width="3" fill="#f5b5c8"/><path d="M290 120c0 33.14-26.86 60-60 60s-60-26.86-60-60 26.86-60 60-60 60 26.86 60 60z" stroke="#ef8d22" stroke-width="3" fill="#ffc374"/><path d="M480 120c0 38.66-31.34 70-70 70s-70-31.34-70-70 31.34-70 70-70 70 31.34 70 70z" stroke="#0c7cba" stroke-width="3" fill="#83bbe5"/><path d="M620 120c0 27.6-22.4 50-50 50s-50-22.4-50-50 22.4-50 50-50 50 22.4 50 50z" stroke="#c92d39" stroke-width="3" fill="#ff8f80"/><path d="M860 120c0 55.23-44.77 100-100 100s-100-44.77-100-100S704.77 20 760 20s100 44.77 100 100z" stroke="#834187" stroke-width="3" fill="#b391b5"/><path d="M1080 120c0 49.7-40.3 90-90 90s-90-40.3-90-90 40.3-90 90-90 90 40.3 90 90z" stroke="#fcc438" stroke-width="3" fill="#ffdf71"/><path d="M1300 120c0 49.7-40.3 90-90 90s-90-40.3-90-90 40.3-90 90-90 90 40.3 90 90z" stroke="#19967d" stroke-width="3" fill="#5abaa7"/><path d="M1460 120c0 33.14-26.86 60-60 60s-60-26.86-60-60 26.86-60 60-60 60 26.86 60 60z" stroke="#3aa6dd" stroke-width="3" fill="#99d2f2"/><path d="M1088.46 44.2c.25.33.2.8-.14 1.06L892.6 195.93c-.33.25-.8.2-1.06-.14-.25-.33-.2-.8.14-1.06L1087.4 44.07c.33-.25.8-.2 1.06.14z" stroke="#fcc438" stroke-width="1.5" fill="none"/></g></svg>