<svg xmlns="http://www.w3.org/2000/svg" xmlns:lucid="lucid" width="1080" height="780"><g lucid:page-tab-id="eS9rhrtEasVF"><path d="M680 90c0 27.6-22.4 50-50 50s-50-22.4-50-50 22.4-50 50-50 50 22.4 50 50z" stroke="#834187" stroke-width="3" fill="#b391b5"/><path d="M420 530c0 27.6-22.4 50-50 50s-50-22.4-50-50 22.4-50 50-50 50 22.4 50 50z" stroke="#999" stroke-width="3" fill="#ccc"/><path d="M960 470c0 27.6-22.4 50-50 50s-50-22.4-50-50 22.4-50 50-50 50 22.4 50 50z" stroke="#0c7cba" stroke-width="3" fill="#83bbe5"/><path d="M120 70c0 27.6-22.4 50-50 50S20 97.6 20 70s22.4-50 50-50 50 22.4 50 50zM1060 250c0 27.6-22.4 50-50 50s-50-22.4-50-50 22.4-50 50-50 50 22.4 50 50z" stroke="#834187" stroke-width="3" fill="#b391b5"/><path d="M360 260c0 27.6-22.4 50-50 50s-50-22.4-50-50 22.4-50 50-50 50 22.4 50 50zM820 260c0 27.6-22.4 50-50 50s-50-22.4-50-50 22.4-50 50-50 50 22.4 50 50zM720 450c0 27.6-22.4 50-50 50s-50-22.4-50-50 22.4-50 50-50 50 22.4 50 50zM580 270c0 27.6-22.4 50-50 50s-50-22.4-50-50 22.4-50 50-50 50 22.4 50 50z" stroke="#0c7cba" stroke-width="3" fill="#83bbe5"/><path d="M160 390c0 27.6-22.4 50-50 50s-50-22.4-50-50 22.4-50 50-50 50 22.4 50 50zM900 710c0 27.6-22.4 50-50 50s-50-22.4-50-50 22.4-50 50-50 50 22.4 50 50zM560 710c0 27.6-22.4 50-50 50s-50-22.4-50-50 22.4-50 50-50 50 22.4 50 50z" stroke="#999" stroke-width="3" fill="#ccc"/><path d="M123 70.03l10.72.23 5.2.32m15.86 1.38l2.82.3 11.4 1.68 10.93 2.08 6.2 1.45m15.36 4.16l7.8 2.54 8.6 3.2 8 3.35 5.23 2.47m14.04 7.5l1.4.8 5.92 3.75 5.46 3.8 5.05 3.83 4.7 3.87 3.08 2.78m11.07 11.43l1.34 1.56 3.17 4 2.95 4.06 2.7 4.1 2.52 4.12 2.3 4.2 2.1 4.24.17.36m5.68 14.87l.78 2.56 1.2 4.7 1.04 4.85.57 3.4" stroke="#b2b2b2" stroke-width="3" fill="none"/><path d="M123.07 68.53l-.06 3-1.57-.03.07-1.5-.05-1.5" fill="#b2b2b2"/><path d="M309.62 203.66l-5.76-13.85 9.25-.73z" stroke="#b2b2b2" stroke-width="3" fill="#b2b2b2"/><path d="M257 260.03l-13.8.28m-13.8.6l-9.54.6-13.7 1.42-4.23.62m-13.62 2.28l-3.08.6-8.16 1.9-7.04 1.96-6.13 2-2.2.8m-12.68 5.44l-3.3 1.72-3.4 1.97-3.1 1.97-2.82 1.96-2.56 1.94-2.35 1.95-2.17 1.94-2 1.95-.6.66m-8.33 10.98l-.25.4-1.16 2.12-1.08 2.16-1 2.22-.9 2.28-.82 2.36-.32 1.08" stroke="#b2b2b2" stroke-width="3" fill="none"/><path d="M258.5 260l.05 1.5-1.56.03-.07-3 1.64-.03" fill="#b2b2b2"/><path d="M110.68 333.7l-2.6-14.78 9.2 1.3z" stroke="#b2b2b2" stroke-width="3" fill="#b2b2b2"/><path d="M309.97 313l-.1 5.06-.5 7.7-.24 2.26m-1.9 14.92l-.6 3.93-3.1 16.22-2.24 9.32m-3.5 14.64l-1.8 7.5-5.4 21.7m-3.65 14.6l-4.7 18.85-2.02 10.5m-2.17 14.87l-.33 3.13-.34 5.35-.1 4.42.07 3.72.2 3.2.3 2.8.36 2.47.42 2.2.46 2 .18.6m6.73 13.3l.1.1.8.9.8.83.87.8.9.78.94.75 1 .72 1.05.7 1.1.67 1.18.64 1.26.62 1.33.6.93.37" stroke="#b2b2b2" stroke-width="3" fill="none"/><path d="M310 311.5l1.5-.05-.03 1.62-3-.06.03-1.57" fill="#b2b2b2"/><path d="M313.7 529.23l-14.8 2.3 1.46-9.14z" stroke="#b2b2b2" stroke-width="3" fill="#b2b2b2"/><path d="M477.02 270.24l-.1.03-.2.08-.2.1-.23.1-.23.1-.23.14-.25.14-.26.18-.26.2-.28.23-.3.27-.3.3-.35.37-.37.4-.4.5-.43.6-.48.73-.53.9-.6 1.08-.7 1.4-.78 1.77-.5 1.27m-4.03 13.27l-.6 2.36-2.33 11.08-2.3 13.82m-2.02 13.73l-3.5 27.52m-1.74 13.77l-3.5 27.52M447.3 418l-3.5 27.53m-1.73 13.76l-3.5 27.53m-2.42 13.65l-.58 2.76-1.73 6.8-1.17 3.87" stroke="#b2b2b2" stroke-width="3" fill="none"/><path d="M478.5 270l.05 1.5-1.56.03-.07-3 1.64-.03" fill="#b2b2b2"/><path d="M424.27 526l4.33-14.35 7.6 5.3z" stroke="#b2b2b2" stroke-width="3" fill="#b2b2b2"/><path d="M629.94 143l-.05.65-.14 1.03-.17 1-.24 1-.28.98-.33.98-.38.98-.45 1-.52 1-.6 1-.66 1.05-.78 1.08-.9 1.12-1.04 1.17-1.22 1.24-.76.7m-15.52 10.1l-5.9 2.8-14.82 6.1-13.54 5.44m-17.1 7.26l-1.2.57-4.44 2.4-3.3 2-2.6 1.75-2.07 1.56-1.72 1.43-.27.25" stroke="#b2b2b2" stroke-width="3" fill="none"/><path d="M630 141.5l1.5-.05-.04 1.63-3-.08.04-1.57" fill="#b2b2b2"/><path d="M532.18 214.16l2.25-14.83 8.3 4.16z" stroke="#b2b2b2" stroke-width="3" fill="#b2b2b2"/><path d="M683 90.03l2.16.05 3.5.22 3.4.36 3.28.48 3.18.62.23.05m15.03 5.02l2.25 1.07 2.74 1.43 2.7 1.57 2.66 1.7 2.63 1.86 2.62 2 2.6 2.17 2.56 2.34 2.55 2.52 1.98 2.14m9.6 12.62l.8 1.2 2.38 4 2.32 4.3 2.25 4.63 2.16 4.97 2.05 5.33 1.43 4.25m4.12 15.32l1.07 5.3 1.1 7 .4 3.36" stroke="#b2b2b2" stroke-width="3" fill="none"/><path d="M683.07 88.53l-.06 3-1.57-.03.07-1.5-.05-1.5" fill="#b2b2b2"/><path d="M769.7 203.65l-5.47-13.96 9.25-.56z" stroke="#b2b2b2" stroke-width="3" fill="#b2b2b2"/><path d="M1009.97 303l-.02.64-.13 2.05-.2 1.96-.3 1.9-.35 1.85-.44 1.8-.5 1.78-.58 1.74-.55 1.46m-8.05 13.24l-1.14 1.32-1.88 2.05-2.2 2.16-2.6 2.35-3.1 2.6-3.93 3-5.28 3.66-3.9 2.46m-13.24 8.15l-20.3 12.27-5.27 3.67-.78.6m-11.7 10.23l-1.23 1.33-1.67 1.94-1.46 1.87-1.3 1.82-1.15 1.76-1.03 1.74-.93 1.72-.22.46" stroke="#b2b2b2" stroke-width="3" fill="none"/><path d="M1010 301.5l1.5-.05-.03 1.62-3-.06.03-1.57" fill="#b2b2b2"/><path d="M911.08 413.77l-1.34-14.94 9.03 2.06z" stroke="#b2b2b2" stroke-width="3" fill="#b2b2b2"/><path d="M909.97 523l-.07 3.2-.27 4.3-.42 4-.44 3.07m-3.57 14.16l-1.03 2.74-1.27 3-1.42 3.02-1.6 3.05-1.83 3.17-2.14 3.37-2.6 3.73-2.46 3.24m-9.34 11.26l-11.4 13.34-3.4 4.5-2.6 3.74-.82 1.28m-6.84 12.9l-.6 1.45-1.14 3.05-1 3.1-.9 3.22-.74 3.12" stroke="#b2b2b2" stroke-width="3" fill="none"/><path d="M910 521.5l1.5-.05-.03 1.62-3-.06.03-1.57" fill="#b2b2b2"/><path d="M850.5 653.67L847.3 639l9.23.94z" stroke="#b2b2b2" stroke-width="3" fill="#b2b2b2"/><path d="M723 450.13l.26.06.36.07.35.1.37.12.36.12.38.16.38.18.4.2.4.24.42.27.44.3.46.35.48.4.5.46.56.53.57.63.6.72.7.85.72 1 .8 1.22.78 1.3m5.75 13.06l1.1 3.16 2.23 7.4 2.87 11.3 1.2 5.74m2.94 14l4.7 28.2m2.37 14.1l4.72 28.22m2.35 14.1l4.7 28.2m2.37 14.1l4.13 24.67.9 3.5m3.78 13.77l.42 1.42 1.8 5.2 1.52 3.84 1.3 2.9" stroke="#b2b2b2" stroke-width="3" fill="none"/><path d="M723.07 448.53l-.06 3-1.57-.03.07-1.5-.05-1.5" fill="#b2b2b2"/><path d="M795.02 706.6l-13.45-6.63 6.48-6.64z" stroke="#b2b2b2" stroke-width="3" fill="#b2b2b2"/><path d="M669.97 503l-.02.88-.14 2.28-.23 2.22-.3 2.16-.42 2.1-.48 2.07-.57 2.05-.12.35m-6.06 12.93l-.56.88-1.48 2.14-1.66 2.18-1.86 2.26-2.12 2.35-2.42 2.47-2.8 2.6-3.24 2.8-3.62 2.88m-11.82 8.1l-6.78 4.1-12.12 6.63-6.16 3.16m-12.76 6.52l-25.5 13.05m-12.66 6.72l-5.15 3.1-5.86 3.9-4.67 3.4-3.85 3.04-3.25 2.8-.46.42m-9.68 10.52l-.7.92-1.48 2.13-1.32 2.06-1.18 2.05-1.05 2.03-.96 2-.5 1.17" stroke="#b2b2b2" stroke-width="3" fill="none"/><path d="M670 501.5l1.5-.05-.03 1.62-3-.06.03-1.57" fill="#b2b2b2"/><path d="M510.94 653.74l-1.8-14.9 9.1 1.8z" stroke="#b2b2b2" stroke-width="3" fill="#b2b2b2"/><path d="M769.96 313l-.1 1.23-.16 1.3-.22 1.27-.3 1.24-.33 1.22-.4 1.22-.5 1.2-.54 1.23-.62 1.24-.73 1.25m-8.78 9.68l-.7.58-2.56 1.93-3.22 2.18-4.25 2.57-6.1 3.28-5.74 2.72m-11.93 5.5l-23.2 10.52-.7.37m-11.33 6.62L686 372.4l-2.57 1.94-2.1 1.75-1.76 1.6-1.48 1.52-.55.6" stroke="#b2b2b2" stroke-width="3" fill="none"/><path d="M770 311.5l1.5-.05-.04 1.63-3-.08.04-1.57" fill="#b2b2b2"/><path d="M671.82 394l1.05-14.96 8.6 3.47z" stroke="#b2b2b2" stroke-width="3" fill="#b2b2b2"/><path d="M530.03 323l.17 7.85.56 9.02m2.1 16.76l.08.62 1.5 7.92 1.74 7.38 1.9 6.85 2.06 6.3 1.3 3.54m6.9 15.4l.84 1.58 2.37 4.1 2.4 3.8 2.4 3.45 2.42 3.2 2.43 2.93 2.44 2.7 2.45 2.5 2.44 2.32.18.15m13.75 9.76l1.2.66 2.64 1.3 2.7 1.2 2.72 1.07 2.8.97 2.85.87.73.2" stroke="#b2b2b2" stroke-width="3" fill="none"/><path d="M530 321.5l1.5-.05.03 1.56-3 .07-.03-1.64" fill="#b2b2b2"/><path d="M613.68 449.38l-14.73 2.8 1.17-9.2z" stroke="#b2b2b2" stroke-width="3" fill="#b2b2b2"/></g></svg>