<svg xmlns="http://www.w3.org/2000/svg" xmlns:xlink="http://www.w3.org/1999/xlink" version="1.1" viewBox="0 0 2390.00008038298 813.0000079325309" style="background: #ffffff"><g id="v-3"  transform="matrix(1,0,0,1,0,0)"><g id="j_94"    transform="translate(20,768.0000079325309)"><g id="v-1538"><text  id="v-1539" font-size="22px" y="0.8em" xml:space="preserve" font-weight="normal" text-anchor="start" fill="#aaaaaa" pointer-events="none" font-family="Open Sans" transform="matrix(1,0,0,1,0,0)" display="block"><tspan id="v-1540"  dy="0em" x="0">Wednesday, March 8, 2023 at 3:02 PM Central European Standard Time</tspan></text></g></g><g id="j_93"    transform="translate(20,722.0000079325309)"><g id="v-1534"><text  id="v-1535" font-size="36px" y="0.8em" xml:space="preserve" font-weight="normal" text-anchor="start" fill="#000000" pointer-events="none" font-family="Open Sans" transform="matrix(1,0,0,1,0,0)" display="block"><tspan id="v-1536"  dy="0em" x="0">[Component] MILA - Mobile application</tspan></text></g></g><g id="j_87"    transform="translate(200,200)" style=""><g id="v-1441"><rect  id="v-1442" width="1990" height="413" rx="0" ry="0" fill="#ffffff" stroke="#c92d39" stroke-width="8" stroke-dasharray="20,20" pointer-events="none"></rect><text  id="v-1443" font-size="24px" y="374" xml:space="preserve" font-weight="normal" fill="#c92d39" x="10" text-anchor="start" pointer-events="visible" font-family="Open Sans" transform="matrix(1,0,0,1,15,0)"><tspan id="v-1446"  dy="0em" x="0">Mobile application</tspan></text><text  id="v-1444" font-size="19px" y="398" xml:space="preserve" font-weight="normal" fill="#c92d39" x="10" text-anchor="start" pointer-events="visible" font-family="Open Sans" transform="matrix(1,0,0,1,15,0)"><tspan id="v-1447"  dy="0em" x="0">[Container]</tspan></text><image  id="v-1445" pointer-events="visible"></image></g></g><g id="j_88"    transform="translate(220,220)" style=""><g  id="v-1451" style="opacity: 1;"><rect  id="v-1452" rx="1" ry="1" stroke="#7ab648" stroke-width="8" pointer-events="visiblePainted" fill="#c3f7c8" width="450" height="300" style="fill: rgb(195, 247, 200); stroke: rgb(122, 182, 72);"></rect><text  id="v-1453" font-size="34" y="0.8em" xml:space="preserve" font-weight="bold" text-anchor="middle" pointer-events="visible" font-family="Open Sans" fill="#000000" transform="matrix(1,0,0,1,225,75)" style="fill: rgb(0, 0, 0);"><tspan id="v-1458"  dy="0em" x="0">Acquisition</tspan></text><text  id="v-1454" font-size="19" y="0.8em" xml:space="preserve" text-anchor="middle" font-family="Open Sans" fill="#000000" transform="matrix(1,0,0,1,225,117.5)" style="fill: rgb(0, 0, 0);"><tspan id="v-1459"  dy="0em" x="0">[Component: C#]</tspan></text><text  id="v-1455" font-size="24" y="0.8em" xml:space="preserve" text-anchor="middle" font-family="Open Sans" fill="#000000" transform="matrix(1,0,0,1,225,165)" style="fill: rgb(0, 0, 0);"><tspan id="v-1460"  dy="0em" x="0">Handles smartphone built-in</tspan><tspan id="v-1461"  dy="1.2em" x="0">capabilities.</tspan></text><text  id="v-1456" font-weight="bold" text-anchor="middle" font-family="Open Sans" fill="#000000" font-size="24" transform="matrix(1,0,0,1,225,270)" style="fill: rgb(0, 0, 0);" display="none"></text><image  id="v-1457"></image></g></g><g id="j_89"    transform="translate(970,220)" style=""><g  id="v-1465" style="opacity: 1;"><rect  id="v-1466" rx="1" ry="1" stroke="#7ab648" stroke-width="8" pointer-events="visiblePainted" fill="#c3f7c8" width="450" height="300" style="fill: rgb(195, 247, 200); stroke: rgb(122, 182, 72);"></rect><text  id="v-1467" font-size="34" y="0.8em" xml:space="preserve" font-weight="bold" text-anchor="middle" pointer-events="visible" font-family="Open Sans" fill="#000000" transform="matrix(1,0,0,1,225,75)" style="fill: rgb(0, 0, 0);"><tspan id="v-1472"  dy="0em" x="0">Preparation</tspan></text><text  id="v-1468" font-size="19" y="0.8em" xml:space="preserve" text-anchor="middle" font-family="Open Sans" fill="#000000" transform="matrix(1,0,0,1,225,117.5)" style="fill: rgb(0, 0, 0);"><tspan id="v-1473"  dy="0em" x="0">[Component: C#]</tspan></text><text  id="v-1469" font-size="24" y="0.8em" xml:space="preserve" text-anchor="middle" font-family="Open Sans" fill="#000000" transform="matrix(1,0,0,1,225,165)" style="fill: rgb(0, 0, 0);"><tspan id="v-1474"  dy="0em" x="0">Provides images tooling such as</tspan><tspan id="v-1475"  dy="1.2em" x="0">cropping &amp; stitching facilities.</tspan></text><text  id="v-1470" font-weight="bold" text-anchor="middle" font-family="Open Sans" fill="#000000" font-size="24" transform="matrix(1,0,0,1,225,270)" style="fill: rgb(0, 0, 0);" display="none"></text><image  id="v-1471"></image></g></g><g id="j_90"    transform="translate(1720,220)" style=""><g  id="v-1479" style="opacity: 1;"><rect  id="v-1480" rx="1" ry="1" stroke="#7ab648" stroke-width="8" pointer-events="visiblePainted" fill="#c3f7c8" width="450" height="300" style="fill: rgb(195, 247, 200); stroke: rgb(122, 182, 72);"></rect><text  id="v-1481" font-size="34" y="0.8em" xml:space="preserve" font-weight="bold" text-anchor="middle" pointer-events="visible" font-family="Open Sans" fill="#000000" transform="matrix(1,0,0,1,225,90)" style="fill: rgb(0, 0, 0);"><tspan id="v-1486"  dy="0em" x="0">Uploading</tspan></text><text  id="v-1482" font-size="19" y="0.8em" xml:space="preserve" text-anchor="middle" font-family="Open Sans" fill="#000000" transform="matrix(1,0,0,1,225,132.5)" style="fill: rgb(0, 0, 0);"><tspan id="v-1487"  dy="0em" x="0">[Component: C#]</tspan></text><text  id="v-1483" font-size="24" y="0.8em" xml:space="preserve" text-anchor="middle" font-family="Open Sans" fill="#000000" transform="matrix(1,0,0,1,225,180)" style="fill: rgb(0, 0, 0);"><tspan id="v-1488"  dy="0em" x="0">Handles back-end communication.</tspan></text><text  id="v-1484" font-weight="bold" text-anchor="middle" font-family="Open Sans" fill="#000000" font-size="24" transform="matrix(1,0,0,1,225,270)" style="fill: rgb(0, 0, 0);" display="none"></text><image  id="v-1485"></image></g></g><g id="j_91"   ><path  stroke="#707070" id="v-1506" stroke-width="2" stroke-dasharray="30 30" fill="none" d="M 1420 370 1700 370" style="opacity: 1;"></path><path  fill="black" stroke="black" transform="translate(1420,370) scale(1,1) rotate(0)"></path><path  fill="#707070" stroke="#707070" id="v-1508" d="M 20 0 L 0 10 L 20 20 z" transform="translate(1720,380) scale(1,1) rotate(-180)" style="opacity: 1;"></path><path  id="v-1507" fill="none" d="M 1420 370 1700 370" style=""></path><title ></title><g ><g  id="v-1494" label-idx="0" cursor="move" transform="translate(1560, 370)" style="opacity: 1;"><rect id="v-1496" fill="#ffffff" rx="3" ry="3" stroke="#ffffff" stroke-width="20px" pointer-events="none" width="103.58170318603516" height="32.92684555053711" transform="matrix(1,0,0,1,-51.7,-16.5)"></rect><text id="v-1495" font-size="24px" y="0.8em" xml:space="preserve" text-anchor="middle" pointer-events="none" fill="#707070" font-family="Open Sans" font-weight="normal" transform="matrix(1,0,0,1,0,-10.5)"><tspan id="v-1497"  dy="0em" x="0">packages</tspan></text></g><g  id="v-1498" label-idx="1" cursor="move" transform="translate(1560, 401.2)" style="opacity: 1;"><rect id="v-1500" fill="#ffffff" rx="3" ry="3" pointer-events="none" width="0" height="0" transform="matrix(1,0,0,1,0,0)"></rect><text id="v-1499" font-size="19px" y="0.8em" display="none" xml:space="preserve" text-anchor="middle" pointer-events="none" fill="#707070" font-family="Open Sans" font-weight="normal" transform="matrix(1,0,0,1,0,0)"><tspan id="v-1501"  dy="0em" x="0" style="fill-opacity: 0; stroke-opacity: 0;">-</tspan></text></g><g  id="v-1502" label-idx="2" cursor="move" transform="translate(1560, 425.2)" style="opacity: 1;"><rect id="v-1504" fill="#ffffff" rx="3" ry="3" pointer-events="none"  display="none" width="0" height="0" transform="matrix(1,0,0,1,0,0)"></rect><text id="v-1503" font-size="19px" y="0.8em" display="none" xml:space="preserve" text-anchor="middle" pointer-events="none" fill="#707070" font-family="Open Sans" font-weight="normal"  transform="matrix(1,0,0,1,0,0)"><tspan id="v-1505"  dy="0em" x="0" style="fill-opacity: 0; stroke-opacity: 0;">-</tspan></text></g></g><g  display="none"></g><g  id="v-1510" display="none"><g  id="v-1491"><path  end="source" d="M 26 0 L 0 13 L 26 26 z"></path></g><g  id="v-1492"><path  end="target" d="M 26 0 L 0 13 L 26 26 z"></path></g></g><g  id="v-1509" display="none"><g  id="v-1490" transform="translate(1460, 370) "><g  event="remove"><circle r="11"></circle><path transform="scale(.8) translate(-16, -16)" d="M24.778,21.419 19.276,15.917 24.777,10.415 21.949,7.585 16.447,13.087 10.945,7.585 8.117,10.415 13.618,15.917 8.116,21.419 10.946,24.248 16.447,18.746 21.948,24.248z"></path><title>Remove link.</title></g><g  event="link:options"><circle r="11" transform="translate(25)"></circle><path fill="white" transform="scale(.55) translate(29, -16)" d="M31.229,17.736c0.064-0.571,0.104-1.148,0.104-1.736s-0.04-1.166-0.104-1.737l-4.377-1.557c-0.218-0.716-0.504-1.401-0.851-2.05l1.993-4.192c-0.725-0.91-1.549-1.734-2.458-2.459l-4.193,1.994c-0.647-0.347-1.334-0.632-2.049-0.849l-1.558-4.378C17.165,0.708,16.588,0.667,16,0.667s-1.166,0.041-1.737,0.105L12.707,5.15c-0.716,0.217-1.401,0.502-2.05,0.849L6.464,4.005C5.554,4.73,4.73,5.554,4.005,6.464l1.994,4.192c-0.347,0.648-0.632,1.334-0.849,2.05l-4.378,1.557C0.708,14.834,0.667,15.412,0.667,16s0.041,1.165,0.105,1.736l4.378,1.558c0.217,0.715,0.502,1.401,0.849,2.049l-1.994,4.193c0.725,0.909,1.549,1.733,2.459,2.458l4.192-1.993c0.648,0.347,1.334,0.633,2.05,0.851l1.557,4.377c0.571,0.064,1.148,0.104,1.737,0.104c0.588,0,1.165-0.04,1.736-0.104l1.558-4.377c0.715-0.218,1.399-0.504,2.049-0.851l4.193,1.993c0.909-0.725,1.733-1.549,2.458-2.458l-1.993-4.193c0.347-0.647,0.633-1.334,0.851-2.049L31.229,17.736zM16,20.871c-2.69,0-4.872-2.182-4.872-4.871c0-2.69,2.182-4.872,4.872-4.872c2.689,0,4.871,2.182,4.871,4.872C20.871,18.689,18.689,20.871,16,20.871z"></path><title>Link options.</title></g></g></g></g><g id="j_92"   ><path  stroke="#707070" id="v-1528" stroke-width="2" stroke-dasharray="30 30" fill="none" d="M 670 370 950 370" style="opacity: 1;"></path><path  fill="black" stroke="black" transform="translate(670,370) scale(1,1) rotate(0)"></path><path  fill="#707070" stroke="#707070" id="v-1530" d="M 20 0 L 0 10 L 20 20 z" transform="translate(970,380) scale(1,1) rotate(-180)" style="opacity: 1;"></path><path  id="v-1529" fill="none" d="M 670 370 950 370" style=""></path><title ></title><g ><g  id="v-1516" label-idx="0" cursor="move" transform="translate(810, 370)" style="opacity: 1;"><rect id="v-1518" fill="#ffffff" rx="3" ry="3" stroke="#ffffff" stroke-width="20px" pointer-events="none" width="63.264583587646484" height="32.92684555053711" transform="matrix(1,0,0,1,-32.5,-16.5)"></rect><text id="v-1517" font-size="24px" y="0.8em" xml:space="preserve" text-anchor="middle" pointer-events="none" fill="#707070" font-family="Open Sans" font-weight="normal" transform="matrix(1,0,0,1,0,-10.5)"><tspan id="v-1519"  dy="0em" x="0">feeds</tspan></text></g><g  id="v-1520" label-idx="1" cursor="move" transform="translate(810, 401.2)" style="opacity: 1;"><rect id="v-1522" fill="#ffffff" rx="3" ry="3" pointer-events="none" width="0" height="0" transform="matrix(1,0,0,1,0,0)"></rect><text id="v-1521" font-size="19px" y="0.8em" display="none" xml:space="preserve" text-anchor="middle" pointer-events="none" fill="#707070" font-family="Open Sans" font-weight="normal" transform="matrix(1,0,0,1,0,0)"><tspan id="v-1523"  dy="0em" x="0" style="fill-opacity: 0; stroke-opacity: 0;">-</tspan></text></g><g  id="v-1524" label-idx="2" cursor="move" transform="translate(810, 425.2)" style="opacity: 1;"><rect id="v-1526" fill="#ffffff" rx="3" ry="3" pointer-events="none"  display="none" width="0" height="0" transform="matrix(1,0,0,1,0,0)"></rect><text id="v-1525" font-size="19px" y="0.8em" display="none" xml:space="preserve" text-anchor="middle" pointer-events="none" fill="#707070" font-family="Open Sans" font-weight="normal"  transform="matrix(1,0,0,1,0,0)"><tspan id="v-1527"  dy="0em" x="0" style="fill-opacity: 0; stroke-opacity: 0;">-</tspan></text></g></g><g  display="none"></g><g  id="v-1532" display="none"><g  id="v-1513"><path  end="source" d="M 26 0 L 0 13 L 26 26 z"></path></g><g  id="v-1514"><path  end="target" d="M 26 0 L 0 13 L 26 26 z"></path></g></g><g  id="v-1531" display="none"><g  id="v-1512" transform="translate(710, 370) "><g  event="remove"><circle r="11"></circle><path transform="scale(.8) translate(-16, -16)" d="M24.778,21.419 19.276,15.917 24.777,10.415 21.949,7.585 16.447,13.087 10.945,7.585 8.117,10.415 13.618,15.917 8.116,21.419 10.946,24.248 16.447,18.746 21.948,24.248z"></path><title>Remove link.</title></g><g  event="link:options"><circle r="11" transform="translate(25)"></circle><path fill="white" transform="scale(.55) translate(29, -16)" d="M31.229,17.736c0.064-0.571,0.104-1.148,0.104-1.736s-0.04-1.166-0.104-1.737l-4.377-1.557c-0.218-0.716-0.504-1.401-0.851-2.05l1.993-4.192c-0.725-0.91-1.549-1.734-2.458-2.459l-4.193,1.994c-0.647-0.347-1.334-0.632-2.049-0.849l-1.558-4.378C17.165,0.708,16.588,0.667,16,0.667s-1.166,0.041-1.737,0.105L12.707,5.15c-0.716,0.217-1.401,0.502-2.05,0.849L6.464,4.005C5.554,4.73,4.73,5.554,4.005,6.464l1.994,4.192c-0.347,0.648-0.632,1.334-0.849,2.05l-4.378,1.557C0.708,14.834,0.667,15.412,0.667,16s0.041,1.165,0.105,1.736l4.378,1.558c0.217,0.715,0.502,1.401,0.849,2.049l-1.994,4.193c0.725,0.909,1.549,1.733,2.459,2.458l4.192-1.993c0.648,0.347,1.334,0.633,2.05,0.851l1.557,4.377c0.571,0.064,1.148,0.104,1.737,0.104c0.588,0,1.165-0.04,1.736-0.104l1.558-4.377c0.715-0.218,1.399-0.504,2.049-0.851l4.193,1.993c0.909-0.725,1.733-1.549,2.458-2.458l-1.993-4.193c0.347-0.647,0.633-1.334,0.851-2.049L31.229,17.736zM16,20.871c-2.69,0-4.872-2.182-4.872-4.871c0-2.69,2.182-4.872,4.872-4.872c2.689,0,4.871,2.182,4.871,4.872C20.871,18.689,18.689,20.871,16,20.871z"></path><title>Link options.</title></g></g></g></g></g><defs id="v-4"></defs></svg>