<svg xmlns="http://www.w3.org/2000/svg" xmlns:xlink="http://www.w3.org/1999/xlink" version="1.1" viewBox="0 0 3038.9994370386617 1651.9997102391585" style="background: #ffffff"><g id="v-3"  transform="matrix(1,0,0,1,0,0)"><g id="j_121"    transform="translate(20,1606.9997102391585)"><g id="v-2022"><text  id="v-2023" font-size="22px" y="0.8em" xml:space="preserve" font-weight="normal" text-anchor="start" fill="#aaaaaa" pointer-events="none" font-family="Open Sans" transform="matrix(1,0,0,1,0,0)"><tspan id="v-2024"  dy="0em" x="0">Wednesday, March 8, 2023 at 3:02 PM Central European Standard Time</tspan></text></g></g><g id="j_120"    transform="translate(20,1560.9997102391585)"><g id="v-2018"><text  id="v-2019" font-size="36px" y="0.8em" xml:space="preserve" font-weight="normal" text-anchor="start" fill="#000000" pointer-events="none" font-family="Open Sans" transform="matrix(1,0,0,1,0,0)"><tspan id="v-2020"  dy="0em" x="0">[Container] MILA</tspan></text></g></g><g id="j_107"    transform="translate(830,199)" style=""><g id="v-1751"><rect  id="v-1752" width="1240" height="1252" rx="0" ry="0" fill="#ffffff" stroke="#0c7cba" stroke-width="8" stroke-dasharray="20,20" pointer-events="none"></rect><text  id="v-1753" font-size="24px" y="1213" xml:space="preserve" font-weight="normal" fill="#0c7cba" x="10" text-anchor="start" pointer-events="visible" font-family="Open Sans" transform="matrix(1,0,0,1,15,0)"><tspan id="v-1756"  dy="0em" x="0">MILA</tspan></text><text  id="v-1754" font-size="19px" y="1237" xml:space="preserve" font-weight="normal" fill="#0c7cba" x="10" text-anchor="start" pointer-events="visible" font-family="Open Sans" transform="matrix(1,0,0,1,15,0)"><tspan id="v-1757"  dy="0em" x="0">[Software System]</tspan></text><image  id="v-1755" pointer-events="visible"></image></g></g><g id="j_108"    transform="translate(2389,1058)" style="" ><g  id="v-1761" style="opacity: 1;"><rect  id="v-1762" rx="1" ry="1" stroke="#666666" stroke-width="8" pointer-events="visiblePainted" fill="#f5f5f5" width="450" height="300" style="fill: rgb(245, 245, 245); stroke: rgb(102, 102, 102);"></rect><text  id="v-1763" font-size="34" y="0.8em" xml:space="preserve" font-weight="bold" text-anchor="middle" pointer-events="visible" font-family="Open Sans" fill="#000000" transform="matrix(1,0,0,1,225,75)" style="fill: rgb(0, 0, 0);"><tspan id="v-1768"  dy="0em" x="0">Icarus</tspan></text><text  id="v-1764" font-size="19" y="0.8em" xml:space="preserve" text-anchor="middle" font-family="Open Sans" fill="#000000" transform="matrix(1,0,0,1,225,117.5)" style="fill: rgb(0, 0, 0);"><tspan id="v-1769"  dy="0em" x="0">[Software System]</tspan></text><text  id="v-1765" font-size="24" y="0.8em" xml:space="preserve" text-anchor="middle" font-family="Open Sans" fill="#000000" transform="matrix(1,0,0,1,225,165)" style="fill: rgb(0, 0, 0);"><tspan id="v-1770"  dy="0em" x="0">Provides powerful facilities to work</tspan><tspan id="v-1771"  dy="1.2em" x="0">with physics materials.</tspan></text><text  id="v-1766" font-weight="bold" text-anchor="middle" font-family="Open Sans" fill="#000000" font-size="24" transform="matrix(1,0,0,1,225,270)" y="0.8em" xml:space="preserve" display="none" style="fill: rgb(0, 0, 0);"><tspan id="v-1772"  dy="0em" x="0">#</tspan></text><image  id="v-1767"></image></g></g><g id="j_109"    transform="translate(200,444)" style=""><g  id="v-1778" style="opacity: 1;"><rect  x="0" y="160" width="400" height="240" rx="70" id="v-1780" stroke="#834187" stroke-width="8" pointer-events="visiblePainted" fill="#f4d9ff" style="fill: rgb(244, 217, 255); stroke: rgb(131, 65, 135);"></rect><circle  cx="200" cy="88.88888888888889" r="88.88888888888889" id="v-1779" stroke="#834187" stroke-width="8" pointer-events="visiblePainted" fill="#f4d9ff" style="fill: rgb(244, 217, 255); stroke: rgb(131, 65, 135);"></circle><line  x1="80" y1="266.6666666666667" x2="80" y2="400" id="v-1786" stroke="#834187" stroke-width="8" style="stroke: rgb(131, 65, 135);"></line><line  x1="320" y1="266.6666666666667" x2="320" y2="400" id="v-1787" stroke="#834187" stroke-width="8" style="stroke: rgb(131, 65, 135);"></line><text  id="v-1781" font-size="34px" y="0.8em" xml:space="preserve" font-weight="bold" text-anchor="middle" pointer-events="visible" font-family="Open Sans" fill="#000000" transform="matrix(1,0,0,1,200,205)" style="fill: rgb(0, 0, 0);"><tspan id="v-1788"  dy="0em" x="0">Material scientist</tspan></text><text  id="v-1782" font-size="19px" y="0.8em" xml:space="preserve" text-anchor="middle" font-family="Open Sans" fill="#000000" transform="matrix(1,0,0,1,200,247.5)" style="fill: rgb(0, 0, 0);"><tspan id="v-1789"  dy="0em" x="0">[Person]</tspan></text><text  id="v-1783" font-size="24px" y="0.8em" xml:space="preserve" text-anchor="middle" font-family="Open Sans" fill="#000000" transform="matrix(1,0,0,1,200,295)" style="fill: rgb(0, 0, 0);"><tspan id="v-1790"  dy="0em" x="0">Leverages smartphone facilities</tspan><tspan id="v-1791"  dy="1.2em" x="0">to capture materials properties.</tspan></text><text  id="v-1784" font-weight="bold" text-anchor="middle" font-family="Open Sans" fill="#000000" font-size="24" transform="matrix(1,0,0,1,200,371.2)" style="fill: rgb(0, 0, 0);" display="none"></text><image  id="v-1785"></image></g></g><g id="j_110"    transform="translate(850,219)" style="" ><g  id="v-1795" style="opacity: 1;"><rect  id="v-1796" rx="10" ry="10" stroke="#c92d39" stroke-width="2" pointer-events="visiblePainted" fill="#c92d39" width="450" height="300" style="fill: rgb(201, 45, 57); stroke: rgb(201, 45, 57);"></rect><rect  id="v-1797" rx="10" ry="10" stroke="#c92d39" stroke-width="0" pointer-events="visiblePainted" fill="#ffd9d9" width="430" height="250" x="10" y="40" style="fill: rgb(255, 217, 217);"></rect><ellipse  id="v-1804" fill="#ffd9d9" cx="20" cy="20" rx="10" ry="10" style="fill: rgb(255, 217, 217);"></ellipse><ellipse  id="v-1805" fill="#ffd9d9" cx="50" cy="20" rx="10" ry="10" style="fill: rgb(255, 217, 217);"></ellipse><ellipse  id="v-1806" fill="#ffd9d9" cx="80" cy="20" rx="10" ry="10" style="fill: rgb(255, 217, 217);"></ellipse><rect  id="v-1798" rx="10" ry="10" stroke="#444444" stroke-width="0" pointer-events="visiblePainted" fill="#ffd9d9" width="340" height="20" x="100" y="10" style="fill: rgb(255, 217, 217);"></rect><text  id="v-1799" font-size="34" y="0.8em" xml:space="preserve" font-weight="bold" text-anchor="middle" pointer-events="visible" font-family="Open Sans" fill="#000000" transform="matrix(1,0,0,1,225,95)" style="fill: rgb(0, 0, 0);"><tspan id="v-1807"  dy="0em" x="0">Web application</tspan></text><text  id="v-1800" font-size="19" y="0.8em" xml:space="preserve" text-anchor="middle" font-family="Open Sans" fill="#000000" transform="matrix(1,0,0,1,225,137.5)" style="fill: rgb(0, 0, 0);"><tspan id="v-1808"  dy="0em" x="0">[Container: Blazor]</tspan></text><text  id="v-1801" font-size="24" y="0.8em" xml:space="preserve" text-anchor="middle" font-family="Open Sans" fill="#000000" transform="matrix(1,0,0,1,225,185)" style="fill: rgb(0, 0, 0);"><tspan id="v-1809"  dy="0em" x="0">Provides limited facilities to upload</tspan><tspan id="v-1810"  dy="1.2em" x="0">constrained pictures set.</tspan></text><text  id="v-1802" font-weight="bold" text-anchor="middle" font-family="Open Sans" fill="#000000" font-size="24" transform="matrix(1,0,0,1,225,270)" y="0.8em" display="none" xml:space="preserve" style="fill: rgb(0, 0, 0);"><tspan id="v-1811"  dy="0em" x="0" style="fill-opacity: 0; stroke-opacity: 0;">-</tspan></text><image  id="v-1803"></image></g></g><g id="j_111"    transform="translate(925,793)" style="" ><g  id="v-1819" style="opacity: 1;"><rect  id="v-1820" rx="20" ry="20" stroke="#c92d39" stroke-width="2" pointer-events="visiblePainted" fill="#c92d39" width="300" height="450" style="fill: rgb(201, 45, 57); stroke: rgb(201, 45, 57);"></rect><rect  id="v-1821" rx="5" ry="5" stroke="#c92d39" stroke-width="0" pointer-events="visiblePainted" fill="#ffd9d9" width="280" height="370" x="10" y="40" style="fill: rgb(255, 217, 217);"></rect><ellipse  id="v-1827" fill="#ffd9d9" cx="150" cy="430" rx="10" ry="10" style="fill: rgb(255, 217, 217);"></ellipse><line  style="stroke-width: 2px; stroke: rgb(255, 217, 217);" id="v-1828" stroke="#ffd9d9" x1="125" y1="20" x2="175" y2="20"></line><text  id="v-1822" font-size="34" y="0.8em" xml:space="preserve" font-weight="bold" text-anchor="middle" pointer-events="visible" font-family="Open Sans" fill="#000000" transform="matrix(1,0,0,1,150,98.8)" style="fill: rgb(0, 0, 0);"><tspan id="v-1829"  dy="0em" x="0">Mobile</tspan><tspan id="v-1830"  dy="1.2em" x="0">application</tspan></text><text  id="v-1823" font-size="19" y="0.8em" xml:space="preserve" text-anchor="middle" font-family="Open Sans" fill="#000000" transform="matrix(1,0,0,1,150,183.8)" style="fill: rgb(0, 0, 0);"><tspan id="v-1831"  dy="0em" x="0">[Container: Xamarin]</tspan></text><text  id="v-1824" font-size="24" y="0.8em" xml:space="preserve" text-anchor="middle" font-family="Open Sans" fill="#000000" transform="matrix(1,0,0,1,150,231.2)" style="fill: rgb(0, 0, 0);"><tspan id="v-1832"  dy="0em" x="0">Provides uncluttered</tspan><tspan id="v-1833"  dy="1.2em" x="0">interface to ease</tspan><tspan id="v-1834"  dy="1.2em" x="0">pictures shooting,</tspan><tspan id="v-1835"  dy="1.2em" x="0">stiching &amp; uploading.</tspan></text><text  id="v-1825" font-weight="bold" text-anchor="middle" font-family="Open Sans" fill="#000000" font-size="24" transform="matrix(1,0,0,1,150,405)" y="0.8em" xml:space="preserve" display="none" style="fill: rgb(0, 0, 0);"><tspan id="v-1836"  dy="0em" x="0">+</tspan></text><image  id="v-1826"></image></g></g><g id="j_112"    transform="translate(1600,494)" style="" ><g  id="v-1840" style="opacity: 1;"><rect  id="v-1841" rx="1" ry="1" stroke="#c92d39" stroke-width="8" pointer-events="visiblePainted" fill="#ffd9d9" width="450" height="300" style="fill: rgb(255, 217, 217); stroke: rgb(201, 45, 57);"></rect><text  id="v-1842" font-size="34" y="0.8em" xml:space="preserve" font-weight="bold" text-anchor="middle" pointer-events="visible" font-family="Open Sans" fill="#000000" transform="matrix(1,0,0,1,225,30)" style="fill: rgb(0, 0, 0);"><tspan id="v-1847"  dy="0em" x="0">API application</tspan></text><text  id="v-1843" font-size="19" y="0.8em" xml:space="preserve" text-anchor="middle" font-family="Open Sans" fill="#000000" transform="matrix(1,0,0,1,225,72.5)" style="fill: rgb(0, 0, 0);"><tspan id="v-1848"  dy="0em" x="0">[Container]</tspan></text><text  id="v-1844" font-size="24" y="0.8em" xml:space="preserve" text-anchor="middle" font-family="Open Sans" fill="#000000" transform="matrix(1,0,0,1,225,120)" style="fill: rgb(0, 0, 0);"><tspan id="v-1849"  dy="0em" x="0">Extracts spatially varying</tspan><tspan id="v-1850"  dy="1.2em" x="0">BRDF-Cook-Torrance with normals,</tspan><tspan id="v-1851"  dy="1.2em" x="0">diffuse, roughness &amp; specular maps</tspan><tspan id="v-1852"  dy="1.2em" x="0">from pictures set leveraring deep</tspan><tspan id="v-1853"  dy="1.2em" x="0">neural network.</tspan></text><text  id="v-1845" font-weight="bold" text-anchor="middle" font-family="Open Sans" fill="#000000" font-size="24" transform="matrix(1,0,0,1,225,270)" y="0.8em" display="none" xml:space="preserve" style="fill: rgb(0, 0, 0);"><tspan id="v-1854"  dy="0em" x="0" style="fill-opacity: 0; stroke-opacity: 0;">-</tspan></text><image  id="v-1846"></image></g></g><g id="j_113"    transform="translate(1600,1058)" style="" ><g  id="v-1858" style="opacity: 1;"><path  d="M 0,30 a 225,30 0,0,0 450 0 a 225,30 0,0,0 -450 0 l 0,240 a 225,30 0,0,0 450 0 l 0,-240" id="v-1859" stroke="#c92d39" stroke-width="8" pointer-events="visiblePainted" fill="#ffd9d9" style="fill: rgb(255, 217, 217); stroke: rgb(201, 45, 57);"></path><rect  id="v-1860" stroke-width="0" pointer-events="visiblePainted" fill="none" stroke="none" width="450" height="270" x="0" y="30"></rect><text  id="v-1861" font-size="34px" y="0.8em" xml:space="preserve" font-weight="bold" text-anchor="middle" pointer-events="visible" font-family="Open Sans" fill="#000000" transform="matrix(1,0,0,1,225,90)" style="fill: rgb(0, 0, 0);"><tspan id="v-1866"  dy="0em" x="0">Materials store</tspan></text><text  id="v-1862" font-size="19px" y="0.8em" xml:space="preserve" text-anchor="middle" font-family="Open Sans" fill="#000000" transform="matrix(1,0,0,1,225,132.5)" style="fill: rgb(0, 0, 0);"><tspan id="v-1867"  dy="0em" x="0">[Container: MongoDB]</tspan></text><text  id="v-1863" font-size="24px" y="0.8em" xml:space="preserve" text-anchor="middle" font-family="Open Sans" fill="#000000" transform="matrix(1,0,0,1,225,180)" style="fill: rgb(0, 0, 0);"><tspan id="v-1868"  dy="0em" x="0">Stores enriched materials &amp; supplies</tspan><tspan id="v-1869"  dy="1.2em" x="0">powerful queries API.</tspan></text><text  id="v-1864" font-weight="bold" text-anchor="middle" font-family="Open Sans" fill="#000000" font-size="24" transform="matrix(1,0,0,1,225,273)" y="0.8em" display="none" xml:space="preserve" style="fill: rgb(0, 0, 0);"><tspan id="v-1870"  dy="0em" x="0" style="fill-opacity: 0; stroke-opacity: 0;">-</tspan></text><image  id="v-1865"></image></g></g><g id="j_114"   ><path  stroke="#707070" id="v-1890" stroke-width="2" stroke-dasharray="30 30" fill="none" d="M 1300 452 1581 555" style="opacity: 1;"></path><path  fill="black" stroke="black" transform="translate(1300,452) scale(1,1) rotate(20.13629150390628)"></path><path  fill="#707070" stroke="#707070" id="v-1892" d="M 20 0 L 0 10 L 20 20 z" transform="translate(1596.5574219752245,571.388744078534) scale(1,1) rotate(-159.8636932373047)" style="opacity: 1;"></path><path  id="v-1891" fill="none" d="M 1300 452 1581 555" style=""></path><title ></title><g ><g  id="v-1878" label-idx="0" cursor="move" transform="translate(1440.5, 503.5)" style="opacity: 1;"><rect id="v-1880" fill="#ffffff" rx="3" ry="3" stroke="#ffffff" stroke-width="20px" pointer-events="none" width="189.39419555664062" height="31.90939998626709" transform="matrix(1,0,0,1,-93.9,-16)"></rect><text id="v-1879" font-size="24px" y="0.8em" xml:space="preserve" text-anchor="middle" pointer-events="none" fill="#707070" font-family="Open Sans" font-weight="normal" transform="matrix(1,0,0,1,0,-10.1)"><tspan id="v-1881"  dy="0em" x="0">makes API call to</tspan></text></g><g  id="v-1882" label-idx="1" cursor="move" transform="translate(1440.5, 534.7)" style="opacity: 1;"><rect id="v-1884" fill="#ffffff" rx="3" ry="3" pointer-events="none" width="0" height="0" transform="matrix(1,0,0,1,0,0)"></rect><text id="v-1883" font-size="19px" y="0.8em" display="none" xml:space="preserve" text-anchor="middle" pointer-events="none" fill="#707070" font-family="Open Sans" font-weight="normal" transform="matrix(1,0,0,1,0,0)"><tspan id="v-1885"  dy="0em" x="0" style="fill-opacity: 0; stroke-opacity: 0;">-</tspan></text></g><g  id="v-1886" label-idx="2" cursor="move" transform="translate(1440.5, 558.7)" style="opacity: 1;"><rect id="v-1888" fill="#ffffff" rx="3" ry="3" pointer-events="none"  display="none" width="0" height="0" transform="matrix(1,0,0,1,0,0)"></rect><text id="v-1887" font-size="19px" y="0.8em" display="none" xml:space="preserve" text-anchor="middle" pointer-events="none" fill="#707070" font-family="Open Sans" font-weight="normal"  transform="matrix(1,0,0,1,0,0)"><tspan id="v-1889"  dy="0em" x="0" style="fill-opacity: 0; stroke-opacity: 0;">-</tspan></text></g></g><g  display="none"></g><g  id="v-1894" display="none"><g  id="v-1875"><path  end="source" d="M 26 0 L 0 13 L 26 26 z"></path></g><g  id="v-1876"><path  end="target" d="M 26 0 L 0 13 L 26 26 z"></path></g></g><g  id="v-1893" display="none"><g  id="v-1874" transform="translate(1337.5565185546875, 465.7662658691406) "><g  event="remove"><circle r="11"></circle><path transform="scale(.8) translate(-16, -16)" d="M24.778,21.419 19.276,15.917 24.777,10.415 21.949,7.585 16.447,13.087 10.945,7.585 8.117,10.415 13.618,15.917 8.116,21.419 10.946,24.248 16.447,18.746 21.948,24.248z"></path><title>Remove link.</title></g><g  event="link:options"><circle r="11" transform="translate(25)"></circle><path fill="white" transform="scale(.55) translate(29, -16)" d="M31.229,17.736c0.064-0.571,0.104-1.148,0.104-1.736s-0.04-1.166-0.104-1.737l-4.377-1.557c-0.218-0.716-0.504-1.401-0.851-2.05l1.993-4.192c-0.725-0.91-1.549-1.734-2.458-2.459l-4.193,1.994c-0.647-0.347-1.334-0.632-2.049-0.849l-1.558-4.378C17.165,0.708,16.588,0.667,16,0.667s-1.166,0.041-1.737,0.105L12.707,5.15c-0.716,0.217-1.401,0.502-2.05,0.849L6.464,4.005C5.554,4.73,4.73,5.554,4.005,6.464l1.994,4.192c-0.347,0.648-0.632,1.334-0.849,2.05l-4.378,1.557C0.708,14.834,0.667,15.412,0.667,16s0.041,1.165,0.105,1.736l4.378,1.558c0.217,0.715,0.502,1.401,0.849,2.049l-1.994,4.193c0.725,0.909,1.549,1.733,2.459,2.458l4.192-1.993c0.648,0.347,1.334,0.633,2.05,0.851l1.557,4.377c0.571,0.064,1.148,0.104,1.737,0.104c0.588,0,1.165-0.04,1.736-0.104l1.558-4.377c0.715-0.218,1.399-0.504,2.049-0.851l4.193,1.993c0.909-0.725,1.733-1.549,2.458-2.458l-1.993-4.193c0.347-0.647,0.633-1.334,0.851-2.049L31.229,17.736zM16,20.871c-2.69,0-4.872-2.182-4.872-4.871c0-2.69,2.182-4.872,4.872-4.872c2.689,0,4.871,2.182,4.871,4.872C20.871,18.689,18.689,20.871,16,20.871z"></path><title>Link options.</title></g></g></g></g><g id="j_115"   ><path  stroke="#707070" id="v-1915" stroke-width="2" stroke-dasharray="30 30" fill="none" d="M 2389 1208 2070 1208" style="opacity: 1;"></path><path  fill="black" stroke="black" transform="translate(2389,1208) scale(1,1) rotate(-180)"></path><path  fill="#707070" stroke="#707070" id="v-1917" d="M 20 0 L 0 10 L 20 20 z" transform="translate(2050,1198) scale(1,1) rotate(0)" style="opacity: 1;"></path><path  id="v-1916" fill="none" d="M 2389 1208 2070 1208" style=""></path><title ></title><g ><g  id="v-1902" label-idx="0" cursor="move" transform="translate(2229.5, 1208)" style="opacity: 1;"><rect id="v-1904" fill="#ffffff" rx="3" ry="3" stroke="#ffffff" stroke-width="20px" pointer-events="none" width="196.10279846191406" height="60.70939826965332" transform="matrix(1,0,0,1,-98.1,-30.4)"></rect><text id="v-1903" font-size="24px" y="0.8em" xml:space="preserve" text-anchor="middle" pointer-events="none" fill="#707070" font-family="Open Sans" font-weight="normal" transform="matrix(1,0,0,1,0,-24.5)"><tspan id="v-1905"  dy="0em" x="0">fetches materials</tspan><tspan id="v-1906"  dy="1.2em" x="0">from</tspan></text></g><g  id="v-1907" label-idx="1" cursor="move" transform="translate(2229.5, 1251.2)" style="opacity: 1;"><rect id="v-1909" fill="#ffffff" rx="3" ry="3" pointer-events="none" width="0" height="0" transform="matrix(1,0,0,1,0,0)"></rect><text id="v-1908" font-size="19px" y="0.8em" display="none" xml:space="preserve" text-anchor="middle" pointer-events="none" fill="#707070" font-family="Open Sans" font-weight="normal" transform="matrix(1,0,0,1,0,0)"><tspan id="v-1910"  dy="0em" x="0" style="fill-opacity: 0; stroke-opacity: 0;">-</tspan></text></g><g  id="v-1911" label-idx="2" cursor="move" transform="translate(2229.5, 1275.2)" style="opacity: 1;"><rect id="v-1913" fill="#ffffff" rx="3" ry="3" pointer-events="none"  display="none" width="0" height="0" transform="matrix(1,0,0,1,0,0)"></rect><text id="v-1912" font-size="19px" y="0.8em" display="none" xml:space="preserve" text-anchor="middle" pointer-events="none" fill="#707070" font-family="Open Sans" font-weight="normal"  transform="matrix(1,0,0,1,0,0)"><tspan id="v-1914"  dy="0em" x="0" style="fill-opacity: 0; stroke-opacity: 0;">-</tspan></text></g></g><g  display="none"></g><g  id="v-1919" display="none"><g  id="v-1899"><path  end="source" d="M 26 0 L 0 13 L 26 26 z"></path></g><g  id="v-1900"><path  end="target" d="M 26 0 L 0 13 L 26 26 z"></path></g></g><g  id="v-1918" display="none"><g  id="v-1898" transform="translate(2349, 1208) "><g  event="remove"><circle r="11"></circle><path transform="scale(.8) translate(-16, -16)" d="M24.778,21.419 19.276,15.917 24.777,10.415 21.949,7.585 16.447,13.087 10.945,7.585 8.117,10.415 13.618,15.917 8.116,21.419 10.946,24.248 16.447,18.746 21.948,24.248z"></path><title>Remove link.</title></g><g  event="link:options"><circle r="11" transform="translate(25)"></circle><path fill="white" transform="scale(.55) translate(29, -16)" d="M31.229,17.736c0.064-0.571,0.104-1.148,0.104-1.736s-0.04-1.166-0.104-1.737l-4.377-1.557c-0.218-0.716-0.504-1.401-0.851-2.05l1.993-4.192c-0.725-0.91-1.549-1.734-2.458-2.459l-4.193,1.994c-0.647-0.347-1.334-0.632-2.049-0.849l-1.558-4.378C17.165,0.708,16.588,0.667,16,0.667s-1.166,0.041-1.737,0.105L12.707,5.15c-0.716,0.217-1.401,0.502-2.05,0.849L6.464,4.005C5.554,4.73,4.73,5.554,4.005,6.464l1.994,4.192c-0.347,0.648-0.632,1.334-0.849,2.05l-4.378,1.557C0.708,14.834,0.667,15.412,0.667,16s0.041,1.165,0.105,1.736l4.378,1.558c0.217,0.715,0.502,1.401,0.849,2.049l-1.994,4.193c0.725,0.909,1.549,1.733,2.459,2.458l4.192-1.993c0.648,0.347,1.334,0.633,2.05,0.851l1.557,4.377c0.571,0.064,1.148,0.104,1.737,0.104c0.588,0,1.165-0.04,1.736-0.104l1.558-4.377c0.715-0.218,1.399-0.504,2.049-0.851l4.193,1.993c0.909-0.725,1.733-1.549,2.458-2.458l-1.993-4.193c0.347-0.647,0.633-1.334,0.851-2.049L31.229,17.736zM16,20.871c-2.69,0-4.872-2.182-4.872-4.871c0-2.69,2.182-4.872,4.872-4.872c2.689,0,4.871,2.182,4.871,4.872C20.871,18.689,18.689,20.871,16,20.871z"></path><title>Link options.</title></g></g></g></g><g id="j_116"   ><path  stroke="#707070" id="v-1937" stroke-width="2" stroke-dasharray="30 30" fill="none" d="M 600 755 908 925" style="opacity: 1;"></path><path  fill="black" stroke="black" transform="translate(600,755) scale(1,1) rotate(28.97970581054689)"></path><path  fill="#707070" stroke="#707070" id="v-1939" d="M 20 0 L 0 10 L 20 20 z" transform="translate(920.1549909240734,943.7479410090208) scale(1,1) rotate(-151.02029418945312)" style="opacity: 1;"></path><path  id="v-1938" fill="none" d="M 600 755 908 925" style=""></path><title ></title><g ><g  id="v-1925" label-idx="0" cursor="move" transform="translate(754, 840)" style="opacity: 1;"><rect id="v-1927" fill="#ffffff" rx="3" ry="3" stroke="#ffffff" stroke-width="20px" pointer-events="none" width="53.27128219604492" height="31.90939998626709" transform="matrix(1,0,0,1,-25.5,-16)"></rect><text id="v-1926" font-size="24px" y="0.8em" xml:space="preserve" text-anchor="middle" pointer-events="none" fill="#707070" font-family="Open Sans" font-weight="normal" transform="matrix(1,0,0,1,0,-10.1)"><tspan id="v-1928"  dy="0em" x="0">uses</tspan></text></g><g  id="v-1929" label-idx="1" cursor="move" transform="translate(754, 871.2)" style="opacity: 1;"><rect id="v-1931" fill="#ffffff" rx="3" ry="3" pointer-events="none" width="0" height="0" transform="matrix(1,0,0,1,0,0)"></rect><text id="v-1930" font-size="19px" y="0.8em" display="none" xml:space="preserve" text-anchor="middle" pointer-events="none" fill="#707070" font-family="Open Sans" font-weight="normal" transform="matrix(1,0,0,1,0,0)"><tspan id="v-1932"  dy="0em" x="0" style="fill-opacity: 0; stroke-opacity: 0;">-</tspan></text></g><g  id="v-1933" label-idx="2" cursor="move" transform="translate(754, 895.2)" style="opacity: 1;"><rect id="v-1935" fill="#ffffff" rx="3" ry="3" pointer-events="none"  display="none" width="0" height="0" transform="matrix(1,0,0,1,0,0)"></rect><text id="v-1934" font-size="19px" y="0.8em" display="none" xml:space="preserve" text-anchor="middle" pointer-events="none" fill="#707070" font-family="Open Sans" font-weight="normal"  transform="matrix(1,0,0,1,0,0)"><tspan id="v-1936"  dy="0em" x="0" style="fill-opacity: 0; stroke-opacity: 0;">-</tspan></text></g></g><g  display="none"></g><g  id="v-1941" display="none"><g  id="v-1922"><path  end="source" d="M 26 0 L 0 13 L 26 26 z"></path></g><g  id="v-1923"><path  end="target" d="M 26 0 L 0 13 L 26 26 z"></path></g></g><g  id="v-1940" display="none"><g  id="v-1921" transform="translate(635.019775390625, 774.3291015625) "><g  event="remove"><circle r="11"></circle><path transform="scale(.8) translate(-16, -16)" d="M24.778,21.419 19.276,15.917 24.777,10.415 21.949,7.585 16.447,13.087 10.945,7.585 8.117,10.415 13.618,15.917 8.116,21.419 10.946,24.248 16.447,18.746 21.948,24.248z"></path><title>Remove link.</title></g><g  event="link:options"><circle r="11" transform="translate(25)"></circle><path fill="white" transform="scale(.55) translate(29, -16)" d="M31.229,17.736c0.064-0.571,0.104-1.148,0.104-1.736s-0.04-1.166-0.104-1.737l-4.377-1.557c-0.218-0.716-0.504-1.401-0.851-2.05l1.993-4.192c-0.725-0.91-1.549-1.734-2.458-2.459l-4.193,1.994c-0.647-0.347-1.334-0.632-2.049-0.849l-1.558-4.378C17.165,0.708,16.588,0.667,16,0.667s-1.166,0.041-1.737,0.105L12.707,5.15c-0.716,0.217-1.401,0.502-2.05,0.849L6.464,4.005C5.554,4.73,4.73,5.554,4.005,6.464l1.994,4.192c-0.347,0.648-0.632,1.334-0.849,2.05l-4.378,1.557C0.708,14.834,0.667,15.412,0.667,16s0.041,1.165,0.105,1.736l4.378,1.558c0.217,0.715,0.502,1.401,0.849,2.049l-1.994,4.193c0.725,0.909,1.549,1.733,2.459,2.458l4.192-1.993c0.648,0.347,1.334,0.633,2.05,0.851l1.557,4.377c0.571,0.064,1.148,0.104,1.737,0.104c0.588,0,1.165-0.04,1.736-0.104l1.558-4.377c0.715-0.218,1.399-0.504,2.049-0.851l4.193,1.993c0.909-0.725,1.733-1.549,2.458-2.458l-1.993-4.193c0.347-0.647,0.633-1.334,0.851-2.049L31.229,17.736zM16,20.871c-2.69,0-4.872-2.182-4.872-4.871c0-2.69,2.182-4.872,4.872-4.872c2.689,0,4.871,2.182,4.871,4.872C20.871,18.689,18.689,20.871,16,20.871z"></path><title>Link options.</title></g></g></g></g><g id="j_117"   ><path  stroke="#707070" id="v-1959" stroke-width="2" stroke-dasharray="30 30" fill="none" d="M 600 563 831 469" style="opacity: 1;"></path><path  fill="black" stroke="black" transform="translate(600,563) scale(1,1) rotate(-22.195459365844727)"></path><path  fill="#707070" stroke="#707070" id="v-1961" d="M 20 0 L 0 10 L 20 20 z" transform="translate(853.7776467114103,470.25900928254543) scale(1,1) rotate(-202.19546508789062)" style="opacity: 1;"></path><path  id="v-1960" fill="none" d="M 600 563 831 469" style=""></path><title ></title><g ><g  id="v-1947" label-idx="0" cursor="move" transform="translate(715.5, 516)" style="opacity: 1;"><rect id="v-1949" fill="#ffffff" rx="3" ry="3" stroke="#ffffff" stroke-width="20px" pointer-events="none" width="53.27128219604492" height="31.90939998626709" transform="matrix(1,0,0,1,-25.5,-16)"></rect><text id="v-1948" font-size="24px" y="0.8em" xml:space="preserve" text-anchor="middle" pointer-events="none" fill="#707070" font-family="Open Sans" font-weight="normal" transform="matrix(1,0,0,1,0,-10.1)"><tspan id="v-1950"  dy="0em" x="0">uses</tspan></text></g><g  id="v-1951" label-idx="1" cursor="move" transform="translate(715.5, 547.2)" style="opacity: 1;"><rect id="v-1953" fill="#ffffff" rx="3" ry="3" pointer-events="none" width="0" height="0" transform="matrix(1,0,0,1,0,0)"></rect><text id="v-1952" font-size="19px" y="0.8em" display="none" xml:space="preserve" text-anchor="middle" pointer-events="none" fill="#707070" font-family="Open Sans" font-weight="normal" transform="matrix(1,0,0,1,0,0)"><tspan id="v-1954"  dy="0em" x="0" style="fill-opacity: 0; stroke-opacity: 0;">-</tspan></text></g><g  id="v-1955" label-idx="2" cursor="move" transform="translate(715.5, 571.2)" style="opacity: 1;"><rect id="v-1957" fill="#ffffff" rx="3" ry="3" pointer-events="none"  display="none" width="0" height="0" transform="matrix(1,0,0,1,0,0)"></rect><text id="v-1956" font-size="19px" y="0.8em" display="none" xml:space="preserve" text-anchor="middle" pointer-events="none" fill="#707070" font-family="Open Sans" font-weight="normal"  transform="matrix(1,0,0,1,0,0)"><tspan id="v-1958"  dy="0em" x="0" style="fill-opacity: 0; stroke-opacity: 0;">-</tspan></text></g></g><g  display="none"></g><g  id="v-1963" display="none"><g  id="v-1944"><path  end="source" d="M 26 0 L 0 13 L 26 26 z"></path></g><g  id="v-1945"><path  end="target" d="M 26 0 L 0 13 L 26 26 z"></path></g></g><g  id="v-1962" display="none"><g  id="v-1943" transform="translate(637.0499267578125, 547.9234008789062) "><g  event="remove"><circle r="11"></circle><path transform="scale(.8) translate(-16, -16)" d="M24.778,21.419 19.276,15.917 24.777,10.415 21.949,7.585 16.447,13.087 10.945,7.585 8.117,10.415 13.618,15.917 8.116,21.419 10.946,24.248 16.447,18.746 21.948,24.248z"></path><title>Remove link.</title></g><g  event="link:options"><circle r="11" transform="translate(25)"></circle><path fill="white" transform="scale(.55) translate(29, -16)" d="M31.229,17.736c0.064-0.571,0.104-1.148,0.104-1.736s-0.04-1.166-0.104-1.737l-4.377-1.557c-0.218-0.716-0.504-1.401-0.851-2.05l1.993-4.192c-0.725-0.91-1.549-1.734-2.458-2.459l-4.193,1.994c-0.647-0.347-1.334-0.632-2.049-0.849l-1.558-4.378C17.165,0.708,16.588,0.667,16,0.667s-1.166,0.041-1.737,0.105L12.707,5.15c-0.716,0.217-1.401,0.502-2.05,0.849L6.464,4.005C5.554,4.73,4.73,5.554,4.005,6.464l1.994,4.192c-0.347,0.648-0.632,1.334-0.849,2.05l-4.378,1.557C0.708,14.834,0.667,15.412,0.667,16s0.041,1.165,0.105,1.736l4.378,1.558c0.217,0.715,0.502,1.401,0.849,2.049l-1.994,4.193c0.725,0.909,1.549,1.733,2.459,2.458l4.192-1.993c0.648,0.347,1.334,0.633,2.05,0.851l1.557,4.377c0.571,0.064,1.148,0.104,1.737,0.104c0.588,0,1.165-0.04,1.736-0.104l1.558-4.377c0.715-0.218,1.399-0.504,2.049-0.851l4.193,1.993c0.909-0.725,1.733-1.549,2.458-2.458l-1.993-4.193c0.347-0.647,0.633-1.334,0.851-2.049L31.229,17.736zM16,20.871c-2.69,0-4.872-2.182-4.872-4.871c0-2.69,2.182-4.872,4.872-4.872c2.689,0,4.871,2.182,4.871,4.872C20.871,18.689,18.689,20.871,16,20.871z"></path><title>Link options.</title></g></g></g></g><g id="j_118"   ><path  stroke="#707070" id="v-1984" stroke-width="2" stroke-dasharray="30 30" fill="none" d="M 1825 794 1825 1038" style="opacity: 1;"></path><path  fill="black" stroke="black" transform="translate(1825,794) scale(1,1) rotate(-270)"></path><path  fill="#707070" stroke="#707070" id="v-1986" d="M 20 0 L 0 10 L 20 20 z" transform="translate(1815,1058) scale(1,1) rotate(-90)" style="opacity: 1;"></path><path  id="v-1985" fill="none" d="M 1825 794 1825 1038" style=""></path><title ></title><g ><g  id="v-1971" label-idx="0" cursor="move" transform="translate(1825, 916)" style="opacity: 1;"><rect id="v-1973" fill="#ffffff" rx="3" ry="3" stroke="#ffffff" stroke-width="20px" pointer-events="none" width="181.7528076171875" height="60.70939826965332" transform="matrix(1,0,0,1,-89.8,-30.4)"></rect><text id="v-1972" font-size="24px" y="0.8em" xml:space="preserve" text-anchor="middle" pointer-events="none" fill="#707070" font-family="Open Sans" font-weight="normal" transform="matrix(1,0,0,1,0,-24.5)"><tspan id="v-1974"  dy="0em" x="0">stores materials</tspan><tspan id="v-1975"  dy="1.2em" x="0">to</tspan></text></g><g  id="v-1976" label-idx="1" cursor="move" transform="translate(1825, 959.2)" style="opacity: 1;"><rect id="v-1978" fill="#ffffff" rx="3" ry="3" pointer-events="none" width="0" height="0" transform="matrix(1,0,0,1,0,0)"></rect><text id="v-1977" font-size="19px" y="0.8em" display="none" xml:space="preserve" text-anchor="middle" pointer-events="none" fill="#707070" font-family="Open Sans" font-weight="normal" transform="matrix(1,0,0,1,0,0)"><tspan id="v-1979"  dy="0em" x="0" style="fill-opacity: 0; stroke-opacity: 0;">-</tspan></text></g><g  id="v-1980" label-idx="2" cursor="move" transform="translate(1825, 983.2)" style="opacity: 1;"><rect id="v-1982" fill="#ffffff" rx="3" ry="3" pointer-events="none"  display="none" width="0" height="0" transform="matrix(1,0,0,1,0,0)"></rect><text id="v-1981" font-size="19px" y="0.8em" display="none" xml:space="preserve" text-anchor="middle" pointer-events="none" fill="#707070" font-family="Open Sans" font-weight="normal"  transform="matrix(1,0,0,1,0,0)"><tspan id="v-1983"  dy="0em" x="0" style="fill-opacity: 0; stroke-opacity: 0;">-</tspan></text></g></g><g  display="none"></g><g  id="v-1988" display="none"><g  id="v-1968"><path  end="source" d="M 26 0 L 0 13 L 26 26 z"></path></g><g  id="v-1969"><path  end="target" d="M 26 0 L 0 13 L 26 26 z"></path></g></g><g  id="v-1987" display="none"><g  id="v-1967" transform="translate(1825, 834) "><g  event="remove"><circle r="11"></circle><path transform="scale(.8) translate(-16, -16)" d="M24.778,21.419 19.276,15.917 24.777,10.415 21.949,7.585 16.447,13.087 10.945,7.585 8.117,10.415 13.618,15.917 8.116,21.419 10.946,24.248 16.447,18.746 21.948,24.248z"></path><title>Remove link.</title></g><g  event="link:options"><circle r="11" transform="translate(25)"></circle><path fill="white" transform="scale(.55) translate(29, -16)" d="M31.229,17.736c0.064-0.571,0.104-1.148,0.104-1.736s-0.04-1.166-0.104-1.737l-4.377-1.557c-0.218-0.716-0.504-1.401-0.851-2.05l1.993-4.192c-0.725-0.91-1.549-1.734-2.458-2.459l-4.193,1.994c-0.647-0.347-1.334-0.632-2.049-0.849l-1.558-4.378C17.165,0.708,16.588,0.667,16,0.667s-1.166,0.041-1.737,0.105L12.707,5.15c-0.716,0.217-1.401,0.502-2.05,0.849L6.464,4.005C5.554,4.73,4.73,5.554,4.005,6.464l1.994,4.192c-0.347,0.648-0.632,1.334-0.849,2.05l-4.378,1.557C0.708,14.834,0.667,15.412,0.667,16s0.041,1.165,0.105,1.736l4.378,1.558c0.217,0.715,0.502,1.401,0.849,2.049l-1.994,4.193c0.725,0.909,1.549,1.733,2.459,2.458l4.192-1.993c0.648,0.347,1.334,0.633,2.05,0.851l1.557,4.377c0.571,0.064,1.148,0.104,1.737,0.104c0.588,0,1.165-0.04,1.736-0.104l1.558-4.377c0.715-0.218,1.399-0.504,2.049-0.851l4.193,1.993c0.909-0.725,1.733-1.549,2.458-2.458l-1.993-4.193c0.347-0.647,0.633-1.334,0.851-2.049L31.229,17.736zM16,20.871c-2.69,0-4.872-2.182-4.872-4.871c0-2.69,2.182-4.872,4.872-4.872c2.689,0,4.871,2.182,4.871,4.872C20.871,18.689,18.689,20.871,16,20.871z"></path><title>Link options.</title></g></g></g></g><g id="j_119"   ><path  stroke="#707070" id="v-2008" stroke-width="2" stroke-dasharray="30 30" fill="none" d="M 1225 943 1582 765" style="opacity: 1;"></path><path  fill="black" stroke="black" transform="translate(1225,943) scale(1,1) rotate(-26.503902435302727)"></path><path  fill="#707070" stroke="#707070" id="v-2010" d="M 20 0 L 0 10 L 20 20 z" transform="translate(1604.4625309710373,764.9490365810506) scale(1,1) rotate(-206.50390625)" style="opacity: 1;"></path><path  id="v-2009" fill="none" d="M 1225 943 1582 765" style=""></path><title ></title><g ><g  id="v-1996" label-idx="0" cursor="move" transform="translate(1403.5, 854)" style="opacity: 1;"><rect id="v-1998" fill="#ffffff" rx="3" ry="3" stroke="#ffffff" stroke-width="20px" pointer-events="none" width="189.39419555664062" height="31.90939998626709" transform="matrix(1,0,0,1,-93.9,-16)"></rect><text id="v-1997" font-size="24px" y="0.8em" xml:space="preserve" text-anchor="middle" pointer-events="none" fill="#707070" font-family="Open Sans" font-weight="normal" transform="matrix(1,0,0,1,0,-10.1)"><tspan id="v-1999"  dy="0em" x="0">makes API call to</tspan></text></g><g  id="v-2000" label-idx="1" cursor="move" transform="translate(1403.5, 885.2)" style="opacity: 1;"><rect id="v-2002" fill="#ffffff" rx="3" ry="3" pointer-events="none" width="0" height="0" transform="matrix(1,0,0,1,0,0)"></rect><text id="v-2001" font-size="19px" y="0.8em" display="none" xml:space="preserve" text-anchor="middle" pointer-events="none" fill="#707070" font-family="Open Sans" font-weight="normal" transform="matrix(1,0,0,1,0,0)"><tspan id="v-2003"  dy="0em" x="0" style="fill-opacity: 0; stroke-opacity: 0;">-</tspan></text></g><g  id="v-2004" label-idx="2" cursor="move" transform="translate(1403.5, 909.2)" style="opacity: 1;"><rect id="v-2006" fill="#ffffff" rx="3" ry="3" pointer-events="none"  display="none" width="0" height="0" transform="matrix(1,0,0,1,0,0)"></rect><text id="v-2005" font-size="19px" y="0.8em" display="none" xml:space="preserve" text-anchor="middle" pointer-events="none" fill="#707070" font-family="Open Sans" font-weight="normal"  transform="matrix(1,0,0,1,0,0)"><tspan id="v-2007"  dy="0em" x="0" style="fill-opacity: 0; stroke-opacity: 0;">-</tspan></text></g></g><g  display="none"></g><g  id="v-2012" display="none"><g  id="v-1993"><path  end="source" d="M 26 0 L 0 13 L 26 26 z"></path></g><g  id="v-1994"><path  end="target" d="M 26 0 L 0 13 L 26 26 z"></path></g></g><g  id="v-2011" display="none"><g  id="v-1992" transform="translate(1260.797119140625, 925.1515502929688) "><g  event="remove"><circle r="11"></circle><path transform="scale(.8) translate(-16, -16)" d="M24.778,21.419 19.276,15.917 24.777,10.415 21.949,7.585 16.447,13.087 10.945,7.585 8.117,10.415 13.618,15.917 8.116,21.419 10.946,24.248 16.447,18.746 21.948,24.248z"></path><title>Remove link.</title></g><g  event="link:options"><circle r="11" transform="translate(25)"></circle><path fill="white" transform="scale(.55) translate(29, -16)" d="M31.229,17.736c0.064-0.571,0.104-1.148,0.104-1.736s-0.04-1.166-0.104-1.737l-4.377-1.557c-0.218-0.716-0.504-1.401-0.851-2.05l1.993-4.192c-0.725-0.91-1.549-1.734-2.458-2.459l-4.193,1.994c-0.647-0.347-1.334-0.632-2.049-0.849l-1.558-4.378C17.165,0.708,16.588,0.667,16,0.667s-1.166,0.041-1.737,0.105L12.707,5.15c-0.716,0.217-1.401,0.502-2.05,0.849L6.464,4.005C5.554,4.73,4.73,5.554,4.005,6.464l1.994,4.192c-0.347,0.648-0.632,1.334-0.849,2.05l-4.378,1.557C0.708,14.834,0.667,15.412,0.667,16s0.041,1.165,0.105,1.736l4.378,1.558c0.217,0.715,0.502,1.401,0.849,2.049l-1.994,4.193c0.725,0.909,1.549,1.733,2.459,2.458l4.192-1.993c0.648,0.347,1.334,0.633,2.05,0.851l1.557,4.377c0.571,0.064,1.148,0.104,1.737,0.104c0.588,0,1.165-0.04,1.736-0.104l1.558-4.377c0.715-0.218,1.399-0.504,2.049-0.851l4.193,1.993c0.909-0.725,1.733-1.549,2.458-2.458l-1.993-4.193c0.347-0.647,0.633-1.334,0.851-2.049L31.229,17.736zM16,20.871c-2.69,0-4.872-2.182-4.872-4.871c0-2.69,2.182-4.872,4.872-4.872c2.689,0,4.871,2.182,4.871,4.872C20.871,18.689,18.689,20.871,16,20.871z"></path><title>Link options.</title></g></g></g></g></g><defs id="v-4"></defs></svg>