<svg xmlns="http://www.w3.org/2000/svg" xmlns:xlink="http://www.w3.org/1999/xlink" version="1.1" viewBox="0 0 2720 1767" style="background: #ffffff"><g id="v-3"  transform="matrix(1,0,0,1,0,0)"><g id="j_168"    transform="translate(20,1722)"><g id="v-2701"><text  id="v-2702" font-size="22px" y="0.8em" xml:space="preserve" font-weight="normal" text-anchor="start" fill="#aaaaaa" pointer-events="none" font-family="Open Sans" transform="matrix(1,0,0,1,0,0)" display="block"><tspan id="v-2703"  dy="0em" x="0">Wednesday, March 8, 2023 at 3:33 PM Central European Standard Time</tspan></text></g></g><g id="j_167"    transform="translate(20,1676)"><g id="v-2697"><text  id="v-2698" font-size="36px" y="0.8em" xml:space="preserve" font-weight="normal" text-anchor="start" fill="#000000" pointer-events="none" font-family="Open Sans" transform="matrix(1,0,0,1,0,0)" display="block"><tspan id="v-2699"  dy="0em" x="0">[Deployment] - dev</tspan></text></g></g><g id="j_158"    transform="translate(199,199)" style=""><g  id="v-2539" style="opacity: 1;"><rect  id="v-2540" width="2321" height="1468" rx="10" ry="10" fill="#ffffff" stroke="#888888" stroke-width="5" pointer-events="none"></rect><text  id="v-2541" font-size="24px" y="1429" xml:space="preserve" font-weight="normal" text-anchor="start" pointer-events="visible" font-family="Open Sans" fill="#000000" transform="matrix(1,0,0,1,15,0)" style="fill: rgb(0, 0, 0);"><tspan id="v-2545"  dy="0em" x="0">User workstation</tspan></text><text  id="v-2542" font-size="19px" y="1453" xml:space="preserve" font-weight="normal" text-anchor="start" pointer-events="visible" font-family="Open Sans" fill="#000000" transform="matrix(1,0,0,1,15,0)" style="fill: rgb(0, 0, 0);"><tspan id="v-2546"  dy="0em" x="0">[Deployment Node: Microsoft Windows 10]</tspan></text><text  id="v-2543" font-size="40px" y="1453" display="none" xml:space="preserve" font-weight="normal" fill="#000000" text-anchor="end" pointer-events="visible" font-family="Open Sans" transform="matrix(1,0,0,1,2306,0)"><tspan id="v-2547"  dy="0em" x="0" style="fill-opacity: 0; stroke-opacity: 0;">-</tspan></text><image  id="v-2544" pointer-events="visible"></image></g></g><g id="j_161"    transform="translate(1070,511)" style=""><g  id="v-2569" style="opacity: 1;"><rect  id="v-2570" width="1400" height="586" rx="10" ry="10" fill="#ffffff" stroke="#888888" stroke-width="5" pointer-events="none"></rect><text  id="v-2571" font-size="24px" y="547" xml:space="preserve" font-weight="normal" text-anchor="start" pointer-events="visible" font-family="Open Sans" fill="#000000" transform="matrix(1,0,0,1,15,0)" style="fill: rgb(0, 0, 0);"><tspan id="v-2575"  dy="0em" x="0">Orchestration</tspan></text><text  id="v-2572" font-size="19px" y="571" xml:space="preserve" font-weight="normal" text-anchor="start" pointer-events="visible" font-family="Open Sans" fill="#000000" transform="matrix(1,0,0,1,15,0)" style="fill: rgb(0, 0, 0);"><tspan id="v-2576"  dy="0em" x="0">[Deployment Node: Docker-compose]</tspan></text><text  id="v-2573" font-size="40px" y="571" display="none" xml:space="preserve" font-weight="normal" fill="#000000" text-anchor="end" pointer-events="visible" font-family="Open Sans" transform="matrix(1,0,0,1,1385,0)"><tspan id="v-2577"  dy="0em" x="0" style="fill-opacity: 0; stroke-opacity: 0;">-</tspan></text><image  id="v-2574" pointer-events="visible"></image></g></g><g id="j_162"    transform="translate(1120,561)" style=""><g  id="v-2579" style="opacity: 1;"><rect  id="v-2580" width="550" height="443" rx="10" ry="10" fill="#ffffff" stroke="#888888" stroke-width="5" pointer-events="none"></rect><text  id="v-2581" font-size="24px" y="404" xml:space="preserve" font-weight="normal" text-anchor="start" pointer-events="visible" font-family="Open Sans" fill="#000000" transform="matrix(1,0,0,1,15,0)" style="fill: rgb(0, 0, 0);"><tspan id="v-2585"  dy="0em" x="0">mcr.microsoft.com/dotnet/aspnet:6.0</tspan></text><text  id="v-2582" font-size="19px" y="428" xml:space="preserve" font-weight="normal" text-anchor="start" pointer-events="visible" font-family="Open Sans" fill="#000000" transform="matrix(1,0,0,1,15,0)" style="fill: rgb(0, 0, 0);"><tspan id="v-2586"  dy="0em" x="0">[Deployment Node: Docker]</tspan></text><text  id="v-2583" font-size="40px" y="428" display="none" xml:space="preserve" font-weight="normal" fill="#000000" text-anchor="end" pointer-events="visible" font-family="Open Sans" transform="matrix(1,0,0,1,535,0)"><tspan id="v-2587"  dy="0em" x="0" style="fill-opacity: 0; stroke-opacity: 0;">-</tspan></text><image  id="v-2584" pointer-events="visible"></image></g></g><g id="j_160"    transform="translate(324,249)" style=""><g  id="v-2559" style="opacity: 1;"><rect  id="v-2560" width="400" height="593" rx="10" ry="10" fill="#ffffff" stroke="#888888" stroke-width="5" pointer-events="none"></rect><text  id="v-2561" font-size="24px" y="554" xml:space="preserve" font-weight="normal" text-anchor="start" pointer-events="visible" font-family="Open Sans" fill="#000000" transform="matrix(1,0,0,1,15,0)" style="fill: rgb(0, 0, 0);"><tspan id="v-2565"  dy="0em" x="0">Virtual device</tspan></text><text  id="v-2562" font-size="19px" y="578" xml:space="preserve" font-weight="normal" text-anchor="start" pointer-events="visible" font-family="Open Sans" fill="#000000" transform="matrix(1,0,0,1,15,0)" style="fill: rgb(0, 0, 0);"><tspan id="v-2566"  dy="0em" x="0">[Deployment Node: Android]</tspan></text><text  id="v-2563" font-size="40px" y="578" display="none" xml:space="preserve" font-weight="normal" fill="#000000" text-anchor="end" pointer-events="visible" font-family="Open Sans" transform="matrix(1,0,0,1,385,0)"><tspan id="v-2567"  dy="0em" x="0" style="fill-opacity: 0; stroke-opacity: 0;">-</tspan></text><image  id="v-2564" pointer-events="visible"></image></g></g><g id="j_159"    transform="translate(249,1069)" style=""><g  id="v-2549" style="opacity: 1;"><rect  id="v-2550" width="550" height="443" rx="10" ry="10" fill="#ffffff" stroke="#888888" stroke-width="5" pointer-events="none"></rect><text  id="v-2551" font-size="24px" y="404" xml:space="preserve" font-weight="normal" text-anchor="start" pointer-events="visible" font-family="Open Sans" fill="#000000" transform="matrix(1,0,0,1,15,0)" style="fill: rgb(0, 0, 0);"><tspan id="v-2555"  dy="0em" x="0">Web browser</tspan></text><text  id="v-2552" font-size="19px" y="428" xml:space="preserve" font-weight="normal" text-anchor="start" pointer-events="visible" font-family="Open Sans" fill="#000000" transform="matrix(1,0,0,1,15,0)" style="fill: rgb(0, 0, 0);"><tspan id="v-2556"  dy="0em" x="0">[Deployment Node: Opera]</tspan></text><text  id="v-2553" font-size="40px" y="428" display="none" xml:space="preserve" font-weight="normal" fill="#000000" text-anchor="end" pointer-events="visible" font-family="Open Sans" transform="matrix(1,0,0,1,535,0)"><tspan id="v-2557"  dy="0em" x="0" style="fill-opacity: 0; stroke-opacity: 0;">-</tspan></text><image  id="v-2554" pointer-events="visible"></image></g></g><g id="j_157"    transform="translate(1870,561)" style="" ><g  id="v-2529" style="opacity: 1;"><rect  id="v-2530" width="550" height="443" rx="10" ry="10" fill="#ffffff" stroke="#888888" stroke-width="5" pointer-events="none"></rect><text  id="v-2531" font-size="24px" y="404" xml:space="preserve" font-weight="normal" text-anchor="start" pointer-events="visible" font-family="Open Sans" fill="#000000" transform="matrix(1,0,0,1,15,0)" style="fill: rgb(0, 0, 0);"><tspan id="v-2535"  dy="0em" x="0">mongo:latest</tspan></text><text  id="v-2532" font-size="19px" y="428" xml:space="preserve" font-weight="normal" text-anchor="start" pointer-events="visible" font-family="Open Sans" fill="#000000" transform="matrix(1,0,0,1,15,0)" style="fill: rgb(0, 0, 0);"><tspan id="v-2536"  dy="0em" x="0">[Deployment Node: Docker]</tspan></text><text  id="v-2533" font-size="40px" y="428" display="none" xml:space="preserve" font-weight="normal" fill="#000000" text-anchor="end" pointer-events="visible" font-family="Open Sans" transform="matrix(1,0,0,1,535,0)"><tspan id="v-2537"  dy="0em" x="0" style="fill-opacity: 0; stroke-opacity: 0;">-</tspan></text><image  id="v-2534" pointer-events="visible"></image></g></g><g id="j_152"    transform="translate(1920,611)" style=""><g  id="v-2437" style="opacity: 1;"><path  d="M 0,30 a 225,30 0,0,0 450 0 a 225,30 0,0,0 -450 0 l 0,240 a 225,30 0,0,0 450 0 l 0,-240" id="v-2438" stroke="#c92d39" stroke-width="8" pointer-events="visiblePainted" fill="#ffd9d9" style="fill: rgb(255, 217, 217); stroke: rgb(201, 45, 57);"></path><rect  id="v-2439" stroke-width="0" pointer-events="visiblePainted" fill="none" stroke="none" width="450" height="270" x="0" y="30"></rect><text  id="v-2440" font-size="34px" y="0.8em" xml:space="preserve" font-weight="bold" text-anchor="middle" pointer-events="visible" font-family="Open Sans" fill="#000000" transform="matrix(1,0,0,1,225,78.1)" style="fill: rgb(0, 0, 0);"><tspan id="v-2445"  dy="0em" x="0">Materials store</tspan></text><text  id="v-2441" font-size="19px" y="0.8em" xml:space="preserve" text-anchor="middle" font-family="Open Sans" fill="#000000" transform="matrix(1,0,0,1,225,120.6)" style="fill: rgb(0, 0, 0);"><tspan id="v-2446"  dy="0em" x="0">from MILA</tspan><tspan id="v-2447"  dy="1.2em" x="0">[Container: MongoDB]</tspan></text><text  id="v-2442" font-size="24px" y="0.8em" xml:space="preserve" text-anchor="middle" font-family="Open Sans" fill="#000000" transform="matrix(1,0,0,1,225,191.9)" style="fill: rgb(0, 0, 0);"><tspan id="v-2448"  dy="0em" x="0">Stores enriched materials &amp; supplies</tspan><tspan id="v-2449"  dy="1.2em" x="0">powerful queries API.</tspan></text><text  id="v-2443" font-weight="bold" text-anchor="middle" font-family="Open Sans" fill="#000000" font-size="24" transform="matrix(1,0,0,1,225,273)" style="fill: rgb(0, 0, 0);" display="none"></text><image  id="v-2444"></image></g></g><g id="j_153"    transform="translate(299,1119)" style=""><g  id="v-2453" style="opacity: 1;"><rect  id="v-2454" rx="10" ry="10" stroke="#c92d39" stroke-width="2" pointer-events="visiblePainted" fill="#c92d39" width="450" height="300" style="fill: rgb(201, 45, 57); stroke: rgb(201, 45, 57);"></rect><rect  id="v-2455" rx="10" ry="10" stroke="#c92d39" stroke-width="0" pointer-events="visiblePainted" fill="#ffd9d9" width="430" height="250" x="10" y="40" style="fill: rgb(255, 217, 217);"></rect><ellipse  id="v-2462" fill="#ffd9d9" cx="20" cy="20" rx="10" ry="10" style="fill: rgb(255, 217, 217);"></ellipse><ellipse  id="v-2463" fill="#ffd9d9" cx="50" cy="20" rx="10" ry="10" style="fill: rgb(255, 217, 217);"></ellipse><ellipse  id="v-2464" fill="#ffd9d9" cx="80" cy="20" rx="10" ry="10" style="fill: rgb(255, 217, 217);"></ellipse><rect  id="v-2456" rx="10" ry="10" stroke="#444444" stroke-width="0" pointer-events="visiblePainted" fill="#ffd9d9" width="340" height="20" x="100" y="10" style="fill: rgb(255, 217, 217);"></rect><text  id="v-2457" font-size="34" y="0.8em" xml:space="preserve" font-weight="bold" text-anchor="middle" pointer-events="visible" font-family="Open Sans" fill="#000000" transform="matrix(1,0,0,1,225,83.1)" style="fill: rgb(0, 0, 0);"><tspan id="v-2465"  dy="0em" x="0">Web application</tspan></text><text  id="v-2458" font-size="19" y="0.8em" xml:space="preserve" text-anchor="middle" font-family="Open Sans" fill="#000000" transform="matrix(1,0,0,1,225,125.6)" style="fill: rgb(0, 0, 0);"><tspan id="v-2466"  dy="0em" x="0">from MILA</tspan><tspan id="v-2467"  dy="1.2em" x="0">[Container: Blazor]</tspan></text><text  id="v-2459" font-size="24" y="0.8em" xml:space="preserve" text-anchor="middle" font-family="Open Sans" fill="#000000" transform="matrix(1,0,0,1,225,196.9)" style="fill: rgb(0, 0, 0);"><tspan id="v-2468"  dy="0em" x="0">Provides limited facilities to upload</tspan><tspan id="v-2469"  dy="1.2em" x="0">constrained pictures set.</tspan></text><text  id="v-2460" font-weight="bold" text-anchor="middle" font-family="Open Sans" fill="#000000" font-size="24" transform="matrix(1,0,0,1,225,270)" style="fill: rgb(0, 0, 0);" display="none"></text><image  id="v-2461"></image></g></g><g id="j_154"    transform="translate(1920,1274)" style="" ><g  id="v-2473" style="opacity: 1;"><rect  id="v-2474" rx="1" ry="1" stroke="#0c7cba" stroke-width="8" pointer-events="visiblePainted" fill="#cfe4ff" width="450" height="300" style="fill: rgb(207, 228, 255); stroke: rgb(12, 124, 186);"></rect><text  id="v-2475" font-size="34" y="0.8em" xml:space="preserve" font-weight="bold" text-anchor="middle" pointer-events="visible" font-family="Open Sans" fill="#000000" transform="matrix(1,0,0,1,225,75)" style="fill: rgb(0, 0, 0);"><tspan id="v-2480"  dy="0em" x="0">Icarus</tspan></text><text  id="v-2476" font-size="19" y="0.8em" xml:space="preserve" text-anchor="middle" font-family="Open Sans" fill="#000000" transform="matrix(1,0,0,1,225,117.5)" style="fill: rgb(0, 0, 0);"><tspan id="v-2481"  dy="0em" x="0">[Software System]</tspan></text><text  id="v-2477" font-size="24" y="0.8em" xml:space="preserve" text-anchor="middle" font-family="Open Sans" fill="#000000" transform="matrix(1,0,0,1,225,165)" style="fill: rgb(0, 0, 0);"><tspan id="v-2482"  dy="0em" x="0">Provides powerful facilities to work</tspan><tspan id="v-2483"  dy="1.2em" x="0">with physics materials.</tspan></text><text  id="v-2478" font-weight="bold" text-anchor="middle" font-family="Open Sans" fill="#000000" font-size="24" transform="matrix(1,0,0,1,225,270)" y="0.8em" xml:space="preserve" display="none" style="fill: rgb(0, 0, 0);"><tspan id="v-2484"  dy="0em" x="0">#</tspan></text><image  id="v-2479"></image></g></g><g id="j_155"    transform="translate(374,299)" style=""><g  id="v-2492" style="opacity: 1;"><rect  id="v-2493" rx="20" ry="20" stroke="#c92d39" stroke-width="2" pointer-events="visiblePainted" fill="#c92d39" width="300" height="450" style="fill: rgb(201, 45, 57); stroke: rgb(201, 45, 57);"></rect><rect  id="v-2494" rx="5" ry="5" stroke="#c92d39" stroke-width="0" pointer-events="visiblePainted" fill="#ffd9d9" width="280" height="370" x="10" y="40" style="fill: rgb(255, 217, 217);"></rect><ellipse  id="v-2500" fill="#ffd9d9" cx="150" cy="430" rx="10" ry="10" style="fill: rgb(255, 217, 217);"></ellipse><line  style="stroke-width: 2px; stroke: rgb(255, 217, 217);" id="v-2501" stroke="#ffd9d9" x1="125" y1="20" x2="175" y2="20"></line><text  id="v-2495" font-size="34" y="0.8em" xml:space="preserve" font-weight="bold" text-anchor="middle" pointer-events="visible" font-family="Open Sans" fill="#000000" transform="matrix(1,0,0,1,150,86.9)" style="fill: rgb(0, 0, 0);"><tspan id="v-2502"  dy="0em" x="0">Mobile</tspan><tspan id="v-2503"  dy="1.2em" x="0">application</tspan></text><text  id="v-2496" font-size="19" y="0.8em" xml:space="preserve" text-anchor="middle" font-family="Open Sans" fill="#000000" transform="matrix(1,0,0,1,150,171.9)" style="fill: rgb(0, 0, 0);"><tspan id="v-2504"  dy="0em" x="0">from MILA</tspan><tspan id="v-2505"  dy="1.2em" x="0">[Container: Xamarin]</tspan></text><text  id="v-2497" font-size="24" y="0.8em" xml:space="preserve" text-anchor="middle" font-family="Open Sans" fill="#000000" transform="matrix(1,0,0,1,150,243.1)" style="fill: rgb(0, 0, 0);"><tspan id="v-2506"  dy="0em" x="0">Provides uncluttered</tspan><tspan id="v-2507"  dy="1.2em" x="0">interface to ease</tspan><tspan id="v-2508"  dy="1.2em" x="0">pictures shooting,</tspan><tspan id="v-2509"  dy="1.2em" x="0">stiching &amp; uploading.</tspan></text><text  id="v-2498" font-weight="bold" text-anchor="middle" font-family="Open Sans" fill="#000000" font-size="24" transform="matrix(1,0,0,1,150,405)" style="fill: rgb(0, 0, 0);" display="none"></text><image  id="v-2499"></image></g></g><g id="j_156"    transform="translate(1170,611)" style=""><g  id="v-2513" style="opacity: 1;"><rect  id="v-2514" rx="1" ry="1" stroke="#c92d39" stroke-width="8" pointer-events="visiblePainted" fill="#ffd9d9" width="450" height="300" style="fill: rgb(255, 217, 217); stroke: rgb(201, 45, 57);"></rect><text  id="v-2515" font-size="34" y="0.8em" xml:space="preserve" font-weight="bold" text-anchor="middle" pointer-events="visible" font-family="Open Sans" fill="#000000" transform="matrix(1,0,0,1,225,18.1)" style="fill: rgb(0, 0, 0);"><tspan id="v-2520"  dy="0em" x="0">API application</tspan></text><text  id="v-2516" font-size="19" y="0.8em" xml:space="preserve" text-anchor="middle" font-family="Open Sans" fill="#000000" transform="matrix(1,0,0,1,225,60.6)" style="fill: rgb(0, 0, 0);"><tspan id="v-2521"  dy="0em" x="0">from MILA</tspan><tspan id="v-2522"  dy="1.2em" x="0">[Container]</tspan></text><text  id="v-2517" font-size="24" y="0.8em" xml:space="preserve" text-anchor="middle" font-family="Open Sans" fill="#000000" transform="matrix(1,0,0,1,225,131.9)" style="fill: rgb(0, 0, 0);"><tspan id="v-2523"  dy="0em" x="0">Extracts spatially varying</tspan><tspan id="v-2524"  dy="1.2em" x="0">BRDF-Cook-Torrance with normals,</tspan><tspan id="v-2525"  dy="1.2em" x="0">diffuse, roughness &amp; specular maps</tspan><tspan id="v-2526"  dy="1.2em" x="0">from pictures set leveraring deep</tspan><tspan id="v-2527"  dy="1.2em" x="0">neural network.</tspan></text><text  id="v-2518" font-weight="bold" text-anchor="middle" font-family="Open Sans" fill="#000000" font-size="24" transform="matrix(1,0,0,1,225,270)" style="fill: rgb(0, 0, 0);" display="none"></text><image  id="v-2519"></image></g></g><g id="j_163"   ><path  stroke="#707070" id="v-2608" stroke-width="2" stroke-dasharray="30 30" fill="none" d="M 1620 761 1900 761" style="opacity: 1;"></path><path  fill="black" stroke="black" transform="translate(1620,761) scale(1,1) rotate(0)"></path><path  fill="#707070" stroke="#707070" id="v-2610" d="M 20 0 L 0 10 L 20 20 z" transform="translate(1919.9999999999998,771) scale(1,1) rotate(-180)" style="opacity: 1;"></path><path  id="v-2609" fill="none" d="M 1620 761 1900 761" style=""></path><title ></title><g ><g  id="v-2595" label-idx="0" cursor="move" transform="translate(1760, 761)" style="opacity: 1;"><rect id="v-2597" fill="#ffffff" rx="3" ry="3" stroke="#ffffff" stroke-width="20px" pointer-events="none" width="180.34197998046875" height="61.12082862854004" transform="matrix(1,0,0,1,-89.8,-30.6)"></rect><text id="v-2596" font-size="24px" y="0.8em" xml:space="preserve" text-anchor="middle" pointer-events="none" fill="#707070" font-family="Open Sans" font-weight="normal" transform="matrix(1,0,0,1,0,-23.5)"><tspan id="v-2598"  dy="0em" x="0">stores materials</tspan><tspan id="v-2599"  dy="1.2em" x="0">to</tspan></text></g><g  id="v-2600" label-idx="1" cursor="move" transform="translate(1760, 804.2)" style="opacity: 1;"><rect id="v-2602" fill="#ffffff" rx="3" ry="3" pointer-events="none" width="0" height="0" transform="matrix(1,0,0,1,0,0)"></rect><text id="v-2601" font-size="19px" y="0.8em" display="none" xml:space="preserve" text-anchor="middle" pointer-events="none" fill="#707070" font-family="Open Sans" font-weight="normal" transform="matrix(1,0,0,1,0,0)"><tspan id="v-2603"  dy="0em" x="0" style="fill-opacity: 0; stroke-opacity: 0;">-</tspan></text></g><g  id="v-2604" label-idx="2" cursor="move" transform="translate(1760, 828.2)" style="opacity: 1;"><rect id="v-2606" fill="#ffffff" rx="3" ry="3" pointer-events="none"  display="none" width="0" height="0" transform="matrix(1,0,0,1,0,0)"></rect><text id="v-2605" font-size="19px" y="0.8em" display="none" xml:space="preserve" text-anchor="middle" pointer-events="none" fill="#707070" font-family="Open Sans" font-weight="normal"  transform="matrix(1,0,0,1,0,0)"><tspan id="v-2607"  dy="0em" x="0" style="fill-opacity: 0; stroke-opacity: 0;">-</tspan></text></g></g><g  display="none"></g><g  id="v-2612" display="none"><g  id="v-2592"><path  end="source" d="M 26 0 L 0 13 L 26 26 z"></path></g><g  id="v-2593"><path  end="target" d="M 26 0 L 0 13 L 26 26 z"></path></g></g><g  id="v-2611" display="none"><g  id="v-2591" transform="translate(1660, 761) "><g  event="remove"><circle r="11"></circle><path transform="scale(.8) translate(-16, -16)" d="M24.778,21.419 19.276,15.917 24.777,10.415 21.949,7.585 16.447,13.087 10.945,7.585 8.117,10.415 13.618,15.917 8.116,21.419 10.946,24.248 16.447,18.746 21.948,24.248z"></path><title>Remove link.</title></g><g  event="link:options"><circle r="11" transform="translate(25)"></circle><path fill="white" transform="scale(.55) translate(29, -16)" d="M31.229,17.736c0.064-0.571,0.104-1.148,0.104-1.736s-0.04-1.166-0.104-1.737l-4.377-1.557c-0.218-0.716-0.504-1.401-0.851-2.05l1.993-4.192c-0.725-0.91-1.549-1.734-2.458-2.459l-4.193,1.994c-0.647-0.347-1.334-0.632-2.049-0.849l-1.558-4.378C17.165,0.708,16.588,0.667,16,0.667s-1.166,0.041-1.737,0.105L12.707,5.15c-0.716,0.217-1.401,0.502-2.05,0.849L6.464,4.005C5.554,4.73,4.73,5.554,4.005,6.464l1.994,4.192c-0.347,0.648-0.632,1.334-0.849,2.05l-4.378,1.557C0.708,14.834,0.667,15.412,0.667,16s0.041,1.165,0.105,1.736l4.378,1.558c0.217,0.715,0.502,1.401,0.849,2.049l-1.994,4.193c0.725,0.909,1.549,1.733,2.459,2.458l4.192-1.993c0.648,0.347,1.334,0.633,2.05,0.851l1.557,4.377c0.571,0.064,1.148,0.104,1.737,0.104c0.588,0,1.165-0.04,1.736-0.104l1.558-4.377c0.715-0.218,1.399-0.504,2.049-0.851l4.193,1.993c0.909-0.725,1.733-1.549,2.458-2.458l-1.993-4.193c0.347-0.647,0.633-1.334,0.851-2.049L31.229,17.736zM16,20.871c-2.69,0-4.872-2.182-4.872-4.871c0-2.69,2.182-4.872,4.872-4.872c2.689,0,4.871,2.182,4.871,4.872C20.871,18.689,18.689,20.871,16,20.871z"></path><title>Link options.</title></g></g></g></g><g id="j_164"   ><path  stroke="#707070" id="v-2633" stroke-width="2" stroke-dasharray="30 30" fill="none" d="M 2145 1274 2145 931" style="opacity: 1;"></path><path  fill="black" stroke="black" transform="translate(2145,1274) scale(1,1) rotate(-90)"></path><path  fill="#707070" stroke="#707070" id="v-2635" d="M 20 0 L 0 10 L 20 20 z" transform="translate(2155,911.0000000000001) scale(1,1) rotate(-270)" style="opacity: 1;"></path><path  id="v-2634" fill="none" d="M 2145 1274 2145 931" style=""></path><title ></title><g ><g  id="v-2620" label-idx="0" cursor="move" transform="translate(2145, 1102.5)" style="opacity: 1;"><rect id="v-2622" fill="#ffffff" rx="3" ry="3" stroke="#ffffff" stroke-width="20px" pointer-events="none" width="194.44314575195312" height="61.12082862854004" transform="matrix(1,0,0,1,-97.9,-30.6)"></rect><text id="v-2621" font-size="24px" y="0.8em" xml:space="preserve" text-anchor="middle" pointer-events="none" fill="#707070" font-family="Open Sans" font-weight="normal" transform="matrix(1,0,0,1,0,-23.5)"><tspan id="v-2623"  dy="0em" x="0">fetches materials</tspan><tspan id="v-2624"  dy="1.2em" x="0">from</tspan></text></g><g  id="v-2625" label-idx="1" cursor="move" transform="translate(2145, 1145.7)" style="opacity: 1;"><rect id="v-2627" fill="#ffffff" rx="3" ry="3" pointer-events="none" width="0" height="0" transform="matrix(1,0,0,1,0,0)"></rect><text id="v-2626" font-size="19px" y="0.8em" display="none" xml:space="preserve" text-anchor="middle" pointer-events="none" fill="#707070" font-family="Open Sans" font-weight="normal" transform="matrix(1,0,0,1,0,0)"><tspan id="v-2628"  dy="0em" x="0" style="fill-opacity: 0; stroke-opacity: 0;">-</tspan></text></g><g  id="v-2629" label-idx="2" cursor="move" transform="translate(2145, 1169.7)" style="opacity: 1;"><rect id="v-2631" fill="#ffffff" rx="3" ry="3" pointer-events="none"  display="none" width="0" height="0" transform="matrix(1,0,0,1,0,0)"></rect><text id="v-2630" font-size="19px" y="0.8em" display="none" xml:space="preserve" text-anchor="middle" pointer-events="none" fill="#707070" font-family="Open Sans" font-weight="normal"  transform="matrix(1,0,0,1,0,0)"><tspan id="v-2632"  dy="0em" x="0" style="fill-opacity: 0; stroke-opacity: 0;">-</tspan></text></g></g><g  display="none"></g><g  id="v-2637" display="none"><g  id="v-2617"><path  end="source" d="M 26 0 L 0 13 L 26 26 z"></path></g><g  id="v-2618"><path  end="target" d="M 26 0 L 0 13 L 26 26 z"></path></g></g><g  id="v-2636" display="none"><g  id="v-2616" transform="translate(2145, 1234) "><g  event="remove"><circle r="11"></circle><path transform="scale(.8) translate(-16, -16)" d="M24.778,21.419 19.276,15.917 24.777,10.415 21.949,7.585 16.447,13.087 10.945,7.585 8.117,10.415 13.618,15.917 8.116,21.419 10.946,24.248 16.447,18.746 21.948,24.248z"></path><title>Remove link.</title></g><g  event="link:options"><circle r="11" transform="translate(25)"></circle><path fill="white" transform="scale(.55) translate(29, -16)" d="M31.229,17.736c0.064-0.571,0.104-1.148,0.104-1.736s-0.04-1.166-0.104-1.737l-4.377-1.557c-0.218-0.716-0.504-1.401-0.851-2.05l1.993-4.192c-0.725-0.91-1.549-1.734-2.458-2.459l-4.193,1.994c-0.647-0.347-1.334-0.632-2.049-0.849l-1.558-4.378C17.165,0.708,16.588,0.667,16,0.667s-1.166,0.041-1.737,0.105L12.707,5.15c-0.716,0.217-1.401,0.502-2.05,0.849L6.464,4.005C5.554,4.73,4.73,5.554,4.005,6.464l1.994,4.192c-0.347,0.648-0.632,1.334-0.849,2.05l-4.378,1.557C0.708,14.834,0.667,15.412,0.667,16s0.041,1.165,0.105,1.736l4.378,1.558c0.217,0.715,0.502,1.401,0.849,2.049l-1.994,4.193c0.725,0.909,1.549,1.733,2.459,2.458l4.192-1.993c0.648,0.347,1.334,0.633,2.05,0.851l1.557,4.377c0.571,0.064,1.148,0.104,1.737,0.104c0.588,0,1.165-0.04,1.736-0.104l1.558-4.377c0.715-0.218,1.399-0.504,2.049-0.851l4.193,1.993c0.909-0.725,1.733-1.549,2.458-2.458l-1.993-4.193c0.347-0.647,0.633-1.334,0.851-2.049L31.229,17.736zM16,20.871c-2.69,0-4.872-2.182-4.872-4.871c0-2.69,2.182-4.872,4.872-4.872c2.689,0,4.871,2.182,4.871,4.872C20.871,18.689,18.689,20.871,16,20.871z"></path><title>Link options.</title></g></g></g></g><g id="j_165"   ><path  stroke="#707070" id="v-2657" stroke-width="2" stroke-dasharray="30 30" fill="none" d="M 749 1138 1153 902" style="opacity: 1;"></path><path  fill="black" stroke="black" transform="translate(749,1138) scale(1,1) rotate(-30.298728942871094)"></path><path  fill="#707070" stroke="#707070" id="v-2659" d="M 20 0 L 0 10 L 20 20 z" transform="translate(1175.0451184480905,900.6340895308736) scale(1,1) rotate(-210.29872131347656)" style="opacity: 1;"></path><path  id="v-2658" fill="none" d="M 749 1138 1153 902" style=""></path><title ></title><g ><g  id="v-2645" label-idx="0" cursor="move" transform="translate(951, 1020)" style="opacity: 1;"><rect id="v-2647" fill="#ffffff" rx="3" ry="3" stroke="#ffffff" stroke-width="20px" pointer-events="none" width="188.05418395996094" height="32.32082557678223" transform="matrix(1,0,0,1,-94,-16.2)"></rect><text id="v-2646" font-size="24px" y="0.8em" xml:space="preserve" text-anchor="middle" pointer-events="none" fill="#707070" font-family="Open Sans" font-weight="normal" transform="matrix(1,0,0,1,0,-9.1)"><tspan id="v-2648"  dy="0em" x="0">makes API call to</tspan></text></g><g  id="v-2649" label-idx="1" cursor="move" transform="translate(951, 1051.2)" style="opacity: 1;"><rect id="v-2651" fill="#ffffff" rx="3" ry="3" pointer-events="none" width="0" height="0" transform="matrix(1,0,0,1,0,0)"></rect><text id="v-2650" font-size="19px" y="0.8em" display="none" xml:space="preserve" text-anchor="middle" pointer-events="none" fill="#707070" font-family="Open Sans" font-weight="normal" transform="matrix(1,0,0,1,0,0)"><tspan id="v-2652"  dy="0em" x="0" style="fill-opacity: 0; stroke-opacity: 0;">-</tspan></text></g><g  id="v-2653" label-idx="2" cursor="move" transform="translate(951, 1075.2)" style="opacity: 1;"><rect id="v-2655" fill="#ffffff" rx="3" ry="3" pointer-events="none"  display="none" width="0" height="0" transform="matrix(1,0,0,1,0,0)"></rect><text id="v-2654" font-size="19px" y="0.8em" display="none" xml:space="preserve" text-anchor="middle" pointer-events="none" fill="#707070" font-family="Open Sans" font-weight="normal"  transform="matrix(1,0,0,1,0,0)"><tspan id="v-2656"  dy="0em" x="0" style="fill-opacity: 0; stroke-opacity: 0;">-</tspan></text></g></g><g  display="none"></g><g  id="v-2661" display="none"><g  id="v-2642"><path  end="source" d="M 26 0 L 0 13 L 26 26 z"></path></g><g  id="v-2643"><path  end="target" d="M 26 0 L 0 13 L 26 26 z"></path></g></g><g  id="v-2660" display="none"><g  id="v-2641" transform="translate(783.5386962890625, 1117.823974609375) "><g  event="remove"><circle r="11"></circle><path transform="scale(.8) translate(-16, -16)" d="M24.778,21.419 19.276,15.917 24.777,10.415 21.949,7.585 16.447,13.087 10.945,7.585 8.117,10.415 13.618,15.917 8.116,21.419 10.946,24.248 16.447,18.746 21.948,24.248z"></path><title>Remove link.</title></g><g  event="link:options"><circle r="11" transform="translate(25)"></circle><path fill="white" transform="scale(.55) translate(29, -16)" d="M31.229,17.736c0.064-0.571,0.104-1.148,0.104-1.736s-0.04-1.166-0.104-1.737l-4.377-1.557c-0.218-0.716-0.504-1.401-0.851-2.05l1.993-4.192c-0.725-0.91-1.549-1.734-2.458-2.459l-4.193,1.994c-0.647-0.347-1.334-0.632-2.049-0.849l-1.558-4.378C17.165,0.708,16.588,0.667,16,0.667s-1.166,0.041-1.737,0.105L12.707,5.15c-0.716,0.217-1.401,0.502-2.05,0.849L6.464,4.005C5.554,4.73,4.73,5.554,4.005,6.464l1.994,4.192c-0.347,0.648-0.632,1.334-0.849,2.05l-4.378,1.557C0.708,14.834,0.667,15.412,0.667,16s0.041,1.165,0.105,1.736l4.378,1.558c0.217,0.715,0.502,1.401,0.849,2.049l-1.994,4.193c0.725,0.909,1.549,1.733,2.459,2.458l4.192-1.993c0.648,0.347,1.334,0.633,2.05,0.851l1.557,4.377c0.571,0.064,1.148,0.104,1.737,0.104c0.588,0,1.165-0.04,1.736-0.104l1.558-4.377c0.715-0.218,1.399-0.504,2.049-0.851l4.193,1.993c0.909-0.725,1.733-1.549,2.458-2.458l-1.993-4.193c0.347-0.647,0.633-1.334,0.851-2.049L31.229,17.736zM16,20.871c-2.69,0-4.872-2.182-4.872-4.871c0-2.69,2.182-4.872,4.872-4.872c2.689,0,4.871,2.182,4.871,4.872C20.871,18.689,18.689,20.871,16,20.871z"></path><title>Link options.</title></g></g></g></g><g id="j_166"   ><path  stroke="#707070" id="v-2681" stroke-width="2" stroke-dasharray="30 30" fill="none" d="M 674 565 1151 695" style="opacity: 1;"></path><path  fill="black" stroke="black" transform="translate(674,565) scale(1,1) rotate(15.225799560546903)"></path><path  fill="#707070" stroke="#707070" id="v-2683" d="M 20 0 L 0 10 L 20 20 z" transform="translate(1167.3738239828083,709.6489976554794) scale(1,1) rotate(-164.7742156982422)" style="opacity: 1;"></path><path  id="v-2682" fill="none" d="M 674 565 1151 695" style=""></path><title ></title><g ><g  id="v-2669" label-idx="0" cursor="move" transform="translate(912.5, 630)" style="opacity: 1;"><rect id="v-2671" fill="#ffffff" rx="3" ry="3" stroke="#ffffff" stroke-width="20px" pointer-events="none" width="188.05418395996094" height="32.32082557678223" transform="matrix(1,0,0,1,-94,-16.2)"></rect><text id="v-2670" font-size="24px" y="0.8em" xml:space="preserve" text-anchor="middle" pointer-events="none" fill="#707070" font-family="Open Sans" font-weight="normal" transform="matrix(1,0,0,1,0,-9.1)"><tspan id="v-2672"  dy="0em" x="0">makes API call to</tspan></text></g><g  id="v-2673" label-idx="1" cursor="move" transform="translate(912.5, 661.2)" style="opacity: 1;"><rect id="v-2675" fill="#ffffff" rx="3" ry="3" pointer-events="none" width="0" height="0" transform="matrix(1,0,0,1,0,0)"></rect><text id="v-2674" font-size="19px" y="0.8em" display="none" xml:space="preserve" text-anchor="middle" pointer-events="none" fill="#707070" font-family="Open Sans" font-weight="normal" transform="matrix(1,0,0,1,0,0)"><tspan id="v-2676"  dy="0em" x="0" style="fill-opacity: 0; stroke-opacity: 0;">-</tspan></text></g><g  id="v-2677" label-idx="2" cursor="move" transform="translate(912.5, 685.2)" style="opacity: 1;"><rect id="v-2679" fill="#ffffff" rx="3" ry="3" pointer-events="none"  display="none" width="0" height="0" transform="matrix(1,0,0,1,0,0)"></rect><text id="v-2678" font-size="19px" y="0.8em" display="none" xml:space="preserve" text-anchor="middle" pointer-events="none" fill="#707070" font-family="Open Sans" font-weight="normal"  transform="matrix(1,0,0,1,0,0)"><tspan id="v-2680"  dy="0em" x="0" style="fill-opacity: 0; stroke-opacity: 0;">-</tspan></text></g></g><g  display="none"></g><g  id="v-2685" display="none"><g  id="v-2666"><path  end="source" d="M 26 0 L 0 13 L 26 26 z"></path></g><g  id="v-2667"><path  end="target" d="M 26 0 L 0 13 L 26 26 z"></path></g></g><g  id="v-2684" display="none"><g  id="v-2665" transform="translate(712.5924072265625, 575.517822265625) "><g  event="remove"><circle r="11"></circle><path transform="scale(.8) translate(-16, -16)" d="M24.778,21.419 19.276,15.917 24.777,10.415 21.949,7.585 16.447,13.087 10.945,7.585 8.117,10.415 13.618,15.917 8.116,21.419 10.946,24.248 16.447,18.746 21.948,24.248z"></path><title>Remove link.</title></g><g  event="link:options"><circle r="11" transform="translate(25)"></circle><path fill="white" transform="scale(.55) translate(29, -16)" d="M31.229,17.736c0.064-0.571,0.104-1.148,0.104-1.736s-0.04-1.166-0.104-1.737l-4.377-1.557c-0.218-0.716-0.504-1.401-0.851-2.05l1.993-4.192c-0.725-0.91-1.549-1.734-2.458-2.459l-4.193,1.994c-0.647-0.347-1.334-0.632-2.049-0.849l-1.558-4.378C17.165,0.708,16.588,0.667,16,0.667s-1.166,0.041-1.737,0.105L12.707,5.15c-0.716,0.217-1.401,0.502-2.05,0.849L6.464,4.005C5.554,4.73,4.73,5.554,4.005,6.464l1.994,4.192c-0.347,0.648-0.632,1.334-0.849,2.05l-4.378,1.557C0.708,14.834,0.667,15.412,0.667,16s0.041,1.165,0.105,1.736l4.378,1.558c0.217,0.715,0.502,1.401,0.849,2.049l-1.994,4.193c0.725,0.909,1.549,1.733,2.459,2.458l4.192-1.993c0.648,0.347,1.334,0.633,2.05,0.851l1.557,4.377c0.571,0.064,1.148,0.104,1.737,0.104c0.588,0,1.165-0.04,1.736-0.104l1.558-4.377c0.715-0.218,1.399-0.504,2.049-0.851l4.193,1.993c0.909-0.725,1.733-1.549,2.458-2.458l-1.993-4.193c0.347-0.647,0.633-1.334,0.851-2.049L31.229,17.736zM16,20.871c-2.69,0-4.872-2.182-4.872-4.871c0-2.69,2.182-4.872,4.872-4.872c2.689,0,4.871,2.182,4.871,4.872C20.871,18.689,18.689,20.871,16,20.871z"></path><title>Link options.</title></g></g></g></g></g><defs id="v-4"></defs></svg>