<svg xmlns="http://www.w3.org/2000/svg" xmlns:xlink="http://www.w3.org/1999/xlink" version="1.1" viewBox="0 0 2500 500" style="background: #ffffff"><g transform="translate(25,25)"><rect x="0" y="180" width="450" height="270" rx="90" fill="#f4d9ff" stroke-width="8" stroke="#834187"></rect><circle cx="225" cy="100" r="100" fill="#f4d9ff" stroke-width="8" stroke="#834187"></circle><line x1="90" y1="300" x2="90" y2="450" stroke-width="8" stroke="#834187"></line><line x1="360" y1="300" x2="360" y2="450" stroke-width="8" stroke="#834187"></line><text x="225" y="256.25" text-anchor="middle" fill="#000000" font-size="30px" font-family="Open Sans"><tspan x="225" dy="40px">Person</tspan></text></g><g transform="translate(525,100)"><rect width="450" height="300" rx="3" ry="3" x="0" y="0" fill="#cfe4ff" stroke-width="8" stroke="#0c7cba"></rect><text x="225" y="131.25" text-anchor="middle" fill="#000000" font-size="30px" font-family="Open Sans"><tspan x="225" dy="40px">Software System</tspan></text></g><g transform="translate(1025,100)"><rect width="450" height="300" rx="3" ry="3" x="0" y="0" fill="#f5f5f5" stroke-width="8" stroke="#666666"></rect><text x="225" y="112.5" text-anchor="middle" fill="#000000" font-size="30px" font-family="Open Sans"><tspan x="225" dy="40px">Software System,</tspan><tspan x="225" dy="40px">#external</tspan></text></g><g transform="translate(1525,170)"><path d="M390,0 L390,60 L450,30 L 390,0" style="fill:#707070" stroke-dasharray=""></path><path d="M0,30 L390,30" style="stroke:#707070; stroke-width: 6; fill: none; stroke-dasharray: 30 30;"></path><text x="225" y="76.25" text-anchor="middle" fill="#707070" font-size="30px" font-family="Open Sans"><tspan x="225" dy="40px">Relationship</tspan></text></g></svg>