<svg xmlns="http://www.w3.org/2000/svg" xmlns:lucid="lucid" width="720" height="580"><g lucid:page-tab-id="QQ-r16Hr05lE" stroke="#000" stroke-width="3"><path d="M440 26c0-3.3 2.7-6 6-6h108c3.3 0 6 2.7 6 6v108c0 3.3-2.7 6-6 6H446c-3.3 0-6-2.7-6-6zM160 26c0-3.3 2.7-6 6-6h108c3.3 0 6 2.7 6 6v108c0 3.3-2.7 6-6 6H166c-3.3 0-6-2.7-6-6z" fill="#8a8b8e"/><path d="M300 26c0-3.3 2.7-6 6-6h108c3.3 0 6 2.7 6 6v108c0 3.3-2.7 6-6 6H306c-3.3 0-6-2.7-6-6z" fill="#ffb814"/><path d="M440 166c0-3.3 2.7-6 6-6h108c3.3 0 6 2.7 6 6v108c0 3.3-2.7 6-6 6H446c-3.3 0-6-2.7-6-6z" fill="#c99309"/><path d="M300 166c0-3.3 2.7-6 6-6h108c3.3 0 6 2.7 6 6v108c0 3.3-2.7 6-6 6H306c-3.3 0-6-2.7-6-6z" fill="#ffb814"/><path d="M300 306c0-3.3 2.7-6 6-6h108c3.3 0 6 2.7 6 6v108c0 3.3-2.7 6-6 6H306c-3.3 0-6-2.7-6-6z" fill="#c99309"/><path d="M160 166c0-3.3 2.7-6 6-6h108c3.3 0 6 2.7 6 6v108c0 3.3-2.7 6-6 6H166c-3.3 0-6-2.7-6-6z" fill="#ffb814"/><path d="M440 306c0-3.3 2.7-6 6-6h108c3.3 0 6 2.7 6 6v108c0 3.3-2.7 6-6 6H446c-3.3 0-6-2.7-6-6z" fill="#8a8b8e"/><path d="M20 166c0-3.3 2.7-6 6-6h108c3.3 0 6 2.7 6 6v108c0 3.3-2.7 6-6 6H26c-3.3 0-6-2.7-6-6z" fill="#c99309"/><path d="M160 306c0-3.3 2.7-6 6-6h108c3.3 0 6 2.7 6 6v108c0 3.3-2.7 6-6 6H166c-3.3 0-6-2.7-6-6z" fill="#ffb814"/><path d="M160 446c0-3.3 2.7-6 6-6h108c3.3 0 6 2.7 6 6v108c0 3.3-2.7 6-6 6H166c-3.3 0-6-2.7-6-6z" fill="#8a8b8e"/><path d="M580 166c0-3.3 2.7-6 6-6h108c3.3 0 6 2.7 6 6v108c0 3.3-2.7 6-6 6H586c-3.3 0-6-2.7-6-6z" fill="#ffb814"/></g></svg>