<svg xmlns="http://www.w3.org/2000/svg" xmlns:xlink="http://www.w3.org/1999/xlink" version="1.1" viewBox="0 0 2608 958" style="background: #ffffff"><g id="v-3"  transform="matrix(1,0,0,1,0,0)"><g id="j_20"    transform="translate(20,838)"><g id="v-267"><image  id="v-268" pointer-events="none" xlink:href="https://raw.githubusercontent.com/rvr06/cornifer-contrib/main/assets/daedalus.png" width="100" height="100" display="block"></image></g></g><g id="j_19"    transform="translate(140,913)"><g id="v-263"><text  id="v-264" font-size="22px" y="0.8em" xml:space="preserve" font-weight="normal" text-anchor="start" fill="#aaaaaa" pointer-events="none" font-family="Open Sans" transform="matrix(1,0,0,1,0,0)" display="block"><tspan id="v-265"  dy="0em" x="0">Thursday, January 12, 2023 at 11:18 AM Central European Standard Time</tspan></text></g></g><g id="j_18"    transform="translate(140,867)"><g id="v-259"><text  id="v-260" font-size="36px" y="0.8em" xml:space="preserve" font-weight="normal" text-anchor="start" fill="#000000" pointer-events="none" font-family="Open Sans" transform="matrix(1,0,0,1,0,0)" display="block"><tspan id="v-261"  dy="0em" x="0">[Component] MILA - Mobile application</tspan></text></g></g><g id="j_12"    transform="translate(309,309)" style=""><g id="v-166"><rect  id="v-167" width="1990" height="413" rx="0" ry="0" fill="#ffffff" stroke="#c92d39" stroke-width="8" stroke-dasharray="20,20" pointer-events="none"></rect><text  id="v-168" font-size="24px" y="374" xml:space="preserve" font-weight="normal" fill="#c92d39" x="10" text-anchor="start" pointer-events="visible" font-family="Open Sans" transform="matrix(1,0,0,1,15,0)"><tspan id="v-171"  dy="0em" x="0">Mobile application</tspan></text><text  id="v-169" font-size="19px" y="398" xml:space="preserve" font-weight="normal" fill="#c92d39" x="10" text-anchor="start" pointer-events="visible" font-family="Open Sans" transform="matrix(1,0,0,1,15,0)"><tspan id="v-172"  dy="0em" x="0">[Container]</tspan></text><image  id="v-170" pointer-events="visible"></image></g></g><g id="j_13"    transform="translate(329,329)" style=""><g  id="v-176" style="opacity: 1;"><rect  id="v-177" rx="1" ry="1" stroke="#7ab648" stroke-width="8" pointer-events="visiblePainted" fill="#c3f7c8" width="450" height="300" style="fill: rgb(195, 247, 200); stroke: rgb(122, 182, 72);"></rect><text  id="v-178" font-size="34" y="0.8em" xml:space="preserve" font-weight="bold" text-anchor="middle" pointer-events="visible" font-family="Open Sans" fill="#000000" transform="matrix(1,0,0,1,225,75)" style="fill: rgb(0, 0, 0);"><tspan id="v-183"  dy="0em" x="0">Acquisition</tspan></text><text  id="v-179" font-size="19" y="0.8em" xml:space="preserve" text-anchor="middle" font-family="Open Sans" fill="#000000" transform="matrix(1,0,0,1,225,117.5)" style="fill: rgb(0, 0, 0);"><tspan id="v-184"  dy="0em" x="0">[Component: C#]</tspan></text><text  id="v-180" font-size="24" y="0.8em" xml:space="preserve" text-anchor="middle" font-family="Open Sans" fill="#000000" transform="matrix(1,0,0,1,225,165)" style="fill: rgb(0, 0, 0);"><tspan id="v-185"  dy="0em" x="0">Handles smartphone built-in</tspan><tspan id="v-186"  dy="1.2em" x="0">capabilities.</tspan></text><text  id="v-181" font-weight="bold" text-anchor="middle" font-family="Open Sans" fill="#000000" font-size="24" transform="matrix(1,0,0,1,225,270)" style="fill: rgb(0, 0, 0);" display="none"></text><image  id="v-182"></image></g></g><g id="j_14"    transform="translate(1079,329)" style=""><g  id="v-190" style="opacity: 1;"><rect  id="v-191" rx="1" ry="1" stroke="#7ab648" stroke-width="8" pointer-events="visiblePainted" fill="#c3f7c8" width="450" height="300" style="fill: rgb(195, 247, 200); stroke: rgb(122, 182, 72);"></rect><text  id="v-192" font-size="34" y="0.8em" xml:space="preserve" font-weight="bold" text-anchor="middle" pointer-events="visible" font-family="Open Sans" fill="#000000" transform="matrix(1,0,0,1,225,75)" style="fill: rgb(0, 0, 0);"><tspan id="v-197"  dy="0em" x="0">Preparation</tspan></text><text  id="v-193" font-size="19" y="0.8em" xml:space="preserve" text-anchor="middle" font-family="Open Sans" fill="#000000" transform="matrix(1,0,0,1,225,117.5)" style="fill: rgb(0, 0, 0);"><tspan id="v-198"  dy="0em" x="0">[Component: C#]</tspan></text><text  id="v-194" font-size="24" y="0.8em" xml:space="preserve" text-anchor="middle" font-family="Open Sans" fill="#000000" transform="matrix(1,0,0,1,225,165)" style="fill: rgb(0, 0, 0);"><tspan id="v-199"  dy="0em" x="0">Provides images tooling such as</tspan><tspan id="v-200"  dy="1.2em" x="0">cropping &amp; stitching facilities.</tspan></text><text  id="v-195" font-weight="bold" text-anchor="middle" font-family="Open Sans" fill="#000000" font-size="24" transform="matrix(1,0,0,1,225,270)" style="fill: rgb(0, 0, 0);" display="none"></text><image  id="v-196"></image></g></g><g id="j_15"    transform="translate(1829,329)" style=""><g  id="v-204" style="opacity: 1;"><rect  id="v-205" rx="1" ry="1" stroke="#7ab648" stroke-width="8" pointer-events="visiblePainted" fill="#c3f7c8" width="450" height="300" style="fill: rgb(195, 247, 200); stroke: rgb(122, 182, 72);"></rect><text  id="v-206" font-size="34" y="0.8em" xml:space="preserve" font-weight="bold" text-anchor="middle" pointer-events="visible" font-family="Open Sans" fill="#000000" transform="matrix(1,0,0,1,225,90)" style="fill: rgb(0, 0, 0);"><tspan id="v-211"  dy="0em" x="0">Uploading</tspan></text><text  id="v-207" font-size="19" y="0.8em" xml:space="preserve" text-anchor="middle" font-family="Open Sans" fill="#000000" transform="matrix(1,0,0,1,225,132.5)" style="fill: rgb(0, 0, 0);"><tspan id="v-212"  dy="0em" x="0">[Component: C#]</tspan></text><text  id="v-208" font-size="24" y="0.8em" xml:space="preserve" text-anchor="middle" font-family="Open Sans" fill="#000000" transform="matrix(1,0,0,1,225,180)" style="fill: rgb(0, 0, 0);"><tspan id="v-213"  dy="0em" x="0">Handles back-end communication.</tspan></text><text  id="v-209" font-weight="bold" text-anchor="middle" font-family="Open Sans" fill="#000000" font-size="24" transform="matrix(1,0,0,1,225,270)" style="fill: rgb(0, 0, 0);" display="none"></text><image  id="v-210"></image></g></g><g id="j_16"   ><path  stroke="#707070" id="v-231" stroke-width="2" stroke-dasharray="30 30" fill="none" d="M 1529 479 1809 479" style="opacity: 1;"></path><path  fill="black" stroke="black" transform="translate(1529,479) scale(1,1) rotate(0)"></path><path  fill="#707070" stroke="#707070" id="v-233" d="M 20 0 L 0 10 L 20 20 z" transform="translate(1829,489.0000000000001) scale(1,1) rotate(-180)" style="opacity: 1;"></path><path  id="v-232" fill="none" d="M 1529 479 1809 479" style=""></path><title ></title><g ><g  id="v-219" label-idx="0" cursor="move" transform="translate(1669, 479)" style="opacity: 1;"><rect id="v-221" fill="#ffffff" rx="3" ry="3" stroke="#ffffff" stroke-width="20px" pointer-events="none" width="103.37234497070312" height="33.16205596923828" transform="matrix(1,0,0,1,-51.7,-16.6)"></rect><text id="v-220" font-size="24px" y="0.8em" xml:space="preserve" text-anchor="middle" pointer-events="none" fill="#707070" font-family="Open Sans" font-weight="normal" transform="matrix(1,0,0,1,0,-10)"><tspan id="v-222"  dy="0em" x="0">packages</tspan></text></g><g  id="v-223" label-idx="1" cursor="move" transform="translate(1669, 510.2)" style="opacity: 1;"><rect id="v-225" fill="#ffffff" rx="3" ry="3" pointer-events="none" width="0" height="0" transform="matrix(1,0,0,1,0,0)"></rect><text id="v-224" font-size="19px" y="0.8em" display="none" xml:space="preserve" text-anchor="middle" pointer-events="none" fill="#707070" font-family="Open Sans" font-weight="normal" transform="matrix(1,0,0,1,0,0)"><tspan id="v-226"  dy="0em" x="0" style="fill-opacity: 0; stroke-opacity: 0;">-</tspan></text></g><g  id="v-227" label-idx="2" cursor="move" transform="translate(1669, 534.2)" style="opacity: 1;"><rect id="v-229" fill="#ffffff" rx="3" ry="3" pointer-events="none"  display="none" width="0" height="0" transform="matrix(1,0,0,1,0,0)"></rect><text id="v-228" font-size="19px" y="0.8em" display="none" xml:space="preserve" text-anchor="middle" pointer-events="none" fill="#707070" font-family="Open Sans" font-weight="normal"  transform="matrix(1,0,0,1,0,0)"><tspan id="v-230"  dy="0em" x="0" style="fill-opacity: 0; stroke-opacity: 0;">-</tspan></text></g></g><g  display="none"></g><g  id="v-235" display="none"><g  id="v-216"><path  end="source" d="M 26 0 L 0 13 L 26 26 z"></path></g><g  id="v-217"><path  end="target" d="M 26 0 L 0 13 L 26 26 z"></path></g></g><g  id="v-234" display="none"><g  id="v-215" transform="translate(1569, 479) "><g  event="remove"><circle r="11"></circle><path transform="scale(.8) translate(-16, -16)" d="M24.778,21.419 19.276,15.917 24.777,10.415 21.949,7.585 16.447,13.087 10.945,7.585 8.117,10.415 13.618,15.917 8.116,21.419 10.946,24.248 16.447,18.746 21.948,24.248z"></path><title>Remove link.</title></g><g  event="link:options"><circle r="11" transform="translate(25)"></circle><path fill="white" transform="scale(.55) translate(29, -16)" d="M31.229,17.736c0.064-0.571,0.104-1.148,0.104-1.736s-0.04-1.166-0.104-1.737l-4.377-1.557c-0.218-0.716-0.504-1.401-0.851-2.05l1.993-4.192c-0.725-0.91-1.549-1.734-2.458-2.459l-4.193,1.994c-0.647-0.347-1.334-0.632-2.049-0.849l-1.558-4.378C17.165,0.708,16.588,0.667,16,0.667s-1.166,0.041-1.737,0.105L12.707,5.15c-0.716,0.217-1.401,0.502-2.05,0.849L6.464,4.005C5.554,4.73,4.73,5.554,4.005,6.464l1.994,4.192c-0.347,0.648-0.632,1.334-0.849,2.05l-4.378,1.557C0.708,14.834,0.667,15.412,0.667,16s0.041,1.165,0.105,1.736l4.378,1.558c0.217,0.715,0.502,1.401,0.849,2.049l-1.994,4.193c0.725,0.909,1.549,1.733,2.459,2.458l4.192-1.993c0.648,0.347,1.334,0.633,2.05,0.851l1.557,4.377c0.571,0.064,1.148,0.104,1.737,0.104c0.588,0,1.165-0.04,1.736-0.104l1.558-4.377c0.715-0.218,1.399-0.504,2.049-0.851l4.193,1.993c0.909-0.725,1.733-1.549,2.458-2.458l-1.993-4.193c0.347-0.647,0.633-1.334,0.851-2.049L31.229,17.736zM16,20.871c-2.69,0-4.872-2.182-4.872-4.871c0-2.69,2.182-4.872,4.872-4.872c2.689,0,4.871,2.182,4.871,4.872C20.871,18.689,18.689,20.871,16,20.871z"></path><title>Link options.</title></g></g></g></g><g id="j_17"   ><path  stroke="#707070" id="v-253" stroke-width="2" stroke-dasharray="30 30" fill="none" d="M 779 479 1059 479" style="opacity: 1;"></path><path  fill="black" stroke="black" transform="translate(779,479) scale(1,1) rotate(0)"></path><path  fill="#707070" stroke="#707070" id="v-255" d="M 20 0 L 0 10 L 20 20 z" transform="translate(1079,489.0000000000001) scale(1,1) rotate(-180)" style="opacity: 1;"></path><path  id="v-254" fill="none" d="M 779 479 1059 479" style=""></path><title ></title><g ><g  id="v-241" label-idx="0" cursor="move" transform="translate(919, 479)" style="opacity: 1;"><rect id="v-243" fill="#ffffff" rx="3" ry="3" stroke="#ffffff" stroke-width="20px" pointer-events="none" width="62.9848747253418" height="33.16205596923828" transform="matrix(1,0,0,1,-32.4,-16.6)"></rect><text id="v-242" font-size="24px" y="0.8em" xml:space="preserve" text-anchor="middle" pointer-events="none" fill="#707070" font-family="Open Sans" font-weight="normal" transform="matrix(1,0,0,1,0,-10)"><tspan id="v-244"  dy="0em" x="0">feeds</tspan></text></g><g  id="v-245" label-idx="1" cursor="move" transform="translate(919, 510.2)" style="opacity: 1;"><rect id="v-247" fill="#ffffff" rx="3" ry="3" pointer-events="none" width="0" height="0" transform="matrix(1,0,0,1,0,0)"></rect><text id="v-246" font-size="19px" y="0.8em" display="none" xml:space="preserve" text-anchor="middle" pointer-events="none" fill="#707070" font-family="Open Sans" font-weight="normal" transform="matrix(1,0,0,1,0,0)"><tspan id="v-248"  dy="0em" x="0" style="fill-opacity: 0; stroke-opacity: 0;">-</tspan></text></g><g  id="v-249" label-idx="2" cursor="move" transform="translate(919, 534.2)" style="opacity: 1;"><rect id="v-251" fill="#ffffff" rx="3" ry="3" pointer-events="none"  display="none" width="0" height="0" transform="matrix(1,0,0,1,0,0)"></rect><text id="v-250" font-size="19px" y="0.8em" display="none" xml:space="preserve" text-anchor="middle" pointer-events="none" fill="#707070" font-family="Open Sans" font-weight="normal"  transform="matrix(1,0,0,1,0,0)"><tspan id="v-252"  dy="0em" x="0" style="fill-opacity: 0; stroke-opacity: 0;">-</tspan></text></g></g><g  display="none"></g><g  id="v-257" display="none"><g  id="v-238"><path  end="source" d="M 26 0 L 0 13 L 26 26 z"></path></g><g  id="v-239"><path  end="target" d="M 26 0 L 0 13 L 26 26 z"></path></g></g><g  id="v-256" display="none"><g  id="v-237" transform="translate(819, 479) "><g  event="remove"><circle r="11"></circle><path transform="scale(.8) translate(-16, -16)" d="M24.778,21.419 19.276,15.917 24.777,10.415 21.949,7.585 16.447,13.087 10.945,7.585 8.117,10.415 13.618,15.917 8.116,21.419 10.946,24.248 16.447,18.746 21.948,24.248z"></path><title>Remove link.</title></g><g  event="link:options"><circle r="11" transform="translate(25)"></circle><path fill="white" transform="scale(.55) translate(29, -16)" d="M31.229,17.736c0.064-0.571,0.104-1.148,0.104-1.736s-0.04-1.166-0.104-1.737l-4.377-1.557c-0.218-0.716-0.504-1.401-0.851-2.05l1.993-4.192c-0.725-0.91-1.549-1.734-2.458-2.459l-4.193,1.994c-0.647-0.347-1.334-0.632-2.049-0.849l-1.558-4.378C17.165,0.708,16.588,0.667,16,0.667s-1.166,0.041-1.737,0.105L12.707,5.15c-0.716,0.217-1.401,0.502-2.05,0.849L6.464,4.005C5.554,4.73,4.73,5.554,4.005,6.464l1.994,4.192c-0.347,0.648-0.632,1.334-0.849,2.05l-4.378,1.557C0.708,14.834,0.667,15.412,0.667,16s0.041,1.165,0.105,1.736l4.378,1.558c0.217,0.715,0.502,1.401,0.849,2.049l-1.994,4.193c0.725,0.909,1.549,1.733,2.459,2.458l4.192-1.993c0.648,0.347,1.334,0.633,2.05,0.851l1.557,4.377c0.571,0.064,1.148,0.104,1.737,0.104c0.588,0,1.165-0.04,1.736-0.104l1.558-4.377c0.715-0.218,1.399-0.504,2.049-0.851l4.193,1.993c0.909-0.725,1.733-1.549,2.458-2.458l-1.993-4.193c0.347-0.647,0.633-1.334,0.851-2.049L31.229,17.736zM16,20.871c-2.69,0-4.872-2.182-4.872-4.871c0-2.69,2.182-4.872,4.872-4.872c2.689,0,4.871,2.182,4.871,4.872C20.871,18.689,18.689,20.871,16,20.871z"></path><title>Link options.</title></g></g></g></g></g><defs id="v-4"></defs></svg>