<svg xmlns="http://www.w3.org/2000/svg" xmlns:xlink="http://www.w3.org/1999/xlink" xmlns:lucid="lucid" width="2160" height="580"><g transform="translate(1860 10)" lucid:page-tab-id="qKkwAEatkOHy"><path d="M-720 86c0-3.3 2.7-6 6-6h108c3.3 0 6 2.7 6 6v108c0 3.3-2.7 6-6 6h-108c-3.3 0-6-2.7-6-6zM-720 366c0-3.3 2.7-6 6-6h108c3.3 0 6 2.7 6 6v108c0 3.3-2.7 6-6 6h-108c-3.3 0-6-2.7-6-6z" stroke="#c92d39" stroke-width="3" fill="#ff8f80"/><path d="M-1000 86c0-3.3 2.7-6 6-6h108c3.3 0 6 2.7 6 6v108c0 3.3-2.7 6-6 6h-108c-3.3 0-6-2.7-6-6z" stroke="#999" stroke-width="3" fill="#ccc"/><path d="M-440 366c0-3.3 2.7-6 6-6h108c3.3 0 6 2.7 6 6v108c0 3.3-2.7 6-6 6h-108c-3.3 0-6-2.7-6-6z" stroke="#834187" stroke-width="3" fill="#b391b5"/><path d="M-1020 66c0-3.3 2.7-6 6-6h708c3.3 0 6 2.7 6 6v428c0 3.3-2.7 6-6 6h-708c-3.3 0-6-2.7-6-6z" stroke="#83bbe5" stroke-width="3" fill-opacity="0"/><path d="M-442.5 382.83h-9.17v-2h9.17zm-18.33 0h-18.34v-2h18.34zm-27.5 0h-18.34v-2h18.34zm-36.6 0h-9.24v-2h9.23zm-18.4 0h-18.34v-2h18.34zm-27.5 0H-580v-2h9.17z" stroke="#b2b2b2" stroke-width=".05" fill="#b2b2b2"/><path d="M-441.5 382.83h-1.03v-2h1.03z" fill="#b2b2b2"/><path d="M-441.48 382.85h-1.07v-2.05h1.07zm-1.02-2v1.95h.98v-1.95z" stroke="#b2b2b2" stroke-width=".05" fill="#b2b2b2"/><path d="M-581 386.46l-14.26-4.63 14.26-4.64z" fill="#b2b2b2"/><path d="M-580 387.84l-18.5-6 18.5-6.03zm-12.03-6l10.03 3.24v-6.5z" stroke="#b2b2b2" stroke-width=".05" fill="#b2b2b2"/><use xlink:href="#a" transform="matrix(1,0,0,1,-524.9382716049382,371.15923693105316) translate(0 14.222222222222223)"/><path d="M-620.94 357.5h-2v-9.17h2zm0-18.33h-2v-18.34h2zm0-27.5h-2v-18.34h2zm0-42.34h-2v-3.5h2zm0-12.66h-2v-18.34h2zm0-27.5h-2V220h2z" stroke="#b2b2b2" stroke-width=".05" fill="#b2b2b2"/><path d="M-620.94 358.5h-2v-1.03h2z" fill="#b2b2b2"/><path d="M-620.9 358.52h-2.06v-1.07h2.05zm-2-1.02v.98h1.94v-.98z" stroke="#b2b2b2" stroke-width=".05" fill="#b2b2b2"/><path d="M-617.3 219h-9.27l4.63-14.26z" fill="#b2b2b2"/><path d="M-615.93 220h-12.02l6-18.5zm-9.27-2h6.52l-3.26-10.03z" stroke="#b2b2b2" stroke-width=".05" fill="#b2b2b2"/><use xlink:href="#b" transform="matrix(1,0,0,1,-626.8776655443318,269.3333333333333) translate(0 14.222222222222223)"/><path d="M-722.5 141h-9.17v-2h9.17zm-18.33 0h-18.34v-2h18.34zm-27.5 0h-18.34v-2h18.34zm-36.6 0h-9.24v-2h9.23zm-18.4 0h-18.34v-2h18.34zm-27.5 0H-860v-2h9.17z" stroke="#b2b2b2" stroke-width=".05" fill="#b2b2b2"/><path d="M-721.5 141h-1.03v-2h1.03z" fill="#b2b2b2"/><path d="M-721.48 141.03h-1.07v-2.06h1.07zm-1.02-2v1.94h.98v-1.94z" stroke="#b2b2b2" stroke-width=".05" fill="#b2b2b2"/><path d="M-861 144.64l-14.26-4.64 14.26-4.64z" fill="#b2b2b2"/><path d="M-860 146l-18.5-6 18.5-6zm-12.03-6l10.03 3.26v-6.52z" stroke="#b2b2b2" stroke-width=".05" fill="#b2b2b2"/><use xlink:href="#c" transform="matrix(1,0,0,1,-804.9382716049382,129.33333333333334) translate(0 14.222222222222223)"/><path d="M-699.6 340h-2v-9.17h2zm0-18.33h-2v-18.34h2zm0-27.5h-2v-3.5h2zm0-27.5h-2v-18.34h2zm0-27.5h-2v-18.34h2zm0-27.5h-2v-9.17h2z" stroke="#b2b2b2" stroke-width=".05" fill="#b2b2b2"/><path d="M-699.6 202.53h-2v-1.03h2z" fill="#b2b2b2"/><path d="M-699.58 202.55h-2.05v-1.08h2.05zm-2-1.03v.98h1.95v-.97z" stroke="#b2b2b2" stroke-width=".05" fill="#b2b2b2"/><path d="M-700.6 355.26l-4.64-14.26h9.27z" fill="#b2b2b2"/><path d="M-700.6 358.5l-6.02-18.5h12.03zm-3.26-16.5l3.25 10.03 3.25-10.03z" stroke="#b2b2b2" stroke-width=".05" fill="#b2b2b2"/><use xlink:href="#d" transform="matrix(1,0,0,1,-705.5443322109985,269.3333333333333) translate(0 14.222222222222223)"/><path d="M-588.33 458.93h-9.17v-2h9.17zm27.5 0h-18.34v-2h18.34zm27.5 0h-18.34v-2h18.34zm55 0h-18.34v-2h18.34zm18.33 0h-9.17v-2h9.17zm-45.83 0h-9.23v-2h9.23z" stroke="#b2b2b2" stroke-width=".05" fill="#b2b2b2"/><path d="M-597.47 458.93h-1.03v-2h1.03z" fill="#b2b2b2"/><path d="M-597.45 458.95h-1.07v-2.05h1.07zm-1.02-2v1.95h.97v-1.95z" stroke="#b2b2b2" stroke-width=".05" fill="#b2b2b2"/><path d="M-444.74 457.93l-14.26 4.63v-9.27z" fill="#b2b2b2"/><path d="M-441.5 457.93l-18.5 6v-12.02zm-16.5 3.26l10.03-3.27-10.03-3.26z" stroke="#b2b2b2" stroke-width=".05" fill="#b2b2b2"/><use xlink:href="#e" transform="matrix(1,0,0,1,-524.9382716049382,447.2598366917085) translate(0 14.222222222222223)"/><path d="M-160 66c0-3.3 2.7-6 6-6h428c3.3 0 6 2.7 6 6v408c0 3.3-2.7 6-6 6h-428c-3.3 0-6-2.7-6-6z" stroke="#19967d" stroke-width="2" fill-opacity="0"/><path d="M-140 86c0-3.3 2.7-6 6-6H54c3.3 0 6 2.7 6 6v368c0 3.3-2.7 6-6 6h-188c-3.3 0-6-2.7-6-6z" stroke="#fcc438" stroke-width="2" fill-opacity="0"/><path d="M-120 286c0-3.3 2.7-6 6-6H34c3.3 0 6 2.7 6 6v148c0 3.3-2.7 6-6 6h-148c-3.3 0-6-2.7-6-6zM-120 106c0-3.3 2.7-6 6-6H34c3.3 0 6 2.7 6 6v148c0 3.3-2.7 6-6 6h-148c-3.3 0-6-2.7-6-6z" stroke="#999" stroke-width="2" fill-opacity="0"/><path d="M-100 126c0-3.3 2.7-6 6-6H14c3.3 0 6 2.7 6 6v108c0 3.3-2.7 6-6 6H-94c-3.3 0-6-2.7-6-6zM-100 306c0-3.3 2.7-6 6-6H14c3.3 0 6 2.7 6 6v108c0 3.3-2.7 6-6 6H-94c-3.3 0-6-2.7-6-6zM120 126c0-3.3 2.7-6 6-6h108c3.3 0 6 2.7 6 6v108c0 3.3-2.7 6-6 6H126c-3.3 0-6-2.7-6-6z" stroke="#c92d39" stroke-width="3" fill="#ff8f80"/><path d="M100 106c0-3.3 2.7-6 6-6h148c3.3 0 6 2.7 6 6v148c0 3.3-2.7 6-6 6H106c-3.3 0-6-2.7-6-6z" stroke="#999" stroke-width="2" fill-opacity="0"/><path d="M-1420 16c0-3.3 2.7-6 6-6h108c3.3 0 6 2.7 6 6v108c0 3.3-2.7 6-6 6h-108c-3.3 0-6-2.7-6-6zM-1700 16c0-3.3 2.7-6 6-6h108c3.3 0 6 2.7 6 6v108c0 3.3-2.7 6-6 6h-108c-3.3 0-6-2.7-6-6z" stroke="#999" stroke-width="3" fill="#ccc"/><path d="M-1560 16c0-3.3 2.7-6 6-6h108c3.3 0 6 2.7 6 6v108c0 3.3-2.7 6-6 6h-108c-3.3 0-6-2.7-6-6z" stroke="#0c7cba" stroke-width="3" fill="#83bbe5"/><path d="M-1420 156c0-3.3 2.7-6 6-6h108c3.3 0 6 2.7 6 6v108c0 3.3-2.7 6-6 6h-108c-3.3 0-6-2.7-6-6z" stroke="#834187" stroke-width="3" fill="#b391b5"/><path d="M-1560 156c0-3.3 2.7-6 6-6h108c3.3 0 6 2.7 6 6v108c0 3.3-2.7 6-6 6h-108c-3.3 0-6-2.7-6-6z" stroke="#0c7cba" stroke-width="3" fill="#83bbe5"/><path d="M-1560 296c0-3.3 2.7-6 6-6h108c3.3 0 6 2.7 6 6v108c0 3.3-2.7 6-6 6h-108c-3.3 0-6-2.7-6-6z" stroke="#834187" stroke-width="3" fill="#b391b5"/><path d="M-1700 156c0-3.3 2.7-6 6-6h108c3.3 0 6 2.7 6 6v108c0 3.3-2.7 6-6 6h-108c-3.3 0-6-2.7-6-6z" stroke="#0c7cba" stroke-width="3" fill="#83bbe5"/><path d="M-1420 296c0-3.3 2.7-6 6-6h108c3.3 0 6 2.7 6 6v108c0 3.3-2.7 6-6 6h-108c-3.3 0-6-2.7-6-6z" stroke="#999" stroke-width="3" fill="#ccc"/><path d="M-1840 156c0-3.3 2.7-6 6-6h108c3.3 0 6 2.7 6 6v108c0 3.3-2.7 6-6 6h-108c-3.3 0-6-2.7-6-6z" stroke="#834187" stroke-width="3" fill="#b391b5"/><path d="M-1700 296c0-3.3 2.7-6 6-6h108c3.3 0 6 2.7 6 6v108c0 3.3-2.7 6-6 6h-108c-3.3 0-6-2.7-6-6z" stroke="#0c7cba" stroke-width="3" fill="#83bbe5"/><path d="M-1700 436c0-3.3 2.7-6 6-6h108c3.3 0 6 2.7 6 6v108c0 3.3-2.7 6-6 6h-108c-3.3 0-6-2.7-6-6z" stroke="#999" stroke-width="3" fill="#ccc"/><path d="M-1280 156c0-3.3 2.7-6 6-6h108c3.3 0 6 2.7 6 6v108c0 3.3-2.7 6-6 6h-108c-3.3 0-6-2.7-6-6z" stroke="#0c7cba" stroke-width="3" fill="#83bbe5"/><defs><path fill="#333" d="M23 0v-37h61v-169l-59 37v-38l62-41h46v211h57V0H23" id="f"/><use transform="matrix(0.04938271604938272,0,0,0.04938271604938272,0,0)" xlink:href="#f" id="a"/><path fill="#333" d="M182-182c0 78-84 86-111 141h115V0H12c-6-101 99-100 120-180 1-22-12-31-33-32-23 0-32 14-35 34l-49-3c5-45 32-70 84-70 51 0 83 22 83 69" id="g"/><use transform="matrix(0.04938271604938272,0,0,0.04938271604938272,0,0)" xlink:href="#g" id="b"/><path fill="#333" d="M128-127c34 4 56 21 59 58 7 91-148 94-172 28-4-9-6-17-7-26l51-5c1 24 16 35 40 36 23 0 39-12 38-36-1-31-31-36-65-34v-40c32 2 59-3 59-33 0-20-13-33-34-33s-33 13-35 32l-50-3c6-44 37-68 86-68 50 0 83 20 83 66 0 35-22 52-53 58" id="h"/><use transform="matrix(0.04938271604938272,0,0,0.04938271604938272,0,0)" xlink:href="#h" id="c"/><path fill="#333" d="M165-50V0h-47v-50H5v-38l105-160h55v161h33v37h-33zm-47-37l2-116L46-87h72" id="i"/><use transform="matrix(0.04938271604938272,0,0,0.04938271604938272,0,0)" xlink:href="#i" id="d"/><path fill="#333" d="M139-81c0-46-55-55-73-27H18l9-140h149v37H72l-4 63c44-38 133-4 122 66C201 21 21 35 11-62l49-4c5 18 15 30 39 30 26 0 40-18 40-45" id="j"/><use transform="matrix(0.04938271604938272,0,0,0.04938271604938272,0,0)" xlink:href="#j" id="e"/></defs></g></svg>