<svg xmlns="http://www.w3.org/2000/svg" xmlns:lucid="lucid" width="3340" height="1760"><g lucid:page-tab-id="02LoHxG.g5X9"><path d="M2380 1446c0-3.3 2.7-6 6-6h288c3.3 0 6 2.7 6 6v288c0 3.3-2.7 6-6 6h-288c-3.3 0-6-2.7-6-6z" stroke="#a3d977" stroke-width="3" fill-opacity="0"/><path d="M2400 1467.5c0-3.3 2.7-6 6-6h108c3.3 0 6 2.7 6 6v108c0 3.3-2.7 6-6 6h-108c-3.3 0-6-2.7-6-6z" stroke="#ef8d22" stroke-width="3" fill="#ffc374"/><path d="M1460 746c0-3.3 2.7-6 6-6h108c3.3 0 6 2.7 6 6v108c0 3.3-2.7 6-6 6h-108c-3.3 0-6-2.7-6-6zM1180 746c0-3.3 2.7-6 6-6h108c3.3 0 6 2.7 6 6v108c0 3.3-2.7 6-6 6h-108c-3.3 0-6-2.7-6-6z" stroke="#999" stroke-width="3" fill="#ccc"/><path d="M1320 746c0-3.3 2.7-6 6-6h108c3.3 0 6 2.7 6 6v108c0 3.3-2.7 6-6 6h-108c-3.3 0-6-2.7-6-6z" stroke="#0c7cba" stroke-width="3" fill="#83bbe5"/><path d="M1460 886c0-3.3 2.7-6 6-6h108c3.3 0 6 2.7 6 6v108c0 3.3-2.7 6-6 6h-108c-3.3 0-6-2.7-6-6z" stroke="#834187" stroke-width="3" fill="#b391b5"/><path d="M1320 886c0-3.3 2.7-6 6-6h108c3.3 0 6 2.7 6 6v108c0 3.3-2.7 6-6 6h-108c-3.3 0-6-2.7-6-6z" stroke="#0c7cba" stroke-width="3" fill="#83bbe5"/><path d="M1720 726c0-3.3 2.7-6 6-6h428c3.3 0 6 2.7 6 6v288c0 3.3-2.7 6-6 6h-428c-3.3 0-6-2.7-6-6z" stroke="#83bbe5" stroke-width="3" fill-opacity="0"/><path d="M1880 746c0-3.3 2.7-6 6-6h108c3.3 0 6 2.7 6 6v108c0 3.3-2.7 6-6 6h-108c-3.3 0-6-2.7-6-6zM1880 886c0-3.3 2.7-6 6-6h108c3.3 0 6 2.7 6 6v108c0 3.3-2.7 6-6 6h-108c-3.3 0-6-2.7-6-6z" stroke="#c92d39" stroke-width="3" fill="#ff8f80"/><path d="M1740 746c0-3.3 2.7-6 6-6h108c3.3 0 6 2.7 6 6v108c0 3.3-2.7 6-6 6h-108c-3.3 0-6-2.7-6-6z" stroke="#999" stroke-width="3" fill="#ccc"/><path d="M2020 886c0-3.3 2.7-6 6-6h108c3.3 0 6 2.7 6 6v108c0 3.3-2.7 6-6 6h-108c-3.3 0-6-2.7-6-6z" stroke="#834187" stroke-width="3" fill="#b391b5"/><path d="M2300 726c0-3.3 2.7-6 6-6h428c3.3 0 6 2.7 6 6v288c0 3.3-2.7 6-6 6h-428c-3.3 0-6-2.7-6-6z" stroke="#ff8f80" stroke-width="3" fill-opacity="0"/><path d="M2460 746c0-3.3 2.7-6 6-6h108c3.3 0 6 2.7 6 6v108c0 3.3-2.7 6-6 6h-108c-3.3 0-6-2.7-6-6zM2460 886c0-3.3 2.7-6 6-6h108c3.3 0 6 2.7 6 6v108c0 3.3-2.7 6-6 6h-108c-3.3 0-6-2.7-6-6zM2320 886c0-3.3 2.7-6 6-6h108c3.3 0 6 2.7 6 6v108c0 3.3-2.7 6-6 6h-108c-3.3 0-6-2.7-6-6zM2600 886c0-3.3 2.7-6 6-6h108c3.3 0 6 2.7 6 6v108c0 3.3-2.7 6-6 6h-108c-3.3 0-6-2.7-6-6z" stroke="#7ab648" stroke-width="3" fill="#a3d977"/><path d="M2880 726c0-3.3 2.7-6 6-6h428c3.3 0 6 2.7 6 6v288c0 3.3-2.7 6-6 6h-428c-3.3 0-6-2.7-6-6z" stroke="#a3d977" stroke-width="3" fill-opacity="0"/><path d="M2900 746c0-3.3 2.7-6 6-6h108c3.3 0 6 2.7 6 6v108c0 3.3-2.7 6-6 6h-108c-3.3 0-6-2.7-6-6z" stroke="#ef8d22" stroke-width="3" fill="#ffc374"/><path d="M3180 746c0-3.3 2.7-6 6-6h108c3.3 0 6 2.7 6 6v108c0 3.3-2.7 6-6 6h-108c-3.3 0-6-2.7-6-6z" stroke="#de5f85" stroke-width="3" fill="#f5b5c8"/><path d="M3040 746c0-3.3 2.7-6 6-6h108c3.3 0 6 2.7 6 6v108c0 3.3-2.7 6-6 6h-108c-3.3 0-6-2.7-6-6z" stroke="#19967d" stroke-width="3" fill="#5abaa7"/><path d="M3180 886c0-3.3 2.7-6 6-6h108c3.3 0 6 2.7 6 6v108c0 3.3-2.7 6-6 6h-108c-3.3 0-6-2.7-6-6z" stroke="#3aa6dd" stroke-width="3" fill="#99d2f2"/><path d="M1380 737v-71c0-3.3 2.7-6 6-6h548c3.3 0 6 2.7 6 6v31.88" stroke="#83bbe5" stroke-width="3" fill="none"/><path d="M1381.5 738.5h-3v-1.54h3z" stroke="#83bbe5" stroke-width=".05" fill="#83bbe5"/><path d="M1940 713.65l-4.64-14.27h9.28z" stroke="#83bbe5" stroke-width="3" fill="#83bbe5"/><path d="M1940 1003v52.5c0 3.3 2.7 6 6 6h568c3.3 0 6-2.7 6-6v-13.38" stroke="#ff8f80" stroke-width="3" fill="none"/><path d="M1941.5 1003.04h-3v-1.54h3z" stroke="#ff8f80" stroke-width=".05" fill="#ff8f80"/><path d="M2520 1026.35l4.64 14.27h-9.28z" stroke="#ff8f80" stroke-width="3" fill="#ff8f80"/><path d="M2520 737v-52.5c0-3.3 2.7-6 6-6h568c3.3 0 6 2.7 6 6v13.38" stroke="#a3d977" stroke-width="3" fill="none"/><path d="M2521.5 738.5h-3v-1.54h3z" stroke="#a3d977" stroke-width=".05" fill="#a3d977"/><path d="M3100 713.65l-4.64-14.27h9.28z" stroke="#a3d977" stroke-width="3" fill="#a3d977"/><path d="M1160 1146c0-3.3 2.7-6 6-6h428c3.3 0 6 2.7 6 6v288c0 3.3-2.7 6-6 6h-428c-3.3 0-6-2.7-6-6z" stroke="#83bbe5" stroke-width="3" fill-opacity="0"/><path d="M1320 1166c0-3.3 2.7-6 6-6h108c3.3 0 6 2.7 6 6v108c0 3.3-2.7 6-6 6h-108c-3.3 0-6-2.7-6-6zM1320 1306c0-3.3 2.7-6 6-6h108c3.3 0 6 2.7 6 6v108c0 3.3-2.7 6-6 6h-108c-3.3 0-6-2.7-6-6z" stroke="#c92d39" stroke-width="3" fill="#ff8f80"/><path d="M1460 1166c0-3.3 2.7-6 6-6h108c3.3 0 6 2.7 6 6v108c0 3.3-2.7 6-6 6h-108c-3.3 0-6-2.7-6-6z" stroke="#999" stroke-width="3" fill="#ccc"/><path d="M1180 1306c0-3.3 2.7-6 6-6h108c3.3 0 6 2.7 6 6v108c0 3.3-2.7 6-6 6h-108c-3.3 0-6-2.7-6-6z" stroke="#c92d39" stroke-width="3" fill="#ff8f80"/><path d="M1380 1003v114.88" stroke="#83bbe5" stroke-width="3" fill="none"/><path d="M1381.5 1003.04h-3v-1.54h3z" stroke="#83bbe5" stroke-width=".05" fill="#83bbe5"/><path d="M1380 1133.65l-4.64-14.27h9.28z" stroke="#83bbe5" stroke-width="3" fill="#83bbe5"/><path d="M2880 1086c0-3.3 2.7-6 6-6h428c3.3 0 6 2.7 6 6v288c0 3.3-2.7 6-6 6h-428c-3.3 0-6-2.7-6-6z" stroke="#a3d977" stroke-width="3" fill-opacity="0"/><path d="M2900 1246c0-3.3 2.7-6 6-6h108c3.3 0 6 2.7 6 6v108c0 3.3-2.7 6-6 6h-108c-3.3 0-6-2.7-6-6z" stroke="#ef8d22" stroke-width="3" fill="#ffc374"/><path d="M3180 1246c0-3.3 2.7-6 6-6h108c3.3 0 6 2.7 6 6v108c0 3.3-2.7 6-6 6h-108c-3.3 0-6-2.7-6-6z" stroke="#de5f85" stroke-width="3" fill="#f5b5c8"/><path d="M3040 1246c0-3.3 2.7-6 6-6h108c3.3 0 6 2.7 6 6v108c0 3.3-2.7 6-6 6h-108c-3.3 0-6-2.7-6-6zM3040 1106c0-3.3 2.7-6 6-6h108c3.3 0 6 2.7 6 6v108c0 3.3-2.7 6-6 6h-108c-3.3 0-6-2.7-6-6z" stroke="#19967d" stroke-width="3" fill="#5abaa7"/><path d="M2660 1003v221c0 3.3 2.7 6 6 6h191.88" stroke="#a3d977" stroke-width="3" fill="none"/><path d="M2661.5 1003.04h-3v-1.54h3z" stroke="#a3d977" stroke-width=".05" fill="#a3d977"/><path d="M2873.65 1230l-14.27 4.64v-9.28z" stroke="#a3d977" stroke-width="3" fill="#a3d977"/><path d="M2540 1466c0-3.3 2.7-6 6-6h108c3.3 0 6 2.7 6 6v108c0 3.3-2.7 6-6 6h-108c-3.3 0-6-2.7-6-6z" stroke="#fcc438" stroke-width="3" fill="#ffdf71"/><path d="M1720 1247.5c0-3.3 2.7-6 6-6h428c3.3 0 6 2.7 6 6v288c0 3.3-2.7 6-6 6h-428c-3.3 0-6-2.7-6-6z" stroke="#ff8f80" stroke-width="3" fill-opacity="0"/><path d="M1880 1267.5c0-3.3 2.7-6 6-6h108c3.3 0 6 2.7 6 6v108c0 3.3-2.7 6-6 6h-108c-3.3 0-6-2.7-6-6zM1880 1407.5c0-3.3 2.7-6 6-6h108c3.3 0 6 2.7 6 6v108c0 3.3-2.7 6-6 6h-108c-3.3 0-6-2.7-6-6zM1740 1266c0-3.3 2.7-6 6-6h108c3.3 0 6 2.7 6 6v108c0 3.3-2.7 6-6 6h-108c-3.3 0-6-2.7-6-6zM2020 1407.5c0-3.3 2.7-6 6-6h108c3.3 0 6 2.7 6 6v108c0 3.3-2.7 6-6 6h-108c-3.3 0-6-2.7-6-6z" stroke="#7ab648" stroke-width="3" fill="#a3d977"/><path d="M1380 1423v154c0 3.3 2.7 6 6 6h548c3.3 0 6-2.7 6-6v-13.38" stroke="#ff8f80" stroke-width="3" fill="none"/><path d="M1381.5 1423.04h-3v-1.54h3z" stroke="#ff8f80" stroke-width=".05" fill="#ff8f80"/><path d="M1940 1547.85l4.64 14.27h-9.28z" stroke="#ff8f80" stroke-width="3" fill="#ff8f80"/><path d="M2400 1606c0-3.3 2.7-6 6-6h108c3.3 0 6 2.7 6 6v108c0 3.3-2.7 6-6 6h-108c-3.3 0-6-2.7-6-6z" stroke="#de5f85" stroke-width="3" fill="#f5b5c8"/><path d="M1940 1258.5V1226c0-3.3 2.7-6 6-6h578c3.3 0 6 2.7 6 6v191.88" stroke="#a3d977" stroke-width="3" fill="none"/><path d="M1941.5 1260h-3v-1.54h3z" stroke="#a3d977" stroke-width=".05" fill="#a3d977"/><path d="M2530 1433.65l-4.64-14.27h9.28z" stroke="#a3d977" stroke-width="3" fill="#a3d977"/><path d="M2540 1606c0-3.3 2.7-6 6-6h108c3.3 0 6 2.7 6 6v108c0 3.3-2.7 6-6 6h-108c-3.3 0-6-2.7-6-6z" stroke="#fcc438" stroke-width="3" fill="#ffdf71"/><path d="M2300 386c0-3.3 2.7-6 6-6h568c3.3 0 6 2.7 6 6v148c0 3.3-2.7 6-6 6h-568c-3.3 0-6-2.7-6-6z" stroke="#a3d977" stroke-width="3" fill-opacity="0"/><path d="M2320 409c0-3.3 2.7-6 6-6h108c3.3 0 6 2.7 6 6v108c0 3.3-2.7 6-6 6h-108c-3.3 0-6-2.7-6-6z" stroke="#ef8d22" stroke-width="3" fill="#ffc374"/><path d="M2460 407.5c0-3.3 2.7-6 6-6h108c3.3 0 6 2.7 6 6v108c0 3.3-2.7 6-6 6h-108c-3.3 0-6-2.7-6-6z" stroke="#fcc438" stroke-width="3" fill="#ffdf71"/><path d="M2740 407.5c0-3.3 2.7-6 6-6h108c3.3 0 6 2.7 6 6v108c0 3.3-2.7 6-6 6h-108c-3.3 0-6-2.7-6-6z" stroke="#de5f85" stroke-width="3" fill="#f5b5c8"/><path d="M2600 409c0-3.3 2.7-6 6-6h108c3.3 0 6 2.7 6 6v108c0 3.3-2.7 6-6 6h-108c-3.3 0-6-2.7-6-6z" stroke="#3aa6dd" stroke-width="3" fill="#99d2f2"/><path d="M2317 940h-52.5c-3.3 0-6-2.7-6-6V466c0-3.3 2.7-6 6-6h13.38" stroke="#a3d977" stroke-width="3" fill="none"/><path d="M2318.5 941.5h-1.54v-3h1.54z" stroke="#a3d977" stroke-width=".05" fill="#a3d977"/><path d="M2293.65 460l-14.27 4.64v-9.28z" stroke="#a3d977" stroke-width="3" fill="#a3d977"/><path d="M1640 229c0-3.3 2.7-6 6-6h428c3.3 0 6 2.7 6 6v288c0 3.3-2.7 6-6 6h-428c-3.3 0-6-2.7-6-6z" stroke="#ff8f80" stroke-width="3" fill-opacity="0"/><path d="M1800 249c0-3.3 2.7-6 6-6h108c3.3 0 6 2.7 6 6v108c0 3.3-2.7 6-6 6h-108c-3.3 0-6-2.7-6-6zM1800 389c0-3.3 2.7-6 6-6h108c3.3 0 6 2.7 6 6v108c0 3.3-2.7 6-6 6h-108c-3.3 0-6-2.7-6-6zM1660 247.5c0-3.3 2.7-6 6-6h108c3.3 0 6 2.7 6 6v108c0 3.3-2.7 6-6 6h-108c-3.3 0-6-2.7-6-6zM1940 389c0-3.3 2.7-6 6-6h108c3.3 0 6 2.7 6 6v108c0 3.3-2.7 6-6 6h-108c-3.3 0-6-2.7-6-6z" stroke="#7ab648" stroke-width="3" fill="#a3d977"/><path d="M1120 26c0-3.3 2.7-6 6-6h428c3.3 0 6 2.7 6 6v288c0 3.3-2.7 6-6 6h-428c-3.3 0-6-2.7-6-6z" stroke="#a3d977" stroke-width="3" fill-opacity="0"/><path d="M1280 186c0-3.3 2.7-6 6-6h108c3.3 0 6 2.7 6 6v108c0 3.3-2.7 6-6 6h-108c-3.3 0-6-2.7-6-6z" stroke="#ef8d22" stroke-width="3" fill="#ffc374"/><path d="M1420 186c0-3.3 2.7-6 6-6h108c3.3 0 6 2.7 6 6v108c0 3.3-2.7 6-6 6h-108c-3.3 0-6-2.7-6-6z" stroke="#de5f85" stroke-width="3" fill="#f5b5c8"/><path d="M1280 46c0-3.3 2.7-6 6-6h108c3.3 0 6 2.7 6 6v108c0 3.3-2.7 6-6 6h-108c-3.3 0-6-2.7-6-6z" stroke="#19967d" stroke-width="3" fill="#5abaa7"/><path d="M1140 186c0-3.3 2.7-6 6-6h108c3.3 0 6 2.7 6 6v108c0 3.3-2.7 6-6 6h-108c-3.3 0-6-2.7-6-6z" stroke="#3aa6dd" stroke-width="3" fill="#99d2f2"/><path d="M620 1216c0-3.3 2.7-6 6-6h428c3.3 0 6 2.7 6 6v288c0 3.3-2.7 6-6 6H626c-3.3 0-6-2.7-6-6z" stroke="#ff8f80" stroke-width="3" fill-opacity="0"/><path d="M780 1236c0-3.3 2.7-6 6-6h108c3.3 0 6 2.7 6 6v108c0 3.3-2.7 6-6 6H786c-3.3 0-6-2.7-6-6zM780 1376c0-3.3 2.7-6 6-6h108c3.3 0 6 2.7 6 6v108c0 3.3-2.7 6-6 6H786c-3.3 0-6-2.7-6-6zM640 1234.5c0-3.3 2.7-6 6-6h108c3.3 0 6 2.7 6 6v108c0 3.3-2.7 6-6 6H646c-3.3 0-6-2.7-6-6zM920 1376c0-3.3 2.7-6 6-6h108c3.3 0 6 2.7 6 6v108c0 3.3-2.7 6-6 6H926c-3.3 0-6-2.7-6-6z" stroke="#7ab648" stroke-width="3" fill="#a3d977"/><path d="M600 726c0-3.3 2.7-6 6-6h288c3.3 0 6 2.7 6 6v288c0 3.3-2.7 6-6 6H606c-3.3 0-6-2.7-6-6z" stroke="#a3d977" stroke-width="3" fill-opacity="0"/><path d="M620 747.5c0-3.3 2.7-6 6-6h108c3.3 0 6 2.7 6 6v108c0 3.3-2.7 6-6 6H626c-3.3 0-6-2.7-6-6z" stroke="#ef8d22" stroke-width="3" fill="#ffc374"/><path d="M620 886c0-3.3 2.7-6 6-6h108c3.3 0 6 2.7 6 6v108c0 3.3-2.7 6-6 6H626c-3.3 0-6-2.7-6-6z" stroke="#de5f85" stroke-width="3" fill="#f5b5c8"/><path d="M20 1206c0-3.3 2.7-6 6-6h428c3.3 0 6 2.7 6 6v288c0 3.3-2.7 6-6 6H26c-3.3 0-6-2.7-6-6z" stroke="#a3d977" stroke-width="3" fill-opacity="0"/><path d="M40 1366c0-3.3 2.7-6 6-6h108c3.3 0 6 2.7 6 6v108c0 3.3-2.7 6-6 6H46c-3.3 0-6-2.7-6-6z" stroke="#ef8d22" stroke-width="3" fill="#ffc374"/><path d="M320 1226c0-3.3 2.7-6 6-6h108c3.3 0 6 2.7 6 6v108c0 3.3-2.7 6-6 6H326c-3.3 0-6-2.7-6-6z" stroke="#de5f85" stroke-width="3" fill="#f5b5c8"/><path d="M180 1366c0-3.3 2.7-6 6-6h108c3.3 0 6 2.7 6 6v108c0 3.3-2.7 6-6 6H186c-3.3 0-6-2.7-6-6zM180 1226c0-3.3 2.7-6 6-6h108c3.3 0 6 2.7 6 6v108c0 3.3-2.7 6-6 6H186c-3.3 0-6-2.7-6-6z" stroke="#19967d" stroke-width="3" fill="#5abaa7"/><path d="M840 1227v-96c0-3.3-2.7-6-6-6h-78c-3.3 0-6-2.7-6-6v-76.88" stroke="#a3d977" stroke-width="3" fill="none"/><path d="M841.5 1228.5h-3v-1.54h3z" stroke="#a3d977" stroke-width=".05" fill="#a3d977"/><path d="M750 1026.35l4.64 14.27h-9.28z" stroke="#a3d977" stroke-width="3" fill="#a3d977"/><path d="M840 1493v42.5c0 3.3-2.7 6-6 6H246c-3.3 0-6-2.7-6-6v-13.38" stroke="#a3d977" stroke-width="3" fill="none"/><path d="M841.5 1493.04h-3v-1.54h3z" stroke="#a3d977" stroke-width=".05" fill="#a3d977"/><path d="M240 1506.35l4.64 14.27h-9.28z" stroke="#a3d977" stroke-width="3" fill="#a3d977"/><path d="M1240 1423v51c0 3.3-2.7 6-6 6h-126.5c-3.3 0-6-2.7-6-6v-108c0-3.3-2.7-6-6-6h-13.38" stroke="#ff8f80" stroke-width="3" fill="none"/><path d="M1241.5 1423.04h-3v-1.54h3z" stroke="#ff8f80" stroke-width=".05" fill="#ff8f80"/><path d="M1066.35 1360l14.27-4.64v9.28z" stroke="#ff8f80" stroke-width="3" fill="#ff8f80"/><path d="M760 886c0-3.3 2.7-6 6-6h108c3.3 0 6 2.7 6 6v108c0 3.3-2.7 6-6 6H766c-3.3 0-6-2.7-6-6z" stroke="#19967d" stroke-width="3" fill="#5abaa7"/><path d="M2003 800h112.5c3.3 0 6-2.7 6-6V379c0-3.3-2.7-6-6-6h-13.38" stroke="#ff8f80" stroke-width="3" fill="none"/><path d="M2003.04 801.5h-1.54v-3h1.54z" stroke="#ff8f80" stroke-width=".05" fill="#ff8f80"/><path d="M2086.35 373l14.27-4.64v9.28z" stroke="#ff8f80" stroke-width="3" fill="#ff8f80"/><path d="M1860 506v68c0 3.3-2.7 6-6 6H876c-3.3 0-6-2.7-6-6v-11.88" stroke="#a3d977" stroke-width="3" fill="none"/><path d="M1861.5 506.04h-3v-1.54h3z" stroke="#a3d977" stroke-width=".05" fill="#a3d977"/><path d="M870 546.35l4.64 14.27h-9.28z" stroke="#a3d977" stroke-width="3" fill="#a3d977"/><path d="M580 386c0-3.3 2.7-6 6-6h568c3.3 0 6 2.7 6 6v148c0 3.3-2.7 6-6 6H586c-3.3 0-6-2.7-6-6z" stroke="#a3d977" stroke-width="3" fill-opacity="0"/><path d="M600 409c0-3.3 2.7-6 6-6h108c3.3 0 6 2.7 6 6v108c0 3.3-2.7 6-6 6H606c-3.3 0-6-2.7-6-6z" stroke="#ef8d22" stroke-width="3" fill="#ffc374"/><path d="M740 407.5c0-3.3 2.7-6 6-6h108c3.3 0 6 2.7 6 6v108c0 3.3-2.7 6-6 6H746c-3.3 0-6-2.7-6-6z" stroke="#fcc438" stroke-width="3" fill="#ffdf71"/><path d="M1020 407.5c0-3.3 2.7-6 6-6h108c3.3 0 6 2.7 6 6v108c0 3.3-2.7 6-6 6h-108c-3.3 0-6-2.7-6-6z" stroke="#de5f85" stroke-width="3" fill="#f5b5c8"/><path d="M880 409c0-3.3 2.7-6 6-6h108c3.3 0 6 2.7 6 6v108c0 3.3-2.7 6-6 6H886c-3.3 0-6-2.7-6-6z" stroke="#3aa6dd" stroke-width="3" fill="#99d2f2"/><path d="M1860 240v-64c0-3.3-2.7-6-6-6h-271.88" stroke="#a3d977" stroke-width="3" fill="none"/><path d="M1861.5 241.5h-3v-1.54h3z" stroke="#a3d977" stroke-width=".05" fill="#a3d977"/><path d="M1566.35 170l14.27-4.64v9.28z" stroke="#a3d977" stroke-width="3" fill="#a3d977"/></g></svg>