<svg xmlns="http://www.w3.org/2000/svg" xmlns:xlink="http://www.w3.org/1999/xlink" xmlns:lucid="lucid" width="2947.09" height="1020"><g transform="translate(58.969696969697 79.5757575757575)" lucid:page-tab-id="sstWGuBLZXP9"><path d="M281.03-33.58c0-3.3 2.7-6 6-6h148c3.3 0 6 2.7 6 6v108c0 3.32-2.7 6-6 6h-148c-3.3 0-6-2.68-6-6z" stroke="#834187" stroke-width="3" fill="#b391b5"/><use xlink:href="#a" transform="matrix(1,0,0,1,286.030303030303,-34.57575757575751) translate(17.610026041666657 50.88932291666667)"/><use xlink:href="#b" transform="matrix(1,0,0,1,286.030303030303,-34.57575757575751) translate(78.50455729166666 50.88932291666667)"/><use xlink:href="#c" transform="matrix(1,0,0,1,286.030303030303,-34.57575757575751) translate(14.474609374999993 76.30989583333334)"/><use xlink:href="#d" transform="matrix(1,0,0,1,286.030303030303,-34.57575757575751) translate(65.65299479166666 76.30989583333334)"/><use xlink:href="#e" transform="matrix(1,0,0,1,286.030303030303,-34.57575757575751) translate(90.71809895833334 76.30989583333334)"/><path d="M141.03 306.42c0-3.3 2.7-6 6-6h148c3.3 0 6 2.7 6 6v108c0 3.32-2.7 6-6 6h-148c-3.3 0-6-2.68-6-6z" stroke="#0c7cba" stroke-width="3" fill="#83bbe5"/><use xlink:href="#f" transform="matrix(1,0,0,1,146.030303030303,305.4242424242425) translate(6.909505208333329 50.88932291666667)"/><use xlink:href="#g" transform="matrix(1,0,0,1,146.030303030303,305.4242424242425) translate(47.615234375 50.88932291666667)"/><use xlink:href="#h" transform="matrix(1,0,0,1,146.030303030303,305.4242424242425) translate(91.21940104166667 50.88932291666667)"/><use xlink:href="#i" transform="matrix(1,0,0,1,146.030303030303,305.4242424242425) translate(6.12109375 76.30989583333334)"/><use xlink:href="#j" transform="matrix(1,0,0,1,146.030303030303,305.4242424242425) translate(67.3984375 76.30989583333334)"/><use xlink:href="#k" transform="matrix(1,0,0,1,146.030303030303,305.4242424242425) translate(94.17708333333334 76.30989583333334)"/><path d="M-38.97 546.42c0-3.3 2.7-6 6-6h148c3.3 0 6 2.7 6 6v108c0 3.32-2.7 6-6 6h-148c-3.3 0-6-2.68-6-6z" stroke="#999" stroke-width="3" fill="#ccc"/><use xlink:href="#l" transform="matrix(1,0,0,1,-33.969696969697,545.4242424242425) translate(0.7617187499999858 50.88932291666667)"/><use xlink:href="#m" transform="matrix(1,0,0,1,-33.969696969697,545.4242424242425) translate(104.41276041666667 50.88932291666667)"/><use xlink:href="#n" transform="matrix(1,0,0,1,-33.969696969697,545.4242424242425) translate(3.550781249999986 76.30989583333334)"/><use xlink:href="#o" transform="matrix(1,0,0,1,-33.969696969697,545.4242424242425) translate(62.12109374999999 76.30989583333334)"/><use xlink:href="#p" transform="matrix(1,0,0,1,-33.969696969697,545.4242424242425) translate(97.65885416666667 76.30989583333334)"/><path d="M222.53 278.3h-3v-13.64h3zm0-27.3h-3v-27.28h3zm18.72-59.08h-14.02l-2.45.67-1.6 1.57-.65 2.45v13.45h-3v-13.85l.98-3.6 2.72-2.72 3.6-.98h14.43zm121.28-7.3l-.98 3.6-2.7 2.73-3.62.97H340.8v-3h14.03l2.45-.66 1.6-1.6.65-2.44V167.6h3zm-35.94 7.3h-28.46v-3h28.45zm-42.68 0h-28.45v-3h28.45zm78.6-63.98h-3V117.1h3zm0-27.68h-3V83.42h3z" stroke="#b2b2b2" stroke-width=".05" fill="#b2b2b2"/><path d="M362.53 83.46h-3v-1.54h3z" fill="#b2b2b2"/><path d="M362.56 83.5h-3.05v-1.6h3.06zm-3-1.55v1.5h2.95v-1.5z" stroke="#b2b2b2" stroke-width=".05" fill="#b2b2b2"/><path d="M221.03 294.07l-4.63-14.27h9.27z" fill="#b2b2b2"/><path d="M221.03 298.92l-6.7-20.62h13.4zm-2.57-17.62l2.57 7.92 2.57-7.92z" stroke="#b2b2b2" stroke-width=".05" fill="#b2b2b2"/><use xlink:href="#q" transform="matrix(1,0,0,1,333.0075165719697,127.93903887621171) translate(0 19.951822916666668)"/><path d="M42.53 518.3h-3v-16.87h3zm0-33.75h-3v-29.3h3zm0-54.73h-3v-29.64h3zm19.67-67.9H47.23l-2.45.67-1.6 1.57-.65 2.45v16.68h-3v-17.08l.98-3.6 2.72-2.72 3.6-.98H62.2zm75.83 0h-15.17v-3h15.17zm-30.33 0H77.36v-3h30.34z" stroke="#b2b2b2" stroke-width=".05" fill="#b2b2b2"/><path d="M139.53 361.92H138v-3h1.53z" fill="#b2b2b2"/><path d="M139.56 361.95h-1.6v-3.05h1.6zm-1.54-3v2.95h1.5v-2.95z" stroke="#b2b2b2" stroke-width=".05" fill="#b2b2b2"/><path d="M41.03 534.07L36.4 519.8h9.27z" fill="#b2b2b2"/><path d="M41.03 538.92l-6.7-20.62h13.4zm-2.57-17.62l2.57 7.92 2.57-7.92z" stroke="#b2b2b2" stroke-width=".05" fill="#b2b2b2"/><use xlink:href="#r" transform="matrix(1,0,0,1,14.087594696969667,429.817456355365) translate(0 19.951822916666668)"/><path d="M901.03-53.58c0-3.3 2.7-6 6-6h148c3.3 0 6 2.7 6 6v108c0 3.32-2.7 6-6 6h-148c-3.3 0-6-2.68-6-6z" stroke="#834187" stroke-width="3" fill="#b391b5"/><use xlink:href="#s" transform="matrix(1,0,0,1,906.030303030303,-54.57575757575751) translate(3.181640625 50.88932291666667)"/><use xlink:href="#t" transform="matrix(1,0,0,1,906.030303030303,-54.57575757575751) translate(46.43945312500001 50.88932291666667)"/><use xlink:href="#u" transform="matrix(1,0,0,1,906.030303030303,-54.57575757575751) translate(67.466796875 50.88932291666667)"/><use xlink:href="#v" transform="matrix(1,0,0,1,906.030303030303,-54.57575757575751) translate(119.201171875 50.88932291666667)"/><use xlink:href="#w" transform="matrix(1,0,0,1,906.030303030303,-54.57575757575751) translate(48.681640625 76.30989583333334)"/><path d="M601.03-53.58c0-3.3 2.7-6 6-6h148c3.3 0 6 2.7 6 6v108c0 3.32-2.7 6-6 6h-148c-3.3 0-6-2.68-6-6z" stroke="#834187" stroke-width="3" fill="#b391b5"/><use xlink:href="#x" transform="matrix(1,0,0,1,606.030303030303,-54.57575757575751) translate(5.569661458333329 50.88932291666667)"/><use xlink:href="#y" transform="matrix(1,0,0,1,606.030303030303,-54.57575757575751) translate(41.235026041666664 50.88932291666667)"/><use xlink:href="#z" transform="matrix(1,0,0,1,606.030303030303,-54.57575757575751) translate(68.79752604166666 50.88932291666667)"/><use xlink:href="#A" transform="matrix(1,0,0,1,606.030303030303,-54.57575757575751) translate(42.62044270833333 76.30989583333334)"/><path d="M661.03 566.42c0-3.3 2.7-6 6-6h148c3.3 0 6 2.7 6 6v108c0 3.32-2.7 6-6 6h-148c-3.3 0-6-2.68-6-6z" stroke="#0c7cba" stroke-width="3" fill="#83bbe5"/><use xlink:href="#B" transform="matrix(1,0,0,1,666.030303030303,565.4242424242425) translate(13.376302083333329 50.88932291666667)"/><use xlink:href="#C" transform="matrix(1,0,0,1,666.030303030303,565.4242424242425) translate(104.95052083333333 50.88932291666667)"/><use xlink:href="#D" transform="matrix(1,0,0,1,666.030303030303,565.4242424242425) translate(37.119791666666664 76.30989583333334)"/><path d="M481.03 266.42c0-3.3 2.7-6 6-6h148c3.3 0 6 2.7 6 6v108c0 3.32-2.7 6-6 6h-148c-3.3 0-6-2.68-6-6z" stroke="#0c7cba" stroke-width="3" fill="#83bbe5"/><use xlink:href="#E" transform="matrix(1,0,0,1,486.030303030303,265.4242424242425) translate(23.694010416666664 50.88932291666667)"/><use xlink:href="#F" transform="matrix(1,0,0,1,486.030303030303,265.4242424242425) translate(15.873697916666671 76.30989583333334)"/><use xlink:href="#G" transform="matrix(1,0,0,1,486.030303030303,265.4242424242425) translate(107.62109375 76.30989583333334)"/><path d="M1021.03 346.42c0-3.3 2.7-6 6-6h148c3.3 0 6 2.7 6 6v108c0 3.32-2.7 6-6 6h-148c-3.3 0-6-2.68-6-6z" stroke="#0c7cba" stroke-width="3" fill="#83bbe5"/><use xlink:href="#H" transform="matrix(1,0,0,1,1026.030303030303,345.4242424242425) translate(10.596354166666657 50.88932291666667)"/><use xlink:href="#I" transform="matrix(1,0,0,1,1026.030303030303,345.4242424242425) translate(54.13671874999999 50.88932291666667)"/><use xlink:href="#J" transform="matrix(1,0,0,1,1026.030303030303,345.4242424242425) translate(97.88671875 50.88932291666667)"/><use xlink:href="#K" transform="matrix(1,0,0,1,1026.030303030303,345.4242424242425) translate(51.83528645833333 76.30989583333334)"/><path d="M781.03 286.42c0-3.3 2.7-6 6-6h148c3.3 0 6 2.7 6 6v108c0 3.32-2.7 6-6 6h-148c-3.3 0-6-2.68-6-6z" stroke="#0c7cba" stroke-width="3" fill="#83bbe5"/><use xlink:href="#L" transform="matrix(1,0,0,1,786.030303030303,285.4242424242425) translate(20.107421875 50.88932291666667)"/><use xlink:href="#M" transform="matrix(1,0,0,1,786.030303030303,285.4242424242425) translate(111.845703125 50.88932291666667)"/><use xlink:href="#N" transform="matrix(1,0,0,1,786.030303030303,285.4242424242425) translate(36.27669270833333 76.30989583333334)"/><use xlink:href="#O" transform="matrix(1,0,0,1,786.030303030303,285.4242424242425) translate(96.66080729166667 76.30989583333334)"/><path d="M661.03 806.42c0-3.3 2.7-6 6-6h148c3.3 0 6 2.7 6 6v108c0 3.32-2.7 6-6 6h-148c-3.3 0-6-2.68-6-6z" stroke="#999" stroke-width="3" fill="#ccc"/><use xlink:href="#P" transform="matrix(1,0,0,1,666.030303030303,805.4242424242425) translate(10.022135416666657 23.389322916666668)"/><use xlink:href="#Q" transform="matrix(1,0,0,1,666.030303030303,805.4242424242425) translate(49.05989583333333 23.389322916666668)"/><use xlink:href="#R" transform="matrix(1,0,0,1,666.030303030303,805.4242424242425) translate(32.3984375 48.809895833333336)"/><use xlink:href="#S" transform="matrix(1,0,0,1,666.030303030303,805.4242424242425) translate(72.80338541666667 48.809895833333336)"/><use xlink:href="#T" transform="matrix(1,0,0,1,666.030303030303,805.4242424242425) translate(37.61653645833333 74.23046875)"/><use xlink:href="#U" transform="matrix(1,0,0,1,666.030303030303,805.4242424242425) translate(39.635416666666664 99.65104166666667)"/><path d="M341.03 746.42c0-3.3 2.7-6 6-6h148c3.3 0 6 2.7 6 6v108c0 3.32-2.7 6-6 6h-148c-3.3 0-6-2.68-6-6z" stroke="#999" stroke-width="3" fill="#ccc"/><use xlink:href="#V" transform="matrix(1,0,0,1,346.030303030303,745.4242424242425) translate(21.40625 37.13932291666667)"/><use xlink:href="#W" transform="matrix(1,0,0,1,346.030303030303,745.4242424242425) translate(1.9192708333333286 62.55989583333334)"/><use xlink:href="#X" transform="matrix(1,0,0,1,346.030303030303,745.4242424242425) translate(71.98307291666666 62.55989583333334)"/><use xlink:href="#Y" transform="matrix(1,0,0,1,346.030303030303,745.4242424242425) translate(117.26432291666667 62.55989583333334)"/><use xlink:href="#Z" transform="matrix(1,0,0,1,346.030303030303,745.4242424242425) translate(56.000651041666664 87.98046875000001)"/><path d="M1101.03 726.42c0-3.3 2.7-6 6-6h148c3.3 0 6 2.7 6 6v108c0 3.32-2.7 6-6 6h-148c-3.3 0-6-2.68-6-6z" stroke="#999" stroke-width="3" fill="#ccc"/><use xlink:href="#aa" transform="matrix(1,0,0,1,1106.030303030303,725.4242424242425) translate(4.421223958333329 37.13932291666667)"/><use xlink:href="#ab" transform="matrix(1,0,0,1,1106.030303030303,725.4242424242425) translate(39.074869791666664 37.13932291666667)"/><use xlink:href="#ac" transform="matrix(1,0,0,1,1106.030303030303,725.4242424242425) translate(61.970703125 37.13932291666667)"/><use xlink:href="#ad" transform="matrix(1,0,0,1,1106.030303030303,725.4242424242425) translate(125.69986979166667 37.13932291666667)"/><use xlink:href="#ae" transform="matrix(1,0,0,1,1106.030303030303,725.4242424242425) translate(20.986979166666664 62.55989583333334)"/><use xlink:href="#af" transform="matrix(1,0,0,1,1106.030303030303,725.4242424242425) translate(46.690104166666664 62.55989583333334)"/><use xlink:href="#ag" transform="matrix(1,0,0,1,1106.030303030303,725.4242424242425) translate(20.029947916666657 87.98046875000001)"/><path d="M562.53 238.3h-3v-15.45h3zm0-30.9h-3v-30.93h3zm0-46.4h-3v-30.9h3zm0-63.3h-3V83.73h3zm0-29.44h-3V37.34h3zm14.83-69.34v3h-10.13l-2.45.67-1.6 1.57-.65 2.45v15.26h-3V6.22l.98-3.6 2.72-2.72 3.6-.98zm20.67 3H587.7v-3h10.33z" stroke="#b2b2b2" stroke-width=".05" fill="#b2b2b2"/><path d="M599.53 1.92H598v-3h1.53z" fill="#b2b2b2"/><path d="M599.56 1.95h-1.6V-1.1h1.6zm-1.54-3V1.9h1.5v-2.95z" stroke="#b2b2b2" stroke-width=".05" fill="#b2b2b2"/><path d="M561.03 254.07l-4.63-14.27h9.27z" fill="#b2b2b2"/><path d="M561.03 258.92l-6.7-20.62h13.4zm-2.57-17.62l2.57 7.92 2.57-7.92z" stroke="#b2b2b2" stroke-width=".05" fill="#b2b2b2"/><use xlink:href="#ah" transform="matrix(1,0,0,1,537.8655894886364,97.71395596590916) translate(0 19.951822916666668)"/><path d="M862.53 258.3h-3v-13.64h3zm0-27.3h-3v-27.28h3zm-3.7-61.1l2.72 2.72.98 3.6v13.85h-3v-13.45l-.66-2.45-1.6-1.58-2.44-.68h-13.8v-3h14.2zm-176.3-5.68l.66 2.45 1.58 1.6 2.45.65h13.8v3h-14.2l-3.6-.97-2.72-2.72-.97-3.6v-17.04h3zm60.48 7.7h-27.97v-3H743zm84.03 0h-27.98v-3h27.98zm-144.5-41.16h-3V97.1h3zm0-50.5h-3V63.42h3z" stroke="#b2b2b2" stroke-width=".05" fill="#b2b2b2"/><path d="M682.53 63.46h-3v-1.54h3z" fill="#b2b2b2"/><path d="M682.56 63.5h-3.05v-1.6h3.06zm-3-1.55v1.5h2.95v-1.5z" stroke="#b2b2b2" stroke-width=".05" fill="#b2b2b2"/><path d="M861.03 274.07l-4.63-14.27h9.27z" fill="#b2b2b2"/><path d="M861.03 278.92l-6.7-20.62h13.4zm-2.57-17.62l2.57 7.92 2.57-7.92z" stroke="#b2b2b2" stroke-width=".05" fill="#b2b2b2"/><use xlink:href="#q" transform="matrix(1,0,0,1,743.0075165719696,157.71395596590915) translate(0 19.951822916666668)"/><path d="M422.53 718.3h-3v-14.5h3zm0-29.02h-3v-29.03h3zm0-43.55h-3V616.7h3zm0-43.54h-3v-29.04h3zm0-43.55h-3v-18.1h3zm0-43.54h-3V486.1h3zm0-43.53h-3v-29.03h3zm0-43.55h-3V399h3zm0-43.54h-3v-29.03h3zm21.5-62.56h-16.8l-2.45.67-1.6 1.57-.65 2.45v14.32h-3v-14.72l.98-3.6 2.72-2.72 3.6-.98h17.2zm34 0h-17v-3h17z" stroke="#b2b2b2" stroke-width=".05" fill="#b2b2b2"/><path d="M479.53 321.92H478v-3h1.53z" fill="#b2b2b2"/><path d="M479.56 321.95h-1.6v-3.05h1.6zm-1.54-3v2.95h1.5v-2.95z" stroke="#b2b2b2" stroke-width=".05" fill="#b2b2b2"/><path d="M421.03 734.07l-4.63-14.27h9.27z" fill="#b2b2b2"/><path d="M421.03 738.92l-6.7-20.62h13.4zm-2.57-17.62l2.57 7.92 2.57-7.92z" stroke="#b2b2b2" stroke-width=".05" fill="#b2b2b2"/><use xlink:href="#r" transform="matrix(1,0,0,1,394.0875946969697,515.1314284510371) translate(0 19.951822916666668)"/><path d="M222.53 794.22l.66 2.45 1.58 1.6 2.45.65h15.1v3h-15.5l-3.6-.97-2.72-2.72-.97-3.6v-15.66h3zm65.75 7.7h-30.62v-3h30.62zm30.63 0h-15.3v-3h15.3zm-96.37-38.4h-3v-30.93h3zm0-46.4h-3v-30.9h3zm0-46.36h-3v-30.92h3zm0-46.38h-3v-.45h3zm0-25.87h-3v-5.03h3zm0-20.5h-3v-30.9h3zm0-46.37h-3v-30.9h3zm0-46.37h-3v-30.92h3zm0-46.38h-3v-15.46h3z" stroke="#b2b2b2" stroke-width=".05" fill="#b2b2b2"/><path d="M222.53 423.46h-3v-1.54h3z" fill="#b2b2b2"/><path d="M222.56 423.5h-3.05v-1.6h3.06zm-3-1.55v1.5h2.95v-1.5z" stroke="#b2b2b2" stroke-width=".05" fill="#b2b2b2"/><path d="M334.68 800.42l-14.27 4.64v-9.27z" fill="#b2b2b2"/><path d="M339.53 800.42l-20.62 6.7v-13.4zM321.9 803l7.92-2.58-7.9-2.57z" stroke="#b2b2b2" stroke-width=".05" fill="#b2b2b2"/><use xlink:href="#q" transform="matrix(1,0,0,1,193.00751657196966,598.5064466354438) translate(0 19.951822916666668)"/><path d="M742.53 538.3h-3V521h3zm22.5-56.38h-17.8l-2.45.67-1.6 1.57-.65 2.45v17.1h-3v-17.5l.98-3.6 2.72-2.72 3.6-.98h18.2zm97.5-7.3l-.98 3.6-2.7 2.73-3.62.97h-18.2v-3h17.8l2.45-.66 1.6-1.6.65-2.44V462.6h3zm0-23.86h-3V427.1h3zm0-35.5h-3v-11.84h3z" stroke="#b2b2b2" stroke-width=".05" fill="#b2b2b2"/><path d="M862.53 403.46h-3v-1.54h3z" fill="#b2b2b2"/><path d="M862.56 403.5h-3.05v-1.6h3.06zm-3-1.55v1.5h2.95v-1.5z" stroke="#b2b2b2" stroke-width=".05" fill="#b2b2b2"/><path d="M741.03 554.07l-4.63-14.27h9.27z" fill="#b2b2b2"/><path d="M741.03 558.92l-6.7-20.62h13.4zm-2.57-17.62l2.57 7.92 2.57-7.92z" stroke="#b2b2b2" stroke-width=".05" fill="#b2b2b2"/><use xlink:href="#q" transform="matrix(1,0,0,1,773.0075165719696,467.7139559659092) translate(0 19.951822916666668)"/><path d="M562.53 614.22l.66 2.45 1.58 1.6 2.45.65H579v3h-12.17l-3.6-.97-2.72-2.72-.97-3.6v-15.6h3zm52.42 7.7H591v-3h23.95zm23.96 0h-11.97v-3h11.98zm-76.37-38.3h-3v-30.8h3zm0-46.2h-3v-24h3zm0-49.43h-3V460.4h3zm0-42.98h-3v-30.8h3zm0-46.2h-3v-15.4h3z" stroke="#b2b2b2" stroke-width=".05" fill="#b2b2b2"/><path d="M562.53 383.46h-3v-1.54h3z" fill="#b2b2b2"/><path d="M562.56 383.5h-3.05v-1.6h3.06zm-3-1.55v1.5h2.95v-1.5z" stroke="#b2b2b2" stroke-width=".05" fill="#b2b2b2"/><path d="M654.68 620.42l-14.27 4.64v-9.27z" fill="#b2b2b2"/><path d="M659.53 620.42l-20.62 6.7v-13.4zM641.9 623l7.92-2.58-7.9-2.57z" stroke="#b2b2b2" stroke-width=".05" fill="#b2b2b2"/><use xlink:href="#r" transform="matrix(1,0,0,1,534.0875946969696,487.98607369332336) translate(0 19.951822916666668)"/><path d="M742.53 778.3h-3v-15.8h3zm0-50.6h-3v-12.65h3zm0-28.46h-3v-15.82h3z" stroke="#b2b2b2" stroke-width=".05" fill="#b2b2b2"/><path d="M742.53 683.46h-3v-1.54h3z" fill="#b2b2b2"/><path d="M742.56 683.5h-3.05v-1.6h3.06zm-3-1.55v1.5h2.95v-1.5z" stroke="#b2b2b2" stroke-width=".05" fill="#b2b2b2"/><path d="M741.03 794.07l-4.63-14.27h9.27z" fill="#b2b2b2"/><path d="M741.03 798.92l-6.7-20.62h13.4zm-2.57-17.62l2.57 7.92 2.57-7.92z" stroke="#b2b2b2" stroke-width=".05" fill="#b2b2b2"/><use xlink:href="#ah" transform="matrix(1,0,0,1,717.8655894886364,727.7139559659091) translate(0 19.951822916666668)"/><path d="M1102.53 318.3h-3v-18.64h3zm0-37.3h-3v-37.28h3zm-3.7-81.1l2.72 2.72.98 3.6v18.85h-3v-18.45l-.66-2.45-1.6-1.58-2.44-.68h-17.8v-3h18.2zm-116.3-5.68l.66 2.45 1.58 1.6 2.45.65h17.8v3h-18.2l-3.6-.97-2.72-2.72-.97-3.6v-14.76h3zm0-28.9h-3V136.2h3zm0-43.67h-3v-29.1h3zm0-43.67h-3V63.42h3z" stroke="#b2b2b2" stroke-width=".05" fill="#b2b2b2"/><path d="M982.53 63.46h-3v-1.54h3z" fill="#b2b2b2"/><path d="M982.56 63.5h-3.05v-1.6h3.06zm-3-1.55v1.5h2.95v-1.5z" stroke="#b2b2b2" stroke-width=".05" fill="#b2b2b2"/><path d="M1101.03 334.07l-4.63-14.27h9.27z" fill="#b2b2b2"/><path d="M1101.03 338.92l-6.7-20.62h13.4zm-2.57-17.62l2.57 7.92 2.57-7.92z" stroke="#b2b2b2" stroke-width=".05" fill="#b2b2b2"/><use xlink:href="#q" transform="matrix(1,0,0,1,1013.0075165719696,187.71395596590915) translate(0 19.951822916666668)"/><path d="M1182.53 698.3h-3v-16.98h3zm0-33.96h-3v-33.96h3zm-3.7-74.44l2.72 2.72.98 3.6v17.18h-3v-16.78l-.66-2.45-1.6-1.58-2.44-.68h-11.13v-3h11.53zm-76.3-5.68l.66 2.45 1.58 1.6 2.45.65h11.13v3h-11.53l-3.6-.97-2.72-2.72-.97-3.6v-13.65h3zm49.83 7.7h-22.66v-3h22.66zm-49.83-57.4h-3v-3.87h3zm0-17.32h-3v-26.9h3zm0-40.33h-3v-13.45h3z" stroke="#b2b2b2" stroke-width=".05" fill="#b2b2b2"/><path d="M1102.53 463.46h-3v-1.54h3z" fill="#b2b2b2"/><path d="M1102.56 463.5h-3.05v-1.6h3.06zm-3-1.55v1.5h2.95v-1.5z" stroke="#b2b2b2" stroke-width=".05" fill="#b2b2b2"/><path d="M1181.03 714.07l-4.63-14.27h9.27z" fill="#b2b2b2"/><path d="M1181.03 718.92l-6.7-20.62h13.4zm-2.57-17.62l2.57 7.92 2.57-7.92z" stroke="#b2b2b2" stroke-width=".05" fill="#b2b2b2"/><use xlink:href="#ah" transform="matrix(1,0,0,1,1077.8655894886363,534.5209675636899) translate(0 19.951822916666668)"/><path d="M962.53 774.22l.66 2.45 1.58 1.6 2.45.65h18.45v3h-18.85l-3.6-.97-2.72-2.72-.97-3.6v-16.65h3zm79.1 7.7h-37.3v-3h37.3zm37.28 0h-18.64v-3h18.65zm-116.37-40.38h-3v-28.4h3zm0-53.83h-3v-28.4h3zm-3.7-67.8l2.72 2.72.98 3.6v16.65h-3v-16.25l-.66-2.45-1.6-1.58-2.44-.68h-14.36v-3h14.76zm-120.24 2.02h-14.57v-3h14.56zm43.65 0h-29.1v-3h29.1zm43.67 0h-29.1v-3h29.1z" stroke="#b2b2b2" stroke-width=".05" fill="#b2b2b2"/><path d="M824.07 621.92h-1.54v-3h1.54z" fill="#b2b2b2"/><path d="M824.1 621.95h-1.6v-3.05h1.6zm-1.54-3v2.95h1.48v-2.95z" stroke="#b2b2b2" stroke-width=".05" fill="#b2b2b2"/><path d="M1094.68 780.42l-14.27 4.64v-9.27z" fill="#b2b2b2"/><path d="M1099.53 780.42l-20.62 6.7v-13.4zM1081.9 783l7.92-2.58-7.9-2.57z" stroke="#b2b2b2" stroke-width=".05" fill="#b2b2b2"/><use xlink:href="#r" transform="matrix(1,0,0,1,934.0875946969696,687.7139559659091) translate(0 19.951822916666668)"/><path d="M2168.12-24.33c0-3.3 2.68-6 6-6h148c3.3 0 6 2.7 6 6v108c0 3.32-2.7 6-6 6h-148c-3.32 0-6-2.68-6-6z" stroke="#834187" stroke-width="3" fill="#b391b5"/><use xlink:href="#a" transform="matrix(1,0,0,1,2173.1182804007817,-25.325757575757507) translate(17.610026041666657 50.88932291666667)"/><use xlink:href="#b" transform="matrix(1,0,0,1,2173.1182804007817,-25.325757575757507) translate(78.50455729166666 50.88932291666667)"/><use xlink:href="#c" transform="matrix(1,0,0,1,2173.1182804007817,-25.325757575757507) translate(14.474609374999993 76.30989583333334)"/><use xlink:href="#d" transform="matrix(1,0,0,1,2173.1182804007817,-25.325757575757507) translate(65.65299479166666 76.30989583333334)"/><use xlink:href="#e" transform="matrix(1,0,0,1,2173.1182804007817,-25.325757575757507) translate(90.71809895833334 76.30989583333334)"/><path d="M1768.12 75.67c0-3.3 2.68-6 6-6h148c3.3 0 6 2.7 6 6v108c0 3.32-2.7 6-6 6h-148c-3.32 0-6-2.68-6-6z" stroke="#0c7cba" stroke-width="3" fill="#83bbe5"/><use xlink:href="#f" transform="matrix(1,0,0,1,1773.1182804007817,74.6742424242425) translate(6.909505208333329 50.88932291666667)"/><use xlink:href="#g" transform="matrix(1,0,0,1,1773.1182804007817,74.6742424242425) translate(47.615234375 50.88932291666667)"/><use xlink:href="#h" transform="matrix(1,0,0,1,1773.1182804007817,74.6742424242425) translate(91.21940104166667 50.88932291666667)"/><use xlink:href="#i" transform="matrix(1,0,0,1,1773.1182804007817,74.6742424242425) translate(6.12109375 76.30989583333334)"/><use xlink:href="#j" transform="matrix(1,0,0,1,1773.1182804007817,74.6742424242425) translate(67.3984375 76.30989583333334)"/><use xlink:href="#k" transform="matrix(1,0,0,1,1773.1182804007817,74.6742424242425) translate(94.17708333333334 76.30989583333334)"/><path d="M1588.12 235.67c0-3.3 2.68-6 6-6h148c3.3 0 6 2.7 6 6v108c0 3.32-2.7 6-6 6h-148c-3.32 0-6-2.68-6-6z" stroke="#999" stroke-width="3" fill="#ccc"/><use xlink:href="#l" transform="matrix(1,0,0,1,1593.1182804007817,234.6742424242425) translate(0.7617187499999858 50.88932291666667)"/><use xlink:href="#m" transform="matrix(1,0,0,1,1593.1182804007817,234.6742424242425) translate(104.41276041666667 50.88932291666667)"/><use xlink:href="#n" transform="matrix(1,0,0,1,1593.1182804007817,234.6742424242425) translate(3.550781249999986 76.30989583333334)"/><use xlink:href="#o" transform="matrix(1,0,0,1,1593.1182804007817,234.6742424242425) translate(62.12109374999999 76.30989583333334)"/><use xlink:href="#p" transform="matrix(1,0,0,1,1593.1182804007817,234.6742424242425) translate(97.65885416666667 76.30989583333334)"/><path d="M1868.93 31.17h-14.6l-2.46.67-1.6 1.58-.65 2.45v11.68h-3V35.47l.97-3.6 2.7-2.72 3.62-.98h15zm296.2 0h-14.82v-3h14.82zm-85.26 0h-18.42v-3h18.42zm-33.23 0h-29.62v-3h29.62zm-44.43 0h-29.6v-3h29.6zm-44.42 0h-29.6v-3h29.6zm-44.42 0h-29.62v-3h29.62z" stroke="#b2b2b2" stroke-width=".05" fill="#b2b2b2"/><path d="M2166.62 31.17h-1.54v-3h1.54z" fill="#b2b2b2"/><path d="M2166.64 31.2h-1.6v-3.05h1.6zm-1.54-3v2.95h1.5V28.2z" stroke="#b2b2b2" stroke-width=".05" fill="#b2b2b2"/><path d="M1848.12 63.32l-4.64-14.27h9.27z" fill="#b2b2b2"/><path d="M1848.12 68.17l-6.7-20.62h13.4zm-2.57-17.62l2.57 7.92 2.57-7.92z" stroke="#b2b2b2" stroke-width=".05" fill="#b2b2b2"/><use xlink:href="#q" transform="matrix(1,0,0,1,2079.8704110321455,16.963955965909157) translate(0 19.951822916666668)"/><path d="M1669.62 207.55h-3v-11.98h3zm0-23.96h-3v-11.27h3zm19.66-52.43h-14.96l-2.45.67-1.6 1.58-.65 2.45v11.04h-3v-11.43l.97-3.6 2.7-2.72 3.62-.98h15.36zm75.84 0h-15.17v-3h15.17zm-30.34 0h-30.33v-3h30.33z" stroke="#b2b2b2" stroke-width=".05" fill="#b2b2b2"/><path d="M1766.62 131.17h-1.54v-3h1.54z" fill="#b2b2b2"/><path d="M1766.64 131.2h-1.6v-3.05h1.6zm-1.54-3v2.95h1.5v-2.95z" stroke="#b2b2b2" stroke-width=".05" fill="#b2b2b2"/><path d="M1668.12 223.32l-4.64-14.27h9.27z" fill="#b2b2b2"/><path d="M1668.12 228.17l-6.7-20.62h13.4zm-2.57-17.62l2.57 7.92 2.57-7.92z" stroke="#b2b2b2" stroke-width=".05" fill="#b2b2b2"/><use xlink:href="#r" transform="matrix(1,0,0,1,1641.1755720674485,146.90760064721886) translate(0 19.951822916666668)"/><path d="M2588.12 675.67c0-3.3 2.68-6 6-6h148c3.3 0 6 2.7 6 6v108c0 3.32-2.7 6-6 6h-148c-3.32 0-6-2.68-6-6z" stroke="#834187" stroke-width="3" fill="#b391b5"/><use xlink:href="#s" transform="matrix(1,0,0,1,2593.1182804007817,674.6742424242425) translate(3.181640625 50.88932291666667)"/><use xlink:href="#t" transform="matrix(1,0,0,1,2593.1182804007817,674.6742424242425) translate(46.43945312500001 50.88932291666667)"/><use xlink:href="#u" transform="matrix(1,0,0,1,2593.1182804007817,674.6742424242425) translate(67.466796875 50.88932291666667)"/><use xlink:href="#v" transform="matrix(1,0,0,1,2593.1182804007817,674.6742424242425) translate(119.201171875 50.88932291666667)"/><use xlink:href="#w" transform="matrix(1,0,0,1,2593.1182804007817,674.6742424242425) translate(48.681640625 76.30989583333334)"/><path d="M1968.12 535.67c0-3.3 2.68-6 6-6h148c3.3 0 6 2.7 6 6v108c0 3.32-2.7 6-6 6h-148c-3.32 0-6-2.68-6-6z" stroke="#834187" stroke-width="3" fill="#b391b5"/><use xlink:href="#x" transform="matrix(1,0,0,1,1973.1182804007817,534.6742424242425) translate(5.569661458333329 50.88932291666667)"/><use xlink:href="#y" transform="matrix(1,0,0,1,1973.1182804007817,534.6742424242425) translate(41.235026041666664 50.88932291666667)"/><use xlink:href="#z" transform="matrix(1,0,0,1,1973.1182804007817,534.6742424242425) translate(68.79752604166666 50.88932291666667)"/><use xlink:href="#A" transform="matrix(1,0,0,1,1973.1182804007817,534.6742424242425) translate(42.62044270833333 76.30989583333334)"/><path d="M2088.12 735.67c0-3.3 2.68-6 6-6h148c3.3 0 6 2.7 6 6v108c0 3.32-2.7 6-6 6h-148c-3.32 0-6-2.68-6-6z" stroke="#0c7cba" stroke-width="3" fill="#83bbe5"/><use xlink:href="#B" transform="matrix(1,0,0,1,2093.1182804007817,734.6742424242425) translate(13.376302083333329 50.88932291666667)"/><use xlink:href="#C" transform="matrix(1,0,0,1,2093.1182804007817,734.6742424242425) translate(104.95052083333333 50.88932291666667)"/><use xlink:href="#D" transform="matrix(1,0,0,1,2093.1182804007817,734.6742424242425) translate(37.119791666666664 76.30989583333334)"/><path d="M1788.12 715.67c0-3.3 2.68-6 6-6h148c3.3 0 6 2.7 6 6v108c0 3.32-2.7 6-6 6h-148c-3.32 0-6-2.68-6-6z" stroke="#0c7cba" stroke-width="3" fill="#83bbe5"/><use xlink:href="#E" transform="matrix(1,0,0,1,1793.1182804007817,714.6742424242425) translate(23.694010416666664 50.88932291666667)"/><use xlink:href="#F" transform="matrix(1,0,0,1,1793.1182804007817,714.6742424242425) translate(15.873697916666671 76.30989583333334)"/><use xlink:href="#G" transform="matrix(1,0,0,1,1793.1182804007817,714.6742424242425) translate(107.62109375 76.30989583333334)"/><path d="M2708.12 255.67c0-3.3 2.68-6 6-6h148c3.3 0 6 2.7 6 6v108c0 3.32-2.7 6-6 6h-148c-3.32 0-6-2.68-6-6z" stroke="#0c7cba" stroke-width="3" fill="#83bbe5"/><use xlink:href="#H" transform="matrix(1,0,0,1,2713.1182804007817,254.6742424242425) translate(10.596354166666657 50.88932291666667)"/><use xlink:href="#I" transform="matrix(1,0,0,1,2713.1182804007817,254.6742424242425) translate(54.13671874999999 50.88932291666667)"/><use xlink:href="#J" transform="matrix(1,0,0,1,2713.1182804007817,254.6742424242425) translate(97.88671875 50.88932291666667)"/><use xlink:href="#K" transform="matrix(1,0,0,1,2713.1182804007817,254.6742424242425) translate(51.83528645833333 76.30989583333334)"/><path d="M2288.12 235.67c0-3.3 2.68-6 6-6h148c3.3 0 6 2.7 6 6v108c0 3.32-2.7 6-6 6h-148c-3.32 0-6-2.68-6-6z" stroke="#0c7cba" stroke-width="3" fill="#83bbe5"/><g><use xlink:href="#L" transform="matrix(1,0,0,1,2293.1182804007817,234.6742424242425) translate(20.107421875 50.88932291666667)"/><use xlink:href="#M" transform="matrix(1,0,0,1,2293.1182804007817,234.6742424242425) translate(111.845703125 50.88932291666667)"/><use xlink:href="#N" transform="matrix(1,0,0,1,2293.1182804007817,234.6742424242425) translate(36.27669270833333 76.30989583333334)"/><use xlink:href="#O" transform="matrix(1,0,0,1,2293.1182804007817,234.6742424242425) translate(96.66080729166667 76.30989583333334)"/></g><path d="M2368.12 695.67c0-3.3 2.68-6 6-6h148c3.3 0 6 2.7 6 6v108c0 3.32-2.7 6-6 6h-148c-3.32 0-6-2.68-6-6z" stroke="#999" stroke-width="3" fill="#ccc"/><g><use xlink:href="#P" transform="matrix(1,0,0,1,2373.1182804007817,694.6742424242425) translate(10.022135416666657 23.389322916666668)"/><use xlink:href="#Q" transform="matrix(1,0,0,1,2373.1182804007817,694.6742424242425) translate(49.05989583333333 23.389322916666668)"/><use xlink:href="#R" transform="matrix(1,0,0,1,2373.1182804007817,694.6742424242425) translate(32.3984375 48.809895833333336)"/><use xlink:href="#S" transform="matrix(1,0,0,1,2373.1182804007817,694.6742424242425) translate(72.80338541666667 48.809895833333336)"/><use xlink:href="#T" transform="matrix(1,0,0,1,2373.1182804007817,694.6742424242425) translate(37.61653645833333 74.23046875)"/><use xlink:href="#U" transform="matrix(1,0,0,1,2373.1182804007817,694.6742424242425) translate(39.635416666666664 99.65104166666667)"/></g><path d="M1848.12 375.67c0-3.3 2.68-6 6-6h148c3.3 0 6 2.7 6 6v108c0 3.32-2.7 6-6 6h-148c-3.32 0-6-2.68-6-6z" stroke="#999" stroke-width="3" fill="#ccc"/><g><use xlink:href="#V" transform="matrix(1,0,0,1,1853.1182804007817,374.6742424242425) translate(21.40625 37.13932291666667)"/><use xlink:href="#W" transform="matrix(1,0,0,1,1853.1182804007817,374.6742424242425) translate(1.9192708333333286 62.55989583333334)"/><use xlink:href="#X" transform="matrix(1,0,0,1,1853.1182804007817,374.6742424242425) translate(71.98307291666666 62.55989583333334)"/><use xlink:href="#Y" transform="matrix(1,0,0,1,1853.1182804007817,374.6742424242425) translate(117.26432291666667 62.55989583333334)"/><use xlink:href="#Z" transform="matrix(1,0,0,1,1853.1182804007817,374.6742424242425) translate(56.000651041666664 87.98046875000001)"/></g><path d="M2348.12 435.67c0-3.3 2.68-6 6-6h148c3.3 0 6 2.7 6 6v108c0 3.32-2.7 6-6 6h-148c-3.32 0-6-2.68-6-6z" stroke="#999" stroke-width="3" fill="#ccc"/><g><use xlink:href="#aa" transform="matrix(1,0,0,1,2353.1182804007817,434.6742424242425) translate(4.421223958333329 37.13932291666667)"/><use xlink:href="#ab" transform="matrix(1,0,0,1,2353.1182804007817,434.6742424242425) translate(39.074869791666664 37.13932291666667)"/><use xlink:href="#ac" transform="matrix(1,0,0,1,2353.1182804007817,434.6742424242425) translate(61.970703125 37.13932291666667)"/><use xlink:href="#ad" transform="matrix(1,0,0,1,2353.1182804007817,434.6742424242425) translate(125.69986979166667 37.13932291666667)"/><use xlink:href="#ae" transform="matrix(1,0,0,1,2353.1182804007817,434.6742424242425) translate(20.986979166666664 62.55989583333334)"/><use xlink:href="#af" transform="matrix(1,0,0,1,2353.1182804007817,434.6742424242425) translate(46.690104166666664 62.55989583333334)"/><use xlink:href="#ag" transform="matrix(1,0,0,1,2353.1182804007817,434.6742424242425) translate(20.029947916666657 87.98046875000001)"/></g><path d="M1869.62 687.55h-3v-15.3h3zm0-30.62h-3V626.3h3zm95.5-65.76h-15.17v-3h15.17zm-30.34 0h-30.33v-3h30.33z" stroke="#b2b2b2" stroke-width=".05" fill="#b2b2b2"/><path d="M1966.62 591.17h-1.54v-3h1.54z" fill="#b2b2b2"/><path d="M1966.64 591.2h-1.6v-3.05h1.6zm-1.54-3v2.95h1.5v-2.95z" stroke="#b2b2b2" stroke-width=".05" fill="#b2b2b2"/><path d="M1868.12 703.32l-4.64-14.27h9.27z" fill="#b2b2b2"/><path d="M1868.12 708.17l-6.7-20.62h13.4zm-2.57-17.62l2.57 7.92 2.57-7.92z" stroke="#b2b2b2" stroke-width=".05" fill="#b2b2b2"/><g><use xlink:href="#ah" transform="matrix(1,0,0,1,1844.953566859115,586.9639559659091) translate(0 19.951822916666668)"/></g><path d="M2049.62 526.67h-3v-15.83h3zm0-31.66h-3v-31.66h3zm0-47.5h-3v-31.66h3zm0-47.5h-3v-31.66h3zm0-47.5h-3v-31.66h3zm0-47.5h-3v-31.66h3zm0-47.5h-3v-31.66h3zm0-47.5h-3v-9.12h3zm316.3-22.35l2.72 2.72.98 3.6v13.58h-3v-13.18l-.66-2.45-1.6-1.58-2.44-.67h-14.47v-3h14.87zm-209.14 2.02h-29.33v-3h29.33zm44 0h-29.33v-3h29.33zm44 0h-29.33v-3h29.33zm44 0h-29.33v-3h29.33zm44 0h-29.33v-3h29.33zm-220 0h-26.64v-3h26.64z" stroke="#b2b2b2" stroke-width=".05" fill="#b2b2b2"/><path d="M2049.62 528.17h-3v-1.53h3z" fill="#b2b2b2"/><path d="M2049.64 528.2h-3.05v-1.6h3.04zm-3-1.54v1.5h2.95v-1.5z" stroke="#b2b2b2" stroke-width=".05" fill="#b2b2b2"/><path d="M2368.12 223.32l-4.64-14.27h9.27z" fill="#b2b2b2"/><path d="M2368.12 228.17l-6.7-20.62h13.4zm-2.57-17.62l2.57 7.92 2.57-7.92z" stroke="#b2b2b2" stroke-width=".05" fill="#b2b2b2"/><g><use xlink:href="#q" transform="matrix(1,0,0,1,2030.0954939424485,175.46395596590915) translate(0 19.951822916666668)"/></g><path d="M1785.12 771.17h-11.84v-3h11.84zm-23.67 0h-23.67v-3h23.67zm-51.83-7.7l.66 2.45 1.6 1.6 2.44.65h11.63v3h-12.03l-3.6-.97-2.73-2.72-.98-3.6v-15.82h3zm0-31.03h-3V701.2h3zm0-46.86h-3v-31.24h3zm0-46.86h-3v-31.24h3zm0-46.86h-3v-31.23h3zm0-66.9h-3v-11.2h3zm0-26.8h-3V466.9h3zm23.14-67h-18.44l-2.45.68-1.6 1.58-.65 2.45v15.42h-3v-15.83l.97-3.6 2.7-2.72 3.62-.98h18.84zm55.94 0h-37.3v-3h37.3zm37.3 0h-18.65v-3H1826z" stroke="#b2b2b2" stroke-width=".05" fill="#b2b2b2"/><path d="M1786.62 771.17h-1.54v-3h1.54z" fill="#b2b2b2"/><path d="M1786.64 771.2h-1.6v-3.05h1.6zm-1.54-3v2.95h1.5v-2.95z" stroke="#b2b2b2" stroke-width=".05" fill="#b2b2b2"/><path d="M1841.76 429.67l-14.26 4.64v-9.26z" fill="#b2b2b2"/><path d="M1846.62 429.67l-20.62 6.7v-13.4zm-17.62 2.57l7.9-2.57-7.9-2.57z" stroke="#b2b2b2" stroke-width=".05" fill="#b2b2b2"/><g><use xlink:href="#r" transform="matrix(1,0,0,1,1681.1755720674485,524.9481652442818) translate(0 19.951822916666668)"/></g><path d="M1929.62 347.55h-3v-20.62h3zm-3.7-68.4l2.72 2.72.98 3.6v20.83h-3v-20.43l-.66-2.45-1.6-1.58-2.44-.67h-11.14v-3h11.54zm-26.47 2.02h-13.93v-3h13.93zm-49.83-14.2h-3v-6.8h3zm0-20.3h-3v-27h3zm0-40.5h-3v-13.5h3z" stroke="#b2b2b2" stroke-width=".05" fill="#b2b2b2"/><path d="M1849.62 192.7h-3v-1.53h3z" fill="#b2b2b2"/><path d="M1849.64 192.74h-3.05v-1.6h3.04zm-3-1.54v1.5h2.95v-1.5z" stroke="#b2b2b2" stroke-width=".05" fill="#b2b2b2"/><path d="M1928.12 363.32l-4.64-14.27h9.27z" fill="#b2b2b2"/><path d="M1928.12 368.17l-6.7-20.62h13.4zm-2.57-17.62l2.57 7.92 2.57-7.92z" stroke="#b2b2b2" stroke-width=".05" fill="#b2b2b2"/><g><use xlink:href="#q" transform="matrix(1,0,0,1,1829.479135998928,266.9639559659092) translate(0 19.951822916666668)"/></g><path d="M2169.62 707.55h-3V692.3h3zm0-30.5h-3v-30.5h3zm0-45.77h-3v-30.5h3zm0-45.76h-3v-30.5h3zm0-45.77h-3v-30.5h3zm0-45.76h-3v-30.52h3zm0-57.04h-3V417.7h3zm0-34.5h-3v-30.5h3zm0-45.77h-3v-30.52h3zm23-65.53h-18.3l-2.45.67-1.6 1.58-.65 2.45v15.06h-3v-15.46l.97-3.6 2.7-2.72 3.62-.98h18.7zm92.5 0h-18.5v-3h18.5zm-37 0h-37v-3h37z" stroke="#b2b2b2" stroke-width=".05" fill="#b2b2b2"/><path d="M2286.62 291.17h-1.54v-3h1.54z" fill="#b2b2b2"/><path d="M2286.64 291.2h-1.6v-3.05h1.6zm-1.54-3v2.95h1.5v-2.95z" stroke="#b2b2b2" stroke-width=".05" fill="#b2b2b2"/><path d="M2168.12 723.32l-4.64-14.27h9.27z" fill="#b2b2b2"/><path d="M2168.12 728.17l-6.7-20.62h13.4zm-2.57-17.62l2.57 7.92 2.57-7.92z" stroke="#b2b2b2" stroke-width=".05" fill="#b2b2b2"/><g><use xlink:href="#q" transform="matrix(1,0,0,1,2140.0954939424482,436.9639559659092) translate(0 19.951822916666668)"/></g><path d="M1869.62 864.97l.66 2.45 1.6 1.6 2.44.65H1888v3h-14.08l-3.6-.97-2.73-2.72-.98-3.6v-11.04h3zm51.4 7.7h-19.15v-3H1921zm91.85 0h-27.75v-3h27.75zm35.25-7.3l-.98 3.6-2.72 2.73-3.6.97h-14.08v-3h13.68l2.45-.66 1.6-1.58.65-2.45V853.6h3zm-178.5-21.86h-3v-10.83h3zm178.5-1.5h-3v-23.16h3zm17.88-50.83h-13.18l-2.45.67-1.6 1.58-.65 2.45v11.4h-3v-11.8l.97-3.6 2.7-2.72 3.62-.98H2066z" stroke="#b2b2b2" stroke-width=".05" fill="#b2b2b2"/><path d="M1869.62 832.7h-3v-1.53h3z" fill="#b2b2b2"/><path d="M1869.64 832.74h-3.05v-1.6h3.04zm-3-1.54v1.5h2.95v-1.5z" stroke="#b2b2b2" stroke-width=".05" fill="#b2b2b2"/><path d="M2081.76 789.67l-14.26 4.64v-9.26z" fill="#b2b2b2"/><path d="M2086.62 789.67l-20.62 6.7v-13.4zm-17.62 2.57l7.9-2.57-7.9-2.57z" stroke="#b2b2b2" stroke-width=".05" fill="#b2b2b2"/><g><use xlink:href="#r" transform="matrix(1,0,0,1,1921.0050083502995,858.4639559659091) translate(0 19.951822916666668)"/></g><path d="M2169.62 884.97l.66 2.45 1.6 1.6 2.44.65h14.7v3h-15.1l-3.6-.97-2.73-2.72-.98-3.6v-11.04h3zm64.05 7.7h-29.77v-3h29.77zm44.67 0h-29.78v-3h29.78zm26.6 0h-11.7v-3h11.7zm107.4 0h-29.78v-3h29.78zm37.28-7.3l-.98 3.6-2.72 2.73-3.6.97h-15.1v-3h14.7l2.45-.66 1.6-1.58.65-2.45v-17.6h3zm-81.95 7.3h-16.4v-3h16.4zm-198.05-29.16h-3v-10.83h3zm280-13.9h-3v-17.8h3z" stroke="#b2b2b2" stroke-width=".05" fill="#b2b2b2"/><path d="M2169.62 852.7h-3v-1.53h3z" fill="#b2b2b2"/><path d="M2169.64 852.74h-3.05v-1.6h3.04zm-3-1.54v1.5h2.95v-1.5z" stroke="#b2b2b2" stroke-width=".05" fill="#b2b2b2"/><path d="M2452.75 830.3h-9.27l4.64-14.27z" fill="#b2b2b2"/><path d="M2454.82 831.8h-13.4l6.7-20.63zm-9.27-3h5.14l-2.58-7.92z" stroke="#b2b2b2" stroke-width=".05" fill="#b2b2b2"/><g><use xlink:href="#ah" transform="matrix(1,0,0,1,2304.953566859115,878.4639559659091) translate(0 19.951822916666668)"/></g><path d="M2669.62 666.67h-3V651h3zm0-31.33h-3V604h3zm0-47h-3V557h3zm22.5-67.17h-17.8l-2.45.67-1.6 1.58-.65 2.45v15.47h-3v-15.87l.97-3.6 2.7-2.72 3.62-.98h18.2zm97.5-7.3l-.98 3.6-2.72 2.73-3.6.97h-18.2v-3h17.8l2.45-.66 1.6-1.58.65-2.45v-13.34h3zm0-27.28h-3v-27.1h3zm0-40.64h-3v-27.08h3zm0-40.62h-3V391.8h3z" stroke="#b2b2b2" stroke-width=".05" fill="#b2b2b2"/><path d="M2669.62 668.17h-3v-1.53h3z" fill="#b2b2b2"/><path d="M2669.64 668.2h-3.05v-1.6h3.04zm-3-1.54v1.5h2.95v-1.5z" stroke="#b2b2b2" stroke-width=".05" fill="#b2b2b2"/><path d="M2792.75 390.3h-9.27l4.64-14.27z" fill="#b2b2b2"/><path d="M2794.82 391.8h-13.4l6.7-20.63zm-9.27-3h5.14l-2.58-7.92z" stroke="#b2b2b2" stroke-width=".05" fill="#b2b2b2"/><g><use xlink:href="#q" transform="matrix(1,0,0,1,2700.0954939424482,506.9639559659092) translate(0 19.951822916666668)"/></g><path d="M2609.62 483.87l-.98 3.6-2.72 2.73-3.6.97h-12.18v-3h11.78l2.45-.66 1.6-1.58.65-2.45v-13.8h3zm-31.46 7.3h-23.96v-3h23.96zm-35.94 0h-11.98v-3h11.98zm67.4-35.5h-3v-28h3zm0-42h-3v-28h3zm0-42h-3v-28h3zm0-42h-3v-7.3h3zm95.5-18.5h-15.17v-3h15.17zm-30.34 0h-30.33v-3h30.33z" stroke="#b2b2b2" stroke-width=".05" fill="#b2b2b2"/><path d="M2706.62 311.17h-1.54v-3h1.54z" fill="#b2b2b2"/><path d="M2706.64 311.2h-1.6v-3.05h1.6zm-1.54-3v2.95h1.5v-2.95z" stroke="#b2b2b2" stroke-width=".05" fill="#b2b2b2"/><path d="M2528.74 494.3l-14.27-4.63 14.27-4.63z" fill="#b2b2b2"/><path d="M2530.24 496.37l-20.62-6.7 20.62-6.7zm-10.9-6.7l7.9 2.57v-5.14z" stroke="#b2b2b2" stroke-width=".05" fill="#b2b2b2"/><g><use xlink:href="#ah" transform="matrix(1,0,0,1,2588.0210939440904,296.9639559659092) translate(0 19.951822916666668)"/></g><path d="M2264.78 791.17h-13.66v-3h13.66zm34.84-7.3l-.98 3.6-2.72 2.73-3.6.97h-13.87v-3h13.47l2.45-.66 1.6-1.58.65-2.45v-15.8h3zm0-32.2h-3v-32h3zm0-48h-3v-32h3zm0-48h-3v-3.3h3zm0-28.7h-3v-3.3h3zm0-19.3h-3v-32h3zm0-48h-3v-32h3zm26.38-68.5h-21.68l-2.45.67-1.6 1.58-.65 2.45v15.8h-3v-16.2l.97-3.6 2.7-2.72 3.62-.98H2326z" stroke="#b2b2b2" stroke-width=".05" fill="#b2b2b2"/><path d="M2251.16 791.17h-1.54v-3h1.54z" fill="#b2b2b2"/><path d="M2251.18 791.2h-1.6v-3.05h1.6zm-1.54-3v2.95h1.5v-2.95z" stroke="#b2b2b2" stroke-width=".05" fill="#b2b2b2"/><path d="M2341.76 489.67l-14.26 4.64v-9.26z" fill="#b2b2b2"/><path d="M2346.62 489.67l-20.62 6.7v-13.4zm-17.62 2.57l7.9-2.57-7.9-2.57z" stroke="#b2b2b2" stroke-width=".05" fill="#b2b2b2"/><g><use xlink:href="#r" transform="matrix(1,0,0,1,2271.1755720674482,626.9639559659091) translate(0 19.951822916666668)"/></g><defs><path d="M201 0v-1462h170v1308h645V0H201" id="ai"/><path d="M621-1116c316 0 501 239 501 567 0 339-180 575-508 569S119-212 115-549c-4-339 178-567 506-567zm-5 141c-239 0-329 168-329 426 0 255 93 430 331 430s332-174 332-430-95-426-334-426" id="aj"/><path d="M340-893c80-153 237-262 467-211l-23 154c-45-10-85-15-120-15-184-3-322 182-322 377V0H176v-1096h137l19 203h8" id="ak"/><path d="M995-51C878-2 799 19 639 20c-329 2-524-221-524-559 0-326 172-577 481-577 278 0 451 210 446 493v105H287c4 242 121 392 358 393 118 0 235-25 350-74v148zM864-653c2-195-85-324-270-324-190 0-288 139-303 324h573" id="al"/><path d="M1368-1116c259 2 372 131 371 401V0h-166v-713c0-168-66-262-230-262-221 0-303 131-303 363V0H874v-713c-1-169-66-262-231-262-235 0-301 142-301 400V0H176v-1096h135l27 150h8c56-99 174-170 324-170 171 0 283 62 336 186h8c60-108 189-187 354-186" id="am"/><g id="a"><use transform="matrix(0.009114583333333334,0,0,0.009114583333333334,0,0)" xlink:href="#ai"/><use transform="matrix(0.009114583333333334,0,0,0.009114583333333334,9.688802083333334,0)" xlink:href="#aj"/><use transform="matrix(0.009114583333333334,0,0,0.009114583333333334,20.963541666666668,0)" xlink:href="#ak"/><use transform="matrix(0.009114583333333334,0,0,0.009114583333333334,28.209635416666668,0)" xlink:href="#al"/><use transform="matrix(0.009114583333333334,0,0,0.009114583333333334,38.68229166666667,0)" xlink:href="#am"/></g><path d="M342 0H176v-1096h166V0zm-82-1282c-61 0-98-43-98-111 0-69 36-110 98-110 59 0 98 43 98 110s-39 111-98 111" id="an"/><path d="M1141-549c0 329-147 569-455 569-159 0-273-61-344-161h-12c23 199 7 418 12 633H176v-1588h135l23 150h8c77-108 175-170 344-170 311 0 455 237 455 567zm-172-2c0-242-88-424-307-424-256 0-323 154-320 426 3 280 68 430 324 430 213 0 303-196 303-432" id="ao"/><path d="M502-977c-130 0-238 32-238 139 0 75 39 101 95 134 33 19 97 46 192 81 130 48 217 95 263 143s69 108 69 181C883-73 695 20 449 20 304 20 190-3 109-49v-154c91 47 216 86 344 86 149 0 270-36 270-168 0-43-21-76-55-109-56-55-367-158-434-208-74-55-128-109-128-225 0-327 490-342 754-217l-59 135c-110-45-210-68-299-68" id="ap"/><path d="M563 20c-271 0-399-123-399-399v-717h168v711c1 177 76 266 252 266 250 0 331-135 331-401v-576h166V0H944l-24-147h-9C848-44 724 20 563 20" id="aq"/><g id="b"><use transform="matrix(0.009114583333333334,0,0,0.009114583333333334,0,0)" xlink:href="#an"/><use transform="matrix(0.009114583333333334,0,0,0.009114583333333334,4.721354166666667,0)" xlink:href="#ao"/><use transform="matrix(0.009114583333333334,0,0,0.009114583333333334,16.16015625,0)" xlink:href="#ap"/><use transform="matrix(0.009114583333333334,0,0,0.009114583333333334,25.065104166666668,0)" xlink:href="#aq"/><use transform="matrix(0.009114583333333334,0,0,0.009114583333333334,36.52213541666667,0)" xlink:href="#am"/></g><path d="M115-545c0-330 146-571 454-571 149 0 263 54 342 162h13c-20-185-8-401-11-602h166V0H944l-22-147h-9C836-36 722 20 569 20c-309 0-454-234-454-565zm172 2c0 249 78 424 303 424 257 0 327-150 323-426-4-282-68-432-325-432-220 0-301 191-301 434" id="ar"/><path d="M342 0H176v-1556h166V0" id="as"/><g id="c"><use transform="matrix(0.009114583333333334,0,0,0.009114583333333334,0,0)" xlink:href="#ar"/><use transform="matrix(0.009114583333333334,0,0,0.009114583333333334,11.438802083333334,0)" xlink:href="#aj"/><use transform="matrix(0.009114583333333334,0,0,0.009114583333333334,22.713541666666668,0)" xlink:href="#as"/><use transform="matrix(0.009114583333333334,0,0,0.009114583333333334,27.434895833333336,0)" xlink:href="#aj"/><use transform="matrix(0.009114583333333334,0,0,0.009114583333333334,38.70963541666667,0)" xlink:href="#ak"/></g><path d="M354-322c-2 123 60 204 176 205 51 1 114-10 150-20v127C647 7 557 20 506 20 294 20 188-92 188-315v-652H31v-80l157-69 70-234h96v254h318v129H354v645" id="at"/><g id="d"><use transform="matrix(0.009114583333333334,0,0,0.009114583333333334,0,0)" xlink:href="#ap"/><use transform="matrix(0.009114583333333334,0,0,0.009114583333333334,8.904947916666668,0)" xlink:href="#an"/><use transform="matrix(0.009114583333333334,0,0,0.009114583333333334,13.626302083333336,0)" xlink:href="#at"/></g><path d="M588-1114c260 0 384 106 385 366V0H850l-33-156h-8C708-34 639 17 442 20 231 23 94-94 94-303c0-221 177-337 531-348l186-6c11-203-40-320-233-320-91 0-195 28-310 84l-51-127c97-53 229-94 371-94zM268-301c-1 123 81 184 207 184 203 0 334-120 332-323v-99c-257 14-539-7-539 238" id="au"/><g id="e"><use transform="matrix(0.009114583333333334,0,0,0.009114583333333334,0,0)" xlink:href="#au"/><use transform="matrix(0.009114583333333334,0,0,0.009114583333333334,10.381510416666668,0)" xlink:href="#am"/><use transform="matrix(0.009114583333333334,0,0,0.009114583333333334,27.744791666666668,0)" xlink:href="#al"/><use transform="matrix(0.009114583333333334,0,0,0.009114583333333334,38.21744791666667,0)" xlink:href="#at"/></g><path d="M516-150c94-315 146-423 332-946h178L610 0H416L0-1096h178c98 281 253 670 330 946h8" id="av"/><g id="f"><use transform="matrix(0.009114583333333334,0,0,0.009114583333333334,0,0)" xlink:href="#av"/><use transform="matrix(0.009114583333333334,0,0,0.009114583333333334,9.3515625,0)" xlink:href="#al"/><use transform="matrix(0.009114583333333334,0,0,0.009114583333333334,19.82421875,0)" xlink:href="#as"/><use transform="matrix(0.009114583333333334,0,0,0.009114583333333334,24.545572916666668,0)" xlink:href="#an"/><use transform="matrix(0.009114583333333334,0,0,0.009114583333333334,29.266927083333336,0)" xlink:href="#at"/></g><g id="g"><use transform="matrix(0.009114583333333334,0,0,0.009114583333333334,0,0)" xlink:href="#al"/><use transform="matrix(0.009114583333333334,0,0,0.009114583333333334,10.47265625,0)" xlink:href="#ap"/><use transform="matrix(0.009114583333333334,0,0,0.009114583333333334,19.377604166666668,0)" xlink:href="#ap"/><use transform="matrix(0.009114583333333334,0,0,0.009114583333333334,28.282552083333336,0)" xlink:href="#al"/></g><path d="M287-543c-1 247 91 418 323 418 91 0 185-20 281-59v147C818 1 725 20 614 20c-329 0-499-221-499-561 0-349 172-575 510-575 96 0 221 26 282 57l-51 141c-61-25-157-50-235-51-223 0-334 142-334 426" id="aw"/><g id="h"><use transform="matrix(0.009114583333333334,0,0,0.009114583333333334,0,0)" xlink:href="#aw"/><use transform="matrix(0.009114583333333334,0,0,0.009114583333333334,8.88671875,0)" xlink:href="#an"/><use transform="matrix(0.009114583333333334,0,0,0.009114583333333334,13.608072916666668,0)" xlink:href="#as"/><use transform="matrix(0.009114583333333334,0,0,0.009114583333333334,18.329427083333336,0)" xlink:href="#as"/><use transform="matrix(0.009114583333333334,0,0,0.009114583333333334,23.050781250000007,0)" xlink:href="#aq"/><use transform="matrix(0.009114583333333334,0,0,0.009114583333333334,34.5078125,0)" xlink:href="#am"/></g><g id="i"><use transform="matrix(0.009114583333333334,0,0,0.009114583333333334,0,0)" xlink:href="#ar"/><use transform="matrix(0.009114583333333334,0,0,0.009114583333333334,11.438802083333334,0)" xlink:href="#aj"/><use transform="matrix(0.009114583333333334,0,0,0.009114583333333334,22.713541666666668,0)" xlink:href="#as"/><use transform="matrix(0.009114583333333334,0,0,0.009114583333333334,27.434895833333336,0)" xlink:href="#aj"/><use transform="matrix(0.009114583333333334,0,0,0.009114583333333334,38.70963541666667,0)" xlink:href="#ak"/><use transform="matrix(0.009114583333333334,0,0,0.009114583333333334,45.95572916666667,0)" xlink:href="#al"/></g><g id="j"><use transform="matrix(0.009114583333333334,0,0,0.009114583333333334,0,0)" xlink:href="#al"/><use transform="matrix(0.009114583333333334,0,0,0.009114583333333334,10.47265625,0)" xlink:href="#aq"/></g><path d="M575-1430c-169 0-190 146-184 334h279v129H391V0H225v-967H29v-75l196-60c-15-299 97-465 353-465 58 0 126 12 204 35l-43 133c-64-21-119-31-164-31" id="ax"/><path d="M125-741c0-247 161-377 414-375 57 0 109 7 155 20h379v105l-203 24c37 48 72 129 72 219 0 255-227 390-504 345-71 37-106 84-106 141 0 78 66 88 164 88h194c219-1 369 87 369 293 0 121-49 213-146 277s-239 96-426 96c-250 0-448-83-448-306C39 36 147-58 283-86c-52-23-102-79-99-152 4-104 57-143 133-192-107-42-192-164-192-311zM438-25c-143-1-242 70-239 209s131 181 290 181c139 0 242-21 309-63s101-98 101-169c0-147-88-158-262-158H438zm94-970c-158 0-243 88-243 250 0 153 93 233 246 233 162 0 243-79 243-236 0-165-82-247-246-247" id="ay"/><g id="k"><use transform="matrix(0.009114583333333334,0,0,0.009114583333333334,0,0)" xlink:href="#ax"/><use transform="matrix(0.009114583333333334,0,0,0.009114583333333334,6.325520833333334,0)" xlink:href="#aq"/><use transform="matrix(0.009114583333333334,0,0,0.009114583333333334,17.782552083333336,0)" xlink:href="#ay"/><use transform="matrix(0.009114583333333334,0,0,0.009114583333333334,28.009114583333336,0)" xlink:href="#an"/><use transform="matrix(0.009114583333333334,0,0,0.009114583333333334,32.73046875,0)" xlink:href="#au"/><use transform="matrix(0.009114583333333334,0,0,0.009114583333333334,43.11197916666667,0)" xlink:href="#at"/></g><g id="l"><use transform="matrix(0.009114583333333334,0,0,0.009114583333333334,0,0)" xlink:href="#ao"/><use transform="matrix(0.009114583333333334,0,0,0.009114583333333334,11.438802083333334,0)" xlink:href="#al"/><use transform="matrix(0.009114583333333334,0,0,0.009114583333333334,21.911458333333336,0)" xlink:href="#ak"/><use transform="matrix(0.009114583333333334,0,0,0.009114583333333334,29.531250000000004,0)" xlink:href="#ap"/><use transform="matrix(0.009114583333333334,0,0,0.009114583333333334,38.43619791666667,0)" xlink:href="#ao"/><use transform="matrix(0.009114583333333334,0,0,0.009114583333333334,49.875,0)" xlink:href="#an"/><use transform="matrix(0.009114583333333334,0,0,0.009114583333333334,54.59635416666667,0)" xlink:href="#aw"/><use transform="matrix(0.009114583333333334,0,0,0.009114583333333334,63.48307291666667,0)" xlink:href="#an"/><use transform="matrix(0.009114583333333334,0,0,0.009114583333333334,68.20442708333334,0)" xlink:href="#au"/><use transform="matrix(0.009114583333333334,0,0,0.009114583333333334,78.58593750000003,0)" xlink:href="#at"/><use transform="matrix(0.009114583333333334,0,0,0.009114583333333334,85.17578125000003,0)" xlink:href="#an"/><use transform="matrix(0.009114583333333334,0,0,0.009114583333333334,89.89713541666669,0)" xlink:href="#ap"/></g><path d="M694-1116c270 0 399 125 398 401V0H926v-709c-1-177-76-266-252-266-250 0-332 133-332 400V0H176v-1096h135l27 150h8c62-101 190-170 348-170" id="az"/><g id="m"><use transform="matrix(0.009114583333333334,0,0,0.009114583333333334,0,0)" xlink:href="#aq"/><use transform="matrix(0.009114583333333334,0,0,0.009114583333333334,11.45703125,0)" xlink:href="#az"/><use transform="matrix(0.009114583333333334,0,0,0.009114583333333334,22.9140625,0)" xlink:href="#ar"/><use transform="matrix(0.009114583333333334,0,0,0.009114583333333334,34.352864583333336,0)" xlink:href="#al"/></g><g id="n"><use transform="matrix(0.009114583333333334,0,0,0.009114583333333334,0,0)" xlink:href="#aj"/><use transform="matrix(0.009114583333333334,0,0,0.009114583333333334,11.274739583333334,0)" xlink:href="#am"/><use transform="matrix(0.009114583333333334,0,0,0.009114583333333334,28.638020833333336,0)" xlink:href="#az"/><use transform="matrix(0.009114583333333334,0,0,0.009114583333333334,40.095052083333336,0)" xlink:href="#an"/><use transform="matrix(0.009114583333333334,0,0,0.009114583333333334,44.81640625,0)" xlink:href="#ap"/></g><g id="o"><use transform="matrix(0.009114583333333334,0,0,0.009114583333333334,0,0)" xlink:href="#an"/><use transform="matrix(0.009114583333333334,0,0,0.009114583333333334,4.721354166666667,0)" xlink:href="#ap"/><use transform="matrix(0.009114583333333334,0,0,0.009114583333333334,13.626302083333336,0)" xlink:href="#at"/><use transform="matrix(0.009114583333333334,0,0,0.009114583333333334,20.216145833333336,0)" xlink:href="#al"/></g><g id="p"><use transform="matrix(0.009114583333333334,0,0,0.009114583333333334,0,0)" xlink:href="#az"/><use transform="matrix(0.009114583333333334,0,0,0.009114583333333334,11.45703125,0)" xlink:href="#au"/><use transform="matrix(0.009114583333333334,0,0,0.009114583333333334,21.838541666666668,0)" xlink:href="#at"/><use transform="matrix(0.009114583333333334,0,0,0.009114583333333334,28.428385416666668,0)" xlink:href="#aq"/><use transform="matrix(0.009114583333333334,0,0,0.009114583333333334,39.88541666666667,0)" xlink:href="#ap"/></g><g id="q"><use transform="matrix(0.009114583333333334,0,0,0.009114583333333334,0,0)" xlink:href="#ai"/><use transform="matrix(0.009114583333333334,0,0,0.009114583333333334,9.688802083333334,0)" xlink:href="#aj"/><use transform="matrix(0.009114583333333334,0,0,0.009114583333333334,20.963541666666668,0)" xlink:href="#ak"/><use transform="matrix(0.009114583333333334,0,0,0.009114583333333334,28.209635416666668,0)" xlink:href="#al"/><use transform="matrix(0.009114583333333334,0,0,0.009114583333333334,38.68229166666667,0)" xlink:href="#am"/></g><g id="r"><use transform="matrix(0.009114583333333334,0,0,0.009114583333333334,0,0)" xlink:href="#an"/><use transform="matrix(0.009114583333333334,0,0,0.009114583333333334,4.721354166666667,0)" xlink:href="#ao"/><use transform="matrix(0.009114583333333334,0,0,0.009114583333333334,16.16015625,0)" xlink:href="#ap"/><use transform="matrix(0.009114583333333334,0,0,0.009114583333333334,25.065104166666668,0)" xlink:href="#aq"/><use transform="matrix(0.009114583333333334,0,0,0.009114583333333334,36.52213541666667,0)" xlink:href="#am"/></g><g id="s"><use transform="matrix(0.009114583333333334,0,0,0.009114583333333334,0,0)" xlink:href="#ap"/><use transform="matrix(0.009114583333333334,0,0,0.009114583333333334,8.904947916666668,0)" xlink:href="#aq"/><use transform="matrix(0.009114583333333334,0,0,0.009114583333333334,20.361979166666668,0)" xlink:href="#az"/><use transform="matrix(0.009114583333333334,0,0,0.009114583333333334,31.819010416666668,0)" xlink:href="#at"/></g><g id="t"><use transform="matrix(0.009114583333333334,0,0,0.009114583333333334,0,0)" xlink:href="#an"/><use transform="matrix(0.009114583333333334,0,0,0.009114583333333334,4.721354166666667,0)" xlink:href="#az"/></g><g id="u"><use transform="matrix(0.009114583333333334,0,0,0.009114583333333334,0,0)" xlink:href="#aw"/><use transform="matrix(0.009114583333333334,0,0,0.009114583333333334,8.88671875,0)" xlink:href="#aq"/><use transform="matrix(0.009114583333333334,0,0,0.009114583333333334,20.34375,0)" xlink:href="#as"/><use transform="matrix(0.009114583333333334,0,0,0.009114583333333334,25.065104166666668,0)" xlink:href="#ao"/><use transform="matrix(0.009114583333333334,0,0,0.009114583333333334,36.50390625,0)" xlink:href="#au"/></g><path d="M287-543c0 246 78 424 303 424 259 0 323-148 323-426 0-279-71-432-325-432-220 0-301 191-301 434zm-172-2c0-328 147-571 454-571 150 0 265 57 346 170h9l24-150h131V492H913c5-208-11-450 11-639h-13C834-36 719 20 565 20c-305 0-450-240-450-565" id="aA"/><g id="v"><use transform="matrix(0.009114583333333334,0,0,0.009114583333333334,0,0)" xlink:href="#aA"/><use transform="matrix(0.009114583333333334,0,0,0.009114583333333334,11.438802083333334,0)" xlink:href="#aq"/><use transform="matrix(0.009114583333333334,0,0,0.009114583333333334,22.895833333333336,0)" xlink:href="#an"/></g><g id="w"><use transform="matrix(0.009114583333333334,0,0,0.009114583333333334,0,0)" xlink:href="#aj"/><use transform="matrix(0.009114583333333334,0,0,0.009114583333333334,11.274739583333334,0)" xlink:href="#ax"/><use transform="matrix(0.009114583333333334,0,0,0.009114583333333334,17.600260416666668,0)" xlink:href="#ax"/><use transform="matrix(0.009114583333333334,0,0,0.009114583333333334,23.92578125,0)" xlink:href="#an"/><use transform="matrix(0.009114583333333334,0,0,0.009114583333333334,28.647135416666668,0)" xlink:href="#aw"/><use transform="matrix(0.009114583333333334,0,0,0.009114583333333334,37.53385416666667,0)" xlink:href="#an"/><use transform="matrix(0.009114583333333334,0,0,0.009114583333333334,42.255208333333336,0)" xlink:href="#au"/></g><g id="x"><use transform="matrix(0.009114583333333334,0,0,0.009114583333333334,0,0)" xlink:href="#ap"/><use transform="matrix(0.009114583333333334,0,0,0.009114583333333334,8.904947916666668,0)" xlink:href="#al"/><use transform="matrix(0.009114583333333334,0,0,0.009114583333333334,19.377604166666668,0)" xlink:href="#ar"/></g><g id="y"><use transform="matrix(0.009114583333333334,0,0,0.009114583333333334,0,0)" xlink:href="#ar"/><use transform="matrix(0.009114583333333334,0,0,0.009114583333333334,11.438802083333334,0)" xlink:href="#aj"/></g><g id="z"><use transform="matrix(0.009114583333333334,0,0,0.009114583333333334,0,0)" xlink:href="#al"/><use transform="matrix(0.009114583333333334,0,0,0.009114583333333334,10.47265625,0)" xlink:href="#an"/><use transform="matrix(0.009114583333333334,0,0,0.009114583333333334,15.194010416666668,0)" xlink:href="#aq"/><use transform="matrix(0.009114583333333334,0,0,0.009114583333333334,26.651041666666668,0)" xlink:href="#ap"/><use transform="matrix(0.009114583333333334,0,0,0.009114583333333334,35.555989583333336,0)" xlink:href="#am"/><use transform="matrix(0.009114583333333334,0,0,0.009114583333333334,52.919270833333336,0)" xlink:href="#aj"/><use transform="matrix(0.009114583333333334,0,0,0.009114583333333334,64.19401041666667,0)" xlink:href="#ar"/></g><g id="A"><use transform="matrix(0.009114583333333334,0,0,0.009114583333333334,0,0)" xlink:href="#at"/><use transform="matrix(0.009114583333333334,0,0,0.009114583333333334,6.58984375,0)" xlink:href="#al"/><use transform="matrix(0.009114583333333334,0,0,0.009114583333333334,17.0625,0)" xlink:href="#am"/><use transform="matrix(0.009114583333333334,0,0,0.009114583333333334,34.42578125,0)" xlink:href="#ao"/><use transform="matrix(0.009114583333333334,0,0,0.009114583333333334,45.864583333333336,0)" xlink:href="#aj"/><use transform="matrix(0.009114583333333334,0,0,0.009114583333333334,57.13932291666667,0)" xlink:href="#ak"/></g><path d="M1016 0H201v-1462h815v151H371v471h606v150H371v538h645V0" id="aB"/><path d="M440-561L59-1096h189l289 420 288-420h187L631-561 1032 0H844L537-444 227 0H39" id="aC"/><g id="B"><use transform="matrix(0.009114583333333334,0,0,0.009114583333333334,0,0)" xlink:href="#aB"/><use transform="matrix(0.009114583333333334,0,0,0.009114583333333334,10.381510416666668,0)" xlink:href="#aC"/><use transform="matrix(0.009114583333333334,0,0,0.009114583333333334,19.78776041666667,0)" xlink:href="#aw"/><use transform="matrix(0.009114583333333334,0,0,0.009114583333333334,28.67447916666667,0)" xlink:href="#al"/><use transform="matrix(0.009114583333333334,0,0,0.009114583333333334,39.14713541666667,0)" xlink:href="#ao"/><use transform="matrix(0.009114583333333334,0,0,0.009114583333333334,50.5859375,0)" xlink:href="#at"/><use transform="matrix(0.009114583333333334,0,0,0.009114583333333334,57.17578125000001,0)" xlink:href="#al"/><use transform="matrix(0.009114583333333334,0,0,0.009114583333333334,67.6484375,0)" xlink:href="#aq"/><use transform="matrix(0.009114583333333334,0,0,0.009114583333333334,79.10546875,0)" xlink:href="#ak"/></g><g id="C"><use transform="matrix(0.009114583333333334,0,0,0.009114583333333334,0,0)" xlink:href="#ap"/><use transform="matrix(0.009114583333333334,0,0,0.009114583333333334,8.904947916666668,0)" xlink:href="#an"/><use transform="matrix(0.009114583333333334,0,0,0.009114583333333334,13.626302083333336,0)" xlink:href="#az"/><use transform="matrix(0.009114583333333334,0,0,0.009114583333333334,25.083333333333336,0)" xlink:href="#at"/></g><g id="D"><use transform="matrix(0.009114583333333334,0,0,0.009114583333333334,0,0)" xlink:href="#aj"/><use transform="matrix(0.009114583333333334,0,0,0.009114583333333334,11.274739583333334,0)" xlink:href="#aw"/><use transform="matrix(0.009114583333333334,0,0,0.009114583333333334,20.161458333333336,0)" xlink:href="#aw"/><use transform="matrix(0.009114583333333334,0,0,0.009114583333333334,29.048177083333336,0)" xlink:href="#au"/><use transform="matrix(0.009114583333333334,0,0,0.009114583333333334,39.4296875,0)" xlink:href="#al"/><use transform="matrix(0.009114583333333334,0,0,0.009114583333333334,49.90234375,0)" xlink:href="#aw"/><use transform="matrix(0.009114583333333334,0,0,0.009114583333333334,58.78906250000001,0)" xlink:href="#au"/><use transform="matrix(0.009114583333333334,0,0,0.009114583333333334,69.17057291666667,0)" xlink:href="#at"/></g><g id="E"><use transform="matrix(0.009114583333333334,0,0,0.009114583333333334,0,0)" xlink:href="#aw"/><use transform="matrix(0.009114583333333334,0,0,0.009114583333333334,8.88671875,0)" xlink:href="#aj"/><use transform="matrix(0.009114583333333334,0,0,0.009114583333333334,20.161458333333336,0)" xlink:href="#az"/><use transform="matrix(0.009114583333333334,0,0,0.009114583333333334,31.618489583333336,0)" xlink:href="#ap"/><use transform="matrix(0.009114583333333334,0,0,0.009114583333333334,40.5234375,0)" xlink:href="#al"/><use transform="matrix(0.009114583333333334,0,0,0.009114583333333334,50.99609375,0)" xlink:href="#aw"/><use transform="matrix(0.009114583333333334,0,0,0.009114583333333334,59.88281250000001,0)" xlink:href="#at"/><use transform="matrix(0.009114583333333334,0,0,0.009114583333333334,66.47265625,0)" xlink:href="#al"/><use transform="matrix(0.009114583333333334,0,0,0.009114583333333334,76.9453125,0)" xlink:href="#at"/><use transform="matrix(0.009114583333333334,0,0,0.009114583333333334,83.53515625,0)" xlink:href="#aq"/><use transform="matrix(0.009114583333333334,0,0,0.009114583333333334,94.9921875,0)" xlink:href="#ak"/></g><g id="F"><use transform="matrix(0.009114583333333334,0,0,0.009114583333333334,0,0)" xlink:href="#au"/><use transform="matrix(0.009114583333333334,0,0,0.009114583333333334,10.381510416666668,0)" xlink:href="#ar"/><use transform="matrix(0.009114583333333334,0,0,0.009114583333333334,21.8203125,0)" xlink:href="#an"/><use transform="matrix(0.009114583333333334,0,0,0.009114583333333334,26.541666666666668,0)" xlink:href="#ao"/><use transform="matrix(0.009114583333333334,0,0,0.009114583333333334,37.98046875,0)" xlink:href="#an"/><use transform="matrix(0.009114583333333334,0,0,0.009114583333333334,42.701822916666664,0)" xlink:href="#ap"/><use transform="matrix(0.009114583333333334,0,0,0.009114583333333334,51.60677083333333,0)" xlink:href="#aw"/><use transform="matrix(0.009114583333333334,0,0,0.009114583333333334,60.49348958333333,0)" xlink:href="#an"/><use transform="matrix(0.009114583333333334,0,0,0.009114583333333334,65.21484375,0)" xlink:href="#az"/><use transform="matrix(0.009114583333333334,0,0,0.009114583333333334,76.671875,0)" xlink:href="#ay"/></g><g id="G"><use transform="matrix(0.009114583333333334,0,0,0.009114583333333334,0,0)" xlink:href="#al"/><use transform="matrix(0.009114583333333334,0,0,0.009114583333333334,10.47265625,0)" xlink:href="#as"/><use transform="matrix(0.009114583333333334,0,0,0.009114583333333334,15.194010416666668,0)" xlink:href="#an"/><use transform="matrix(0.009114583333333334,0,0,0.009114583333333334,19.915364583333336,0)" xlink:href="#at"/></g><path d="M649-1462c450-4 719 268 719 717 0 484-276 748-762 745H201v-1462h448zM578-147c400 1 610-197 610-592 1-379-192-576-570-576H371v1168h207" id="aD"/><g id="H"><use transform="matrix(0.009114583333333334,0,0,0.009114583333333334,0,0)" xlink:href="#aD"/><use transform="matrix(0.009114583333333334,0,0,0.009114583333333334,13.608072916666668,0)" xlink:href="#aq"/><use transform="matrix(0.009114583333333334,0,0,0.009114583333333334,25.065104166666668,0)" xlink:href="#an"/><use transform="matrix(0.009114583333333334,0,0,0.009114583333333334,29.786458333333336,0)" xlink:href="#ap"/></g><g id="I"><use transform="matrix(0.009114583333333334,0,0,0.009114583333333334,0,0)" xlink:href="#au"/><use transform="matrix(0.009114583333333334,0,0,0.009114583333333334,10.381510416666668,0)" xlink:href="#aq"/><use transform="matrix(0.009114583333333334,0,0,0.009114583333333334,21.838541666666668,0)" xlink:href="#at"/><use transform="matrix(0.009114583333333334,0,0,0.009114583333333334,28.428385416666668,0)" xlink:href="#al"/></g><g id="J"><use transform="matrix(0.009114583333333334,0,0,0.009114583333333334,0,0)" xlink:href="#an"/><use transform="matrix(0.009114583333333334,0,0,0.009114583333333334,4.721354166666667,0)" xlink:href="#ak"/><use transform="matrix(0.009114583333333334,0,0,0.009114583333333334,12.341145833333334,0)" xlink:href="#aq"/><use transform="matrix(0.009114583333333334,0,0,0.009114583333333334,23.798177083333336,0)" xlink:href="#ak"/><use transform="matrix(0.009114583333333334,0,0,0.009114583333333334,31.044270833333336,0)" xlink:href="#al"/></g><g id="K"><use transform="matrix(0.009114583333333334,0,0,0.009114583333333334,0,0)" xlink:href="#ar"/><use transform="matrix(0.009114583333333334,0,0,0.009114583333333334,11.438802083333334,0)" xlink:href="#aj"/><use transform="matrix(0.009114583333333334,0,0,0.009114583333333334,22.713541666666668,0)" xlink:href="#as"/><use transform="matrix(0.009114583333333334,0,0,0.009114583333333334,27.434895833333336,0)" xlink:href="#aj"/><use transform="matrix(0.009114583333333334,0,0,0.009114583333333334,38.70963541666667,0)" xlink:href="#ak"/></g><g id="L"><use transform="matrix(0.009114583333333334,0,0,0.009114583333333334,0,0)" xlink:href="#an"/><use transform="matrix(0.009114583333333334,0,0,0.009114583333333334,4.721354166666667,0)" xlink:href="#az"/><use transform="matrix(0.009114583333333334,0,0,0.009114583333333334,16.178385416666668,0)" xlink:href="#aw"/><use transform="matrix(0.009114583333333334,0,0,0.009114583333333334,25.065104166666668,0)" xlink:href="#an"/><use transform="matrix(0.009114583333333334,0,0,0.009114583333333334,29.786458333333336,0)" xlink:href="#ar"/><use transform="matrix(0.009114583333333334,0,0,0.009114583333333334,41.22526041666667,0)" xlink:href="#an"/><use transform="matrix(0.009114583333333334,0,0,0.009114583333333334,45.946614583333336,0)" xlink:href="#ar"/><use transform="matrix(0.009114583333333334,0,0,0.009114583333333334,57.38541666666667,0)" xlink:href="#aq"/><use transform="matrix(0.009114583333333334,0,0,0.009114583333333334,68.84244791666667,0)" xlink:href="#az"/><use transform="matrix(0.009114583333333334,0,0,0.009114583333333334,80.29947916666667,0)" xlink:href="#at"/></g><g id="M"><use transform="matrix(0.009114583333333334,0,0,0.009114583333333334,0,0)" xlink:href="#aq"/><use transform="matrix(0.009114583333333334,0,0,0.009114583333333334,11.45703125,0)" xlink:href="#at"/></g><path d="M686 20c-159 0-273-61-344-161h-12L295 0H176v-1556h166c-2 198 6 423-8 606h8c77-109 192-164 344-164 310 0 455 234 455 565 0 329-147 569-455 569zm283-571c0-257-72-424-307-424-256 0-320 146-320 426s68 430 324 430c228 0 303-184 303-432" id="aE"/><g id="N"><use transform="matrix(0.009114583333333334,0,0,0.009114583333333334,0,0)" xlink:href="#as"/><use transform="matrix(0.009114583333333334,0,0,0.009114583333333334,4.721354166666667,0)" xlink:href="#au"/><use transform="matrix(0.009114583333333334,0,0,0.009114583333333334,15.102864583333336,0)" xlink:href="#aE"/><use transform="matrix(0.009114583333333334,0,0,0.009114583333333334,26.54166666666667,0)" xlink:href="#aj"/><use transform="matrix(0.009114583333333334,0,0,0.009114583333333334,37.816406250000014,0)" xlink:href="#ak"/><use transform="matrix(0.009114583333333334,0,0,0.009114583333333334,45.062500000000014,0)" xlink:href="#al"/></g><g id="O"><use transform="matrix(0.009114583333333334,0,0,0.009114583333333334,0,0)" xlink:href="#al"/><use transform="matrix(0.009114583333333334,0,0,0.009114583333333334,10.47265625,0)" xlink:href="#at"/></g><g id="P"><use transform="matrix(0.009114583333333334,0,0,0.009114583333333334,0,0)" xlink:href="#az"/><use transform="matrix(0.009114583333333334,0,0,0.009114583333333334,11.45703125,0)" xlink:href="#aj"/><use transform="matrix(0.009114583333333334,0,0,0.009114583333333334,22.731770833333336,0)" xlink:href="#az"/></g><g id="Q"><use transform="matrix(0.009114583333333334,0,0,0.009114583333333334,0,0)" xlink:href="#az"/><use transform="matrix(0.009114583333333334,0,0,0.009114583333333334,11.45703125,0)" xlink:href="#aq"/><use transform="matrix(0.009114583333333334,0,0,0.009114583333333334,22.9140625,0)" xlink:href="#am"/><use transform="matrix(0.009114583333333334,0,0,0.009114583333333334,40.27734375,0)" xlink:href="#aA"/><use transform="matrix(0.009114583333333334,0,0,0.009114583333333334,51.716145833333336,0)" xlink:href="#aq"/><use transform="matrix(0.009114583333333334,0,0,0.009114583333333334,63.173177083333336,0)" xlink:href="#au"/><use transform="matrix(0.009114583333333334,0,0,0.009114583333333334,73.5546875,0)" xlink:href="#am"/></g><g id="R"><use transform="matrix(0.009114583333333334,0,0,0.009114583333333334,0,0)" xlink:href="#al"/><use transform="matrix(0.009114583333333334,0,0,0.009114583333333334,10.47265625,0)" xlink:href="#an"/><use transform="matrix(0.009114583333333334,0,0,0.009114583333333334,15.194010416666668,0)" xlink:href="#aq"/><use transform="matrix(0.009114583333333334,0,0,0.009114583333333334,26.651041666666668,0)" xlink:href="#ap"/></g><g id="S"><use transform="matrix(0.009114583333333334,0,0,0.009114583333333334,0,0)" xlink:href="#am"/><use transform="matrix(0.009114583333333334,0,0,0.009114583333333334,17.36328125,0)" xlink:href="#aj"/><use transform="matrix(0.009114583333333334,0,0,0.009114583333333334,28.638020833333336,0)" xlink:href="#ar"/><use transform="matrix(0.009114583333333334,0,0,0.009114583333333334,40.07682291666667,0)" xlink:href="#an"/></g><g id="T"><use transform="matrix(0.009114583333333334,0,0,0.009114583333333334,0,0)" xlink:href="#at"/><use transform="matrix(0.009114583333333334,0,0,0.009114583333333334,6.58984375,0)" xlink:href="#al"/><use transform="matrix(0.009114583333333334,0,0,0.009114583333333334,17.0625,0)" xlink:href="#am"/><use transform="matrix(0.009114583333333334,0,0,0.009114583333333334,34.42578125,0)" xlink:href="#ao"/><use transform="matrix(0.009114583333333334,0,0,0.009114583333333334,45.864583333333336,0)" xlink:href="#aj"/><use transform="matrix(0.009114583333333334,0,0,0.009114583333333334,57.13932291666667,0)" xlink:href="#ak"/><use transform="matrix(0.009114583333333334,0,0,0.009114583333333334,64.38541666666667,0)" xlink:href="#au"/></g><g id="U"><use transform="matrix(0.009114583333333334,0,0,0.009114583333333334,0,0)" xlink:href="#an"/><use transform="matrix(0.009114583333333334,0,0,0.009114583333333334,4.721354166666667,0)" xlink:href="#az"/><use transform="matrix(0.009114583333333334,0,0,0.009114583333333334,16.178385416666668,0)" xlink:href="#aw"/><use transform="matrix(0.009114583333333334,0,0,0.009114583333333334,25.065104166666668,0)" xlink:href="#an"/><use transform="matrix(0.009114583333333334,0,0,0.009114583333333334,29.786458333333336,0)" xlink:href="#ar"/><use transform="matrix(0.009114583333333334,0,0,0.009114583333333334,41.22526041666667,0)" xlink:href="#aq"/><use transform="matrix(0.009114583333333334,0,0,0.009114583333333334,52.68229166666667,0)" xlink:href="#az"/><use transform="matrix(0.009114583333333334,0,0,0.009114583333333334,64.13932291666667,0)" xlink:href="#at"/></g><path d="M63 264c30-115 88-378 105-502h182l15 23C327-69 250 132 188 264H63" id="aF"/><g id="V"><use transform="matrix(0.009114583333333334,0,0,0.009114583333333334,0,0)" xlink:href="#aw"/><use transform="matrix(0.009114583333333334,0,0,0.009114583333333334,8.88671875,0)" xlink:href="#aj"/><use transform="matrix(0.009114583333333334,0,0,0.009114583333333334,20.161458333333336,0)" xlink:href="#az"/><use transform="matrix(0.009114583333333334,0,0,0.009114583333333334,31.618489583333336,0)" xlink:href="#ap"/><use transform="matrix(0.009114583333333334,0,0,0.009114583333333334,40.5234375,0)" xlink:href="#al"/><use transform="matrix(0.009114583333333334,0,0,0.009114583333333334,50.99609375,0)" xlink:href="#aw"/><use transform="matrix(0.009114583333333334,0,0,0.009114583333333334,59.88281250000001,0)" xlink:href="#at"/><use transform="matrix(0.009114583333333334,0,0,0.009114583333333334,66.47265625,0)" xlink:href="#al"/><use transform="matrix(0.009114583333333334,0,0,0.009114583333333334,76.9453125,0)" xlink:href="#at"/><use transform="matrix(0.009114583333333334,0,0,0.009114583333333334,83.53515625,0)" xlink:href="#aq"/><use transform="matrix(0.009114583333333334,0,0,0.009114583333333334,94.9921875,0)" xlink:href="#ak"/><use transform="matrix(0.009114583333333334,0,0,0.009114583333333334,102.61197916666667,0)" xlink:href="#aF"/></g><g id="W"><use transform="matrix(0.009114583333333334,0,0,0.009114583333333334,0,0)" xlink:href="#au"/><use transform="matrix(0.009114583333333334,0,0,0.009114583333333334,10.381510416666668,0)" xlink:href="#ar"/><use transform="matrix(0.009114583333333334,0,0,0.009114583333333334,21.8203125,0)" xlink:href="#an"/><use transform="matrix(0.009114583333333334,0,0,0.009114583333333334,26.541666666666668,0)" xlink:href="#ao"/><use transform="matrix(0.009114583333333334,0,0,0.009114583333333334,37.98046875,0)" xlink:href="#an"/><use transform="matrix(0.009114583333333334,0,0,0.009114583333333334,42.701822916666664,0)" xlink:href="#ap"/><use transform="matrix(0.009114583333333334,0,0,0.009114583333333334,51.60677083333333,0)" xlink:href="#aw"/><use transform="matrix(0.009114583333333334,0,0,0.009114583333333334,60.49348958333333,0)" xlink:href="#an"/></g><g id="X"><use transform="matrix(0.009114583333333334,0,0,0.009114583333333334,0,0)" xlink:href="#av"/><use transform="matrix(0.009114583333333334,0,0,0.009114583333333334,9.3515625,0)" xlink:href="#al"/><use transform="matrix(0.009114583333333334,0,0,0.009114583333333334,19.82421875,0)" xlink:href="#as"/><use transform="matrix(0.009114583333333334,0,0,0.009114583333333334,24.545572916666668,0)" xlink:href="#an"/><use transform="matrix(0.009114583333333334,0,0,0.009114583333333334,29.266927083333336,0)" xlink:href="#at"/><use transform="matrix(0.009114583333333334,0,0,0.009114583333333334,35.856770833333336,0)" xlink:href="#aF"/></g><g id="Y"><use transform="matrix(0.009114583333333334,0,0,0.009114583333333334,0,0)" xlink:href="#ap"/><use transform="matrix(0.009114583333333334,0,0,0.009114583333333334,8.904947916666668,0)" xlink:href="#al"/><use transform="matrix(0.009114583333333334,0,0,0.009114583333333334,19.377604166666668,0)" xlink:href="#ar"/></g><g id="Z"><use transform="matrix(0.009114583333333334,0,0,0.009114583333333334,0,0)" xlink:href="#aA"/><use transform="matrix(0.009114583333333334,0,0,0.009114583333333334,11.438802083333334,0)" xlink:href="#aq"/><use transform="matrix(0.009114583333333334,0,0,0.009114583333333334,22.895833333333336,0)" xlink:href="#an"/><use transform="matrix(0.009114583333333334,0,0,0.009114583333333334,27.6171875,0)" xlink:href="#au"/></g><g id="aa"><use transform="matrix(0.009114583333333334,0,0,0.009114583333333334,0,0)" xlink:href="#az"/><use transform="matrix(0.009114583333333334,0,0,0.009114583333333334,11.45703125,0)" xlink:href="#an"/><use transform="matrix(0.009114583333333334,0,0,0.009114583333333334,16.178385416666668,0)" xlink:href="#ap"/><use transform="matrix(0.009114583333333334,0,0,0.009114583333333334,25.083333333333336,0)" xlink:href="#an"/></g><g id="ab"><use transform="matrix(0.009114583333333334,0,0,0.009114583333333334,0,0)" xlink:href="#aq"/><use transform="matrix(0.009114583333333334,0,0,0.009114583333333334,11.45703125,0)" xlink:href="#at"/></g><g id="ac"><use transform="matrix(0.009114583333333334,0,0,0.009114583333333334,0,0)" xlink:href="#au"/><use transform="matrix(0.009114583333333334,0,0,0.009114583333333334,10.381510416666668,0)" xlink:href="#as"/><use transform="matrix(0.009114583333333334,0,0,0.009114583333333334,15.102864583333336,0)" xlink:href="#an"/><use transform="matrix(0.009114583333333334,0,0,0.009114583333333334,19.824218750000007,0)" xlink:href="#aA"/><use transform="matrix(0.009114583333333334,0,0,0.009114583333333334,31.263020833333336,0)" xlink:href="#aq"/><use transform="matrix(0.009114583333333334,0,0,0.009114583333333334,42.720052083333336,0)" xlink:href="#an"/><use transform="matrix(0.009114583333333334,0,0,0.009114583333333334,47.44140625,0)" xlink:href="#ar"/></g><g id="ad"><use transform="matrix(0.009114583333333334,0,0,0.009114583333333334,0,0)" xlink:href="#al"/><use transform="matrix(0.009114583333333334,0,0,0.009114583333333334,10.098958333333334,0)" xlink:href="#aC"/></g><g id="ae"><use transform="matrix(0.009114583333333334,0,0,0.009114583333333334,0,0)" xlink:href="#al"/><use transform="matrix(0.009114583333333334,0,0,0.009114583333333334,10.47265625,0)" xlink:href="#au"/></g><g id="af"><use transform="matrix(0.009114583333333334,0,0,0.009114583333333334,0,0)" xlink:href="#aw"/><use transform="matrix(0.009114583333333334,0,0,0.009114583333333334,8.88671875,0)" xlink:href="#aj"/><use transform="matrix(0.009114583333333334,0,0,0.009114583333333334,20.161458333333336,0)" xlink:href="#am"/><use transform="matrix(0.009114583333333334,0,0,0.009114583333333334,37.524739583333336,0)" xlink:href="#am"/><use transform="matrix(0.009114583333333334,0,0,0.009114583333333334,54.888020833333336,0)" xlink:href="#aj"/><use transform="matrix(0.009114583333333334,0,0,0.009114583333333334,66.16276041666667,0)" xlink:href="#ar"/><use transform="matrix(0.009114583333333334,0,0,0.009114583333333334,77.6015625,0)" xlink:href="#an"/></g><g id="ag"><use transform="matrix(0.009114583333333334,0,0,0.009114583333333334,0,0)" xlink:href="#aw"/><use transform="matrix(0.009114583333333334,0,0,0.009114583333333334,8.88671875,0)" xlink:href="#aj"/><use transform="matrix(0.009114583333333334,0,0,0.009114583333333334,20.161458333333336,0)" xlink:href="#az"/><use transform="matrix(0.009114583333333334,0,0,0.009114583333333334,31.618489583333336,0)" xlink:href="#ap"/><use transform="matrix(0.009114583333333334,0,0,0.009114583333333334,40.5234375,0)" xlink:href="#al"/><use transform="matrix(0.009114583333333334,0,0,0.009114583333333334,50.99609375,0)" xlink:href="#aA"/><use transform="matrix(0.009114583333333334,0,0,0.009114583333333334,62.434895833333336,0)" xlink:href="#aq"/><use transform="matrix(0.009114583333333334,0,0,0.009114583333333334,73.89192708333334,0)" xlink:href="#au"/><use transform="matrix(0.009114583333333334,0,0,0.009114583333333334,84.27343750000003,0)" xlink:href="#at"/><use transform="matrix(0.009114583333333334,0,0,0.009114583333333334,90.86328125000003,0)" xlink:href="#aq"/><use transform="matrix(0.009114583333333334,0,0,0.009114583333333334,102.3203125,0)" xlink:href="#ak"/></g><g id="ah"><use transform="matrix(0.009114583333333334,0,0,0.009114583333333334,0,0)" xlink:href="#ar"/><use transform="matrix(0.009114583333333334,0,0,0.009114583333333334,11.438802083333334,0)" xlink:href="#aj"/><use transform="matrix(0.009114583333333334,0,0,0.009114583333333334,22.713541666666668,0)" xlink:href="#as"/><use transform="matrix(0.009114583333333334,0,0,0.009114583333333334,27.434895833333336,0)" xlink:href="#aj"/><use transform="matrix(0.009114583333333334,0,0,0.009114583333333334,38.70963541666667,0)" xlink:href="#ak"/></g></defs></g></svg>