<svg xmlns="http://www.w3.org/2000/svg" xmlns:xlink="http://www.w3.org/1999/xlink" xmlns:lucid="lucid" width="2862.97" height="1438.78"><g transform="translate(302.969696969697 161.65909090909076)" lucid:page-tab-id="gstW_2uHZmHd"><path d="M1840-106.4c0-3.32 2.7-6 6-6h148c3.3 0 6 2.68 6 6v108c0 3.3-2.7 6-6 6h-148c-3.3 0-6-2.7-6-6z" stroke="#de5f85" stroke-width="3" fill="#f5b5c8"/><use xlink:href="#a" transform="matrix(1,0,0,1,1845,-107.40909090909076) translate(17.610026041666657 50.88932291666667)"/><use xlink:href="#b" transform="matrix(1,0,0,1,1845,-107.40909090909076) translate(78.50455729166666 50.88932291666667)"/><use xlink:href="#c" transform="matrix(1,0,0,1,1845,-107.40909090909076) translate(14.474609374999993 76.30989583333334)"/><use xlink:href="#d" transform="matrix(1,0,0,1,1845,-107.40909090909076) translate(65.65299479166666 76.30989583333334)"/><use xlink:href="#e" transform="matrix(1,0,0,1,1845,-107.40909090909076) translate(90.71809895833334 76.30989583333334)"/><path d="M1440-6.4c0-3.32 2.7-6 6-6h148c3.3 0 6 2.68 6 6v108c0 3.3-2.7 6-6 6h-148c-3.3 0-6-2.7-6-6z" stroke="#19967d" stroke-width="3" fill="#5abaa7"/><use xlink:href="#f" transform="matrix(1,0,0,1,1445,-7.409090909090764) translate(6.909505208333329 50.88932291666667)"/><use xlink:href="#g" transform="matrix(1,0,0,1,1445,-7.409090909090764) translate(47.615234375 50.88932291666667)"/><use xlink:href="#h" transform="matrix(1,0,0,1,1445,-7.409090909090764) translate(91.21940104166667 50.88932291666667)"/><use xlink:href="#i" transform="matrix(1,0,0,1,1445,-7.409090909090764) translate(6.12109375 76.30989583333334)"/><use xlink:href="#j" transform="matrix(1,0,0,1,1445,-7.409090909090764) translate(67.3984375 76.30989583333334)"/><use xlink:href="#k" transform="matrix(1,0,0,1,1445,-7.409090909090764) translate(94.17708333333334 76.30989583333334)"/><path d="M1260 153.6c0-3.32 2.7-6 6-6h148c3.3 0 6 2.68 6 6v108c0 3.3-2.7 6-6 6h-148c-3.3 0-6-2.7-6-6z" stroke="#0c7cba" stroke-width="3" fill="#83bbe5"/><use xlink:href="#l" transform="matrix(1,0,0,1,1265,152.59090909090924) translate(0.7617187499999858 50.88932291666667)"/><use xlink:href="#m" transform="matrix(1,0,0,1,1265,152.59090909090924) translate(104.41276041666667 50.88932291666667)"/><use xlink:href="#n" transform="matrix(1,0,0,1,1265,152.59090909090924) translate(3.550781249999986 76.30989583333334)"/><use xlink:href="#o" transform="matrix(1,0,0,1,1265,152.59090909090924) translate(62.12109374999999 76.30989583333334)"/><use xlink:href="#p" transform="matrix(1,0,0,1,1265,152.59090909090924) translate(97.65885416666667 76.30989583333334)"/><path d="M1540.8-50.9h-14.6l-2.45.65-1.6 1.6-.65 2.44v11.67h-3V-46.6l.98-3.62 2.7-2.7 3.62-1h15zm296.2 0h-14.8v-3h14.8zm-85.25 0h-18.42v-3h18.42zm-33.23 0h-29.62v-3h29.62zm-44.42 0h-29.62v-3h29.62zm-44.43 0h-29.62v-3h29.62zm-44.43 0h-29.62v-3h29.62z" stroke="#b2b2b2" stroke-width=".05" fill="#b2b2b2"/><path d="M1838.5-50.9h-1.54v-3h1.54z" fill="#b2b2b2"/><path d="M1838.53-50.88h-1.6v-3.05h1.6zm-1.54-3v2.95h1.47v-2.95z" stroke="#b2b2b2" stroke-width=".05" fill="#b2b2b2"/><path d="M1520-18.76l-4.64-14.27h9.28z" fill="#b2b2b2"/><path d="M1520-13.9l-6.7-20.63h13.4zm-2.57-17.63l2.57 7.9 2.57-7.9z" stroke="#b2b2b2" stroke-width=".05" fill="#b2b2b2"/><use xlink:href="#q" transform="matrix(1,0,0,1,1751.7521306313643,-65.1193773674241) translate(0 19.951822916666668)"/><path d="M1341.5 125.47h-3V113.5h3zm0-23.96h-3V90.25h3zm19.67-52.4h-14.97l-2.45.65-1.6 1.6-.65 2.44V64.8h-3V53.4l.98-3.62 2.7-2.7 3.62-1h15.37zm75.83 0h-15.17v-3H1437zm-30.33 0h-30.34v-3h30.34z" stroke="#b2b2b2" stroke-width=".05" fill="#b2b2b2"/><path d="M1438.5 49.1h-1.54v-3h1.54z" fill="#b2b2b2"/><path d="M1438.53 49.12h-1.6v-3.05h1.6zm-1.54-3v2.95h1.47v-2.95z" stroke="#b2b2b2" stroke-width=".05" fill="#b2b2b2"/><path d="M1340 141.24l-4.64-14.27h9.28z" fill="#b2b2b2"/><path d="M1340 146.1l-6.7-20.63h13.4zm-2.57-17.63l2.57 7.9 2.57-7.9z" stroke="#b2b2b2" stroke-width=".05" fill="#b2b2b2"/><use xlink:href="#r" transform="matrix(1,0,0,1,1313.0572916666667,64.82426731388561) translate(0 19.951822916666668)"/><path d="M2260 593.6c0-3.32 2.7-6 6-6h148c3.3 0 6 2.68 6 6v108c0 3.3-2.7 6-6 6h-148c-3.3 0-6-2.7-6-6z" stroke="#de5f85" stroke-width="3" fill="#f5b5c8"/><use xlink:href="#s" transform="matrix(1,0,0,1,2265,592.5909090909092) translate(3.181640625 50.88932291666667)"/><use xlink:href="#t" transform="matrix(1,0,0,1,2265,592.5909090909092) translate(46.43945312500001 50.88932291666667)"/><use xlink:href="#u" transform="matrix(1,0,0,1,2265,592.5909090909092) translate(67.466796875 50.88932291666667)"/><use xlink:href="#v" transform="matrix(1,0,0,1,2265,592.5909090909092) translate(119.201171875 50.88932291666667)"/><use xlink:href="#w" transform="matrix(1,0,0,1,2265,592.5909090909092) translate(48.681640625 76.30989583333334)"/><path d="M1640 453.6c0-3.32 2.7-6 6-6h148c3.3 0 6 2.68 6 6v108c0 3.3-2.7 6-6 6h-148c-3.3 0-6-2.7-6-6z" stroke="#de5f85" stroke-width="3" fill="#f5b5c8"/><use xlink:href="#x" transform="matrix(1,0,0,1,1645,452.59090909090924) translate(5.569661458333329 50.88932291666667)"/><use xlink:href="#y" transform="matrix(1,0,0,1,1645,452.59090909090924) translate(41.235026041666664 50.88932291666667)"/><use xlink:href="#z" transform="matrix(1,0,0,1,1645,452.59090909090924) translate(68.79752604166666 50.88932291666667)"/><use xlink:href="#A" transform="matrix(1,0,0,1,1645,452.59090909090924) translate(42.62044270833333 76.30989583333334)"/><path d="M1760 653.6c0-3.32 2.7-6 6-6h148c3.3 0 6 2.68 6 6v108c0 3.3-2.7 6-6 6h-148c-3.3 0-6-2.7-6-6z" stroke="#19967d" stroke-width="3" fill="#5abaa7"/><use xlink:href="#B" transform="matrix(1,0,0,1,1765,652.5909090909092) translate(13.376302083333329 50.88932291666667)"/><use xlink:href="#C" transform="matrix(1,0,0,1,1765,652.5909090909092) translate(104.95052083333333 50.88932291666667)"/><use xlink:href="#D" transform="matrix(1,0,0,1,1765,652.5909090909092) translate(37.119791666666664 76.30989583333334)"/><path d="M1460 633.6c0-3.32 2.7-6 6-6h148c3.3 0 6 2.68 6 6v108c0 3.3-2.7 6-6 6h-148c-3.3 0-6-2.7-6-6z" stroke="#ef8d22" stroke-width="3" fill="#ffc374"/><use xlink:href="#E" transform="matrix(1,0,0,1,1465,632.5909090909092) translate(23.694010416666664 50.88932291666667)"/><use xlink:href="#F" transform="matrix(1,0,0,1,1465,632.5909090909092) translate(15.873697916666671 76.30989583333334)"/><use xlink:href="#G" transform="matrix(1,0,0,1,1465,632.5909090909092) translate(107.62109375 76.30989583333334)"/><path d="M2380 173.6c0-3.32 2.7-6 6-6h148c3.3 0 6 2.68 6 6v108c0 3.3-2.7 6-6 6h-148c-3.3 0-6-2.7-6-6z" stroke="#19967d" stroke-width="3" fill="#5abaa7"/><use xlink:href="#H" transform="matrix(1,0,0,1,2385,172.59090909090924) translate(10.596354166666657 50.88932291666667)"/><use xlink:href="#I" transform="matrix(1,0,0,1,2385,172.59090909090924) translate(54.13671874999999 50.88932291666667)"/><use xlink:href="#J" transform="matrix(1,0,0,1,2385,172.59090909090924) translate(97.88671875 50.88932291666667)"/><use xlink:href="#K" transform="matrix(1,0,0,1,2385,172.59090909090924) translate(51.83528645833333 76.30989583333334)"/><path d="M1960 153.6c0-3.32 2.7-6 6-6h148c3.3 0 6 2.68 6 6v108c0 3.3-2.7 6-6 6h-148c-3.3 0-6-2.7-6-6z" stroke="#ef8d22" stroke-width="3" fill="#ffc374"/><use xlink:href="#L" transform="matrix(1,0,0,1,1965,152.59090909090924) translate(20.107421875 50.88932291666667)"/><use xlink:href="#M" transform="matrix(1,0,0,1,1965,152.59090909090924) translate(111.845703125 50.88932291666667)"/><use xlink:href="#N" transform="matrix(1,0,0,1,1965,152.59090909090924) translate(36.27669270833333 76.30989583333334)"/><use xlink:href="#O" transform="matrix(1,0,0,1,1965,152.59090909090924) translate(96.66080729166667 76.30989583333334)"/><path d="M2040 613.6c0-3.32 2.7-6 6-6h148c3.3 0 6 2.68 6 6v108c0 3.3-2.7 6-6 6h-148c-3.3 0-6-2.7-6-6z" stroke="#0c7cba" stroke-width="3" fill="#83bbe5"/><use xlink:href="#P" transform="matrix(1,0,0,1,2045,612.5909090909092) translate(10.022135416666657 23.389322916666668)"/><use xlink:href="#Q" transform="matrix(1,0,0,1,2045,612.5909090909092) translate(49.05989583333333 23.389322916666668)"/><use xlink:href="#R" transform="matrix(1,0,0,1,2045,612.5909090909092) translate(32.3984375 48.809895833333336)"/><use xlink:href="#S" transform="matrix(1,0,0,1,2045,612.5909090909092) translate(72.80338541666667 48.809895833333336)"/><use xlink:href="#T" transform="matrix(1,0,0,1,2045,612.5909090909092) translate(37.61653645833333 74.23046875)"/><use xlink:href="#U" transform="matrix(1,0,0,1,2045,612.5909090909092) translate(39.635416666666664 99.65104166666667)"/><path d="M1520 293.6c0-3.32 2.7-6 6-6h148c3.3 0 6 2.68 6 6v108c0 3.3-2.7 6-6 6h-148c-3.3 0-6-2.7-6-6z" stroke="#0c7cba" stroke-width="3" fill="#83bbe5"/><use xlink:href="#V" transform="matrix(1,0,0,1,1525,292.59090909090924) translate(21.40625 37.13932291666667)"/><use xlink:href="#W" transform="matrix(1,0,0,1,1525,292.59090909090924) translate(1.9192708333333286 62.55989583333334)"/><use xlink:href="#X" transform="matrix(1,0,0,1,1525,292.59090909090924) translate(71.98307291666666 62.55989583333334)"/><use xlink:href="#Y" transform="matrix(1,0,0,1,1525,292.59090909090924) translate(117.26432291666667 62.55989583333334)"/><use xlink:href="#Z" transform="matrix(1,0,0,1,1525,292.59090909090924) translate(56.000651041666664 87.98046875000001)"/><path d="M2020 353.6c0-3.32 2.7-6 6-6h148c3.3 0 6 2.68 6 6v108c0 3.3-2.7 6-6 6h-148c-3.3 0-6-2.7-6-6z" stroke="#0c7cba" stroke-width="3" fill="#83bbe5"/><use xlink:href="#aa" transform="matrix(1,0,0,1,2025,352.59090909090924) translate(4.421223958333329 37.13932291666667)"/><use xlink:href="#ab" transform="matrix(1,0,0,1,2025,352.59090909090924) translate(39.074869791666664 37.13932291666667)"/><use xlink:href="#ac" transform="matrix(1,0,0,1,2025,352.59090909090924) translate(61.970703125 37.13932291666667)"/><use xlink:href="#ad" transform="matrix(1,0,0,1,2025,352.59090909090924) translate(125.69986979166667 37.13932291666667)"/><use xlink:href="#ae" transform="matrix(1,0,0,1,2025,352.59090909090924) translate(20.986979166666664 62.55989583333334)"/><use xlink:href="#af" transform="matrix(1,0,0,1,2025,352.59090909090924) translate(46.690104166666664 62.55989583333334)"/><use xlink:href="#ag" transform="matrix(1,0,0,1,2025,352.59090909090924) translate(20.029947916666657 87.98046875000001)"/><path d="M1541.5 605.47h-3v-15.3h3zm0-30.63h-3v-30.62h3zm95.5-65.75h-15.17v-3H1637zm-30.33 0h-30.34v-3h30.34z" stroke="#b2b2b2" stroke-width=".05" fill="#b2b2b2"/><path d="M1638.5 509.1h-1.54v-3h1.54z" fill="#b2b2b2"/><path d="M1638.53 509.12h-1.6v-3.05h1.6zm-1.54-3v2.95h1.47v-2.95z" stroke="#b2b2b2" stroke-width=".05" fill="#b2b2b2"/><path d="M1540 621.24l-4.64-14.27h9.28z" fill="#b2b2b2"/><path d="M1540 626.1l-6.7-20.63h13.4zm-2.57-17.63l2.57 7.9 2.57-7.9z" stroke="#b2b2b2" stroke-width=".05" fill="#b2b2b2"/><use xlink:href="#ah" transform="matrix(1,0,0,1,1516.8352864583333,504.8806226325759) translate(0 19.951822916666668)"/><path d="M1721.5 444.6h-3v-15.84h3zm0-31.68h-3v-31.66h3zm0-47.5h-3v-31.66h3zm0-47.5h-3v-31.66h3zm0-47.5h-3v-31.66h3zm0-47.5h-3v-31.66h3zm0-47.5h-3v-31.66h3zm0-47.5h-3v-9.12h3zm316.3-22.35l2.72 2.7.98 3.62v13.57h-3V112.3l-.66-2.46-1.6-1.6-2.44-.65h-14.47v-3h14.87zm-209.13 2.02h-29.34v-3h29.34zm44 0h-29.34v-3h29.34zm44 0h-29.34v-3h29.34zm44 0h-29.34v-3h29.34zm44 0h-29.34v-3h29.34zm-220 0h-26.65v-3h26.65z" stroke="#b2b2b2" stroke-width=".05" fill="#b2b2b2"/><path d="M1721.5 446.1h-3v-1.55h3z" fill="#b2b2b2"/><path d="M1721.53 446.12h-3.06v-1.6h3.06zm-3-1.54v1.5h2.94v-1.5z" stroke="#b2b2b2" stroke-width=".05" fill="#b2b2b2"/><path d="M2040 141.24l-4.64-14.27h9.28z" fill="#b2b2b2"/><path d="M2040 146.1l-6.7-20.63h13.4zm-2.57-17.63l2.57 7.9 2.57-7.9z" stroke="#b2b2b2" stroke-width=".05" fill="#b2b2b2"/><use xlink:href="#q" transform="matrix(1,0,0,1,1701.9772135416667,93.3806226325759) translate(0 19.951822916666668)"/><path d="M1457 689.1h-11.83v-3H1457zm-23.67 0h-23.66v-3h23.66zm-51.83-7.7l.66 2.44 1.6 1.6 2.44.65h11.63v3h-12.03l-3.6-.98-2.72-2.72-.98-3.6v-15.83h3zm0-31.05h-3V619.1h3zm0-46.85h-3v-31.24h3zm0-46.86h-3V525.4h3zm0-46.86h-3v-31.24h3zm0-66.92h-3V431.7h3zm0-26.8h-3v-31.23h3zm23.15-66.97h-18.45l-2.45.65-1.6 1.6-.65 2.44v15.4h-3v-15.8l.98-3.62 2.7-2.7 3.62-1h18.85zm55.94 0h-37.3v-3h37.3zm37.28 0h-18.65v-3h18.65z" stroke="#b2b2b2" stroke-width=".05" fill="#b2b2b2"/><path d="M1458.5 689.1h-1.54v-3h1.54z" fill="#b2b2b2"/><path d="M1458.53 689.12h-1.6v-3.05h1.6zm-1.54-3v2.95h1.47v-2.95z" stroke="#b2b2b2" stroke-width=".05" fill="#b2b2b2"/><path d="M1513.65 347.6l-14.27 4.63v-9.27z" fill="#b2b2b2"/><path d="M1518.5 347.6l-20.62 6.7v-13.4zm-17.62 2.56l7.9-2.57-7.9-2.58z" stroke="#b2b2b2" stroke-width=".05" fill="#b2b2b2"/><use xlink:href="#r" transform="matrix(1,0,0,1,1353.0572916666667,442.8648319109485) translate(0 19.951822916666668)"/><path d="M1601.5 265.47h-3v-20.63h3zm-3.7-68.4l2.72 2.7.98 3.62v20.82h-3V203.8l-.66-2.46-1.6-1.6-2.44-.65h-11.13v-3h11.53zm-26.47 2.02h-13.92v-3h13.93zm-49.83-14.22h-3v-6.8h3zm0-20.3h-3v-27h3zm0-40.5h-3v-13.5h3z" stroke="#b2b2b2" stroke-width=".05" fill="#b2b2b2"/><path d="M1521.5 110.63h-3v-1.54h3z" fill="#b2b2b2"/><path d="M1521.53 110.65h-3.06v-1.58h3.06zm-3-1.53v1.48h2.94v-1.48z" stroke="#b2b2b2" stroke-width=".05" fill="#b2b2b2"/><path d="M1600 281.24l-4.64-14.27h9.28z" fill="#b2b2b2"/><path d="M1600 286.1l-6.7-20.63h13.4zm-2.57-17.63l2.57 7.9 2.57-7.9z" stroke="#b2b2b2" stroke-width=".05" fill="#b2b2b2"/><use xlink:href="#q" transform="matrix(1,0,0,1,1501.3608555981464,184.8806226325759) translate(0 19.951822916666668)"/><path d="M1841.5 625.47h-3v-15.25h3zm0-30.5h-3v-30.52h3zm0-45.77h-3v-30.5h3zm0-45.77h-3v-30.5h3zm0-45.76h-3v-30.5h3zm0-45.77h-3v-30.5h3zm0-57.02h-3v-19.25h3zm0-34.5h-3v-30.52h3zm0-45.77h-3v-30.5h3zm23-65.5h-18.3l-2.45.65-1.6 1.6-.65 2.44v15.05h-3V213.4l.98-3.62 2.7-2.7 3.62-1h18.7zm92.5 0h-18.5v-3h18.5zm-37 0h-37v-3h37z" stroke="#b2b2b2" stroke-width=".05" fill="#b2b2b2"/><path d="M1958.5 209.1h-1.54v-3h1.54z" fill="#b2b2b2"/><path d="M1958.53 209.12h-1.6v-3.05h1.6zm-1.54-3v2.95h1.47v-2.95z" stroke="#b2b2b2" stroke-width=".05" fill="#b2b2b2"/><path d="M1840 641.24l-4.64-14.27h9.28z" fill="#b2b2b2"/><path d="M1840 646.1l-6.7-20.63h13.4zm-2.57-17.63l2.57 7.9 2.57-7.9z" stroke="#b2b2b2" stroke-width=".05" fill="#b2b2b2"/><use xlink:href="#q" transform="matrix(1,0,0,1,1811.9772135416667,354.8806226325759) translate(0 19.951822916666668)"/><path d="M1541.5 782.9l.66 2.44 1.6 1.6 2.44.65h13.67v3h-14.07l-3.6-.98-2.72-2.72-.98-3.6v-11.04h3zm51.4 7.7h-19.15v-3h19.14zm91.85 0H1657v-3h27.75zm35.25-7.3l-.98 3.6-2.7 2.72-3.62.97h-14.08v-3h13.68l2.45-.67 1.6-1.6.65-2.44v-11.4h3zm-178.5-21.88h-3V750.6h3zm178.5-1.5h-3v-23.16h3zm17.88-50.83h-13.18l-2.45.65-1.6 1.6-.65 2.44v11.37h-3V713.4l.98-3.62 2.7-2.7 3.62-1h13.58z" stroke="#b2b2b2" stroke-width=".05" fill="#b2b2b2"/><path d="M1541.5 750.63h-3v-1.54h3z" fill="#b2b2b2"/><path d="M1541.53 750.65h-3.06v-1.58h3.06zm-3-1.53v1.48h2.94v-1.48z" stroke="#b2b2b2" stroke-width=".05" fill="#b2b2b2"/><path d="M1753.65 707.6l-14.27 4.63v-9.27z" fill="#b2b2b2"/><path d="M1758.5 707.6l-20.62 6.7v-13.4zm-17.62 2.56l7.9-2.57-7.9-2.58z" stroke="#b2b2b2" stroke-width=".05" fill="#b2b2b2"/><use xlink:href="#r" transform="matrix(1,0,0,1,1592.8867279495178,776.3806226325759) translate(0 19.951822916666668)"/><path d="M1841.5 802.9l.66 2.44 1.6 1.6 2.44.65h14.7v3h-15.1l-3.6-.98-2.72-2.72-.98-3.6v-11.04h3zm64.06 7.7h-29.78v-3h29.78zm44.66 0h-29.78v-3h29.78zm26.62 0h-11.73v-3h11.74zm107.38 0h-29.78v-3h29.78zm37.28-7.3l-.98 3.6-2.7 2.72-3.62.97h-15.1v-3h14.7l2.45-.67 1.6-1.6.65-2.44v-17.6h3zm-81.94 7.3h-16.4v-3h16.4zM1841.5 781.4h-3V770.6h3zm280-13.92h-3v-17.8h3z" stroke="#b2b2b2" stroke-width=".05" fill="#b2b2b2"/><path d="M1841.5 770.63h-3v-1.54h3z" fill="#b2b2b2"/><path d="M1841.53 770.65h-3.06v-1.58h3.06zm-3-1.53v1.48h2.94v-1.48z" stroke="#b2b2b2" stroke-width=".05" fill="#b2b2b2"/><path d="M2124.64 748.2h-9.28l4.64-14.25z" fill="#b2b2b2"/><path d="M2126.7 749.7h-13.4l6.7-20.6zm-9.27-3h5.14l-2.57-7.9z" stroke="#b2b2b2" stroke-width=".05" fill="#b2b2b2"/><use xlink:href="#ah" transform="matrix(1,0,0,1,1976.8352864583333,796.3806226325759) translate(0 19.951822916666668)"/><path d="M2341.5 584.6h-3V568.9h3zm0-31.34h-3v-31.34h3zm0-47h-3v-31.34h3zm22.5-67.17h-17.8l-2.45.65-1.6 1.6-.65 2.44v15.46h-3V443.4l.98-3.62 2.7-2.7 3.62-1h18.2zm97.5-7.3l-.98 3.6-2.7 2.72-3.62.97H2436v-3h17.8l2.45-.67 1.6-1.6.65-2.44v-13.35h3zm0-27.3h-3v-27.08h3zm0-40.62h-3V336.8h3zm0-40.63h-3V309.7h3z" stroke="#b2b2b2" stroke-width=".05" fill="#b2b2b2"/><path d="M2341.5 586.1h-3v-1.55h3z" fill="#b2b2b2"/><path d="M2341.53 586.12h-3.06v-1.6h3.06zm-3-1.54v1.5h2.94v-1.5z" stroke="#b2b2b2" stroke-width=".05" fill="#b2b2b2"/><path d="M2464.64 308.2h-9.28l4.64-14.25z" fill="#b2b2b2"/><path d="M2466.7 309.7h-13.4l6.7-20.6zm-9.27-3h5.14l-2.57-7.9z" stroke="#b2b2b2" stroke-width=".05" fill="#b2b2b2"/><use xlink:href="#q" transform="matrix(1,0,0,1,2371.9772135416665,424.8806226325759) translate(0 19.951822916666668)"/><path d="M2281.5 401.8l-.98 3.6-2.7 2.72-3.62.97h-12.18v-3h11.78l2.45-.67 1.6-1.6.65-2.44v-13.8h3zm-31.46 7.3h-23.96v-3h23.96zm-35.94 0h-11.98v-3h11.98zm67.4-35.5h-3v-28h3zm0-42h-3v-28h3zm0-42h-3v-28h3zm0-42h-3v-7.3h3zm95.5-18.5h-15.17v-3H2377zm-30.33 0h-30.34v-3h30.34z" stroke="#b2b2b2" stroke-width=".05" fill="#b2b2b2"/><path d="M2378.5 229.1h-1.54v-3h1.54z" fill="#b2b2b2"/><path d="M2378.53 229.12h-1.6v-3.05h1.6zm-1.54-3v2.95h1.47v-2.95z" stroke="#b2b2b2" stroke-width=".05" fill="#b2b2b2"/><path d="M2200.62 412.23l-14.27-4.64 14.27-4.64z" fill="#b2b2b2"/><path d="M2202.12 414.3l-20.62-6.7 20.62-6.7zm-10.9-6.7l7.9 2.56v-5.14z" stroke="#b2b2b2" stroke-width=".05" fill="#b2b2b2"/><use xlink:href="#ah" transform="matrix(1,0,0,1,2259.9028135433086,214.8806226325759) translate(0 19.951822916666668)"/><path d="M1936.67 709.1H1923v-3h13.67zm34.83-7.3l-.98 3.6-2.7 2.72-3.62.97h-13.87v-3h13.47l2.45-.67 1.6-1.6.65-2.44v-15.8h3zm0-32.2h-3v-32h3zm0-48h-3v-32h3zm0-48h-3v-3.3h3zm0-28.72h-3v-3.3h3zm0-19.3h-3v-32h3zm0-48h-3v-32h3zm26.38-68.5h-21.68l-2.45.67-1.6 1.6-.65 2.44v15.8h-3v-16.2l.98-3.62 2.7-2.7 3.62-1h22.08z" stroke="#b2b2b2" stroke-width=".05" fill="#b2b2b2"/><path d="M1923.04 709.1h-1.54v-3h1.54z" fill="#b2b2b2"/><path d="M1923.06 709.12h-1.6v-3.05h1.6zm-1.53-3v2.95h1.48v-2.95z" stroke="#b2b2b2" stroke-width=".05" fill="#b2b2b2"/><path d="M2013.65 407.6l-14.27 4.63v-9.27z" fill="#b2b2b2"/><path d="M2018.5 407.6l-20.62 6.7v-13.4zm-17.62 2.56l7.9-2.57-7.9-2.58z" stroke="#b2b2b2" stroke-width=".05" fill="#b2b2b2"/><use xlink:href="#r" transform="matrix(1,0,0,1,1943.0572916666667,544.8806226325759) translate(0 19.951822916666668)"/><path d="M37.03-115.66c0-3.3 2.7-6 6-6h148c3.3 0 6 2.7 6 6v108c0 3.3-2.7 6-6 6h-148c-3.3 0-6-2.7-6-6z" stroke="#834187" stroke-width="3" fill="#b391b5"/><use xlink:href="#a" transform="matrix(1,0,0,1,42.030303030303,-116.65909090909076) translate(17.610026041666657 50.88932291666667)"/><use xlink:href="#b" transform="matrix(1,0,0,1,42.030303030303,-116.65909090909076) translate(78.50455729166666 50.88932291666667)"/><use xlink:href="#c" transform="matrix(1,0,0,1,42.030303030303,-116.65909090909076) translate(14.474609374999993 76.30989583333334)"/><use xlink:href="#d" transform="matrix(1,0,0,1,42.030303030303,-116.65909090909076) translate(65.65299479166666 76.30989583333334)"/><use xlink:href="#e" transform="matrix(1,0,0,1,42.030303030303,-116.65909090909076) translate(90.71809895833334 76.30989583333334)"/><path d="M-102.97 224.34c0-3.3 2.7-6 6-6h148c3.3 0 6 2.7 6 6v108c0 3.3-2.7 6-6 6h-148c-3.3 0-6-2.7-6-6z" stroke="#0c7cba" stroke-width="3" fill="#83bbe5"/><use xlink:href="#f" transform="matrix(1,0,0,1,-97.969696969697,223.34090909090924) translate(6.909505208333329 50.88932291666667)"/><use xlink:href="#g" transform="matrix(1,0,0,1,-97.969696969697,223.34090909090924) translate(47.615234375 50.88932291666667)"/><use xlink:href="#h" transform="matrix(1,0,0,1,-97.969696969697,223.34090909090924) translate(91.21940104166667 50.88932291666667)"/><use xlink:href="#i" transform="matrix(1,0,0,1,-97.969696969697,223.34090909090924) translate(6.12109375 76.30989583333334)"/><use xlink:href="#j" transform="matrix(1,0,0,1,-97.969696969697,223.34090909090924) translate(67.3984375 76.30989583333334)"/><use xlink:href="#k" transform="matrix(1,0,0,1,-97.969696969697,223.34090909090924) translate(94.17708333333334 76.30989583333334)"/><path d="M-282.97 464.34c0-3.3 2.7-6 6-6h148c3.3 0 6 2.7 6 6v108c0 3.3-2.7 6-6 6h-148c-3.3 0-6-2.7-6-6z" stroke="#999" stroke-width="3" fill="#ccc"/><use xlink:href="#l" transform="matrix(1,0,0,1,-277.969696969697,463.34090909090924) translate(0.7617187499999858 50.88932291666667)"/><use xlink:href="#m" transform="matrix(1,0,0,1,-277.969696969697,463.34090909090924) translate(104.41276041666667 50.88932291666667)"/><use xlink:href="#n" transform="matrix(1,0,0,1,-277.969696969697,463.34090909090924) translate(3.550781249999986 76.30989583333334)"/><use xlink:href="#o" transform="matrix(1,0,0,1,-277.969696969697,463.34090909090924) translate(62.12109374999999 76.30989583333334)"/><use xlink:href="#p" transform="matrix(1,0,0,1,-277.969696969697,463.34090909090924) translate(97.65885416666667 76.30989583333334)"/><path d="M-21.47 196.22h-3v-13.65h3zm0-27.3h-3v-27.3h3zm18.72-59.08h-14.02l-2.45.66-1.6 1.6-.65 2.44V128h-3v-13.86l.98-3.6 2.72-2.72 3.6-.98h14.43zm121.28-7.3l-.98 3.6-2.7 2.73-3.62.97H96.8v-3h14.03l2.45-.66 1.6-1.6.65-2.44V85.5h3zm-35.94 7.3H54.13v-3H82.6zm-42.68 0H11.47v-3h28.45zm78.6-63.98h-3V35h3zm0-27.7h-3V1.35h3z" stroke="#b2b2b2" stroke-width=".05" fill="#b2b2b2"/><path d="M118.53 1.38h-3V-.16h3z" fill="#b2b2b2"/><path d="M118.56 1.4h-3.05V-.18h3.06zm-3-1.53v1.48h2.95V-.13z" stroke="#b2b2b2" stroke-width=".05" fill="#b2b2b2"/><path d="M-22.97 212l-4.63-14.28h9.27z" fill="#b2b2b2"/><path d="M-22.97 216.84l-6.7-20.62h13.4zm-2.57-17.62l2.57 7.9 2.57-7.9z" stroke="#b2b2b2" stroke-width=".05" fill="#b2b2b2"/><use xlink:href="#q" transform="matrix(1,0,0,1,89.00751657196966,45.85570554287846) translate(0 19.951822916666668)"/><path d="M-201.47 436.22h-3v-16.87h3zm0-33.75h-3v-29.32h3zm0-54.74h-3V318.1h3zm19.67-67.9h-14.97l-2.45.67-1.6 1.6-.65 2.44v16.68h-3v-17.08l.98-3.6 2.72-2.72 3.6-.98h15.38zm75.83 0h-15.17v-3h15.17zm-30.33 0h-30.34v-3h30.34z" stroke="#b2b2b2" stroke-width=".05" fill="#b2b2b2"/><path d="M-104.47 279.84H-106v-3h1.53z" fill="#b2b2b2"/><path d="M-104.44 279.87h-1.6v-3.05h1.6zm-1.54-3v2.95h1.5v-2.95z" stroke="#b2b2b2" stroke-width=".05" fill="#b2b2b2"/><path d="M-202.97 452l-4.63-14.28h9.27z" fill="#b2b2b2"/><path d="M-202.97 456.84l-6.7-20.62h13.4zm-2.57-17.62l2.57 7.9 2.57-7.9z" stroke="#b2b2b2" stroke-width=".05" fill="#b2b2b2"/><use xlink:href="#r" transform="matrix(1,0,0,1,-229.91240530303034,347.7341230220317) translate(0 19.951822916666668)"/><path d="M657.03-135.66c0-3.3 2.7-6 6-6h148c3.3 0 6 2.7 6 6v108c0 3.3-2.7 6-6 6h-148c-3.3 0-6-2.7-6-6z" stroke="#834187" stroke-width="3" fill="#b391b5"/><use xlink:href="#s" transform="matrix(1,0,0,1,662.030303030303,-136.65909090909076) translate(3.181640625 50.88932291666667)"/><use xlink:href="#t" transform="matrix(1,0,0,1,662.030303030303,-136.65909090909076) translate(46.43945312500001 50.88932291666667)"/><use xlink:href="#u" transform="matrix(1,0,0,1,662.030303030303,-136.65909090909076) translate(67.466796875 50.88932291666667)"/><use xlink:href="#v" transform="matrix(1,0,0,1,662.030303030303,-136.65909090909076) translate(119.201171875 50.88932291666667)"/><use xlink:href="#w" transform="matrix(1,0,0,1,662.030303030303,-136.65909090909076) translate(48.681640625 76.30989583333334)"/><path d="M357.03-135.66c0-3.3 2.7-6 6-6h148c3.3 0 6 2.7 6 6v108c0 3.3-2.7 6-6 6h-148c-3.3 0-6-2.7-6-6z" stroke="#834187" stroke-width="3" fill="#b391b5"/><use xlink:href="#x" transform="matrix(1,0,0,1,362.030303030303,-136.65909090909076) translate(5.569661458333329 50.88932291666667)"/><use xlink:href="#y" transform="matrix(1,0,0,1,362.030303030303,-136.65909090909076) translate(41.235026041666664 50.88932291666667)"/><use xlink:href="#z" transform="matrix(1,0,0,1,362.030303030303,-136.65909090909076) translate(68.79752604166666 50.88932291666667)"/><use xlink:href="#A" transform="matrix(1,0,0,1,362.030303030303,-136.65909090909076) translate(42.62044270833333 76.30989583333334)"/><path d="M417.03 484.34c0-3.3 2.7-6 6-6h148c3.3 0 6 2.7 6 6v108c0 3.3-2.7 6-6 6h-148c-3.3 0-6-2.7-6-6z" stroke="#0c7cba" stroke-width="3" fill="#83bbe5"/><use xlink:href="#B" transform="matrix(1,0,0,1,422.030303030303,483.34090909090924) translate(13.376302083333329 50.88932291666667)"/><use xlink:href="#C" transform="matrix(1,0,0,1,422.030303030303,483.34090909090924) translate(104.95052083333333 50.88932291666667)"/><use xlink:href="#D" transform="matrix(1,0,0,1,422.030303030303,483.34090909090924) translate(37.119791666666664 76.30989583333334)"/><path d="M237.03 184.34c0-3.3 2.7-6 6-6h148c3.3 0 6 2.7 6 6v108c0 3.3-2.7 6-6 6h-148c-3.3 0-6-2.7-6-6z" stroke="#0c7cba" stroke-width="3" fill="#83bbe5"/><use xlink:href="#E" transform="matrix(1,0,0,1,242.030303030303,183.34090909090924) translate(23.694010416666664 50.88932291666667)"/><use xlink:href="#F" transform="matrix(1,0,0,1,242.030303030303,183.34090909090924) translate(15.873697916666671 76.30989583333334)"/><use xlink:href="#G" transform="matrix(1,0,0,1,242.030303030303,183.34090909090924) translate(107.62109375 76.30989583333334)"/><path d="M777.03 264.34c0-3.3 2.7-6 6-6h148c3.3 0 6 2.7 6 6v108c0 3.3-2.7 6-6 6h-148c-3.3 0-6-2.7-6-6z" stroke="#0c7cba" stroke-width="3" fill="#83bbe5"/><use xlink:href="#H" transform="matrix(1,0,0,1,782.030303030303,263.34090909090924) translate(10.596354166666657 50.88932291666667)"/><use xlink:href="#I" transform="matrix(1,0,0,1,782.030303030303,263.34090909090924) translate(54.13671874999999 50.88932291666667)"/><use xlink:href="#J" transform="matrix(1,0,0,1,782.030303030303,263.34090909090924) translate(97.88671875 50.88932291666667)"/><use xlink:href="#K" transform="matrix(1,0,0,1,782.030303030303,263.34090909090924) translate(51.83528645833333 76.30989583333334)"/><path d="M537.03 204.34c0-3.3 2.7-6 6-6h148c3.3 0 6 2.7 6 6v108c0 3.3-2.7 6-6 6h-148c-3.3 0-6-2.7-6-6z" stroke="#0c7cba" stroke-width="3" fill="#83bbe5"/><use xlink:href="#L" transform="matrix(1,0,0,1,542.030303030303,203.34090909090924) translate(20.107421875 50.88932291666667)"/><use xlink:href="#M" transform="matrix(1,0,0,1,542.030303030303,203.34090909090924) translate(111.845703125 50.88932291666667)"/><use xlink:href="#N" transform="matrix(1,0,0,1,542.030303030303,203.34090909090924) translate(36.27669270833333 76.30989583333334)"/><use xlink:href="#O" transform="matrix(1,0,0,1,542.030303030303,203.34090909090924) translate(96.66080729166667 76.30989583333334)"/><path d="M417.03 724.34c0-3.3 2.7-6 6-6h148c3.3 0 6 2.7 6 6v108c0 3.3-2.7 6-6 6h-148c-3.3 0-6-2.7-6-6z" stroke="#999" stroke-width="3" fill="#ccc"/><g><use xlink:href="#P" transform="matrix(1,0,0,1,422.030303030303,723.3409090909092) translate(10.022135416666657 23.389322916666668)"/><use xlink:href="#Q" transform="matrix(1,0,0,1,422.030303030303,723.3409090909092) translate(49.05989583333333 23.389322916666668)"/><use xlink:href="#R" transform="matrix(1,0,0,1,422.030303030303,723.3409090909092) translate(32.3984375 48.809895833333336)"/><use xlink:href="#S" transform="matrix(1,0,0,1,422.030303030303,723.3409090909092) translate(72.80338541666667 48.809895833333336)"/><use xlink:href="#T" transform="matrix(1,0,0,1,422.030303030303,723.3409090909092) translate(37.61653645833333 74.23046875)"/><use xlink:href="#U" transform="matrix(1,0,0,1,422.030303030303,723.3409090909092) translate(39.635416666666664 99.65104166666667)"/></g><path d="M97.03 664.34c0-3.3 2.7-6 6-6h148c3.3 0 6 2.7 6 6v108c0 3.3-2.7 6-6 6h-148c-3.3 0-6-2.7-6-6z" stroke="#999" stroke-width="3" fill="#ccc"/><g><use xlink:href="#V" transform="matrix(1,0,0,1,102.030303030303,663.3409090909092) translate(21.40625 37.13932291666667)"/><use xlink:href="#W" transform="matrix(1,0,0,1,102.030303030303,663.3409090909092) translate(1.9192708333333286 62.55989583333334)"/><use xlink:href="#X" transform="matrix(1,0,0,1,102.030303030303,663.3409090909092) translate(71.98307291666666 62.55989583333334)"/><use xlink:href="#Y" transform="matrix(1,0,0,1,102.030303030303,663.3409090909092) translate(117.26432291666667 62.55989583333334)"/><use xlink:href="#Z" transform="matrix(1,0,0,1,102.030303030303,663.3409090909092) translate(56.000651041666664 87.98046875000001)"/></g><path d="M857.03 644.34c0-3.3 2.7-6 6-6h148c3.3 0 6 2.7 6 6v108c0 3.3-2.7 6-6 6h-148c-3.3 0-6-2.7-6-6z" stroke="#999" stroke-width="3" fill="#ccc"/><g><use xlink:href="#aa" transform="matrix(1,0,0,1,862.030303030303,643.3409090909092) translate(4.421223958333329 37.13932291666667)"/><use xlink:href="#ab" transform="matrix(1,0,0,1,862.030303030303,643.3409090909092) translate(39.074869791666664 37.13932291666667)"/><use xlink:href="#ac" transform="matrix(1,0,0,1,862.030303030303,643.3409090909092) translate(61.970703125 37.13932291666667)"/><use xlink:href="#ad" transform="matrix(1,0,0,1,862.030303030303,643.3409090909092) translate(125.69986979166667 37.13932291666667)"/><use xlink:href="#ae" transform="matrix(1,0,0,1,862.030303030303,643.3409090909092) translate(20.986979166666664 62.55989583333334)"/><use xlink:href="#af" transform="matrix(1,0,0,1,862.030303030303,643.3409090909092) translate(46.690104166666664 62.55989583333334)"/><use xlink:href="#ag" transform="matrix(1,0,0,1,862.030303030303,643.3409090909092) translate(20.029947916666657 87.98046875000001)"/></g><path d="M318.53 156.22h-3v-15.46h3zm0-30.92h-3V94.4h3zm0-46.37h-3V48h3zm0-63.3h-3v-14h3zm0-29.45h-3v-30.92h3zm14.83-66.34h-10.13l-2.45.66-1.6 1.6-.65 2.44v15.26h-3v-15.66l.98-3.6 2.72-2.72 3.6-.98h10.54zm20.67 0H343.7v-3h10.33z" stroke="#b2b2b2" stroke-width=".05" fill="#b2b2b2"/><path d="M355.53-80.16H354v-3h1.53z" fill="#b2b2b2"/><path d="M355.56-80.13h-1.6v-3.05h1.6zm-1.54-3v2.95h1.5v-2.95z" stroke="#b2b2b2" stroke-width=".05" fill="#b2b2b2"/><path d="M317.03 172l-4.63-14.28h9.27z" fill="#b2b2b2"/><path d="M317.03 176.84l-6.7-20.62h13.4zm-2.57-17.62l2.57 7.9 2.57-7.9z" stroke="#b2b2b2" stroke-width=".05" fill="#b2b2b2"/><g><use xlink:href="#ah" transform="matrix(1,0,0,1,293.8655894886363,15.630622632575902) translate(0 19.951822916666668)"/></g><path d="M618.53 176.22h-3v-13.65h3zm0-27.3h-3v-27.3h3zm-3.7-61.1l2.72 2.7.98 3.62V108h-3V94.53l-.66-2.45-1.6-1.6-2.44-.66h-13.8v-3h14.2zm-176.3-5.68l.66 2.45 1.58 1.58 2.45.66h13.8v3h-14.2l-3.6-.97-2.72-2.72-.97-3.6V65.5h3zm60.48 7.7h-27.97v-3H499zm84.03 0h-27.98v-3h27.98zm-144.5-41.17h-3V15h3zm0-50.5h-3v-16.83h3z" stroke="#b2b2b2" stroke-width=".05" fill="#b2b2b2"/><path d="M438.53-18.62h-3v-1.54h3z" fill="#b2b2b2"/><path d="M438.56-18.6h-3.05v-1.58h3.06zm-3-1.53v1.48h2.95v-1.48z" stroke="#b2b2b2" stroke-width=".05" fill="#b2b2b2"/><path d="M617.03 192l-4.63-14.28h9.27z" fill="#b2b2b2"/><path d="M617.03 196.84l-6.7-20.62h13.4zm-2.57-17.62l2.57 7.9 2.57-7.9z" stroke="#b2b2b2" stroke-width=".05" fill="#b2b2b2"/><g><use xlink:href="#q" transform="matrix(1,0,0,1,499.0075165719697,75.6306226325759) translate(0 19.951822916666668)"/></g><path d="M178.53 636.22h-3v-14.5h3zm0-29.03h-3v-29.04h3zm0-43.55h-3v-29.03h3zm0-43.54h-3V491.1h3zm0-43.53h-3v-18.1h3zm0-43.55h-3V404h3zm0-43.54h-3v-29.03h3zm0-43.54h-3V316.9h3zm0-43.54h-3v-29.03h3zm21.5-62.56h-16.8l-2.45.66-1.6 1.6-.65 2.44v14.3h-3v-14.7l.98-3.6 2.72-2.72 3.6-.98h17.2zm34 0h-17v-3h17z" stroke="#b2b2b2" stroke-width=".05" fill="#b2b2b2"/><path d="M235.53 239.84H234v-3h1.53z" fill="#b2b2b2"/><path d="M235.56 239.87h-1.6v-3.05h1.6zm-1.54-3v2.95h1.5v-2.95z" stroke="#b2b2b2" stroke-width=".05" fill="#b2b2b2"/><path d="M177.03 652l-4.63-14.28h9.27z" fill="#b2b2b2"/><path d="M177.03 656.84l-6.7-20.62h13.4zm-2.57-17.62l2.57 7.9 2.57-7.9z" stroke="#b2b2b2" stroke-width=".05" fill="#b2b2b2"/><g><use xlink:href="#r" transform="matrix(1,0,0,1,150.08759469696966,433.0480951177039) translate(0 19.951822916666668)"/></g><path d="M-21.47 712.14l.66 2.45 1.58 1.58 2.45.66h15.1v3h-15.5l-3.6-.97-2.72-2.72-.97-3.6v-15.67h3zm65.75 7.7H13.66v-3h30.62zm30.63 0H59.6v-3h15.3zm-96.37-38.42h-3v-30.9h3zm0-46.37h-3v-30.92h3zm0-46.38h-3v-30.9h3zm0-46.37h-3v-.46h3zm0-25.88h-3v-5.04h3zm0-20.5h-3v-30.9h3zm0-46.37h-3v-30.92h3zm0-46.38h-3v-30.9h3zm0-46.37h-3v-15.46h3z" stroke="#b2b2b2" stroke-width=".05" fill="#b2b2b2"/><path d="M-21.47 341.38h-3v-1.54h3z" fill="#b2b2b2"/><path d="M-21.44 341.4h-3.05v-1.58h3.06zm-3-1.53v1.48h2.95v-1.48z" stroke="#b2b2b2" stroke-width=".05" fill="#b2b2b2"/><path d="M90.68 718.34l-14.27 4.64v-9.27z" fill="#b2b2b2"/><path d="M95.53 718.34l-20.62 6.7v-13.4zM77.9 720.9l7.92-2.56-7.9-2.57z" stroke="#b2b2b2" stroke-width=".05" fill="#b2b2b2"/><g><use xlink:href="#q" transform="matrix(1,0,0,1,-50.99248342803033,516.4231133021106) translate(0 19.951822916666668)"/></g><path d="M498.53 456.22h-3v-17.3h3zm22.5-56.38h-17.8l-2.45.66-1.6 1.6-.65 2.44v17.1h-3v-17.5l.98-3.6 2.72-2.72 3.6-.98h18.2zm97.5-7.3l-.98 3.6-2.7 2.73-3.62.97h-18.2v-3h17.8l2.45-.66 1.6-1.6.65-2.44V380.5h3zm0-23.87h-3V345h3zm0-35.5h-3v-11.83h3z" stroke="#b2b2b2" stroke-width=".05" fill="#b2b2b2"/><path d="M618.53 321.38h-3v-1.54h3z" fill="#b2b2b2"/><path d="M618.56 321.4h-3.05v-1.58h3.06zm-3-1.53v1.48h2.95v-1.48z" stroke="#b2b2b2" stroke-width=".05" fill="#b2b2b2"/><path d="M497.03 472l-4.63-14.28h9.27z" fill="#b2b2b2"/><path d="M497.03 476.84l-6.7-20.62h13.4zm-2.57-17.62l2.57 7.9 2.57-7.9z" stroke="#b2b2b2" stroke-width=".05" fill="#b2b2b2"/><g><use xlink:href="#q" transform="matrix(1,0,0,1,529.0075165719696,385.6306226325759) translate(0 19.951822916666668)"/></g><path d="M318.53 532.14l.66 2.45 1.58 1.58 2.45.66H335v3h-12.17l-3.6-.97-2.72-2.72-.97-3.6v-15.6h3zm52.42 7.7H347v-3h23.95zm23.96 0h-11.97v-3h11.98zm-76.37-38.3h-3v-30.8h3zm0-46.2h-3v-24.02h3zm0-49.44h-3v-27.56h3zm0-42.96h-3v-30.8h3zm0-46.2h-3v-15.4h3z" stroke="#b2b2b2" stroke-width=".05" fill="#b2b2b2"/><path d="M318.53 301.38h-3v-1.54h3z" fill="#b2b2b2"/><path d="M318.56 301.4h-3.05v-1.58h3.06zm-3-1.53v1.48h2.95v-1.48z" stroke="#b2b2b2" stroke-width=".05" fill="#b2b2b2"/><path d="M410.68 538.34l-14.27 4.64v-9.27z" fill="#b2b2b2"/><path d="M415.53 538.34l-20.62 6.7v-13.4zm-17.62 2.57l7.92-2.56-7.9-2.57z" stroke="#b2b2b2" stroke-width=".05" fill="#b2b2b2"/><g><use xlink:href="#r" transform="matrix(1,0,0,1,290.0875946969697,405.9027403599901) translate(0 19.951822916666668)"/></g><path d="M498.53 696.22h-3v-15.8h3zm0-50.6h-3v-12.65h3zm0-28.47h-3v-15.8h3z" stroke="#b2b2b2" stroke-width=".05" fill="#b2b2b2"/><path d="M498.53 601.38h-3v-1.54h3z" fill="#b2b2b2"/><path d="M498.56 601.4h-3.05v-1.58h3.06zm-3-1.53v1.48h2.95v-1.48z" stroke="#b2b2b2" stroke-width=".05" fill="#b2b2b2"/><path d="M497.03 712l-4.63-14.28h9.27z" fill="#b2b2b2"/><path d="M497.03 716.84l-6.7-20.62h13.4zm-2.57-17.62l2.57 7.9 2.57-7.9z" stroke="#b2b2b2" stroke-width=".05" fill="#b2b2b2"/><g><use xlink:href="#ah" transform="matrix(1,0,0,1,473.8655894886363,645.6306226325759) translate(0 19.951822916666668)"/></g><path d="M858.53 236.22h-3v-18.65h3zm0-37.3h-3v-37.3h3zm-3.7-81.1l2.72 2.7.98 3.62V143h-3v-18.46l-.66-2.45-1.6-1.6-2.44-.66h-17.8v-3h18.2zm-116.3-5.68l.66 2.45 1.58 1.58 2.45.66h17.8v3h-18.2l-3.6-.97-2.72-2.72-.97-3.6V97.78h3zm0-28.9h-3V54.1h3zm0-43.68h-3v-29.1h3zm0-43.66h-3v-14.56h3z" stroke="#b2b2b2" stroke-width=".05" fill="#b2b2b2"/><path d="M738.53-18.62h-3v-1.54h3z" fill="#b2b2b2"/><path d="M738.56-18.6h-3.05v-1.58h3.06zm-3-1.53v1.48h2.95v-1.48z" stroke="#b2b2b2" stroke-width=".05" fill="#b2b2b2"/><path d="M857.03 252l-4.63-14.28h9.27z" fill="#b2b2b2"/><path d="M857.03 256.84l-6.7-20.62h13.4zm-2.57-17.62l2.57 7.9 2.57-7.9z" stroke="#b2b2b2" stroke-width=".05" fill="#b2b2b2"/><g><use xlink:href="#q" transform="matrix(1,0,0,1,769.0075165719696,105.6306226325759) translate(0 19.951822916666668)"/></g><path d="M938.53 616.22h-3v-16.98h3zm0-33.96h-3V548.3h3zm-3.7-74.44l2.72 2.7.98 3.62v17.18h-3v-16.78l-.66-2.45-1.6-1.6-2.44-.66H919.7v-3h11.53zm-76.3-5.68l.66 2.45 1.58 1.58 2.45.66h11.13v3h-11.53l-3.6-.97-2.72-2.72-.97-3.6V488.9h3zm49.83 7.7H885.7v-3h22.66zm-49.83-57.4h-3v-3.88h3zm0-17.32h-3v-26.9h3zm0-40.33h-3v-13.46h3z" stroke="#b2b2b2" stroke-width=".05" fill="#b2b2b2"/><path d="M858.53 381.38h-3v-1.54h3z" fill="#b2b2b2"/><path d="M858.56 381.4h-3.05v-1.58h3.06zm-3-1.53v1.48h2.95v-1.48z" stroke="#b2b2b2" stroke-width=".05" fill="#b2b2b2"/><path d="M937.03 632l-4.63-14.28h9.27z" fill="#b2b2b2"/><path d="M937.03 636.84l-6.7-20.62h13.4zm-2.57-17.62l2.57 7.9 2.57-7.9z" stroke="#b2b2b2" stroke-width=".05" fill="#b2b2b2"/><g><use xlink:href="#ah" transform="matrix(1,0,0,1,833.8655894886364,452.43763423035665) translate(0 19.951822916666668)"/></g><path d="M718.53 692.14l.66 2.45 1.58 1.58 2.45.66h18.45v3h-18.85l-3.6-.97-2.72-2.72-.97-3.6V675.9h3zm79.1 7.7h-37.3v-3h37.3zm37.28 0h-18.64v-3h18.65zm-116.37-40.4h-3v-28.4h3zm0-53.8h-3v-28.4h3zm-3.7-67.82l2.72 2.7.98 3.62v16.65h-3v-16.26l-.66-2.45-1.6-1.6-2.44-.66h-14.36v-3h14.76zm-120.24 2.02h-14.57v-3h14.56zm43.65 0h-29.1v-3h29.1zm43.67 0h-29.1v-3h29.1z" stroke="#b2b2b2" stroke-width=".05" fill="#b2b2b2"/><path d="M580.07 539.84h-1.54v-3h1.54z" fill="#b2b2b2"/><path d="M580.1 539.87h-1.6v-3.05h1.6zm-1.54-3v2.95h1.48v-2.95z" stroke="#b2b2b2" stroke-width=".05" fill="#b2b2b2"/><path d="M850.68 698.34l-14.27 4.64v-9.27z" fill="#b2b2b2"/><path d="M855.53 698.34l-20.62 6.7v-13.4zm-17.62 2.57l7.92-2.56-7.9-2.57z" stroke="#b2b2b2" stroke-width=".05" fill="#b2b2b2"/><g><use xlink:href="#r" transform="matrix(1,0,0,1,690.0875946969696,605.6306226325759) translate(0 19.951822916666668)"/></g><path d="M1183.7 963.12c0-3.3 2.67-6 6-6h148c3.3 0 6 2.7 6 6v48c0 3.3-2.7 6-6 6h-148c-3.33 0-6-2.7-6-6z" stroke="#de5f85" stroke-width="3" fill="#f5b5c8"/><path d="M1183.7 1063.12c0-3.3 2.67-6 6-6h148c3.3 0 6 2.7 6 6v48c0 3.3-2.7 6-6 6h-148c-3.33 0-6-2.7-6-6z" stroke="#19967d" stroke-width="3" fill="#5abaa7"/><path d="M1363.7 1063.12c0-3.3 2.67-6 6-6h148c3.3 0 6 2.7 6 6v48c0 3.3-2.7 6-6 6h-148c-3.33 0-6-2.7-6-6z" stroke="#ef8d22" stroke-width="3" fill="#ffc374"/><path d="M1183.7 1163.12c0-3.3 2.67-6 6-6h148c3.3 0 6 2.7 6 6v48c0 3.3-2.7 6-6 6h-148c-3.33 0-6-2.7-6-6z" stroke="#0c7cba" stroke-width="3" fill="#83bbe5"/><path d="M980.7 963.12c0-3.3 2.67-6 6-6h148c3.3 0 6 2.7 6 6v48c0 3.3-2.7 6-6 6h-148c-3.33 0-6-2.7-6-6z" stroke="#834187" stroke-width="3" fill="#b391b5"/><path d="M980.7 1063.12c0-3.3 2.67-6 6-6h148c3.3 0 6 2.7 6 6v48c0 3.3-2.7 6-6 6h-148c-3.33 0-6-2.7-6-6z" stroke="#0c7cba" stroke-width="3" fill="#83bbe5"/><path d="M980.7 1163.12c0-3.3 2.67-6 6-6h148c3.3 0 6 2.7 6 6v48c0 3.3-2.7 6-6 6h-148c-3.33 0-6-2.7-6-6z" stroke="#999" stroke-width="3" fill="#ccc"/><g fill="none"><path d="M1162.2 917.87c.4 0 .74.33.74.75v337c0 .4-.34.75-.75.75-.43 0-.76-.34-.76-.75v-337c0-.42.33-.75.75-.75z"/><path d="M1162.94 950.7v3.22m0 16.05v32.1m0 16.04v3.22m0 16.05v32.1m0 16.04v3.22m0 16.05v32.1m0 16.04v3.22m0 16.05v32.1m0 16.04v3.22m0 16.05v16.05l-.22.53-.53.22-.54-.22-.22-.53v-16.05m0-16.05v-3.2m0-16.05v-32.1m0-16.05v-3.2m0-16.05v-32.1m0-16.05v-3.2m0-16.05v-32.1m0-16.05v-3.2m0-16.05v-32.1m0-16.05v-3.2m0-16.05v-16.05l.22-.53.53-.23.52.22.22.52v16.05" stroke="#5e5e5e" stroke-width="1.5"/></g><defs><path d="M201 0v-1462h170v1308h645V0H201" id="ai"/><path d="M621-1116c316 0 501 239 501 567 0 339-180 575-508 569S119-212 115-549c-4-339 178-567 506-567zm-5 141c-239 0-329 168-329 426 0 255 93 430 331 430s332-174 332-430-95-426-334-426" id="aj"/><path d="M340-893c80-153 237-262 467-211l-23 154c-45-10-85-15-120-15-184-3-322 182-322 377V0H176v-1096h137l19 203h8" id="ak"/><path d="M995-51C878-2 799 19 639 20c-329 2-524-221-524-559 0-326 172-577 481-577 278 0 451 210 446 493v105H287c4 242 121 392 358 393 118 0 235-25 350-74v148zM864-653c2-195-85-324-270-324-190 0-288 139-303 324h573" id="al"/><path d="M1368-1116c259 2 372 131 371 401V0h-166v-713c0-168-66-262-230-262-221 0-303 131-303 363V0H874v-713c-1-169-66-262-231-262-235 0-301 142-301 400V0H176v-1096h135l27 150h8c56-99 174-170 324-170 171 0 283 62 336 186h8c60-108 189-187 354-186" id="am"/><g id="a"><use transform="matrix(0.009114583333333334,0,0,0.009114583333333334,0,0)" xlink:href="#ai"/><use transform="matrix(0.009114583333333334,0,0,0.009114583333333334,9.688802083333334,0)" xlink:href="#aj"/><use transform="matrix(0.009114583333333334,0,0,0.009114583333333334,20.963541666666668,0)" xlink:href="#ak"/><use transform="matrix(0.009114583333333334,0,0,0.009114583333333334,28.209635416666668,0)" xlink:href="#al"/><use transform="matrix(0.009114583333333334,0,0,0.009114583333333334,38.68229166666667,0)" xlink:href="#am"/></g><path d="M342 0H176v-1096h166V0zm-82-1282c-61 0-98-43-98-111 0-69 36-110 98-110 59 0 98 43 98 110s-39 111-98 111" id="an"/><path d="M1141-549c0 329-147 569-455 569-159 0-273-61-344-161h-12c23 199 7 418 12 633H176v-1588h135l23 150h8c77-108 175-170 344-170 311 0 455 237 455 567zm-172-2c0-242-88-424-307-424-256 0-323 154-320 426 3 280 68 430 324 430 213 0 303-196 303-432" id="ao"/><path d="M502-977c-130 0-238 32-238 139 0 75 39 101 95 134 33 19 97 46 192 81 130 48 217 95 263 143s69 108 69 181C883-73 695 20 449 20 304 20 190-3 109-49v-154c91 47 216 86 344 86 149 0 270-36 270-168 0-43-21-76-55-109-56-55-367-158-434-208-74-55-128-109-128-225 0-327 490-342 754-217l-59 135c-110-45-210-68-299-68" id="ap"/><path d="M563 20c-271 0-399-123-399-399v-717h168v711c1 177 76 266 252 266 250 0 331-135 331-401v-576h166V0H944l-24-147h-9C848-44 724 20 563 20" id="aq"/><g id="b"><use transform="matrix(0.009114583333333334,0,0,0.009114583333333334,0,0)" xlink:href="#an"/><use transform="matrix(0.009114583333333334,0,0,0.009114583333333334,4.721354166666667,0)" xlink:href="#ao"/><use transform="matrix(0.009114583333333334,0,0,0.009114583333333334,16.16015625,0)" xlink:href="#ap"/><use transform="matrix(0.009114583333333334,0,0,0.009114583333333334,25.065104166666668,0)" xlink:href="#aq"/><use transform="matrix(0.009114583333333334,0,0,0.009114583333333334,36.52213541666667,0)" xlink:href="#am"/></g><path d="M115-545c0-330 146-571 454-571 149 0 263 54 342 162h13c-20-185-8-401-11-602h166V0H944l-22-147h-9C836-36 722 20 569 20c-309 0-454-234-454-565zm172 2c0 249 78 424 303 424 257 0 327-150 323-426-4-282-68-432-325-432-220 0-301 191-301 434" id="ar"/><path d="M342 0H176v-1556h166V0" id="as"/><g id="c"><use transform="matrix(0.009114583333333334,0,0,0.009114583333333334,0,0)" xlink:href="#ar"/><use transform="matrix(0.009114583333333334,0,0,0.009114583333333334,11.438802083333334,0)" xlink:href="#aj"/><use transform="matrix(0.009114583333333334,0,0,0.009114583333333334,22.713541666666668,0)" xlink:href="#as"/><use transform="matrix(0.009114583333333334,0,0,0.009114583333333334,27.434895833333336,0)" xlink:href="#aj"/><use transform="matrix(0.009114583333333334,0,0,0.009114583333333334,38.70963541666667,0)" xlink:href="#ak"/></g><path d="M354-322c-2 123 60 204 176 205 51 1 114-10 150-20v127C647 7 557 20 506 20 294 20 188-92 188-315v-652H31v-80l157-69 70-234h96v254h318v129H354v645" id="at"/><g id="d"><use transform="matrix(0.009114583333333334,0,0,0.009114583333333334,0,0)" xlink:href="#ap"/><use transform="matrix(0.009114583333333334,0,0,0.009114583333333334,8.904947916666668,0)" xlink:href="#an"/><use transform="matrix(0.009114583333333334,0,0,0.009114583333333334,13.626302083333336,0)" xlink:href="#at"/></g><path d="M588-1114c260 0 384 106 385 366V0H850l-33-156h-8C708-34 639 17 442 20 231 23 94-94 94-303c0-221 177-337 531-348l186-6c11-203-40-320-233-320-91 0-195 28-310 84l-51-127c97-53 229-94 371-94zM268-301c-1 123 81 184 207 184 203 0 334-120 332-323v-99c-257 14-539-7-539 238" id="au"/><g id="e"><use transform="matrix(0.009114583333333334,0,0,0.009114583333333334,0,0)" xlink:href="#au"/><use transform="matrix(0.009114583333333334,0,0,0.009114583333333334,10.381510416666668,0)" xlink:href="#am"/><use transform="matrix(0.009114583333333334,0,0,0.009114583333333334,27.744791666666668,0)" xlink:href="#al"/><use transform="matrix(0.009114583333333334,0,0,0.009114583333333334,38.21744791666667,0)" xlink:href="#at"/></g><path d="M516-150c94-315 146-423 332-946h178L610 0H416L0-1096h178c98 281 253 670 330 946h8" id="av"/><g id="f"><use transform="matrix(0.009114583333333334,0,0,0.009114583333333334,0,0)" xlink:href="#av"/><use transform="matrix(0.009114583333333334,0,0,0.009114583333333334,9.3515625,0)" xlink:href="#al"/><use transform="matrix(0.009114583333333334,0,0,0.009114583333333334,19.82421875,0)" xlink:href="#as"/><use transform="matrix(0.009114583333333334,0,0,0.009114583333333334,24.545572916666668,0)" xlink:href="#an"/><use transform="matrix(0.009114583333333334,0,0,0.009114583333333334,29.266927083333336,0)" xlink:href="#at"/></g><g id="g"><use transform="matrix(0.009114583333333334,0,0,0.009114583333333334,0,0)" xlink:href="#al"/><use transform="matrix(0.009114583333333334,0,0,0.009114583333333334,10.47265625,0)" xlink:href="#ap"/><use transform="matrix(0.009114583333333334,0,0,0.009114583333333334,19.377604166666668,0)" xlink:href="#ap"/><use transform="matrix(0.009114583333333334,0,0,0.009114583333333334,28.282552083333336,0)" xlink:href="#al"/></g><path d="M287-543c-1 247 91 418 323 418 91 0 185-20 281-59v147C818 1 725 20 614 20c-329 0-499-221-499-561 0-349 172-575 510-575 96 0 221 26 282 57l-51 141c-61-25-157-50-235-51-223 0-334 142-334 426" id="aw"/><g id="h"><use transform="matrix(0.009114583333333334,0,0,0.009114583333333334,0,0)" xlink:href="#aw"/><use transform="matrix(0.009114583333333334,0,0,0.009114583333333334,8.88671875,0)" xlink:href="#an"/><use transform="matrix(0.009114583333333334,0,0,0.009114583333333334,13.608072916666668,0)" xlink:href="#as"/><use transform="matrix(0.009114583333333334,0,0,0.009114583333333334,18.329427083333336,0)" xlink:href="#as"/><use transform="matrix(0.009114583333333334,0,0,0.009114583333333334,23.050781250000007,0)" xlink:href="#aq"/><use transform="matrix(0.009114583333333334,0,0,0.009114583333333334,34.5078125,0)" xlink:href="#am"/></g><g id="i"><use transform="matrix(0.009114583333333334,0,0,0.009114583333333334,0,0)" xlink:href="#ar"/><use transform="matrix(0.009114583333333334,0,0,0.009114583333333334,11.438802083333334,0)" xlink:href="#aj"/><use transform="matrix(0.009114583333333334,0,0,0.009114583333333334,22.713541666666668,0)" xlink:href="#as"/><use transform="matrix(0.009114583333333334,0,0,0.009114583333333334,27.434895833333336,0)" xlink:href="#aj"/><use transform="matrix(0.009114583333333334,0,0,0.009114583333333334,38.70963541666667,0)" xlink:href="#ak"/><use transform="matrix(0.009114583333333334,0,0,0.009114583333333334,45.95572916666667,0)" xlink:href="#al"/></g><g id="j"><use transform="matrix(0.009114583333333334,0,0,0.009114583333333334,0,0)" xlink:href="#al"/><use transform="matrix(0.009114583333333334,0,0,0.009114583333333334,10.47265625,0)" xlink:href="#aq"/></g><path d="M575-1430c-169 0-190 146-184 334h279v129H391V0H225v-967H29v-75l196-60c-15-299 97-465 353-465 58 0 126 12 204 35l-43 133c-64-21-119-31-164-31" id="ax"/><path d="M125-741c0-247 161-377 414-375 57 0 109 7 155 20h379v105l-203 24c37 48 72 129 72 219 0 255-227 390-504 345-71 37-106 84-106 141 0 78 66 88 164 88h194c219-1 369 87 369 293 0 121-49 213-146 277s-239 96-426 96c-250 0-448-83-448-306C39 36 147-58 283-86c-52-23-102-79-99-152 4-104 57-143 133-192-107-42-192-164-192-311zM438-25c-143-1-242 70-239 209s131 181 290 181c139 0 242-21 309-63s101-98 101-169c0-147-88-158-262-158H438zm94-970c-158 0-243 88-243 250 0 153 93 233 246 233 162 0 243-79 243-236 0-165-82-247-246-247" id="ay"/><g id="k"><use transform="matrix(0.009114583333333334,0,0,0.009114583333333334,0,0)" xlink:href="#ax"/><use transform="matrix(0.009114583333333334,0,0,0.009114583333333334,6.325520833333334,0)" xlink:href="#aq"/><use transform="matrix(0.009114583333333334,0,0,0.009114583333333334,17.782552083333336,0)" xlink:href="#ay"/><use transform="matrix(0.009114583333333334,0,0,0.009114583333333334,28.009114583333336,0)" xlink:href="#an"/><use transform="matrix(0.009114583333333334,0,0,0.009114583333333334,32.73046875,0)" xlink:href="#au"/><use transform="matrix(0.009114583333333334,0,0,0.009114583333333334,43.11197916666667,0)" xlink:href="#at"/></g><g id="l"><use transform="matrix(0.009114583333333334,0,0,0.009114583333333334,0,0)" xlink:href="#ao"/><use transform="matrix(0.009114583333333334,0,0,0.009114583333333334,11.438802083333334,0)" xlink:href="#al"/><use transform="matrix(0.009114583333333334,0,0,0.009114583333333334,21.911458333333336,0)" xlink:href="#ak"/><use transform="matrix(0.009114583333333334,0,0,0.009114583333333334,29.531250000000004,0)" xlink:href="#ap"/><use transform="matrix(0.009114583333333334,0,0,0.009114583333333334,38.43619791666667,0)" xlink:href="#ao"/><use transform="matrix(0.009114583333333334,0,0,0.009114583333333334,49.875,0)" xlink:href="#an"/><use transform="matrix(0.009114583333333334,0,0,0.009114583333333334,54.59635416666667,0)" xlink:href="#aw"/><use transform="matrix(0.009114583333333334,0,0,0.009114583333333334,63.48307291666667,0)" xlink:href="#an"/><use transform="matrix(0.009114583333333334,0,0,0.009114583333333334,68.20442708333334,0)" xlink:href="#au"/><use transform="matrix(0.009114583333333334,0,0,0.009114583333333334,78.58593750000003,0)" xlink:href="#at"/><use transform="matrix(0.009114583333333334,0,0,0.009114583333333334,85.17578125000003,0)" xlink:href="#an"/><use transform="matrix(0.009114583333333334,0,0,0.009114583333333334,89.89713541666669,0)" xlink:href="#ap"/></g><path d="M694-1116c270 0 399 125 398 401V0H926v-709c-1-177-76-266-252-266-250 0-332 133-332 400V0H176v-1096h135l27 150h8c62-101 190-170 348-170" id="az"/><g id="m"><use transform="matrix(0.009114583333333334,0,0,0.009114583333333334,0,0)" xlink:href="#aq"/><use transform="matrix(0.009114583333333334,0,0,0.009114583333333334,11.45703125,0)" xlink:href="#az"/><use transform="matrix(0.009114583333333334,0,0,0.009114583333333334,22.9140625,0)" xlink:href="#ar"/><use transform="matrix(0.009114583333333334,0,0,0.009114583333333334,34.352864583333336,0)" xlink:href="#al"/></g><g id="n"><use transform="matrix(0.009114583333333334,0,0,0.009114583333333334,0,0)" xlink:href="#aj"/><use transform="matrix(0.009114583333333334,0,0,0.009114583333333334,11.274739583333334,0)" xlink:href="#am"/><use transform="matrix(0.009114583333333334,0,0,0.009114583333333334,28.638020833333336,0)" xlink:href="#az"/><use transform="matrix(0.009114583333333334,0,0,0.009114583333333334,40.095052083333336,0)" xlink:href="#an"/><use transform="matrix(0.009114583333333334,0,0,0.009114583333333334,44.81640625,0)" xlink:href="#ap"/></g><g id="o"><use transform="matrix(0.009114583333333334,0,0,0.009114583333333334,0,0)" xlink:href="#an"/><use transform="matrix(0.009114583333333334,0,0,0.009114583333333334,4.721354166666667,0)" xlink:href="#ap"/><use transform="matrix(0.009114583333333334,0,0,0.009114583333333334,13.626302083333336,0)" xlink:href="#at"/><use transform="matrix(0.009114583333333334,0,0,0.009114583333333334,20.216145833333336,0)" xlink:href="#al"/></g><g id="p"><use transform="matrix(0.009114583333333334,0,0,0.009114583333333334,0,0)" xlink:href="#az"/><use transform="matrix(0.009114583333333334,0,0,0.009114583333333334,11.45703125,0)" xlink:href="#au"/><use transform="matrix(0.009114583333333334,0,0,0.009114583333333334,21.838541666666668,0)" xlink:href="#at"/><use transform="matrix(0.009114583333333334,0,0,0.009114583333333334,28.428385416666668,0)" xlink:href="#aq"/><use transform="matrix(0.009114583333333334,0,0,0.009114583333333334,39.88541666666667,0)" xlink:href="#ap"/></g><g id="q"><use transform="matrix(0.009114583333333334,0,0,0.009114583333333334,0,0)" xlink:href="#ai"/><use transform="matrix(0.009114583333333334,0,0,0.009114583333333334,9.688802083333334,0)" xlink:href="#aj"/><use transform="matrix(0.009114583333333334,0,0,0.009114583333333334,20.963541666666668,0)" xlink:href="#ak"/><use transform="matrix(0.009114583333333334,0,0,0.009114583333333334,28.209635416666668,0)" xlink:href="#al"/><use transform="matrix(0.009114583333333334,0,0,0.009114583333333334,38.68229166666667,0)" xlink:href="#am"/></g><g id="r"><use transform="matrix(0.009114583333333334,0,0,0.009114583333333334,0,0)" xlink:href="#an"/><use transform="matrix(0.009114583333333334,0,0,0.009114583333333334,4.721354166666667,0)" xlink:href="#ao"/><use transform="matrix(0.009114583333333334,0,0,0.009114583333333334,16.16015625,0)" xlink:href="#ap"/><use transform="matrix(0.009114583333333334,0,0,0.009114583333333334,25.065104166666668,0)" xlink:href="#aq"/><use transform="matrix(0.009114583333333334,0,0,0.009114583333333334,36.52213541666667,0)" xlink:href="#am"/></g><g id="s"><use transform="matrix(0.009114583333333334,0,0,0.009114583333333334,0,0)" xlink:href="#ap"/><use transform="matrix(0.009114583333333334,0,0,0.009114583333333334,8.904947916666668,0)" xlink:href="#aq"/><use transform="matrix(0.009114583333333334,0,0,0.009114583333333334,20.361979166666668,0)" xlink:href="#az"/><use transform="matrix(0.009114583333333334,0,0,0.009114583333333334,31.819010416666668,0)" xlink:href="#at"/></g><g id="t"><use transform="matrix(0.009114583333333334,0,0,0.009114583333333334,0,0)" xlink:href="#an"/><use transform="matrix(0.009114583333333334,0,0,0.009114583333333334,4.721354166666667,0)" xlink:href="#az"/></g><g id="u"><use transform="matrix(0.009114583333333334,0,0,0.009114583333333334,0,0)" xlink:href="#aw"/><use transform="matrix(0.009114583333333334,0,0,0.009114583333333334,8.88671875,0)" xlink:href="#aq"/><use transform="matrix(0.009114583333333334,0,0,0.009114583333333334,20.34375,0)" xlink:href="#as"/><use transform="matrix(0.009114583333333334,0,0,0.009114583333333334,25.065104166666668,0)" xlink:href="#ao"/><use transform="matrix(0.009114583333333334,0,0,0.009114583333333334,36.50390625,0)" xlink:href="#au"/></g><path d="M287-543c0 246 78 424 303 424 259 0 323-148 323-426 0-279-71-432-325-432-220 0-301 191-301 434zm-172-2c0-328 147-571 454-571 150 0 265 57 346 170h9l24-150h131V492H913c5-208-11-450 11-639h-13C834-36 719 20 565 20c-305 0-450-240-450-565" id="aA"/><g id="v"><use transform="matrix(0.009114583333333334,0,0,0.009114583333333334,0,0)" xlink:href="#aA"/><use transform="matrix(0.009114583333333334,0,0,0.009114583333333334,11.438802083333334,0)" xlink:href="#aq"/><use transform="matrix(0.009114583333333334,0,0,0.009114583333333334,22.895833333333336,0)" xlink:href="#an"/></g><g id="w"><use transform="matrix(0.009114583333333334,0,0,0.009114583333333334,0,0)" xlink:href="#aj"/><use transform="matrix(0.009114583333333334,0,0,0.009114583333333334,11.274739583333334,0)" xlink:href="#ax"/><use transform="matrix(0.009114583333333334,0,0,0.009114583333333334,17.600260416666668,0)" xlink:href="#ax"/><use transform="matrix(0.009114583333333334,0,0,0.009114583333333334,23.92578125,0)" xlink:href="#an"/><use transform="matrix(0.009114583333333334,0,0,0.009114583333333334,28.647135416666668,0)" xlink:href="#aw"/><use transform="matrix(0.009114583333333334,0,0,0.009114583333333334,37.53385416666667,0)" xlink:href="#an"/><use transform="matrix(0.009114583333333334,0,0,0.009114583333333334,42.255208333333336,0)" xlink:href="#au"/></g><g id="x"><use transform="matrix(0.009114583333333334,0,0,0.009114583333333334,0,0)" xlink:href="#ap"/><use transform="matrix(0.009114583333333334,0,0,0.009114583333333334,8.904947916666668,0)" xlink:href="#al"/><use transform="matrix(0.009114583333333334,0,0,0.009114583333333334,19.377604166666668,0)" xlink:href="#ar"/></g><g id="y"><use transform="matrix(0.009114583333333334,0,0,0.009114583333333334,0,0)" xlink:href="#ar"/><use transform="matrix(0.009114583333333334,0,0,0.009114583333333334,11.438802083333334,0)" xlink:href="#aj"/></g><g id="z"><use transform="matrix(0.009114583333333334,0,0,0.009114583333333334,0,0)" xlink:href="#al"/><use transform="matrix(0.009114583333333334,0,0,0.009114583333333334,10.47265625,0)" xlink:href="#an"/><use transform="matrix(0.009114583333333334,0,0,0.009114583333333334,15.194010416666668,0)" xlink:href="#aq"/><use transform="matrix(0.009114583333333334,0,0,0.009114583333333334,26.651041666666668,0)" xlink:href="#ap"/><use transform="matrix(0.009114583333333334,0,0,0.009114583333333334,35.555989583333336,0)" xlink:href="#am"/><use transform="matrix(0.009114583333333334,0,0,0.009114583333333334,52.919270833333336,0)" xlink:href="#aj"/><use transform="matrix(0.009114583333333334,0,0,0.009114583333333334,64.19401041666667,0)" xlink:href="#ar"/></g><g id="A"><use transform="matrix(0.009114583333333334,0,0,0.009114583333333334,0,0)" xlink:href="#at"/><use transform="matrix(0.009114583333333334,0,0,0.009114583333333334,6.58984375,0)" xlink:href="#al"/><use transform="matrix(0.009114583333333334,0,0,0.009114583333333334,17.0625,0)" xlink:href="#am"/><use transform="matrix(0.009114583333333334,0,0,0.009114583333333334,34.42578125,0)" xlink:href="#ao"/><use transform="matrix(0.009114583333333334,0,0,0.009114583333333334,45.864583333333336,0)" xlink:href="#aj"/><use transform="matrix(0.009114583333333334,0,0,0.009114583333333334,57.13932291666667,0)" xlink:href="#ak"/></g><path d="M1016 0H201v-1462h815v151H371v471h606v150H371v538h645V0" id="aB"/><path d="M440-561L59-1096h189l289 420 288-420h187L631-561 1032 0H844L537-444 227 0H39" id="aC"/><g id="B"><use transform="matrix(0.009114583333333334,0,0,0.009114583333333334,0,0)" xlink:href="#aB"/><use transform="matrix(0.009114583333333334,0,0,0.009114583333333334,10.381510416666668,0)" xlink:href="#aC"/><use transform="matrix(0.009114583333333334,0,0,0.009114583333333334,19.78776041666667,0)" xlink:href="#aw"/><use transform="matrix(0.009114583333333334,0,0,0.009114583333333334,28.67447916666667,0)" xlink:href="#al"/><use transform="matrix(0.009114583333333334,0,0,0.009114583333333334,39.14713541666667,0)" xlink:href="#ao"/><use transform="matrix(0.009114583333333334,0,0,0.009114583333333334,50.5859375,0)" xlink:href="#at"/><use transform="matrix(0.009114583333333334,0,0,0.009114583333333334,57.17578125000001,0)" xlink:href="#al"/><use transform="matrix(0.009114583333333334,0,0,0.009114583333333334,67.6484375,0)" xlink:href="#aq"/><use transform="matrix(0.009114583333333334,0,0,0.009114583333333334,79.10546875,0)" xlink:href="#ak"/></g><g id="C"><use transform="matrix(0.009114583333333334,0,0,0.009114583333333334,0,0)" xlink:href="#ap"/><use transform="matrix(0.009114583333333334,0,0,0.009114583333333334,8.904947916666668,0)" xlink:href="#an"/><use transform="matrix(0.009114583333333334,0,0,0.009114583333333334,13.626302083333336,0)" xlink:href="#az"/><use transform="matrix(0.009114583333333334,0,0,0.009114583333333334,25.083333333333336,0)" xlink:href="#at"/></g><g id="D"><use transform="matrix(0.009114583333333334,0,0,0.009114583333333334,0,0)" xlink:href="#aj"/><use transform="matrix(0.009114583333333334,0,0,0.009114583333333334,11.274739583333334,0)" xlink:href="#aw"/><use transform="matrix(0.009114583333333334,0,0,0.009114583333333334,20.161458333333336,0)" xlink:href="#aw"/><use transform="matrix(0.009114583333333334,0,0,0.009114583333333334,29.048177083333336,0)" xlink:href="#au"/><use transform="matrix(0.009114583333333334,0,0,0.009114583333333334,39.4296875,0)" xlink:href="#al"/><use transform="matrix(0.009114583333333334,0,0,0.009114583333333334,49.90234375,0)" xlink:href="#aw"/><use transform="matrix(0.009114583333333334,0,0,0.009114583333333334,58.78906250000001,0)" xlink:href="#au"/><use transform="matrix(0.009114583333333334,0,0,0.009114583333333334,69.17057291666667,0)" xlink:href="#at"/></g><g id="E"><use transform="matrix(0.009114583333333334,0,0,0.009114583333333334,0,0)" xlink:href="#aw"/><use transform="matrix(0.009114583333333334,0,0,0.009114583333333334,8.88671875,0)" xlink:href="#aj"/><use transform="matrix(0.009114583333333334,0,0,0.009114583333333334,20.161458333333336,0)" xlink:href="#az"/><use transform="matrix(0.009114583333333334,0,0,0.009114583333333334,31.618489583333336,0)" xlink:href="#ap"/><use transform="matrix(0.009114583333333334,0,0,0.009114583333333334,40.5234375,0)" xlink:href="#al"/><use transform="matrix(0.009114583333333334,0,0,0.009114583333333334,50.99609375,0)" xlink:href="#aw"/><use transform="matrix(0.009114583333333334,0,0,0.009114583333333334,59.88281250000001,0)" xlink:href="#at"/><use transform="matrix(0.009114583333333334,0,0,0.009114583333333334,66.47265625,0)" xlink:href="#al"/><use transform="matrix(0.009114583333333334,0,0,0.009114583333333334,76.9453125,0)" xlink:href="#at"/><use transform="matrix(0.009114583333333334,0,0,0.009114583333333334,83.53515625,0)" xlink:href="#aq"/><use transform="matrix(0.009114583333333334,0,0,0.009114583333333334,94.9921875,0)" xlink:href="#ak"/></g><g id="F"><use transform="matrix(0.009114583333333334,0,0,0.009114583333333334,0,0)" xlink:href="#au"/><use transform="matrix(0.009114583333333334,0,0,0.009114583333333334,10.381510416666668,0)" xlink:href="#ar"/><use transform="matrix(0.009114583333333334,0,0,0.009114583333333334,21.8203125,0)" xlink:href="#an"/><use transform="matrix(0.009114583333333334,0,0,0.009114583333333334,26.541666666666668,0)" xlink:href="#ao"/><use transform="matrix(0.009114583333333334,0,0,0.009114583333333334,37.98046875,0)" xlink:href="#an"/><use transform="matrix(0.009114583333333334,0,0,0.009114583333333334,42.701822916666664,0)" xlink:href="#ap"/><use transform="matrix(0.009114583333333334,0,0,0.009114583333333334,51.60677083333333,0)" xlink:href="#aw"/><use transform="matrix(0.009114583333333334,0,0,0.009114583333333334,60.49348958333333,0)" xlink:href="#an"/><use transform="matrix(0.009114583333333334,0,0,0.009114583333333334,65.21484375,0)" xlink:href="#az"/><use transform="matrix(0.009114583333333334,0,0,0.009114583333333334,76.671875,0)" xlink:href="#ay"/></g><g id="G"><use transform="matrix(0.009114583333333334,0,0,0.009114583333333334,0,0)" xlink:href="#al"/><use transform="matrix(0.009114583333333334,0,0,0.009114583333333334,10.47265625,0)" xlink:href="#as"/><use transform="matrix(0.009114583333333334,0,0,0.009114583333333334,15.194010416666668,0)" xlink:href="#an"/><use transform="matrix(0.009114583333333334,0,0,0.009114583333333334,19.915364583333336,0)" xlink:href="#at"/></g><path d="M649-1462c450-4 719 268 719 717 0 484-276 748-762 745H201v-1462h448zM578-147c400 1 610-197 610-592 1-379-192-576-570-576H371v1168h207" id="aD"/><g id="H"><use transform="matrix(0.009114583333333334,0,0,0.009114583333333334,0,0)" xlink:href="#aD"/><use transform="matrix(0.009114583333333334,0,0,0.009114583333333334,13.608072916666668,0)" xlink:href="#aq"/><use transform="matrix(0.009114583333333334,0,0,0.009114583333333334,25.065104166666668,0)" xlink:href="#an"/><use transform="matrix(0.009114583333333334,0,0,0.009114583333333334,29.786458333333336,0)" xlink:href="#ap"/></g><g id="I"><use transform="matrix(0.009114583333333334,0,0,0.009114583333333334,0,0)" xlink:href="#au"/><use transform="matrix(0.009114583333333334,0,0,0.009114583333333334,10.381510416666668,0)" xlink:href="#aq"/><use transform="matrix(0.009114583333333334,0,0,0.009114583333333334,21.838541666666668,0)" xlink:href="#at"/><use transform="matrix(0.009114583333333334,0,0,0.009114583333333334,28.428385416666668,0)" xlink:href="#al"/></g><g id="J"><use transform="matrix(0.009114583333333334,0,0,0.009114583333333334,0,0)" xlink:href="#an"/><use transform="matrix(0.009114583333333334,0,0,0.009114583333333334,4.721354166666667,0)" xlink:href="#ak"/><use transform="matrix(0.009114583333333334,0,0,0.009114583333333334,12.341145833333334,0)" xlink:href="#aq"/><use transform="matrix(0.009114583333333334,0,0,0.009114583333333334,23.798177083333336,0)" xlink:href="#ak"/><use transform="matrix(0.009114583333333334,0,0,0.009114583333333334,31.044270833333336,0)" xlink:href="#al"/></g><g id="K"><use transform="matrix(0.009114583333333334,0,0,0.009114583333333334,0,0)" xlink:href="#ar"/><use transform="matrix(0.009114583333333334,0,0,0.009114583333333334,11.438802083333334,0)" xlink:href="#aj"/><use transform="matrix(0.009114583333333334,0,0,0.009114583333333334,22.713541666666668,0)" xlink:href="#as"/><use transform="matrix(0.009114583333333334,0,0,0.009114583333333334,27.434895833333336,0)" xlink:href="#aj"/><use transform="matrix(0.009114583333333334,0,0,0.009114583333333334,38.70963541666667,0)" xlink:href="#ak"/></g><g id="L"><use transform="matrix(0.009114583333333334,0,0,0.009114583333333334,0,0)" xlink:href="#an"/><use transform="matrix(0.009114583333333334,0,0,0.009114583333333334,4.721354166666667,0)" xlink:href="#az"/><use transform="matrix(0.009114583333333334,0,0,0.009114583333333334,16.178385416666668,0)" xlink:href="#aw"/><use transform="matrix(0.009114583333333334,0,0,0.009114583333333334,25.065104166666668,0)" xlink:href="#an"/><use transform="matrix(0.009114583333333334,0,0,0.009114583333333334,29.786458333333336,0)" xlink:href="#ar"/><use transform="matrix(0.009114583333333334,0,0,0.009114583333333334,41.22526041666667,0)" xlink:href="#an"/><use transform="matrix(0.009114583333333334,0,0,0.009114583333333334,45.946614583333336,0)" xlink:href="#ar"/><use transform="matrix(0.009114583333333334,0,0,0.009114583333333334,57.38541666666667,0)" xlink:href="#aq"/><use transform="matrix(0.009114583333333334,0,0,0.009114583333333334,68.84244791666667,0)" xlink:href="#az"/><use transform="matrix(0.009114583333333334,0,0,0.009114583333333334,80.29947916666667,0)" xlink:href="#at"/></g><g id="M"><use transform="matrix(0.009114583333333334,0,0,0.009114583333333334,0,0)" xlink:href="#aq"/><use transform="matrix(0.009114583333333334,0,0,0.009114583333333334,11.45703125,0)" xlink:href="#at"/></g><path d="M686 20c-159 0-273-61-344-161h-12L295 0H176v-1556h166c-2 198 6 423-8 606h8c77-109 192-164 344-164 310 0 455 234 455 565 0 329-147 569-455 569zm283-571c0-257-72-424-307-424-256 0-320 146-320 426s68 430 324 430c228 0 303-184 303-432" id="aE"/><g id="N"><use transform="matrix(0.009114583333333334,0,0,0.009114583333333334,0,0)" xlink:href="#as"/><use transform="matrix(0.009114583333333334,0,0,0.009114583333333334,4.721354166666667,0)" xlink:href="#au"/><use transform="matrix(0.009114583333333334,0,0,0.009114583333333334,15.102864583333336,0)" xlink:href="#aE"/><use transform="matrix(0.009114583333333334,0,0,0.009114583333333334,26.54166666666667,0)" xlink:href="#aj"/><use transform="matrix(0.009114583333333334,0,0,0.009114583333333334,37.816406250000014,0)" xlink:href="#ak"/><use transform="matrix(0.009114583333333334,0,0,0.009114583333333334,45.062500000000014,0)" xlink:href="#al"/></g><g id="O"><use transform="matrix(0.009114583333333334,0,0,0.009114583333333334,0,0)" xlink:href="#al"/><use transform="matrix(0.009114583333333334,0,0,0.009114583333333334,10.47265625,0)" xlink:href="#at"/></g><g id="P"><use transform="matrix(0.009114583333333334,0,0,0.009114583333333334,0,0)" xlink:href="#az"/><use transform="matrix(0.009114583333333334,0,0,0.009114583333333334,11.45703125,0)" xlink:href="#aj"/><use transform="matrix(0.009114583333333334,0,0,0.009114583333333334,22.731770833333336,0)" xlink:href="#az"/></g><g id="Q"><use transform="matrix(0.009114583333333334,0,0,0.009114583333333334,0,0)" xlink:href="#az"/><use transform="matrix(0.009114583333333334,0,0,0.009114583333333334,11.45703125,0)" xlink:href="#aq"/><use transform="matrix(0.009114583333333334,0,0,0.009114583333333334,22.9140625,0)" xlink:href="#am"/><use transform="matrix(0.009114583333333334,0,0,0.009114583333333334,40.27734375,0)" xlink:href="#aA"/><use transform="matrix(0.009114583333333334,0,0,0.009114583333333334,51.716145833333336,0)" xlink:href="#aq"/><use transform="matrix(0.009114583333333334,0,0,0.009114583333333334,63.173177083333336,0)" xlink:href="#au"/><use transform="matrix(0.009114583333333334,0,0,0.009114583333333334,73.5546875,0)" xlink:href="#am"/></g><g id="R"><use transform="matrix(0.009114583333333334,0,0,0.009114583333333334,0,0)" xlink:href="#al"/><use transform="matrix(0.009114583333333334,0,0,0.009114583333333334,10.47265625,0)" xlink:href="#an"/><use transform="matrix(0.009114583333333334,0,0,0.009114583333333334,15.194010416666668,0)" xlink:href="#aq"/><use transform="matrix(0.009114583333333334,0,0,0.009114583333333334,26.651041666666668,0)" xlink:href="#ap"/></g><g id="S"><use transform="matrix(0.009114583333333334,0,0,0.009114583333333334,0,0)" xlink:href="#am"/><use transform="matrix(0.009114583333333334,0,0,0.009114583333333334,17.36328125,0)" xlink:href="#aj"/><use transform="matrix(0.009114583333333334,0,0,0.009114583333333334,28.638020833333336,0)" xlink:href="#ar"/><use transform="matrix(0.009114583333333334,0,0,0.009114583333333334,40.07682291666667,0)" xlink:href="#an"/></g><g id="T"><use transform="matrix(0.009114583333333334,0,0,0.009114583333333334,0,0)" xlink:href="#at"/><use transform="matrix(0.009114583333333334,0,0,0.009114583333333334,6.58984375,0)" xlink:href="#al"/><use transform="matrix(0.009114583333333334,0,0,0.009114583333333334,17.0625,0)" xlink:href="#am"/><use transform="matrix(0.009114583333333334,0,0,0.009114583333333334,34.42578125,0)" xlink:href="#ao"/><use transform="matrix(0.009114583333333334,0,0,0.009114583333333334,45.864583333333336,0)" xlink:href="#aj"/><use transform="matrix(0.009114583333333334,0,0,0.009114583333333334,57.13932291666667,0)" xlink:href="#ak"/><use transform="matrix(0.009114583333333334,0,0,0.009114583333333334,64.38541666666667,0)" xlink:href="#au"/></g><g id="U"><use transform="matrix(0.009114583333333334,0,0,0.009114583333333334,0,0)" xlink:href="#an"/><use transform="matrix(0.009114583333333334,0,0,0.009114583333333334,4.721354166666667,0)" xlink:href="#az"/><use transform="matrix(0.009114583333333334,0,0,0.009114583333333334,16.178385416666668,0)" xlink:href="#aw"/><use transform="matrix(0.009114583333333334,0,0,0.009114583333333334,25.065104166666668,0)" xlink:href="#an"/><use transform="matrix(0.009114583333333334,0,0,0.009114583333333334,29.786458333333336,0)" xlink:href="#ar"/><use transform="matrix(0.009114583333333334,0,0,0.009114583333333334,41.22526041666667,0)" xlink:href="#aq"/><use transform="matrix(0.009114583333333334,0,0,0.009114583333333334,52.68229166666667,0)" xlink:href="#az"/><use transform="matrix(0.009114583333333334,0,0,0.009114583333333334,64.13932291666667,0)" xlink:href="#at"/></g><path d="M63 264c30-115 88-378 105-502h182l15 23C327-69 250 132 188 264H63" id="aF"/><g id="V"><use transform="matrix(0.009114583333333334,0,0,0.009114583333333334,0,0)" xlink:href="#aw"/><use transform="matrix(0.009114583333333334,0,0,0.009114583333333334,8.88671875,0)" xlink:href="#aj"/><use transform="matrix(0.009114583333333334,0,0,0.009114583333333334,20.161458333333336,0)" xlink:href="#az"/><use transform="matrix(0.009114583333333334,0,0,0.009114583333333334,31.618489583333336,0)" xlink:href="#ap"/><use transform="matrix(0.009114583333333334,0,0,0.009114583333333334,40.5234375,0)" xlink:href="#al"/><use transform="matrix(0.009114583333333334,0,0,0.009114583333333334,50.99609375,0)" xlink:href="#aw"/><use transform="matrix(0.009114583333333334,0,0,0.009114583333333334,59.88281250000001,0)" xlink:href="#at"/><use transform="matrix(0.009114583333333334,0,0,0.009114583333333334,66.47265625,0)" xlink:href="#al"/><use transform="matrix(0.009114583333333334,0,0,0.009114583333333334,76.9453125,0)" xlink:href="#at"/><use transform="matrix(0.009114583333333334,0,0,0.009114583333333334,83.53515625,0)" xlink:href="#aq"/><use transform="matrix(0.009114583333333334,0,0,0.009114583333333334,94.9921875,0)" xlink:href="#ak"/><use transform="matrix(0.009114583333333334,0,0,0.009114583333333334,102.61197916666667,0)" xlink:href="#aF"/></g><g id="W"><use transform="matrix(0.009114583333333334,0,0,0.009114583333333334,0,0)" xlink:href="#au"/><use transform="matrix(0.009114583333333334,0,0,0.009114583333333334,10.381510416666668,0)" xlink:href="#ar"/><use transform="matrix(0.009114583333333334,0,0,0.009114583333333334,21.8203125,0)" xlink:href="#an"/><use transform="matrix(0.009114583333333334,0,0,0.009114583333333334,26.541666666666668,0)" xlink:href="#ao"/><use transform="matrix(0.009114583333333334,0,0,0.009114583333333334,37.98046875,0)" xlink:href="#an"/><use transform="matrix(0.009114583333333334,0,0,0.009114583333333334,42.701822916666664,0)" xlink:href="#ap"/><use transform="matrix(0.009114583333333334,0,0,0.009114583333333334,51.60677083333333,0)" xlink:href="#aw"/><use transform="matrix(0.009114583333333334,0,0,0.009114583333333334,60.49348958333333,0)" xlink:href="#an"/></g><g id="X"><use transform="matrix(0.009114583333333334,0,0,0.009114583333333334,0,0)" xlink:href="#av"/><use transform="matrix(0.009114583333333334,0,0,0.009114583333333334,9.3515625,0)" xlink:href="#al"/><use transform="matrix(0.009114583333333334,0,0,0.009114583333333334,19.82421875,0)" xlink:href="#as"/><use transform="matrix(0.009114583333333334,0,0,0.009114583333333334,24.545572916666668,0)" xlink:href="#an"/><use transform="matrix(0.009114583333333334,0,0,0.009114583333333334,29.266927083333336,0)" xlink:href="#at"/><use transform="matrix(0.009114583333333334,0,0,0.009114583333333334,35.856770833333336,0)" xlink:href="#aF"/></g><g id="Y"><use transform="matrix(0.009114583333333334,0,0,0.009114583333333334,0,0)" xlink:href="#ap"/><use transform="matrix(0.009114583333333334,0,0,0.009114583333333334,8.904947916666668,0)" xlink:href="#al"/><use transform="matrix(0.009114583333333334,0,0,0.009114583333333334,19.377604166666668,0)" xlink:href="#ar"/></g><g id="Z"><use transform="matrix(0.009114583333333334,0,0,0.009114583333333334,0,0)" xlink:href="#aA"/><use transform="matrix(0.009114583333333334,0,0,0.009114583333333334,11.438802083333334,0)" xlink:href="#aq"/><use transform="matrix(0.009114583333333334,0,0,0.009114583333333334,22.895833333333336,0)" xlink:href="#an"/><use transform="matrix(0.009114583333333334,0,0,0.009114583333333334,27.6171875,0)" xlink:href="#au"/></g><g id="aa"><use transform="matrix(0.009114583333333334,0,0,0.009114583333333334,0,0)" xlink:href="#az"/><use transform="matrix(0.009114583333333334,0,0,0.009114583333333334,11.45703125,0)" xlink:href="#an"/><use transform="matrix(0.009114583333333334,0,0,0.009114583333333334,16.178385416666668,0)" xlink:href="#ap"/><use transform="matrix(0.009114583333333334,0,0,0.009114583333333334,25.083333333333336,0)" xlink:href="#an"/></g><g id="ab"><use transform="matrix(0.009114583333333334,0,0,0.009114583333333334,0,0)" xlink:href="#aq"/><use transform="matrix(0.009114583333333334,0,0,0.009114583333333334,11.45703125,0)" xlink:href="#at"/></g><g id="ac"><use transform="matrix(0.009114583333333334,0,0,0.009114583333333334,0,0)" xlink:href="#au"/><use transform="matrix(0.009114583333333334,0,0,0.009114583333333334,10.381510416666668,0)" xlink:href="#as"/><use transform="matrix(0.009114583333333334,0,0,0.009114583333333334,15.102864583333336,0)" xlink:href="#an"/><use transform="matrix(0.009114583333333334,0,0,0.009114583333333334,19.824218750000007,0)" xlink:href="#aA"/><use transform="matrix(0.009114583333333334,0,0,0.009114583333333334,31.263020833333336,0)" xlink:href="#aq"/><use transform="matrix(0.009114583333333334,0,0,0.009114583333333334,42.720052083333336,0)" xlink:href="#an"/><use transform="matrix(0.009114583333333334,0,0,0.009114583333333334,47.44140625,0)" xlink:href="#ar"/></g><g id="ad"><use transform="matrix(0.009114583333333334,0,0,0.009114583333333334,0,0)" xlink:href="#al"/><use transform="matrix(0.009114583333333334,0,0,0.009114583333333334,10.098958333333334,0)" xlink:href="#aC"/></g><g id="ae"><use transform="matrix(0.009114583333333334,0,0,0.009114583333333334,0,0)" xlink:href="#al"/><use transform="matrix(0.009114583333333334,0,0,0.009114583333333334,10.47265625,0)" xlink:href="#au"/></g><g id="af"><use transform="matrix(0.009114583333333334,0,0,0.009114583333333334,0,0)" xlink:href="#aw"/><use transform="matrix(0.009114583333333334,0,0,0.009114583333333334,8.88671875,0)" xlink:href="#aj"/><use transform="matrix(0.009114583333333334,0,0,0.009114583333333334,20.161458333333336,0)" xlink:href="#am"/><use transform="matrix(0.009114583333333334,0,0,0.009114583333333334,37.524739583333336,0)" xlink:href="#am"/><use transform="matrix(0.009114583333333334,0,0,0.009114583333333334,54.888020833333336,0)" xlink:href="#aj"/><use transform="matrix(0.009114583333333334,0,0,0.009114583333333334,66.16276041666667,0)" xlink:href="#ar"/><use transform="matrix(0.009114583333333334,0,0,0.009114583333333334,77.6015625,0)" xlink:href="#an"/></g><g id="ag"><use transform="matrix(0.009114583333333334,0,0,0.009114583333333334,0,0)" xlink:href="#aw"/><use transform="matrix(0.009114583333333334,0,0,0.009114583333333334,8.88671875,0)" xlink:href="#aj"/><use transform="matrix(0.009114583333333334,0,0,0.009114583333333334,20.161458333333336,0)" xlink:href="#az"/><use transform="matrix(0.009114583333333334,0,0,0.009114583333333334,31.618489583333336,0)" xlink:href="#ap"/><use transform="matrix(0.009114583333333334,0,0,0.009114583333333334,40.5234375,0)" xlink:href="#al"/><use transform="matrix(0.009114583333333334,0,0,0.009114583333333334,50.99609375,0)" xlink:href="#aA"/><use transform="matrix(0.009114583333333334,0,0,0.009114583333333334,62.434895833333336,0)" xlink:href="#aq"/><use transform="matrix(0.009114583333333334,0,0,0.009114583333333334,73.89192708333334,0)" xlink:href="#au"/><use transform="matrix(0.009114583333333334,0,0,0.009114583333333334,84.27343750000003,0)" xlink:href="#at"/><use transform="matrix(0.009114583333333334,0,0,0.009114583333333334,90.86328125000003,0)" xlink:href="#aq"/><use transform="matrix(0.009114583333333334,0,0,0.009114583333333334,102.3203125,0)" xlink:href="#ak"/></g><g id="ah"><use transform="matrix(0.009114583333333334,0,0,0.009114583333333334,0,0)" xlink:href="#ar"/><use transform="matrix(0.009114583333333334,0,0,0.009114583333333334,11.438802083333334,0)" xlink:href="#aj"/><use transform="matrix(0.009114583333333334,0,0,0.009114583333333334,22.713541666666668,0)" xlink:href="#as"/><use transform="matrix(0.009114583333333334,0,0,0.009114583333333334,27.434895833333336,0)" xlink:href="#aj"/><use transform="matrix(0.009114583333333334,0,0,0.009114583333333334,38.70963541666667,0)" xlink:href="#ak"/></g></defs></g></svg>