<svg xmlns="http://www.w3.org/2000/svg" xmlns:lucid="lucid" width="1340" height="160"><g lucid:page-tab-id="0HwHlaYU_0qR" stroke-width="3"><path d="M180 26c0-3.3 2.7-6 6-6h108c3.3 0 6 2.7 6 6v108c0 3.3-2.7 6-6 6H186c-3.3 0-6-2.7-6-6z" stroke="#0c7cba" fill="#83bbe5"/><path d="M320 26c0-3.3 2.7-6 6-6h108c3.3 0 6 2.7 6 6v108c0 3.3-2.7 6-6 6H326c-3.3 0-6-2.7-6-6z" stroke="#c92d39" fill="#ff8f80"/><path d="M620 26c0-3.3 2.7-6 6-6h108c3.3 0 6 2.7 6 6v108c0 3.3-2.7 6-6 6H626c-3.3 0-6-2.7-6-6z" stroke="#999" fill="#ccc"/><path d="M20 26c0-3.3 2.7-6 6-6h108c3.3 0 6 2.7 6 6v108c0 3.3-2.7 6-6 6H26c-3.3 0-6-2.7-6-6z" stroke="#834187" fill="#b391b5"/><path d="M460 26c0-3.3 2.7-6 6-6h108c3.3 0 6 2.7 6 6v108c0 3.3-2.7 6-6 6H466c-3.3 0-6-2.7-6-6z" stroke="#7ab648" fill="#a3d977"/><path d="M920 26c0-3.3 2.7-6 6-6h108c3.3 0 6 2.7 6 6v108c0 3.3-2.7 6-6 6H926c-3.3 0-6-2.7-6-6z" stroke="#fcce14" fill="#ffe342"/><path d="M780 26c0-3.3 2.7-6 6-6h108c3.3 0 6 2.7 6 6v108c0 3.3-2.7 6-6 6H786c-3.3 0-6-2.7-6-6z" stroke="#de5f85" fill="#f5b5c8"/><path d="M1200 26c0-3.3 2.7-6 6-6h108c3.3 0 6 2.7 6 6v108c0 3.3-2.7 6-6 6h-108c-3.3 0-6-2.7-6-6z" stroke="#19967d" fill="#5abaa7"/><path d="M1060 26c0-3.3 2.7-6 6-6h108c3.3 0 6 2.7 6 6v108c0 3.3-2.7 6-6 6h-108c-3.3 0-6-2.7-6-6z" stroke="#3aa6dd" fill="#99d2f2"/></g></svg>