<svg xmlns="http://www.w3.org/2000/svg" xmlns:xlink="http://www.w3.org/1999/xlink" version="1.1" viewBox="0 0 3049 843" style="background: #ffffff"><g id="v-3"  transform="matrix(1,0,0,1,0,0)"><g id="j_10"    transform="translate(20,798)"><g id="v-138"><text  id="v-139" font-size="22px" y="0.8em" xml:space="preserve" font-weight="normal" text-anchor="start" fill="#aaaaaa" pointer-events="none" font-family="Open Sans" transform="matrix(1,0,0,1,0,0)" display="block"><tspan id="v-140"  dy="0em" x="0">Thursday, March 2, 2023 at 1:52 PM Central European Standard Time</tspan></text></g></g><g id="j_9"    transform="translate(20,752)"><g id="v-134"><text  id="v-135" font-size="36px" y="0.8em" xml:space="preserve" font-weight="normal" text-anchor="start" fill="#000000" pointer-events="none" font-family="Open Sans" transform="matrix(1,0,0,1,0,0)" display="block"><tspan id="v-136"  dy="0em" x="0">[System Landscape] DAEDALUS</tspan></text></g></g><g id="j_3"    transform="translate(1629,229)" style=""><g id="v-33"><rect  id="v-34" width="490" height="413" rx="0" ry="0" fill="#ffffff" stroke="#444444" stroke-width="1" stroke-dasharray="20,20" pointer-events="none"></rect><text  id="v-35" font-size="24px" y="374" xml:space="preserve" font-weight="normal" fill="#444444" x="10" text-anchor="start" pointer-events="visible" font-family="Open Sans" transform="matrix(1,0,0,1,15,0)"><tspan id="v-38"  dy="0em" x="0">DAEDALUS</tspan></text><text  id="v-36" font-size="19px" y="398" xml:space="preserve" font-weight="normal" fill="#444444" x="10" text-anchor="start" pointer-events="visible" font-family="Open Sans" transform="matrix(1,0,0,1,15,0)"><tspan id="v-39"  dy="0em" x="0">[Enterprise]</tspan></text><image  id="v-37" pointer-events="visible"></image></g></g><g id="j_1"    transform="translate(199,199)" style=""><g  id="v-8" style="opacity: 1;"><rect  x="0" y="160" width="400" height="240" rx="70" id="v-10" stroke="#834187" stroke-width="8" pointer-events="visiblePainted" fill="#f4d9ff" style="fill: rgb(244, 217, 255); stroke: rgb(131, 65, 135);"></rect><circle  cx="200" cy="88.88888888888889" r="88.88888888888889" id="v-9" stroke="#834187" stroke-width="8" pointer-events="visiblePainted" fill="#f4d9ff" style="fill: rgb(244, 217, 255); stroke: rgb(131, 65, 135);"></circle><line  x1="80" y1="266.6666666666667" x2="80" y2="400" id="v-16" stroke="#834187" stroke-width="8" style="stroke: rgb(131, 65, 135);"></line><line  x1="320" y1="266.6666666666667" x2="320" y2="400" id="v-17" stroke="#834187" stroke-width="8" style="stroke: rgb(131, 65, 135);"></line><text  id="v-11" font-size="34px" y="0.8em" xml:space="preserve" font-weight="bold" text-anchor="middle" pointer-events="visible" font-family="Open Sans" fill="#000000" transform="matrix(1,0,0,1,200,220)" style="fill: rgb(0, 0, 0);"><tspan id="v-18"  dy="0em" x="0">Architect</tspan></text><text  id="v-12" font-size="19px" y="0.8em" xml:space="preserve" text-anchor="middle" font-family="Open Sans" fill="#000000" transform="matrix(1,0,0,1,200,262.5)" style="fill: rgb(0, 0, 0);"><tspan id="v-19"  dy="0em" x="0">[Person]</tspan></text><text  id="v-13" font-size="24px" y="0.8em" xml:space="preserve" text-anchor="middle" font-family="Open Sans" fill="#000000" transform="matrix(1,0,0,1,200,310)" style="fill: rgb(0, 0, 0);"><tspan id="v-20"  dy="0em" x="0">Crafts architecture as code.</tspan></text><text  id="v-14" font-weight="bold" text-anchor="middle" font-family="Open Sans" fill="#000000" font-size="24" transform="matrix(1,0,0,1,200,371.2)" style="fill: rgb(0, 0, 0);" display="none"></text><image  id="v-15"></image></g></g><g id="j_2"    transform="translate(1649,249)" style="" ><g  id="v-22" style="opacity: 1;"><rect  id="v-23" rx="1" ry="1" stroke="#0c7cba" stroke-width="8" pointer-events="visiblePainted" fill="#cfe4ff" width="450" height="300" style="fill: rgb(207, 228, 255); stroke: rgb(12, 124, 186);"></rect><text  id="v-24" font-size="34" y="0.8em" xml:space="preserve" font-weight="bold" text-anchor="middle" pointer-events="visible" font-family="Open Sans" fill="#000000" transform="matrix(1,0,0,1,225,90)" style="fill: rgb(0, 0, 0);"><tspan id="v-29"  dy="0em" x="0">Cornifer</tspan></text><text  id="v-25" font-size="19" y="0.8em" xml:space="preserve" text-anchor="middle" font-family="Open Sans" fill="#000000" transform="matrix(1,0,0,1,225,132.5)" style="fill: rgb(0, 0, 0);"><tspan id="v-30"  dy="0em" x="0">[Software System]</tspan></text><text  id="v-26" font-size="24" y="0.8em" xml:space="preserve" text-anchor="middle" font-family="Open Sans" fill="#000000" transform="matrix(1,0,0,1,225,180)" style="fill: rgb(0, 0, 0);"><tspan id="v-31"  dy="0em" x="0">C4 unleashed. Period.</tspan></text><text  id="v-27" font-weight="bold" text-anchor="middle" font-family="Open Sans" fill="#000000" font-size="24" transform="matrix(1,0,0,1,225,270)" y="0.8em" xml:space="preserve" display="none" style="fill: rgb(0, 0, 0);"><tspan id="v-40"  dy="0em" x="0">+</tspan></text><image  id="v-28"></image></g></g><g id="j_4"    transform="translate(2399,249)" style="" ><g  id="v-42" style="opacity: 1;"><rect  id="v-43" rx="1" ry="1" stroke="#666666" stroke-width="8" pointer-events="visiblePainted" fill="#f5f5f5" width="450" height="300" style="fill: rgb(245, 245, 245); stroke: rgb(102, 102, 102);"></rect><text  id="v-44" font-size="34" y="0.8em" xml:space="preserve" font-weight="bold" text-anchor="middle" pointer-events="visible" font-family="Open Sans" fill="#000000" transform="matrix(1,0,0,1,225,90)" style="fill: rgb(0, 0, 0);"><tspan id="v-49"  dy="0em" x="0">Structurizr</tspan></text><text  id="v-45" font-size="19" y="0.8em" xml:space="preserve" text-anchor="middle" font-family="Open Sans" fill="#000000" transform="matrix(1,0,0,1,225,132.5)" style="fill: rgb(0, 0, 0);"><tspan id="v-50"  dy="0em" x="0">[Software System]</tspan></text><text  id="v-46" font-size="24" y="0.8em" xml:space="preserve" text-anchor="middle" font-family="Open Sans" fill="#000000" transform="matrix(1,0,0,1,225,180)" style="fill: rgb(0, 0, 0);"><tspan id="v-51"  dy="0em" x="0">Diagrams as code 2.0.</tspan></text><text  id="v-47" font-weight="bold" text-anchor="middle" font-family="Open Sans" fill="#000000" font-size="24" transform="matrix(1,0,0,1,225,270)" y="0.8em" xml:space="preserve" display="none" style="fill: rgb(0, 0, 0);"><tspan id="v-52"  dy="0em" x="0">#</tspan></text><image  id="v-48"></image></g></g><g id="j_5"    transform="translate(899,249)" style="" ><g  id="v-54" style="opacity: 1;"><rect  id="v-55" rx="1" ry="1" stroke="#666666" stroke-width="8" pointer-events="visiblePainted" fill="#f5f5f5" width="450" height="300" style="fill: rgb(245, 245, 245); stroke: rgb(102, 102, 102);"></rect><text  id="v-56" font-size="34" y="0.8em" xml:space="preserve" font-weight="bold" text-anchor="middle" pointer-events="visible" font-family="Open Sans" fill="#000000" transform="matrix(1,0,0,1,225,90)" style="fill: rgb(0, 0, 0);"><tspan id="v-61"  dy="0em" x="0">VS Code</tspan></text><text  id="v-57" font-size="19" y="0.8em" xml:space="preserve" text-anchor="middle" font-family="Open Sans" fill="#000000" transform="matrix(1,0,0,1,225,132.5)" style="fill: rgb(0, 0, 0);"><tspan id="v-62"  dy="0em" x="0">[Software System]</tspan></text><text  id="v-58" font-size="24" y="0.8em" xml:space="preserve" text-anchor="middle" font-family="Open Sans" fill="#000000" transform="matrix(1,0,0,1,225,180)" style="fill: rgb(0, 0, 0);"><tspan id="v-63"  dy="0em" x="0">Code editing.Redefined.</tspan></text><text  id="v-59" font-weight="bold" text-anchor="middle" font-family="Open Sans" fill="#000000" font-size="24" transform="matrix(1,0,0,1,225,270)" y="0.8em" xml:space="preserve" display="none" style="fill: rgb(0, 0, 0);"><tspan id="v-64"  dy="0em" x="0">#</tspan></text><image  id="v-60"></image></g></g><g id="j_6"   ><path  stroke="#707070" id="v-82" stroke-width="2" stroke-dasharray="30 30" fill="none" d="M 2099 399 2379 399" style="opacity: 1;"></path><path  fill="black" stroke="black" transform="translate(2099,399) scale(1,1) rotate(0)"></path><path  fill="#707070" stroke="#707070" id="v-84" d="M 20 0 L 0 10 L 20 20 z" transform="translate(2399,408.9999999999999) scale(1,1) rotate(-180)" style="opacity: 1;"></path><path  id="v-83" fill="none" d="M 2099 399 2379 399" style=""></path><title ></title><g ><g  id="v-70" label-idx="0" cursor="move" transform="translate(2239, 399)" style="opacity: 1;"><rect id="v-72" fill="#ffffff" rx="3" ry="3" stroke="#ffffff" stroke-width="20px" pointer-events="none" width="57.48411178588867" height="32.50893783569336" transform="matrix(1,0,0,1,-29.1,-16.2)"></rect><text id="v-71" font-size="24px" y="0.8em" xml:space="preserve" text-anchor="middle" pointer-events="none" fill="#707070" font-family="Open Sans" font-weight="normal" transform="matrix(1,0,0,1,0,-9.4)"><tspan id="v-73"  dy="0em" x="0">fuels</tspan></text></g><g  id="v-74" label-idx="1" cursor="move" transform="translate(2239, 430.2)" style="opacity: 1;"><rect id="v-76" fill="#ffffff" rx="3" ry="3" pointer-events="none" width="188.5482635498047" height="26.007150650024414" transform="matrix(1,0,0,1,-94.1,-13)"></rect><text id="v-75" font-size="19px" y="0.8em" xml:space="preserve" text-anchor="middle" pointer-events="none" fill="#707070" font-family="Open Sans" font-weight="normal" transform="matrix(1,0,0,1,0,-8.7)"><tspan id="v-77"  dy="0em" x="0">[workspace &amp; theme]</tspan></text></g><g  id="v-78" label-idx="2" cursor="move" transform="translate(2239, 454.2)" style="opacity: 1;"><rect id="v-80" fill="#ffffff" rx="3" ry="3" pointer-events="none"  display="none" width="0" height="0" transform="matrix(1,0,0,1,0,0)"></rect><text id="v-79" font-size="19px" y="0.8em" display="none" xml:space="preserve" text-anchor="middle" pointer-events="none" fill="#707070" font-family="Open Sans" font-weight="normal"  transform="matrix(1,0,0,1,0,0)"><tspan id="v-81"  dy="0em" x="0" style="fill-opacity: 0; stroke-opacity: 0;">-</tspan></text></g></g><g  display="none"></g><g  id="v-86" display="none"><g  id="v-67"><path  end="source" d="M 26 0 L 0 13 L 26 26 z"></path></g><g  id="v-68"><path  end="target" d="M 26 0 L 0 13 L 26 26 z"></path></g></g><g  id="v-85" display="none"><g  id="v-66" transform="translate(2139, 399) "><g  event="remove"><circle r="11"></circle><path transform="scale(.8) translate(-16, -16)" d="M24.778,21.419 19.276,15.917 24.777,10.415 21.949,7.585 16.447,13.087 10.945,7.585 8.117,10.415 13.618,15.917 8.116,21.419 10.946,24.248 16.447,18.746 21.948,24.248z"></path><title>Remove link.</title></g><g  event="link:options"><circle r="11" transform="translate(25)"></circle><path fill="white" transform="scale(.55) translate(29, -16)" d="M31.229,17.736c0.064-0.571,0.104-1.148,0.104-1.736s-0.04-1.166-0.104-1.737l-4.377-1.557c-0.218-0.716-0.504-1.401-0.851-2.05l1.993-4.192c-0.725-0.91-1.549-1.734-2.458-2.459l-4.193,1.994c-0.647-0.347-1.334-0.632-2.049-0.849l-1.558-4.378C17.165,0.708,16.588,0.667,16,0.667s-1.166,0.041-1.737,0.105L12.707,5.15c-0.716,0.217-1.401,0.502-2.05,0.849L6.464,4.005C5.554,4.73,4.73,5.554,4.005,6.464l1.994,4.192c-0.347,0.648-0.632,1.334-0.849,2.05l-4.378,1.557C0.708,14.834,0.667,15.412,0.667,16s0.041,1.165,0.105,1.736l4.378,1.558c0.217,0.715,0.502,1.401,0.849,2.049l-1.994,4.193c0.725,0.909,1.549,1.733,2.459,2.458l4.192-1.993c0.648,0.347,1.334,0.633,2.05,0.851l1.557,4.377c0.571,0.064,1.148,0.104,1.737,0.104c0.588,0,1.165-0.04,1.736-0.104l1.558-4.377c0.715-0.218,1.399-0.504,2.049-0.851l4.193,1.993c0.909-0.725,1.733-1.549,2.458-2.458l-1.993-4.193c0.347-0.647,0.633-1.334,0.851-2.049L31.229,17.736zM16,20.871c-2.69,0-4.872-2.182-4.872-4.871c0-2.69,2.182-4.872,4.872-4.872c2.689,0,4.871,2.182,4.871,4.872C20.871,18.689,18.689,20.871,16,20.871z"></path><title>Link options.</title></g></g></g></g><g id="j_7"   ><path  stroke="#707070" id="v-104" stroke-width="2" stroke-dasharray="30 30" fill="none" d="M 1349 399 1629 399" style="opacity: 1;"></path><path  fill="black" stroke="black" transform="translate(1349,399) scale(1,1) rotate(0)"></path><path  fill="#707070" stroke="#707070" id="v-106" d="M 20 0 L 0 10 L 20 20 z" transform="translate(1649,408.9999999999999) scale(1,1) rotate(-180)" style="opacity: 1;"></path><path  id="v-105" fill="none" d="M 1349 399 1629 399" style=""></path><title ></title><g ><g  id="v-92" label-idx="0" cursor="move" transform="translate(1489, 399)" style="opacity: 1;"><rect id="v-94" fill="#ffffff" rx="3" ry="3" stroke="#ffffff" stroke-width="20px" pointer-events="none" width="107.62269592285156" height="32.50893783569336" transform="matrix(1,0,0,1,-53,-16.2)"></rect><text id="v-93" font-size="24px" y="0.8em" xml:space="preserve" text-anchor="middle" pointer-events="none" fill="#707070" font-family="Open Sans" font-weight="normal" transform="matrix(1,0,0,1,0,-9.4)"><tspan id="v-95"  dy="0em" x="0">leverages</tspan></text></g><g  id="v-96" label-idx="1" cursor="move" transform="translate(1489, 430.2)" style="opacity: 1;"><rect id="v-98" fill="#ffffff" rx="3" ry="3" pointer-events="none" width="110.32698059082031" height="26.007150650024414" transform="matrix(1,0,0,1,-55,-13)"></rect><text id="v-97" font-size="19px" y="0.8em" xml:space="preserve" text-anchor="middle" pointer-events="none" fill="#707070" font-family="Open Sans" font-weight="normal" transform="matrix(1,0,0,1,0,-8.7)"><tspan id="v-99"  dy="0em" x="0">[C4 support]</tspan></text></g><g  id="v-100" label-idx="2" cursor="move" transform="translate(1489, 454.2)" style="opacity: 1;"><rect id="v-102" fill="#ffffff" rx="3" ry="3" pointer-events="none"  display="none" width="0" height="0" transform="matrix(1,0,0,1,0,0)"></rect><text id="v-101" font-size="19px" y="0.8em" display="none" xml:space="preserve" text-anchor="middle" pointer-events="none" fill="#707070" font-family="Open Sans" font-weight="normal"  transform="matrix(1,0,0,1,0,0)"><tspan id="v-103"  dy="0em" x="0" style="fill-opacity: 0; stroke-opacity: 0;">-</tspan></text></g></g><g  display="none"></g><g  id="v-108" display="none"><g  id="v-89"><path  end="source" d="M 26 0 L 0 13 L 26 26 z"></path></g><g  id="v-90"><path  end="target" d="M 26 0 L 0 13 L 26 26 z"></path></g></g><g  id="v-107" display="none"><g  id="v-88" transform="translate(1389, 399) "><g  event="remove"><circle r="11"></circle><path transform="scale(.8) translate(-16, -16)" d="M24.778,21.419 19.276,15.917 24.777,10.415 21.949,7.585 16.447,13.087 10.945,7.585 8.117,10.415 13.618,15.917 8.116,21.419 10.946,24.248 16.447,18.746 21.948,24.248z"></path><title>Remove link.</title></g><g  event="link:options"><circle r="11" transform="translate(25)"></circle><path fill="white" transform="scale(.55) translate(29, -16)" d="M31.229,17.736c0.064-0.571,0.104-1.148,0.104-1.736s-0.04-1.166-0.104-1.737l-4.377-1.557c-0.218-0.716-0.504-1.401-0.851-2.05l1.993-4.192c-0.725-0.91-1.549-1.734-2.458-2.459l-4.193,1.994c-0.647-0.347-1.334-0.632-2.049-0.849l-1.558-4.378C17.165,0.708,16.588,0.667,16,0.667s-1.166,0.041-1.737,0.105L12.707,5.15c-0.716,0.217-1.401,0.502-2.05,0.849L6.464,4.005C5.554,4.73,4.73,5.554,4.005,6.464l1.994,4.192c-0.347,0.648-0.632,1.334-0.849,2.05l-4.378,1.557C0.708,14.834,0.667,15.412,0.667,16s0.041,1.165,0.105,1.736l4.378,1.558c0.217,0.715,0.502,1.401,0.849,2.049l-1.994,4.193c0.725,0.909,1.549,1.733,2.459,2.458l4.192-1.993c0.648,0.347,1.334,0.633,2.05,0.851l1.557,4.377c0.571,0.064,1.148,0.104,1.737,0.104c0.588,0,1.165-0.04,1.736-0.104l1.558-4.377c0.715-0.218,1.399-0.504,2.049-0.851l4.193,1.993c0.909-0.725,1.733-1.549,2.458-2.458l-1.993-4.193c0.347-0.647,0.633-1.334,0.851-2.049L31.229,17.736zM16,20.871c-2.69,0-4.872-2.182-4.872-4.871c0-2.69,2.182-4.872,4.872-4.872c2.689,0,4.871,2.182,4.871,4.872C20.871,18.689,18.689,20.871,16,20.871z"></path><title>Link options.</title></g></g></g></g><g id="j_8"   ><path  stroke="#707070" id="v-126" stroke-width="2" stroke-dasharray="30 30" fill="none" d="M 599 399 879 399" style="opacity: 1;"></path><path  fill="black" stroke="black" transform="translate(599,399) scale(1,1) rotate(0)"></path><path  fill="#707070" stroke="#707070" id="v-128" d="M 20 0 L 0 10 L 20 20 z" transform="translate(899,408.9999999999999) scale(1,1) rotate(-180)" style="opacity: 1;"></path><path  id="v-127" fill="none" d="M 599 399 879 399" style=""></path><title ></title><g ><g  id="v-114" label-idx="0" cursor="move" transform="translate(739, 399)" style="opacity: 1;"><rect id="v-116" fill="#ffffff" rx="3" ry="3" stroke="#ffffff" stroke-width="20px" pointer-events="none" width="52.62248992919922" height="32.50893783569336" transform="matrix(1,0,0,1,-25.5,-16.2)"></rect><text id="v-115" font-size="24px" y="0.8em" xml:space="preserve" text-anchor="middle" pointer-events="none" fill="#707070" font-family="Open Sans" font-weight="normal" transform="matrix(1,0,0,1,0,-9.4)"><tspan id="v-117"  dy="0em" x="0">uses</tspan></text></g><g  id="v-118" label-idx="1" cursor="move" transform="translate(739, 430.2)" style="opacity: 1;"><rect id="v-120" fill="#ffffff" rx="3" ry="3" pointer-events="none" width="0" height="0" transform="matrix(1,0,0,1,0,0)"></rect><text id="v-119" font-size="19px" y="0.8em" display="none" xml:space="preserve" text-anchor="middle" pointer-events="none" fill="#707070" font-family="Open Sans" font-weight="normal" transform="matrix(1,0,0,1,0,0)"><tspan id="v-121"  dy="0em" x="0" style="fill-opacity: 0; stroke-opacity: 0;">-</tspan></text></g><g  id="v-122" label-idx="2" cursor="move" transform="translate(739, 454.2)" style="opacity: 1;"><rect id="v-124" fill="#ffffff" rx="3" ry="3" pointer-events="none"  display="none" width="0" height="0" transform="matrix(1,0,0,1,0,0)"></rect><text id="v-123" font-size="19px" y="0.8em" display="none" xml:space="preserve" text-anchor="middle" pointer-events="none" fill="#707070" font-family="Open Sans" font-weight="normal"  transform="matrix(1,0,0,1,0,0)"><tspan id="v-125"  dy="0em" x="0" style="fill-opacity: 0; stroke-opacity: 0;">-</tspan></text></g></g><g  display="none"></g><g  id="v-130" display="none"><g  id="v-111"><path  end="source" d="M 26 0 L 0 13 L 26 26 z"></path></g><g  id="v-112"><path  end="target" d="M 26 0 L 0 13 L 26 26 z"></path></g></g><g  id="v-129" display="none"><g  id="v-110" transform="translate(639, 399) "><g  event="remove"><circle r="11"></circle><path transform="scale(.8) translate(-16, -16)" d="M24.778,21.419 19.276,15.917 24.777,10.415 21.949,7.585 16.447,13.087 10.945,7.585 8.117,10.415 13.618,15.917 8.116,21.419 10.946,24.248 16.447,18.746 21.948,24.248z"></path><title>Remove link.</title></g><g  event="link:options"><circle r="11" transform="translate(25)"></circle><path fill="white" transform="scale(.55) translate(29, -16)" d="M31.229,17.736c0.064-0.571,0.104-1.148,0.104-1.736s-0.04-1.166-0.104-1.737l-4.377-1.557c-0.218-0.716-0.504-1.401-0.851-2.05l1.993-4.192c-0.725-0.91-1.549-1.734-2.458-2.459l-4.193,1.994c-0.647-0.347-1.334-0.632-2.049-0.849l-1.558-4.378C17.165,0.708,16.588,0.667,16,0.667s-1.166,0.041-1.737,0.105L12.707,5.15c-0.716,0.217-1.401,0.502-2.05,0.849L6.464,4.005C5.554,4.73,4.73,5.554,4.005,6.464l1.994,4.192c-0.347,0.648-0.632,1.334-0.849,2.05l-4.378,1.557C0.708,14.834,0.667,15.412,0.667,16s0.041,1.165,0.105,1.736l4.378,1.558c0.217,0.715,0.502,1.401,0.849,2.049l-1.994,4.193c0.725,0.909,1.549,1.733,2.459,2.458l4.192-1.993c0.648,0.347,1.334,0.633,2.05,0.851l1.557,4.377c0.571,0.064,1.148,0.104,1.737,0.104c0.588,0,1.165-0.04,1.736-0.104l1.558-4.377c0.715-0.218,1.399-0.504,2.049-0.851l4.193,1.993c0.909-0.725,1.733-1.549,2.458-2.458l-1.993-4.193c0.347-0.647,0.633-1.334,0.851-2.049L31.229,17.736zM16,20.871c-2.69,0-4.872-2.182-4.872-4.871c0-2.69,2.182-4.872,4.872-4.872c2.689,0,4.871,2.182,4.871,4.872C20.871,18.689,18.689,20.871,16,20.871z"></path><title>Link options.</title></g></g></g></g></g><defs id="v-4"></defs></svg>