<svg xmlns="http://www.w3.org/2000/svg" xmlns:xlink="http://www.w3.org/1999/xlink" xmlns:lucid="lucid" width="2020" height="1040"><g transform="translate(900 700)" lucid:page-tab-id="~mlwVozAIAj6"><path d="M380-114c0-3.3 2.7-6 6-6h708c3.3 0 6 2.7 6 6v428c0 3.3-2.7 6-6 6H386c-3.3 0-6-2.7-6-6zM420-674c0-3.3 2.7-6 6-6h428c3.3 0 6 2.7 6 6v168c0 3.3-2.7 6-6 6H426c-3.3 0-6-2.7-6-6z" stroke="#ef8d22" stroke-width="3" fill-opacity="0"/><path d="M680-94c0-3.3 2.7-6 6-6h108c3.3 0 6 2.7 6 6V14c0 3.3-2.7 6-6 6H686c-3.3 0-6-2.7-6-6zM680 186c0-3.3 2.7-6 6-6h108c3.3 0 6 2.7 6 6v108c0 3.3-2.7 6-6 6H686c-3.3 0-6-2.7-6-6z" stroke="#333" stroke-width="3" fill="#5e5e5e"/><path d="M400-94c0-3.3 2.7-6 6-6h108c3.3 0 6 2.7 6 6V14c0 3.3-2.7 6-6 6H406c-3.3 0-6-2.7-6-6z" stroke="#333" stroke-width="3" fill="#ccc"/><path d="M960 186c0-3.3 2.7-6 6-6h108c3.3 0 6 2.7 6 6v108c0 3.3-2.7 6-6 6H966c-3.3 0-6-2.7-6-6z" stroke="#333" stroke-width="3" fill="#fcc438"/><path d="M957.5 202.83h-9.17v-2h9.17zm-18.33 0h-18.34v-2h18.34zm-27.5 0h-18.34v-2h18.34zm-36.6 0h-9.24v-2h9.23zm-18.4 0h-18.34v-2h18.34zm-27.5 0H820v-2h9.17z" stroke="#b2b2b2" stroke-width=".05" fill="#b2b2b2"/><path d="M958.5 202.83h-1.03v-2h1.03z" fill="#b2b2b2"/><path d="M958.52 202.85h-1.07v-2.05h1.07zm-1.02-2v1.95h.98v-1.95z" stroke="#b2b2b2" stroke-width=".05" fill="#b2b2b2"/><path d="M819 206.46l-14.26-4.63L819 197.2z" fill="#b2b2b2"/><path d="M820 207.84l-18.5-6 18.5-6.03zm-12.03-6l10.03 3.24v-6.5z" stroke="#b2b2b2" stroke-width=".05" fill="#b2b2b2"/><use xlink:href="#a" transform="matrix(1,0,0,1,875.0617283950618,191.15923693105321) translate(0 14.222222222222223)"/><path d="M779.06 177.5h-2v-9.17h2zm0-18.33h-2v-18.34h2zm0-27.5h-2v-18.34h2zm0-42.34h-2v-3.5h2zm0-12.66h-2V58.33h2zm0-27.5h-2V40h2z" stroke="#b2b2b2" stroke-width=".05" fill="#b2b2b2"/><path d="M779.06 178.5h-2v-1.03h2z" fill="#b2b2b2"/><path d="M779.1 178.53h-2.06v-1.08h2.05zm-2-1.03v.97h1.94v-.97z" stroke="#b2b2b2" stroke-width=".05" fill="#b2b2b2"/><path d="M782.7 39h-9.27l4.63-14.26z" fill="#b2b2b2"/><path d="M784.07 40h-12.02l6-18.5zm-9.27-2h6.52l-3.26-10.03z" stroke="#b2b2b2" stroke-width=".05" fill="#b2b2b2"/><use xlink:href="#b" transform="matrix(1,0,0,1,773.1223344556682,89.33333333333333) translate(0 14.222222222222223)"/><path d="M677.5-39h-9.17v-2h9.17zm-18.33 0h-18.34v-2h18.34zm-27.5 0h-18.34v-2h18.34zm-36.6 0h-9.24v-2h9.23zm-18.4 0h-18.34v-2h18.34zm-27.5 0H540v-2h9.17z" stroke="#b2b2b2" stroke-width=".05" fill="#b2b2b2"/><path d="M678.5-39h-1.03v-2h1.03z" fill="#b2b2b2"/><path d="M678.52-38.98h-1.07v-2.05h1.07zm-1.02-2v1.95h.98v-1.95z" stroke="#b2b2b2" stroke-width=".05" fill="#b2b2b2"/><path d="M539-35.36L524.74-40 539-44.64z" fill="#b2b2b2"/><path d="M540-34l-18.5-6 18.5-6zm-12.03-6L538-36.74v-6.52z" stroke="#b2b2b2" stroke-width=".05" fill="#b2b2b2"/><use xlink:href="#c" transform="matrix(1,0,0,1,595.0617283950618,-50.66666666666667) translate(0 14.222222222222223)"/><path d="M700.4 160h-2v-9.17h2zm0-18.33h-2v-18.34h2zm0-27.5h-2v-3.5h2zm0-27.5h-2V68.33h2zm0-27.5h-2V40.83h2zm0-27.5h-2V22.5h2z" stroke="#b2b2b2" stroke-width=".05" fill="#b2b2b2"/><path d="M700.4 22.53h-2V21.5h2z" fill="#b2b2b2"/><path d="M700.42 22.55h-2.05v-1.07h2.05zm-2-1.03v.98h1.95v-.98z" stroke="#b2b2b2" stroke-width=".05" fill="#b2b2b2"/><path d="M699.4 175.26L694.75 161h9.27z" fill="#b2b2b2"/><path d="M699.4 178.5l-6.02-18.5h12.03zm-3.26-16.5l3.25 10.03 3.25-10.03z" stroke="#b2b2b2" stroke-width=".05" fill="#b2b2b2"/><use xlink:href="#d" transform="matrix(1,0,0,1,694.4556677890015,89.33333333333333) translate(0 14.222222222222223)"/><path d="M811.67 278.93h-9.17v-2h9.17zm27.5 0h-18.34v-2h18.34zm27.5 0h-18.34v-2h18.34zm55 0h-18.34v-2h18.34zm18.33 0h-9.17v-2H940zm-45.83 0h-9.23v-2h9.23z" stroke="#b2b2b2" stroke-width=".05" fill="#b2b2b2"/><path d="M802.53 278.93h-1.03v-2h1.03z" fill="#b2b2b2"/><path d="M802.55 278.95h-1.07v-2.05h1.07zm-1.02-2v1.95h.97v-1.95z" stroke="#b2b2b2" stroke-width=".05" fill="#b2b2b2"/><path d="M955.26 277.93L941 282.56v-9.27z" fill="#b2b2b2"/><path d="M958.5 277.93l-18.5 6v-12.02zM942 281.2l10.03-3.27-10.03-3.26z" stroke="#b2b2b2" stroke-width=".05" fill="#b2b2b2"/><use xlink:href="#e" transform="matrix(1,0,0,1,875.0617283950618,267.2598366917085) translate(0 14.222222222222223)"/><path d="M440-654c0-3.3 2.7-6 6-6h108c3.3 0 6 2.7 6 6v108c0 3.3-2.7 6-6 6H446c-3.3 0-6-2.7-6-6z" stroke="#333" stroke-width="3" fill="#5e5e5e"/><path d="M720-654c0-3.3 2.7-6 6-6h108c3.3 0 6 2.7 6 6v108c0 3.3-2.7 6-6 6H726c-3.3 0-6-2.7-6-6z" stroke="#333" stroke-width="3" fill="#fcc438"/><path d="M717.5-637.17h-9.17v-2h9.17zm-18.33 0h-18.34v-2h18.34zm-27.5 0h-18.34v-2h18.34zm-36.6 0h-9.24v-2h9.23zm-18.4 0h-18.34v-2h18.34zm-27.5 0H580v-2h9.17z" stroke="#b2b2b2" stroke-width=".05" fill="#b2b2b2"/><path d="M718.5-637.17h-1.03v-2h1.03z" fill="#b2b2b2"/><path d="M718.52-637.15h-1.07v-2.05h1.07zm-1.02-2v1.95h.98v-1.95z" stroke="#b2b2b2" stroke-width=".05" fill="#b2b2b2"/><path d="M579-633.54l-14.26-4.63L579-642.8z" fill="#b2b2b2"/><path d="M580-632.16l-18.5-6 18.5-6.03zm-12.03-6l10.03 3.24v-6.5z" stroke="#b2b2b2" stroke-width=".05" fill="#b2b2b2"/><use xlink:href="#a" transform="matrix(1,0,0,1,635.0617283950618,-648.8407630689468) translate(0 14.222222222222223)"/><path d="M571.67-561.07h-9.17v-2h9.17zm27.5 0h-18.34v-2h18.34zm27.5 0h-18.34v-2h18.34zm55 0h-18.34v-2h18.34zm18.33 0h-9.17v-2H700zm-45.83 0h-9.23v-2h9.23z" stroke="#b2b2b2" stroke-width=".05" fill="#b2b2b2"/><path d="M562.53-561.07h-1.03v-2h1.03z" fill="#b2b2b2"/><path d="M562.55-561.05h-1.07v-2.05h1.07zm-1.02-2v1.95h.97v-1.95z" stroke="#b2b2b2" stroke-width=".05" fill="#b2b2b2"/><path d="M715.26-562.07L701-557.44v-9.27z" fill="#b2b2b2"/><path d="M718.5-562.07l-18.5 6v-12.02zM702-558.8l10.03-3.27-10.03-3.26z" stroke="#b2b2b2" stroke-width=".05" fill="#b2b2b2"/><use xlink:href="#c" transform="matrix(1,0,0,1,635.0617283950618,-572.7401633082915) translate(0 14.222222222222223)"/><path d="M440-374c0-3.3 2.7-6 6-6h108c3.3 0 6 2.7 6 6v108c0 3.3-2.7 6-6 6H446c-3.3 0-6-2.7-6-6z" stroke="#333" stroke-width="3" fill="#ef8d22"/><path d="M501.5-402.12h-3v-15h3zm0-29.97h-3v-17.23h3zm0-44.95h-3v-29.97h3zm0-44.96h-3v-15h3z" stroke="#b2b2b2" stroke-width=".05" fill="#b2b2b2"/><path d="M501.5-536.96h-3v-1.54h3z" fill="#b2b2b2"/><path d="M501.52-536.93h-3.04v-1.6h3.04zm-3-1.55v1.5h2.96v-1.5z" stroke="#b2b2b2" stroke-width=".05" fill="#b2b2b2"/><path d="M500-386.35l-4.64-14.27h9.28z" fill="#b2b2b2"/><path d="M500-381.5l-6.7-20.62h13.4zm-2.57-17.62l2.57 7.9 2.57-7.9z" stroke="#b2b2b2" stroke-width=".05" fill="#b2b2b2"/><use xlink:href="#b" transform="matrix(1,0,0,1,495.0617283950618,-470.66548917844165) translate(0 14.222222222222223)"/><path d="M-600-294c0-3.3 2.7-6 6-6h108c3.3 0 6 2.7 6 6v108c0 3.3-2.7 6-6 6h-108c-3.3 0-6-2.7-6-6zM-880-294c0-3.3 2.7-6 6-6h108c3.3 0 6 2.7 6 6v108c0 3.3-2.7 6-6 6h-108c-3.3 0-6-2.7-6-6z" stroke="#333" stroke-width="3" fill="#ccc"/><path d="M-740-294c0-3.3 2.7-6 6-6h108c3.3 0 6 2.7 6 6v108c0 3.3-2.7 6-6 6h-108c-3.3 0-6-2.7-6-6z" stroke="#333" stroke-width="3" fill="#ef8d22"/><path d="M-600-154c0-3.3 2.7-6 6-6h108c3.3 0 6 2.7 6 6v108c0 3.3-2.7 6-6 6h-108c-3.3 0-6-2.7-6-6z" stroke="#333" stroke-width="3" fill="#fcc438"/><path d="M-740-154c0-3.3 2.7-6 6-6h108c3.3 0 6 2.7 6 6v108c0 3.3-2.7 6-6 6h-108c-3.3 0-6-2.7-6-6z" stroke="#333" stroke-width="3" fill="#ef8d22"/><path d="M-340-314c0-3.3 2.7-6 6-6H94c3.3 0 6 2.7 6 6v288c0 3.3-2.7 6-6 6h-428c-3.3 0-6-2.7-6-6z" stroke="#ef8d22" stroke-width="3" fill-opacity="0"/><path d="M-180-294c0-3.3 2.7-6 6-6h108c3.3 0 6 2.7 6 6v108c0 3.3-2.7 6-6 6h-108c-3.3 0-6-2.7-6-6zM-180-154c0-3.3 2.7-6 6-6h108c3.3 0 6 2.7 6 6v108c0 3.3-2.7 6-6 6h-108c-3.3 0-6-2.7-6-6z" stroke="#333" stroke-width="3" fill="#5e5e5e"/><path d="M-320-294c0-3.3 2.7-6 6-6h108c3.3 0 6 2.7 6 6v108c0 3.3-2.7 6-6 6h-108c-3.3 0-6-2.7-6-6z" stroke="#333" stroke-width="3" fill="#ccc"/><path d="M-40-154c0-3.3 2.7-6 6-6H74c3.3 0 6 2.7 6 6v108c0 3.3-2.7 6-6 6H-34c-3.3 0-6-2.7-6-6z" stroke="#333" stroke-width="3" fill="#fcc438"/><path d="M-680-303v-71c0-3.3 2.7-6 6-6h548c3.3 0 6 2.7 6 6v31.88" stroke="#ef8d22" stroke-width="3" fill="none"/><path d="M-678.5-301.5h-3v-1.54h3z" stroke="#ef8d22" stroke-width=".05" fill="#ef8d22"/><path d="M-120-326.35l-4.64-14.27h9.28z" stroke="#ef8d22" stroke-width="3" fill="#ef8d22"/><path d="M103-104.5h15.6m15.6 0h3.1m15.6 0h31.2m15.6 0h3.1m15.6 0H234l3.14.56 2.66 1.55 1.97 2.35 1.08 2.93.15 1.6v15.05m0 15.04v3m0 15.05v30.08m0 15.04v3m0 15.05v30.07m0 15.04v3.02m0 15.04V94l.88 2.12L246 97h13.32m13.32 0h2.66m13.32 0h26.64m13.32 0h2.66m13.32 0h13.32" stroke="#ef8d22" stroke-width="3" fill="none"/><path d="M103-98.5h15.6m15.6 0h3.1m15.6 0h31.2m15.6 0h3.1m15.6 0H234l2.12.87.88 2.12v15.03m0 15.04v3m0 15.05v30.08m0 15.04v3m0 15.05v30.07m0 15.04v3.02m0 15.04V94l.56 3.14 1.56 2.66 2.34 1.97 2.92 1.08 1.62.15h13.32m13.32 0h2.66m13.32 0h26.64m13.32 0h2.66m13.32 0h13.32" stroke="#ef8d22" stroke-width="3" fill="none"/><path d="M103.04-103h-1.54v-3h1.54zM103.04-97h-1.54v-3h1.54z" stroke="#ef8d22" stroke-width=".05" fill="#ef8d22"/><path d="M373.65 100l-14.27 4.64v-9.28z" stroke="#ef8d22" stroke-width="3" fill="#ef8d22"/><path d="M103-226.84h15.6m15.6 0h3.1m15.6 0h31.2m15.6 0h3.1m15.6 0H234l2.12-.88.88-2.12v-16.22m0-16.2v-3.26m0-16.22v-32.43m0-16.22v-3.23m0-16.22v-32.44m0-16.2v-3.25m0-16.22v-32.43m0-16.22v-3.25m0-16.2v-32.45m0-16.22v-3.24m0-16.22v-16.22l.56-3.14 1.56-2.66 2.34-1.97 2.92-1.07 1.62-.15h18.08m18.08 0h3.62m18.08 0h36.16m18.08 0h3.62m18.08 0h18.08" stroke="#ef8d22" stroke-width="3" fill="none"/><path d="M103-220.84h15.6m15.6 0h3.1m15.6 0h31.2m15.6 0h3.1m15.6 0H234l3.14-.56 2.66-1.56 1.97-2.34 1.08-2.92.15-1.62v-16.22m0-16.2v-3.26m0-16.22v-32.43m0-16.22v-3.23m0-16.22v-32.44m0-16.2v-3.25m0-16.22v-32.43m0-16.22v-3.25m0-16.2v-32.45m0-16.22v-3.24m0-16.22v-16.22l.88-2.12 2.12-.88h18.08m18.08 0h3.62m18.08 0h36.16m18.08 0h3.62m18.08 0h18.08" stroke="#ef8d22" stroke-width="3" fill="none"/><path d="M103.04-225.34h-1.54v-3h1.54zM103.04-219.34h-1.54v-3h1.54z" stroke="#ef8d22" stroke-width=".05" fill="#ef8d22"/><path d="M413.65-576.42l-14.27 4.64v-9.27z" stroke="#ef8d22" stroke-width="3" fill="#ef8d22"/><defs><path fill="#333" d="M23 0v-37h61v-169l-59 37v-38l62-41h46v211h57V0H23" id="f"/><use transform="matrix(0.04938271604938272,0,0,0.04938271604938272,0,0)" xlink:href="#f" id="a"/><path fill="#333" d="M182-182c0 78-84 86-111 141h115V0H12c-6-101 99-100 120-180 1-22-12-31-33-32-23 0-32 14-35 34l-49-3c5-45 32-70 84-70 51 0 83 22 83 69" id="g"/><use transform="matrix(0.04938271604938272,0,0,0.04938271604938272,0,0)" xlink:href="#g" id="b"/><path fill="#333" d="M128-127c34 4 56 21 59 58 7 91-148 94-172 28-4-9-6-17-7-26l51-5c1 24 16 35 40 36 23 0 39-12 38-36-1-31-31-36-65-34v-40c32 2 59-3 59-33 0-20-13-33-34-33s-33 13-35 32l-50-3c6-44 37-68 86-68 50 0 83 20 83 66 0 35-22 52-53 58" id="h"/><use transform="matrix(0.04938271604938272,0,0,0.04938271604938272,0,0)" xlink:href="#h" id="c"/><path fill="#333" d="M165-50V0h-47v-50H5v-38l105-160h55v161h33v37h-33zm-47-37l2-116L46-87h72" id="i"/><use transform="matrix(0.04938271604938272,0,0,0.04938271604938272,0,0)" xlink:href="#i" id="d"/><path fill="#333" d="M139-81c0-46-55-55-73-27H18l9-140h149v37H72l-4 63c44-38 133-4 122 66C201 21 21 35 11-62l49-4c5 18 15 30 39 30 26 0 40-18 40-45" id="j"/><use transform="matrix(0.04938271604938272,0,0,0.04938271604938272,0,0)" xlink:href="#j" id="e"/></defs></g></svg>