<svg xmlns="http://www.w3.org/2000/svg" xmlns:xlink="http://www.w3.org/1999/xlink" version="1.1" viewBox="0 0 2434.9995831684255 862.9999387911702" style="background: #ffffff"><g id="v-3"  transform="matrix(1,0,0,1,0,0)"><g id="j_44"    transform="translate(20,817.9999387911702)"><g id="v-667"><text  id="v-668" font-size="22px" y="0.8em" xml:space="preserve" font-weight="normal" text-anchor="start" fill="#aaaaaa" pointer-events="none" font-family="Open Sans" transform="matrix(1,0,0,1,0,0)"><tspan id="v-669"  dy="0em" x="0">Thursday, January 12, 2023 at 10:59 AM Central European Standard Time</tspan></text></g></g><g id="j_43"    transform="translate(20,771.9999387911702)"><g id="v-663"><text  id="v-664" font-size="36px" y="0.8em" xml:space="preserve" font-weight="normal" text-anchor="start" fill="#000000" pointer-events="none" font-family="Open Sans" transform="matrix(1,0,0,1,0,0)"><tspan id="v-665"  dy="0em" x="0">[System Context] MILA</tspan></text></g></g><g id="j_39"    transform="translate(936,229)" style=""><g id="v-588"><rect  id="v-589" width="1298" height="413" rx="0" ry="0" fill="#ffffff" stroke="#444444" stroke-width="1" stroke-dasharray="20,20" pointer-events="none"></rect><text  id="v-590" font-size="24px" y="374" xml:space="preserve" font-weight="normal" fill="#444444" x="10" text-anchor="start" pointer-events="visible" font-family="Open Sans" transform="matrix(1,0,0,1,15,0)"><tspan id="v-593"  dy="0em" x="0">DAEDALUS</tspan></text><text  id="v-591" font-size="19px" y="398" xml:space="preserve" font-weight="normal" fill="#444444" x="10" text-anchor="start" pointer-events="visible" font-family="Open Sans" transform="matrix(1,0,0,1,15,0)"><tspan id="v-594"  dy="0em" x="0">[Enterprise]</tspan></text><image  id="v-592" pointer-events="visible"></image></g></g><g id="j_37"    transform="translate(199,199)" style=""><g  id="v-558" style="opacity: 1;"><rect  x="0" y="160" width="400" height="240" rx="70" id="v-560" stroke="#834187" stroke-width="8" pointer-events="visiblePainted" fill="#f4d9ff" style="fill: rgb(244, 217, 255); stroke: rgb(131, 65, 135);"></rect><circle  cx="200" cy="88.88888888888889" r="88.88888888888889" id="v-559" stroke="#834187" stroke-width="8" pointer-events="visiblePainted" fill="#f4d9ff" style="fill: rgb(244, 217, 255); stroke: rgb(131, 65, 135);"></circle><line  x1="80" y1="266.6666666666667" x2="80" y2="400" id="v-566" stroke="#834187" stroke-width="8" style="stroke: rgb(131, 65, 135);"></line><line  x1="320" y1="266.6666666666667" x2="320" y2="400" id="v-567" stroke="#834187" stroke-width="8" style="stroke: rgb(131, 65, 135);"></line><text  id="v-561" font-size="34px" y="0.8em" xml:space="preserve" font-weight="bold" text-anchor="middle" pointer-events="visible" font-family="Open Sans" fill="#000000" transform="matrix(1,0,0,1,200,205)" style="fill: rgb(0, 0, 0);"><tspan id="v-568"  dy="0em" x="0">Material scientist</tspan></text><text  id="v-562" font-size="19px" y="0.8em" xml:space="preserve" text-anchor="middle" font-family="Open Sans" fill="#000000" transform="matrix(1,0,0,1,200,247.5)" style="fill: rgb(0, 0, 0);"><tspan id="v-569"  dy="0em" x="0">[Person]</tspan></text><text  id="v-563" font-size="24px" y="0.8em" xml:space="preserve" text-anchor="middle" font-family="Open Sans" fill="#000000" transform="matrix(1,0,0,1,200,295)" style="fill: rgb(0, 0, 0);"><tspan id="v-570"  dy="0em" x="0">Leverages smartphone facilities</tspan><tspan id="v-571"  dy="1.2em" x="0">to capture materials properties.</tspan></text><text  id="v-564" font-weight="bold" text-anchor="middle" font-family="Open Sans" fill="#000000" font-size="24" transform="matrix(1,0,0,1,200,371.2)" display="none" style="fill: rgb(0, 0, 0);"></text><image  id="v-565"></image></g></g><g id="j_38"    transform="translate(956,249)" style="" ><g  id="v-575" style="opacity: 1;"><rect  id="v-576" rx="1" ry="1" stroke="#0c7cba" stroke-width="8" pointer-events="visiblePainted" fill="#cfe4ff" width="450" height="300" style="fill: rgb(207, 228, 255); stroke: rgb(12, 124, 186);"></rect><text  id="v-577" font-size="34" y="0.8em" xml:space="preserve" font-weight="bold" text-anchor="middle" pointer-events="visible" font-family="Open Sans" fill="#000000" transform="matrix(1,0,0,1,225,60)" style="fill: rgb(0, 0, 0);"><tspan id="v-582"  dy="0em" x="0">MILA</tspan></text><text  id="v-578" font-size="19" y="0.8em" xml:space="preserve" text-anchor="middle" font-family="Open Sans" fill="#000000" transform="matrix(1,0,0,1,225,102.5)" style="fill: rgb(0, 0, 0);"><tspan id="v-583"  dy="0em" x="0">[Software System]</tspan></text><text  id="v-579" font-size="24" y="0.8em" xml:space="preserve" text-anchor="middle" font-family="Open Sans" fill="#000000" transform="matrix(1,0,0,1,225,150)" style="fill: rgb(0, 0, 0);"><tspan id="v-584"  dy="0em" x="0">Provides lightweight material</tspan><tspan id="v-585"  dy="1.2em" x="0">acquisition facilities &amp; crafts</tspan><tspan id="v-586"  dy="1.2em" x="0">self-contained material assets.</tspan></text><text  id="v-580" font-weight="bold" text-anchor="middle" font-family="Open Sans" fill="#000000" font-size="24" transform="matrix(1,0,0,1,225,270)" y="0.8em" display="none" xml:space="preserve" style="fill: rgb(0, 0, 0);"><tspan id="v-595"  dy="0em" x="0" style="fill-opacity: 0; stroke-opacity: 0;">-</tspan></text><image  id="v-581"></image></g></g><g id="j_40"    transform="translate(1764,249)" style="" ><g  id="v-599" style="opacity: 1;"><rect  id="v-600" rx="1" ry="1" stroke="#666666" stroke-width="8" pointer-events="visiblePainted" fill="#f5f5f5" width="450" height="300" style="fill: rgb(245, 245, 245); stroke: rgb(102, 102, 102);"></rect><text  id="v-601" font-size="34" y="0.8em" xml:space="preserve" font-weight="bold" text-anchor="middle" pointer-events="visible" font-family="Open Sans" fill="#000000" transform="matrix(1,0,0,1,225,75)" style="fill: rgb(0, 0, 0);"><tspan id="v-606"  dy="0em" x="0">Icarus</tspan></text><text  id="v-602" font-size="19" y="0.8em" xml:space="preserve" text-anchor="middle" font-family="Open Sans" fill="#000000" transform="matrix(1,0,0,1,225,117.5)" style="fill: rgb(0, 0, 0);"><tspan id="v-607"  dy="0em" x="0">[Software System]</tspan></text><text  id="v-603" font-size="24" y="0.8em" xml:space="preserve" text-anchor="middle" font-family="Open Sans" fill="#000000" transform="matrix(1,0,0,1,225,165)" style="fill: rgb(0, 0, 0);"><tspan id="v-608"  dy="0em" x="0">Provides powerful facilities to work</tspan><tspan id="v-609"  dy="1.2em" x="0">with physics materials.</tspan></text><text  id="v-604" font-weight="bold" text-anchor="middle" font-family="Open Sans" fill="#000000" font-size="24" transform="matrix(1,0,0,1,225,270)" y="0.8em" xml:space="preserve" display="none" style="fill: rgb(0, 0, 0);"><tspan id="v-610"  dy="0em" x="0">#</tspan></text><image  id="v-605"></image></g></g><g id="j_41"   ><path  stroke="#707070" id="v-630" stroke-width="2" stroke-dasharray="30 30" fill="none" d="M 599 399 936 399" style="opacity: 1;"></path><path  fill="black" stroke="black" transform="translate(599,399) scale(1,1) rotate(0)"></path><path  fill="#707070" stroke="#707070" id="v-632" d="M 20 0 L 0 10 L 20 20 z" transform="translate(956,409) scale(1,1) rotate(-180)" style="opacity: 1;"></path><path  id="v-631" fill="none" d="M 599 399 936 399" style=""></path><title ></title><g ><g  id="v-618" label-idx="0" cursor="move" transform="translate(767.5, 399)" style="opacity: 1;"><rect id="v-620" fill="#ffffff" rx="3" ry="3" stroke="#ffffff" stroke-width="20px" pointer-events="none" width="191.4177703857422" height="32.682395935058594" transform="matrix(1,0,0,1,-95.7,-16.3)"></rect><text id="v-619" font-size="24px" y="0.8em" xml:space="preserve" text-anchor="middle" pointer-events="none" fill="#707070" font-family="Open Sans" font-weight="normal" transform="matrix(1,0,0,1,0,-9.7)"><tspan id="v-621"  dy="0em" x="0">sends pictures to</tspan></text></g><g  id="v-622" label-idx="1" cursor="move" transform="translate(767.5, 430.2)" style="opacity: 1;"><rect id="v-624" fill="#ffffff" rx="3" ry="3" pointer-events="none" width="0" height="0" transform="matrix(1,0,0,1,0,0)"></rect><text id="v-623" font-size="19px" y="0.8em" display="none" xml:space="preserve" text-anchor="middle" pointer-events="none" fill="#707070" font-family="Open Sans" font-weight="normal" transform="matrix(1,0,0,1,0,0)"><tspan id="v-625"  dy="0em" x="0" style="fill-opacity: 0; stroke-opacity: 0;">-</tspan></text></g><g  id="v-626" label-idx="2" cursor="move" transform="translate(767.5, 454.2)" style="opacity: 1;"><rect id="v-628" fill="#ffffff" rx="3" ry="3" pointer-events="none"  display="none" width="0" height="0" transform="matrix(1,0,0,1,0,0)"></rect><text id="v-627" font-size="19px" y="0.8em" display="none" xml:space="preserve" text-anchor="middle" pointer-events="none" fill="#707070" font-family="Open Sans" font-weight="normal"  transform="matrix(1,0,0,1,0,0)"><tspan id="v-629"  dy="0em" x="0" style="fill-opacity: 0; stroke-opacity: 0;">-</tspan></text></g></g><g  display="none"></g><g  id="v-634" display="none"><g  id="v-615"><path  end="source" d="M 26 0 L 0 13 L 26 26 z"></path></g><g  id="v-616"><path  end="target" d="M 26 0 L 0 13 L 26 26 z"></path></g></g><g  id="v-633" display="none"><g  id="v-614" transform="translate(639, 399) "><g  event="remove"><circle r="11"></circle><path transform="scale(.8) translate(-16, -16)" d="M24.778,21.419 19.276,15.917 24.777,10.415 21.949,7.585 16.447,13.087 10.945,7.585 8.117,10.415 13.618,15.917 8.116,21.419 10.946,24.248 16.447,18.746 21.948,24.248z"></path><title>Remove link.</title></g><g  event="link:options"><circle r="11" transform="translate(25)"></circle><path fill="white" transform="scale(.55) translate(29, -16)" d="M31.229,17.736c0.064-0.571,0.104-1.148,0.104-1.736s-0.04-1.166-0.104-1.737l-4.377-1.557c-0.218-0.716-0.504-1.401-0.851-2.05l1.993-4.192c-0.725-0.91-1.549-1.734-2.458-2.459l-4.193,1.994c-0.647-0.347-1.334-0.632-2.049-0.849l-1.558-4.378C17.165,0.708,16.588,0.667,16,0.667s-1.166,0.041-1.737,0.105L12.707,5.15c-0.716,0.217-1.401,0.502-2.05,0.849L6.464,4.005C5.554,4.73,4.73,5.554,4.005,6.464l1.994,4.192c-0.347,0.648-0.632,1.334-0.849,2.05l-4.378,1.557C0.708,14.834,0.667,15.412,0.667,16s0.041,1.165,0.105,1.736l4.378,1.558c0.217,0.715,0.502,1.401,0.849,2.049l-1.994,4.193c0.725,0.909,1.549,1.733,2.459,2.458l4.192-1.993c0.648,0.347,1.334,0.633,2.05,0.851l1.557,4.377c0.571,0.064,1.148,0.104,1.737,0.104c0.588,0,1.165-0.04,1.736-0.104l1.558-4.377c0.715-0.218,1.399-0.504,2.049-0.851l4.193,1.993c0.909-0.725,1.733-1.549,2.458-2.458l-1.993-4.193c0.347-0.647,0.633-1.334,0.851-2.049L31.229,17.736zM16,20.871c-2.69,0-4.872-2.182-4.872-4.871c0-2.69,2.182-4.872,4.872-4.872c2.689,0,4.871,2.182,4.871,4.872C20.871,18.689,18.689,20.871,16,20.871z"></path><title>Link options.</title></g></g></g></g><g id="j_42"   ><path  stroke="#707070" id="v-655" stroke-width="2" stroke-dasharray="30 30" fill="none" d="M 1764 399 1426 399" style="opacity: 1;"></path><path  fill="black" stroke="black" transform="translate(1764,399) scale(1,1) rotate(-180)"></path><path  fill="#707070" stroke="#707070" id="v-657" d="M 20 0 L 0 10 L 20 20 z" transform="translate(1406,389) scale(1,1) rotate(0)" style="opacity: 1;"></path><path  id="v-656" fill="none" d="M 1764 399 1426 399" style=""></path><title ></title><g ><g  id="v-642" label-idx="0" cursor="move" transform="translate(1595, 399)" style="opacity: 1;"><rect id="v-644" fill="#ffffff" rx="3" ry="3" stroke="#ffffff" stroke-width="20px" pointer-events="none" width="194.04539489746094" height="61.48239707946777" transform="matrix(1,0,0,1,-97.6,-30.7)"></rect><text id="v-643" font-size="24px" y="0.8em" xml:space="preserve" text-anchor="middle" pointer-events="none" fill="#707070" font-family="Open Sans" font-weight="normal" transform="matrix(1,0,0,1,0,-24.1)"><tspan id="v-645"  dy="0em" x="0">fetches materials</tspan><tspan id="v-646"  dy="1.2em" x="0">from</tspan></text></g><g  id="v-647" label-idx="1" cursor="move" transform="translate(1595, 442.2)" style="opacity: 1;"><rect id="v-649" fill="#ffffff" rx="3" ry="3" pointer-events="none" width="0" height="0" transform="matrix(1,0,0,1,0,0)"></rect><text id="v-648" font-size="19px" y="0.8em" display="none" xml:space="preserve" text-anchor="middle" pointer-events="none" fill="#707070" font-family="Open Sans" font-weight="normal" transform="matrix(1,0,0,1,0,0)"><tspan id="v-650"  dy="0em" x="0" style="fill-opacity: 0; stroke-opacity: 0;">-</tspan></text></g><g  id="v-651" label-idx="2" cursor="move" transform="translate(1595, 466.2)" style="opacity: 1;"><rect id="v-653" fill="#ffffff" rx="3" ry="3" pointer-events="none"  display="none" width="0" height="0" transform="matrix(1,0,0,1,0,0)"></rect><text id="v-652" font-size="19px" y="0.8em" display="none" xml:space="preserve" text-anchor="middle" pointer-events="none" fill="#707070" font-family="Open Sans" font-weight="normal"  transform="matrix(1,0,0,1,0,0)"><tspan id="v-654"  dy="0em" x="0" style="fill-opacity: 0; stroke-opacity: 0;">-</tspan></text></g></g><g  display="none"></g><g  id="v-659" display="none"><g  id="v-639"><path  end="source" d="M 26 0 L 0 13 L 26 26 z"></path></g><g  id="v-640"><path  end="target" d="M 26 0 L 0 13 L 26 26 z"></path></g></g><g  id="v-658" display="none"><g  id="v-638" transform="translate(1724, 399.0000305175781) "><g  event="remove"><circle r="11"></circle><path transform="scale(.8) translate(-16, -16)" d="M24.778,21.419 19.276,15.917 24.777,10.415 21.949,7.585 16.447,13.087 10.945,7.585 8.117,10.415 13.618,15.917 8.116,21.419 10.946,24.248 16.447,18.746 21.948,24.248z"></path><title>Remove link.</title></g><g  event="link:options"><circle r="11" transform="translate(25)"></circle><path fill="white" transform="scale(.55) translate(29, -16)" d="M31.229,17.736c0.064-0.571,0.104-1.148,0.104-1.736s-0.04-1.166-0.104-1.737l-4.377-1.557c-0.218-0.716-0.504-1.401-0.851-2.05l1.993-4.192c-0.725-0.91-1.549-1.734-2.458-2.459l-4.193,1.994c-0.647-0.347-1.334-0.632-2.049-0.849l-1.558-4.378C17.165,0.708,16.588,0.667,16,0.667s-1.166,0.041-1.737,0.105L12.707,5.15c-0.716,0.217-1.401,0.502-2.05,0.849L6.464,4.005C5.554,4.73,4.73,5.554,4.005,6.464l1.994,4.192c-0.347,0.648-0.632,1.334-0.849,2.05l-4.378,1.557C0.708,14.834,0.667,15.412,0.667,16s0.041,1.165,0.105,1.736l4.378,1.558c0.217,0.715,0.502,1.401,0.849,2.049l-1.994,4.193c0.725,0.909,1.549,1.733,2.459,2.458l4.192-1.993c0.648,0.347,1.334,0.633,2.05,0.851l1.557,4.377c0.571,0.064,1.148,0.104,1.737,0.104c0.588,0,1.165-0.04,1.736-0.104l1.558-4.377c0.715-0.218,1.399-0.504,2.049-0.851l4.193,1.993c0.909-0.725,1.733-1.549,2.458-2.458l-1.993-4.193c0.347-0.647,0.633-1.334,0.851-2.049L31.229,17.736zM16,20.871c-2.69,0-4.872-2.182-4.872-4.871c0-2.69,2.182-4.872,4.872-4.872c2.689,0,4.871,2.182,4.871,4.872C20.871,18.689,18.689,20.871,16,20.871z"></path><title>Link options.</title></g></g></g></g></g><defs id="v-4"></defs></svg>