<svg xmlns="http://www.w3.org/2000/svg" xmlns:xlink="http://www.w3.org/1999/xlink" version="1.1" viewBox="0 0 3060.0000015293845 1694.0000100292443" style="background: #ffffff"><g id="v-3"  transform="matrix(1,0,0,1,0,0)"><g id="j_30"    transform="translate(20,1649.0000100292443)"><g id="v-552"><text  id="v-553" font-size="22px" y="0.8em" xml:space="preserve" font-weight="normal" text-anchor="start" fill="#aaaaaa" pointer-events="none" font-family="Open Sans" transform="matrix(1,0,0,1,0,0)" display="block"><tspan id="v-554"  dy="0em" x="0">Thursday, January 12, 2023 at 11:00 AM Central European Standard Time</tspan></text></g></g><g id="j_29"    transform="translate(20,1603.0000100292443)"><g id="v-548"><text  id="v-549" font-size="36px" y="0.8em" xml:space="preserve" font-weight="normal" text-anchor="start" fill="#000000" pointer-events="none" font-family="Open Sans" transform="matrix(1,0,0,1,0,0)" display="block"><tspan id="v-550"  dy="0em" x="0">[Container] MILA</tspan></text></g></g><g id="j_16"    transform="translate(898,200)" style=""><g id="v-281"><rect  id="v-282" width="1231" height="1294" rx="0" ry="0" fill="#ffffff" stroke="#0c7cba" stroke-width="8" stroke-dasharray="20,20" pointer-events="none"></rect><text  id="v-283" font-size="24px" y="1255" xml:space="preserve" font-weight="normal" fill="#0c7cba" x="10" text-anchor="start" pointer-events="visible" font-family="Open Sans" transform="matrix(1,0,0,1,15,0)"><tspan id="v-286"  dy="0em" x="0">MILA</tspan></text><text  id="v-284" font-size="19px" y="1279" xml:space="preserve" font-weight="normal" fill="#0c7cba" x="10" text-anchor="start" pointer-events="visible" font-family="Open Sans" transform="matrix(1,0,0,1,15,0)"><tspan id="v-287"  dy="0em" x="0">[Software System]</tspan></text><image  id="v-285" pointer-events="visible"></image></g></g><g id="j_17"    transform="translate(199,396)" style=""><g  id="v-293" style="opacity: 1;"><rect  x="0" y="160" width="400" height="240" rx="70" id="v-295" stroke="#834187" stroke-width="8" pointer-events="visiblePainted" fill="#f4d9ff" style="fill: rgb(244, 217, 255); stroke: rgb(131, 65, 135);"></rect><circle  cx="200" cy="88.88888888888889" r="88.88888888888889" id="v-294" stroke="#834187" stroke-width="8" pointer-events="visiblePainted" fill="#f4d9ff" style="fill: rgb(244, 217, 255); stroke: rgb(131, 65, 135);"></circle><line  x1="80" y1="266.6666666666667" x2="80" y2="400" id="v-301" stroke="#834187" stroke-width="8" style="stroke: rgb(131, 65, 135);"></line><line  x1="320" y1="266.6666666666667" x2="320" y2="400" id="v-302" stroke="#834187" stroke-width="8" style="stroke: rgb(131, 65, 135);"></line><text  id="v-296" font-size="34px" y="0.8em" xml:space="preserve" font-weight="bold" text-anchor="middle" pointer-events="visible" font-family="Open Sans" fill="#000000" transform="matrix(1,0,0,1,200,205)" style="fill: rgb(0, 0, 0);"><tspan id="v-303"  dy="0em" x="0">Material scientist</tspan></text><text  id="v-297" font-size="19px" y="0.8em" xml:space="preserve" text-anchor="middle" font-family="Open Sans" fill="#000000" transform="matrix(1,0,0,1,200,247.5)" style="fill: rgb(0, 0, 0);"><tspan id="v-304"  dy="0em" x="0">[Person]</tspan></text><text  id="v-298" font-size="24px" y="0.8em" xml:space="preserve" text-anchor="middle" font-family="Open Sans" fill="#000000" transform="matrix(1,0,0,1,200,295)" style="fill: rgb(0, 0, 0);"><tspan id="v-305"  dy="0em" x="0">Leverages smartphone facilities</tspan><tspan id="v-306"  dy="1.2em" x="0">to capture materials properties.</tspan></text><text  id="v-299" font-weight="bold" text-anchor="middle" font-family="Open Sans" fill="#000000" font-size="24" transform="matrix(1,0,0,1,200,371.2)" style="fill: rgb(0, 0, 0);" display="none"></text><image  id="v-300"></image></g></g><g id="j_18"    transform="translate(918,220)" style="" ><g  id="v-310" style="opacity: 1;"><rect  id="v-311" rx="10" ry="10" stroke="#c92d39" stroke-width="2" pointer-events="visiblePainted" fill="#c92d39" width="450" height="300" style="fill: rgb(201, 45, 57); stroke: rgb(201, 45, 57);"></rect><rect  id="v-312" rx="10" ry="10" stroke="#c92d39" stroke-width="0" pointer-events="visiblePainted" fill="#ffd9d9" width="430" height="250" x="10" y="40" style="fill: rgb(255, 217, 217);"></rect><ellipse  id="v-319" fill="#ffd9d9" cx="20" cy="20" rx="10" ry="10" style="fill: rgb(255, 217, 217);"></ellipse><ellipse  id="v-320" fill="#ffd9d9" cx="50" cy="20" rx="10" ry="10" style="fill: rgb(255, 217, 217);"></ellipse><ellipse  id="v-321" fill="#ffd9d9" cx="80" cy="20" rx="10" ry="10" style="fill: rgb(255, 217, 217);"></ellipse><rect  id="v-313" rx="10" ry="10" stroke="#444444" stroke-width="0" pointer-events="visiblePainted" fill="#ffd9d9" width="340" height="20" x="100" y="10" style="fill: rgb(255, 217, 217);"></rect><text  id="v-314" font-size="34" y="0.8em" xml:space="preserve" font-weight="bold" text-anchor="middle" pointer-events="visible" font-family="Open Sans" fill="#000000" transform="matrix(1,0,0,1,225,95)" style="fill: rgb(0, 0, 0);"><tspan id="v-322"  dy="0em" x="0">Web application</tspan></text><text  id="v-315" font-size="19" y="0.8em" xml:space="preserve" text-anchor="middle" font-family="Open Sans" fill="#000000" transform="matrix(1,0,0,1,225,137.5)" style="fill: rgb(0, 0, 0);"><tspan id="v-323"  dy="0em" x="0">[Container: Blazor]</tspan></text><text  id="v-316" font-size="24" y="0.8em" xml:space="preserve" text-anchor="middle" font-family="Open Sans" fill="#000000" transform="matrix(1,0,0,1,225,185)" style="fill: rgb(0, 0, 0);"><tspan id="v-324"  dy="0em" x="0">Provides limited facilities to upload</tspan><tspan id="v-325"  dy="1.2em" x="0">constrained pictures set.</tspan></text><text  id="v-317" font-weight="bold" text-anchor="middle" font-family="Open Sans" fill="#000000" font-size="24" transform="matrix(1,0,0,1,225,270)" y="0.8em" display="none" xml:space="preserve" style="fill: rgb(0, 0, 0);"><tspan id="v-326"  dy="0em" x="0" style="fill-opacity: 0; stroke-opacity: 0;">-</tspan></text><image  id="v-318"></image></g></g><g id="j_19"    transform="translate(993,686)" style="" ><g  id="v-334" style="opacity: 1;"><rect  id="v-335" rx="20" ry="20" stroke="#c92d39" stroke-width="2" pointer-events="visiblePainted" fill="#c92d39" width="300" height="450" style="fill: rgb(201, 45, 57); stroke: rgb(201, 45, 57);"></rect><rect  id="v-336" rx="5" ry="5" stroke="#c92d39" stroke-width="0" pointer-events="visiblePainted" fill="#ffd9d9" width="280" height="370" x="10" y="40" style="fill: rgb(255, 217, 217);"></rect><ellipse  id="v-342" fill="#ffd9d9" cx="150" cy="430" rx="10" ry="10" style="fill: rgb(255, 217, 217);"></ellipse><line  style="stroke-width: 2px; stroke: rgb(255, 217, 217);" id="v-343" stroke="#ffd9d9" x1="125" y1="20" x2="175" y2="20"></line><text  id="v-337" font-size="34" y="0.8em" xml:space="preserve" font-weight="bold" text-anchor="middle" pointer-events="visible" font-family="Open Sans" fill="#000000" transform="matrix(1,0,0,1,150,98.8)" style="fill: rgb(0, 0, 0);"><tspan id="v-344"  dy="0em" x="0">Mobile</tspan><tspan id="v-345"  dy="1.2em" x="0">application</tspan></text><text  id="v-338" font-size="19" y="0.8em" xml:space="preserve" text-anchor="middle" font-family="Open Sans" fill="#000000" transform="matrix(1,0,0,1,150,183.8)" style="fill: rgb(0, 0, 0);"><tspan id="v-346"  dy="0em" x="0">[Container: Xamarin]</tspan></text><text  id="v-339" font-size="24" y="0.8em" xml:space="preserve" text-anchor="middle" font-family="Open Sans" fill="#000000" transform="matrix(1,0,0,1,150,231.2)" style="fill: rgb(0, 0, 0);"><tspan id="v-347"  dy="0em" x="0">Provides uncluttered</tspan><tspan id="v-348"  dy="1.2em" x="0">interface to ease</tspan><tspan id="v-349"  dy="1.2em" x="0">pictures shooting,</tspan><tspan id="v-350"  dy="1.2em" x="0">stiching &amp; uploading.</tspan></text><text  id="v-340" font-weight="bold" text-anchor="middle" font-family="Open Sans" fill="#000000" font-size="24" transform="matrix(1,0,0,1,150,405)" y="0.8em" display="none" xml:space="preserve" style="fill: rgb(0, 0, 0);"><tspan id="v-351"  dy="0em" x="0" style="fill-opacity: 0; stroke-opacity: 0;">-</tspan></text><image  id="v-341"></image></g></g><g id="j_20"    transform="translate(1654,446)" style="" ><g  id="v-355" style="opacity: 1;"><rect  id="v-356" rx="1" ry="1" stroke="#c92d39" stroke-width="8" pointer-events="visiblePainted" fill="#ffd9d9" width="450" height="300" style="fill: rgb(255, 217, 217); stroke: rgb(201, 45, 57);"></rect><text  id="v-357" font-size="34" y="0.8em" xml:space="preserve" font-weight="bold" text-anchor="middle" pointer-events="visible" font-family="Open Sans" fill="#000000" transform="matrix(1,0,0,1,225,30)" style="fill: rgb(0, 0, 0);"><tspan id="v-362"  dy="0em" x="0">API application</tspan></text><text  id="v-358" font-size="19" y="0.8em" xml:space="preserve" text-anchor="middle" font-family="Open Sans" fill="#000000" transform="matrix(1,0,0,1,225,72.5)" style="fill: rgb(0, 0, 0);"><tspan id="v-363"  dy="0em" x="0">[Container]</tspan></text><text  id="v-359" font-size="24" y="0.8em" xml:space="preserve" text-anchor="middle" font-family="Open Sans" fill="#000000" transform="matrix(1,0,0,1,225,120)" style="fill: rgb(0, 0, 0);"><tspan id="v-364"  dy="0em" x="0">Extracts spatially varying</tspan><tspan id="v-365"  dy="1.2em" x="0">BRDF-Cook-Torrance with normals,</tspan><tspan id="v-366"  dy="1.2em" x="0">diffuse, roughness &amp; specular maps</tspan><tspan id="v-367"  dy="1.2em" x="0">from pictures set leveraring deep</tspan><tspan id="v-368"  dy="1.2em" x="0">neural network.</tspan></text><text  id="v-360" font-weight="bold" text-anchor="middle" font-family="Open Sans" fill="#000000" font-size="24" transform="matrix(1,0,0,1,225,270)" y="0.8em" display="none" xml:space="preserve" style="fill: rgb(0, 0, 0);"><tspan id="v-369"  dy="0em" x="0" style="fill-opacity: 0; stroke-opacity: 0;">-</tspan></text><image  id="v-361"></image></g></g><g id="j_21"    transform="translate(1659,1101)" style="" ><g  id="v-373" style="opacity: 1;"><path  d="M 0,30 a 225,30 0,0,0 450 0 a 225,30 0,0,0 -450 0 l 0,240 a 225,30 0,0,0 450 0 l 0,-240" id="v-374" stroke="#c92d39" stroke-width="8" pointer-events="visiblePainted" fill="#ffd9d9" style="fill: rgb(255, 217, 217); stroke: rgb(201, 45, 57);"></path><rect  id="v-375" stroke-width="0" pointer-events="visiblePainted" fill="none" stroke="none" width="450" height="270" x="0" y="30"></rect><text  id="v-376" font-size="34px" y="0.8em" xml:space="preserve" font-weight="bold" text-anchor="middle" pointer-events="visible" font-family="Open Sans" fill="#000000" transform="matrix(1,0,0,1,225,90)" style="fill: rgb(0, 0, 0);"><tspan id="v-381"  dy="0em" x="0">Materials store</tspan></text><text  id="v-377" font-size="19px" y="0.8em" xml:space="preserve" text-anchor="middle" font-family="Open Sans" fill="#000000" transform="matrix(1,0,0,1,225,132.5)" style="fill: rgb(0, 0, 0);"><tspan id="v-382"  dy="0em" x="0">[Container: MongoDB]</tspan></text><text  id="v-378" font-size="24px" y="0.8em" xml:space="preserve" text-anchor="middle" font-family="Open Sans" fill="#000000" transform="matrix(1,0,0,1,225,180)" style="fill: rgb(0, 0, 0);"><tspan id="v-383"  dy="0em" x="0">Stores enriched materials &amp; supplies</tspan><tspan id="v-384"  dy="1.2em" x="0">powerful queries API.</tspan></text><text  id="v-379" font-weight="bold" text-anchor="middle" font-family="Open Sans" fill="#000000" font-size="24" transform="matrix(1,0,0,1,225,273)" y="0.8em" display="none" xml:space="preserve" style="fill: rgb(0, 0, 0);"><tspan id="v-385"  dy="0em" x="0" style="fill-opacity: 0; stroke-opacity: 0;">-</tspan></text><image  id="v-380"></image></g></g><g id="j_22"    transform="translate(2409,1100)" style="" ><g  id="v-389" style="opacity: 1;"><rect  id="v-390" rx="1" ry="1" stroke="#666666" stroke-width="8" pointer-events="visiblePainted" fill="#f5f5f5" width="450" height="300" style="fill: rgb(245, 245, 245); stroke: rgb(102, 102, 102);"></rect><text  id="v-391" font-size="34" y="0.8em" xml:space="preserve" font-weight="bold" text-anchor="middle" pointer-events="visible" font-family="Open Sans" fill="#000000" transform="matrix(1,0,0,1,225,75)" style="fill: rgb(0, 0, 0);"><tspan id="v-396"  dy="0em" x="0">Icarus</tspan></text><text  id="v-392" font-size="19" y="0.8em" xml:space="preserve" text-anchor="middle" font-family="Open Sans" fill="#000000" transform="matrix(1,0,0,1,225,117.5)" style="fill: rgb(0, 0, 0);"><tspan id="v-397"  dy="0em" x="0">[Software System]</tspan></text><text  id="v-393" font-size="24" y="0.8em" xml:space="preserve" text-anchor="middle" font-family="Open Sans" fill="#000000" transform="matrix(1,0,0,1,225,165)" style="fill: rgb(0, 0, 0);"><tspan id="v-398"  dy="0em" x="0">Provides powerful facilities to work</tspan><tspan id="v-399"  dy="1.2em" x="0">with physics materials.</tspan></text><text  id="v-394" font-weight="bold" text-anchor="middle" font-family="Open Sans" fill="#000000" font-size="24" transform="matrix(1,0,0,1,225,270)" y="0.8em" xml:space="preserve" display="none" style="fill: rgb(0, 0, 0);"><tspan id="v-400"  dy="0em" x="0">#</tspan></text><image  id="v-395"></image></g></g><g id="j_23"   ><path  stroke="#707070" id="v-421" stroke-width="2" stroke-dasharray="30 30" fill="none" d="M 1880 746 1883 1081" style="opacity: 1;"></path><path  fill="black" stroke="black" transform="translate(1880,746) scale(1,1) rotate(89.51580810546878)"></path><path  fill="#707070" stroke="#707070" id="v-423" d="M 20 0 L 0 10 L 20 20 z" transform="translate(1873.0003881531843,1101.0845129190982) scale(1,1) rotate(-90.48417663574219)" style="opacity: 1;"></path><path  id="v-422" fill="none" d="M 1880 746 1883 1081" style=""></path><title ></title><g ><g  id="v-408" label-idx="0" cursor="move" transform="translate(1881.5, 913.5)" style="opacity: 1;"><rect id="v-410" fill="#ffffff" rx="3" ry="3" stroke="#ffffff" stroke-width="20px" pointer-events="none" width="181.5536346435547" height="60.15080451965332" transform="matrix(1,0,0,1,-89.8,-30)"></rect><text id="v-409" font-size="24px" y="0.8em" xml:space="preserve" text-anchor="middle" pointer-events="none" fill="#707070" font-family="Open Sans" font-weight="normal" transform="matrix(1,0,0,1,0,-24.6)"><tspan id="v-411"  dy="0em" x="0">stores materials</tspan><tspan id="v-412"  dy="1.2em" x="0">to</tspan></text></g><g  id="v-413" label-idx="1" cursor="move" transform="translate(1881.5, 956.7)" style="opacity: 1;"><rect id="v-415" fill="#ffffff" rx="3" ry="3" pointer-events="none" width="0" height="0" transform="matrix(1,0,0,1,0,0)"></rect><text id="v-414" font-size="19px" y="0.8em" display="none" xml:space="preserve" text-anchor="middle" pointer-events="none" fill="#707070" font-family="Open Sans" font-weight="normal" transform="matrix(1,0,0,1,0,0)"><tspan id="v-416"  dy="0em" x="0" style="fill-opacity: 0; stroke-opacity: 0;">-</tspan></text></g><g  id="v-417" label-idx="2" cursor="move" transform="translate(1881.5, 980.7)" style="opacity: 1;"><rect id="v-419" fill="#ffffff" rx="3" ry="3" pointer-events="none"  display="none" width="0" height="0" transform="matrix(1,0,0,1,0,0)"></rect><text id="v-418" font-size="19px" y="0.8em" display="none" xml:space="preserve" text-anchor="middle" pointer-events="none" fill="#707070" font-family="Open Sans" font-weight="normal"  transform="matrix(1,0,0,1,0,0)"><tspan id="v-420"  dy="0em" x="0" style="fill-opacity: 0; stroke-opacity: 0;">-</tspan></text></g></g><g  display="none"></g><g  id="v-425" display="none"><g  id="v-405"><path  end="source" d="M 26 0 L 0 13 L 26 26 z"></path></g><g  id="v-406"><path  end="target" d="M 26 0 L 0 13 L 26 26 z"></path></g></g><g  id="v-424" display="none"><g  id="v-404" transform="translate(1880.358154296875, 785.9984130859375) "><g  event="remove"><circle r="11"></circle><path transform="scale(.8) translate(-16, -16)" d="M24.778,21.419 19.276,15.917 24.777,10.415 21.949,7.585 16.447,13.087 10.945,7.585 8.117,10.415 13.618,15.917 8.116,21.419 10.946,24.248 16.447,18.746 21.948,24.248z"></path><title>Remove link.</title></g><g  event="link:options"><circle r="11" transform="translate(25)"></circle><path fill="white" transform="scale(.55) translate(29, -16)" d="M31.229,17.736c0.064-0.571,0.104-1.148,0.104-1.736s-0.04-1.166-0.104-1.737l-4.377-1.557c-0.218-0.716-0.504-1.401-0.851-2.05l1.993-4.192c-0.725-0.91-1.549-1.734-2.458-2.459l-4.193,1.994c-0.647-0.347-1.334-0.632-2.049-0.849l-1.558-4.378C17.165,0.708,16.588,0.667,16,0.667s-1.166,0.041-1.737,0.105L12.707,5.15c-0.716,0.217-1.401,0.502-2.05,0.849L6.464,4.005C5.554,4.73,4.73,5.554,4.005,6.464l1.994,4.192c-0.347,0.648-0.632,1.334-0.849,2.05l-4.378,1.557C0.708,14.834,0.667,15.412,0.667,16s0.041,1.165,0.105,1.736l4.378,1.558c0.217,0.715,0.502,1.401,0.849,2.049l-1.994,4.193c0.725,0.909,1.549,1.733,2.459,2.458l4.192-1.993c0.648,0.347,1.334,0.633,2.05,0.851l1.557,4.377c0.571,0.064,1.148,0.104,1.737,0.104c0.588,0,1.165-0.04,1.736-0.104l1.558-4.377c0.715-0.218,1.399-0.504,2.049-0.851l4.193,1.993c0.909-0.725,1.733-1.549,2.458-2.458l-1.993-4.193c0.347-0.647,0.633-1.334,0.851-2.049L31.229,17.736zM16,20.871c-2.69,0-4.872-2.182-4.872-4.871c0-2.69,2.182-4.872,4.872-4.872c2.689,0,4.871,2.182,4.871,4.872C20.871,18.689,18.689,20.871,16,20.871z"></path><title>Link options.</title></g></g></g></g><g id="j_24"   ><path  stroke="#707070" id="v-445" stroke-width="2" stroke-dasharray="30 30" fill="none" d="M 1293 847 1636 700" style="opacity: 1;"></path><path  fill="black" stroke="black" transform="translate(1293,847) scale(1,1) rotate(-23.236888885498047)"></path><path  fill="#707070" stroke="#707070" id="v-447" d="M 20 0 L 0 10 L 20 20 z" transform="translate(1657.9453087084476,701.1887908160505) scale(1,1) rotate(-203.2368927001953)" style="opacity: 1;"></path><path  id="v-446" fill="none" d="M 1293 847 1636 700" style=""></path><title ></title><g ><g  id="v-433" label-idx="0" cursor="move" transform="translate(1464.5, 773.5)" style="opacity: 1;"><rect id="v-435" fill="#ffffff" rx="3" ry="3" stroke="#ffffff" stroke-width="20px" pointer-events="none" width="189.1564483642578" height="31.350801467895508" transform="matrix(1,0,0,1,-94,-15.6)"></rect><text id="v-434" font-size="24px" y="0.8em" xml:space="preserve" text-anchor="middle" pointer-events="none" fill="#707070" font-family="Open Sans" font-weight="normal" transform="matrix(1,0,0,1,0,-10.2)"><tspan id="v-436"  dy="0em" x="0">makes API call to</tspan></text></g><g  id="v-437" label-idx="1" cursor="move" transform="translate(1464.5, 804.7)" style="opacity: 1;"><rect id="v-439" fill="#ffffff" rx="3" ry="3" pointer-events="none" width="0" height="0" transform="matrix(1,0,0,1,0,0)"></rect><text id="v-438" font-size="19px" y="0.8em" display="none" xml:space="preserve" text-anchor="middle" pointer-events="none" fill="#707070" font-family="Open Sans" font-weight="normal" transform="matrix(1,0,0,1,0,0)"><tspan id="v-440"  dy="0em" x="0" style="fill-opacity: 0; stroke-opacity: 0;">-</tspan></text></g><g  id="v-441" label-idx="2" cursor="move" transform="translate(1464.5, 828.7)" style="opacity: 1;"><rect id="v-443" fill="#ffffff" rx="3" ry="3" pointer-events="none"  display="none" width="0" height="0" transform="matrix(1,0,0,1,0,0)"></rect><text id="v-442" font-size="19px" y="0.8em" display="none" xml:space="preserve" text-anchor="middle" pointer-events="none" fill="#707070" font-family="Open Sans" font-weight="normal"  transform="matrix(1,0,0,1,0,0)"><tspan id="v-444"  dy="0em" x="0" style="fill-opacity: 0; stroke-opacity: 0;">-</tspan></text></g></g><g  display="none"></g><g  id="v-449" display="none"><g  id="v-430"><path  end="source" d="M 26 0 L 0 13 L 26 26 z"></path></g><g  id="v-431"><path  end="target" d="M 26 0 L 0 13 L 26 26 z"></path></g></g><g  id="v-448" display="none"><g  id="v-429" transform="translate(1329.765869140625, 831.2432250976562) "><g  event="remove"><circle r="11"></circle><path transform="scale(.8) translate(-16, -16)" d="M24.778,21.419 19.276,15.917 24.777,10.415 21.949,7.585 16.447,13.087 10.945,7.585 8.117,10.415 13.618,15.917 8.116,21.419 10.946,24.248 16.447,18.746 21.948,24.248z"></path><title>Remove link.</title></g><g  event="link:options"><circle r="11" transform="translate(25)"></circle><path fill="white" transform="scale(.55) translate(29, -16)" d="M31.229,17.736c0.064-0.571,0.104-1.148,0.104-1.736s-0.04-1.166-0.104-1.737l-4.377-1.557c-0.218-0.716-0.504-1.401-0.851-2.05l1.993-4.192c-0.725-0.91-1.549-1.734-2.458-2.459l-4.193,1.994c-0.647-0.347-1.334-0.632-2.049-0.849l-1.558-4.378C17.165,0.708,16.588,0.667,16,0.667s-1.166,0.041-1.737,0.105L12.707,5.15c-0.716,0.217-1.401,0.502-2.05,0.849L6.464,4.005C5.554,4.73,4.73,5.554,4.005,6.464l1.994,4.192c-0.347,0.648-0.632,1.334-0.849,2.05l-4.378,1.557C0.708,14.834,0.667,15.412,0.667,16s0.041,1.165,0.105,1.736l4.378,1.558c0.217,0.715,0.502,1.401,0.849,2.049l-1.994,4.193c0.725,0.909,1.549,1.733,2.459,2.458l4.192-1.993c0.648,0.347,1.334,0.633,2.05,0.851l1.557,4.377c0.571,0.064,1.148,0.104,1.737,0.104c0.588,0,1.165-0.04,1.736-0.104l1.558-4.377c0.715-0.218,1.399-0.504,2.049-0.851l4.193,1.993c0.909-0.725,1.733-1.549,2.458-2.458l-1.993-4.193c0.347-0.647,0.633-1.334,0.851-2.049L31.229,17.736zM16,20.871c-2.69,0-4.872-2.182-4.872-4.871c0-2.69,2.182-4.872,4.872-4.872c2.689,0,4.871,2.182,4.871,4.872C20.871,18.689,18.689,20.871,16,20.871z"></path><title>Link options.</title></g></g></g></g><g id="j_25"   ><path  stroke="#707070" id="v-469" stroke-width="2" stroke-dasharray="30 30" fill="none" d="M 1368 439 1635 521" style="opacity: 1;"></path><path  fill="black" stroke="black" transform="translate(1368,439) scale(1,1) rotate(17.102722167968764)"></path><path  fill="#707070" stroke="#707070" id="v-471" d="M 20 0 L 0 10 L 20 20 z" transform="translate(1651.0591938246375,536.5577908565625) scale(1,1) rotate(-162.89727783203125)" style="opacity: 1;"></path><path  id="v-470" fill="none" d="M 1368 439 1635 521" style=""></path><title ></title><g ><g  id="v-457" label-idx="0" cursor="move" transform="translate(1501.5, 480)" style="opacity: 1;"><rect id="v-459" fill="#ffffff" rx="3" ry="3" stroke="#ffffff" stroke-width="20px" pointer-events="none" width="189.1564483642578" height="31.350801467895508" transform="matrix(1,0,0,1,-94,-15.6)"></rect><text id="v-458" font-size="24px" y="0.8em" xml:space="preserve" text-anchor="middle" pointer-events="none" fill="#707070" font-family="Open Sans" font-weight="normal" transform="matrix(1,0,0,1,0,-10.2)"><tspan id="v-460"  dy="0em" x="0">makes API call to</tspan></text></g><g  id="v-461" label-idx="1" cursor="move" transform="translate(1501.5, 511.2)" style="opacity: 1;"><rect id="v-463" fill="#ffffff" rx="3" ry="3" pointer-events="none" width="0" height="0" transform="matrix(1,0,0,1,0,0)"></rect><text id="v-462" font-size="19px" y="0.8em" display="none" xml:space="preserve" text-anchor="middle" pointer-events="none" fill="#707070" font-family="Open Sans" font-weight="normal" transform="matrix(1,0,0,1,0,0)"><tspan id="v-464"  dy="0em" x="0" style="fill-opacity: 0; stroke-opacity: 0;">-</tspan></text></g><g  id="v-465" label-idx="2" cursor="move" transform="translate(1501.5, 535.2)" style="opacity: 1;"><rect id="v-467" fill="#ffffff" rx="3" ry="3" pointer-events="none"  display="none" width="0" height="0" transform="matrix(1,0,0,1,0,0)"></rect><text id="v-466" font-size="19px" y="0.8em" display="none" xml:space="preserve" text-anchor="middle" pointer-events="none" fill="#707070" font-family="Open Sans" font-weight="normal"  transform="matrix(1,0,0,1,0,0)"><tspan id="v-468"  dy="0em" x="0" style="fill-opacity: 0; stroke-opacity: 0;">-</tspan></text></g></g><g  display="none"></g><g  id="v-473" display="none"><g  id="v-454"><path  end="source" d="M 26 0 L 0 13 L 26 26 z"></path></g><g  id="v-455"><path  end="target" d="M 26 0 L 0 13 L 26 26 z"></path></g></g><g  id="v-472" display="none"><g  id="v-453" transform="translate(1406.2373046875, 450.7433166503906) "><g  event="remove"><circle r="11"></circle><path transform="scale(.8) translate(-16, -16)" d="M24.778,21.419 19.276,15.917 24.777,10.415 21.949,7.585 16.447,13.087 10.945,7.585 8.117,10.415 13.618,15.917 8.116,21.419 10.946,24.248 16.447,18.746 21.948,24.248z"></path><title>Remove link.</title></g><g  event="link:options"><circle r="11" transform="translate(25)"></circle><path fill="white" transform="scale(.55) translate(29, -16)" d="M31.229,17.736c0.064-0.571,0.104-1.148,0.104-1.736s-0.04-1.166-0.104-1.737l-4.377-1.557c-0.218-0.716-0.504-1.401-0.851-2.05l1.993-4.192c-0.725-0.91-1.549-1.734-2.458-2.459l-4.193,1.994c-0.647-0.347-1.334-0.632-2.049-0.849l-1.558-4.378C17.165,0.708,16.588,0.667,16,0.667s-1.166,0.041-1.737,0.105L12.707,5.15c-0.716,0.217-1.401,0.502-2.05,0.849L6.464,4.005C5.554,4.73,4.73,5.554,4.005,6.464l1.994,4.192c-0.347,0.648-0.632,1.334-0.849,2.05l-4.378,1.557C0.708,14.834,0.667,15.412,0.667,16s0.041,1.165,0.105,1.736l4.378,1.558c0.217,0.715,0.502,1.401,0.849,2.049l-1.994,4.193c0.725,0.909,1.549,1.733,2.459,2.458l4.192-1.993c0.648,0.347,1.334,0.633,2.05,0.851l1.557,4.377c0.571,0.064,1.148,0.104,1.737,0.104c0.588,0,1.165-0.04,1.736-0.104l1.558-4.377c0.715-0.218,1.399-0.504,2.049-0.851l4.193,1.993c0.909-0.725,1.733-1.549,2.458-2.458l-1.993-4.193c0.347-0.647,0.633-1.334,0.851-2.049L31.229,17.736zM16,20.871c-2.69,0-4.872-2.182-4.872-4.871c0-2.69,2.182-4.872,4.872-4.872c2.689,0,4.871,2.182,4.871,4.872C20.871,18.689,18.689,20.871,16,20.871z"></path><title>Link options.</title></g></g></g></g><g id="j_26"   ><path  stroke="#707070" id="v-494" stroke-width="2" stroke-dasharray="30 30" fill="none" d="M 2409 1250 2129 1251" style="opacity: 1;"></path><path  fill="black" stroke="black" transform="translate(2409,1250) scale(1,1) rotate(-180.19097900390625)"></path><path  fill="#707070" stroke="#707070" id="v-496" d="M 20 0 L 0 10 L 20 20 z" transform="translate(2108.966722408103,1241.000063506762) scale(1,1) rotate(-0.19098521769045362)" style="opacity: 1;"></path><path  id="v-495" fill="none" d="M 2409 1250 2129 1251" style=""></path><title ></title><g ><g  id="v-481" label-idx="0" cursor="move" transform="translate(2269, 1250.5)" style="opacity: 1;"><rect id="v-483" fill="#ffffff" rx="3" ry="3" stroke="#ffffff" stroke-width="20px" pointer-events="none" width="195.8666534423828" height="60.15080451965332" transform="matrix(1,0,0,1,-98.1,-30)"></rect><text id="v-482" font-size="24px" y="0.8em" xml:space="preserve" text-anchor="middle" pointer-events="none" fill="#707070" font-family="Open Sans" font-weight="normal" transform="matrix(1,0,0,1,0,-24.6)"><tspan id="v-484"  dy="0em" x="0">fetches materials</tspan><tspan id="v-485"  dy="1.2em" x="0">from</tspan></text></g><g  id="v-486" label-idx="1" cursor="move" transform="translate(2269, 1293.7)" style="opacity: 1;"><rect id="v-488" fill="#ffffff" rx="3" ry="3" pointer-events="none" width="0" height="0" transform="matrix(1,0,0,1,0,0)"></rect><text id="v-487" font-size="19px" y="0.8em" display="none" xml:space="preserve" text-anchor="middle" pointer-events="none" fill="#707070" font-family="Open Sans" font-weight="normal" transform="matrix(1,0,0,1,0,0)"><tspan id="v-489"  dy="0em" x="0" style="fill-opacity: 0; stroke-opacity: 0;">-</tspan></text></g><g  id="v-490" label-idx="2" cursor="move" transform="translate(2269, 1317.7)" style="opacity: 1;"><rect id="v-492" fill="#ffffff" rx="3" ry="3" pointer-events="none"  display="none" width="0" height="0" transform="matrix(1,0,0,1,0,0)"></rect><text id="v-491" font-size="19px" y="0.8em" display="none" xml:space="preserve" text-anchor="middle" pointer-events="none" fill="#707070" font-family="Open Sans" font-weight="normal"  transform="matrix(1,0,0,1,0,0)"><tspan id="v-493"  dy="0em" x="0" style="fill-opacity: 0; stroke-opacity: 0;">-</tspan></text></g></g><g  display="none"></g><g  id="v-498" display="none"><g  id="v-478"><path  end="source" d="M 26 0 L 0 13 L 26 26 z"></path></g><g  id="v-479"><path  end="target" d="M 26 0 L 0 13 L 26 26 z"></path></g></g><g  id="v-497" display="none"><g  id="v-477" transform="translate(2369.000244140625, 1250.142822265625) "><g  event="remove"><circle r="11"></circle><path transform="scale(.8) translate(-16, -16)" d="M24.778,21.419 19.276,15.917 24.777,10.415 21.949,7.585 16.447,13.087 10.945,7.585 8.117,10.415 13.618,15.917 8.116,21.419 10.946,24.248 16.447,18.746 21.948,24.248z"></path><title>Remove link.</title></g><g  event="link:options"><circle r="11" transform="translate(25)"></circle><path fill="white" transform="scale(.55) translate(29, -16)" d="M31.229,17.736c0.064-0.571,0.104-1.148,0.104-1.736s-0.04-1.166-0.104-1.737l-4.377-1.557c-0.218-0.716-0.504-1.401-0.851-2.05l1.993-4.192c-0.725-0.91-1.549-1.734-2.458-2.459l-4.193,1.994c-0.647-0.347-1.334-0.632-2.049-0.849l-1.558-4.378C17.165,0.708,16.588,0.667,16,0.667s-1.166,0.041-1.737,0.105L12.707,5.15c-0.716,0.217-1.401,0.502-2.05,0.849L6.464,4.005C5.554,4.73,4.73,5.554,4.005,6.464l1.994,4.192c-0.347,0.648-0.632,1.334-0.849,2.05l-4.378,1.557C0.708,14.834,0.667,15.412,0.667,16s0.041,1.165,0.105,1.736l4.378,1.558c0.217,0.715,0.502,1.401,0.849,2.049l-1.994,4.193c0.725,0.909,1.549,1.733,2.459,2.458l4.192-1.993c0.648,0.347,1.334,0.633,2.05,0.851l1.557,4.377c0.571,0.064,1.148,0.104,1.737,0.104c0.588,0,1.165-0.04,1.736-0.104l1.558-4.377c0.715-0.218,1.399-0.504,2.049-0.851l4.193,1.993c0.909-0.725,1.733-1.549,2.458-2.458l-1.993-4.193c0.347-0.647,0.633-1.334,0.851-2.049L31.229,17.736zM16,20.871c-2.69,0-4.872-2.182-4.872-4.871c0-2.69,2.182-4.872,4.872-4.872c2.689,0,4.871,2.182,4.871,4.872C20.871,18.689,18.689,20.871,16,20.871z"></path><title>Link options.</title></g></g></g></g><g id="j_27"   ><path  stroke="#707070" id="v-516" stroke-width="2" stroke-dasharray="30 30" fill="none" d="M 599 681 975 840" style="opacity: 1;"></path><path  fill="black" stroke="black" transform="translate(599,681) scale(1,1) rotate(22.970031738281264)"></path><path  fill="#707070" stroke="#707070" id="v-518" d="M 20 0 L 0 10 L 20 20 z" transform="translate(989.0974991003203,857.2070616290385) scale(1,1) rotate(-157.0299530029297)" style="opacity: 1;"></path><path  id="v-517" fill="none" d="M 599 681 975 840" style=""></path><title ></title><g ><g  id="v-504" label-idx="0" cursor="move" transform="translate(787, 760.5)" style="opacity: 1;"><rect id="v-506" fill="#ffffff" rx="3" ry="3" stroke="#ffffff" stroke-width="20px" pointer-events="none" width="53.041358947753906" height="31.350801467895508" transform="matrix(1,0,0,1,-25.5,-15.6)"></rect><text id="v-505" font-size="24px" y="0.8em" xml:space="preserve" text-anchor="middle" pointer-events="none" fill="#707070" font-family="Open Sans" font-weight="normal" transform="matrix(1,0,0,1,0,-10.2)"><tspan id="v-507"  dy="0em" x="0">uses</tspan></text></g><g  id="v-508" label-idx="1" cursor="move" transform="translate(787, 791.7)" style="opacity: 1;"><rect id="v-510" fill="#ffffff" rx="3" ry="3" pointer-events="none" width="0" height="0" transform="matrix(1,0,0,1,0,0)"></rect><text id="v-509" font-size="19px" y="0.8em" display="none" xml:space="preserve" text-anchor="middle" pointer-events="none" fill="#707070" font-family="Open Sans" font-weight="normal" transform="matrix(1,0,0,1,0,0)"><tspan id="v-511"  dy="0em" x="0" style="fill-opacity: 0; stroke-opacity: 0;">-</tspan></text></g><g  id="v-512" label-idx="2" cursor="move" transform="translate(787, 815.7)" style="opacity: 1;"><rect id="v-514" fill="#ffffff" rx="3" ry="3" pointer-events="none"  display="none" width="0" height="0" transform="matrix(1,0,0,1,0,0)"></rect><text id="v-513" font-size="19px" y="0.8em" display="none" xml:space="preserve" text-anchor="middle" pointer-events="none" fill="#707070" font-family="Open Sans" font-weight="normal"  transform="matrix(1,0,0,1,0,0)"><tspan id="v-515"  dy="0em" x="0" style="fill-opacity: 0; stroke-opacity: 0;">-</tspan></text></g></g><g  display="none"></g><g  id="v-520" display="none"><g  id="v-501"><path  end="source" d="M 26 0 L 0 13 L 26 26 z"></path></g><g  id="v-502"><path  end="target" d="M 26 0 L 0 13 L 26 26 z"></path></g></g><g  id="v-519" display="none"><g  id="v-500" transform="translate(635.8414306640625, 696.5792236328125) "><g  event="remove"><circle r="11"></circle><path transform="scale(.8) translate(-16, -16)" d="M24.778,21.419 19.276,15.917 24.777,10.415 21.949,7.585 16.447,13.087 10.945,7.585 8.117,10.415 13.618,15.917 8.116,21.419 10.946,24.248 16.447,18.746 21.948,24.248z"></path><title>Remove link.</title></g><g  event="link:options"><circle r="11" transform="translate(25)"></circle><path fill="white" transform="scale(.55) translate(29, -16)" d="M31.229,17.736c0.064-0.571,0.104-1.148,0.104-1.736s-0.04-1.166-0.104-1.737l-4.377-1.557c-0.218-0.716-0.504-1.401-0.851-2.05l1.993-4.192c-0.725-0.91-1.549-1.734-2.458-2.459l-4.193,1.994c-0.647-0.347-1.334-0.632-2.049-0.849l-1.558-4.378C17.165,0.708,16.588,0.667,16,0.667s-1.166,0.041-1.737,0.105L12.707,5.15c-0.716,0.217-1.401,0.502-2.05,0.849L6.464,4.005C5.554,4.73,4.73,5.554,4.005,6.464l1.994,4.192c-0.347,0.648-0.632,1.334-0.849,2.05l-4.378,1.557C0.708,14.834,0.667,15.412,0.667,16s0.041,1.165,0.105,1.736l4.378,1.558c0.217,0.715,0.502,1.401,0.849,2.049l-1.994,4.193c0.725,0.909,1.549,1.733,2.459,2.458l4.192-1.993c0.648,0.347,1.334,0.633,2.05,0.851l1.557,4.377c0.571,0.064,1.148,0.104,1.737,0.104c0.588,0,1.165-0.04,1.736-0.104l1.558-4.377c0.715-0.218,1.399-0.504,2.049-0.851l4.193,1.993c0.909-0.725,1.733-1.549,2.458-2.458l-1.993-4.193c0.347-0.647,0.633-1.334,0.851-2.049L31.229,17.736zM16,20.871c-2.69,0-4.872-2.182-4.872-4.871c0-2.69,2.182-4.872,4.872-4.872c2.689,0,4.871,2.182,4.871,4.872C20.871,18.689,18.689,20.871,16,20.871z"></path><title>Link options.</title></g></g></g></g><g id="j_28"   ><path  stroke="#707070" id="v-538" stroke-width="2" stroke-dasharray="30 30" fill="none" d="M 599 535 899 444" style="opacity: 1;"></path><path  fill="black" stroke="black" transform="translate(599,535) scale(1,1) rotate(-16.91321754455565)"></path><path  fill="#707070" stroke="#707070" id="v-540" d="M 20 0 L 0 10 L 20 20 z" transform="translate(920.9092509120658,447.5674753139517) scale(1,1) rotate(-196.91322326660156)" style="opacity: 1;"></path><path  id="v-539" fill="none" d="M 599 535 899 444" style=""></path><title ></title><g ><g  id="v-526" label-idx="0" cursor="move" transform="translate(749, 489.5)" style="opacity: 1;"><rect id="v-528" fill="#ffffff" rx="3" ry="3" stroke="#ffffff" stroke-width="20px" pointer-events="none" width="53.041358947753906" height="31.350801467895508" transform="matrix(1,0,0,1,-25.5,-15.6)"></rect><text id="v-527" font-size="24px" y="0.8em" xml:space="preserve" text-anchor="middle" pointer-events="none" fill="#707070" font-family="Open Sans" font-weight="normal" transform="matrix(1,0,0,1,0,-10.2)"><tspan id="v-529"  dy="0em" x="0">uses</tspan></text></g><g  id="v-530" label-idx="1" cursor="move" transform="translate(749, 520.7)" style="opacity: 1;"><rect id="v-532" fill="#ffffff" rx="3" ry="3" pointer-events="none" width="0" height="0" transform="matrix(1,0,0,1,0,0)"></rect><text id="v-531" font-size="19px" y="0.8em" display="none" xml:space="preserve" text-anchor="middle" pointer-events="none" fill="#707070" font-family="Open Sans" font-weight="normal" transform="matrix(1,0,0,1,0,0)"><tspan id="v-533"  dy="0em" x="0" style="fill-opacity: 0; stroke-opacity: 0;">-</tspan></text></g><g  id="v-534" label-idx="2" cursor="move" transform="translate(749, 544.7)" style="opacity: 1;"><rect id="v-536" fill="#ffffff" rx="3" ry="3" pointer-events="none"  display="none" width="0" height="0" transform="matrix(1,0,0,1,0,0)"></rect><text id="v-535" font-size="19px" y="0.8em" display="none" xml:space="preserve" text-anchor="middle" pointer-events="none" fill="#707070" font-family="Open Sans" font-weight="normal"  transform="matrix(1,0,0,1,0,0)"><tspan id="v-537"  dy="0em" x="0" style="fill-opacity: 0; stroke-opacity: 0;">-</tspan></text></g></g><g  display="none"></g><g  id="v-542" display="none"><g  id="v-523"><path  end="source" d="M 26 0 L 0 13 L 26 26 z"></path></g><g  id="v-524"><path  end="target" d="M 26 0 L 0 13 L 26 26 z"></path></g></g><g  id="v-541" display="none"><g  id="v-522" transform="translate(637.2777099609375, 523.3890991210938) "><g  event="remove"><circle r="11"></circle><path transform="scale(.8) translate(-16, -16)" d="M24.778,21.419 19.276,15.917 24.777,10.415 21.949,7.585 16.447,13.087 10.945,7.585 8.117,10.415 13.618,15.917 8.116,21.419 10.946,24.248 16.447,18.746 21.948,24.248z"></path><title>Remove link.</title></g><g  event="link:options"><circle r="11" transform="translate(25)"></circle><path fill="white" transform="scale(.55) translate(29, -16)" d="M31.229,17.736c0.064-0.571,0.104-1.148,0.104-1.736s-0.04-1.166-0.104-1.737l-4.377-1.557c-0.218-0.716-0.504-1.401-0.851-2.05l1.993-4.192c-0.725-0.91-1.549-1.734-2.458-2.459l-4.193,1.994c-0.647-0.347-1.334-0.632-2.049-0.849l-1.558-4.378C17.165,0.708,16.588,0.667,16,0.667s-1.166,0.041-1.737,0.105L12.707,5.15c-0.716,0.217-1.401,0.502-2.05,0.849L6.464,4.005C5.554,4.73,4.73,5.554,4.005,6.464l1.994,4.192c-0.347,0.648-0.632,1.334-0.849,2.05l-4.378,1.557C0.708,14.834,0.667,15.412,0.667,16s0.041,1.165,0.105,1.736l4.378,1.558c0.217,0.715,0.502,1.401,0.849,2.049l-1.994,4.193c0.725,0.909,1.549,1.733,2.459,2.458l4.192-1.993c0.648,0.347,1.334,0.633,2.05,0.851l1.557,4.377c0.571,0.064,1.148,0.104,1.737,0.104c0.588,0,1.165-0.04,1.736-0.104l1.558-4.377c0.715-0.218,1.399-0.504,2.049-0.851l4.193,1.993c0.909-0.725,1.733-1.549,2.458-2.458l-1.993-4.193c0.347-0.647,0.633-1.334,0.851-2.049L31.229,17.736zM16,20.871c-2.69,0-4.872-2.182-4.872-4.871c0-2.69,2.182-4.872,4.872-4.872c2.689,0,4.871,2.182,4.871,4.872C20.871,18.689,18.689,20.871,16,20.871z"></path><title>Link options.</title></g></g></g></g></g><defs id="v-4"></defs></svg>