<svg xmlns="http://www.w3.org/2000/svg" xmlns:xlink="http://www.w3.org/1999/xlink" xmlns:lucid="lucid" width="792" height="446.67"><g transform="translate(-144 -40)" lucid:page-tab-id="S8ls1ahtslAD"><path d="M720 280c0 88.37-71.63 160-160 160s-160-71.63-160-160 71.63-160 160-160 160 71.63 160 160z" stroke="#0c7cba" stroke-width="3" fill="#83bbe5"/><path d="M480 66c0-3.3 2.7-6 6-6h148c3.3 0 6 2.7 6 6v28c0 3.3-2.7 6-6 6H486c-3.3 0-6-2.7-6-6z" stroke="#000" stroke-opacity="0" stroke-width="3" fill-opacity="0"/><use xlink:href="#a" transform="matrix(1,0,0,1,485,65) translate(37.65432098765432 19.71527777777778)"/><g fill="none"><path d="M437.28 180c.27-.3.74-.36 1.06-.1l244.28 202.04c.32.26.36.73.1 1.05-.27.3-.74.36-1.06.1L437.38 181.05c-.32-.26-.36-.73-.1-1.05z"/><path d="M461.6 199.15l23.27 19.24m11.63 9.6l23.26 19.25m11.64 9.62l23.26 19.24m11.63 9.63l23.26 19.24m11.63 9.62l23.26 19.23m11.63 9.62l23.25 19.25m11.64 9.62l11.62 9.62.27.5-.18.55-.5.26-.56-.17-11.63-9.63m-11.63-9.62l-23.27-19.24M623.5 335l-23.26-19.25m-11.64-9.62l-23.26-19.24m-11.63-9.63l-23.26-19.24m-11.63-9.62l-23.26-19.23m-11.63-9.62l-23.25-19.25M449 190.68l-11.62-9.62-.27-.5.18-.55.5-.26.56.17 11.63 9.63" stroke="#0c7cba" stroke-width="1.5"/></g><path d="M521.53 218.5c2.1-2.57 5.88-2.94 8.45-.85L644.5 311.4c2.57 2.1 2.95 5.87.85 8.43l-17.73 21.67c-2.1 2.57-5.88 2.94-8.45.85L504.64 248.6c-2.56-2.1-2.94-5.87-.84-8.43z" stroke="#000" stroke-opacity="0" stroke-width="3" fill-opacity="0"/><use xlink:href="#b" transform="matrix(0.773857983167383,0.6333591571044903,-0.6333591571044903,0.773857983167383,526.0368604144941,220.8901934696525) translate(23.17901234567902 19.71527777777778)"/><use xlink:href="#c" transform="matrix(0.773857983167383,0.6333591571044903,-0.6333591571044903,0.773857983167383,526.0368604144941,220.8901934696525) translate(97.25308641975309 19.71527777777778)"/><path d="M731.5 187.78l-.98 3.6-2.7 2.73-3.62.98h-26.24v-3h25.84l2.45-.66 1.6-1.6.65-2.44v-11.9h3m0-12.08h-3v-2.42h3m0-12.1h-3V124.7h3m0-12.1h-3v-2.4h3m18.98-28.7H736.2l-2.45.66-1.6 1.6-.65 2.44v11.9h-3V85.8l.98-3.6 2.7-2.72 3.62-.98h14.68m168.02 3h-14.48v-3h14.48" fill="#0c7cba" fill-opacity=".5"/><path d="M698 195.08h-.63l-.9-1.5-1-1.5H698M920 81.5h-1.54v-3H920" fill="#0c7cba" fill-opacity=".5"/><use xlink:href="#d" transform="matrix(1,0,0,1,764.9135802469137,69.33333333333333) translate(0 14.222222222222223)"/><use xlink:href="#e" transform="matrix(1,0,0,1,764.9135802469137,69.33333333333333) translate(49.38271604938272 14.222222222222223)"/><use xlink:href="#f" transform="matrix(1,0,0,1,764.9135802469137,69.33333333333333) translate(108.14814814814817 14.222222222222223)"/><path d="M561.5 453.8l.66 2.45 1.6 1.6 2.44.65h15.63v3H565.8l-3.6-.98-2.72-2.7-.98-3.62V443h3m39.33 18.5h-3.16v-3h3.16m43.13 3h-27.3v-3h27.3m203.87 3h-31.66v-3h31.66m19 3h-3.16v-3h3.16m31.67 3h-15.83v-3h15.83m-98.17 3h-2.8v-3h2.8" fill="#0c7cba" fill-opacity=".5"/><path d="M560 441.5l1.5-.02v1.56h-3v-1.57M900 461.5h-1.54v-3H900" fill="#0c7cba" fill-opacity=".5"/><use xlink:href="#g" transform="matrix(1,0,0,1,643.9599175434853,449.3333333333333) translate(0 14.222222222222223)"/><use xlink:href="#h" transform="matrix(1,0,0,1,643.9599175434853,449.3333333333333) translate(49.38271604938272 14.222222222222223)"/><use xlink:href="#i" transform="matrix(1,0,0,1,643.9599175434853,449.3333333333333) translate(118.02469135802471 14.222222222222223)"/><path d="M381.5 293.02l.66 2.45 1.6 1.6 2.44.65h11.96v3H385.8l-3.6-.97-2.72-2.72-.98-3.6v-15.07h3m0-14.86h-3v-2.97h3m0-14.86h-3v-29.7h3m0-14.87h-3v-2.98h3m0-14.85h-3v-29.72h3m0-14.86h-3v-2.98h3m-3.7-36.24l2.72 2.7.98 3.62v15.06h-3V106.2l-.66-2.45-1.6-1.6-2.44-.65h-16.67v-3h17.07m-175.6 3h-3.37v-3h3.37m-20.23 3H161.5v-3h16.87m161.9 3h-3.3v-3h3.3" fill="#0c7cba" fill-opacity=".5"/><path d="M399.85 300.72h-1.73v-3h1.35M161.54 101.5H160v-3h1.54" fill="#0c7cba" fill-opacity=".5"/><g><use xlink:href="#j" transform="matrix(1,0,0,1,201.70370370370372,89.33333333333333) translate(0 14.222222222222223)"/><use xlink:href="#k" transform="matrix(1,0,0,1,201.70370370370372,89.33333333333333) translate(34.567901234567906 14.222222222222223)"/><use xlink:href="#l" transform="matrix(1,0,0,1,201.70370370370372,89.33333333333333) translate(69.13580246913581 14.222222222222223)"/><use xlink:href="#m" transform="matrix(1,0,0,1,201.70370370370372,89.33333333333333) translate(103.70370370370372 14.222222222222223)"/></g><defs><path fill="#0c7cba" d="M30 0v-248h187v28H63v79h144v27H63v87h162V0H30" id="n"/><path fill="#0c7cba" d="M205 0l-28-72H64L36 0H1l101-248h38L239 0h-34zm-38-99l-47-123c-12 45-31 82-46 123h93" id="o"/><path fill="#0c7cba" d="M233-177c-1 41-23 64-60 70L243 0h-38l-65-103H63V0H30v-248c88 3 205-21 203 71zM63-129c60-2 137 13 137-47 0-61-80-42-137-45v92" id="p"/><path fill="#0c7cba" d="M127-220V0H93v-220H8v-28h204v28h-85" id="q"/><path fill="#0c7cba" d="M197 0v-115H63V0H30v-248h33v105h134v-105h34V0h-34" id="r"/><g id="a"><use transform="matrix(0.06172839506172839,0,0,0.06172839506172839,0,0)" xlink:href="#n"/><use transform="matrix(0.06172839506172839,0,0,0.06172839506172839,14.814814814814813,0)" xlink:href="#o"/><use transform="matrix(0.06172839506172839,0,0,0.06172839506172839,29.629629629629626,0)" xlink:href="#p"/><use transform="matrix(0.06172839506172839,0,0,0.06172839506172839,45.18518518518518,0)" xlink:href="#q"/><use transform="matrix(0.06172839506172839,0,0,0.06172839506172839,58.7037037037037,0)" xlink:href="#r"/></g><path fill="#0c7cba" d="M27 0v-27h64v-190l-56 39v-29l58-41h29v221h61V0H27" id="s"/><path fill="#0c7cba" d="M101-251c82-7 93 87 43 132L82-64C71-53 59-42 53-27h129V0H18c2-99 128-94 128-182 0-28-16-43-45-43s-46 15-49 41l-32-3c6-41 34-60 81-64" id="t"/><path fill="#0c7cba" d="M33 0v-38h34V0H33" id="u"/><path fill="#0c7cba" d="M64 0c3-98 48-159 88-221H18v-27h164v26C143-157 98-101 97 0H64" id="v"/><path fill="#0c7cba" d="M155-56V0h-30v-56H8v-25l114-167h33v167h35v25h-35zm-30-156c-27 46-58 90-88 131h88v-131" id="w"/><g id="b"><use transform="matrix(0.06172839506172839,0,0,0.06172839506172839,0,0)" xlink:href="#s"/><use transform="matrix(0.06172839506172839,0,0,0.06172839506172839,12.345679012345679,0)" xlink:href="#t"/><use transform="matrix(0.06172839506172839,0,0,0.06172839506172839,24.691358024691358,0)" xlink:href="#u"/><use transform="matrix(0.06172839506172839,0,0,0.06172839506172839,30.864197530864196,0)" xlink:href="#v"/><use transform="matrix(0.06172839506172839,0,0,0.06172839506172839,43.20987654320987,0)" xlink:href="#w"/><use transform="matrix(0.06172839506172839,0,0,0.06172839506172839,55.55555555555555,0)" xlink:href="#t"/></g><path fill="#0c7cba" d="M143 0L79-87 56-68V0H24v-261h32v163l83-92h37l-77 82L181 0h-38" id="x"/><path fill="#0c7cba" d="M210-169c-67 3-38 105-44 169h-31v-121c0-29-5-50-35-48C34-165 62-65 56 0H25l-1-190h30c1 10-1 24 2 32 10-44 99-50 107 0 11-21 27-35 58-36 85-2 47 119 55 194h-31v-121c0-29-5-49-35-48" id="y"/><g id="c"><use transform="matrix(0.06172839506172839,0,0,0.06172839506172839,0,0)" xlink:href="#x"/><use transform="matrix(0.06172839506172839,0,0,0.06172839506172839,11.11111111111111,0)" xlink:href="#y"/></g><path fill="#0c7cba" d="M139-81c0-46-55-55-73-27H18l9-140h149v37H72l-4 63c44-38 133-4 122 66C201 21 21 35 11-62l49-4c5 18 15 30 39 30 26 0 40-18 40-45" id="z"/><path fill="#0c7cba" d="M76-54c-1 42 2 86-19 110H24C36 42 46 24 48 0H25v-54h51" id="A"/><path fill="#0c7cba" d="M99-251c69 0 84 53 88 123 5 99-61 162-144 118-15-8-21-25-26-45l46-6c4 31 50 33 63 7 7-15 12-36 12-60-9 18-29 28-54 28-48 0-72-32-72-82 0-55 31-83 87-83zm-1 128c24 0 37-16 37-39 0-27-10-51-37-51-25 0-35 19-35 45 0 25 10 45 35 45" id="B"/><path fill="#0c7cba" d="M52 0c1-96 47-148 87-207H15v-41h169v40c-36 62-79 113-81 208H52" id="C"/><path fill="#0c7cba" d="M128-127c34 4 56 21 59 58 7 91-148 94-172 28-4-9-6-17-7-26l51-5c1 24 16 35 40 36 23 0 39-12 38-36-1-31-31-36-65-34v-40c32 2 59-3 59-33 0-20-13-33-34-33s-33 13-35 32l-50-3c6-44 37-68 86-68 50 0 83 20 83 66 0 35-22 52-53 58" id="D"/><g id="d"><use transform="matrix(0.04938271604938272,0,0,0.04938271604938272,0,0)" xlink:href="#z"/><use transform="matrix(0.04938271604938272,0,0,0.04938271604938272,9.876543209876544,0)" xlink:href="#A"/><use transform="matrix(0.04938271604938272,0,0,0.04938271604938272,14.814814814814817,0)" xlink:href="#B"/><use transform="matrix(0.04938271604938272,0,0,0.04938271604938272,24.69135802469136,0)" xlink:href="#C"/><use transform="matrix(0.04938271604938272,0,0,0.04938271604938272,34.567901234567906,0)" xlink:href="#D"/></g><path fill="#0c7cba" d="M115-159c48 0 72 30 72 78 0 54-30 85-83 85-64 0-91-50-91-122 0-98 58-163 141-120 15 8 21 24 27 44l-47 6c-5-31-48-31-61-4-7 14-11 33-11 60 9-17 28-27 53-27zM102-35c24 0 36-20 36-45s-11-43-37-43c-23 0-36 14-36 38 0 27 11 50 37 50" id="E"/><path fill="#0c7cba" d="M15-57l63-63-62-62 28-28 61 62 62-62 28 28-62 62 62 62-28 28-62-62-62 62" id="F"/><path fill="#0c7cba" d="M23 0v-37h61v-169l-59 37v-38l62-41h46v211h57V0H23" id="G"/><path fill="#0c7cba" d="M101-251c68 0 84 54 84 127C185-50 166 4 99 4S15-52 14-124c-1-75 17-127 87-127zm-1 216c37-5 36-46 36-89s4-89-36-89c-39 0-36 45-36 89 0 43-3 85 36 89" id="H"/><path fill="#0c7cba" d="M182-182c0 78-84 86-111 141h115V0H12c-6-101 99-100 120-180 1-22-12-31-33-32-23 0-32 14-35 34l-49-3c5-45 32-70 84-70 51 0 83 22 83 69" id="I"/><path fill="#0c7cba" d="M165-50V0h-47v-50H5v-38l105-160h55v161h33v37h-33zm-47-37l2-116L46-87h72" id="J"/><g id="e"><use transform="matrix(0.04938271604938272,0,0,0.04938271604938272,0,0)" xlink:href="#E"/><use transform="matrix(0.04938271604938272,0,0,0.04938271604938272,9.876543209876544,0)" xlink:href="#F"/><use transform="matrix(0.04938271604938272,0,0,0.04938271604938272,20.24691358024692,0)" xlink:href="#G"/><use transform="matrix(0.04938271604938272,0,0,0.04938271604938272,30.123456790123466,0)" xlink:href="#H"/><use transform="matrix(0.034567901234567905,0,0,0.034567901234567905,40.000000000000014,-4.977777777777778)" xlink:href="#I"/><use transform="matrix(0.034567901234567905,0,0,0.034567901234567905,46.91358024691359,-4.977777777777778)" xlink:href="#J"/></g><path fill="#0c7cba" d="M147 0L96-86 75-71V0H25v-261h50v150l67-79h53l-66 74L201 0h-54" id="K"/><path fill="#0c7cba" d="M195-6C206 82 75 100 31 46c-4-6-6-13-8-21l49-6c3 16 16 24 34 25 40 0 42-37 40-79-11 22-30 35-61 35-53 0-70-43-70-97 0-56 18-96 73-97 30 0 46 14 59 34l2-30h47zm-90-29c32 0 41-27 41-63 0-35-9-62-40-62-32 0-39 29-40 63 0 36 9 62 39 62" id="L"/><g id="f"><use transform="matrix(0.04938271604938272,0,0,0.04938271604938272,0,0)" xlink:href="#K"/><use transform="matrix(0.04938271604938272,0,0,0.04938271604938272,9.876543209876544,0)" xlink:href="#L"/></g><path fill="#0c7cba" d="M138-131c27 9 52 24 51 61 0 53-36 74-89 74S11-19 11-69c0-35 22-54 51-61-78-25-46-121 38-121 51 0 83 19 83 66 0 30-18 49-45 54zm-38-16c24 0 32-13 32-36 1-23-11-34-32-34-22 0-33 12-32 34 0 22 9 36 32 36zm1 116c27 0 37-17 37-43 0-25-13-39-39-39-24 0-37 15-37 40 0 27 11 42 39 42" id="M"/><g id="g"><use transform="matrix(0.04938271604938272,0,0,0.04938271604938272,0,0)" xlink:href="#G"/><use transform="matrix(0.04938271604938272,0,0,0.04938271604938272,9.876543209876544,0)" xlink:href="#A"/><use transform="matrix(0.04938271604938272,0,0,0.04938271604938272,14.814814814814817,0)" xlink:href="#H"/><use transform="matrix(0.04938271604938272,0,0,0.04938271604938272,24.69135802469136,0)" xlink:href="#M"/><use transform="matrix(0.04938271604938272,0,0,0.04938271604938272,34.567901234567906,0)" xlink:href="#D"/></g><g id="h"><use transform="matrix(0.04938271604938272,0,0,0.04938271604938272,0,0)" xlink:href="#I"/><use transform="matrix(0.04938271604938272,0,0,0.04938271604938272,9.876543209876544,0)" xlink:href="#G"/><use transform="matrix(0.04938271604938272,0,0,0.04938271604938272,19.75308641975309,0)" xlink:href="#F"/><use transform="matrix(0.04938271604938272,0,0,0.04938271604938272,30.123456790123466,0)" xlink:href="#G"/><use transform="matrix(0.04938271604938272,0,0,0.04938271604938272,40.00000000000001,0)" xlink:href="#H"/><use transform="matrix(0.034567901234567905,0,0,0.034567901234567905,49.87654320987655,-4.977777777777778)" xlink:href="#G"/><use transform="matrix(0.034567901234567905,0,0,0.034567901234567905,56.790123456790134,-4.977777777777778)" xlink:href="#I"/></g><path fill="#0c7cba" d="M220-157c-53 9-28 100-34 157h-49v-107c1-27-5-49-29-50C55-147 81-57 75 0H25l-1-190h47c2 12-1 28 3 38 10-53 101-56 108 0 13-22 24-43 59-42 82 1 51 116 57 194h-49v-107c-1-25-5-48-29-50" id="N"/><g id="i"><use transform="matrix(0.04938271604938272,0,0,0.04938271604938272,0,0)" xlink:href="#K"/><use transform="matrix(0.04938271604938272,0,0,0.04938271604938272,9.876543209876544,0)" xlink:href="#N"/><use transform="matrix(0.04938271604938272,0,0,0.04938271604938272,25.679012345679016,0)" xlink:href="#D"/></g><g id="j"><use transform="matrix(0.04938271604938272,0,0,0.04938271604938272,0,0)" xlink:href="#z"/><use transform="matrix(0.04938271604938272,0,0,0.04938271604938272,9.876543209876544,0)" xlink:href="#G"/><use transform="matrix(0.04938271604938272,0,0,0.04938271604938272,19.75308641975309,0)" xlink:href="#H"/></g><g id="k"><use transform="matrix(0.04938271604938272,0,0,0.04938271604938272,0,0)" xlink:href="#H"/><use transform="matrix(0.04938271604938272,0,0,0.04938271604938272,9.876543209876544,0)" xlink:href="#E"/><use transform="matrix(0.04938271604938272,0,0,0.04938271604938272,19.75308641975309,0)" xlink:href="#C"/></g><g id="l"><use transform="matrix(0.04938271604938272,0,0,0.04938271604938272,0,0)" xlink:href="#J"/><use transform="matrix(0.04938271604938272,0,0,0.04938271604938272,9.876543209876544,0)" xlink:href="#I"/><use transform="matrix(0.04938271604938272,0,0,0.04938271604938272,19.75308641975309,0)" xlink:href="#H"/></g><path fill="#0c7cba" d="M110-214c0 40-46 42-61 68h63v24H9c-6-58 56-49 66-90 0-10-3-17-14-16-10 0-16 6-17 17l-34-1c1-48 100-55 100-2" id="O"/><g id="m"><use transform="matrix(0.04938271604938272,0,0,0.04938271604938272,0,0)" xlink:href="#K"/><use transform="matrix(0.04938271604938272,0,0,0.04938271604938272,9.876543209876544,0)" xlink:href="#N"/><use transform="matrix(0.04938271604938272,0,0,0.04938271604938272,25.679012345679016,0)" xlink:href="#O"/></g></defs></g></svg>