<svg xmlns="http://www.w3.org/2000/svg" xmlns:xlink="http://www.w3.org/1999/xlink" xmlns:lucid="lucid" width="1340" height="1020"><g transform="translate(1340 740)" lucid:page-tab-id="YU9r64F2sS3j"><path d="M-1000-694c0-3.3 2.7-6 6-6h148c3.3 0 6 2.7 6 6v108c0 3.3-2.7 6-6 6h-148c-3.3 0-6-2.7-6-6z" stroke="#834187" stroke-width="3" fill="#b391b5"/><use xlink:href="#a" transform="matrix(1,0,0,1,-995,-695) translate(17.610026041666657 50.88932291666667)"/><use xlink:href="#b" transform="matrix(1,0,0,1,-995,-695) translate(78.50455729166666 50.88932291666667)"/><use xlink:href="#c" transform="matrix(1,0,0,1,-995,-695) translate(14.474609374999993 76.30989583333334)"/><use xlink:href="#d" transform="matrix(1,0,0,1,-995,-695) translate(65.65299479166666 76.30989583333334)"/><use xlink:href="#e" transform="matrix(1,0,0,1,-995,-695) translate(90.71809895833334 76.30989583333334)"/><path d="M-1140-354c0-3.3 2.7-6 6-6h148c3.3 0 6 2.7 6 6v108c0 3.3-2.7 6-6 6h-148c-3.3 0-6-2.7-6-6z" stroke="#0c7cba" stroke-width="3" fill="#83bbe5"/><use xlink:href="#f" transform="matrix(1,0,0,1,-1135,-355) translate(6.909505208333329 50.88932291666667)"/><use xlink:href="#g" transform="matrix(1,0,0,1,-1135,-355) translate(47.615234375 50.88932291666667)"/><use xlink:href="#h" transform="matrix(1,0,0,1,-1135,-355) translate(91.21940104166667 50.88932291666667)"/><use xlink:href="#i" transform="matrix(1,0,0,1,-1135,-355) translate(6.12109375 76.30989583333334)"/><use xlink:href="#j" transform="matrix(1,0,0,1,-1135,-355) translate(67.3984375 76.30989583333334)"/><use xlink:href="#k" transform="matrix(1,0,0,1,-1135,-355) translate(94.17708333333334 76.30989583333334)"/><path d="M-1320-114c0-3.3 2.7-6 6-6h148c3.3 0 6 2.7 6 6V-6c0 3.3-2.7 6-6 6h-148c-3.3 0-6-2.7-6-6z" stroke="#999" stroke-width="3" fill="#ccc"/><use xlink:href="#l" transform="matrix(1,0,0,1,-1315,-115) translate(0.7617187499999858 50.88932291666667)"/><use xlink:href="#m" transform="matrix(1,0,0,1,-1315,-115) translate(104.41276041666667 50.88932291666667)"/><use xlink:href="#n" transform="matrix(1,0,0,1,-1315,-115) translate(3.550781249999986 76.30989583333334)"/><use xlink:href="#o" transform="matrix(1,0,0,1,-1315,-115) translate(62.12109374999999 76.30989583333334)"/><use xlink:href="#p" transform="matrix(1,0,0,1,-1315,-115) translate(97.65885416666667 76.30989583333334)"/><path d="M-1058.5-382.12h-3v-13.65h3m0-13.64h-3v-27.3h3m18.72-31.8h-14.02l-2.45.66-1.6 1.6-.65 2.44v13.45h-3v-13.85l.98-3.6 2.7-2.72 3.62-.98h14.42m121.28-4.3l-.98 3.6-2.7 2.72-3.62.98h-14.42v-3h14.02l2.45-.66 1.6-1.6.65-2.44v-16.63h3m-35.94 24.33h-28.45v-3h28.46m-42.67 3h-28.46v-3h28.45m78.6-61h-3v-10.83h3m0-16.84h-3V-577h3" fill="#b2b2b2"/><path d="M-918.5-576.96h-3v-1.54h3M-1060-366.35l-4.64-14.27h9.28z" fill="#b2b2b2"/><path d="M-1060-361.5l-6.7-20.62h13.4m-9.27 3l2.57 7.9 2.57-7.9" fill="#b2b2b2"/><use xlink:href="#q" transform="matrix(1,0,0,1,-948.0227864583334,-532.4852035480308) translate(0 19.951822916666668)"/><path d="M-1238.5-142.12h-3V-159h3m0-16.87h-3v-29.32h3m0-25.4h-3v-29.65h3m19.67-38.25h-14.97l-2.45.66-1.6 1.6-.65 2.44v16.68h-3v-17.08l.98-3.6 2.7-2.72 3.62-.98h15.37m75.83 3h-15.17v-3h15.17m-30.33 3h-30.34v-3h30.34" fill="#b2b2b2"/><path d="M-1141.5-298.5h-1.54v-3h1.54M-1240-126.35l-4.64-14.27h9.28z" fill="#b2b2b2"/><path d="M-1240-121.5l-6.7-20.62h13.4m-9.27 3l2.57 7.9 2.57-7.9" fill="#b2b2b2"/><use xlink:href="#r" transform="matrix(1,0,0,1,-1266.9427083333333,-230.60678606887754) translate(0 19.951822916666668)"/><path d="M-380-714c0-3.3 2.7-6 6-6h148c3.3 0 6 2.7 6 6v108c0 3.3-2.7 6-6 6h-148c-3.3 0-6-2.7-6-6z" stroke="#834187" stroke-width="3" fill="#b391b5"/><use xlink:href="#s" transform="matrix(1,0,0,1,-375,-715) translate(3.181640625 50.88932291666667)"/><use xlink:href="#t" transform="matrix(1,0,0,1,-375,-715) translate(46.43945312500001 50.88932291666667)"/><use xlink:href="#u" transform="matrix(1,0,0,1,-375,-715) translate(67.466796875 50.88932291666667)"/><use xlink:href="#v" transform="matrix(1,0,0,1,-375,-715) translate(119.201171875 50.88932291666667)"/><use xlink:href="#w" transform="matrix(1,0,0,1,-375,-715) translate(48.681640625 76.30989583333334)"/><path d="M-680-714c0-3.3 2.7-6 6-6h148c3.3 0 6 2.7 6 6v108c0 3.3-2.7 6-6 6h-148c-3.3 0-6-2.7-6-6z" stroke="#834187" stroke-width="3" fill="#b391b5"/><use xlink:href="#x" transform="matrix(1,0,0,1,-675,-715) translate(5.569661458333329 50.88932291666667)"/><use xlink:href="#y" transform="matrix(1,0,0,1,-675,-715) translate(41.235026041666664 50.88932291666667)"/><use xlink:href="#z" transform="matrix(1,0,0,1,-675,-715) translate(68.79752604166666 50.88932291666667)"/><use xlink:href="#A" transform="matrix(1,0,0,1,-675,-715) translate(42.62044270833333 76.30989583333334)"/><path d="M-620-94c0-3.3 2.7-6 6-6h148c3.3 0 6 2.7 6 6V14c0 3.3-2.7 6-6 6h-148c-3.3 0-6-2.7-6-6z" stroke="#0c7cba" stroke-width="3" fill="#83bbe5"/><use xlink:href="#B" transform="matrix(1,0,0,1,-615,-95) translate(13.376302083333329 50.88932291666667)"/><use xlink:href="#C" transform="matrix(1,0,0,1,-615,-95) translate(104.95052083333333 50.88932291666667)"/><use xlink:href="#D" transform="matrix(1,0,0,1,-615,-95) translate(37.119791666666664 76.30989583333334)"/><path d="M-800-394c0-3.3 2.7-6 6-6h148c3.3 0 6 2.7 6 6v108c0 3.3-2.7 6-6 6h-148c-3.3 0-6-2.7-6-6z" stroke="#0c7cba" stroke-width="3" fill="#83bbe5"/><use xlink:href="#E" transform="matrix(1,0,0,1,-795,-395) translate(23.694010416666664 50.88932291666667)"/><use xlink:href="#F" transform="matrix(1,0,0,1,-795,-395) translate(15.873697916666671 76.30989583333334)"/><use xlink:href="#G" transform="matrix(1,0,0,1,-795,-395) translate(107.62109375 76.30989583333334)"/><path d="M-260-314c0-3.3 2.7-6 6-6h148c3.3 0 6 2.7 6 6v108c0 3.3-2.7 6-6 6h-148c-3.3 0-6-2.7-6-6z" stroke="#0c7cba" stroke-width="3" fill="#83bbe5"/><use xlink:href="#H" transform="matrix(1,0,0,1,-255,-315) translate(10.596354166666657 50.88932291666667)"/><use xlink:href="#I" transform="matrix(1,0,0,1,-255,-315) translate(54.13671874999999 50.88932291666667)"/><use xlink:href="#J" transform="matrix(1,0,0,1,-255,-315) translate(97.88671875 50.88932291666667)"/><use xlink:href="#K" transform="matrix(1,0,0,1,-255,-315) translate(51.83528645833333 76.30989583333334)"/><path d="M-500-374c0-3.3 2.7-6 6-6h148c3.3 0 6 2.7 6 6v108c0 3.3-2.7 6-6 6h-148c-3.3 0-6-2.7-6-6z" stroke="#0c7cba" stroke-width="3" fill="#83bbe5"/><use xlink:href="#L" transform="matrix(1,0,0,1,-495,-375) translate(20.107421875 50.88932291666667)"/><use xlink:href="#M" transform="matrix(1,0,0,1,-495,-375) translate(111.845703125 50.88932291666667)"/><use xlink:href="#N" transform="matrix(1,0,0,1,-495,-375) translate(36.27669270833333 76.30989583333334)"/><use xlink:href="#O" transform="matrix(1,0,0,1,-495,-375) translate(96.66080729166667 76.30989583333334)"/><path d="M-620 146c0-3.3 2.7-6 6-6h148c3.3 0 6 2.7 6 6v108c0 3.3-2.7 6-6 6h-148c-3.3 0-6-2.7-6-6z" stroke="#999" stroke-width="3" fill="#ccc"/><use xlink:href="#P" transform="matrix(1,0,0,1,-615,145) translate(10.022135416666657 23.389322916666668)"/><use xlink:href="#Q" transform="matrix(1,0,0,1,-615,145) translate(49.05989583333333 23.389322916666668)"/><use xlink:href="#R" transform="matrix(1,0,0,1,-615,145) translate(32.3984375 48.809895833333336)"/><use xlink:href="#S" transform="matrix(1,0,0,1,-615,145) translate(72.80338541666667 48.809895833333336)"/><use xlink:href="#T" transform="matrix(1,0,0,1,-615,145) translate(37.61653645833333 74.23046875)"/><use xlink:href="#U" transform="matrix(1,0,0,1,-615,145) translate(39.635416666666664 99.65104166666667)"/><path d="M-940 86c0-3.3 2.7-6 6-6h148c3.3 0 6 2.7 6 6v108c0 3.3-2.7 6-6 6h-148c-3.3 0-6-2.7-6-6z" stroke="#999" stroke-width="3" fill="#ccc"/><use xlink:href="#V" transform="matrix(1,0,0,1,-935,85) translate(21.40625 37.13932291666667)"/><use xlink:href="#W" transform="matrix(1,0,0,1,-935,85) translate(1.9192708333333286 62.55989583333334)"/><use xlink:href="#X" transform="matrix(1,0,0,1,-935,85) translate(71.98307291666666 62.55989583333334)"/><use xlink:href="#Y" transform="matrix(1,0,0,1,-935,85) translate(117.26432291666667 62.55989583333334)"/><use xlink:href="#Z" transform="matrix(1,0,0,1,-935,85) translate(56.000651041666664 87.98046875000001)"/><path d="M-180 66c0-3.3 2.7-6 6-6h148c3.3 0 6 2.7 6 6v108c0 3.3-2.7 6-6 6h-148c-3.3 0-6-2.7-6-6z" stroke="#999" stroke-width="3" fill="#ccc"/><use xlink:href="#aa" transform="matrix(1,0,0,1,-175,65) translate(4.421223958333329 37.13932291666667)"/><use xlink:href="#ab" transform="matrix(1,0,0,1,-175,65) translate(39.074869791666664 37.13932291666667)"/><use xlink:href="#ac" transform="matrix(1,0,0,1,-175,65) translate(61.970703125 37.13932291666667)"/><use xlink:href="#ad" transform="matrix(1,0,0,1,-175,65) translate(125.69986979166667 37.13932291666667)"/><use xlink:href="#ae" transform="matrix(1,0,0,1,-175,65) translate(20.986979166666664 62.55989583333334)"/><use xlink:href="#af" transform="matrix(1,0,0,1,-175,65) translate(46.690104166666664 62.55989583333334)"/><use xlink:href="#ag" transform="matrix(1,0,0,1,-175,65) translate(20.029947916666657 87.98046875000001)"/><path d="M-718.5-422.12h-3v-15.46h3m0-15.46h-3v-30.9h3m0-15.47h-3v-30.93h3m0-32.38h-3v-14h3m0-15.47h-3v-30.9h3m14.83-35.43h-10.13l-2.45.66-1.6 1.6-.65 2.44v15.26h-3v-15.66l.98-3.6 2.7-2.72 3.62-.98h10.53m20.67 3h-10.33v-3H-683" fill="#b2b2b2"/><path d="M-681.5-658.5h-1.54v-3h1.54M-720-406.35l-4.64-14.27h9.28z" fill="#b2b2b2"/><path d="M-720-401.5l-6.7-20.62h13.4m-9.27 3l2.57 7.9 2.57-7.9" fill="#b2b2b2"/><use xlink:href="#ah" transform="matrix(1,0,0,1,-743.1647135416666,-562.7102864583334) translate(0 19.951822916666668)"/><path d="M-418.5-402.12h-3v-13.65h3m0-13.64h-3v-27.3h3m-3.7-33.82l2.72 2.7.98 3.62v13.85h-3v-13.45l-.66-2.45-1.6-1.6-2.44-.65H-440v-3h14.2m-172.7-4.7l.66 2.45 1.6 1.6 2.44.65h13.8v3h-14.2l-3.6-.98-2.72-2.7-.98-3.62v-17.03h3m60.48 24.33H-566v-3h27.98m84.02 3h-27.98v-3H-454m-144.5-38.17h-3v-33.66h3m0-16.84h-3V-597h3" fill="#b2b2b2"/><path d="M-598.5-596.96h-3v-1.54h3M-420-386.35l-4.64-14.27h9.28z" fill="#b2b2b2"/><path d="M-420-381.5l-6.7-20.62h13.4m-9.27 3l2.57 7.9 2.57-7.9" fill="#b2b2b2"/><g><use xlink:href="#q" transform="matrix(1,0,0,1,-538.0227864583334,-502.7102864583333) translate(0 19.951822916666668)"/></g><path d="M-858.5 57.88h-3v-14.5h3m0-14.53h-3V-.18h3m0-14.5h-3v-29.04h3m0-14.5h-3v-29.04h3m0-14.5h-3v-18.1h3m0-25.46h-3v-29.03h3m0-14.5h-3v-29.04h3m0-14.5h-3v-29.03h3m0-14.5h-3v-29.04h3m21.5-33.53h-16.8l-2.45.66-1.6 1.6-.65 2.44v14.3h-3v-14.7l.98-3.6 2.7-2.72 3.62-.98h17.2m34 3h-17v-3h17" fill="#b2b2b2"/><path d="M-801.5-338.5h-1.54v-3h1.54M-860 73.65l-4.64-14.27h9.28z" fill="#b2b2b2"/><path d="M-860 78.5l-6.7-20.62h13.4m-9.27 3l2.57 7.9 2.57-7.9" fill="#b2b2b2"/><g><use xlink:href="#r" transform="matrix(1,0,0,1,-886.9427083333334,-145.29281397320537) translate(0 19.951822916666668)"/></g><path d="M-1058.5 133.8l.66 2.45 1.6 1.6 2.44.65h15.1v3h-15.5l-3.6-.98-2.72-2.7-.98-3.62v-15.66h3m65.75 22.96h-30.62v-3h30.62m30.63 3h-15.3v-3h15.3m-96.38-35.42h-3v-30.9h3m0-15.47h-3V25.8h3m0-15.47h-3v-30.9h3m0-15.47h-3v-.46h3m0-25.42h-3v-5.04h3m0-15.46h-3v-30.9h3m0-15.47h-3v-30.9h3m0-15.47h-3v-30.9h3m0-15.47h-3V-237h3" fill="#b2b2b2"/><path d="M-1058.5-236.96h-3v-1.54h3M-946.35 140l-14.27 4.64v-9.28z" fill="#b2b2b2"/><path d="M-941.5 140l-20.62 6.7v-13.4m3 9.27l7.9-2.57-7.9-2.57" fill="#b2b2b2"/><g><use xlink:href="#q" transform="matrix(1,0,0,1,-1088.0227864583333,-61.91779578879865) translate(0 19.951822916666668)"/></g><path d="M-538.5-122.12h-3v-17.3h3m22.5-39.08h-17.8l-2.45.66-1.6 1.6-.65 2.44v17.1h-3v-17.5l.98-3.6 2.7-2.72 3.62-.98h18.2m97.5-4.3l-.98 3.6-2.7 2.72-3.62.98H-444v-3h17.8l2.45-.66 1.6-1.6.65-2.44v-11.63h3m0-11.84h-3v-23.66h3m0-11.84h-3V-257h3" fill="#b2b2b2"/><path d="M-418.5-256.96h-3v-1.54h3M-540-106.35l-4.64-14.27h9.28z" fill="#b2b2b2"/><path d="M-540-101.5l-6.7-20.62h13.4m-9.27 3l2.57 7.9 2.57-7.9" fill="#b2b2b2"/><g><use xlink:href="#q" transform="matrix(1,0,0,1,-508.0227864583333,-192.71028645833334) translate(0 19.951822916666668)"/></g><path d="M-718.5-46.2l.66 2.45 1.6 1.6 2.44.65h11.78v3h-12.18l-3.6-.98-2.72-2.7-.98-3.62v-15.6h3m52.42 22.9h-23.96v-3h23.96m23.96 3h-11.98v-3h11.98m-76.38-35.3h-3v-30.8h3m0-15.4h-3v-24.02h3m0-25.42h-3V-200h3m0-15.4h-3v-30.8h3m0-15.4h-3V-277h3" fill="#b2b2b2"/><path d="M-718.5-276.96h-3v-1.54h3M-626.35-40l-14.27 4.64v-9.28z" fill="#b2b2b2"/><path d="M-621.5-40l-20.62 6.7v-13.4m3 9.27l7.9-2.57-7.9-2.57" fill="#b2b2b2"/><g><use xlink:href="#r" transform="matrix(1,0,0,1,-746.9427083333334,-172.43816873091916) translate(0 19.951822916666668)"/></g><path d="M-538.5 117.88h-3v-15.8h3m0-34.8h-3V54.64h3m0-15.82h-3V23h3" fill="#b2b2b2"/><path d="M-538.5 23.04h-3V21.5h3M-540 133.65l-4.64-14.27h9.28z" fill="#b2b2b2"/><path d="M-540 138.5l-6.7-20.62h13.4m-9.27 3l2.57 7.9 2.57-7.9" fill="#b2b2b2"/><g><use xlink:href="#ah" transform="matrix(1,0,0,1,-563.1647135416666,67.28971354166667) translate(0 19.951822916666668)"/></g><path d="M-178.5-342.12h-3v-18.65h3m0-18.64h-3v-37.3h3m-3.7-43.82l2.72 2.7.98 3.62v18.85h-3v-18.45l-.66-2.45-1.6-1.6-2.44-.65H-204v-3h18.2m-112.7-4.7l.66 2.45 1.6 1.6 2.44.65h17.8v3h-18.2l-3.6-.98-2.72-2.7-.98-3.62v-14.76h3m0-14.55h-3v-29.12h3m0-14.56h-3v-29.1h3m0-14.56h-3V-597h3" fill="#b2b2b2"/><path d="M-298.5-596.96h-3v-1.54h3M-180-326.35l-4.64-14.27h9.28z" fill="#b2b2b2"/><path d="M-180-321.5l-6.7-20.62h13.4m-9.27 3l2.57 7.9 2.57-7.9" fill="#b2b2b2"/><g><use xlink:href="#q" transform="matrix(1,0,0,1,-268.0227864583333,-472.7102864583333) translate(0 19.951822916666668)"/></g><path d="M-98.5 37.88h-3V20.9h3m0-16.98h-3v-33.96h3m-3.7-40.48l2.72 2.7.98 3.62v17.18h-3V-63.8l-.66-2.45-1.6-1.6-2.44-.65h-11.13v-3h11.53m-72.7-4.7l.66 2.45 1.6 1.6 2.44.65h11.13v3h-11.53l-3.6-.98-2.72-2.7-.98-3.62v-13.64h3m49.83 20.94h-22.66v-3h22.66m-49.83-54.4h-3v-3.88h3m0-13.44h-3v-26.9h3m0-13.44h-3V-197h3" fill="#b2b2b2"/><path d="M-178.5-196.96h-3v-1.54h3M-100 53.65l-4.64-14.27h9.28z" fill="#b2b2b2"/><path d="M-100 58.5l-6.7-20.62h13.4m-9.27 3l2.57 7.9 2.57-7.9" fill="#b2b2b2"/><g><use xlink:href="#ah" transform="matrix(1,0,0,1,-203.16471354166666,-125.90327486055259) translate(0 19.951822916666668)"/></g><path d="M-318.5 113.8l.66 2.45 1.6 1.6 2.44.65h18.45v3h-18.85l-3.6-.98-2.72-2.7-.98-3.62V97.56h3m79.1 23.94h-37.3v-3h37.3m37.28 3h-18.65v-3h18.65M-318.5 81.1h-3V52.7h3m0-25.4h-3V-1.1h3m-3.7-39.42l2.72 2.7.98 3.62v16.64h-3V-33.8l-.66-2.45-1.6-1.6-2.44-.65h-14.36v-3h14.76m-116.64 3H-457v-3h14.56m43.66 3h-29.1v-3h29.1m43.67 3h-29.12v-3h29.1" fill="#b2b2b2"/><path d="M-456.96-38.5h-1.54v-3h1.54M-186.35 120l-14.27 4.64v-9.28z" fill="#b2b2b2"/><path d="M-181.5 120l-20.62 6.7v-13.4m3 9.27l7.9-2.57-7.9-2.57" fill="#b2b2b2"/><g><use xlink:href="#r" transform="matrix(1,0,0,1,-346.9427083333333,27.289713541666664) translate(0 19.951822916666668)"/></g><defs><path d="M201 0v-1462h170v1308h645V0H201" id="ai"/><path d="M621-1116c316 0 501 239 501 567 0 339-180 575-508 569S119-212 115-549c-4-339 178-567 506-567zm-5 141c-239 0-329 168-329 426 0 255 93 430 331 430s332-174 332-430-95-426-334-426" id="aj"/><path d="M340-893c80-153 237-262 467-211l-23 154c-45-10-85-15-120-15-184-3-322 182-322 377V0H176v-1096h137l19 203h8" id="ak"/><path d="M995-51C878-2 799 19 639 20c-329 2-524-221-524-559 0-326 172-577 481-577 278 0 451 210 446 493v105H287c4 242 121 392 358 393 118 0 235-25 350-74v148zM864-653c2-195-85-324-270-324-190 0-288 139-303 324h573" id="al"/><path d="M1368-1116c259 2 372 131 371 401V0h-166v-713c0-168-66-262-230-262-221 0-303 131-303 363V0H874v-713c-1-169-66-262-231-262-235 0-301 142-301 400V0H176v-1096h135l27 150h8c56-99 174-170 324-170 171 0 283 62 336 186h8c60-108 189-187 354-186" id="am"/><g id="a"><use transform="matrix(0.009114583333333334,0,0,0.009114583333333334,0,0)" xlink:href="#ai"/><use transform="matrix(0.009114583333333334,0,0,0.009114583333333334,9.688802083333334,0)" xlink:href="#aj"/><use transform="matrix(0.009114583333333334,0,0,0.009114583333333334,20.963541666666668,0)" xlink:href="#ak"/><use transform="matrix(0.009114583333333334,0,0,0.009114583333333334,28.209635416666668,0)" xlink:href="#al"/><use transform="matrix(0.009114583333333334,0,0,0.009114583333333334,38.68229166666667,0)" xlink:href="#am"/></g><path d="M342 0H176v-1096h166V0zm-82-1282c-61 0-98-43-98-111 0-69 36-110 98-110 59 0 98 43 98 110s-39 111-98 111" id="an"/><path d="M1141-549c0 329-147 569-455 569-159 0-273-61-344-161h-12c23 199 7 418 12 633H176v-1588h135l23 150h8c77-108 175-170 344-170 311 0 455 237 455 567zm-172-2c0-242-88-424-307-424-256 0-323 154-320 426 3 280 68 430 324 430 213 0 303-196 303-432" id="ao"/><path d="M502-977c-130 0-238 32-238 139 0 75 39 101 95 134 33 19 97 46 192 81 130 48 217 95 263 143s69 108 69 181C883-73 695 20 449 20 304 20 190-3 109-49v-154c91 47 216 86 344 86 149 0 270-36 270-168 0-43-21-76-55-109-56-55-367-158-434-208-74-55-128-109-128-225 0-327 490-342 754-217l-59 135c-110-45-210-68-299-68" id="ap"/><path d="M563 20c-271 0-399-123-399-399v-717h168v711c1 177 76 266 252 266 250 0 331-135 331-401v-576h166V0H944l-24-147h-9C848-44 724 20 563 20" id="aq"/><g id="b"><use transform="matrix(0.009114583333333334,0,0,0.009114583333333334,0,0)" xlink:href="#an"/><use transform="matrix(0.009114583333333334,0,0,0.009114583333333334,4.721354166666667,0)" xlink:href="#ao"/><use transform="matrix(0.009114583333333334,0,0,0.009114583333333334,16.16015625,0)" xlink:href="#ap"/><use transform="matrix(0.009114583333333334,0,0,0.009114583333333334,25.065104166666668,0)" xlink:href="#aq"/><use transform="matrix(0.009114583333333334,0,0,0.009114583333333334,36.52213541666667,0)" xlink:href="#am"/></g><path d="M115-545c0-330 146-571 454-571 149 0 263 54 342 162h13c-20-185-8-401-11-602h166V0H944l-22-147h-9C836-36 722 20 569 20c-309 0-454-234-454-565zm172 2c0 249 78 424 303 424 257 0 327-150 323-426-4-282-68-432-325-432-220 0-301 191-301 434" id="ar"/><path d="M342 0H176v-1556h166V0" id="as"/><g id="c"><use transform="matrix(0.009114583333333334,0,0,0.009114583333333334,0,0)" xlink:href="#ar"/><use transform="matrix(0.009114583333333334,0,0,0.009114583333333334,11.438802083333334,0)" xlink:href="#aj"/><use transform="matrix(0.009114583333333334,0,0,0.009114583333333334,22.713541666666668,0)" xlink:href="#as"/><use transform="matrix(0.009114583333333334,0,0,0.009114583333333334,27.434895833333336,0)" xlink:href="#aj"/><use transform="matrix(0.009114583333333334,0,0,0.009114583333333334,38.70963541666667,0)" xlink:href="#ak"/></g><path d="M354-322c-2 123 60 204 176 205 51 1 114-10 150-20v127C647 7 557 20 506 20 294 20 188-92 188-315v-652H31v-80l157-69 70-234h96v254h318v129H354v645" id="at"/><g id="d"><use transform="matrix(0.009114583333333334,0,0,0.009114583333333334,0,0)" xlink:href="#ap"/><use transform="matrix(0.009114583333333334,0,0,0.009114583333333334,8.904947916666668,0)" xlink:href="#an"/><use transform="matrix(0.009114583333333334,0,0,0.009114583333333334,13.626302083333336,0)" xlink:href="#at"/></g><path d="M588-1114c260 0 384 106 385 366V0H850l-33-156h-8C708-34 639 17 442 20 231 23 94-94 94-303c0-221 177-337 531-348l186-6c11-203-40-320-233-320-91 0-195 28-310 84l-51-127c97-53 229-94 371-94zM268-301c-1 123 81 184 207 184 203 0 334-120 332-323v-99c-257 14-539-7-539 238" id="au"/><g id="e"><use transform="matrix(0.009114583333333334,0,0,0.009114583333333334,0,0)" xlink:href="#au"/><use transform="matrix(0.009114583333333334,0,0,0.009114583333333334,10.381510416666668,0)" xlink:href="#am"/><use transform="matrix(0.009114583333333334,0,0,0.009114583333333334,27.744791666666668,0)" xlink:href="#al"/><use transform="matrix(0.009114583333333334,0,0,0.009114583333333334,38.21744791666667,0)" xlink:href="#at"/></g><path d="M516-150c94-315 146-423 332-946h178L610 0H416L0-1096h178c98 281 253 670 330 946h8" id="av"/><g id="f"><use transform="matrix(0.009114583333333334,0,0,0.009114583333333334,0,0)" xlink:href="#av"/><use transform="matrix(0.009114583333333334,0,0,0.009114583333333334,9.3515625,0)" xlink:href="#al"/><use transform="matrix(0.009114583333333334,0,0,0.009114583333333334,19.82421875,0)" xlink:href="#as"/><use transform="matrix(0.009114583333333334,0,0,0.009114583333333334,24.545572916666668,0)" xlink:href="#an"/><use transform="matrix(0.009114583333333334,0,0,0.009114583333333334,29.266927083333336,0)" xlink:href="#at"/></g><g id="g"><use transform="matrix(0.009114583333333334,0,0,0.009114583333333334,0,0)" xlink:href="#al"/><use transform="matrix(0.009114583333333334,0,0,0.009114583333333334,10.47265625,0)" xlink:href="#ap"/><use transform="matrix(0.009114583333333334,0,0,0.009114583333333334,19.377604166666668,0)" xlink:href="#ap"/><use transform="matrix(0.009114583333333334,0,0,0.009114583333333334,28.282552083333336,0)" xlink:href="#al"/></g><path d="M287-543c-1 247 91 418 323 418 91 0 185-20 281-59v147C818 1 725 20 614 20c-329 0-499-221-499-561 0-349 172-575 510-575 96 0 221 26 282 57l-51 141c-61-25-157-50-235-51-223 0-334 142-334 426" id="aw"/><g id="h"><use transform="matrix(0.009114583333333334,0,0,0.009114583333333334,0,0)" xlink:href="#aw"/><use transform="matrix(0.009114583333333334,0,0,0.009114583333333334,8.88671875,0)" xlink:href="#an"/><use transform="matrix(0.009114583333333334,0,0,0.009114583333333334,13.608072916666668,0)" xlink:href="#as"/><use transform="matrix(0.009114583333333334,0,0,0.009114583333333334,18.329427083333336,0)" xlink:href="#as"/><use transform="matrix(0.009114583333333334,0,0,0.009114583333333334,23.050781250000007,0)" xlink:href="#aq"/><use transform="matrix(0.009114583333333334,0,0,0.009114583333333334,34.5078125,0)" xlink:href="#am"/></g><g id="i"><use transform="matrix(0.009114583333333334,0,0,0.009114583333333334,0,0)" xlink:href="#ar"/><use transform="matrix(0.009114583333333334,0,0,0.009114583333333334,11.438802083333334,0)" xlink:href="#aj"/><use transform="matrix(0.009114583333333334,0,0,0.009114583333333334,22.713541666666668,0)" xlink:href="#as"/><use transform="matrix(0.009114583333333334,0,0,0.009114583333333334,27.434895833333336,0)" xlink:href="#aj"/><use transform="matrix(0.009114583333333334,0,0,0.009114583333333334,38.70963541666667,0)" xlink:href="#ak"/><use transform="matrix(0.009114583333333334,0,0,0.009114583333333334,45.95572916666667,0)" xlink:href="#al"/></g><g id="j"><use transform="matrix(0.009114583333333334,0,0,0.009114583333333334,0,0)" xlink:href="#al"/><use transform="matrix(0.009114583333333334,0,0,0.009114583333333334,10.47265625,0)" xlink:href="#aq"/></g><path d="M575-1430c-169 0-190 146-184 334h279v129H391V0H225v-967H29v-75l196-60c-15-299 97-465 353-465 58 0 126 12 204 35l-43 133c-64-21-119-31-164-31" id="ax"/><path d="M125-741c0-247 161-377 414-375 57 0 109 7 155 20h379v105l-203 24c37 48 72 129 72 219 0 255-227 390-504 345-71 37-106 84-106 141 0 78 66 88 164 88h194c219-1 369 87 369 293 0 121-49 213-146 277s-239 96-426 96c-250 0-448-83-448-306C39 36 147-58 283-86c-52-23-102-79-99-152 4-104 57-143 133-192-107-42-192-164-192-311zM438-25c-143-1-242 70-239 209s131 181 290 181c139 0 242-21 309-63s101-98 101-169c0-147-88-158-262-158H438zm94-970c-158 0-243 88-243 250 0 153 93 233 246 233 162 0 243-79 243-236 0-165-82-247-246-247" id="ay"/><g id="k"><use transform="matrix(0.009114583333333334,0,0,0.009114583333333334,0,0)" xlink:href="#ax"/><use transform="matrix(0.009114583333333334,0,0,0.009114583333333334,6.325520833333334,0)" xlink:href="#aq"/><use transform="matrix(0.009114583333333334,0,0,0.009114583333333334,17.782552083333336,0)" xlink:href="#ay"/><use transform="matrix(0.009114583333333334,0,0,0.009114583333333334,28.009114583333336,0)" xlink:href="#an"/><use transform="matrix(0.009114583333333334,0,0,0.009114583333333334,32.73046875,0)" xlink:href="#au"/><use transform="matrix(0.009114583333333334,0,0,0.009114583333333334,43.11197916666667,0)" xlink:href="#at"/></g><g id="l"><use transform="matrix(0.009114583333333334,0,0,0.009114583333333334,0,0)" xlink:href="#ao"/><use transform="matrix(0.009114583333333334,0,0,0.009114583333333334,11.438802083333334,0)" xlink:href="#al"/><use transform="matrix(0.009114583333333334,0,0,0.009114583333333334,21.911458333333336,0)" xlink:href="#ak"/><use transform="matrix(0.009114583333333334,0,0,0.009114583333333334,29.531250000000004,0)" xlink:href="#ap"/><use transform="matrix(0.009114583333333334,0,0,0.009114583333333334,38.43619791666667,0)" xlink:href="#ao"/><use transform="matrix(0.009114583333333334,0,0,0.009114583333333334,49.875,0)" xlink:href="#an"/><use transform="matrix(0.009114583333333334,0,0,0.009114583333333334,54.59635416666667,0)" xlink:href="#aw"/><use transform="matrix(0.009114583333333334,0,0,0.009114583333333334,63.48307291666667,0)" xlink:href="#an"/><use transform="matrix(0.009114583333333334,0,0,0.009114583333333334,68.20442708333334,0)" xlink:href="#au"/><use transform="matrix(0.009114583333333334,0,0,0.009114583333333334,78.58593750000003,0)" xlink:href="#at"/><use transform="matrix(0.009114583333333334,0,0,0.009114583333333334,85.17578125000003,0)" xlink:href="#an"/><use transform="matrix(0.009114583333333334,0,0,0.009114583333333334,89.89713541666669,0)" xlink:href="#ap"/></g><path d="M694-1116c270 0 399 125 398 401V0H926v-709c-1-177-76-266-252-266-250 0-332 133-332 400V0H176v-1096h135l27 150h8c62-101 190-170 348-170" id="az"/><g id="m"><use transform="matrix(0.009114583333333334,0,0,0.009114583333333334,0,0)" xlink:href="#aq"/><use transform="matrix(0.009114583333333334,0,0,0.009114583333333334,11.45703125,0)" xlink:href="#az"/><use transform="matrix(0.009114583333333334,0,0,0.009114583333333334,22.9140625,0)" xlink:href="#ar"/><use transform="matrix(0.009114583333333334,0,0,0.009114583333333334,34.352864583333336,0)" xlink:href="#al"/></g><g id="n"><use transform="matrix(0.009114583333333334,0,0,0.009114583333333334,0,0)" xlink:href="#aj"/><use transform="matrix(0.009114583333333334,0,0,0.009114583333333334,11.274739583333334,0)" xlink:href="#am"/><use transform="matrix(0.009114583333333334,0,0,0.009114583333333334,28.638020833333336,0)" xlink:href="#az"/><use transform="matrix(0.009114583333333334,0,0,0.009114583333333334,40.095052083333336,0)" xlink:href="#an"/><use transform="matrix(0.009114583333333334,0,0,0.009114583333333334,44.81640625,0)" xlink:href="#ap"/></g><g id="o"><use transform="matrix(0.009114583333333334,0,0,0.009114583333333334,0,0)" xlink:href="#an"/><use transform="matrix(0.009114583333333334,0,0,0.009114583333333334,4.721354166666667,0)" xlink:href="#ap"/><use transform="matrix(0.009114583333333334,0,0,0.009114583333333334,13.626302083333336,0)" xlink:href="#at"/><use transform="matrix(0.009114583333333334,0,0,0.009114583333333334,20.216145833333336,0)" xlink:href="#al"/></g><g id="p"><use transform="matrix(0.009114583333333334,0,0,0.009114583333333334,0,0)" xlink:href="#az"/><use transform="matrix(0.009114583333333334,0,0,0.009114583333333334,11.45703125,0)" xlink:href="#au"/><use transform="matrix(0.009114583333333334,0,0,0.009114583333333334,21.838541666666668,0)" xlink:href="#at"/><use transform="matrix(0.009114583333333334,0,0,0.009114583333333334,28.428385416666668,0)" xlink:href="#aq"/><use transform="matrix(0.009114583333333334,0,0,0.009114583333333334,39.88541666666667,0)" xlink:href="#ap"/></g><g id="q"><use transform="matrix(0.009114583333333334,0,0,0.009114583333333334,0,0)" xlink:href="#ai"/><use transform="matrix(0.009114583333333334,0,0,0.009114583333333334,9.688802083333334,0)" xlink:href="#aj"/><use transform="matrix(0.009114583333333334,0,0,0.009114583333333334,20.963541666666668,0)" xlink:href="#ak"/><use transform="matrix(0.009114583333333334,0,0,0.009114583333333334,28.209635416666668,0)" xlink:href="#al"/><use transform="matrix(0.009114583333333334,0,0,0.009114583333333334,38.68229166666667,0)" xlink:href="#am"/></g><g id="r"><use transform="matrix(0.009114583333333334,0,0,0.009114583333333334,0,0)" xlink:href="#an"/><use transform="matrix(0.009114583333333334,0,0,0.009114583333333334,4.721354166666667,0)" xlink:href="#ao"/><use transform="matrix(0.009114583333333334,0,0,0.009114583333333334,16.16015625,0)" xlink:href="#ap"/><use transform="matrix(0.009114583333333334,0,0,0.009114583333333334,25.065104166666668,0)" xlink:href="#aq"/><use transform="matrix(0.009114583333333334,0,0,0.009114583333333334,36.52213541666667,0)" xlink:href="#am"/></g><g id="s"><use transform="matrix(0.009114583333333334,0,0,0.009114583333333334,0,0)" xlink:href="#ap"/><use transform="matrix(0.009114583333333334,0,0,0.009114583333333334,8.904947916666668,0)" xlink:href="#aq"/><use transform="matrix(0.009114583333333334,0,0,0.009114583333333334,20.361979166666668,0)" xlink:href="#az"/><use transform="matrix(0.009114583333333334,0,0,0.009114583333333334,31.819010416666668,0)" xlink:href="#at"/></g><g id="t"><use transform="matrix(0.009114583333333334,0,0,0.009114583333333334,0,0)" xlink:href="#an"/><use transform="matrix(0.009114583333333334,0,0,0.009114583333333334,4.721354166666667,0)" xlink:href="#az"/></g><g id="u"><use transform="matrix(0.009114583333333334,0,0,0.009114583333333334,0,0)" xlink:href="#aw"/><use transform="matrix(0.009114583333333334,0,0,0.009114583333333334,8.88671875,0)" xlink:href="#aq"/><use transform="matrix(0.009114583333333334,0,0,0.009114583333333334,20.34375,0)" xlink:href="#as"/><use transform="matrix(0.009114583333333334,0,0,0.009114583333333334,25.065104166666668,0)" xlink:href="#ao"/><use transform="matrix(0.009114583333333334,0,0,0.009114583333333334,36.50390625,0)" xlink:href="#au"/></g><path d="M287-543c0 246 78 424 303 424 259 0 323-148 323-426 0-279-71-432-325-432-220 0-301 191-301 434zm-172-2c0-328 147-571 454-571 150 0 265 57 346 170h9l24-150h131V492H913c5-208-11-450 11-639h-13C834-36 719 20 565 20c-305 0-450-240-450-565" id="aA"/><g id="v"><use transform="matrix(0.009114583333333334,0,0,0.009114583333333334,0,0)" xlink:href="#aA"/><use transform="matrix(0.009114583333333334,0,0,0.009114583333333334,11.438802083333334,0)" xlink:href="#aq"/><use transform="matrix(0.009114583333333334,0,0,0.009114583333333334,22.895833333333336,0)" xlink:href="#an"/></g><g id="w"><use transform="matrix(0.009114583333333334,0,0,0.009114583333333334,0,0)" xlink:href="#aj"/><use transform="matrix(0.009114583333333334,0,0,0.009114583333333334,11.274739583333334,0)" xlink:href="#ax"/><use transform="matrix(0.009114583333333334,0,0,0.009114583333333334,17.600260416666668,0)" xlink:href="#ax"/><use transform="matrix(0.009114583333333334,0,0,0.009114583333333334,23.92578125,0)" xlink:href="#an"/><use transform="matrix(0.009114583333333334,0,0,0.009114583333333334,28.647135416666668,0)" xlink:href="#aw"/><use transform="matrix(0.009114583333333334,0,0,0.009114583333333334,37.53385416666667,0)" xlink:href="#an"/><use transform="matrix(0.009114583333333334,0,0,0.009114583333333334,42.255208333333336,0)" xlink:href="#au"/></g><g id="x"><use transform="matrix(0.009114583333333334,0,0,0.009114583333333334,0,0)" xlink:href="#ap"/><use transform="matrix(0.009114583333333334,0,0,0.009114583333333334,8.904947916666668,0)" xlink:href="#al"/><use transform="matrix(0.009114583333333334,0,0,0.009114583333333334,19.377604166666668,0)" xlink:href="#ar"/></g><g id="y"><use transform="matrix(0.009114583333333334,0,0,0.009114583333333334,0,0)" xlink:href="#ar"/><use transform="matrix(0.009114583333333334,0,0,0.009114583333333334,11.438802083333334,0)" xlink:href="#aj"/></g><g id="z"><use transform="matrix(0.009114583333333334,0,0,0.009114583333333334,0,0)" xlink:href="#al"/><use transform="matrix(0.009114583333333334,0,0,0.009114583333333334,10.47265625,0)" xlink:href="#an"/><use transform="matrix(0.009114583333333334,0,0,0.009114583333333334,15.194010416666668,0)" xlink:href="#aq"/><use transform="matrix(0.009114583333333334,0,0,0.009114583333333334,26.651041666666668,0)" xlink:href="#ap"/><use transform="matrix(0.009114583333333334,0,0,0.009114583333333334,35.555989583333336,0)" xlink:href="#am"/><use transform="matrix(0.009114583333333334,0,0,0.009114583333333334,52.919270833333336,0)" xlink:href="#aj"/><use transform="matrix(0.009114583333333334,0,0,0.009114583333333334,64.19401041666667,0)" xlink:href="#ar"/></g><g id="A"><use transform="matrix(0.009114583333333334,0,0,0.009114583333333334,0,0)" xlink:href="#at"/><use transform="matrix(0.009114583333333334,0,0,0.009114583333333334,6.58984375,0)" xlink:href="#al"/><use transform="matrix(0.009114583333333334,0,0,0.009114583333333334,17.0625,0)" xlink:href="#am"/><use transform="matrix(0.009114583333333334,0,0,0.009114583333333334,34.42578125,0)" xlink:href="#ao"/><use transform="matrix(0.009114583333333334,0,0,0.009114583333333334,45.864583333333336,0)" xlink:href="#aj"/><use transform="matrix(0.009114583333333334,0,0,0.009114583333333334,57.13932291666667,0)" xlink:href="#ak"/></g><path d="M1016 0H201v-1462h815v151H371v471h606v150H371v538h645V0" id="aB"/><path d="M440-561L59-1096h189l289 420 288-420h187L631-561 1032 0H844L537-444 227 0H39" id="aC"/><g id="B"><use transform="matrix(0.009114583333333334,0,0,0.009114583333333334,0,0)" xlink:href="#aB"/><use transform="matrix(0.009114583333333334,0,0,0.009114583333333334,10.381510416666668,0)" xlink:href="#aC"/><use transform="matrix(0.009114583333333334,0,0,0.009114583333333334,19.78776041666667,0)" xlink:href="#aw"/><use transform="matrix(0.009114583333333334,0,0,0.009114583333333334,28.67447916666667,0)" xlink:href="#al"/><use transform="matrix(0.009114583333333334,0,0,0.009114583333333334,39.14713541666667,0)" xlink:href="#ao"/><use transform="matrix(0.009114583333333334,0,0,0.009114583333333334,50.5859375,0)" xlink:href="#at"/><use transform="matrix(0.009114583333333334,0,0,0.009114583333333334,57.17578125000001,0)" xlink:href="#al"/><use transform="matrix(0.009114583333333334,0,0,0.009114583333333334,67.6484375,0)" xlink:href="#aq"/><use transform="matrix(0.009114583333333334,0,0,0.009114583333333334,79.10546875,0)" xlink:href="#ak"/></g><g id="C"><use transform="matrix(0.009114583333333334,0,0,0.009114583333333334,0,0)" xlink:href="#ap"/><use transform="matrix(0.009114583333333334,0,0,0.009114583333333334,8.904947916666668,0)" xlink:href="#an"/><use transform="matrix(0.009114583333333334,0,0,0.009114583333333334,13.626302083333336,0)" xlink:href="#az"/><use transform="matrix(0.009114583333333334,0,0,0.009114583333333334,25.083333333333336,0)" xlink:href="#at"/></g><g id="D"><use transform="matrix(0.009114583333333334,0,0,0.009114583333333334,0,0)" xlink:href="#aj"/><use transform="matrix(0.009114583333333334,0,0,0.009114583333333334,11.274739583333334,0)" xlink:href="#aw"/><use transform="matrix(0.009114583333333334,0,0,0.009114583333333334,20.161458333333336,0)" xlink:href="#aw"/><use transform="matrix(0.009114583333333334,0,0,0.009114583333333334,29.048177083333336,0)" xlink:href="#au"/><use transform="matrix(0.009114583333333334,0,0,0.009114583333333334,39.4296875,0)" xlink:href="#al"/><use transform="matrix(0.009114583333333334,0,0,0.009114583333333334,49.90234375,0)" xlink:href="#aw"/><use transform="matrix(0.009114583333333334,0,0,0.009114583333333334,58.78906250000001,0)" xlink:href="#au"/><use transform="matrix(0.009114583333333334,0,0,0.009114583333333334,69.17057291666667,0)" xlink:href="#at"/></g><g id="E"><use transform="matrix(0.009114583333333334,0,0,0.009114583333333334,0,0)" xlink:href="#aw"/><use transform="matrix(0.009114583333333334,0,0,0.009114583333333334,8.88671875,0)" xlink:href="#aj"/><use transform="matrix(0.009114583333333334,0,0,0.009114583333333334,20.161458333333336,0)" xlink:href="#az"/><use transform="matrix(0.009114583333333334,0,0,0.009114583333333334,31.618489583333336,0)" xlink:href="#ap"/><use transform="matrix(0.009114583333333334,0,0,0.009114583333333334,40.5234375,0)" xlink:href="#al"/><use transform="matrix(0.009114583333333334,0,0,0.009114583333333334,50.99609375,0)" xlink:href="#aw"/><use transform="matrix(0.009114583333333334,0,0,0.009114583333333334,59.88281250000001,0)" xlink:href="#at"/><use transform="matrix(0.009114583333333334,0,0,0.009114583333333334,66.47265625,0)" xlink:href="#al"/><use transform="matrix(0.009114583333333334,0,0,0.009114583333333334,76.9453125,0)" xlink:href="#at"/><use transform="matrix(0.009114583333333334,0,0,0.009114583333333334,83.53515625,0)" xlink:href="#aq"/><use transform="matrix(0.009114583333333334,0,0,0.009114583333333334,94.9921875,0)" xlink:href="#ak"/></g><g id="F"><use transform="matrix(0.009114583333333334,0,0,0.009114583333333334,0,0)" xlink:href="#au"/><use transform="matrix(0.009114583333333334,0,0,0.009114583333333334,10.381510416666668,0)" xlink:href="#ar"/><use transform="matrix(0.009114583333333334,0,0,0.009114583333333334,21.8203125,0)" xlink:href="#an"/><use transform="matrix(0.009114583333333334,0,0,0.009114583333333334,26.541666666666668,0)" xlink:href="#ao"/><use transform="matrix(0.009114583333333334,0,0,0.009114583333333334,37.98046875,0)" xlink:href="#an"/><use transform="matrix(0.009114583333333334,0,0,0.009114583333333334,42.701822916666664,0)" xlink:href="#ap"/><use transform="matrix(0.009114583333333334,0,0,0.009114583333333334,51.60677083333333,0)" xlink:href="#aw"/><use transform="matrix(0.009114583333333334,0,0,0.009114583333333334,60.49348958333333,0)" xlink:href="#an"/><use transform="matrix(0.009114583333333334,0,0,0.009114583333333334,65.21484375,0)" xlink:href="#az"/><use transform="matrix(0.009114583333333334,0,0,0.009114583333333334,76.671875,0)" xlink:href="#ay"/></g><g id="G"><use transform="matrix(0.009114583333333334,0,0,0.009114583333333334,0,0)" xlink:href="#al"/><use transform="matrix(0.009114583333333334,0,0,0.009114583333333334,10.47265625,0)" xlink:href="#as"/><use transform="matrix(0.009114583333333334,0,0,0.009114583333333334,15.194010416666668,0)" xlink:href="#an"/><use transform="matrix(0.009114583333333334,0,0,0.009114583333333334,19.915364583333336,0)" xlink:href="#at"/></g><path d="M649-1462c450-4 719 268 719 717 0 484-276 748-762 745H201v-1462h448zM578-147c400 1 610-197 610-592 1-379-192-576-570-576H371v1168h207" id="aD"/><g id="H"><use transform="matrix(0.009114583333333334,0,0,0.009114583333333334,0,0)" xlink:href="#aD"/><use transform="matrix(0.009114583333333334,0,0,0.009114583333333334,13.608072916666668,0)" xlink:href="#aq"/><use transform="matrix(0.009114583333333334,0,0,0.009114583333333334,25.065104166666668,0)" xlink:href="#an"/><use transform="matrix(0.009114583333333334,0,0,0.009114583333333334,29.786458333333336,0)" xlink:href="#ap"/></g><g id="I"><use transform="matrix(0.009114583333333334,0,0,0.009114583333333334,0,0)" xlink:href="#au"/><use transform="matrix(0.009114583333333334,0,0,0.009114583333333334,10.381510416666668,0)" xlink:href="#aq"/><use transform="matrix(0.009114583333333334,0,0,0.009114583333333334,21.838541666666668,0)" xlink:href="#at"/><use transform="matrix(0.009114583333333334,0,0,0.009114583333333334,28.428385416666668,0)" xlink:href="#al"/></g><g id="J"><use transform="matrix(0.009114583333333334,0,0,0.009114583333333334,0,0)" xlink:href="#an"/><use transform="matrix(0.009114583333333334,0,0,0.009114583333333334,4.721354166666667,0)" xlink:href="#ak"/><use transform="matrix(0.009114583333333334,0,0,0.009114583333333334,12.341145833333334,0)" xlink:href="#aq"/><use transform="matrix(0.009114583333333334,0,0,0.009114583333333334,23.798177083333336,0)" xlink:href="#ak"/><use transform="matrix(0.009114583333333334,0,0,0.009114583333333334,31.044270833333336,0)" xlink:href="#al"/></g><g id="K"><use transform="matrix(0.009114583333333334,0,0,0.009114583333333334,0,0)" xlink:href="#ar"/><use transform="matrix(0.009114583333333334,0,0,0.009114583333333334,11.438802083333334,0)" xlink:href="#aj"/><use transform="matrix(0.009114583333333334,0,0,0.009114583333333334,22.713541666666668,0)" xlink:href="#as"/><use transform="matrix(0.009114583333333334,0,0,0.009114583333333334,27.434895833333336,0)" xlink:href="#aj"/><use transform="matrix(0.009114583333333334,0,0,0.009114583333333334,38.70963541666667,0)" xlink:href="#ak"/></g><g id="L"><use transform="matrix(0.009114583333333334,0,0,0.009114583333333334,0,0)" xlink:href="#an"/><use transform="matrix(0.009114583333333334,0,0,0.009114583333333334,4.721354166666667,0)" xlink:href="#az"/><use transform="matrix(0.009114583333333334,0,0,0.009114583333333334,16.178385416666668,0)" xlink:href="#aw"/><use transform="matrix(0.009114583333333334,0,0,0.009114583333333334,25.065104166666668,0)" xlink:href="#an"/><use transform="matrix(0.009114583333333334,0,0,0.009114583333333334,29.786458333333336,0)" xlink:href="#ar"/><use transform="matrix(0.009114583333333334,0,0,0.009114583333333334,41.22526041666667,0)" xlink:href="#an"/><use transform="matrix(0.009114583333333334,0,0,0.009114583333333334,45.946614583333336,0)" xlink:href="#ar"/><use transform="matrix(0.009114583333333334,0,0,0.009114583333333334,57.38541666666667,0)" xlink:href="#aq"/><use transform="matrix(0.009114583333333334,0,0,0.009114583333333334,68.84244791666667,0)" xlink:href="#az"/><use transform="matrix(0.009114583333333334,0,0,0.009114583333333334,80.29947916666667,0)" xlink:href="#at"/></g><g id="M"><use transform="matrix(0.009114583333333334,0,0,0.009114583333333334,0,0)" xlink:href="#aq"/><use transform="matrix(0.009114583333333334,0,0,0.009114583333333334,11.45703125,0)" xlink:href="#at"/></g><path d="M686 20c-159 0-273-61-344-161h-12L295 0H176v-1556h166c-2 198 6 423-8 606h8c77-109 192-164 344-164 310 0 455 234 455 565 0 329-147 569-455 569zm283-571c0-257-72-424-307-424-256 0-320 146-320 426s68 430 324 430c228 0 303-184 303-432" id="aE"/><g id="N"><use transform="matrix(0.009114583333333334,0,0,0.009114583333333334,0,0)" xlink:href="#as"/><use transform="matrix(0.009114583333333334,0,0,0.009114583333333334,4.721354166666667,0)" xlink:href="#au"/><use transform="matrix(0.009114583333333334,0,0,0.009114583333333334,15.102864583333336,0)" xlink:href="#aE"/><use transform="matrix(0.009114583333333334,0,0,0.009114583333333334,26.54166666666667,0)" xlink:href="#aj"/><use transform="matrix(0.009114583333333334,0,0,0.009114583333333334,37.816406250000014,0)" xlink:href="#ak"/><use transform="matrix(0.009114583333333334,0,0,0.009114583333333334,45.062500000000014,0)" xlink:href="#al"/></g><g id="O"><use transform="matrix(0.009114583333333334,0,0,0.009114583333333334,0,0)" xlink:href="#al"/><use transform="matrix(0.009114583333333334,0,0,0.009114583333333334,10.47265625,0)" xlink:href="#at"/></g><g id="P"><use transform="matrix(0.009114583333333334,0,0,0.009114583333333334,0,0)" xlink:href="#az"/><use transform="matrix(0.009114583333333334,0,0,0.009114583333333334,11.45703125,0)" xlink:href="#aj"/><use transform="matrix(0.009114583333333334,0,0,0.009114583333333334,22.731770833333336,0)" xlink:href="#az"/></g><g id="Q"><use transform="matrix(0.009114583333333334,0,0,0.009114583333333334,0,0)" xlink:href="#az"/><use transform="matrix(0.009114583333333334,0,0,0.009114583333333334,11.45703125,0)" xlink:href="#aq"/><use transform="matrix(0.009114583333333334,0,0,0.009114583333333334,22.9140625,0)" xlink:href="#am"/><use transform="matrix(0.009114583333333334,0,0,0.009114583333333334,40.27734375,0)" xlink:href="#aA"/><use transform="matrix(0.009114583333333334,0,0,0.009114583333333334,51.716145833333336,0)" xlink:href="#aq"/><use transform="matrix(0.009114583333333334,0,0,0.009114583333333334,63.173177083333336,0)" xlink:href="#au"/><use transform="matrix(0.009114583333333334,0,0,0.009114583333333334,73.5546875,0)" xlink:href="#am"/></g><g id="R"><use transform="matrix(0.009114583333333334,0,0,0.009114583333333334,0,0)" xlink:href="#al"/><use transform="matrix(0.009114583333333334,0,0,0.009114583333333334,10.47265625,0)" xlink:href="#an"/><use transform="matrix(0.009114583333333334,0,0,0.009114583333333334,15.194010416666668,0)" xlink:href="#aq"/><use transform="matrix(0.009114583333333334,0,0,0.009114583333333334,26.651041666666668,0)" xlink:href="#ap"/></g><g id="S"><use transform="matrix(0.009114583333333334,0,0,0.009114583333333334,0,0)" xlink:href="#am"/><use transform="matrix(0.009114583333333334,0,0,0.009114583333333334,17.36328125,0)" xlink:href="#aj"/><use transform="matrix(0.009114583333333334,0,0,0.009114583333333334,28.638020833333336,0)" xlink:href="#ar"/><use transform="matrix(0.009114583333333334,0,0,0.009114583333333334,40.07682291666667,0)" xlink:href="#an"/></g><g id="T"><use transform="matrix(0.009114583333333334,0,0,0.009114583333333334,0,0)" xlink:href="#at"/><use transform="matrix(0.009114583333333334,0,0,0.009114583333333334,6.58984375,0)" xlink:href="#al"/><use transform="matrix(0.009114583333333334,0,0,0.009114583333333334,17.0625,0)" xlink:href="#am"/><use transform="matrix(0.009114583333333334,0,0,0.009114583333333334,34.42578125,0)" xlink:href="#ao"/><use transform="matrix(0.009114583333333334,0,0,0.009114583333333334,45.864583333333336,0)" xlink:href="#aj"/><use transform="matrix(0.009114583333333334,0,0,0.009114583333333334,57.13932291666667,0)" xlink:href="#ak"/><use transform="matrix(0.009114583333333334,0,0,0.009114583333333334,64.38541666666667,0)" xlink:href="#au"/></g><g id="U"><use transform="matrix(0.009114583333333334,0,0,0.009114583333333334,0,0)" xlink:href="#an"/><use transform="matrix(0.009114583333333334,0,0,0.009114583333333334,4.721354166666667,0)" xlink:href="#az"/><use transform="matrix(0.009114583333333334,0,0,0.009114583333333334,16.178385416666668,0)" xlink:href="#aw"/><use transform="matrix(0.009114583333333334,0,0,0.009114583333333334,25.065104166666668,0)" xlink:href="#an"/><use transform="matrix(0.009114583333333334,0,0,0.009114583333333334,29.786458333333336,0)" xlink:href="#ar"/><use transform="matrix(0.009114583333333334,0,0,0.009114583333333334,41.22526041666667,0)" xlink:href="#aq"/><use transform="matrix(0.009114583333333334,0,0,0.009114583333333334,52.68229166666667,0)" xlink:href="#az"/><use transform="matrix(0.009114583333333334,0,0,0.009114583333333334,64.13932291666667,0)" xlink:href="#at"/></g><path d="M63 264c30-115 88-378 105-502h182l15 23C327-69 250 132 188 264H63" id="aF"/><g id="V"><use transform="matrix(0.009114583333333334,0,0,0.009114583333333334,0,0)" xlink:href="#aw"/><use transform="matrix(0.009114583333333334,0,0,0.009114583333333334,8.88671875,0)" xlink:href="#aj"/><use transform="matrix(0.009114583333333334,0,0,0.009114583333333334,20.161458333333336,0)" xlink:href="#az"/><use transform="matrix(0.009114583333333334,0,0,0.009114583333333334,31.618489583333336,0)" xlink:href="#ap"/><use transform="matrix(0.009114583333333334,0,0,0.009114583333333334,40.5234375,0)" xlink:href="#al"/><use transform="matrix(0.009114583333333334,0,0,0.009114583333333334,50.99609375,0)" xlink:href="#aw"/><use transform="matrix(0.009114583333333334,0,0,0.009114583333333334,59.88281250000001,0)" xlink:href="#at"/><use transform="matrix(0.009114583333333334,0,0,0.009114583333333334,66.47265625,0)" xlink:href="#al"/><use transform="matrix(0.009114583333333334,0,0,0.009114583333333334,76.9453125,0)" xlink:href="#at"/><use transform="matrix(0.009114583333333334,0,0,0.009114583333333334,83.53515625,0)" xlink:href="#aq"/><use transform="matrix(0.009114583333333334,0,0,0.009114583333333334,94.9921875,0)" xlink:href="#ak"/><use transform="matrix(0.009114583333333334,0,0,0.009114583333333334,102.61197916666667,0)" xlink:href="#aF"/></g><g id="W"><use transform="matrix(0.009114583333333334,0,0,0.009114583333333334,0,0)" xlink:href="#au"/><use transform="matrix(0.009114583333333334,0,0,0.009114583333333334,10.381510416666668,0)" xlink:href="#ar"/><use transform="matrix(0.009114583333333334,0,0,0.009114583333333334,21.8203125,0)" xlink:href="#an"/><use transform="matrix(0.009114583333333334,0,0,0.009114583333333334,26.541666666666668,0)" xlink:href="#ao"/><use transform="matrix(0.009114583333333334,0,0,0.009114583333333334,37.98046875,0)" xlink:href="#an"/><use transform="matrix(0.009114583333333334,0,0,0.009114583333333334,42.701822916666664,0)" xlink:href="#ap"/><use transform="matrix(0.009114583333333334,0,0,0.009114583333333334,51.60677083333333,0)" xlink:href="#aw"/><use transform="matrix(0.009114583333333334,0,0,0.009114583333333334,60.49348958333333,0)" xlink:href="#an"/></g><g id="X"><use transform="matrix(0.009114583333333334,0,0,0.009114583333333334,0,0)" xlink:href="#av"/><use transform="matrix(0.009114583333333334,0,0,0.009114583333333334,9.3515625,0)" xlink:href="#al"/><use transform="matrix(0.009114583333333334,0,0,0.009114583333333334,19.82421875,0)" xlink:href="#as"/><use transform="matrix(0.009114583333333334,0,0,0.009114583333333334,24.545572916666668,0)" xlink:href="#an"/><use transform="matrix(0.009114583333333334,0,0,0.009114583333333334,29.266927083333336,0)" xlink:href="#at"/><use transform="matrix(0.009114583333333334,0,0,0.009114583333333334,35.856770833333336,0)" xlink:href="#aF"/></g><g id="Y"><use transform="matrix(0.009114583333333334,0,0,0.009114583333333334,0,0)" xlink:href="#ap"/><use transform="matrix(0.009114583333333334,0,0,0.009114583333333334,8.904947916666668,0)" xlink:href="#al"/><use transform="matrix(0.009114583333333334,0,0,0.009114583333333334,19.377604166666668,0)" xlink:href="#ar"/></g><g id="Z"><use transform="matrix(0.009114583333333334,0,0,0.009114583333333334,0,0)" xlink:href="#aA"/><use transform="matrix(0.009114583333333334,0,0,0.009114583333333334,11.438802083333334,0)" xlink:href="#aq"/><use transform="matrix(0.009114583333333334,0,0,0.009114583333333334,22.895833333333336,0)" xlink:href="#an"/><use transform="matrix(0.009114583333333334,0,0,0.009114583333333334,27.6171875,0)" xlink:href="#au"/></g><g id="aa"><use transform="matrix(0.009114583333333334,0,0,0.009114583333333334,0,0)" xlink:href="#az"/><use transform="matrix(0.009114583333333334,0,0,0.009114583333333334,11.45703125,0)" xlink:href="#an"/><use transform="matrix(0.009114583333333334,0,0,0.009114583333333334,16.178385416666668,0)" xlink:href="#ap"/><use transform="matrix(0.009114583333333334,0,0,0.009114583333333334,25.083333333333336,0)" xlink:href="#an"/></g><g id="ab"><use transform="matrix(0.009114583333333334,0,0,0.009114583333333334,0,0)" xlink:href="#aq"/><use transform="matrix(0.009114583333333334,0,0,0.009114583333333334,11.45703125,0)" xlink:href="#at"/></g><g id="ac"><use transform="matrix(0.009114583333333334,0,0,0.009114583333333334,0,0)" xlink:href="#au"/><use transform="matrix(0.009114583333333334,0,0,0.009114583333333334,10.381510416666668,0)" xlink:href="#as"/><use transform="matrix(0.009114583333333334,0,0,0.009114583333333334,15.102864583333336,0)" xlink:href="#an"/><use transform="matrix(0.009114583333333334,0,0,0.009114583333333334,19.824218750000007,0)" xlink:href="#aA"/><use transform="matrix(0.009114583333333334,0,0,0.009114583333333334,31.263020833333336,0)" xlink:href="#aq"/><use transform="matrix(0.009114583333333334,0,0,0.009114583333333334,42.720052083333336,0)" xlink:href="#an"/><use transform="matrix(0.009114583333333334,0,0,0.009114583333333334,47.44140625,0)" xlink:href="#ar"/></g><g id="ad"><use transform="matrix(0.009114583333333334,0,0,0.009114583333333334,0,0)" xlink:href="#al"/><use transform="matrix(0.009114583333333334,0,0,0.009114583333333334,10.098958333333334,0)" xlink:href="#aC"/></g><g id="ae"><use transform="matrix(0.009114583333333334,0,0,0.009114583333333334,0,0)" xlink:href="#al"/><use transform="matrix(0.009114583333333334,0,0,0.009114583333333334,10.47265625,0)" xlink:href="#au"/></g><g id="af"><use transform="matrix(0.009114583333333334,0,0,0.009114583333333334,0,0)" xlink:href="#aw"/><use transform="matrix(0.009114583333333334,0,0,0.009114583333333334,8.88671875,0)" xlink:href="#aj"/><use transform="matrix(0.009114583333333334,0,0,0.009114583333333334,20.161458333333336,0)" xlink:href="#am"/><use transform="matrix(0.009114583333333334,0,0,0.009114583333333334,37.524739583333336,0)" xlink:href="#am"/><use transform="matrix(0.009114583333333334,0,0,0.009114583333333334,54.888020833333336,0)" xlink:href="#aj"/><use transform="matrix(0.009114583333333334,0,0,0.009114583333333334,66.16276041666667,0)" xlink:href="#ar"/><use transform="matrix(0.009114583333333334,0,0,0.009114583333333334,77.6015625,0)" xlink:href="#an"/></g><g id="ag"><use transform="matrix(0.009114583333333334,0,0,0.009114583333333334,0,0)" xlink:href="#aw"/><use transform="matrix(0.009114583333333334,0,0,0.009114583333333334,8.88671875,0)" xlink:href="#aj"/><use transform="matrix(0.009114583333333334,0,0,0.009114583333333334,20.161458333333336,0)" xlink:href="#az"/><use transform="matrix(0.009114583333333334,0,0,0.009114583333333334,31.618489583333336,0)" xlink:href="#ap"/><use transform="matrix(0.009114583333333334,0,0,0.009114583333333334,40.5234375,0)" xlink:href="#al"/><use transform="matrix(0.009114583333333334,0,0,0.009114583333333334,50.99609375,0)" xlink:href="#aA"/><use transform="matrix(0.009114583333333334,0,0,0.009114583333333334,62.434895833333336,0)" xlink:href="#aq"/><use transform="matrix(0.009114583333333334,0,0,0.009114583333333334,73.89192708333334,0)" xlink:href="#au"/><use transform="matrix(0.009114583333333334,0,0,0.009114583333333334,84.27343750000003,0)" xlink:href="#at"/><use transform="matrix(0.009114583333333334,0,0,0.009114583333333334,90.86328125000003,0)" xlink:href="#aq"/><use transform="matrix(0.009114583333333334,0,0,0.009114583333333334,102.3203125,0)" xlink:href="#ak"/></g><g id="ah"><use transform="matrix(0.009114583333333334,0,0,0.009114583333333334,0,0)" xlink:href="#ar"/><use transform="matrix(0.009114583333333334,0,0,0.009114583333333334,11.438802083333334,0)" xlink:href="#aj"/><use transform="matrix(0.009114583333333334,0,0,0.009114583333333334,22.713541666666668,0)" xlink:href="#as"/><use transform="matrix(0.009114583333333334,0,0,0.009114583333333334,27.434895833333336,0)" xlink:href="#aj"/><use transform="matrix(0.009114583333333334,0,0,0.009114583333333334,38.70963541666667,0)" xlink:href="#ak"/></g></defs></g></svg>