<svg xmlns="http://www.w3.org/2000/svg" xmlns:lucid="lucid" width="1018.67" height="260"><g lucid:page-tab-id="-yQoHvbSk5JZ" stroke-width="2"><path d="M20 80h300v140H20zM40 60h80v20H40z" stroke="#666" fill="#ccc"/><path d="M20 120h300v20H20zM20 140h300v80H20z" stroke="#000" stroke-opacity="0" fill="#fff" fill-opacity="0"/><path d="M768.67 60h40V20h80v40h40v80h-40v40h-80v-40h-40z" stroke="#5e5e5e" fill="#ccc"/><path d="M698.67 105.5a20 20 0 0 1 20-20h260a20 20 0 0 1 20 20v100a20 20 0 0 1-20 20h-260a20 20 0 0 1-20-20z" stroke="#5e5e5e" fill="#ccc"/><path d="M958.67 114.5h3v111h-3zM738.67 114.5h3v111h-3z" stroke="#5e5e5e" fill="#ccc"/><path d="M834.17 70.75c0 7.04-5.7 12.75-12.75 12.75-7.04 0-12.75-5.7-12.75-12.75 0-7.04 5.7-12.75 12.75-12.75 7.04 0 12.75 5.7 12.75 12.75zM890.17 70.75c0 7.04-5.7 12.75-12.75 12.75-7.04 0-12.75-5.7-12.75-12.75 0-7.04 5.7-12.75 12.75-12.75 7.04 0 12.75 5.7 12.75 12.75z" stroke="#5e5e5e" fill="#fff"/><path d="M379.33 90h260v100h-260z" stroke="#666" fill="#ccc"/><path d="M639.33 185c0 30.38-58.2 55-130 55s-130-24.62-130-55 58.2-55 130-55 130 24.62 130 55z" stroke="#666" fill="#ccc"/><path d="M637.7 175.5c0 30.65-57.5 55.5-128.4 55.5s-128.4-24.85-128.4-55.5S438.4 120 509.3 120s128.4 24.85 128.4 55.5z" stroke="#000" stroke-opacity="0" fill="#ccc"/><path d="M639.33 90c0 27.6-58.2 50-130 50s-130-22.4-130-50 58.2-50 130-50 130 22.4 130 50z" stroke="#666" fill="#ccc"/></g></svg>