<svg xmlns="http://www.w3.org/2000/svg" xmlns:xlink="http://www.w3.org/1999/xlink" xmlns:lucid="lucid" width="2180" height="433.5"><g transform="translate(1440 316)" lucid:page-tab-id="P~jwqO7y7qj6"><path d="M-1140-214c0-3.3 2.7-6 6-6h108c3.3 0 6 2.7 6 6v108c0 3.3-2.7 6-6 6h-108c-3.3 0-6-2.7-6-6zM-1420-214c0-3.3 2.7-6 6-6h108c3.3 0 6 2.7 6 6v108c0 3.3-2.7 6-6 6h-108c-3.3 0-6-2.7-6-6z" stroke="#999" stroke-width="3" fill="#ccc"/><path d="M-1280-214c0-3.3 2.7-6 6-6h108c3.3 0 6 2.7 6 6v108c0 3.3-2.7 6-6 6h-108c-3.3 0-6-2.7-6-6z" stroke="#0c7cba" stroke-width="3" fill="#83bbe5"/><use xlink:href="#a" transform="matrix(1,0,0,1,-1275,-215) translate(32.85185185185185 66.72916666666667)"/><path d="M-1140-74c0-3.3 2.7-6 6-6h108c3.3 0 6 2.7 6 6V34c0 3.3-2.7 6-6 6h-108c-3.3 0-6-2.7-6-6z" stroke="#834187" stroke-width="3" fill="#b391b5"/><path d="M-1280-74c0-3.3 2.7-6 6-6h108c3.3 0 6 2.7 6 6V34c0 3.3-2.7 6-6 6h-108c-3.3 0-6-2.7-6-6z" stroke="#0c7cba" stroke-width="3" fill="#83bbe5"/><use xlink:href="#b" transform="matrix(1,0,0,1,-1275,-75) translate(37.22222222222222 66.72916666666667)"/><path d="M-880-234c0-3.3 2.7-6 6-6h428c3.3 0 6 2.7 6 6V54c0 3.3-2.7 6-6 6h-428c-3.3 0-6-2.7-6-6z" stroke="#83bbe5" stroke-width="3" fill-opacity="0"/><path d="M-720-214c0-3.3 2.7-6 6-6h108c3.3 0 6 2.7 6 6v108c0 3.3-2.7 6-6 6h-108c-3.3 0-6-2.7-6-6z" stroke="#c92d39" stroke-width="3" fill="#ff8f80"/><use xlink:href="#c" transform="matrix(1,0,0,1,-715,-215) translate(25.370370370370367 66.72916666666667)"/><path d="M-720-74c0-3.3 2.7-6 6-6h108c3.3 0 6 2.7 6 6V34c0 3.3-2.7 6-6 6h-108c-3.3 0-6-2.7-6-6z" stroke="#c92d39" stroke-width="3" fill="#ff8f80"/><use xlink:href="#d" transform="matrix(1,0,0,1,-715,-75) translate(25.370370370370367 66.72916666666667)"/><path d="M-860-214c0-3.3 2.7-6 6-6h108c3.3 0 6 2.7 6 6v108c0 3.3-2.7 6-6 6h-108c-3.3 0-6-2.7-6-6z" stroke="#999" stroke-width="3" fill="#ccc"/><path d="M-580-74c0-3.3 2.7-6 6-6h108c3.3 0 6 2.7 6 6V34c0 3.3-2.7 6-6 6h-108c-3.3 0-6-2.7-6-6z" stroke="#834187" stroke-width="3" fill="#b391b5"/><path d="M-300-234c0-3.3 2.7-6 6-6h428c3.3 0 6 2.7 6 6V54c0 3.3-2.7 6-6 6h-428c-3.3 0-6-2.7-6-6z" stroke="#ff8f80" stroke-width="3" fill-opacity="0"/><path d="M-140-214c0-3.3 2.7-6 6-6h108c3.3 0 6 2.7 6 6v108c0 3.3-2.7 6-6 6h-108c-3.3 0-6-2.7-6-6z" stroke="#7ab648" stroke-width="3" fill="#a3d977"/><use xlink:href="#e" transform="matrix(1,0,0,1,-135,-215) translate(40.18518518518518 66.72916666666667)"/><path d="M-140-74c0-3.3 2.7-6 6-6h108c3.3 0 6 2.7 6 6V34c0 3.3-2.7 6-6 6h-108c-3.3 0-6-2.7-6-6z" stroke="#7ab648" stroke-width="3" fill="#a3d977"/><use xlink:href="#f" transform="matrix(1,0,0,1,-135,-75) translate(40.18518518518518 66.72916666666667)"/><path d="M-280-74c0-3.3 2.7-6 6-6h108c3.3 0 6 2.7 6 6V34c0 3.3-2.7 6-6 6h-108c-3.3 0-6-2.7-6-6z" stroke="#7ab648" stroke-width="3" fill="#a3d977"/><use xlink:href="#g" transform="matrix(1,0,0,1,-275,-75) translate(40.18518518518518 66.72916666666667)"/><path d="M0-74c0-3.3 2.7-6 6-6h108c3.3 0 6 2.7 6 6V34c0 3.3-2.7 6-6 6H6c-3.3 0-6-2.7-6-6z" stroke="#7ab648" stroke-width="3" fill="#a3d977"/><use xlink:href="#f" transform="matrix(1,0,0,1,5,-75) translate(40.18518518518518 66.72916666666667)"/><path d="M280-234c0-3.3 2.7-6 6-6h428c3.3 0 6 2.7 6 6V54c0 3.3-2.7 6-6 6H286c-3.3 0-6-2.7-6-6z" stroke="#a3d977" stroke-width="3" fill-opacity="0"/><path d="M300-214c0-3.3 2.7-6 6-6h108c3.3 0 6 2.7 6 6v108c0 3.3-2.7 6-6 6H306c-3.3 0-6-2.7-6-6z" stroke="#ef8d22" stroke-width="3" fill="#ffc374"/><use xlink:href="#h" transform="matrix(1,0,0,1,305,-215) translate(40.18518518518518 66.72916666666667)"/><path d="M580-214c0-3.3 2.7-6 6-6h108c3.3 0 6 2.7 6 6v108c0 3.3-2.7 6-6 6H586c-3.3 0-6-2.7-6-6z" stroke="#de5f85" stroke-width="3" fill="#f5b5c8"/><use xlink:href="#g" transform="matrix(1,0,0,1,585,-215) translate(40.18518518518518 66.72916666666667)"/><path d="M440-214c0-3.3 2.7-6 6-6h108c3.3 0 6 2.7 6 6v108c0 3.3-2.7 6-6 6H446c-3.3 0-6-2.7-6-6z" stroke="#19967d" stroke-width="3" fill="#5abaa7"/><use xlink:href="#i" transform="matrix(1,0,0,1,445,-215) translate(40.18518518518518 66.72916666666667)"/><path d="M580-74c0-3.3 2.7-6 6-6h108c3.3 0 6 2.7 6 6V34c0 3.3-2.7 6-6 6H586c-3.3 0-6-2.7-6-6z" stroke="#3aa6dd" stroke-width="3" fill="#99d2f2"/><use xlink:href="#g" transform="matrix(1,0,0,1,585,-75) translate(40.18518518518518 66.72916666666667)"/><path d="M-1220-223v-71c0-3.3 2.7-6 6-6h548c3.3 0 6 2.7 6 6v31.88" stroke="#83bbe5" stroke-width="3" fill="none"/><path d="M-1218.5-221.5h-3v-1.54h3z" stroke="#83bbe5" stroke-width=".05" fill="#83bbe5"/><path d="M-660-246.35l-4.64-14.27h9.28z" stroke="#83bbe5" stroke-width="3" fill="#83bbe5"/><path d="M-660 43v52.5c0 3.3 2.7 6 6 6h568c3.3 0 6-2.7 6-6V82.12" stroke="#ff8f80" stroke-width="3" fill="none"/><path d="M-658.5 43.04h-3V41.5h3z" stroke="#ff8f80" stroke-width=".05" fill="#ff8f80"/><path d="M-80 66.35l4.64 14.27h-9.28z" stroke="#ff8f80" stroke-width="3" fill="#ff8f80"/><path d="M-80-223v-52.5c0-3.3 2.7-6 6-6h568c3.3 0 6 2.7 6 6v13.38" stroke="#a3d977" stroke-width="3" fill="none"/><path d="M-78.5-221.5h-3v-1.54h3z" stroke="#a3d977" stroke-width=".05" fill="#a3d977"/><path d="M500-246.35l-4.64-14.27h9.28z" stroke="#a3d977" stroke-width="3" fill="#a3d977"/><defs><path fill="#333" d="M240 0l2-218c-23 76-54 145-80 218h-23L58-218 59 0H30v-248h44l77 211c21-75 51-140 76-211h43V0h-30" id="j"/><use transform="matrix(0.14814814814814817,0,0,0.14814814814814817,0,0)" xlink:href="#j" id="a"/><path fill="#333" d="M185-189c-5-48-123-54-124 2 14 75 158 14 163 119 3 78-121 87-175 55-17-10-28-26-33-46l33-7c5 56 141 63 141-1 0-78-155-14-162-118-5-82 145-84 179-34 5 7 8 16 11 25" id="k"/><use transform="matrix(0.14814814814814817,0,0,0.14814814814814817,0,0)" xlink:href="#k" id="b"/><path fill="#333" d="M126-127c33 6 58 20 58 59 0 88-139 92-164 29-3-8-5-16-6-25l32-3c6 27 21 44 54 44 32 0 52-15 52-46 0-38-36-46-79-43v-28c39 1 72-4 72-42 0-27-17-43-46-43-28 0-47 15-49 41l-32-3c6-42 35-63 81-64 48-1 79 21 79 65 0 36-21 52-52 59" id="l"/><path fill="#333" d="M101-251c68 0 85 55 85 127S166 4 100 4C33 4 14-52 14-124c0-73 17-127 87-127zm-1 229c47 0 54-49 54-102s-4-102-53-102c-51 0-55 48-55 102 0 53 5 102 54 102" id="m"/><g id="c"><use transform="matrix(0.14814814814814817,0,0,0.14814814814814817,0,0)" xlink:href="#l"/><use transform="matrix(0.14814814814814817,0,0,0.14814814814814817,29.629629629629633,0)" xlink:href="#m"/></g><path fill="#333" d="M101-251c82-7 93 87 43 132L82-64C71-53 59-42 53-27h129V0H18c2-99 128-94 128-182 0-28-16-43-45-43s-46 15-49 41l-32-3c6-41 34-60 81-64" id="n"/><g id="d"><use transform="matrix(0.14814814814814817,0,0,0.14814814814814817,0,0)" xlink:href="#n"/><use transform="matrix(0.14814814814814817,0,0,0.14814814814814817,29.629629629629633,0)" xlink:href="#m"/></g><path fill="#333" d="M134-131c28 9 52 24 51 62-1 50-34 73-85 73S17-19 16-69c0-36 21-54 49-61-75-25-45-126 34-121 46 3 78 18 79 63 0 33-17 51-44 57zm-34-11c31 1 46-15 46-44 0-28-17-43-47-42-29 0-46 13-45 42 1 28 16 44 46 44zm1 122c35 0 51-18 51-52 0-30-18-46-53-46-33 0-51 17-51 47 0 34 19 51 53 51" id="o"/><use transform="matrix(0.14814814814814817,0,0,0.14814814814814817,0,0)" xlink:href="#o" id="e"/><path fill="#333" d="M54-142c48-35 137-8 131 61C196 18 31 33 14-55l32-4c7 23 22 37 52 37 35-1 51-22 54-58 4-55-73-65-99-34H22l8-134h141v27H59" id="p"/><use transform="matrix(0.14814814814814817,0,0,0.14814814814814817,0,0)" xlink:href="#p" id="f"/><use transform="matrix(0.14814814814814817,0,0,0.14814814814814817,0,0)" xlink:href="#l" id="g"/><path fill="#333" d="M27 0v-27h64v-190l-56 39v-29l58-41h29v221h61V0H27" id="q"/><use transform="matrix(0.14814814814814817,0,0,0.14814814814814817,0,0)" xlink:href="#q" id="h"/><use transform="matrix(0.14814814814814817,0,0,0.14814814814814817,0,0)" xlink:href="#n" id="i"/></defs></g></svg>