<svg xmlns="http://www.w3.org/2000/svg" xmlns:xlink="http://www.w3.org/1999/xlink" version="1.1" viewBox="0 0 1654.9999598977129 1352.999933162855" style="background: #ffffff"><g id="v-3"  transform="matrix(1,0,0,1,0,0)"><g id="j_129"    transform="translate(20,1307.999933162855)"><g id="v-2139"><text  id="v-2140" font-size="22px" y="0.8em" xml:space="preserve" font-weight="normal" text-anchor="start" fill="#aaaaaa" pointer-events="none" font-family="Open Sans" transform="matrix(1,0,0,1,0,0)"><tspan id="v-2141"  dy="0em" x="0">Wednesday, March 8, 2023 at 3:02 PM Central European Standard Time</tspan></text></g></g><g id="j_128"    transform="translate(20,1261.999933162855)"><g id="v-2135"><text  id="v-2136" font-size="36px" y="0.8em" xml:space="preserve" font-weight="normal" text-anchor="start" fill="#000000" pointer-events="none" font-family="Open Sans" transform="matrix(1,0,0,1,0,0)"><tspan id="v-2137"  dy="0em" x="0">[System Context] MILA</tspan></text></g></g><g id="j_123"    transform="translate(964,199)" style=""><g id="v-2040"><rect  id="v-2041" width="491" height="934" rx="0" ry="0" fill="#ffffff" stroke="#444444" stroke-width="1" stroke-dasharray="20,20" pointer-events="none"></rect><text  id="v-2042" font-size="24px" y="895" xml:space="preserve" font-weight="normal" fill="#444444" x="10" text-anchor="start" pointer-events="visible" font-family="Open Sans" transform="matrix(1,0,0,1,15,0)"><tspan id="v-2045"  dy="0em" x="0">DAEDALUS</tspan></text><text  id="v-2043" font-size="19px" y="919" xml:space="preserve" font-weight="normal" fill="#444444" x="10" text-anchor="start" pointer-events="visible" font-family="Open Sans" transform="matrix(1,0,0,1,15,0)"><tspan id="v-2046"  dy="0em" x="0">[Enterprise]</tspan></text><image  id="v-2044" pointer-events="visible"></image></g></g><g id="j_122"    transform="translate(984,219)" style="" ><g  id="v-2028" style="opacity: 1;"><rect  id="v-2029" rx="1" ry="1" stroke="#666666" stroke-width="8" pointer-events="visiblePainted" fill="#f5f5f5" width="450" height="300" style="fill: rgb(245, 245, 245); stroke: rgb(102, 102, 102);"></rect><text  id="v-2030" font-size="34" y="0.8em" xml:space="preserve" font-weight="bold" text-anchor="middle" pointer-events="visible" font-family="Open Sans" fill="#000000" transform="matrix(1,0,0,1,225,75)" style="fill: rgb(0, 0, 0);"><tspan id="v-2035"  dy="0em" x="0">Icarus</tspan></text><text  id="v-2031" font-size="19" y="0.8em" xml:space="preserve" text-anchor="middle" font-family="Open Sans" fill="#000000" transform="matrix(1,0,0,1,225,117.5)" style="fill: rgb(0, 0, 0);"><tspan id="v-2036"  dy="0em" x="0">[Software System]</tspan></text><text  id="v-2032" font-size="24" y="0.8em" xml:space="preserve" text-anchor="middle" font-family="Open Sans" fill="#000000" transform="matrix(1,0,0,1,225,165)" style="fill: rgb(0, 0, 0);"><tspan id="v-2037"  dy="0em" x="0">Provides powerful facilities to work</tspan><tspan id="v-2038"  dy="1.2em" x="0">with physics materials.</tspan></text><text  id="v-2033" font-weight="bold" text-anchor="middle" font-family="Open Sans" fill="#000000" font-size="24" transform="matrix(1,0,0,1,225,270)" y="0.8em" xml:space="preserve" display="none" style="fill: rgb(0, 0, 0);"><tspan id="v-2047"  dy="0em" x="0">#</tspan></text><image  id="v-2034"></image></g></g><g id="j_124"    transform="translate(210,690)" style=""><g  id="v-2053" style="opacity: 1;"><rect  x="0" y="160" width="400" height="240" rx="70" id="v-2055" stroke="#834187" stroke-width="8" pointer-events="visiblePainted" fill="#f4d9ff" style="fill: rgb(244, 217, 255); stroke: rgb(131, 65, 135);"></rect><circle  cx="200" cy="88.88888888888889" r="88.88888888888889" id="v-2054" stroke="#834187" stroke-width="8" pointer-events="visiblePainted" fill="#f4d9ff" style="fill: rgb(244, 217, 255); stroke: rgb(131, 65, 135);"></circle><line  x1="80" y1="266.6666666666667" x2="80" y2="400" id="v-2061" stroke="#834187" stroke-width="8" style="stroke: rgb(131, 65, 135);"></line><line  x1="320" y1="266.6666666666667" x2="320" y2="400" id="v-2062" stroke="#834187" stroke-width="8" style="stroke: rgb(131, 65, 135);"></line><text  id="v-2056" font-size="34px" y="0.8em" xml:space="preserve" font-weight="bold" text-anchor="middle" pointer-events="visible" font-family="Open Sans" fill="#000000" transform="matrix(1,0,0,1,200,205)" style="fill: rgb(0, 0, 0);"><tspan id="v-2063"  dy="0em" x="0">Material scientist</tspan></text><text  id="v-2057" font-size="19px" y="0.8em" xml:space="preserve" text-anchor="middle" font-family="Open Sans" fill="#000000" transform="matrix(1,0,0,1,200,247.5)" style="fill: rgb(0, 0, 0);"><tspan id="v-2064"  dy="0em" x="0">[Person]</tspan></text><text  id="v-2058" font-size="24px" y="0.8em" xml:space="preserve" text-anchor="middle" font-family="Open Sans" fill="#000000" transform="matrix(1,0,0,1,200,295)" style="fill: rgb(0, 0, 0);"><tspan id="v-2065"  dy="0em" x="0">Leverages smartphone facilities</tspan><tspan id="v-2066"  dy="1.2em" x="0">to capture materials properties.</tspan></text><text  id="v-2059" font-weight="bold" text-anchor="middle" font-family="Open Sans" fill="#000000" font-size="24" transform="matrix(1,0,0,1,200,371.2)" style="fill: rgb(0, 0, 0);" display="none"></text><image  id="v-2060"></image></g></g><g id="j_125"    transform="translate(985,740)" style="" ><g  id="v-2070" style="opacity: 1;"><rect  id="v-2071" rx="1" ry="1" stroke="#0c7cba" stroke-width="8" pointer-events="visiblePainted" fill="#cfe4ff" width="450" height="300" style="fill: rgb(207, 228, 255); stroke: rgb(12, 124, 186);"></rect><text  id="v-2072" font-size="34" y="0.8em" xml:space="preserve" font-weight="bold" text-anchor="middle" pointer-events="visible" font-family="Open Sans" fill="#000000" transform="matrix(1,0,0,1,225,60)" style="fill: rgb(0, 0, 0);"><tspan id="v-2077"  dy="0em" x="0">MILA</tspan></text><text  id="v-2073" font-size="19" y="0.8em" xml:space="preserve" text-anchor="middle" font-family="Open Sans" fill="#000000" transform="matrix(1,0,0,1,225,102.5)" style="fill: rgb(0, 0, 0);"><tspan id="v-2078"  dy="0em" x="0">[Software System]</tspan></text><text  id="v-2074" font-size="24" y="0.8em" xml:space="preserve" text-anchor="middle" font-family="Open Sans" fill="#000000" transform="matrix(1,0,0,1,225,150)" style="fill: rgb(0, 0, 0);"><tspan id="v-2079"  dy="0em" x="0">Provides lightweight material</tspan><tspan id="v-2080"  dy="1.2em" x="0">acquisition facilities &amp; crafts</tspan><tspan id="v-2081"  dy="1.2em" x="0">self-contained material assets.</tspan></text><text  id="v-2075" font-weight="bold" text-anchor="middle" font-family="Open Sans" fill="#000000" font-size="24" transform="matrix(1,0,0,1,225,270)" y="0.8em" xml:space="preserve" display="none" style="fill: rgb(0, 0, 0);"><tspan id="v-2082"  dy="0em" x="0">+</tspan></text><image  id="v-2076"></image></g></g><g id="j_126"   ><path  stroke="#707070" id="v-2103" stroke-width="2" stroke-dasharray="30 30" fill="none" d="M 1209 519 1210 720" style="opacity: 1;"></path><path  fill="black" stroke="black" transform="translate(1209,519) scale(1,1) rotate(89.74075317382815)"></path><path  fill="#707070" stroke="#707070" id="v-2105" d="M 20 0 L 0 10 L 20 20 z" transform="translate(1200.000062569044,740.0452679835247) scale(1,1) rotate(-90.2592544555664)" style="opacity: 1;"></path><path  id="v-2104" fill="none" d="M 1209 519 1210 720" style=""></path><title ></title><g ><g  id="v-2090" label-idx="0" cursor="move" transform="translate(1209.5, 619.5)" style="opacity: 1;"><rect id="v-2092" fill="#ffffff" rx="3" ry="3" stroke="#ffffff" stroke-width="20px" pointer-events="none" width="193.1781768798828" height="61.38373947143555" transform="matrix(1,0,0,1,-97.3,-30.7)"></rect><text id="v-2091" font-size="24px" y="0.8em" xml:space="preserve" text-anchor="middle" pointer-events="none" fill="#707070" font-family="Open Sans" font-weight="normal" transform="matrix(1,0,0,1,0,-24.4)"><tspan id="v-2093"  dy="0em" x="0">fetches materials</tspan><tspan id="v-2094"  dy="1.2em" x="0">from</tspan></text></g><g  id="v-2095" label-idx="1" cursor="move" transform="translate(1209.5, 662.7)" style="opacity: 1;"><rect id="v-2097" fill="#ffffff" rx="3" ry="3" pointer-events="none" width="0" height="0" transform="matrix(1,0,0,1,0,0)"></rect><text id="v-2096" font-size="19px" y="0.8em" display="none" xml:space="preserve" text-anchor="middle" pointer-events="none" fill="#707070" font-family="Open Sans" font-weight="normal" transform="matrix(1,0,0,1,0,0)"><tspan id="v-2098"  dy="0em" x="0" style="fill-opacity: 0; stroke-opacity: 0;">-</tspan></text></g><g  id="v-2099" label-idx="2" cursor="move" transform="translate(1209.5, 686.7)" style="opacity: 1;"><rect id="v-2101" fill="#ffffff" rx="3" ry="3" pointer-events="none"  display="none" width="0" height="0" transform="matrix(1,0,0,1,0,0)"></rect><text id="v-2100" font-size="19px" y="0.8em" display="none" xml:space="preserve" text-anchor="middle" pointer-events="none" fill="#707070" font-family="Open Sans" font-weight="normal"  transform="matrix(1,0,0,1,0,0)"><tspan id="v-2102"  dy="0em" x="0" style="fill-opacity: 0; stroke-opacity: 0;">-</tspan></text></g></g><g  display="none"></g><g  id="v-2107" display="none"><g  id="v-2087"><path  end="source" d="M 26 0 L 0 13 L 26 26 z"></path></g><g  id="v-2088"><path  end="target" d="M 26 0 L 0 13 L 26 26 z"></path></g></g><g  id="v-2106" display="none"><g  id="v-2086" transform="translate(1209.198974609375, 558.99951171875) "><g  event="remove"><circle r="11"></circle><path transform="scale(.8) translate(-16, -16)" d="M24.778,21.419 19.276,15.917 24.777,10.415 21.949,7.585 16.447,13.087 10.945,7.585 8.117,10.415 13.618,15.917 8.116,21.419 10.946,24.248 16.447,18.746 21.948,24.248z"></path><title>Remove link.</title></g><g  event="link:options"><circle r="11" transform="translate(25)"></circle><path fill="white" transform="scale(.55) translate(29, -16)" d="M31.229,17.736c0.064-0.571,0.104-1.148,0.104-1.736s-0.04-1.166-0.104-1.737l-4.377-1.557c-0.218-0.716-0.504-1.401-0.851-2.05l1.993-4.192c-0.725-0.91-1.549-1.734-2.458-2.459l-4.193,1.994c-0.647-0.347-1.334-0.632-2.049-0.849l-1.558-4.378C17.165,0.708,16.588,0.667,16,0.667s-1.166,0.041-1.737,0.105L12.707,5.15c-0.716,0.217-1.401,0.502-2.05,0.849L6.464,4.005C5.554,4.73,4.73,5.554,4.005,6.464l1.994,4.192c-0.347,0.648-0.632,1.334-0.849,2.05l-4.378,1.557C0.708,14.834,0.667,15.412,0.667,16s0.041,1.165,0.105,1.736l4.378,1.558c0.217,0.715,0.502,1.401,0.849,2.049l-1.994,4.193c0.725,0.909,1.549,1.733,2.459,2.458l4.192-1.993c0.648,0.347,1.334,0.633,2.05,0.851l1.557,4.377c0.571,0.064,1.148,0.104,1.737,0.104c0.588,0,1.165-0.04,1.736-0.104l1.558-4.377c0.715-0.218,1.399-0.504,2.049-0.851l4.193,1.993c0.909-0.725,1.733-1.549,2.458-2.458l-1.993-4.193c0.347-0.647,0.633-1.334,0.851-2.049L31.229,17.736zM16,20.871c-2.69,0-4.872-2.182-4.872-4.871c0-2.69,2.182-4.872,4.872-4.872c2.689,0,4.871,2.182,4.871,4.872C20.871,18.689,18.689,20.871,16,20.871z"></path><title>Link options.</title></g></g></g></g><g id="j_127"   ><path  stroke="#707070" id="v-2127" stroke-width="2" stroke-dasharray="30 30" fill="none" d="M 610 890 965 890" style="opacity: 1;"></path><path  fill="black" stroke="black" transform="translate(610,890) scale(1,1) rotate(0)"></path><path  fill="#707070" stroke="#707070" id="v-2129" d="M 20 0 L 0 10 L 20 20 z" transform="translate(985,900) scale(1,1) rotate(-180)" style="opacity: 1;"></path><path  id="v-2128" fill="none" d="M 610 890 965 890" style=""></path><title ></title><g ><g  id="v-2115" label-idx="0" cursor="move" transform="translate(787.5, 890)" style="opacity: 1;"><rect id="v-2117" fill="#ffffff" rx="3" ry="3" stroke="#ffffff" stroke-width="20px" pointer-events="none" width="191.45159912109375" height="32.583736419677734" transform="matrix(1,0,0,1,-95.7,-16.3)"></rect><text id="v-2116" font-size="24px" y="0.8em" xml:space="preserve" text-anchor="middle" pointer-events="none" fill="#707070" font-family="Open Sans" font-weight="normal" transform="matrix(1,0,0,1,0,-10)"><tspan id="v-2118"  dy="0em" x="0">sends pictures to</tspan></text></g><g  id="v-2119" label-idx="1" cursor="move" transform="translate(787.5, 921.2)" style="opacity: 1;"><rect id="v-2121" fill="#ffffff" rx="3" ry="3" pointer-events="none" width="0" height="0" transform="matrix(1,0,0,1,0,0)"></rect><text id="v-2120" font-size="19px" y="0.8em" display="none" xml:space="preserve" text-anchor="middle" pointer-events="none" fill="#707070" font-family="Open Sans" font-weight="normal" transform="matrix(1,0,0,1,0,0)"><tspan id="v-2122"  dy="0em" x="0" style="fill-opacity: 0; stroke-opacity: 0;">-</tspan></text></g><g  id="v-2123" label-idx="2" cursor="move" transform="translate(787.5, 945.2)" style="opacity: 1;"><rect id="v-2125" fill="#ffffff" rx="3" ry="3" pointer-events="none"  display="none" width="0" height="0" transform="matrix(1,0,0,1,0,0)"></rect><text id="v-2124" font-size="19px" y="0.8em" display="none" xml:space="preserve" text-anchor="middle" pointer-events="none" fill="#707070" font-family="Open Sans" font-weight="normal"  transform="matrix(1,0,0,1,0,0)"><tspan id="v-2126"  dy="0em" x="0" style="fill-opacity: 0; stroke-opacity: 0;">-</tspan></text></g></g><g  display="none"></g><g  id="v-2131" display="none"><g  id="v-2112"><path  end="source" d="M 26 0 L 0 13 L 26 26 z"></path></g><g  id="v-2113"><path  end="target" d="M 26 0 L 0 13 L 26 26 z"></path></g></g><g  id="v-2130" display="none"><g  id="v-2111" transform="translate(650, 890) "><g  event="remove"><circle r="11"></circle><path transform="scale(.8) translate(-16, -16)" d="M24.778,21.419 19.276,15.917 24.777,10.415 21.949,7.585 16.447,13.087 10.945,7.585 8.117,10.415 13.618,15.917 8.116,21.419 10.946,24.248 16.447,18.746 21.948,24.248z"></path><title>Remove link.</title></g><g  event="link:options"><circle r="11" transform="translate(25)"></circle><path fill="white" transform="scale(.55) translate(29, -16)" d="M31.229,17.736c0.064-0.571,0.104-1.148,0.104-1.736s-0.04-1.166-0.104-1.737l-4.377-1.557c-0.218-0.716-0.504-1.401-0.851-2.05l1.993-4.192c-0.725-0.91-1.549-1.734-2.458-2.459l-4.193,1.994c-0.647-0.347-1.334-0.632-2.049-0.849l-1.558-4.378C17.165,0.708,16.588,0.667,16,0.667s-1.166,0.041-1.737,0.105L12.707,5.15c-0.716,0.217-1.401,0.502-2.05,0.849L6.464,4.005C5.554,4.73,4.73,5.554,4.005,6.464l1.994,4.192c-0.347,0.648-0.632,1.334-0.849,2.05l-4.378,1.557C0.708,14.834,0.667,15.412,0.667,16s0.041,1.165,0.105,1.736l4.378,1.558c0.217,0.715,0.502,1.401,0.849,2.049l-1.994,4.193c0.725,0.909,1.549,1.733,2.459,2.458l4.192-1.993c0.648,0.347,1.334,0.633,2.05,0.851l1.557,4.377c0.571,0.064,1.148,0.104,1.737,0.104c0.588,0,1.165-0.04,1.736-0.104l1.558-4.377c0.715-0.218,1.399-0.504,2.049-0.851l4.193,1.993c0.909-0.725,1.733-1.549,2.458-2.458l-1.993-4.193c0.347-0.647,0.633-1.334,0.851-2.049L31.229,17.736zM16,20.871c-2.69,0-4.872-2.182-4.872-4.871c0-2.69,2.182-4.872,4.872-4.872c2.689,0,4.871,2.182,4.871,4.872C20.871,18.689,18.689,20.871,16,20.871z"></path><title>Link options.</title></g></g></g></g></g><defs id="v-4"></defs></svg>