<svg xmlns="http://www.w3.org/2000/svg" xmlns:xlink="http://www.w3.org/1999/xlink" version="1.1" viewBox="0 0 2330.9998414625056 1471.9999096687152" style="background: #ffffff"><g id="v-3"  transform="matrix(1,0,0,1,0,0)"><g id="j_273"    transform="translate(20,1426.9999096687152)"><g id="v-4411"><text  id="v-4412" font-size="22px" y="0.8em" xml:space="preserve" font-weight="normal" text-anchor="start" fill="#aaaaaa" pointer-events="none" font-family="Open Sans" transform="matrix(1,0,0,1,0,0)"><tspan id="v-4413"  dy="0em" x="0">Wednesday, March 8, 2023 at 3:02 PM Central European Standard Time</tspan></text></g></g><g id="j_272"    transform="translate(20,1380.9999096687152)"><g id="v-4407"><text  id="v-4408" font-size="36px" y="0.8em" xml:space="preserve" font-weight="normal" text-anchor="start" fill="#000000" pointer-events="none" font-family="Open Sans" transform="matrix(1,0,0,1,0,0)"><tspan id="v-4409"  dy="0em" x="0">[System Landscape] DAEDALUS</tspan></text></g></g><g id="j_265"    transform="translate(937,229)" style=""><g id="v-4272"><rect  id="v-4273" width="493" height="1044" rx="0" ry="0" fill="#ffffff" stroke="#444444" stroke-width="1" stroke-dasharray="20,20" pointer-events="none"></rect><text  id="v-4274" font-size="24px" y="1005" xml:space="preserve" font-weight="normal" fill="#444444" x="10" text-anchor="start" pointer-events="visible" font-family="Open Sans" transform="matrix(1,0,0,1,15,0)"><tspan id="v-4277"  dy="0em" x="0">DAEDALUS</tspan></text><text  id="v-4275" font-size="19px" y="1029" xml:space="preserve" font-weight="normal" fill="#444444" x="10" text-anchor="start" pointer-events="visible" font-family="Open Sans" transform="matrix(1,0,0,1,15,0)"><tspan id="v-4278"  dy="0em" x="0">[Enterprise]</tspan></text><image  id="v-4276" pointer-events="visible"></image></g></g><g id="j_264"    transform="translate(957,249)" style="" ><g  id="v-4260" style="opacity: 0.2;"><rect  id="v-4261" rx="1" ry="1" stroke="#666666" stroke-width="8" pointer-events="visiblePainted" fill="#f5f5f5" width="450" height="300"></rect><text  id="v-4262" font-size="34" y="0.8em" xml:space="preserve" font-weight="bold" text-anchor="middle" pointer-events="visible" font-family="Open Sans" fill="#000000" transform="matrix(1,0,0,1,225,75)"><tspan id="v-4267"  dy="0em" x="0">Icarus</tspan></text><text  id="v-4263" font-size="19" y="0.8em" xml:space="preserve" text-anchor="middle" font-family="Open Sans" fill="#000000" transform="matrix(1,0,0,1,225,117.5)"><tspan id="v-4268"  dy="0em" x="0">[Software System]</tspan></text><text  id="v-4264" font-size="24" y="0.8em" xml:space="preserve" text-anchor="middle" font-family="Open Sans" fill="#000000" transform="matrix(1,0,0,1,225,165)"><tspan id="v-4269"  dy="0em" x="0">Provides powerful facilities to work</tspan><tspan id="v-4270"  dy="1.2em" x="0">with physics materials.</tspan></text><text  id="v-4265" font-weight="bold" text-anchor="middle" font-family="Open Sans" fill="#000000" font-size="24" transform="matrix(1,0,0,1,225,270)" y="0.8em" xml:space="preserve" display="none"><tspan id="v-4279"  dy="0em" x="0">#</tspan></text><image  id="v-4266"></image></g></g><g id="j_266"    transform="translate(199,828)" style=""><g  id="v-4285" style="opacity: 1;"><rect  x="0" y="160" width="400" height="240" rx="70" id="v-4287" stroke="#834187" stroke-width="8" pointer-events="visiblePainted" fill="#f4d9ff"></rect><circle  cx="200" cy="88.88888888888889" r="88.88888888888889" id="v-4286" stroke="#834187" stroke-width="8" pointer-events="visiblePainted" fill="#f4d9ff"></circle><line  x1="80" y1="266.6666666666667" x2="80" y2="400" id="v-4293" stroke="#834187" stroke-width="8"></line><line  x1="320" y1="266.6666666666667" x2="320" y2="400" id="v-4294" stroke="#834187" stroke-width="8"></line><text  id="v-4288" font-size="34px" y="0.8em" xml:space="preserve" font-weight="bold" text-anchor="middle" pointer-events="visible" font-family="Open Sans" fill="#000000" transform="matrix(1,0,0,1,200,205)"><tspan id="v-4295"  dy="0em" x="0">Material scientist</tspan></text><text  id="v-4289" font-size="19px" y="0.8em" xml:space="preserve" text-anchor="middle" font-family="Open Sans" fill="#000000" transform="matrix(1,0,0,1,200,247.5)"><tspan id="v-4296"  dy="0em" x="0">[Person]</tspan></text><text  id="v-4290" font-size="24px" y="0.8em" xml:space="preserve" text-anchor="middle" font-family="Open Sans" fill="#000000" transform="matrix(1,0,0,1,200,295)"><tspan id="v-4297"  dy="0em" x="0">Leverages smartphone facilities</tspan><tspan id="v-4298"  dy="1.2em" x="0">to capture materials properties.</tspan></text><text  id="v-4291" font-weight="bold" text-anchor="middle" font-family="Open Sans" fill="#000000" font-size="24" transform="matrix(1,0,0,1,200,371.2)" display="none"></text><image  id="v-4292"></image></g></g><g id="j_267"    transform="translate(1730,199)" style=""><g  id="v-4304" style="opacity: 1;"><rect  x="0" y="160" width="400" height="240" rx="70" id="v-4306" stroke="#834187" stroke-width="8" pointer-events="visiblePainted" fill="#f4d9ff"></rect><circle  cx="200" cy="88.88888888888889" r="88.88888888888889" id="v-4305" stroke="#834187" stroke-width="8" pointer-events="visiblePainted" fill="#f4d9ff"></circle><line  x1="80" y1="266.6666666666667" x2="80" y2="400" id="v-4312" stroke="#834187" stroke-width="8"></line><line  x1="320" y1="266.6666666666667" x2="320" y2="400" id="v-4313" stroke="#834187" stroke-width="8"></line><text  id="v-4307" font-size="34px" y="0.8em" xml:space="preserve" font-weight="bold" text-anchor="middle" pointer-events="visible" font-family="Open Sans" fill="#000000" transform="matrix(1,0,0,1,200,220)"><tspan id="v-4314"  dy="0em" x="0">Simulation engineer</tspan></text><text  id="v-4308" font-size="19px" y="0.8em" xml:space="preserve" text-anchor="middle" font-family="Open Sans" fill="#000000" transform="matrix(1,0,0,1,200,262.5)"><tspan id="v-4315"  dy="0em" x="0">[Person]</tspan></text><text  id="v-4309" font-size="24px" y="0.8em" xml:space="preserve" text-anchor="middle" font-family="Open Sans" fill="#000000" transform="matrix(1,0,0,1,200,310)"><tspan id="v-4316"  dy="0em" x="0">Crafts physics-based simulation.</tspan></text><text  id="v-4310" font-weight="bold" text-anchor="middle" font-family="Open Sans" fill="#000000" font-size="24" transform="matrix(1,0,0,1,200,371.2)" display="none"></text><image  id="v-4311"></image></g></g><g id="j_268"    transform="translate(960,880)" style="" ><g  id="v-4320" style="opacity: 0.2;"><rect  id="v-4321" rx="1" ry="1" stroke="#0c7cba" stroke-width="8" pointer-events="visiblePainted" fill="#cfe4ff" width="450" height="300"></rect><text  id="v-4322" font-size="34" y="0.8em" xml:space="preserve" font-weight="bold" text-anchor="middle" pointer-events="visible" font-family="Open Sans" fill="#000000" transform="matrix(1,0,0,1,225,60)"><tspan id="v-4327"  dy="0em" x="0">MILA</tspan></text><text  id="v-4323" font-size="19" y="0.8em" xml:space="preserve" text-anchor="middle" font-family="Open Sans" fill="#000000" transform="matrix(1,0,0,1,225,102.5)"><tspan id="v-4328"  dy="0em" x="0">[Software System]</tspan></text><text  id="v-4324" font-size="24" y="0.8em" xml:space="preserve" text-anchor="middle" font-family="Open Sans" fill="#000000" transform="matrix(1,0,0,1,225,150)"><tspan id="v-4329"  dy="0em" x="0">Provides lightweight material</tspan><tspan id="v-4330"  dy="1.2em" x="0">acquisition facilities &amp; crafts</tspan><tspan id="v-4331"  dy="1.2em" x="0">self-contained material assets.</tspan></text><text  id="v-4325" font-weight="bold" text-anchor="middle" font-family="Open Sans" fill="#000000" font-size="24" transform="matrix(1,0,0,1,225,270)" y="0.8em" xml:space="preserve" display="none"><tspan id="v-4332"  dy="0em" x="0">+</tspan></text><image  id="v-4326"></image></g></g><g id="j_269"   ><path  stroke="#707070" id="v-4353" stroke-width="2" stroke-dasharray="30 30" fill="none" d="M 1183 549 1184 860" style="opacity: 0.2;"></path><path  fill="black" stroke="black" transform="translate(1183,549) scale(1,1) rotate(89.82690429687503)"></path><path  fill="#707070" stroke="#707070" id="v-4355" d="M 20 0 L 0 10 L 20 20 z" transform="translate(1174.00010512115,880.030226253719) scale(1,1) rotate(-90.173095703125)" style="opacity: 0.2;"></path><path  id="v-4354" fill="none" d="M 1183 549 1184 860" style=""></path><title ></title><g ><g  id="v-4340" label-idx="0" cursor="move" transform="translate(1183.5, 704.5)" style="opacity: 0.2;"><rect id="v-4342" fill="#ffffff" rx="3" ry="3" stroke="#ffffff" stroke-width="20px" pointer-events="none" width="194.11888122558594" height="61.69194030761719" transform="matrix(1,0,0,1,-97.6,-30.9)"></rect><text id="v-4341" font-size="24px" y="0.8em" xml:space="preserve" text-anchor="middle" pointer-events="none" fill="#707070" font-family="Open Sans" font-weight="normal" transform="matrix(1,0,0,1,0,-24.1)"><tspan id="v-4343"  dy="0em" x="0">fetches materials</tspan><tspan id="v-4344"  dy="1.2em" x="0">from</tspan></text></g><g  id="v-4345" label-idx="1" cursor="move" transform="translate(1183.5, 747.7)" style="opacity: 0.2;"><rect id="v-4347" fill="#ffffff" rx="3" ry="3" pointer-events="none" width="0" height="0" transform="matrix(1,0,0,1,0,0)"></rect><text id="v-4346" font-size="19px" y="0.8em" display="none" xml:space="preserve" text-anchor="middle" pointer-events="none" fill="#707070" font-family="Open Sans" font-weight="normal" transform="matrix(1,0,0,1,0,0)"><tspan id="v-4348"  dy="0em" x="0" style="fill-opacity: 0; stroke-opacity: 0;">-</tspan></text></g><g  id="v-4349" label-idx="2" cursor="move" transform="translate(1183.5, 771.7)" style="opacity: 0.2;"><rect id="v-4351" fill="#ffffff" rx="3" ry="3" pointer-events="none"  display="none" width="0" height="0" transform="matrix(1,0,0,1,0,0)"></rect><text id="v-4350" font-size="19px" y="0.8em" display="none" xml:space="preserve" text-anchor="middle" pointer-events="none" fill="#707070" font-family="Open Sans" font-weight="normal"  transform="matrix(1,0,0,1,0,0)"><tspan id="v-4352"  dy="0em" x="0" style="fill-opacity: 0; stroke-opacity: 0;">-</tspan></text></g></g><g  display="none"></g><g  id="v-4357" display="none"><g  id="v-4337"><path  end="source" d="M 26 0 L 0 13 L 26 26 z"></path></g><g  id="v-4338"><path  end="target" d="M 26 0 L 0 13 L 26 26 z"></path></g></g><g  id="v-4356" display="none"><g  id="v-4336" transform="translate(1183.128662109375, 588.999755859375) "><g  event="remove"><circle r="11"></circle><path transform="scale(.8) translate(-16, -16)" d="M24.778,21.419 19.276,15.917 24.777,10.415 21.949,7.585 16.447,13.087 10.945,7.585 8.117,10.415 13.618,15.917 8.116,21.419 10.946,24.248 16.447,18.746 21.948,24.248z"></path><title>Remove link.</title></g><g  event="link:options"><circle r="11" transform="translate(25)"></circle><path fill="white" transform="scale(.55) translate(29, -16)" d="M31.229,17.736c0.064-0.571,0.104-1.148,0.104-1.736s-0.04-1.166-0.104-1.737l-4.377-1.557c-0.218-0.716-0.504-1.401-0.851-2.05l1.993-4.192c-0.725-0.91-1.549-1.734-2.458-2.459l-4.193,1.994c-0.647-0.347-1.334-0.632-2.049-0.849l-1.558-4.378C17.165,0.708,16.588,0.667,16,0.667s-1.166,0.041-1.737,0.105L12.707,5.15c-0.716,0.217-1.401,0.502-2.05,0.849L6.464,4.005C5.554,4.73,4.73,5.554,4.005,6.464l1.994,4.192c-0.347,0.648-0.632,1.334-0.849,2.05l-4.378,1.557C0.708,14.834,0.667,15.412,0.667,16s0.041,1.165,0.105,1.736l4.378,1.558c0.217,0.715,0.502,1.401,0.849,2.049l-1.994,4.193c0.725,0.909,1.549,1.733,2.459,2.458l4.192-1.993c0.648,0.347,1.334,0.633,2.05,0.851l1.557,4.377c0.571,0.064,1.148,0.104,1.737,0.104c0.588,0,1.165-0.04,1.736-0.104l1.558-4.377c0.715-0.218,1.399-0.504,2.049-0.851l4.193,1.993c0.909-0.725,1.733-1.549,2.458-2.458l-1.993-4.193c0.347-0.647,0.633-1.334,0.851-2.049L31.229,17.736zM16,20.871c-2.69,0-4.872-2.182-4.872-4.871c0-2.69,2.182-4.872,4.872-4.872c2.689,0,4.871,2.182,4.871,4.872C20.871,18.689,18.689,20.871,16,20.871z"></path><title>Link options.</title></g></g></g></g><g id="j_270"   ><path  stroke="#707070" id="v-4375" stroke-width="2" stroke-dasharray="30 30" fill="none" d="M 1730 399 1427 399" style="opacity: 0.2;"></path><path  fill="black" stroke="black" transform="translate(1730,399) scale(1,1) rotate(-180)"></path><path  fill="#707070" stroke="#707070" id="v-4377" d="M 20 0 L 0 10 L 20 20 z" transform="translate(1407,389) scale(1,1) rotate(0)" style="opacity: 0.2;"></path><path  id="v-4376" fill="none" d="M 1730 399 1427 399" style=""></path><title ></title><g ><g  id="v-4363" label-idx="0" cursor="move" transform="translate(1578.5, 399)" style="opacity: 0.2;"><rect id="v-4365" fill="#ffffff" rx="3" ry="3" stroke="#ffffff" stroke-width="20px" pointer-events="none" width="51.74064254760742" height="32.891937255859375" transform="matrix(1,0,0,1,-25.5,-16.5)"></rect><text id="v-4364" font-size="24px" y="0.8em" xml:space="preserve" text-anchor="middle" pointer-events="none" fill="#707070" font-family="Open Sans" font-weight="normal" transform="matrix(1,0,0,1,0,-9.7)"><tspan id="v-4366"  dy="0em" x="0">uses</tspan></text></g><g  id="v-4367" label-idx="1" cursor="move" transform="translate(1578.5, 430.2)" style="opacity: 0.2;"><rect id="v-4369" fill="#ffffff" rx="3" ry="3" pointer-events="none" width="0" height="0" transform="matrix(1,0,0,1,0,0)"></rect><text id="v-4368" font-size="19px" y="0.8em" display="none" xml:space="preserve" text-anchor="middle" pointer-events="none" fill="#707070" font-family="Open Sans" font-weight="normal" transform="matrix(1,0,0,1,0,0)"><tspan id="v-4370"  dy="0em" x="0" style="fill-opacity: 0; stroke-opacity: 0;">-</tspan></text></g><g  id="v-4371" label-idx="2" cursor="move" transform="translate(1578.5, 454.2)" style="opacity: 0.2;"><rect id="v-4373" fill="#ffffff" rx="3" ry="3" pointer-events="none"  display="none" width="0" height="0" transform="matrix(1,0,0,1,0,0)"></rect><text id="v-4372" font-size="19px" y="0.8em" display="none" xml:space="preserve" text-anchor="middle" pointer-events="none" fill="#707070" font-family="Open Sans" font-weight="normal"  transform="matrix(1,0,0,1,0,0)"><tspan id="v-4374"  dy="0em" x="0" style="fill-opacity: 0; stroke-opacity: 0;">-</tspan></text></g></g><g  display="none"></g><g  id="v-4379" display="none"><g  id="v-4360"><path  end="source" d="M 26 0 L 0 13 L 26 26 z"></path></g><g  id="v-4361"><path  end="target" d="M 26 0 L 0 13 L 26 26 z"></path></g></g><g  id="v-4378" display="none"><g  id="v-4359" transform="translate(1690, 399.0000305175781) "><g  event="remove"><circle r="11"></circle><path transform="scale(.8) translate(-16, -16)" d="M24.778,21.419 19.276,15.917 24.777,10.415 21.949,7.585 16.447,13.087 10.945,7.585 8.117,10.415 13.618,15.917 8.116,21.419 10.946,24.248 16.447,18.746 21.948,24.248z"></path><title>Remove link.</title></g><g  event="link:options"><circle r="11" transform="translate(25)"></circle><path fill="white" transform="scale(.55) translate(29, -16)" d="M31.229,17.736c0.064-0.571,0.104-1.148,0.104-1.736s-0.04-1.166-0.104-1.737l-4.377-1.557c-0.218-0.716-0.504-1.401-0.851-2.05l1.993-4.192c-0.725-0.91-1.549-1.734-2.458-2.459l-4.193,1.994c-0.647-0.347-1.334-0.632-2.049-0.849l-1.558-4.378C17.165,0.708,16.588,0.667,16,0.667s-1.166,0.041-1.737,0.105L12.707,5.15c-0.716,0.217-1.401,0.502-2.05,0.849L6.464,4.005C5.554,4.73,4.73,5.554,4.005,6.464l1.994,4.192c-0.347,0.648-0.632,1.334-0.849,2.05l-4.378,1.557C0.708,14.834,0.667,15.412,0.667,16s0.041,1.165,0.105,1.736l4.378,1.558c0.217,0.715,0.502,1.401,0.849,2.049l-1.994,4.193c0.725,0.909,1.549,1.733,2.459,2.458l4.192-1.993c0.648,0.347,1.334,0.633,2.05,0.851l1.557,4.377c0.571,0.064,1.148,0.104,1.737,0.104c0.588,0,1.165-0.04,1.736-0.104l1.558-4.377c0.715-0.218,1.399-0.504,2.049-0.851l4.193,1.993c0.909-0.725,1.733-1.549,2.458-2.458l-1.993-4.193c0.347-0.647,0.633-1.334,0.851-2.049L31.229,17.736zM16,20.871c-2.69,0-4.872-2.182-4.872-4.871c0-2.69,2.182-4.872,4.872-4.872c2.689,0,4.871,2.182,4.871,4.872C20.871,18.689,18.689,20.871,16,20.871z"></path><title>Link options.</title></g></g></g></g><g id="j_271"   ><path  stroke="#707070" id="v-4399" stroke-width="2" stroke-dasharray="30 30" fill="none" d="M 599 1029 940 1030" style="opacity: 0.2;"></path><path  fill="black" stroke="black" transform="translate(599,1029) scale(1,1) rotate(0.15872192382815342)"></path><path  fill="#707070" stroke="#707070" id="v-4401" d="M 20 0 L 0 10 L 20 20 z" transform="translate(959.9723231688827,1039.999951178942) scale(1,1) rotate(-179.84129333496094)" style="opacity: 0.2;"></path><path  id="v-4400" fill="none" d="M 599 1029 940 1030" style=""></path><title ></title><g ><g  id="v-4387" label-idx="0" cursor="move" transform="translate(769.5, 1029.5)" style="opacity: 0.2;"><rect id="v-4389" fill="#ffffff" rx="3" ry="3" stroke="#ffffff" stroke-width="20px" pointer-events="none" width="191.40077209472656" height="32.891937255859375" transform="matrix(1,0,0,1,-95.7,-16.5)"></rect><text id="v-4388" font-size="24px" y="0.8em" xml:space="preserve" text-anchor="middle" pointer-events="none" fill="#707070" font-family="Open Sans" font-weight="normal" transform="matrix(1,0,0,1,0,-9.7)"><tspan id="v-4390"  dy="0em" x="0">sends pictures to</tspan></text></g><g  id="v-4391" label-idx="1" cursor="move" transform="translate(769.5, 1060.7)" style="opacity: 0.2;"><rect id="v-4393" fill="#ffffff" rx="3" ry="3" pointer-events="none" width="0" height="0" transform="matrix(1,0,0,1,0,0)"></rect><text id="v-4392" font-size="19px" y="0.8em" display="none" xml:space="preserve" text-anchor="middle" pointer-events="none" fill="#707070" font-family="Open Sans" font-weight="normal" transform="matrix(1,0,0,1,0,0)"><tspan id="v-4394"  dy="0em" x="0" style="fill-opacity: 0; stroke-opacity: 0;">-</tspan></text></g><g  id="v-4395" label-idx="2" cursor="move" transform="translate(769.5, 1084.7)" style="opacity: 0.2;"><rect id="v-4397" fill="#ffffff" rx="3" ry="3" pointer-events="none"  display="none" width="0" height="0" transform="matrix(1,0,0,1,0,0)"></rect><text id="v-4396" font-size="19px" y="0.8em" display="none" xml:space="preserve" text-anchor="middle" pointer-events="none" fill="#707070" font-family="Open Sans" font-weight="normal"  transform="matrix(1,0,0,1,0,0)"><tspan id="v-4398"  dy="0em" x="0" style="fill-opacity: 0; stroke-opacity: 0;">-</tspan></text></g></g><g  display="none"></g><g  id="v-4403" display="none"><g  id="v-4384"><path  end="source" d="M 26 0 L 0 13 L 26 26 z"></path></g><g  id="v-4385"><path  end="target" d="M 26 0 L 0 13 L 26 26 z"></path></g></g><g  id="v-4402" display="none"><g  id="v-4383" transform="translate(638.9998168945312, 1029.1173095703125) "><g  event="remove"><circle r="11"></circle><path transform="scale(.8) translate(-16, -16)" d="M24.778,21.419 19.276,15.917 24.777,10.415 21.949,7.585 16.447,13.087 10.945,7.585 8.117,10.415 13.618,15.917 8.116,21.419 10.946,24.248 16.447,18.746 21.948,24.248z"></path><title>Remove link.</title></g><g  event="link:options"><circle r="11" transform="translate(25)"></circle><path fill="white" transform="scale(.55) translate(29, -16)" d="M31.229,17.736c0.064-0.571,0.104-1.148,0.104-1.736s-0.04-1.166-0.104-1.737l-4.377-1.557c-0.218-0.716-0.504-1.401-0.851-2.05l1.993-4.192c-0.725-0.91-1.549-1.734-2.458-2.459l-4.193,1.994c-0.647-0.347-1.334-0.632-2.049-0.849l-1.558-4.378C17.165,0.708,16.588,0.667,16,0.667s-1.166,0.041-1.737,0.105L12.707,5.15c-0.716,0.217-1.401,0.502-2.05,0.849L6.464,4.005C5.554,4.73,4.73,5.554,4.005,6.464l1.994,4.192c-0.347,0.648-0.632,1.334-0.849,2.05l-4.378,1.557C0.708,14.834,0.667,15.412,0.667,16s0.041,1.165,0.105,1.736l4.378,1.558c0.217,0.715,0.502,1.401,0.849,2.049l-1.994,4.193c0.725,0.909,1.549,1.733,2.459,2.458l4.192-1.993c0.648,0.347,1.334,0.633,2.05,0.851l1.557,4.377c0.571,0.064,1.148,0.104,1.737,0.104c0.588,0,1.165-0.04,1.736-0.104l1.558-4.377c0.715-0.218,1.399-0.504,2.049-0.851l4.193,1.993c0.909-0.725,1.733-1.549,2.458-2.458l-1.993-4.193c0.347-0.647,0.633-1.334,0.851-2.049L31.229,17.736zM16,20.871c-2.69,0-4.872-2.182-4.872-4.871c0-2.69,2.182-4.872,4.872-4.872c2.689,0,4.871,2.182,4.871,4.872C20.871,18.689,18.689,20.871,16,20.871z"></path><title>Link options.</title></g></g></g></g></g><defs id="v-4"></defs></svg>